<svg width="173" height="173" viewBox="0 0 173 173" fill="none" xmlns="http://www.w3.org/2000/svg">
<g clip-path="url(#clip0_111_5346)">
<path d="M0 0H173V173H0V0Z" fill="#241F20"/>
<path d="M52.2708 121.104C51.9143 120.997 51.5577 120.89 51.219 120.836C51.219 120.836 51.6112 120.961 52.2708 121.104Z" fill="white"/>
<path d="M58.5997 27.5082C58.0649 27.5082 57.6014 27.4368 57.1913 27.312C56.7813 27.1873 56.4426 26.9912 56.1751 26.7594C55.9077 26.5276 55.6938 26.2246 55.5333 25.868C55.3729 25.5115 55.2481 25.1371 55.1768 24.727C55.1055 24.317 55.0698 23.8713 55.0698 23.3543V19.0578C55.0698 18.523 55.1055 18.0416 55.1768 17.6316C55.2481 17.2216 55.3551 16.8294 55.5333 16.4728C55.7116 16.1163 55.9077 15.831 56.1751 15.5993C56.4426 15.3675 56.7813 15.1892 57.1735 15.0644C57.5835 14.9396 58.0471 14.8683 58.5819 14.8683C59.2059 14.8683 59.7229 14.9575 60.1685 15.1179C60.5964 15.2784 60.953 15.5279 61.2026 15.8488C61.4521 16.1697 61.6482 16.5441 61.7552 16.9542C61.8622 17.382 61.9335 17.8812 61.9335 18.4339V19.4857H59.7763V18.4339C59.7763 17.8099 59.7407 17.3999 59.6872 17.1859C59.5624 16.7759 59.2415 16.5441 58.7423 16.5085C58.7067 16.5085 58.671 16.5085 58.6175 16.5085C58.4214 16.5085 58.261 16.5263 58.1184 16.5798C57.9757 16.6154 57.8688 16.6867 57.7796 16.7937C57.6905 16.8828 57.6192 16.9898 57.5657 17.0968C57.5122 17.2037 57.4766 17.3464 57.4409 17.5246C57.4053 17.7029 57.4053 17.8634 57.3874 18.006C57.3874 18.1486 57.3696 18.3447 57.3696 18.5765V23.8C57.3696 24.5309 57.4587 25.0479 57.637 25.351C57.8153 25.6541 58.1362 25.8145 58.5997 25.8145C58.7602 25.8145 58.9028 25.7967 59.0276 25.761C59.1524 25.7254 59.2415 25.6719 59.3306 25.6184C59.4198 25.5649 59.4733 25.4758 59.5446 25.3688C59.5981 25.2619 59.6515 25.1549 59.6694 25.0658C59.705 24.9766 59.7229 24.8518 59.7407 24.6736C59.7585 24.4953 59.7585 24.3705 59.7585 24.2635C59.7585 24.1565 59.7585 23.9961 59.7585 23.8V22.6947H61.9157V23.7109C61.9157 24.1744 61.88 24.5844 61.8265 24.9588C61.773 25.3332 61.6482 25.6719 61.4878 25.9928C61.3274 26.3137 61.1312 26.5811 60.8817 26.795C60.6321 27.009 60.3112 27.1694 59.9368 27.2942C59.5624 27.4368 59.1167 27.5082 58.5997 27.5082Z" fill="white"/>
<path d="M63.5203 27.3477V15.0109H65.7666V20.1988H66.2122L68.2089 15.0109H70.4374L68.1198 20.8228L70.6157 27.3477H68.3337L66.2122 21.6072H65.7666V27.3477H63.5203Z" fill="white"/>
<path d="M75.0726 27.5082C73.8069 27.5082 72.8976 27.1694 72.345 26.4741C71.7923 25.7789 71.5249 24.7805 71.5249 23.4434V18.8974C71.5249 18.2377 71.5962 17.6673 71.7032 17.1859C71.828 16.7046 72.0241 16.2945 72.3093 15.938C72.5767 15.5814 72.9511 15.314 73.4146 15.1536C73.8782 14.9753 74.4308 14.8861 75.0904 14.8861C76.3562 14.8861 77.2654 15.2249 77.8181 15.9023C78.3707 16.5798 78.656 17.5781 78.656 18.8974V23.4434C78.656 24.0852 78.5847 24.6557 78.4599 25.1371C78.3351 25.6184 78.139 26.0463 77.8537 26.4028C77.5863 26.7594 77.2119 27.0268 76.7484 27.2229C76.2849 27.4012 75.7144 27.5082 75.0726 27.5082ZM74.52 25.7432C74.6804 25.8145 74.8587 25.8323 75.0726 25.8323C75.2865 25.8323 75.4827 25.7967 75.6253 25.7432C75.7857 25.6719 75.8927 25.6006 75.9997 25.4936C76.0888 25.3867 76.1601 25.2619 76.2136 25.0836C76.2671 24.9053 76.3027 24.7449 76.3206 24.5844C76.3384 24.424 76.3384 24.21 76.3384 23.9783V18.3625C76.3384 18.0595 76.3206 17.8099 76.3027 17.6138C76.2849 17.4177 76.2136 17.2216 76.1245 17.0611C76.0353 16.8828 75.9105 16.758 75.7322 16.6689C75.554 16.5798 75.34 16.5441 75.0726 16.5441C74.8052 16.5441 74.5913 16.5798 74.413 16.6689C74.2347 16.758 74.1099 16.8828 74.0208 17.0611C73.9316 17.2394 73.8782 17.4177 73.8425 17.6138C73.8068 17.8099 73.789 18.0595 73.789 18.3625V23.9604C73.789 24.1922 73.789 24.3883 73.8069 24.5666C73.8247 24.7449 73.8603 24.9053 73.9138 25.0658C73.9673 25.2262 74.0386 25.3688 74.1278 25.4758C74.2347 25.5828 74.3595 25.6719 74.52 25.7432Z" fill="white"/>
<path d="M80.2781 27.3477V15.0109H83.8258C85.9295 15.0109 86.9813 16.1876 86.9813 18.523C86.9813 19.664 86.6961 20.5019 86.1256 21.0367C85.5551 21.5715 84.735 21.8389 83.6832 21.8389H82.5244V27.3477H80.2781ZM82.5244 20.2523H83.2553C83.8971 20.2523 84.325 20.1275 84.5389 19.8779C84.7528 19.6283 84.8776 19.1648 84.8776 18.5052C84.8776 18.1308 84.8598 17.8277 84.8241 17.6138C84.7885 17.3998 84.7172 17.2216 84.6102 17.0433C84.5032 16.865 84.3428 16.758 84.1289 16.6867C83.9149 16.6154 83.6297 16.5976 83.2553 16.5976H82.5244V20.2523Z" fill="white"/>
<path d="M91.5096 27.5082C90.2439 27.5082 89.3346 27.1694 88.782 26.4741C88.2293 25.7789 87.9619 24.7805 87.9619 23.4434V18.8974C87.9619 18.2377 88.0332 17.6673 88.1402 17.1859C88.265 16.7046 88.4611 16.2945 88.7463 15.938C89.0137 15.5814 89.3881 15.314 89.8517 15.1536C90.3152 14.9753 90.8678 14.8861 91.5096 14.8861C92.7754 14.8861 93.6846 15.2249 94.2373 15.9023C94.7899 16.5798 95.0752 17.5781 95.0752 18.8974V23.4434C95.0752 24.0852 95.0039 24.6557 94.8791 25.1371C94.7543 25.6184 94.5582 26.0463 94.2729 26.4028C93.9877 26.7594 93.6311 27.0268 93.1676 27.2229C92.7219 27.4012 92.1693 27.5082 91.5096 27.5082ZM90.957 25.7432C91.1174 25.8145 91.2957 25.8323 91.5096 25.8323C91.7236 25.8323 91.9197 25.7967 92.0623 25.7432C92.2049 25.6897 92.3475 25.6006 92.4367 25.4936C92.5258 25.3867 92.5971 25.2619 92.6506 25.0836C92.7041 24.9053 92.7397 24.7449 92.7576 24.5844C92.7754 24.424 92.7754 24.21 92.7754 23.9783V18.3625C92.7754 18.0595 92.7576 17.8099 92.7397 17.6138C92.7219 17.4177 92.6506 17.2216 92.5615 17.0611C92.4723 16.8828 92.3475 16.758 92.1693 16.6689C91.991 16.5798 91.777 16.5441 91.5096 16.5441C91.2422 16.5441 91.0283 16.5798 90.85 16.6689C90.6717 16.758 90.5469 16.8828 90.4578 17.0611C90.3687 17.2394 90.3152 17.4177 90.2795 17.6138C90.2439 17.8099 90.226 18.0595 90.226 18.3625V23.9604C90.226 24.1922 90.226 24.3883 90.2439 24.5666C90.2617 24.7449 90.2973 24.9053 90.3508 25.0658C90.4043 25.2262 90.4756 25.3688 90.5648 25.4758C90.6539 25.5828 90.7965 25.6719 90.957 25.7432Z" fill="white"/>
<path d="M101.315 27.3477V21.9281C100.709 22.035 100.156 22.1063 99.657 22.1063C98.6764 22.1063 97.9098 21.8568 97.3394 21.3398C96.7689 20.8406 96.5015 20.1096 96.5015 19.1648V15.0109H98.623V19.1648C98.623 19.4144 98.6408 19.6461 98.6943 19.8066C98.7478 19.967 98.8191 20.1453 98.926 20.2701C99.033 20.4127 99.1934 20.5197 99.3896 20.5732C99.6035 20.6445 99.8531 20.6801 100.174 20.6801C100.513 20.6801 100.887 20.6445 101.315 20.5553V15.0109H103.561V27.3477H101.315Z" fill="white"/>
<path d="M105.415 27.3477V15.0109H110.585V16.5976H107.662V20.1453H109.961V21.732H107.662V25.7967H110.621V27.3477H105.415Z" fill="white"/>
<path d="M111.94 27.3477V15.0109H114.186V20.1631H116.7V15.0109H118.946V27.3477H116.7V21.7676H114.186V27.3477H111.94Z" fill="white"/>
<path d="M120.836 27.3477V15.0109H123.082V20.1631H125.596V15.0109H127.842V27.3477H125.596V21.7676H123.082V27.3477H120.836Z" fill="white"/>
<path d="M128.948 27.3477L131.444 21.8389C130.927 21.5715 130.517 21.1437 130.196 20.591C129.875 20.0383 129.732 19.3431 129.732 18.5586C129.732 17.3642 130.053 16.4728 130.713 15.8845C131.372 15.314 132.406 15.0109 133.797 15.0109H136.578V27.3477H134.332V22.3559H133.654H133.387L131.408 27.3477H128.948ZM133.922 20.7693H134.332V16.5798H133.886C133.191 16.5798 132.692 16.7402 132.353 17.0611C132.014 17.382 131.854 17.8812 131.854 18.5408C131.854 19.2896 132.014 19.8422 132.335 20.1988C132.638 20.5732 133.155 20.7693 133.922 20.7693Z" fill="white"/>
<path d="M55.3015 47.8496V35.5128H57.5478V40.665H60.0615V35.5128H62.3078V47.8496H60.0615V42.2695H57.5478V47.8496H55.3015Z" fill="white"/>
<path d="M64.1797 47.8496V35.5128H69.3497V37.0995H66.426V40.6472H68.7257V42.2338H66.426V46.2985H69.3854V47.8496H64.1797Z" fill="white"/>
<path d="M70.6868 47.8496V35.5128H74.2345C76.3381 35.5128 77.39 36.6894 77.39 39.0248C77.39 40.1658 77.1047 41.0037 76.5343 41.5385C75.9638 42.0734 75.1437 42.3408 74.0919 42.3408H72.9331V47.8496H70.6868ZM72.9331 40.7541H73.664C74.3058 40.7541 74.7337 40.6293 74.9476 40.3797C75.1615 40.1302 75.2863 39.6666 75.2863 39.007C75.2863 38.6326 75.2685 38.3296 75.2328 38.1156C75.1972 37.9017 75.1259 37.7234 75.0189 37.5451C74.9119 37.3669 74.7515 37.2599 74.5376 37.1886C74.3236 37.1173 74.0384 37.0995 73.664 37.0995H72.9331V40.7541Z" fill="white"/>
<path d="M78.5845 47.8496V35.5128H80.7951V47.8496H78.5845Z" fill="white"/>
<path d="M82.6135 47.8496V35.5128H85.6264C86.1969 35.5128 86.6961 35.5663 87.1239 35.6732C87.5518 35.7802 87.9262 35.9407 88.2649 36.1724C88.6036 36.4042 88.8354 36.7429 89.0137 37.1529C89.1741 37.563 89.2633 38.08 89.2633 38.6683C89.2633 40.1836 88.6571 41.0394 87.4627 41.2177C88.9067 41.4851 89.6376 42.5012 89.6376 44.284C89.6376 45.4606 89.3524 46.352 88.7641 46.9582C88.1758 47.5643 87.32 47.8674 86.1791 47.8674H82.6135V47.8496ZM84.8598 40.5402H85.5729C86.2325 40.5402 86.6961 40.3976 86.9457 40.1123C87.1952 39.8271 87.32 39.3457 87.32 38.6861C87.32 38.3474 87.2844 38.0621 87.1952 37.8482C87.1061 37.6343 86.9813 37.4738 86.7852 37.3669C86.5891 37.2599 86.3752 37.1886 86.1434 37.1529C85.9116 37.1173 85.5729 37.0816 85.1807 37.0816H84.8598V40.5402ZM84.8598 46.2629H85.6799C86.3573 46.2629 86.8209 46.1024 87.0705 45.7994C87.32 45.4963 87.4448 44.9793 87.4448 44.2484C87.4448 43.4996 87.3022 42.9648 87.017 42.626C86.7317 42.2873 86.2326 42.1269 85.5551 42.1269H84.842V46.2629H84.8598Z" fill="white"/>
<path d="M91.0818 47.8496V35.5128H93.3281V40.665H95.8418V35.5128H98.0881V47.8496H95.8418V42.2695H93.3281V47.8496H91.0818Z" fill="white"/>
<path d="M103.311 48.01C102.046 48.01 101.136 47.6713 100.584 46.976C100.031 46.2807 99.7637 45.2824 99.7637 43.9453V39.3992C99.7637 38.7396 99.835 38.1691 99.942 37.6878C100.067 37.2064 100.263 36.7964 100.548 36.4398C100.833 36.0833 101.19 35.8159 101.653 35.6554C102.117 35.4771 102.67 35.388 103.311 35.388C104.577 35.388 105.486 35.7267 106.039 36.4042C106.592 37.0816 106.877 38.08 106.877 39.3992V43.9453C106.877 44.5871 106.806 45.1576 106.681 45.6389C106.556 46.1203 106.36 46.5481 106.075 46.9047C105.789 47.2612 105.433 47.5287 104.969 47.7248C104.506 47.903 103.953 48.01 103.311 48.01ZM102.759 46.2451C102.919 46.3164 103.097 46.3342 103.311 46.3342C103.525 46.3342 103.721 46.2986 103.864 46.2451C104.007 46.1916 104.149 46.1024 104.238 45.9955C104.328 45.8885 104.399 45.7637 104.452 45.5854C104.506 45.4072 104.541 45.2467 104.559 45.0863C104.577 44.9258 104.577 44.7119 104.577 44.4801V38.8644C104.577 38.5613 104.559 38.3117 104.541 38.1156C104.524 37.9195 104.452 37.7234 104.363 37.563C104.274 37.3847 104.149 37.2599 103.971 37.1708C103.793 37.0816 103.579 37.046 103.311 37.046C103.044 37.046 102.83 37.0816 102.652 37.1708C102.473 37.2599 102.349 37.3847 102.26 37.563C102.17 37.7413 102.117 37.9195 102.081 38.1156C102.046 38.3117 102.028 38.5613 102.028 38.8644V44.4623C102.028 44.6941 102.028 44.8902 102.046 45.0684C102.063 45.2467 102.099 45.4072 102.153 45.5676C102.206 45.7281 102.277 45.8707 102.367 45.9777C102.456 46.0846 102.598 46.1738 102.759 46.2451Z" fill="white"/>
<path d="M111.833 48.01C111.298 48.01 110.835 47.9387 110.425 47.8139C110.015 47.6713 109.676 47.493 109.409 47.2613C109.141 47.0295 108.927 46.7264 108.767 46.3699C108.606 46.0133 108.482 45.6389 108.41 45.2289C108.339 44.8189 108.303 44.3732 108.303 43.8562V39.5597C108.303 39.0249 108.339 38.5435 108.41 38.1335C108.482 37.7234 108.588 37.3312 108.767 36.9747C108.945 36.6181 109.141 36.3329 109.409 36.1011C109.676 35.8694 110.015 35.6911 110.407 35.5663C110.799 35.4415 111.28 35.3702 111.815 35.3702C112.439 35.3702 112.956 35.4593 113.402 35.6198C113.83 35.7802 114.186 36.0298 114.436 36.3507C114.686 36.6716 114.882 37.046 114.989 37.456C115.096 37.8839 115.167 38.3831 115.167 38.9357V39.9876H113.01V38.9357C113.01 38.3117 112.974 37.9017 112.921 37.6878C112.796 37.2777 112.475 37.046 111.976 37.0103C111.94 37.0103 111.904 37.0103 111.851 37.0103C111.655 37.0103 111.494 37.0282 111.352 37.0816C111.209 37.1173 111.102 37.1886 111.013 37.2956C110.924 37.3847 110.853 37.4917 110.799 37.5986C110.746 37.7056 110.71 37.8482 110.674 38.0265C110.639 38.2048 110.621 38.3652 110.621 38.5079C110.621 38.6505 110.603 38.8466 110.603 39.0783V44.3019C110.603 45.0328 110.692 45.5498 110.87 45.8529C111.049 46.1559 111.37 46.3164 111.833 46.3164C111.994 46.3164 112.136 46.2986 112.261 46.2629C112.386 46.2272 112.475 46.1738 112.564 46.1203C112.653 46.0668 112.707 45.9777 112.778 45.8707C112.831 45.7637 112.885 45.6568 112.903 45.5676C112.938 45.4785 112.956 45.3537 112.974 45.1754C112.992 45.015 112.992 44.8723 112.992 44.7654C112.992 44.6584 112.992 44.498 112.992 44.3019V43.1965H115.149V44.2127C115.149 44.6762 115.113 45.0863 115.06 45.4607C115.006 45.835 114.882 46.1738 114.721 46.4947C114.561 46.8156 114.365 47.083 114.115 47.2969C113.865 47.5108 113.545 47.6713 113.17 47.7961C112.796 47.9209 112.35 48.01 111.833 48.01Z" fill="white"/>
<path d="M117.93 47.8496V37.1708H115.862V35.5128H122.173V37.1708H120.177V47.8496H117.93Z" fill="white"/>
<path d="M123.172 47.8496V35.5128H125.382V47.8496H123.172Z" fill="white"/>
<path d="M14.4226 48.01V21.4646L9.48438 23.1582V18.4338C10.6075 17.9881 11.802 17.4177 13.1034 16.758C14.3692 16.0984 15.2962 15.4388 15.8667 14.8148H20.7693V48.01H14.4226Z" fill="white"/>
<path d="M35.905 48.5448C33.0526 48.5448 30.8598 47.6713 29.3444 45.942C27.8291 44.1949 27.0625 41.8773 27.0625 38.9714V24.1209C27.0625 21.108 27.7934 18.7369 29.2731 16.9898C30.7528 15.2605 32.9635 14.387 35.905 14.387C38.8466 14.387 41.0572 15.2605 42.5369 17.0076C44.0166 18.7547 44.7654 21.1258 44.7654 24.1209V38.9714C44.7654 41.8594 43.9988 44.1949 42.4656 45.942C40.9324 47.6713 38.7396 48.5448 35.905 48.5448ZM35.905 43.0004C37.5274 43.0004 38.3296 41.6099 38.3296 38.8109V24.2457C38.3296 23.6752 38.3118 23.1938 38.2761 22.7838C38.2405 22.3738 38.1513 21.9281 37.9909 21.4467C37.8304 20.9654 37.5987 20.5732 37.2421 20.3058C36.9034 20.0383 36.4399 19.9136 35.905 19.9136C35.5307 19.9136 35.2098 19.9849 34.9245 20.1097C34.6393 20.2344 34.4253 20.4127 34.2471 20.6623C34.0866 20.8941 33.944 21.1615 33.837 21.4111C33.7301 21.6785 33.6587 21.9816 33.6053 22.3559C33.5518 22.7303 33.534 23.0512 33.5161 23.3008C33.4983 23.5682 33.4983 23.8713 33.4983 24.2457V38.8109C33.4983 41.6099 34.3005 43.0004 35.905 43.0004Z" fill="white"/>
<path d="M102.42 112.903H70.5621C70.366 112.903 70.2234 113.081 70.2234 113.295V122.869C70.2234 123.083 70.3838 123.261 70.5621 123.261H102.42C102.616 123.261 102.777 123.083 102.777 122.869V113.295C102.777 113.081 102.616 112.903 102.42 112.903Z" fill="white"/>
<path d="M102.42 92.5258H70.5621C70.366 92.5258 70.2234 92.704 70.2234 92.918V102.491C70.2234 102.705 70.3838 102.884 70.5621 102.884H102.42C102.616 102.884 102.777 102.705 102.777 102.491V92.918C102.777 92.704 102.616 92.5258 102.42 92.5258Z" fill="white"/>
<path d="M101.974 78.0497L86.6783 62.7536C86.5713 62.6466 86.4109 62.6466 86.3039 62.7536L71.0078 78.0497C70.8473 78.2102 70.9543 78.4954 71.186 78.4954H101.796C102.028 78.5132 102.135 78.228 101.974 78.0497Z" fill="white"/>
<path d="M116.326 123.368L131.622 108.071C131.729 107.965 131.729 107.804 131.622 107.697L116.326 92.4009C116.165 92.2405 115.88 92.3475 115.88 92.5792V123.189C115.88 123.421 116.165 123.528 116.326 123.368Z" fill="white"/>
<path d="M71.0257 137.719L86.3219 153.015C86.4288 153.122 86.5893 153.122 86.6962 153.015L101.992 137.719C102.153 137.558 102.046 137.273 101.814 137.273H71.204C70.9722 137.273 70.8474 137.558 71.0257 137.719Z" fill="white"/>
<path d="M56.6564 92.4188L41.3603 107.715C41.2533 107.822 41.2533 107.982 41.3603 108.089L56.6564 123.386C56.8169 123.546 57.1021 123.439 57.1021 123.207V92.5971C57.1199 92.3653 56.8347 92.2405 56.6564 92.4188Z" fill="white"/>
</g>
<defs>
<clipPath id="clip0_111_5346">
<rect width="173" height="173" fill="white"/>
</clipPath>
</defs>
</svg>
