<svg width="173" height="173" viewBox="0 0 173 173" fill="none" xmlns="http://www.w3.org/2000/svg">
<g clip-path="url(#clip0_111_4670)">
<path d="M0 0H173V173H0V0Z" fill="#BF8B2E"/>
<path d="M52.2567 121.1C51.9 120.922 51.5433 120.922 51.1866 120.743C51.1866 120.922 51.7217 120.922 52.2567 121.1Z" fill="white"/>
<path d="M14.4465 47.9763V21.4021L9.45264 23.1856V18.3701C10.5227 17.8351 11.7712 17.3 13.0196 16.765C14.4465 16.0516 15.3382 15.5165 15.8733 14.8031H20.8671V47.9763H14.4465Z" fill="white"/>
<path d="M29.0712 47.9763V43.5175L37.0969 31.033C37.2753 30.8546 37.4536 30.4979 37.9887 29.6062C38.5237 28.7144 38.8804 28.1794 39.0588 28.001C39.2371 27.6443 39.4155 27.2876 39.7722 26.5742C40.1289 25.8608 40.3073 25.3258 40.4856 24.7907C40.664 24.2557 40.664 23.7206 40.664 23.0072C40.664 21.9371 40.4856 21.0454 39.9505 20.332C39.5938 19.7969 39.0588 19.6186 38.3454 19.6186C38.167 19.6186 38.167 19.6186 37.9887 19.6186C36.2052 19.7969 35.3134 21.4021 35.3134 24.6124V26.0392H29.0712V24.434C29.0712 22.8289 29.2495 21.5804 29.6062 20.332C29.9629 19.0835 30.498 18.0134 31.2114 17.1216C31.9248 16.2299 32.8165 15.5165 34.065 14.9814C35.1351 14.6247 36.5619 14.268 38.167 14.268C41.0207 14.268 43.1609 15.1598 44.5877 16.5866C46.0145 18.1917 46.7279 20.332 46.7279 23.0072C46.7279 23.899 46.5495 24.7907 46.3712 25.6825C46.1928 26.5742 45.8361 27.466 45.4794 28.1794C45.1227 28.8928 44.766 29.7845 44.4093 30.3196C44.0526 30.8546 43.5176 31.568 42.9825 32.4598C42.8042 32.8165 42.6258 32.9948 42.6258 33.1732L36.2052 42.8041H46.0145V47.7979H29.0712V47.9763Z" fill="white"/>
<path d="M131.444 89.7103C123.775 83.6464 113.609 83.468 109.864 84.3598L109.507 84.5381C105.227 85.6083 98.4495 87.2134 90.4238 97.201C90.4238 97.201 90.4238 97.3794 90.2454 97.3794L90.0671 97.5577C90.0671 97.7361 89.8887 97.7361 89.8887 97.9144V98.2711L90.0671 98.6278C91.1372 100.233 92.3856 102.552 93.4557 104.513C93.6341 104.692 93.8124 104.87 93.9908 104.87C94.1691 104.87 94.3475 104.87 94.5258 104.692L94.7042 104.513C101.838 94.7041 107.367 93.2773 111.112 92.3856L111.469 92.2072C113.431 91.6722 120.922 91.8505 126.272 95.9526C130.374 99.3412 132.693 104.513 132.693 111.647C132.693 123.597 126.986 128.234 121.992 130.018C114.501 132.871 107.189 129.126 107.189 128.947H107.01C102.908 127.164 96.666 123.419 90.9588 111.826C79.1877 88.2835 69.5568 86.1433 62.9578 84.7165H62.6011C59.5691 84.0031 49.4032 83.6464 41.3774 90.067C37.097 93.4557 32.1031 99.8763 32.1031 112.004C32.1031 119.316 33.53 124.132 37.4537 129.304C38.3454 130.553 46.9062 141.61 63.6712 138.4C66.3465 137.865 69.9135 136.616 74.0155 133.585L77.7609 136.973C77.9392 137.152 78.2959 137.152 78.6526 136.973C78.831 136.795 78.831 136.795 78.831 136.616L81.5062 120.208V119.495C81.5062 119.316 81.5062 119.138 81.3279 119.138C81.1495 118.96 81.1495 118.96 80.9712 118.96H80.7928H80.6145L64.9196 123.419H64.5629C64.3846 123.419 64.3846 123.597 64.2062 123.597C64.0279 123.775 64.0279 124.132 64.2062 124.489L64.3846 124.667L67.9516 127.877C65.633 129.304 63.6712 130.018 62.2444 130.374C50.1166 132.693 44.0526 124.667 43.8743 124.489V124.31C41.0207 120.565 40.1289 117.533 40.1289 111.826C40.1289 104.692 42.2691 99.3412 46.3712 96.1309C51.5434 92.0289 58.8557 91.8505 60.8176 92.3856H61.1743C66.5248 93.634 73.8372 95.2392 83.8248 115.393C88.997 125.915 95.5959 132.693 103.8 136.26C104.87 136.795 109.864 139.113 116.285 139.113C118.96 139.113 121.992 138.757 125.024 137.508C129.839 135.725 140.897 129.661 140.897 111.647C140.897 99.6979 135.725 93.099 131.444 89.7103Z" fill="white"/>
<path d="M55.2887 14.9814H58.3207C60.4609 14.9814 61.8877 15.6948 61.8877 18.1918C61.8877 19.6186 61.1743 20.5103 60.1042 20.6887C61.531 21.0454 62.2444 21.9371 62.2444 23.7206C62.2444 26.0392 61.1743 27.2876 58.8557 27.2876H55.2887V14.9814ZM58.3207 19.9753C59.7475 19.9753 59.9258 19.4402 59.9258 18.1918C59.9258 16.9433 59.2124 16.5866 57.964 16.5866H57.4289V19.9753H58.3207ZM58.499 25.8608C59.9258 25.8608 60.2825 25.1474 60.2825 23.899C60.2825 22.4722 59.7475 21.7588 58.499 21.7588H57.7856V25.8608H58.499Z" fill="white"/>
<path d="M63.8495 14.9814H65.9897V27.2876H63.8495V14.9814Z" fill="white"/>
<path d="M67.0598 25.6825H67.4165C68.4866 25.1474 69.2 23.899 69.5567 18.9052L69.9134 14.9814H75.4423V25.6825H76.6907V29.7845H75.0856L74.9072 27.2876H68.8433L68.665 29.7845H67.0598V25.6825ZM73.3021 25.6825V16.5866H71.6969L71.5186 19.2619C71.3402 24.2557 70.4485 24.9691 69.5567 25.6825H73.3021Z" fill="white"/>
<path d="M77.9392 14.9814H85.0732V27.2876H82.933V16.5866H80.2578V27.2876H78.1176V14.9814H77.9392Z" fill="white"/>
<path d="M86.6783 23.5423V18.9052C86.6783 16.4083 87.5701 14.9814 90.2454 14.9814C92.9206 14.9814 93.8124 16.4083 93.8124 18.9052V23.5423C93.8124 26.0392 92.9206 27.6443 90.2454 27.6443C87.5701 27.466 86.6783 26.0392 86.6783 23.5423ZM91.4938 24.0773V18.3701C91.4938 17.3 91.3155 16.5866 90.2454 16.5866C89.1753 16.5866 88.9969 17.3 88.9969 18.3701V24.0773C88.9969 25.1474 89.1753 25.8608 90.2454 25.8608C91.3155 25.8608 91.4938 24.9691 91.4938 24.0773Z" fill="white"/>
<path d="M95.4176 14.9814H98.4496C100.59 14.9814 102.017 15.6948 102.017 18.1918C102.017 19.6186 101.482 20.5103 100.233 20.6887C101.66 21.0454 102.373 21.9371 102.373 23.7206C102.373 26.0392 101.303 27.2876 98.9846 27.2876H95.4176V14.9814ZM98.4496 19.9753C99.8764 19.9753 100.055 19.4402 100.055 18.1918C100.055 16.9433 99.3413 16.5866 98.0929 16.5866H97.5578V19.9753H98.4496ZM98.6279 25.8608C100.055 25.8608 100.411 25.1474 100.411 23.899C100.411 22.4722 99.8764 21.7588 98.6279 21.7588H97.9145V25.8608H98.6279Z" fill="white"/>
<path d="M103.978 14.9814H106.119V27.2876H103.978V14.9814Z" fill="white"/>
<path d="M107.189 25.6825H107.545C108.616 25.1474 109.329 23.899 109.686 18.9052L110.042 14.9814H115.571V25.6825H116.82V29.7845H115.214L115.036 27.2876H108.972L108.794 29.7845H107.189V25.6825ZM113.431 25.6825V16.5866H111.826L111.647 19.2619C111.469 24.2557 110.577 24.9691 109.686 25.6825H113.431Z" fill="white"/>
<path d="M119.852 14.9814H122.349L124.845 27.2876H122.705L122.17 24.434H120.03L119.495 27.2876H117.355L119.852 14.9814ZM121.992 23.0072L121.1 17.8351L120.208 23.0072H121.992Z" fill="white"/>
<path d="M125.202 25.6825C126.629 25.6825 126.807 25.5041 127.164 21.0454L127.521 14.9814H133.585V27.2876H131.266V16.5866H129.483L129.304 21.2237C128.948 25.6825 128.769 27.466 125.202 27.2876V25.6825Z" fill="white"/>
<path d="M135.546 14.9814H137.865V20.1536H138.4C140.897 20.1536 142.145 21.0454 142.145 23.7206C142.145 26.5742 140.719 27.2876 138.222 27.2876H135.546V14.9814ZM138.222 25.8608C139.47 25.8608 140.005 25.3258 140.005 23.7206C140.005 22.4722 139.648 21.7588 138.222 21.7588H137.865V25.8608H138.222Z" fill="white"/>
<path d="M143.572 14.9814H145.891V20.1536H148.388V14.9814H150.706V27.2876H148.388V21.7588H145.891V27.2876H143.572V14.9814Z" fill="white"/>
<path d="M152.49 14.9814H157.662V16.5866H154.808V20.1536H156.949V21.7588H154.63V25.8608H157.662V27.466H152.49V14.9814Z" fill="white"/>
<path d="M55.1104 43.8742V39.4154C55.1104 36.9185 56.0021 35.3134 58.6774 35.3134C61.1743 35.3134 62.066 36.7402 62.066 38.8804V39.9505H59.9258V38.8804C59.9258 37.8103 59.9258 36.9185 58.8557 36.9185C57.7856 36.9185 57.6073 37.8103 57.6073 38.8804V44.2309C57.6073 45.6577 57.964 46.1928 58.8557 46.1928C59.9258 46.1928 59.9258 45.301 59.9258 44.2309V43.1608H62.066V44.2309C62.066 46.3711 61.3526 47.9763 58.6774 47.9763C56.0021 47.9763 55.1104 46.3711 55.1104 43.8742Z" fill="white"/>
<path d="M63.4928 35.4917H70.6268V47.7979H68.4866V37.0969H65.8114V47.7979H63.6712V35.4917H63.4928Z" fill="white"/>
<path d="M72.4104 44.0526V39.4154C72.4104 36.9185 73.3022 35.4917 75.9774 35.4917C78.6527 35.4917 79.5444 36.9185 79.5444 39.4154V44.0526C79.5444 46.5495 78.6527 48.1546 75.9774 48.1546C73.3022 47.9763 72.4104 46.5495 72.4104 44.0526ZM77.2259 44.5876V38.8804C77.2259 37.8103 77.0475 37.0969 75.9774 37.0969C74.9073 37.0969 74.729 37.8103 74.729 38.8804V44.5876C74.729 45.6577 74.9073 46.3711 75.9774 46.3711C77.0475 46.3711 77.2259 45.4794 77.2259 44.5876Z" fill="white"/>
<path d="M82.9331 41.5556L80.4362 35.4917H82.5764L84.8949 41.3773H85.0733V35.4917H86.8568V41.3773H87.0351L89.1753 35.4917H91.3155L88.8186 41.5556L91.4939 47.7979H89.3537L86.8568 41.734H86.6784V47.7979H84.8949V41.734H84.7166L82.2197 47.7979H80.2578L82.9331 41.5556Z" fill="white"/>
<path d="M92.3856 35.4917H94.1691V43.3392L97.5578 35.4917H98.9846V47.7979H97.0227V39.9505L93.6341 47.7979H92.2073V35.4917H92.3856Z" fill="white"/>
<path d="M100.946 35.4917H103.978C106.119 35.4917 107.545 36.2051 107.545 38.702C107.545 40.1288 107.01 41.0206 105.762 41.1989C107.189 41.5556 107.902 42.4474 107.902 44.2309C107.902 46.5495 106.832 47.7979 104.513 47.7979H100.946V35.4917ZM103.978 40.4855C105.405 40.4855 105.584 39.9505 105.584 38.702C105.584 37.4536 104.87 37.0969 103.622 37.0969H103.087V40.4855H103.978ZM104.157 46.3711C105.584 46.3711 105.94 45.6577 105.94 44.4093C105.94 42.9825 105.405 42.2691 104.157 42.2691H103.443V46.3711H104.157Z" fill="white"/>
<path d="M111.291 35.4917H113.609L116.106 47.7979H114.144L113.609 44.9443H111.469L110.934 47.7979H108.794L111.291 35.4917ZM113.431 43.5175L112.539 38.3453L111.647 43.5175H113.431Z" fill="white"/>
<path d="M117.533 35.4917H119.852V40.6639H122.349V35.4917H124.667V47.7979H122.349V42.2691H119.852V47.7979H117.533V35.4917Z" fill="white"/>
<path d="M126.451 35.4917H128.769V40.6639H131.266V35.4917H133.585V47.7979H131.266V42.2691H128.769V47.7979H126.451V35.4917Z" fill="white"/>
<path d="M136.973 42.2691C135.903 41.734 135.368 40.6639 135.368 39.0587C135.368 36.5618 136.617 35.4917 139.47 35.4917H142.324V47.7979H140.005V42.8041H139.292H138.935L136.973 47.7979H134.476L136.973 42.2691ZM140.005 41.3773V37.2752H139.47C138.222 37.2752 137.508 37.8103 137.508 39.2371C137.508 40.6639 138.043 41.3773 139.47 41.3773H140.005Z" fill="white"/>
<path d="M149.101 37.2752H147.139V35.6701H153.203V37.2752H151.241V47.9763H148.923V37.2752H149.101Z" fill="white"/>
<path d="M156.235 35.4917H158.732L161.229 47.7979H159.089L158.554 44.9443H156.413L155.878 47.7979H153.738L156.235 35.4917ZM158.375 43.5175L157.484 38.3453L156.592 43.5175H158.375Z" fill="white"/>
<path d="M55.2887 56.002H58.3207C60.4609 56.002 61.8877 56.7154 61.8877 59.2124C61.8877 60.6392 61.1743 61.5309 60.1042 61.7093C61.531 62.066 62.2444 62.9577 62.2444 64.7412C62.2444 67.0598 61.1743 68.3082 58.8557 68.3082H55.2887V56.002ZM58.3207 60.9959C59.7475 60.9959 59.9258 60.4608 59.9258 59.2124C59.9258 57.9639 59.2124 57.6072 57.964 57.6072H57.4289V60.9959H58.3207ZM58.499 66.8814C59.9258 66.8814 60.2825 66.168 60.2825 64.9196C60.2825 63.4928 59.7475 62.7794 58.499 62.7794H57.7856V66.8814H58.499Z" fill="white"/>
<path d="M63.8495 56.002H65.633V63.8495L69.0217 56.002H70.4485V68.3082H68.4866V60.4608L65.0979 68.3082H63.6711V56.002H63.8495Z" fill="white"/>
<path d="M72.4104 56.002H75.9774C78.1176 56.002 79.1877 57.2505 79.1877 59.5691C79.1877 62.066 77.9393 62.9577 75.7991 62.9577H74.5506V68.4866H72.2321V56.002H72.4104ZM75.6207 61.3526C76.8692 61.3526 77.2259 60.8175 77.2259 59.5691C77.2259 58.3206 77.0475 57.6072 75.6207 57.6072H74.729V61.3526H75.6207Z" fill="white"/>
<path d="M80.2578 64.5629V59.9258C80.2578 57.4288 81.1496 56.002 83.8248 56.002C86.5001 56.002 87.3918 57.4288 87.3918 59.9258V64.5629C87.3918 67.0598 86.5001 68.6649 83.8248 68.6649C81.1496 68.4866 80.2578 67.0598 80.2578 64.5629ZM85.0733 65.0979V59.3907C85.0733 58.3206 84.8949 57.6072 83.8248 57.6072C82.7547 57.6072 82.5764 58.3206 82.5764 59.3907V65.0979C82.5764 66.168 82.7547 66.8814 83.8248 66.8814C84.8949 66.8814 85.0733 65.9897 85.0733 65.0979Z" fill="white"/>
<path d="M89.1753 56.002H94.8825V57.6072H91.3155V61.1742H91.8506C94.3475 61.1742 95.5959 62.066 95.5959 64.7412C95.5959 67.5948 94.1691 68.3082 91.6722 68.3082H89.1753V56.002ZM91.8506 66.8814C93.099 66.8814 93.6341 66.3464 93.6341 64.7412C93.6341 63.4928 93.2774 62.7794 91.8506 62.7794H91.4938V66.8814H91.8506Z" fill="white"/>
<path d="M97.201 56.002H99.5196V61.1742H102.017V56.002H104.335V68.3082H102.017V62.7794H99.5196V68.3082H97.201V56.002Z" fill="white"/>
<path d="M106.119 56.002H107.902V63.8495L111.291 56.002H112.718V68.3082H110.756V60.4608L107.367 68.3082H105.94V56.002H106.119Z" fill="white"/>
<path d="M121.457 68.3082H114.679V56.002H116.998V66.8814H119.852V56.002H122.17V66.8814H123.597V70.8051H121.992L121.457 68.3082Z" fill="white"/>
<path d="M125.915 57.7855H123.954V56.1804H130.018V57.7855H128.056V68.4866H125.737V57.7855H125.915Z" fill="white"/>
<path d="M131.266 56.002H134.298C136.438 56.002 137.865 56.7154 137.865 59.2124C137.865 60.6392 137.33 61.5309 136.081 61.7093C137.508 62.066 138.222 62.9577 138.222 64.7412C138.222 67.0598 137.152 68.3082 134.833 68.3082H131.266V56.002ZM134.298 60.9959C135.725 60.9959 135.903 60.4608 135.903 59.2124C135.903 57.9639 135.19 57.6072 133.941 57.6072H133.406V60.9959H134.298ZM134.298 66.8814C135.725 66.8814 136.081 66.168 136.081 64.9196C136.081 63.4928 135.546 62.7794 134.298 62.7794H133.585V66.8814H134.298Z" fill="white"/>
<path d="M139.47 64.5629V59.9258C139.47 57.4288 140.362 56.002 143.037 56.002C145.712 56.002 146.604 57.4288 146.604 59.9258V64.5629C146.604 67.0598 145.712 68.6649 143.037 68.6649C140.362 68.4866 139.47 67.0598 139.47 64.5629ZM144.286 65.0979V59.3907C144.286 58.3206 144.107 57.6072 143.037 57.6072C141.967 57.6072 141.789 58.3206 141.789 59.3907V65.0979C141.789 66.168 141.967 66.8814 143.037 66.8814C144.107 66.8814 144.286 65.9897 144.286 65.0979Z" fill="white"/>
</g>
<defs>
<clipPath id="clip0_111_4670">
<rect width="173" height="173" fill="white"/>
</clipPath>
</defs>
</svg>
