<svg width="173" height="173" viewBox="0 0 173 173" fill="none" xmlns="http://www.w3.org/2000/svg">
<mask id="mask0_208_4468" style="mask-type:luminance" maskUnits="userSpaceOnUse" x="0" y="0" width="173" height="173">
<path d="M173 0H0V173H173V0Z" fill="white"/>
</mask>
<g mask="url(#mask0_208_4468)">
<path d="M0 0H173V173H0V0Z" fill="#F2F1F1"/>
<path d="M37.7657 47.5811C38.2387 46.7805 38.8136 46.0454 39.4685 45.3903L33.8871 39.2693C32.4827 40.6158 31.282 42.1661 30.3433 43.8837L37.7657 47.5811Z" fill="#56C02B"/>
<path d="M51.4536 43.258C52.2977 43.6438 53.0836 44.1387 53.7967 44.7283L59.3927 38.6145C57.9155 37.3408 56.249 36.2927 54.4298 35.5139L51.4536 43.258Z" fill="#DDA83A"/>
<path d="M64.2755 45.0992L56.853 48.7966C57.2096 49.6263 57.457 50.4997 57.5953 51.4168L65.8546 50.638C65.6071 48.6801 65.0687 46.8169 64.2755 45.0919" fill="#C5192D"/>
<path d="M56.3218 47.727L63.7443 44.0297C62.8274 42.3193 61.6558 40.769 60.2732 39.4225L54.6772 45.5363C55.3176 46.1913 55.8707 46.9264 56.3218 47.727Z" fill="#4C9F38"/>
<path d="M36.2884 52.9965C36.2884 52.8291 36.2884 52.6617 36.303 52.4943L28.0437 51.752C28.0146 52.1595 28 52.5744 28 52.9893C28 54.5759 28.1965 56.1117 28.5603 57.5819L36.5358 55.2965C36.3757 54.5541 36.2811 53.7826 36.2811 52.9893" fill="#3F7E44"/>
<path d="M55.2813 59.7869C54.6919 60.5002 54.0151 61.1407 53.2656 61.6793L57.6245 68.7393C59.24 67.6402 60.6808 66.301 61.896 64.7726L55.2813 59.7797V59.7869Z" fill="#FCC30B"/>
<path d="M57.7113 52.9964C57.7113 53.7752 57.6313 54.5394 57.4639 55.2745L65.4394 57.5672C65.8033 56.1043 65.9997 54.5758 65.9997 52.9964C65.9997 52.6034 65.9852 52.2177 65.9634 51.8319L57.7041 52.6107C57.7041 52.7417 57.7113 52.8654 57.7113 52.9964Z" fill="#FF3A21"/>
<path d="M38.8501 59.9471L32.25 64.9619C33.4798 66.4758 34.9279 67.7932 36.5579 68.8704L40.9168 61.8177C40.1454 61.2864 39.4541 60.6531 38.8501 59.9471Z" fill="#FD9D24"/>
<path d="M36.4267 51.3077C36.5723 50.3761 36.8415 49.4808 37.2199 48.6511L29.7975 44.9537C28.9752 46.7005 28.4148 48.5856 28.1602 50.5726L36.4267 51.315V51.3077Z" fill="#0A97D9"/>
<path d="M56.6129 69.3798L52.2613 62.3271C51.4681 62.7711 50.6167 63.1278 49.7217 63.3607L51.2571 71.5197C53.1709 71.083 54.9683 70.3478 56.6129 69.3798Z" fill="#A21942"/>
<path d="M57.1516 56.4318C56.8605 57.2834 56.4749 58.084 55.9946 58.8191L62.6166 63.812C63.6936 62.269 64.545 60.5514 65.1198 58.7172L57.1516 56.4246V56.4318Z" fill="#26BDE2"/>
<path d="M48.5427 63.6008C48.0406 63.6736 47.5239 63.71 47 63.71C46.5779 63.71 46.1631 63.6809 45.7556 63.6372L44.2202 71.7962C45.1298 71.9272 46.054 72 47 72C48.0479 72 49.0739 71.9127 50.0781 71.7525L48.5427 63.6008Z" fill="#FD6925"/>
<path d="M47.684 42.3044C48.6082 42.3626 49.496 42.5373 50.3328 42.8138L53.3091 35.0697C51.5335 34.4438 49.6488 34.0726 47.6768 34.0071V42.3044H47.684Z" fill="#E5243B"/>
<path d="M44.5771 63.4334C43.6457 63.2151 42.7652 62.8803 41.9501 62.4363L37.5913 69.4962C39.2722 70.457 41.106 71.1703 43.0489 71.5851L44.5844 63.4334H44.5771Z" fill="#DD1367"/>
<path d="M43.7837 42.7776C44.6424 42.5083 45.552 42.3409 46.4907 42.2973V34C44.4969 34.0509 42.583 34.4149 40.7856 35.0408L43.7837 42.7776Z" fill="#19486A"/>
<path d="M38.1294 58.9937C37.6055 58.2149 37.1761 57.3633 36.8632 56.4608L28.895 58.7462C29.499 60.6458 30.3941 62.4218 31.5293 64.0084L38.1294 58.9937Z" fill="#BF8B2E"/>
<path d="M40.3636 44.597C41.0621 44.0439 41.8335 43.5781 42.6631 43.2069L39.665 35.4773C37.8821 36.227 36.2376 37.2386 34.7749 38.4687L40.3636 44.597Z" fill="#00689D"/>
<path d="M137.795 105.444C135.907 105.444 134.411 105.105 133.308 104.426C132.205 103.747 131.409 102.782 130.921 101.53C130.454 100.257 130.221 98.74 130.221 96.98V87.369C130.221 85.6084 130.454 84.1022 130.921 82.8505C131.409 81.5988 132.205 80.6441 133.308 79.9865C134.411 79.3288 135.907 79 137.795 79C139.704 79 141.21 79.3394 142.313 80.0183C143.438 80.676 144.233 81.6306 144.7 82.8823C145.188 84.1128 145.432 85.6084 145.432 87.369V96.98C145.432 98.74 145.188 100.257 144.7 101.53C144.233 102.782 143.438 103.747 142.313 104.426C141.21 105.105 139.704 105.444 137.795 105.444ZM137.795 101.657C138.473 101.657 138.972 101.509 139.29 101.212C139.608 100.894 139.821 100.48 139.927 99.971C140.033 99.44 140.086 98.878 140.086 98.284V86.096C140.086 85.5023 140.033 84.9507 139.927 84.4416C139.821 83.9324 139.608 83.5294 139.29 83.2323C138.972 82.9141 138.473 82.755 137.795 82.755C137.158 82.755 136.681 82.9141 136.363 83.2323C136.044 83.5294 135.832 83.9324 135.726 84.4416C135.62 84.9507 135.567 85.5023 135.567 86.096V98.284C135.567 98.878 135.609 99.44 135.694 99.971C135.8 100.48 136.013 100.894 136.331 101.212C136.649 101.509 137.137 101.657 137.795 101.657Z" fill="#009EDB"/>
<path d="M116.403 105.094V79.3185H127.954V83.2326H121.653V105.094H116.403Z" fill="#009EDB"/>
<path d="M105.196 105.444C103.308 105.444 101.812 105.105 100.709 104.426C99.6056 103.747 98.8101 102.782 98.3222 101.53C97.8554 100.257 97.6221 98.74 97.6221 96.98V87.369C97.6221 85.6084 97.8554 84.1022 98.3222 82.8505C98.8101 81.5988 99.6056 80.6441 100.709 79.9865C101.812 79.3288 103.308 79 105.196 79C107.105 79 108.611 79.3394 109.714 80.0183C110.839 80.676 111.634 81.6306 112.101 82.8823C112.589 84.1128 112.833 85.6084 112.833 87.369V96.98C112.833 98.74 112.589 100.257 112.101 101.53C111.634 102.782 110.839 103.747 109.714 104.426C108.611 105.105 107.105 105.444 105.196 105.444ZM105.196 101.657C105.875 101.657 106.373 101.509 106.691 101.212C107.01 100.894 107.222 100.48 107.328 99.971C107.434 99.44 107.487 98.878 107.487 98.284V86.096C107.487 85.5023 107.434 84.9507 107.328 84.4416C107.222 83.9324 107.01 83.5294 106.691 83.2323C106.373 82.9141 105.875 82.755 105.196 82.755C104.559 82.755 104.082 82.9141 103.764 83.2323C103.446 83.5294 103.233 83.9324 103.127 84.4416C103.021 84.9507 102.968 85.5023 102.968 86.096V98.284C102.968 98.878 103.011 99.44 103.095 99.971C103.202 100.48 103.414 100.894 103.732 101.212C104.05 101.509 104.538 101.657 105.196 101.657Z" fill="#009EDB"/>
<path d="M75.8984 105.094V101.371C76.5561 101.371 77.0971 101.329 77.5214 101.244C77.9669 101.138 78.3169 100.915 78.5715 100.576C78.8473 100.215 79.07 99.674 79.2398 98.953C79.4095 98.21 79.5474 97.224 79.6534 95.993C79.7807 94.763 79.908 93.204 80.0353 91.315L80.8945 79.3185H94.0371V105.094H88.8182V83.3281H85.6042L85.0632 92.143C84.9359 94.179 84.7874 95.951 84.6177 97.457C84.4692 98.942 84.2252 100.194 83.8858 101.212C83.5676 102.23 83.0902 103.047 82.4538 103.662C81.8386 104.256 81.0006 104.67 79.9399 104.903C78.8791 105.116 77.532 105.179 75.8984 105.094Z" fill="#009EDB"/>
<path d="M59.2529 105.094L64.249 79.3185H70.0725L75.0367 105.094H70.1679L69.2451 99.43H65.1719L64.1854 105.094H59.2529ZM65.6492 96.216H68.7359L67.1766 85.8102L65.6492 96.216Z" fill="#009EDB"/>
<path d="M50.3894 105.094V83.2326H46.4116V79.3185H59.586V83.2326H55.6719V105.094H50.3894Z" fill="#009EDB"/>
<path d="M37.5419 105.444C35.6325 105.444 34.1157 105.084 32.9913 104.362C31.8881 103.641 31.1138 102.644 30.6683 101.371C30.2228 100.077 30 98.581 30 96.884V87.624C30 85.8418 30.2228 84.3143 30.6683 83.0414C31.1138 81.7473 31.8881 80.7502 32.9913 80.0501C34.1157 79.35 35.6325 79 37.5419 79C39.3875 79 40.8301 79.3076 41.8697 79.9228C42.9304 80.5381 43.6729 81.4079 44.0972 82.5323C44.5427 83.6566 44.7655 84.9614 44.7655 86.446V88.61H39.6739V86.192C39.6739 85.5978 39.6421 85.0462 39.5785 84.5371C39.5148 84.0067 39.3345 83.5824 39.0375 83.2642C38.7617 82.9247 38.2738 82.755 37.5737 82.755C36.8736 82.755 36.3644 82.9247 36.0462 83.2642C35.728 83.6036 35.5264 84.0491 35.4416 84.6007C35.3567 85.1311 35.3143 85.7251 35.3143 86.383V98.093C35.3143 98.815 35.3673 99.451 35.4734 100.003C35.6007 100.533 35.8235 100.947 36.1417 101.244C36.4811 101.519 36.9584 101.657 37.5737 101.657C38.2525 101.657 38.7299 101.498 39.0057 101.18C39.3027 100.841 39.483 100.395 39.5466 99.844C39.6315 99.292 39.6739 98.709 39.6739 98.093V95.579H44.7655V97.711C44.7655 99.218 44.5533 100.554 44.129 101.721C43.7047 102.867 42.9728 103.779 41.9333 104.458C40.8938 105.115 39.43 105.444 37.5419 105.444Z" fill="#009EDB"/>
<path d="M132.762 139.423V136.295C133.013 136.313 133.247 136.322 133.463 136.322C133.696 136.34 133.903 136.349 134.083 136.349C134.514 136.349 134.892 136.313 135.215 136.241C135.557 136.169 135.844 136.044 136.078 135.864C136.33 135.702 136.518 135.486 136.644 135.217C136.77 134.947 136.833 134.633 136.833 134.273C136.833 134.003 136.815 133.761 136.779 133.545C136.761 133.329 136.734 133.105 136.698 132.871L131.899 113.296H136.051L137.912 122.356L138.855 128.422L139.583 122.329L141.174 113.296H145.353L141.066 133.006C140.796 134.228 140.491 135.253 140.149 136.08C139.808 136.924 139.394 137.589 138.909 138.075C138.424 138.578 137.831 138.938 137.13 139.153C136.447 139.387 135.602 139.504 134.595 139.504C134.344 139.504 134.065 139.495 133.759 139.477C133.454 139.459 133.121 139.441 132.762 139.423Z" fill="#009EDB"/>
<path d="M117.997 135.136V113.296H122.445V122.167H123.065L126.436 113.296H130.858L126.786 123.569L131.073 135.136H126.517L123.065 125.375H122.445V135.136H117.997Z" fill="#009EDB"/>
<path d="M108.328 135.136V116.613H104.957V113.296H116.12V116.613H112.803V135.136H108.328Z" fill="#009EDB"/>
<path d="M90.8501 135.136V113.296H94.4091V126.373L100.179 113.296H103.091V135.136H99.478V121.843L93.6542 135.136H90.8501Z" fill="#009EDB"/>
<path d="M75.314 135.136V113.296H80.8412C81.7939 113.296 82.6747 113.377 83.4835 113.539C84.2924 113.701 85.0024 113.988 85.6136 114.402C86.2427 114.815 86.719 115.39 87.0426 116.127C87.3841 116.846 87.5548 117.79 87.5548 118.958C87.5548 119.839 87.429 120.594 87.1774 121.223C86.9257 121.834 86.5662 122.32 86.0989 122.679C85.6315 123.039 85.0563 123.281 84.3733 123.407C85.2181 123.533 85.9281 123.821 86.5033 124.27C87.0785 124.719 87.5099 125.313 87.7975 126.05C88.0851 126.787 88.2289 127.676 88.2289 128.719C88.2289 129.815 88.0851 130.768 87.7975 131.577C87.5279 132.386 87.1234 133.051 86.5842 133.572C86.045 134.093 85.3799 134.489 84.589 134.758C83.7981 135.01 82.8814 135.136 81.8388 135.136H75.314ZM79.7627 132.008H81.003C82.1174 132.008 82.8814 131.73 83.2948 131.172C83.7262 130.615 83.9419 129.779 83.9419 128.665C83.9419 127.802 83.843 127.119 83.6453 126.616C83.4476 126.094 83.124 125.717 82.6747 125.483C82.2433 125.232 81.6591 125.106 80.9221 125.106H79.7627V132.008ZM79.7627 122.113H80.8682C81.6411 122.113 82.2253 122.005 82.6207 121.79C83.0162 121.556 83.2858 121.214 83.4296 120.765C83.5914 120.298 83.6723 119.731 83.6723 119.066C83.6723 118.401 83.5554 117.871 83.3218 117.476C83.1061 117.062 82.7645 116.766 82.2972 116.586C81.8478 116.406 81.2726 116.316 80.5716 116.316H79.7627V122.113Z" fill="#009EDB"/>
<path d="M66.7768 135.514C65.3388 135.514 64.1885 135.244 63.3257 134.705C62.4629 134.147 61.8427 133.374 61.4653 132.386C61.1058 131.379 60.926 130.229 60.926 128.935V128.153H65.1052C65.1052 128.207 65.1052 128.324 65.1052 128.503C65.1052 128.665 65.1052 128.818 65.1052 128.962C65.1052 130.022 65.222 130.795 65.4557 131.28C65.7073 131.766 66.1747 132.008 66.8577 132.008C67.3251 132.008 67.6756 131.892 67.9093 131.658C68.1609 131.406 68.3317 131.056 68.4215 130.606C68.5114 130.139 68.5563 129.564 68.5563 128.881C68.5563 127.784 68.3766 126.931 68.0171 126.319C67.6576 125.708 66.9206 125.385 65.8062 125.349C65.7882 125.331 65.7073 125.322 65.5635 125.322C65.4377 125.322 65.2939 125.322 65.1321 125.322C64.9704 125.322 64.8176 125.322 64.6738 125.322V122.518C64.7996 122.518 64.9164 122.518 65.0243 122.518C65.1501 122.518 65.267 122.518 65.3748 122.518C65.5006 122.518 65.6175 122.518 65.7253 122.518C66.8397 122.482 67.5857 122.176 67.9632 121.601C68.3586 121.026 68.5563 120.19 68.5563 119.093C68.5563 118.213 68.4125 117.53 68.1249 117.044C67.8374 116.559 67.343 116.316 66.642 116.316C65.977 116.316 65.5096 116.568 65.24 117.071C64.9883 117.575 64.8445 118.24 64.8086 119.067C64.8086 119.12 64.8086 119.264 64.8086 119.498C64.8086 119.732 64.8086 119.956 64.8086 120.172H60.6294V118.986C60.6294 117.709 60.8721 116.631 61.3574 115.75C61.8607 114.851 62.5617 114.168 63.4605 113.701C64.3592 113.234 65.4197 113 66.642 113C67.9182 113 68.9967 113.225 69.8775 113.674C70.7762 114.123 71.4593 114.78 71.9266 115.642C72.412 116.505 72.6546 117.575 72.6546 118.851C72.6546 120.127 72.385 121.197 71.8457 122.059C71.3245 122.922 70.6684 123.461 69.8775 123.677C70.4167 123.875 70.8931 124.18 71.3065 124.594C71.7199 124.989 72.0435 125.528 72.2771 126.212C72.5288 126.895 72.6546 127.748 72.6546 128.773C72.6546 130.103 72.4569 131.28 72.0614 132.305C71.684 133.312 71.0638 134.102 70.201 134.678C69.3562 135.235 68.2148 135.514 66.7768 135.514Z" fill="#009EDB"/>
<path d="M51.9702 135.433C50.3705 135.433 49.1033 135.145 48.1686 134.57C47.2339 133.995 46.5598 133.177 46.1464 132.116C45.7509 131.038 45.5532 129.752 45.5532 128.261V120.118C45.5532 118.626 45.7509 117.35 46.1464 116.289C46.5598 115.229 47.2339 114.42 48.1686 113.863C49.1033 113.305 50.3705 113.027 51.9702 113.027C53.588 113.027 54.8642 113.314 55.7989 113.89C56.7516 114.447 57.4256 115.256 57.8211 116.316C58.2345 117.359 58.4412 118.626 58.4412 120.118V128.261C58.4412 129.752 58.2345 131.038 57.8211 132.116C57.4256 133.177 56.7516 133.995 55.7989 134.57C54.8642 135.145 53.588 135.433 51.9702 135.433ZM51.9702 132.224C52.5454 132.224 52.9678 132.098 53.2375 131.847C53.5071 131.577 53.6868 131.226 53.7767 130.795C53.8666 130.346 53.9115 129.869 53.9115 129.366V119.039C53.9115 118.536 53.8666 118.069 53.7767 117.637C53.6868 117.206 53.5071 116.864 53.2375 116.613C52.9678 116.343 52.5454 116.208 51.9702 116.208C51.431 116.208 51.0266 116.343 50.7569 116.613C50.4873 116.864 50.3076 117.206 50.2177 117.637C50.1278 118.069 50.0829 118.536 50.0829 119.039V129.366C50.0829 129.869 50.1188 130.346 50.1907 130.795C50.2806 131.226 50.4604 131.577 50.73 131.847C50.9996 132.098 51.413 132.224 51.9702 132.224Z" fill="#009EDB"/>
<path d="M31 135.136V113.296H37.9293C39.2415 113.296 40.311 113.548 41.1378 114.051C41.9647 114.537 42.5758 115.247 42.9712 116.181C43.3847 117.116 43.5914 118.248 43.5914 119.579C43.5914 121.142 43.3218 122.365 42.7825 123.245C42.2612 124.126 41.5422 124.755 40.6255 125.133C39.7088 125.492 38.6573 125.672 37.4709 125.672H35.4488V135.136H31ZM35.4488 122.544H37.0126C37.6597 122.544 38.154 122.446 38.4955 122.248C38.855 122.032 39.0977 121.7 39.2235 121.25C39.3493 120.801 39.4122 120.226 39.4122 119.525C39.4122 118.86 39.3583 118.302 39.2505 117.853C39.1606 117.404 38.9449 117.053 38.6034 116.801C38.2618 116.55 37.7226 116.424 36.9856 116.424H35.4488V122.544Z" fill="#009EDB"/>
<path d="M138.794 68.9511V36H145.465V68.9511H138.794Z" fill="#009EDB"/>
<path d="M110.698 68.9511V64.1915C111.539 64.1915 112.23 64.1373 112.773 64.0288C113.342 63.8932 113.79 63.6084 114.115 63.1745C114.468 62.7135 114.752 62.0219 114.969 61.0998C115.186 60.1506 115.363 58.8895 115.498 57.3165C115.661 55.7436 115.824 53.7502 115.986 51.3365L117.085 36H133.886V68.9511H127.214V41.1257H123.106L122.414 52.3942C122.251 54.9978 122.061 57.2623 121.844 59.1878C121.655 61.0863 121.343 62.6864 120.909 63.9881C120.502 65.2899 119.892 66.334 119.078 67.1205C118.292 67.8799 117.22 68.4087 115.864 68.7071C114.508 68.9783 112.786 69.0596 110.698 68.9511Z" fill="#009EDB"/>
<path d="M101.729 68.9511V36H108.4V68.9511H101.729Z" fill="#009EDB"/>
<path d="M93.6316 75.338L93.0214 68.9511H75V36H81.6716V64.3949H88.0584V36H94.73V64.3949H98.0251V75.338H93.6316Z" fill="#009EDB"/>
</g>
</svg>
