<svg width="173" height="173" viewBox="0 0 173 173" fill="none" xmlns="http://www.w3.org/2000/svg">
<g clip-path="url(#clip0_111_5353)">
<path d="M0 0H173V173H0V0Z" fill="#241F20"/>
<path d="M52.2708 121.104C51.9143 120.997 51.5577 120.89 51.219 120.836C51.219 120.836 51.6112 120.961 52.2708 121.104Z" fill="white"/>
<path d="M44.5693 27.3477L44.7654 15.0109H46.9761L48.8658 23.3186L50.809 15.0109H52.9662L53.1801 27.3477H51.5043L51.3795 19.3431L49.4898 27.3477H48.3132L46.3878 19.3252L46.2808 27.3477H44.5693Z" fill="white"/>
<path d="M54.9985 27.3477V15.0109H57.2092V27.3477H54.9985Z" fill="white"/>
<path d="M66.0695 29.8079L65.8378 27.3655H59.0454V15.0109H61.2917V25.7967H64.0907V15.0109H66.3369V25.7967H67.7632V29.8079H66.0695Z" fill="white"/>
<path d="M69.0469 27.3477V15.0109H71.2932V20.1631H73.8069V15.0109H76.0532V27.3477H73.8069V21.7676H71.2932V27.3477H69.0469Z" fill="white"/>
<path d="M77.9072 27.3477V15.0109H83.0773V16.5976H80.1535V20.1453H82.4533V21.732H80.1535V25.7967H83.1129V27.3477H77.9072Z" fill="white"/>
<path d="M91.0462 27.526C89.9409 27.526 89.1387 27.2229 88.6038 26.6168C88.0868 26.0106 87.8194 25.1549 87.8194 24.0317V23.586H89.9409V24.0496C89.9587 24.6379 90.0479 25.0657 90.2083 25.3332C90.3688 25.6006 90.654 25.7432 91.064 25.7432C91.2602 25.7432 91.4206 25.7075 91.5454 25.6541C91.688 25.5827 91.795 25.5114 91.8663 25.4045C91.9376 25.2975 92.0089 25.1549 92.0446 24.9944C92.0802 24.834 92.1159 24.6379 92.1337 24.4774C92.1515 24.2992 92.1515 24.0852 92.1515 23.8178C92.1515 23.1582 92.0267 22.659 91.7772 22.3025C91.5276 21.9459 91.064 21.7676 90.4044 21.7141C90.3509 21.7141 90.1727 21.7141 89.8696 21.7141V20.181H90.3509C91.0284 20.1453 91.4919 19.9849 91.7593 19.664C92.0267 19.3431 92.1515 18.8617 92.1515 18.2199C92.1515 17.6851 92.0624 17.275 91.8663 16.9898C91.6702 16.7046 91.3671 16.5619 90.9392 16.5619C90.1727 16.5619 89.7448 17.1146 89.7091 18.2199V18.7547H87.5876V18.1843C87.5876 17.1502 87.8907 16.3302 88.479 15.7419C89.0673 15.1535 89.8874 14.8683 90.9214 14.8683C91.9733 14.8683 92.7933 15.1535 93.3816 15.724C93.97 16.2945 94.273 17.0968 94.273 18.1486C94.273 18.8439 94.1304 19.4322 93.8273 19.9135C93.5243 20.3949 93.1321 20.698 92.6329 20.8406C93.7382 21.215 94.2909 22.1955 94.2909 23.7822C94.2909 24.9588 94.0234 25.868 93.5243 26.5276C93.0251 27.1872 92.1515 27.526 91.0462 27.526Z" fill="white"/>
<path d="M95.0752 29.8079V25.761H95.5744C95.8418 25.6006 96.0735 25.3866 96.2696 25.1192C96.4658 24.8518 96.6619 24.4596 96.858 23.9604C97.0541 23.4612 97.1967 22.7838 97.3215 21.9459C97.4463 21.108 97.5354 20.0918 97.6067 18.8974L97.8385 15.0287H103.347V25.761H104.649V29.8079H103.044L102.902 27.3655H96.858L96.7153 29.8079H95.0752ZM97.6424 25.7432H101.19V16.6332H99.6391L99.5321 19.2539C99.4965 19.9314 99.4608 20.5553 99.4073 21.1258C99.3538 21.6963 99.2825 22.1598 99.229 22.552C99.1756 22.9442 99.0864 23.3008 98.9795 23.6217C98.8725 23.9604 98.7834 24.21 98.6942 24.3883C98.6229 24.5666 98.4981 24.7627 98.3555 24.9588C98.2129 25.1549 98.0881 25.2975 98.0168 25.3688C97.9276 25.4758 97.8028 25.6006 97.6424 25.7432Z" fill="white"/>
<path d="M109.23 27.5081C107.965 27.5081 107.055 27.1694 106.503 26.4741C105.95 25.7789 105.683 24.7805 105.683 23.4434V18.8974C105.683 18.2377 105.754 17.6673 105.861 17.1859C105.986 16.7046 106.182 16.2945 106.467 15.938C106.752 15.5814 107.109 15.314 107.572 15.1535C108.036 14.9753 108.589 14.8861 109.23 14.8861C110.496 14.8861 111.405 15.2249 111.958 15.9023C112.511 16.5798 112.796 17.5781 112.796 18.8974V23.4434C112.796 24.0852 112.725 24.6557 112.6 25.1371C112.475 25.6184 112.279 26.0463 111.994 26.4028C111.708 26.7594 111.352 27.0268 110.888 27.2229C110.425 27.4012 109.872 27.5081 109.23 27.5081ZM108.678 25.7432C108.838 25.8145 109.016 25.8323 109.23 25.8323C109.444 25.8323 109.64 25.7967 109.783 25.7432C109.926 25.6897 110.068 25.6006 110.157 25.4936C110.247 25.3866 110.318 25.2619 110.371 25.0836C110.425 24.9053 110.46 24.7448 110.478 24.5844C110.496 24.4239 110.496 24.21 110.496 23.9783V18.3625C110.496 18.0595 110.478 17.8099 110.46 17.6138C110.443 17.4177 110.371 17.2216 110.282 17.0611C110.193 16.8828 110.068 16.758 109.89 16.6689C109.712 16.5798 109.498 16.5441 109.23 16.5441C108.963 16.5441 108.749 16.5798 108.571 16.6511C108.392 16.7224 108.268 16.865 108.178 17.0433C108.089 17.2216 108.036 17.3998 108 17.5959C107.965 17.792 107.947 18.0416 107.947 18.3447V23.9426C107.947 24.1744 107.947 24.3705 107.965 24.5487C107.982 24.727 108.018 24.8875 108.072 25.0479C108.125 25.2084 108.196 25.351 108.285 25.458C108.375 25.5649 108.517 25.6719 108.678 25.7432Z" fill="white"/>
<path d="M114.436 27.3477V15.0109H117.984C120.087 15.0109 121.139 16.1876 121.139 18.523C121.139 19.664 120.854 20.5019 120.284 21.0367C119.713 21.5715 118.893 21.8389 117.841 21.8389H116.682V27.3477H114.436ZM116.682 20.2523H117.413C118.055 20.2523 118.483 20.1275 118.697 19.8779C118.911 19.6283 119.036 19.1648 119.036 18.5052C119.036 18.1308 119.018 17.8277 118.982 17.6138C118.946 17.3998 118.875 17.2216 118.768 17.0433C118.661 16.865 118.501 16.758 118.287 16.6867C118.073 16.6154 117.77 16.5976 117.413 16.5976H116.682V20.2523Z" fill="white"/>
<path d="M125.668 27.5081C124.402 27.5081 123.493 27.1694 122.94 26.4741C122.387 25.7789 122.12 24.7805 122.12 23.4434V18.8974C122.12 18.2377 122.191 17.6673 122.298 17.1859C122.423 16.7046 122.619 16.2945 122.904 15.938C123.19 15.5814 123.546 15.314 124.01 15.1535C124.473 14.9753 125.026 14.8861 125.685 14.8861C126.951 14.8861 127.86 15.2249 128.413 15.9023C128.966 16.5798 129.233 17.5781 129.233 18.8974V23.4434C129.233 24.0852 129.162 24.6557 129.037 25.1371C128.912 25.6184 128.716 26.0463 128.431 26.4028C128.163 26.7594 127.789 27.0268 127.326 27.2229C126.88 27.4012 126.309 27.5081 125.668 27.5081ZM125.115 25.7432C125.275 25.8145 125.454 25.8323 125.685 25.8323C125.899 25.8323 126.095 25.7967 126.238 25.7432C126.399 25.6719 126.505 25.6006 126.612 25.4936C126.719 25.3866 126.773 25.2619 126.826 25.0836C126.88 24.9053 126.916 24.7448 126.933 24.5844C126.951 24.4239 126.951 24.21 126.951 23.9783V18.3625C126.951 18.0595 126.933 17.8099 126.898 17.6138C126.862 17.4177 126.809 17.2216 126.719 17.0611C126.63 16.8828 126.505 16.758 126.327 16.6689C126.149 16.5798 125.935 16.5441 125.668 16.5441C125.4 16.5441 125.168 16.5798 125.008 16.6689C124.848 16.758 124.705 16.8828 124.616 17.0611C124.527 17.2394 124.473 17.4177 124.437 17.6138C124.402 17.8099 124.384 18.0595 124.384 18.3625V23.9604C124.384 24.1922 124.384 24.3883 124.402 24.5666C124.42 24.7448 124.455 24.9053 124.509 25.0657C124.562 25.2262 124.634 25.3688 124.723 25.4758C124.83 25.5828 124.954 25.6719 125.115 25.7432Z" fill="white"/>
<path d="M130.891 27.3477V15.0109H133.904C134.474 15.0109 134.974 15.0644 135.402 15.1714C135.829 15.2783 136.204 15.4388 136.542 15.6705C136.863 15.9023 137.113 16.241 137.291 16.6511C137.452 17.0611 137.541 17.5781 137.541 18.1664C137.541 19.6818 136.935 20.5375 135.74 20.7158C137.184 20.9832 137.915 21.9994 137.915 23.7822C137.915 24.9588 137.63 25.8502 137.042 26.4563C136.453 27.0625 135.598 27.3655 134.457 27.3655H130.891V27.3477ZM133.137 20.0383H133.833C134.492 20.0383 134.956 19.8957 135.205 19.6105C135.455 19.3252 135.58 18.8439 135.58 18.1843C135.58 17.8455 135.544 17.5603 135.455 17.3464C135.366 17.1324 135.241 16.972 135.045 16.865C134.849 16.758 134.635 16.6867 134.403 16.6511C134.171 16.6154 133.851 16.5976 133.458 16.5976H133.137V20.0383ZM133.137 25.761H133.957C134.635 25.761 135.098 25.6006 135.348 25.2975C135.598 24.9944 135.722 24.4774 135.722 23.7465C135.722 22.9977 135.58 22.4629 135.295 22.1242C135.009 21.7855 134.51 21.625 133.833 21.625H133.12V25.761H133.137Z" fill="white"/>
<path d="M139.662 19.2539L139.413 18.5408C139.751 18.5408 139.983 18.416 140.108 18.1664C140.233 17.9168 140.304 17.5068 140.304 16.972H139.359V15.0109H141.391C141.391 15.8667 141.391 16.4015 141.374 16.6154C141.356 17.5068 141.231 18.1664 140.964 18.6121C140.714 19.04 140.268 19.2539 139.662 19.2539Z" fill="white"/>
<path d="M141.98 27.3477L144.476 21.8389C143.959 21.5715 143.549 21.1437 143.228 20.591C142.907 20.0383 142.764 19.3431 142.764 18.5586C142.764 17.3642 143.085 16.4728 143.745 15.8845C144.405 15.314 145.439 15.0109 146.829 15.0109H149.61V27.3477H147.364V22.3559H146.686H146.419L144.44 27.3477H141.98ZM146.936 20.7693H147.346V16.5798H146.9C146.205 16.5798 145.706 16.7402 145.367 17.0611C145.029 17.382 144.868 17.8812 144.868 18.5408C144.868 19.2896 145.029 19.8422 145.349 20.1988C145.67 20.5732 146.187 20.7693 146.936 20.7693Z" fill="white"/>
<path d="M44.605 47.8495V35.5128H46.8156V47.8495H44.605Z" fill="white"/>
<path d="M52.3779 47.8495V35.5128H58.0828V37.1886H54.6242V40.6828H54.9808C55.6404 40.6828 56.2109 40.7363 56.6744 40.8611C57.1379 40.9859 57.548 41.1642 57.8867 41.4494C58.2254 41.7346 58.475 42.0912 58.6355 42.5547C58.7959 43.0182 58.885 43.5887 58.885 44.2662C58.885 44.8188 58.8316 45.3002 58.7068 45.7102C58.582 46.1203 58.4215 46.459 58.2076 46.7442C57.9937 47.0295 57.7262 47.2434 57.3875 47.4039C57.0488 47.5643 56.6922 47.6891 56.3 47.7604C55.9078 47.8317 55.4443 47.8674 54.9451 47.8674H52.3779V47.8495ZM54.6242 46.3164H54.9451C55.2838 46.3164 55.5691 46.2807 55.783 46.2272C55.997 46.1737 56.1931 46.0668 56.3535 45.9063C56.514 45.7459 56.6209 45.5319 56.6922 45.2645C56.7635 44.9971 56.7992 44.6406 56.7814 44.2127C56.7814 43.5174 56.6388 43.0182 56.3713 42.7152C56.1039 42.4121 55.6047 42.2517 54.9095 42.2517H54.6242V46.3164Z" fill="white"/>
<path d="M59.4199 47.8495V46.2272C59.6695 46.2272 59.8656 46.2272 60.0082 46.2094C60.1509 46.1916 60.3113 46.1381 60.4539 46.0311C60.5965 45.9242 60.7213 45.7815 60.7926 45.6033C60.864 45.425 60.9531 45.1576 61.0422 44.8188C61.1314 44.4801 61.1849 44.0701 61.2383 43.6066C61.2918 43.143 61.3453 42.5369 61.381 41.8238L61.791 35.5128H67.8168V47.8495H65.5705V37.1886H63.7699L63.5025 42.0555C63.4668 42.5547 63.449 43.0004 63.4133 43.357C63.3777 43.7135 63.342 44.0879 63.2885 44.4801C63.235 44.8723 63.1816 45.1932 63.1103 45.4606C63.0389 45.7281 62.9498 45.9776 62.8428 46.2629C62.7359 46.5303 62.6111 46.7442 62.4685 46.9225C62.3258 47.083 62.1654 47.2434 61.9693 47.386C61.7732 47.5286 61.5592 47.6356 61.3097 47.7069C61.0601 47.7782 60.7748 47.8317 60.4717 47.8495C60.1687 47.8674 59.7943 47.8852 59.4199 47.8495Z" fill="white"/>
<path d="M69.0469 47.8495L71.5606 35.5128H73.9138L76.4097 47.8495H74.3239L73.8247 44.9793H71.6854L71.1862 47.8495H69.0469ZM71.9171 43.5174H73.5751L72.755 38.4543L71.9171 43.5174Z" fill="white"/>
<path d="M77.6396 47.8495V35.5128H82.8097V37.1708H79.8859V47.8495H77.6396Z" fill="white"/>
<path d="M87.3915 48.01C86.1257 48.01 85.2165 47.6713 84.6638 46.976C84.1112 46.2807 83.8438 45.2824 83.8438 43.9453V39.3992C83.8438 38.7396 83.9151 38.1691 84.022 37.6878C84.1468 37.2064 84.3429 36.7964 84.6282 36.4398C84.8956 36.0833 85.27 35.8158 85.7335 35.6554C86.197 35.4771 86.7497 35.388 87.4093 35.388C88.6751 35.388 89.5843 35.7267 90.1369 36.4042C90.6896 37.0816 90.957 38.08 90.957 39.3992V43.9453C90.957 44.5871 90.8857 45.1576 90.7609 45.6389C90.6361 46.1203 90.44 46.5481 90.1548 46.9047C89.8873 47.2612 89.513 47.5286 89.0494 47.7248C88.5859 47.903 88.0333 48.01 87.3915 48.01ZM86.821 46.2451C86.9814 46.3164 87.1597 46.3342 87.3736 46.3342C87.5876 46.3342 87.7837 46.2985 87.9263 46.2451C88.0867 46.1737 88.1937 46.1024 88.3007 45.9955C88.3898 45.8885 88.4611 45.7637 88.5146 45.5854C88.5681 45.4072 88.6037 45.2467 88.6216 45.0863C88.6394 44.9258 88.6394 44.7119 88.6394 44.4801V38.8644C88.6394 38.5613 88.6216 38.3117 88.6037 38.1156C88.5859 37.9195 88.5146 37.7234 88.4255 37.563C88.3363 37.3847 88.2115 37.2599 88.0333 37.1708C87.855 37.0816 87.641 37.046 87.3736 37.046C87.1062 37.046 86.8923 37.0816 86.714 37.1708C86.5357 37.2599 86.4109 37.3847 86.3218 37.563C86.2327 37.7412 86.1792 37.9195 86.1435 38.1156C86.1079 38.3117 86.09 38.5613 86.09 38.8644V44.4623C86.09 44.694 86.09 44.8901 86.1079 45.0684C86.1257 45.2467 86.1614 45.4072 86.2148 45.5676C86.2683 45.728 86.3396 45.8707 86.4288 45.9776C86.5536 46.0846 86.6605 46.1737 86.821 46.2451Z" fill="white"/>
<path d="M92.5972 47.8495V35.5128H99.7282V47.8495H97.4998V37.1173H94.8256V47.8495H92.5972Z" fill="white"/>
<path d="M104.916 48.01C103.65 48.01 102.741 47.6713 102.188 46.976C101.636 46.2807 101.368 45.2824 101.368 43.9453V39.3992C101.368 38.7396 101.44 38.1691 101.547 37.6878C101.671 37.2064 101.868 36.7964 102.153 36.4398C102.438 36.0833 102.795 35.8158 103.258 35.6554C103.722 35.4771 104.274 35.388 104.934 35.388C106.2 35.388 107.109 35.7267 107.662 36.4042C108.214 37.0816 108.482 38.08 108.482 39.3992V43.9453C108.482 44.5871 108.41 45.1576 108.286 45.6389C108.161 46.1203 107.965 46.5481 107.679 46.9047C107.412 47.2612 107.038 47.5286 106.574 47.7248C106.128 47.903 105.558 48.01 104.916 48.01ZM104.363 46.2451C104.524 46.3164 104.702 46.3342 104.934 46.3342C105.148 46.3342 105.344 46.2985 105.487 46.2451C105.647 46.1737 105.754 46.1024 105.861 45.9955C105.968 45.8885 106.021 45.7637 106.075 45.5854C106.128 45.4072 106.164 45.2467 106.182 45.0863C106.2 44.9258 106.2 44.7119 106.2 44.4801V38.8644C106.2 38.5613 106.182 38.3117 106.146 38.1156C106.111 37.9195 106.057 37.7234 105.968 37.563C105.879 37.3847 105.754 37.2599 105.576 37.1708C105.397 37.0816 105.184 37.046 104.916 37.046C104.649 37.046 104.417 37.0816 104.256 37.1708C104.096 37.2599 103.953 37.3847 103.864 37.563C103.775 37.7412 103.722 37.9195 103.686 38.1156C103.65 38.3117 103.633 38.5613 103.633 38.8644V44.4623C103.633 44.694 103.633 44.8901 103.65 45.0684C103.668 45.2467 103.704 45.4072 103.757 45.5676C103.811 45.728 103.882 45.8707 103.971 45.9776C104.078 46.0846 104.203 46.1737 104.363 46.2451Z" fill="white"/>
<path d="M109.23 47.8495V46.2272C109.48 46.2272 109.676 46.2272 109.819 46.2094C109.961 46.1916 110.122 46.1381 110.264 46.0311C110.407 45.9242 110.532 45.7815 110.603 45.6033C110.675 45.425 110.764 45.1576 110.853 44.8188C110.942 44.4801 110.995 44.0701 111.049 43.6066C111.102 43.143 111.156 42.5369 111.192 41.8238L111.602 35.5128H117.627V47.8495H115.381V37.1886H113.58L113.313 42.0555C113.277 42.5547 113.26 43.0004 113.224 43.357C113.188 43.7135 113.153 44.0879 113.099 44.4801C113.046 44.8723 112.992 45.1932 112.921 45.4606C112.849 45.7281 112.76 45.9776 112.653 46.2629C112.546 46.5303 112.422 46.7442 112.279 46.9225C112.136 47.083 111.976 47.2434 111.78 47.386C111.584 47.5286 111.37 47.6356 111.12 47.7069C110.871 47.7782 110.585 47.8317 110.282 47.8495C109.961 47.8674 109.623 47.8852 109.23 47.8495Z" fill="white"/>
<path d="M119.374 50.0067V48.42C120.337 48.4913 120.961 48.3844 121.246 48.117C121.532 47.8317 121.585 47.3147 121.425 46.566L118.875 35.5128H120.979L121.995 40.6472L122.53 44.284L122.976 40.665L123.849 35.5306H125.988L123.653 46.7621C123.493 47.5465 123.35 48.0991 123.225 48.4379C123.1 48.7766 122.904 49.0975 122.601 49.4184C122.298 49.7393 121.906 49.9176 121.425 49.9889C120.925 50.0424 120.248 50.0602 119.374 50.0067Z" fill="white"/>
<path d="M131.64 47.8495V42.4299C131.034 42.5369 130.481 42.6082 129.982 42.6082C129.001 42.6082 128.235 42.3586 127.664 41.8416C127.094 41.3424 126.826 40.6115 126.826 39.6666V35.5128H128.948V39.6666C128.948 39.9162 128.966 40.148 129.019 40.3084C129.073 40.4689 129.144 40.6472 129.251 40.772C129.358 40.9146 129.518 41.0215 129.715 41.075C129.928 41.1463 130.178 41.182 130.499 41.182C130.838 41.182 131.212 41.1463 131.64 41.0572V35.5128H133.886V47.8495H131.64Z" fill="white"/>
<path d="M140.34 47.8495V42.4299C139.733 42.5369 139.181 42.6082 138.682 42.6082C137.701 42.6082 136.935 42.3586 136.364 41.8416C135.794 41.3424 135.526 40.6115 135.526 39.6666V35.5128H137.648V39.6666C137.648 39.9162 137.665 40.148 137.719 40.3084C137.772 40.4689 137.844 40.6472 137.933 40.772C138.04 40.9146 138.2 41.0215 138.414 41.075C138.628 41.1463 138.878 41.182 139.199 41.182C139.537 41.182 139.912 41.1463 140.34 41.0572V35.5128H142.586V47.8495H140.34Z" fill="white"/>
<path d="M143.691 47.8495L146.187 42.3408C145.67 42.0734 145.242 41.6455 144.939 41.0928C144.636 40.5402 144.476 39.8449 144.476 39.0605C144.476 37.866 144.797 36.9747 145.456 36.3863C146.116 35.798 147.15 35.5128 148.541 35.5128H151.322V47.8495H149.075V42.8578H148.398H148.148L146.169 47.8495H143.691ZM148.665 41.2711H149.075V37.0816H148.63C147.934 37.0816 147.435 37.2421 147.097 37.563C146.758 37.8839 146.597 38.383 146.597 39.0427C146.597 39.7914 146.758 40.3441 147.079 40.7006C147.4 41.0572 147.917 41.2711 148.665 41.2711Z" fill="white"/>
<path d="M21.8567 48.5448C15.8845 48.5448 12.8894 45.2289 12.8894 38.597V37.4203H19.2361V38.4543C19.2539 40.148 19.45 41.3781 19.8244 42.1269C20.1988 42.8756 20.894 43.25 21.928 43.25C22.4807 43.25 22.9264 43.143 23.2651 42.9469C23.6039 42.733 23.8713 42.4121 24.0317 41.9664C24.1922 41.5207 24.317 41.0394 24.3883 40.5045C24.4418 39.9697 24.4774 39.2922 24.4774 38.4722C24.4774 36.7072 24.21 35.4058 23.693 34.5501C23.176 33.6944 22.2133 33.2487 20.8227 33.1952H19.7531V28.3817H20.6979C22.1242 28.3639 23.1047 27.9717 23.6573 27.2407C24.1922 26.5098 24.4774 25.2975 24.4774 23.6039C24.4774 22.1955 24.2813 21.1615 23.8891 20.484C23.4969 19.8066 22.8016 19.4678 21.8211 19.4678C20.8406 19.4678 20.1631 19.8422 19.8066 20.591C19.45 21.3398 19.2717 22.4272 19.2539 23.8535V25.2975H12.8894V23.4969C12.8894 20.6088 13.6738 18.3625 15.2248 16.758C16.7758 15.1535 18.9686 14.3691 21.7676 14.3691C24.62 14.3691 26.8307 15.1357 28.3817 16.6689C29.9327 18.2021 30.7171 20.4127 30.7171 23.3008C30.7171 25.1905 30.3249 26.7594 29.5405 28.0608C28.7561 29.3622 27.7399 30.1645 26.4741 30.521C29.3087 31.555 30.7171 34.1579 30.7171 38.3652C30.7171 39.934 30.5567 41.3068 30.2358 42.5369C29.9149 43.7492 29.3979 44.8188 28.7204 45.7459C28.0251 46.6729 27.1159 47.3682 25.9571 47.8674C24.7983 48.3131 23.4256 48.5448 21.8567 48.5448Z" fill="white"/>
<path d="M144.066 111.316C144.066 106.431 140.928 102.456 136.168 102.456C133.797 102.456 130.927 105.059 129.376 106.663C127.825 105.059 125.15 102.456 122.761 102.456C118.001 102.456 114.686 106.414 114.686 111.316C114.686 113.759 115.648 115.969 117.199 117.574L129.376 129.786L141.534 117.592L141.516 117.574C143.103 115.987 144.066 113.759 144.066 111.316Z" fill="white"/>
<path d="M92.205 149.717C92.1694 149.717 92.1159 149.717 92.0802 149.717C91.1532 149.664 90.3866 148.968 90.2261 148.059L84.0399 112.029L74.6626 129.411C74.2525 130.178 73.3968 130.588 72.5589 130.427C71.7032 130.285 71.0435 129.59 70.9366 128.752L66.961 100.94L59.6873 117.288C59.3664 118.002 58.6533 118.483 57.8689 118.483H29.5406C28.4353 118.483 27.5439 117.592 27.5439 116.486C27.5439 115.381 28.4353 114.49 29.5406 114.49H56.5318L66.1053 92.9893C66.4618 92.1692 67.3175 91.7057 68.2089 91.8305C69.0825 91.9553 69.7956 92.6506 69.9204 93.5241L74.0208 122.209L83.2555 105.076C83.6655 104.328 84.5034 103.918 85.3413 104.042C86.1792 104.185 86.8389 104.845 86.9815 105.683L92.7042 139.056L113.58 69.6885C113.812 68.9041 114.507 68.3336 115.345 68.2623C116.165 68.2088 116.95 68.6367 117.306 69.3854L128.288 92.1692C128.77 93.1676 128.342 94.362 127.361 94.8434C126.363 95.3247 125.168 94.9147 124.687 93.9163L115.934 75.7677L94.1126 148.291C93.863 149.129 93.0786 149.717 92.205 149.717Z" fill="white"/>
</g>
<defs>
<clipPath id="clip0_111_5353">
<rect width="173" height="173" fill="white"/>
</clipPath>
</defs>
</svg>
