<svg width="173" height="173" viewBox="0 0 173 173" fill="none" xmlns="http://www.w3.org/2000/svg">
<g clip-path="url(#clip0_111_4681)">
<path d="M0 0H173V173H0V0Z" fill="#C5192D"/>
<path d="M43.8206 27.3477L46.3164 21.8389C45.7994 21.5715 45.3894 21.1437 45.0685 20.591C44.7654 20.0383 44.605 19.3431 44.605 18.5586C44.605 17.3642 44.9259 16.4728 45.5855 15.8845C46.2451 15.314 47.2791 15.0109 48.6697 15.0109H51.4508V27.3477H49.2045V22.3559H48.5271H48.2597L46.2808 27.3477H43.8206ZM48.7945 20.7693H49.2045V16.5798H48.7588C48.0635 16.5798 47.5644 16.7402 47.2256 17.0611C46.8869 17.382 46.7265 17.8812 46.7265 18.5408C46.7265 19.2896 46.8869 19.8422 47.2078 20.1988C47.5109 20.5732 48.0457 20.7693 48.7945 20.7693Z" fill="white"/>
<path d="M53.3584 27.3477V15.0109H55.6047V20.1988H56.0504L58.0471 15.0109H60.2755L57.9579 20.8228L60.4538 27.3477H58.1719L56.0504 21.6072H55.6047V27.3477H53.3584Z" fill="white"/>
<path d="M61.5769 27.3477V15.0109H63.7875V27.3477H61.5769Z" fill="white"/>
<path d="M68.9041 27.5081C68.3693 27.5081 67.9058 27.4368 67.4958 27.312C67.0857 27.1872 66.7648 26.9733 66.4974 26.7415C66.23 26.5098 66.0161 26.2067 65.8556 25.8502C65.6952 25.4936 65.5704 25.1192 65.4991 24.7092C65.4277 24.2991 65.3921 23.8535 65.3921 23.3364V19.04C65.3921 18.5051 65.4277 18.0238 65.4991 17.6138C65.5704 17.2037 65.6773 16.8115 65.8556 16.455C66.0339 16.0984 66.23 15.8132 66.4974 15.5814C66.7648 15.3496 67.1035 15.1714 67.4958 15.0466C67.9058 14.9218 68.3693 14.8505 68.9041 14.8505C69.5281 14.8505 70.0451 14.9396 70.4908 15.1001C70.9187 15.2605 71.2752 15.5101 71.5248 15.831C71.7744 16.1519 71.9705 16.5263 72.0775 16.9363C72.1844 17.3642 72.2558 17.8633 72.2558 18.416V19.4678H70.0986V18.416C70.0986 17.792 70.0629 17.382 70.0095 17.1681C69.849 16.7759 69.5281 16.5619 69.0289 16.5263C68.9933 16.5263 68.9576 16.5263 68.9041 16.5263C68.708 16.5263 68.5476 16.5441 68.405 16.5976C68.2623 16.6332 68.1554 16.7045 68.0662 16.8115C67.9771 16.9007 67.9058 17.0076 67.8523 17.1146C67.7988 17.2215 67.7632 17.3642 67.7275 17.5424C67.6919 17.7207 67.6919 17.8812 67.674 18.0238C67.674 18.1664 67.6562 18.3625 67.6562 18.5943V23.8178C67.6562 24.5487 67.7453 25.0657 67.9236 25.3688C68.1019 25.6719 68.4228 25.8323 68.8863 25.8323C69.0468 25.8323 69.1894 25.8145 69.3142 25.7788C69.439 25.7432 69.5281 25.6897 69.6173 25.6362C69.7064 25.5827 69.7599 25.4936 69.8312 25.3866C69.8847 25.2797 69.9382 25.1727 69.956 25.0836C69.9916 24.9944 70.0095 24.8696 70.0273 24.6914C70.0451 24.5131 70.0451 24.3883 70.0451 24.2813C70.0451 24.1744 70.0451 24.0139 70.0451 23.8178V22.7125H72.2023V23.7287C72.2023 24.1922 72.1666 24.6022 72.1131 24.9766C72.0597 25.351 71.9349 25.6897 71.7744 26.0106C71.614 26.3315 71.4178 26.5989 71.1683 26.8128C70.9187 27.0268 70.5978 27.1872 70.2234 27.312C69.8668 27.4368 69.4212 27.5081 68.9041 27.5081Z" fill="white"/>
<path d="M73.8245 27.3477V15.0109H76.0708V20.1631H78.5845V15.0109H80.8307V27.3477H78.5845V21.7676H76.0708V27.3477H73.8245Z" fill="white"/>
<path d="M82.0432 27.3477L84.5569 15.0109H86.9102L89.4061 27.3477H87.3202L86.821 24.4774H84.6817L84.1825 27.3477H82.0432ZM84.9135 23.0156H86.5715L85.7514 17.9525L84.9135 23.0156Z" fill="white"/>
<path d="M47.9566 48.0101C46.6909 48.0101 45.7817 47.6714 45.229 46.9761C44.6764 46.2808 44.4089 45.2825 44.4089 43.9454V39.3994C44.4089 38.7397 44.4802 38.1692 44.5872 37.6879C44.712 37.2065 44.9081 36.7965 45.1934 36.44C45.4608 36.0834 45.8352 35.816 46.2987 35.6555C46.7622 35.4773 47.3149 35.3881 47.9745 35.3881C49.2402 35.3881 50.1495 35.7268 50.7021 36.4043C51.2548 37.0818 51.54 38.0801 51.54 39.3994V43.9454C51.54 44.5872 51.4687 45.1577 51.3439 45.639C51.2191 46.1204 51.023 46.5483 50.7378 46.9048C50.4704 47.2614 50.096 47.5288 49.6325 47.7249C49.1511 47.9032 48.5984 48.0101 47.9566 48.0101ZM47.3862 46.2452C47.5466 46.3165 47.7249 46.3343 47.9388 46.3343C48.1528 46.3343 48.3489 46.2987 48.4915 46.2452C48.6519 46.1739 48.7589 46.1026 48.8659 45.9956C48.955 45.8886 49.0263 45.7638 49.0798 45.5856C49.1333 45.4073 49.1689 45.2468 49.1868 45.0864C49.2046 44.9259 49.2046 44.712 49.2046 44.4802V38.8645C49.2046 38.5615 49.1868 38.3119 49.1689 38.1158C49.1511 37.9197 49.0798 37.7235 48.9907 37.5631C48.9015 37.3848 48.7767 37.26 48.5984 37.1709C48.4202 37.0818 48.2062 37.0461 47.9388 37.0461C47.6714 37.0461 47.4575 37.0818 47.2792 37.1709C47.1009 37.26 46.9761 37.3848 46.887 37.5631C46.7978 37.7414 46.7444 37.9197 46.7087 38.1158C46.6731 38.3119 46.6552 38.5615 46.6552 38.8645V44.4624C46.6552 44.6942 46.6552 44.8903 46.6731 45.0686C46.6909 45.2468 46.7265 45.4073 46.78 45.5677C46.8335 45.7282 46.9048 45.8708 46.994 45.9778C47.1009 46.0847 47.2257 46.1739 47.3862 46.2452Z" fill="white"/>
<path d="M56.4605 48.01C55.9257 48.01 55.4622 47.9387 55.0522 47.8139C54.6421 47.6891 54.3034 47.493 54.036 47.2613C53.7686 47.0295 53.5546 46.7264 53.3942 46.3699C53.2337 46.0133 53.1089 45.6389 53.0376 45.2289C52.9663 44.8189 52.9307 44.3732 52.9307 43.8562V39.5597C52.9307 39.0249 52.9663 38.5435 53.0376 38.1335C53.1089 37.7234 53.2159 37.3312 53.3942 36.9747C53.5725 36.6181 53.7686 36.3329 54.036 36.1011C54.3034 35.8694 54.6421 35.6911 55.0343 35.5663C55.4444 35.4415 55.9079 35.3702 56.4427 35.3702C57.0667 35.3702 57.5837 35.4593 58.0294 35.6198C58.4572 35.7802 58.8138 36.0298 59.0634 36.3507C59.313 36.6716 59.5091 37.046 59.616 37.456C59.723 37.8839 59.7943 38.3831 59.7943 38.9357V39.9876H57.6372V38.9357C57.6372 38.3117 57.6015 37.9017 57.548 37.6878C57.4232 37.2777 57.1023 37.046 56.6032 37.0103C56.5675 37.0103 56.5319 37.0103 56.4784 37.0103C56.2823 37.0103 56.1218 37.0282 55.9792 37.0816C55.8366 37.1173 55.7296 37.1886 55.6405 37.2956C55.5513 37.3847 55.48 37.4917 55.4265 37.5986C55.3731 37.7056 55.3374 37.8482 55.3017 38.0265C55.2661 38.2048 55.2661 38.3652 55.2483 38.5079C55.2483 38.6505 55.2304 38.8466 55.2304 39.0783V44.3019C55.2304 45.0328 55.3196 45.5498 55.4979 45.8529C55.6761 46.1559 55.997 46.3164 56.4605 46.3164C56.621 46.3164 56.7636 46.2986 56.8884 46.2629C57.0132 46.2272 57.1023 46.1738 57.1915 46.1203C57.2806 46.0668 57.3341 45.9777 57.4054 45.8707C57.4589 45.7637 57.5124 45.6568 57.5302 45.5676C57.5659 45.4785 57.5837 45.3537 57.6015 45.1754C57.6194 44.9971 57.6193 44.8723 57.6193 44.7654C57.6193 44.6584 57.6193 44.498 57.6193 44.3019V43.1965H59.7765V44.2127C59.7765 44.6762 59.7408 45.0863 59.6874 45.4607C59.6339 45.835 59.5091 46.1738 59.3486 46.4947C59.1882 46.8156 58.9921 47.083 58.7425 47.2969C58.4929 47.5108 58.172 47.6713 57.7976 47.7961C57.4232 47.9387 56.9776 48.01 56.4605 48.01Z" fill="white"/>
<path d="M61.3809 47.8496V35.5128H64.3937C64.9642 35.5128 65.4634 35.5663 65.8913 35.6733C66.3191 35.7802 66.6935 35.9407 67.0322 36.1724C67.371 36.4042 67.6027 36.7429 67.781 37.153C67.9415 37.563 68.0306 38.08 68.0306 38.6683C68.0306 40.1837 67.4245 41.0394 66.23 41.2177C67.674 41.4851 68.405 42.5013 68.405 44.284C68.405 45.4607 68.1197 46.3521 67.5314 46.9582C66.9431 47.5643 66.0874 47.8674 64.9464 47.8674H61.3809V47.8496ZM63.6271 40.5402H64.3224C64.9821 40.5402 65.4456 40.3976 65.6952 40.1124C65.9447 39.8271 66.0695 39.3458 66.0695 38.6861C66.0695 38.3474 66.0339 38.0622 65.9448 37.8482C65.8556 37.6343 65.7308 37.4739 65.5347 37.3669C65.3386 37.2599 65.1247 37.1886 64.8929 37.153C64.6612 37.1173 64.3403 37.0995 63.948 37.0995H63.6271V40.5402ZM63.6271 46.2629H64.4472C65.1247 46.2629 65.5882 46.1025 65.8378 45.7994C66.0874 45.4963 66.2122 44.9793 66.2122 44.2484C66.2122 43.4996 66.0695 42.9648 65.7843 42.6261C65.4991 42.2873 64.9999 42.1269 64.3224 42.1269H63.6093V46.2629H63.6271Z" fill="white"/>
<path d="M69.8313 47.8496V35.5128H72.0419V47.8496H69.8313Z" fill="white"/>
<path d="M75.0548 47.8496V37.1708H72.9868V35.5128H79.2978V37.1708H77.3011V47.8496H75.0548Z" fill="white"/>
<path d="M79.6543 47.8496L82.168 35.5128H84.5213L87.0171 47.8496H84.9313L84.4321 44.9793H82.2928L81.7936 47.8496H79.6543ZM82.5246 43.5175H84.1825L83.3625 38.4544L82.5246 43.5175Z" fill="white"/>
<path d="M22.4273 48.01V40.1658H12.4795V34.9779L21.0011 14.8148H28.2035V35.2988H31.5016V40.1658H28.2035V48.01H22.4273ZM17.5426 35.2988H22.4273V21.3398L17.5426 35.2988Z" fill="white"/>
<path d="M75.0903 92.4722L43.9097 74.4662V132.691L75.0903 142.105V92.4722Z" fill="white"/>
<path d="M78.5134 92.5792V142.122L109.89 132.691V74.4662L78.5134 92.5792Z" fill="white"/>
<path d="M126.969 131.658L130.659 144.547L134.35 131.658V79.8503H133.44H132.513H131.551H129.714H128.805H127.896H126.969V131.658Z" fill="white"/>
<path d="M116.575 76.9621L113.242 74.3236V134.26L78.6024 145.456H76.9979H76.6771H75.0904L40.6116 135.829V74.3236L37.26 76.9621V138.165L74.9299 148.594H76.6771H76.9979H78.7629L113.509 137.558L116.575 136.667V76.9621Z" fill="white"/>
<path d="M134.35 73.0044C134.35 70.972 132.692 69.314 130.659 69.314C128.627 69.314 126.969 70.9542 126.969 73.0044V76.9799H134.35V73.0044Z" fill="white"/>
</g>
<defs>
<clipPath id="clip0_111_4681">
<rect width="173" height="173" fill="white"/>
</clipPath>
</defs>
</svg>
