<svg width="173" height="173" viewBox="0 0 173 173" fill="none" xmlns="http://www.w3.org/2000/svg">
<g clip-path="url(#clip0_111_4673)">
<path d="M0 0H173V173H0V0Z" fill="#8E1837"/>
<path d="M119.553 87.1062L101.885 103.918C101.226 104.577 100.869 105.076 100.869 106.431V153.532C100.869 154.085 101.315 154.531 101.885 154.531H120.123C120.676 154.531 121.121 154.085 121.121 153.532V87.534C121.139 86.9814 120.694 85.9652 119.553 87.1062Z" fill="white"/>
<path d="M68.6544 108.999L50.9871 125.792C50.3275 126.452 49.9709 126.951 49.9709 128.324V153.532C49.9709 154.085 50.4166 154.531 50.9871 154.531H69.2427C69.7953 154.531 70.241 154.085 70.241 153.532V109.426C70.241 108.874 69.8132 107.858 68.6544 108.999Z" fill="white"/>
<path d="M127.575 66.7291C127.575 66.6043 127.539 66.4438 127.432 66.3547C127.343 66.2656 127.218 66.2299 127.111 66.2121H127.022L126.88 66.2299L113.348 69.2784L113.099 69.3141C113.01 69.3319 112.921 69.3854 112.831 69.4567C112.635 69.6528 112.635 69.9737 112.831 70.1876L112.992 70.3481L116.076 73.4323L85.4124 104.06L71.2573 89.9051C71.0968 89.7446 70.8472 89.7446 70.6868 89.9051L66.8538 93.738L44.1592 116.433C43.9987 116.593 43.9987 116.843 44.1592 117.003L48.0099 120.854C48.1704 121.014 48.42 121.014 48.5804 120.854L70.9898 98.4445L81.2586 108.713C81.2764 108.731 81.2764 108.749 81.2942 108.767L85.1272 112.6C85.2877 112.76 85.5372 112.76 85.6977 112.6L120.48 77.8179L123.724 81.0625C123.92 81.2586 124.241 81.2586 124.437 81.0625C124.526 80.9734 124.58 80.8486 124.58 80.7238V80.6703L127.557 66.8717L127.575 66.7291Z" fill="white"/>
<path d="M94.2017 111.958L85.6622 120.569C85.5018 120.711 85.27 120.694 85.1096 120.551L77.3724 112.653C75.964 111.245 75.6431 112.386 75.6431 112.938V153.532C75.6431 154.085 76.0888 154.531 76.6414 154.531H94.897C95.4496 154.531 95.8953 154.085 95.8953 153.532V112.279C95.8953 111.726 95.4496 110.692 94.2017 111.958Z" fill="white"/>
<path d="M44.605 27.3477V15.0109H49.775V16.6689H46.8513V27.3477H44.605Z" fill="white"/>
<path d="M51.0229 27.3477V15.0109H53.2336V27.3477H51.0229Z" fill="white"/>
<path d="M54.321 29.8079V25.761H54.8202C55.0876 25.6006 55.3194 25.3866 55.5155 25.1192C55.7116 24.8518 55.9077 24.4596 56.1038 23.9604C56.2999 23.4612 56.4425 22.7838 56.5852 21.9459C56.71 21.108 56.7991 20.0918 56.8704 18.8974L57.1022 15.0287H62.6109V25.761H63.9123V29.8079H62.3079L62.1652 27.3655H56.1216L55.979 29.8079H54.321ZM56.9061 25.7432H60.4538V16.6332H58.9028L58.7958 19.2539C58.7601 19.9314 58.7245 20.5553 58.671 21.1258C58.6175 21.6785 58.5462 22.1598 58.4927 22.552C58.4392 22.9442 58.3501 23.3008 58.2431 23.6217C58.1362 23.9604 58.047 24.21 57.9579 24.3883C57.8866 24.5666 57.7618 24.7627 57.6192 24.9588C57.4765 25.1549 57.3518 25.2975 57.2804 25.3688C57.1913 25.4758 57.0665 25.6006 56.9061 25.7432Z" fill="white"/>
<path d="M65.1604 27.3477V15.0109H67.4067V20.1631H69.9204V15.0109H72.1667V27.3477H69.9204V21.7676H67.4067V27.3477H65.1604Z" fill="white"/>
<path d="M73.3789 27.3477L75.8926 15.0109H78.2459L80.7417 27.3477H78.6559L78.1567 24.4774H76.0174L75.5182 27.3477H73.3789ZM76.2492 23.0156H77.9071L77.0871 17.9525L76.2492 23.0156Z" fill="white"/>
<path d="M85.6799 27.3477V15.0109H92.811V27.3477H90.5825V16.6154H87.9084V27.3477H85.6799Z" fill="white"/>
<path d="M94.6472 27.3477V15.0109H98.1949C100.299 15.0109 101.35 16.1876 101.35 18.523C101.35 19.664 101.065 20.5019 100.495 21.0367C99.9242 21.5715 99.1041 21.8389 98.0523 21.8389H96.8935V27.3477H94.6472ZM96.8935 20.2523H97.6244C98.2662 20.2523 98.6941 20.1275 98.908 19.8779C99.122 19.6283 99.2468 19.1648 99.2468 18.5052C99.2468 18.1308 99.2289 17.8277 99.1933 17.6138C99.1576 17.3998 99.0863 17.2216 98.9793 17.0433C98.8724 16.865 98.7119 16.758 98.498 16.6867C98.2841 16.6154 97.981 16.5976 97.6244 16.5976H96.8935V20.2523Z" fill="white"/>
<path d="M101.689 27.3477L104.203 15.0109H106.556L109.052 27.3477H106.966L106.467 24.4774H104.328L103.829 27.3477H101.689ZM104.542 23.0156H106.2L105.38 17.9525L104.542 23.0156Z" fill="white"/>
<path d="M117.306 29.8079L117.075 27.3655H110.282V15.0109H112.529V25.7967H115.327V15.0109H117.574V25.7967H119V29.8079H117.306Z" fill="white"/>
<path d="M119.481 27.3477L121.977 21.8389C121.46 21.5715 121.05 21.1437 120.729 20.591C120.408 20.0383 120.266 19.3431 120.266 18.5586C120.266 17.3642 120.587 16.4728 121.246 15.8845C121.906 15.314 122.94 15.0109 124.33 15.0109H127.111V27.3477H124.865V22.3559H124.188H123.92L121.941 27.3477H119.481ZM124.455 20.7693H124.865V16.5798H124.419C123.724 16.5798 123.225 16.7402 122.886 17.0611C122.548 17.382 122.387 17.8812 122.387 18.5408C122.387 19.2896 122.548 19.8422 122.868 20.1988C123.172 20.5732 123.706 20.7693 124.455 20.7693Z" fill="white"/>
<path d="M45.7995 46.0668V35.388H43.7314V33.73H50.0424V35.388H48.0457V46.0668H45.7995Z" fill="white"/>
<path d="M50.3811 46.0668L52.8948 33.73H55.2481L57.7439 46.0668H55.6581L55.1589 43.1965H53.0196L52.5204 46.0668H50.3811ZM53.2514 41.7346H54.9093L54.0893 36.6716L53.2514 41.7346Z" fill="white"/>
<path d="M62.6824 46.0668V33.73H67.8524V35.3167H64.9287V38.8644H67.2284V40.4511H64.9287V44.5158H67.8881V46.0668H62.6824Z" fill="white"/>
<path d="M69.1895 46.0668V33.73H71.4357V38.9179H71.8814L73.8781 33.73H76.1066L73.789 39.5418L76.2849 46.0668H74.0029L71.8814 40.3263H71.4357V46.0668H69.1895Z" fill="white"/>
<path d="M80.7596 46.2272C79.4939 46.2272 78.5846 45.8885 78.032 45.1932C77.4793 44.4979 77.2119 43.4996 77.2119 42.1625V37.6165C77.2119 36.9568 77.2832 36.3863 77.3902 35.905C77.515 35.4236 77.7111 35.0136 77.9963 34.6571C78.2637 34.3005 78.6381 34.0331 79.1016 33.8726C79.5652 33.6944 80.1178 33.6052 80.7775 33.6052C82.0432 33.6052 82.9524 33.944 83.5051 34.6214C84.0577 35.2989 84.343 36.2972 84.343 37.6165V42.1625C84.343 42.8043 84.2717 43.3748 84.1469 43.8562C84.0221 44.3375 83.826 44.7654 83.5407 45.1219C83.2733 45.4785 82.899 45.7459 82.4354 45.942C81.9541 46.1203 81.4014 46.2272 80.7596 46.2272ZM80.207 44.4623C80.3674 44.5336 80.5457 44.5514 80.7596 44.5514C80.9736 44.5514 81.1697 44.5158 81.3123 44.4623C81.4727 44.391 81.5797 44.3197 81.6867 44.2127C81.7758 44.1057 81.8471 43.9809 81.9006 43.8027C81.9541 43.6244 81.9897 43.4639 82.0076 43.3035C82.0254 43.143 82.0254 42.9291 82.0254 42.6974V37.0816C82.0254 36.7786 82.0076 36.529 81.9897 36.3329C81.9719 36.1368 81.9006 35.9407 81.8115 35.7802C81.7223 35.6019 81.5975 35.4771 81.4192 35.388C81.241 35.2989 81.027 35.2632 80.7596 35.2632C80.4922 35.2632 80.2783 35.2989 80.1 35.388C79.9217 35.4771 79.7969 35.6019 79.7078 35.7802C79.6186 35.9585 79.5652 36.1368 79.5295 36.3329C79.4939 36.529 79.476 36.7786 79.476 37.0816V42.6795C79.476 42.9113 79.476 43.1074 79.4939 43.2857C79.5117 43.4639 79.5473 43.6244 79.6008 43.7848C79.6543 43.9453 79.7256 44.0879 79.8148 44.1949C79.9217 44.3018 80.0465 44.391 80.207 44.4623Z" fill="white"/>
<path d="M85.9832 46.0668V33.73H88.2294V38.8822H90.7432V33.73H92.9894V46.0668H90.7432V40.4867H88.2294V46.0668H85.9832Z" fill="white"/>
<path d="M98.213 46.2272C96.9472 46.2272 96.038 45.8885 95.4854 45.1932C94.9327 44.4979 94.6653 43.4996 94.6653 42.1625V37.6165C94.6653 36.9568 94.7366 36.3863 94.8436 35.905C94.9684 35.4236 95.1645 35.0136 95.4497 34.6571C95.7349 34.3005 96.0915 34.0331 96.555 33.8726C97.0185 33.6944 97.5712 33.6052 98.213 33.6052C99.4788 33.6052 100.388 33.944 100.941 34.6214C101.493 35.2989 101.779 36.2972 101.779 37.6165V42.1625C101.779 42.8043 101.707 43.3748 101.582 43.8562C101.458 44.3375 101.262 44.7654 100.976 45.1219C100.691 45.4785 100.334 45.7459 99.871 45.942C99.4075 46.1203 98.8548 46.2272 98.213 46.2272ZM97.6603 44.4623C97.8208 44.5336 97.9991 44.5514 98.213 44.5514C98.4269 44.5514 98.623 44.5158 98.7657 44.4623C98.9083 44.4088 99.0509 44.3197 99.14 44.2127C99.2292 44.1057 99.3005 43.9809 99.354 43.8027C99.4075 43.6244 99.4431 43.4639 99.4609 43.3035C99.4788 43.143 99.4788 42.9291 99.4788 42.6974V37.0816C99.4788 36.7786 99.4609 36.529 99.4431 36.3329C99.4253 36.1368 99.354 35.9407 99.2648 35.7802C99.1757 35.6019 99.0509 35.4771 98.8726 35.388C98.6943 35.2989 98.4804 35.2632 98.213 35.2632C97.9456 35.2632 97.7317 35.2989 97.5534 35.388C97.3751 35.4771 97.2503 35.6019 97.1612 35.7802C97.072 35.9585 97.0185 36.1368 96.9829 36.3329C96.9472 36.529 96.9294 36.7786 96.9294 37.0816V42.6795C96.9294 42.9113 96.9294 43.1074 96.9472 43.2857C96.9651 43.4639 97.0007 43.6244 97.0542 43.7848C97.1077 43.9453 97.179 44.0879 97.2681 44.1949C97.3573 44.3018 97.4999 44.391 97.6603 44.4623Z" fill="white"/>
<path d="M103.401 46.0668L103.597 33.73H105.808L107.697 42.0377L109.641 33.73H111.798L112.012 46.0668H110.336L110.211 38.0621L108.321 46.0668H107.145L105.184 38.0443L105.077 46.0668H103.401Z" fill="white"/>
<path d="M113.83 46.0668V33.73H116.041V46.0668H113.83Z" fill="white"/>
<path d="M122.441 46.0668V40.6472C121.835 40.7541 121.282 40.8254 120.783 40.8254C119.802 40.8254 119.036 40.5758 118.465 40.0588C117.895 39.5597 117.627 38.8287 117.627 37.8839V33.73H119.749V37.8839C119.749 38.1335 119.767 38.3652 119.82 38.5257C119.873 38.6861 119.945 38.8644 120.052 38.9892C120.159 39.1318 120.319 39.2388 120.515 39.2923C120.729 39.3636 120.979 39.3992 121.3 39.3992C121.638 39.3992 122.013 39.3636 122.441 39.2744V33.73H124.687V46.0668H122.441Z" fill="white"/>
<path d="M126.577 46.0668V33.73H128.823V38.8822H131.337V33.73H133.583V46.0668H131.337V40.4867H128.823V46.0668H126.577Z" fill="white"/>
<path d="M135.437 46.0668V33.73H140.607V35.3167H137.683V38.8644H139.983V40.4511H137.683V44.5158H140.643V46.0668H135.437Z" fill="white"/>
<path d="M47.493 64.5363C46.3877 64.5363 45.5854 64.2332 45.0506 63.6271C44.5336 63.0209 44.2662 62.1652 44.2662 61.042V60.5963H46.3877V61.0599C46.4055 61.6482 46.4947 62.076 46.6551 62.3435C46.8155 62.6109 47.1008 62.7535 47.5108 62.7535C47.7069 62.7535 47.8674 62.7178 47.9922 62.6644C48.1348 62.5931 48.2418 62.5217 48.3131 62.4148C48.3844 62.3078 48.4557 62.1652 48.4914 62.0047C48.527 61.8265 48.5627 61.6482 48.5805 61.4877C48.5983 61.3273 48.5983 61.0955 48.5983 60.8281C48.5983 60.1685 48.4735 59.6693 48.2061 59.3128C47.9565 58.974 47.493 58.7779 46.8334 58.7244C46.7799 58.7244 46.6016 58.7244 46.2985 58.7244V57.1913H46.7799C47.4573 57.1556 47.9209 56.9952 48.1883 56.6743C48.4557 56.3534 48.5805 55.872 48.5805 55.2302C48.5805 54.6954 48.4914 54.2853 48.2952 54.0001C48.0991 53.7149 47.7961 53.5722 47.3682 53.5722C46.6016 53.5722 46.1738 54.1249 46.1381 55.2302V55.765H44.0166V55.1946C44.0166 54.1605 44.3197 53.3405 44.908 52.7522C45.4963 52.1638 46.3164 51.8786 47.3504 51.8786C48.4022 51.8786 49.2223 52.1638 49.8106 52.7343C50.3989 53.3048 50.702 54.1071 50.702 55.1589C50.702 55.8542 50.5594 56.4425 50.2563 56.9238C49.9532 57.4052 49.561 57.7083 49.0618 57.8509C50.1672 58.2253 50.7198 59.2058 50.7198 60.7924C50.7198 61.9691 50.4524 62.8783 49.9532 63.5379C49.4184 64.1975 48.6161 64.5363 47.493 64.5363Z" fill="white"/>
<path d="M52.2351 64.358V52.0212H55.7828C57.8865 52.0212 58.9383 53.1978 58.9383 55.5333C58.9383 56.6742 58.6531 57.5121 58.0826 58.047C57.5121 58.5818 56.692 58.8492 55.6402 58.8492H54.4814V64.358H52.2351ZM54.4814 57.2626H55.2123C55.8541 57.2626 56.282 57.1378 56.4959 56.8882C56.7099 56.6386 56.8347 56.1751 56.8347 55.5154C56.8347 55.1411 56.8168 54.838 56.7812 54.6241C56.7455 54.4101 56.6742 54.2318 56.5672 54.0536C56.4603 53.8753 56.2998 53.7683 56.0859 53.697C55.872 53.6257 55.5867 53.6079 55.2123 53.6079H54.4814V57.2626Z" fill="white"/>
<path d="M63.4845 64.5184C62.2187 64.5184 61.3095 64.1797 60.7568 63.4844C60.2042 62.7891 59.9368 61.7908 59.9368 60.4537V55.9077C59.9368 55.248 60.0081 54.6775 60.115 54.1962C60.2398 53.7148 60.4359 53.3048 60.7212 52.9483C60.9886 52.5917 61.363 52.3243 61.8265 52.1638C62.29 51.9856 62.8427 51.8964 63.5023 51.8964C64.7681 51.8964 65.6773 52.2351 66.2299 52.9126C66.7826 53.5901 67.0678 54.5884 67.0678 55.9077V60.4537C67.0678 61.0955 66.9965 61.666 66.8717 62.1474C66.7469 62.6287 66.5508 63.0566 66.2656 63.4131C65.9982 63.7697 65.6238 64.0371 65.1603 64.2332C64.6789 64.4115 64.1263 64.5184 63.4845 64.5184ZM62.914 62.7535C63.0744 62.8248 63.2527 62.8426 63.4667 62.8426C63.6806 62.8426 63.8767 62.807 64.0193 62.7535C64.1798 62.6822 64.2867 62.6109 64.3937 62.5039C64.4828 62.3969 64.5541 62.2721 64.6076 62.0939C64.6611 61.9156 64.6968 61.7551 64.7146 61.5947C64.7324 61.4342 64.7324 61.2203 64.7324 60.9885V55.3907C64.7324 55.0876 64.7146 54.838 64.6968 54.6419C64.6789 54.4458 64.6076 54.2497 64.5185 54.0892C64.4293 53.911 64.3046 53.7862 64.1263 53.697C63.948 53.6079 63.7341 53.5722 63.4667 53.5722C63.1992 53.5722 62.9853 53.6079 62.807 53.697C62.6288 53.7862 62.504 53.911 62.4148 54.0892C62.3257 54.2675 62.2722 54.4458 62.2365 54.6419C62.2009 54.838 62.1831 55.0876 62.1831 55.3907V60.9885C62.1831 61.2203 62.1831 61.4164 62.2009 61.5947C62.2187 61.773 62.2544 61.9334 62.3079 62.0939C62.3613 62.2543 62.4326 62.3969 62.5218 62.5039C62.6466 62.593 62.7714 62.6822 62.914 62.7535Z" fill="white"/>
<path d="M71.9884 64.5184C71.4535 64.5184 70.99 64.4471 70.58 64.3223C70.17 64.1975 69.8312 64.0014 69.5638 63.7697C69.2964 63.5379 69.0825 63.2348 68.922 62.8783C68.7616 62.5217 68.6368 62.1474 68.5655 61.7373C68.4941 61.3273 68.4585 60.8816 68.4585 60.3646V56.0681C68.4585 55.5333 68.4941 55.0519 68.5655 54.6419C68.6368 54.2319 68.7437 53.8396 68.922 53.4831C69.1003 53.1265 69.2964 52.8413 69.5638 52.6095C69.8312 52.3778 70.17 52.1995 70.5622 52.0747C70.9722 51.9499 71.4357 51.8786 71.9705 51.8786C72.5945 51.8786 73.1115 51.9677 73.5572 52.1282C73.9851 52.2886 74.3416 52.5382 74.5912 52.8591C74.8408 53.18 75.0369 53.5544 75.1439 53.9644C75.2508 54.3923 75.3222 54.8915 75.3222 55.4441V56.496H73.165V55.4441C73.165 54.8202 73.1294 54.4101 73.0759 54.1962C72.9511 53.7862 72.6302 53.5544 72.131 53.5187C72.0953 53.5187 72.0597 53.5187 72.0062 53.5187C71.8101 53.5187 71.6497 53.5366 71.507 53.5901C71.3644 53.6257 71.2574 53.697 71.1683 53.804C71.0792 53.8931 71.0079 54.0001 70.9544 54.1071C70.9009 54.214 70.8652 54.3567 70.8296 54.5349C70.7939 54.7132 70.7939 54.8737 70.7761 55.0163C70.7761 55.1589 70.7583 55.355 70.7583 55.5868V60.8103C70.7583 61.5412 70.8474 62.0582 71.0257 62.3613C71.204 62.6644 71.5249 62.8248 71.9884 62.8248C72.1488 62.8248 72.2914 62.807 72.4162 62.7713C72.541 62.7357 72.6302 62.6822 72.7193 62.6287C72.8085 62.5752 72.8619 62.4861 72.9332 62.3791C72.9867 62.2722 73.0402 62.1652 73.058 62.076C73.0937 61.9869 73.1115 61.8621 73.1294 61.6838C73.1472 61.5056 73.1472 61.3808 73.1472 61.2738C73.1472 61.1668 73.1472 61.0064 73.1472 60.8103V59.705H75.3043V60.7211C75.3043 61.1847 75.2687 61.5947 75.2152 61.9691C75.1617 62.3435 75.0369 62.6822 74.8765 63.0031C74.716 63.324 74.5199 63.5914 74.2703 63.8053C74.0207 64.0193 73.6998 64.1797 73.3255 64.3045C72.9511 64.4471 72.5054 64.5184 71.9884 64.5184Z" fill="white"/>
<path d="M78.0853 64.358V53.6792H76.0173V52.0212H82.3283V53.6792H80.3316V64.358H78.0853Z" fill="white"/>
<path d="M82.6848 64.358L85.1985 52.0212H87.5518L90.0476 64.358H87.9618L87.4626 61.4877H85.3233L84.8241 64.358H82.6848ZM85.5551 60.0258H87.213L86.393 54.9628L85.5551 60.0258Z" fill="white"/>
<path d="M91.2778 64.358V52.0212H93.5241V57.1734H96.0378V52.0212H98.2841V64.358H96.0378V58.7779H93.5241V64.358H91.2778Z" fill="white"/>
<path d="M100.174 64.358V52.0212H102.42V57.1734H104.934V52.0212H107.18V64.358H104.934V58.7779H102.42V64.358H100.174Z" fill="white"/>
<path d="M108.268 64.358L110.763 58.8492C110.246 58.5818 109.819 58.1539 109.516 57.6013C109.212 57.0486 109.052 56.3533 109.052 55.5689C109.052 54.3745 109.373 53.4831 110.033 52.8948C110.692 52.3065 111.726 52.0212 113.117 52.0212H115.898V64.358H113.652V59.3662H112.974H112.707L110.728 64.358H108.268ZM113.242 57.7796H113.652V53.59H113.206C112.511 53.59 112.011 53.7505 111.673 54.0714C111.334 54.3923 111.173 54.8915 111.173 55.5511C111.173 56.2999 111.334 56.8525 111.655 57.2091C111.958 57.5835 112.493 57.7796 113.242 57.7796Z" fill="white"/>
<path d="M21.6785 48.4913C15.7597 48.4913 12.7825 45.1397 12.7825 38.4365C12.7825 38.3652 12.7825 38.2761 12.7825 38.2226C12.8003 36.4398 13.1212 34.871 13.763 33.5339C14.4048 32.1968 15.3497 31.1985 16.5976 30.5032C14.4404 28.8809 13.3351 26.4741 13.2995 23.283C13.2995 23.176 13.2995 23.069 13.2995 22.9799C13.2816 20.3057 13.9769 18.2199 15.3675 16.7402C16.8115 15.1892 18.9152 14.4226 21.6785 14.4226C24.4418 14.4226 26.5276 15.1892 27.9538 16.7402C29.3266 18.2556 30.004 20.3592 30.004 23.0512V23.283C29.9505 26.5454 28.8631 28.97 26.7237 30.5032C27.9717 31.1985 28.9344 32.2147 29.5762 33.5517C30.218 34.8888 30.5567 36.4398 30.5923 38.2226V38.5791C30.5567 45.1932 27.5973 48.4913 21.6785 48.4913ZM21.6785 43.767C22.1598 43.767 22.5699 43.66 22.9086 43.4283C23.2473 43.1965 23.5147 42.9291 23.693 42.5904C23.8713 42.2516 24.0317 41.8416 24.1209 41.3424C24.2279 40.8433 24.2813 40.3976 24.317 39.9875C24.3526 39.5775 24.3526 39.1318 24.3526 38.597C24.3526 37.866 24.317 37.2242 24.2635 36.6716C24.21 36.1189 24.0852 35.5663 23.907 35.0314C23.7287 34.4966 23.4613 34.0687 23.0691 33.7835C22.6947 33.4804 22.2133 33.3378 21.6607 33.3378C21.108 33.3378 20.6267 33.4804 20.2523 33.7835C19.8779 34.0866 19.5927 34.4966 19.4144 35.0314C19.2361 35.5663 19.1113 36.1189 19.04 36.6716C18.9687 37.2242 18.933 37.866 18.933 38.597C18.933 39.114 18.9509 39.5775 18.9687 40.0054C19.0043 40.4154 19.0578 40.8789 19.1826 41.3603C19.2896 41.8594 19.45 42.2695 19.6283 42.5904C19.8066 42.9113 20.074 43.1965 20.4306 43.4104C20.8049 43.66 21.1971 43.767 21.6785 43.767ZM21.6785 28.1321C23.2117 28.1321 23.9783 26.4385 23.9783 23.0512C23.9783 21.8568 23.7822 20.9119 23.4078 20.2166C23.0334 19.5213 22.4451 19.1648 21.6785 19.1648C20.8762 19.1648 20.2879 19.5213 19.8957 20.1988C19.5035 20.8941 19.3074 21.8389 19.3074 23.0156C19.3074 26.4206 20.0918 28.1321 21.6785 28.1321Z" fill="white"/>
</g>
<defs>
<clipPath id="clip0_111_4673">
<rect width="173" height="173" fill="white"/>
</clipPath>
</defs>
</svg>
