<svg width="173" height="173" viewBox="0 0 173 173" fill="none" xmlns="http://www.w3.org/2000/svg">
<g clip-path="url(#clip0_111_5347)">
<path d="M0 0H173V173H0V0Z" fill="#241F20"/>
<path d="M52.2708 121.104C51.9143 120.997 51.5577 120.89 51.219 120.836C51.219 120.836 51.6112 120.961 52.2708 121.104Z" fill="white"/>
<path d="M39.2388 27.3477V15.011H46.3698V27.3477H44.1414V16.6154H41.4672V27.3477H39.2388Z" fill="white"/>
<path d="M48.2239 27.3477V15.011H51.7716C53.8753 15.011 54.9271 16.1876 54.9271 18.523C54.9271 19.664 54.6419 20.5019 54.0714 21.0367C53.5009 21.5715 52.6808 21.839 51.629 21.839H50.4702V27.3477H48.2239ZM50.4702 20.2523H51.2011C51.8429 20.2523 52.2708 20.1275 52.4847 19.8779C52.6986 19.6283 52.8234 19.1648 52.8234 18.5052C52.8234 18.1308 52.8056 17.8277 52.7699 17.6138C52.7343 17.3999 52.663 17.2216 52.556 17.0433C52.449 16.865 52.2886 16.7581 52.0747 16.6868C51.8607 16.6154 51.5755 16.5976 51.2011 16.5976H50.4702V20.2523Z" fill="white"/>
<path d="M59.4554 27.5082C58.1897 27.5082 57.2804 27.1694 56.7278 26.4741C56.1751 25.7789 55.9077 24.7805 55.9077 23.4434V18.8974C55.9077 18.2377 55.979 17.6673 56.086 17.1859C56.2108 16.7046 56.4069 16.2945 56.6921 15.938C56.9595 15.5814 57.3339 15.314 57.7974 15.1536C58.261 14.9753 58.8136 14.8861 59.4733 14.8861C60.739 14.8861 61.6482 15.2249 62.2009 15.9023C62.7535 16.5798 63.0388 17.5781 63.0388 18.8974V23.4434C63.0388 24.0852 62.9675 24.6557 62.8427 25.1371C62.7179 25.6184 62.5218 26.0463 62.2365 26.4028C61.9691 26.7594 61.5948 27.0268 61.1312 27.2229C60.6499 27.4012 60.0972 27.5082 59.4554 27.5082ZM58.9028 25.7432C59.0632 25.8145 59.2415 25.8323 59.4554 25.8323C59.6694 25.8323 59.8655 25.7967 60.0081 25.7432C60.1685 25.6719 60.2755 25.6006 60.3825 25.4936C60.4716 25.3867 60.5429 25.2619 60.5964 25.0836C60.6499 24.9053 60.6855 24.7449 60.7034 24.5844C60.7212 24.424 60.7212 24.21 60.7212 23.9783V18.3625C60.7212 18.0595 60.7034 17.8099 60.6855 17.6138C60.6677 17.4177 60.5964 17.2216 60.5073 17.0611C60.4181 16.8828 60.2933 16.758 60.1151 16.6689C59.9368 16.5798 59.7228 16.5441 59.4554 16.5441C59.188 16.5441 58.9741 16.5798 58.7958 16.6689C58.6175 16.758 58.4927 16.8828 58.4036 17.0611C58.3145 17.2394 58.261 17.4177 58.2253 17.6138C58.1897 17.8099 58.1718 18.0595 58.1718 18.3625V23.9604C58.1718 24.1922 58.1718 24.3883 58.1897 24.5666C58.2075 24.7449 58.2431 24.9053 58.2966 25.0658C58.3501 25.2262 58.4214 25.3688 58.5106 25.4758C58.6175 25.5828 58.7423 25.6719 58.9028 25.7432Z" fill="white"/>
<path d="M64.6433 27.3477L64.8394 15.011H67.0501L68.9398 23.3187L70.883 15.011H73.0402L73.2541 27.3477H71.5783L71.4535 19.3431L69.5638 27.3477H68.3871L66.4617 19.3253L66.3548 27.3477H64.6433Z" fill="white"/>
<path d="M75.0725 27.3477V15.011H76.9444V22.7303L80.296 15.011H81.8292V27.3477H79.9395V19.4857L76.5879 27.3477H75.0725Z" fill="white"/>
<path d="M87.0169 27.5082C86.4821 27.5082 86.0186 27.4368 85.6086 27.3121C85.1985 27.1873 84.8598 26.9733 84.5924 26.7416C84.325 26.5098 84.111 26.2067 83.9506 25.8502C83.7901 25.4936 83.6653 25.1192 83.594 24.7092C83.5227 24.2992 83.4871 23.8535 83.4871 23.3365V19.04C83.4871 18.5052 83.5227 18.0238 83.594 17.6138C83.6653 17.2038 83.7723 16.8115 83.9506 16.455C84.1289 16.0984 84.325 15.8132 84.5924 15.5814C84.8598 15.3497 85.1985 15.1714 85.5907 15.0466C86.0008 14.9218 86.4643 14.8505 86.9991 14.8505C87.6231 14.8505 88.1401 14.9396 88.5858 15.1001C89.0136 15.2605 89.3702 15.5101 89.6198 15.831C89.8694 16.1519 90.0655 16.5263 90.1724 16.9363C90.2794 17.3642 90.3507 17.8634 90.3507 18.416V19.4679H88.1757V18.416C88.1757 17.7921 88.1401 17.382 88.0866 17.1681C87.9618 16.7581 87.6409 16.5263 87.1417 16.4906C87.1061 16.4906 87.0704 16.4906 87.0169 16.4906C86.8208 16.4906 86.6604 16.5085 86.5178 16.562C86.3751 16.5976 86.2682 16.6689 86.179 16.7759C86.0899 16.865 86.0186 16.972 85.9651 17.079C85.9116 17.1859 85.876 17.3285 85.8403 17.5068C85.8047 17.6851 85.8047 17.8455 85.7868 17.9882C85.7868 18.1308 85.769 18.3269 85.769 18.5587V23.7822C85.769 24.5131 85.8581 25.0301 86.0364 25.3332C86.2147 25.6363 86.5356 25.7967 86.9991 25.7967C87.1596 25.7967 87.3022 25.7789 87.427 25.7432C87.5518 25.7076 87.6409 25.6541 87.73 25.6006C87.8192 25.5471 87.8727 25.458 87.944 25.351C87.9975 25.244 88.051 25.1371 88.0688 25.0479C88.1044 24.9588 88.1223 24.834 88.1401 24.6557C88.1579 24.4775 88.1579 24.3527 88.1579 24.2457C88.1579 24.1387 88.1579 23.9783 88.1579 23.7822V22.6769H90.3329V23.693C90.3329 24.1566 90.2972 24.5666 90.2438 24.941C90.1903 25.3154 90.0655 25.6541 89.905 25.975C89.7446 26.2959 89.5485 26.5633 89.2989 26.7772C89.0493 26.9912 88.7284 27.1516 88.3362 27.2764C87.9618 27.4369 87.5161 27.5082 87.0169 27.5082Z" fill="white"/>
<path d="M91.0105 27.3477V25.7254C91.2601 25.7254 91.4562 25.7254 91.5988 25.7076C91.7414 25.6897 91.9019 25.6363 92.0445 25.5293C92.1871 25.4223 92.3119 25.2797 92.3832 25.1014C92.4545 24.9232 92.5437 24.6557 92.6328 24.317C92.722 23.9783 92.7754 23.5683 92.8289 23.1047C92.8824 22.6412 92.9359 22.0351 92.9715 21.322L93.3816 15.011H99.4073V27.3477H97.1611V16.6868H95.3605L95.093 21.5537C95.0574 22.0529 95.0396 22.4986 95.0039 22.8551C94.9683 23.2117 94.9326 23.5861 94.8791 23.9783C94.8256 24.3705 94.7721 24.6914 94.7008 24.9588C94.6295 25.2262 94.5404 25.4758 94.4334 25.7611C94.3265 26.0285 94.2017 26.2424 94.059 26.4207C93.9164 26.5811 93.756 26.7416 93.5599 26.8842C93.3638 27.0268 93.1498 27.1338 92.9002 27.2051C92.6506 27.2764 92.3654 27.3299 92.0623 27.3477C91.7414 27.3656 91.3849 27.3834 91.0105 27.3477Z" fill="white"/>
<path d="M104.631 27.5082C103.365 27.5082 102.456 27.1694 101.903 26.4741C101.35 25.7789 101.083 24.7805 101.083 23.4434V18.8974C101.083 18.2377 101.154 17.6673 101.261 17.1859C101.386 16.7046 101.582 16.2945 101.867 15.938C102.153 15.5814 102.509 15.314 102.973 15.1536C103.436 14.9753 103.989 14.8861 104.649 14.8861C105.914 14.8861 106.824 15.2249 107.376 15.9023C107.929 16.5798 108.196 17.5781 108.196 18.8974V23.4434C108.196 24.0852 108.125 24.6557 108 25.1371C107.875 25.6184 107.679 26.0463 107.394 26.4028C107.127 26.7594 106.752 27.0268 106.289 27.2229C105.825 27.4012 105.273 27.5082 104.631 27.5082ZM104.078 25.7432C104.239 25.8145 104.417 25.8323 104.649 25.8323C104.862 25.8323 105.059 25.7967 105.201 25.7432C105.362 25.6719 105.469 25.6006 105.576 25.4936C105.683 25.3867 105.736 25.2619 105.79 25.0836C105.843 24.9053 105.879 24.7449 105.896 24.5844C105.914 24.424 105.914 24.21 105.914 23.9783V18.3625C105.914 18.0595 105.896 17.8099 105.861 17.6138C105.825 17.4177 105.772 17.2216 105.683 17.0611C105.593 16.8828 105.469 16.758 105.29 16.6689C105.112 16.5798 104.898 16.5441 104.631 16.5441C104.363 16.5441 104.132 16.5798 103.971 16.6689C103.811 16.758 103.668 16.8828 103.579 17.0611C103.49 17.2394 103.436 17.4177 103.401 17.6138C103.365 17.8099 103.347 18.0595 103.347 18.3625V23.9604C103.347 24.1922 103.347 24.3883 103.365 24.5666C103.383 24.7449 103.418 24.9053 103.472 25.0658C103.525 25.2262 103.597 25.3688 103.686 25.4758C103.793 25.5828 103.918 25.6719 104.078 25.7432Z" fill="white"/>
<path d="M109.854 27.3477V15.011H112.885C113.455 15.011 113.955 15.0644 114.382 15.1714C114.81 15.2784 115.185 15.4388 115.523 15.6706C115.862 15.9023 116.094 16.2411 116.272 16.6511C116.433 17.0611 116.522 17.5781 116.504 18.1665C116.504 19.6818 115.898 20.5375 114.703 20.7158C116.147 20.9832 116.878 21.9994 116.878 23.7822C116.878 24.9588 116.593 25.8502 116.005 26.4563C115.416 27.0625 114.561 27.3656 113.42 27.3656H109.854V27.3477ZM112.101 20.0384H112.796C113.455 20.0384 113.919 19.8957 114.169 19.6105C114.418 19.3253 114.543 18.8439 114.543 18.1843C114.543 17.8456 114.507 17.5603 114.418 17.3464C114.329 17.1325 114.204 16.972 114.008 16.865C113.812 16.7581 113.598 16.6868 113.366 16.6511C113.135 16.6154 112.814 16.5976 112.421 16.5976H112.101V20.0384ZM112.101 25.7611H112.921C113.598 25.7611 114.062 25.6006 114.311 25.2975C114.561 24.9945 114.686 24.4775 114.686 23.7465C114.686 22.9978 114.543 22.4629 114.258 22.1242C113.972 21.7855 113.473 21.625 112.796 21.625H112.083V25.7611H112.101Z" fill="white"/>
<path d="M118.323 27.3477V15.011H120.533V27.3477H118.323Z" fill="white"/>
<path d="M125.65 27.5082C125.115 27.5082 124.651 27.4368 124.241 27.312C123.831 27.1694 123.492 26.9912 123.225 26.7594C122.958 26.5276 122.744 26.2246 122.583 25.868C122.423 25.5115 122.298 25.1371 122.227 24.727C122.155 24.317 122.12 23.8713 122.12 23.3543V19.0578C122.12 18.523 122.155 18.0416 122.227 17.6316C122.298 17.2216 122.405 16.8294 122.583 16.4728C122.761 16.1163 122.958 15.831 123.225 15.5993C123.492 15.3675 123.831 15.1892 124.223 15.0644C124.633 14.9396 125.097 14.8683 125.632 14.8683C126.238 14.8683 126.773 14.9575 127.201 15.1179C127.628 15.2784 127.985 15.5279 128.235 15.8488C128.484 16.1697 128.68 16.5441 128.787 16.9542C128.894 17.382 128.965 17.8812 128.965 18.4339V19.4857H126.808V18.4339C126.808 17.8099 126.773 17.3999 126.719 17.1859C126.594 16.7759 126.273 16.5441 125.774 16.5085C125.739 16.5085 125.703 16.5085 125.65 16.5085C125.453 16.5085 125.293 16.5263 125.15 16.5798C125.008 16.6154 124.901 16.6867 124.812 16.7937C124.722 16.8828 124.651 16.9898 124.598 17.0968C124.544 17.2037 124.509 17.3464 124.473 17.5246C124.455 17.7029 124.437 17.8634 124.419 18.006C124.419 18.1486 124.402 18.3447 124.402 18.5765V23.8C124.402 24.5309 124.491 25.0479 124.669 25.351C124.847 25.6541 125.168 25.8145 125.632 25.8145C125.792 25.8145 125.935 25.7967 126.06 25.761C126.184 25.7254 126.273 25.6719 126.363 25.6184C126.452 25.5649 126.505 25.4758 126.577 25.3688C126.63 25.2619 126.684 25.1549 126.701 25.0658C126.737 24.9766 126.755 24.8518 126.773 24.6736C126.79 24.5131 126.79 24.3705 126.79 24.2635C126.79 24.1565 126.79 23.9961 126.79 23.8V22.6947H128.948V23.7109C128.948 24.1744 128.912 24.5844 128.858 24.9588C128.805 25.3332 128.68 25.6719 128.52 25.9928C128.359 26.3137 128.163 26.5811 127.914 26.795C127.664 27.009 127.343 27.1694 126.951 27.2942C126.612 27.4368 126.167 27.5082 125.65 27.5082Z" fill="white"/>
<path d="M131.747 27.3477V16.6689H129.679V15.011H135.99V16.6689H133.993V27.3477H131.747Z" fill="white"/>
<path d="M137.006 27.3477V15.011H139.252V20.181H139.68C140.34 20.181 140.91 20.2345 141.374 20.3593C141.837 20.4841 142.247 20.6623 142.586 20.9476C142.925 21.2328 143.174 21.5894 143.335 22.0529C143.495 22.5164 143.584 23.0869 143.584 23.7644C143.584 24.4418 143.495 25.0301 143.317 25.4936C143.139 25.9572 142.871 26.3315 142.532 26.6168C142.194 26.902 141.766 27.0803 141.302 27.2051C140.839 27.3299 140.286 27.3834 139.644 27.3834H137.006V27.3477ZM139.252 25.8145H139.644C139.983 25.8145 140.268 25.7789 140.482 25.7254C140.696 25.6719 140.892 25.565 141.053 25.4045C141.213 25.2441 141.32 25.0301 141.391 24.7627C141.463 24.4953 141.498 24.1387 141.481 23.7109C141.481 23.0156 141.338 22.5164 141.071 22.2133C140.803 21.9103 140.304 21.7498 139.609 21.7498H139.252V25.8145Z" fill="white"/>
<path d="M144.975 29.4336L144.761 28.6491C145.046 28.5778 145.296 28.4174 145.474 28.2034C145.652 27.9717 145.759 27.6864 145.759 27.3477H144.672V25.3332H146.722V27.2051C146.704 28.4709 146.134 29.2196 144.975 29.4336Z" fill="white"/>
<path d="M39.2566 46.0668V33.73H41.4672V46.0668H39.2566Z" fill="white"/>
<path d="M43.3035 46.0668V33.73H45.5498V38.8822H48.0635V33.73H50.3098V46.0668H48.0635V40.4867H45.5498V46.0668H43.3035Z" fill="white"/>
<path d="M52.1995 46.0668V33.73H54.4458V38.8822H56.9595V33.73H59.2057V46.0668H56.9595V40.4867H54.4458V46.0668H52.1995Z" fill="white"/>
<path d="M64.4293 46.2272C63.1635 46.2272 62.2543 45.8885 61.7017 45.1932C61.149 44.4979 60.8816 43.4996 60.8816 42.1625V37.6165C60.8816 36.9568 60.9529 36.3863 61.0599 35.905C61.1847 35.4236 61.3808 35.0136 61.666 34.6571C61.9334 34.3005 62.3078 34.0331 62.7713 33.8726C63.2348 33.6944 63.7875 33.6052 64.4471 33.6052C65.7129 33.6052 66.6221 33.944 67.1748 34.6214C67.7274 35.2989 68.0127 36.2972 68.0127 37.6165V42.1625C68.0127 42.8043 67.9414 43.3748 67.8166 43.8562C67.6918 44.3375 67.4957 44.7654 67.2104 45.1219C66.943 45.4785 66.5686 45.7459 66.1051 45.942C65.6238 46.1203 65.0711 46.2272 64.4293 46.2272ZM63.8588 44.4623C64.0193 44.5336 64.1975 44.5514 64.4115 44.5514C64.6254 44.5514 64.8215 44.5158 64.9641 44.4623C65.1246 44.391 65.2316 44.3197 65.3385 44.2127C65.4277 44.1057 65.499 43.9809 65.5524 43.8027C65.6059 43.6244 65.6416 43.4639 65.6594 43.3035C65.6772 43.143 65.6772 42.9291 65.6772 42.6974V37.0816C65.6772 36.7786 65.6594 36.529 65.6416 36.3329C65.6238 36.1368 65.5524 35.9407 65.4633 35.7802C65.3742 35.6019 65.2494 35.4771 65.0711 35.388C64.8928 35.2989 64.6789 35.2632 64.4115 35.2632C64.1441 35.2632 63.9301 35.2989 63.7518 35.388C63.5736 35.4771 63.4488 35.6019 63.3596 35.7802C63.2705 35.9585 63.217 36.1368 63.1814 36.3329C63.1457 36.529 63.1279 36.7786 63.1279 37.0816V42.6795C63.1279 42.9113 63.1279 43.1074 63.1457 43.2857C63.1635 43.4639 63.1992 43.6244 63.2527 43.7848C63.3062 43.9453 63.3775 44.0879 63.4666 44.1949C63.5736 44.3018 63.6984 44.391 63.8588 44.4623Z" fill="white"/>
<path d="M69.6528 46.0668V33.73H72.6657C73.2362 33.73 73.7354 33.7835 74.1632 33.8905C74.5911 33.9974 74.9655 34.1579 75.3042 34.3896C75.6429 34.6214 75.8747 34.9601 76.053 35.3702C76.2134 35.7802 76.3026 36.2972 76.3026 36.8855C76.3026 38.4009 75.6964 39.2566 74.502 39.4349C75.946 39.7023 76.6769 40.7185 76.6769 42.5012C76.6769 43.6779 76.3917 44.5693 75.8034 45.1754C75.2151 45.7815 74.3593 46.0846 73.2184 46.0846H69.6528V46.0668ZM71.8991 38.7574H72.5944C73.254 38.7574 73.7176 38.6148 73.9671 38.3296C74.2167 38.0443 74.3415 37.563 74.3415 36.9033C74.3415 36.5646 74.3059 36.2794 74.2167 36.0654C74.1276 35.8515 74.0028 35.6911 73.8067 35.5841C73.6106 35.4771 73.3967 35.4058 73.1649 35.3702C72.9331 35.3345 72.6122 35.3167 72.22 35.3167H71.8991V38.7574ZM71.8991 44.4801H72.7192C73.3967 44.4801 73.8602 44.3197 74.1098 44.0166C74.3593 43.7135 74.4841 43.1965 74.4841 42.4656C74.4841 41.7168 74.3415 41.182 74.0563 40.8433C73.771 40.5045 73.2719 40.3441 72.5944 40.3441H71.8813V44.4801H71.8991Z" fill="white"/>
<path d="M77.4614 46.0668L79.9751 33.73H82.3284L84.8243 46.0668H82.7206L82.2214 43.1965H80.0821L79.5829 46.0668H77.4614ZM80.3139 41.7346H81.9718L81.1518 36.6716L80.3139 41.7346Z" fill="white"/>
<path d="M93.0783 48.527L92.8466 46.0846H86.0542V33.7479H88.3005V44.5336H91.0994V33.7479H93.3457V44.5336H94.7719V48.5449H93.0783V48.527Z" fill="white"/>
<path d="M96.0378 46.0668V33.73H98.2485V46.0668H96.0378Z" fill="white"/>
<path d="M98.7832 32.6782V30.6993H100.655V32.6782H98.7832ZM100.067 46.0668V33.73H102.277V46.0668H100.067ZM101.707 32.6782V30.6993H103.579V32.6782H101.707Z" fill="white"/>
<path d="M109.016 46.0668V35.388H106.948V33.73H113.259V35.388H111.263V46.0668H109.016Z" fill="white"/>
<path d="M113.598 46.0668L116.112 33.73H118.465L120.961 46.0668H118.875L118.376 43.1965H116.237L115.737 46.0668H113.598ZM116.468 41.7346H118.126L117.306 36.6716L116.468 41.7346Z" fill="white"/>
<path d="M39.2566 64.358V52.0212H41.4672V64.358H39.2566Z" fill="white"/>
<path d="M43.3035 64.358V52.0212H45.5498V57.1734H48.0635V52.0212H50.3098V64.358H48.0635V58.7779H45.5498V64.358H43.3035Z" fill="white"/>
<path d="M55.6403 64.8215V62.8783L55.2481 62.8961C54.2141 62.9853 53.4118 62.7535 52.8235 62.2187C52.253 61.6839 51.9678 60.846 51.9678 59.7406V56.4425C51.9678 55.3372 52.253 54.5171 52.8235 53.9823C53.394 53.4475 54.1962 53.2157 55.2124 53.287H55.6403V51.0764H57.6548V53.287H58.0827C59.1167 53.2157 59.9189 53.4475 60.5072 53.9823C61.0777 54.5171 61.363 55.3372 61.363 56.4425V59.7406C61.363 60.846 61.0777 61.6839 60.5072 62.2187C59.9368 62.7535 59.1345 62.9853 58.1183 62.8961L57.6548 62.8783V64.8215H55.6403ZM55.4263 61.5412H55.5333H55.6403V54.6419C55.6225 54.6419 55.5868 54.6419 55.5333 54.6419C55.462 54.6419 55.4263 54.6419 55.4263 54.6419C55.1233 54.6241 54.8737 54.6419 54.6776 54.7132C54.4815 54.7667 54.3389 54.8737 54.2319 55.0341C54.1249 55.1946 54.0536 55.3729 54.018 55.6046C53.9823 55.8186 53.9645 56.1038 53.9645 56.4604V59.7941C53.9645 60.4894 54.0536 60.9708 54.2497 61.2382C54.428 61.4521 54.8202 61.5591 55.4263 61.5412ZM57.9044 61.5412C58.2253 61.5591 58.4749 61.5412 58.6532 61.4878C58.8493 61.4343 58.9919 61.3273 59.0989 61.1847C59.2058 61.0242 59.2771 60.846 59.3128 60.632C59.3484 60.4181 59.3663 60.1329 59.3663 59.7763V56.4425C59.3663 56.086 59.3484 55.8007 59.3128 55.5868C59.2771 55.3729 59.2058 55.1768 59.0989 55.0163C58.9919 54.8559 58.8493 54.7489 58.6532 54.6776C58.4571 54.6241 58.2075 54.5884 57.8866 54.6063C57.8687 54.6063 57.8331 54.6063 57.7618 54.6063C57.6905 54.6063 57.6548 54.6063 57.637 54.6063V61.5056H57.7618C57.8687 61.5234 57.9044 61.5412 57.9044 61.5412Z" fill="white"/>
<path d="M63.0032 64.358V52.0212H66.5509C68.6546 52.0212 69.7064 53.1979 69.7064 55.5333C69.7064 56.6743 69.4211 57.5122 68.8507 58.047C68.2802 58.5818 67.4601 58.8492 66.4083 58.8492H65.2495V64.358H63.0032ZM65.2495 57.2626H65.9804C66.6222 57.2626 67.0501 57.1378 67.264 56.8882C67.4779 56.6386 67.6027 56.1751 67.6027 55.5155C67.6027 55.1411 67.5849 54.838 67.5492 54.6241C67.5136 54.4102 67.4423 54.2319 67.3353 54.0536C67.2283 53.8753 67.0679 53.7684 66.854 53.697C66.64 53.6257 66.3548 53.6079 65.9804 53.6079H65.2495V57.2626Z" fill="white"/>
<path d="M70.0449 64.358L72.5586 52.0212H74.9119L77.4078 64.358H75.3219L74.8227 61.4878H72.6834L72.1842 64.358H70.0449ZM72.9152 60.0259H74.5732L73.7531 54.9628L72.9152 60.0259Z" fill="white"/>
<path d="M81.9183 64.5185C81.3835 64.5185 80.92 64.4472 80.5099 64.3224C80.0999 64.1976 79.7612 64.0015 79.4937 63.7697C79.2263 63.5379 79.0124 63.2349 78.8519 62.8783C78.6915 62.5218 78.5667 62.1474 78.4954 61.7374C78.4241 61.3273 78.3884 60.8816 78.3884 60.3646V56.0681C78.3884 55.5333 78.4241 55.052 78.4954 54.6419C78.5667 54.2319 78.6737 53.8397 78.8519 53.4831C79.0302 53.1266 79.2263 52.8413 79.4937 52.6096C79.7612 52.3778 80.0999 52.1995 80.4921 52.0747C80.9021 51.9499 81.3656 51.8786 81.9005 51.8786C82.5244 51.8786 83.0415 51.9678 83.4872 52.1282C83.915 52.2887 84.2716 52.5383 84.5212 52.8592C84.7707 53.1801 84.9668 53.5544 85.0738 53.9645C85.1808 54.3923 85.2521 54.8915 85.2521 55.4442V56.496H83.0949V55.4442C83.0949 54.8202 83.0593 54.4102 83.0058 54.1962C82.881 53.7862 82.5601 53.5544 82.0609 53.5188C82.0253 53.5188 81.9896 53.5188 81.9361 53.5188C81.74 53.5188 81.5796 53.5366 81.437 53.5901C81.2943 53.6257 81.1874 53.6971 81.0982 53.804C81.0091 53.8932 80.9378 54.0001 80.8843 54.1071C80.8308 54.2141 80.7952 54.3567 80.7595 54.535C80.7239 54.7132 80.7239 54.8737 80.706 55.0163C80.706 55.1589 80.6882 55.355 80.6882 55.5868V60.8103C80.6882 61.5412 80.7773 62.0582 80.9556 62.3613C81.1339 62.6644 81.4548 62.8248 81.9183 62.8248C82.0788 62.8248 82.2214 62.807 82.3462 62.7714C82.471 62.7357 82.5601 62.6822 82.6492 62.6287C82.7384 62.5753 82.7919 62.4861 82.8632 62.3791C82.9167 62.2722 82.9701 62.1652 82.988 62.0761C83.0236 61.9869 83.0415 61.8621 83.0593 61.6839C83.0771 61.5056 83.0771 61.3808 83.0771 61.2738C83.0771 61.1669 83.0771 61.0064 83.0771 60.8103V59.705H85.2343V60.7212C85.2343 61.1847 85.1986 61.5947 85.1451 61.9691C85.0916 62.3435 84.9668 62.6822 84.8064 63.0031C84.6459 63.324 84.4498 63.5914 84.2003 63.8054C83.9507 64.0193 83.6298 64.1797 83.2554 64.3045C82.881 64.4472 82.4353 64.5185 81.9183 64.5185Z" fill="white"/>
<path d="M88.0153 64.358V53.6792H85.9473V52.0212H92.2583V53.6792H90.2616V64.358H88.0153Z" fill="white"/>
<path d="M93.2388 64.358V52.0212H96.7865C98.8902 52.0212 99.942 53.1979 99.942 55.5333C99.942 56.6743 99.6567 57.5122 99.0863 58.047C98.5158 58.5818 97.6957 58.8492 96.6439 58.8492H95.4851V64.358H93.2388ZM95.5029 57.2626H96.2338C96.8756 57.2626 97.3035 57.1378 97.5174 56.8882C97.7314 56.6386 97.8561 56.1751 97.8561 55.5155C97.8561 55.1411 97.8383 54.838 97.8027 54.6241C97.767 54.4102 97.6957 54.2319 97.5887 54.0536C97.4818 53.8753 97.3213 53.7684 97.1074 53.697C96.8935 53.6257 96.5904 53.6079 96.2338 53.6079H95.5029V57.2626Z" fill="white"/>
<path d="M101.012 66.5152V64.9285C101.974 64.9998 102.598 64.8928 102.884 64.6254C103.169 64.3402 103.222 63.8232 103.062 63.0744L100.512 52.0212H102.616L103.632 57.1556L104.167 60.7925L104.613 57.1734L105.486 52.0391H107.626L105.29 63.2705C105.13 64.0549 104.987 64.6076 104.862 64.9463C104.738 65.285 104.542 65.6059 104.238 65.9268C103.935 66.2477 103.543 66.426 103.062 66.4973C102.58 66.5686 101.867 66.5686 101.012 66.5152Z" fill="white"/>
<path d="M108.713 64.358V52.0212H110.96V57.2091H111.405L113.402 52.0212H115.631L113.313 57.8331L115.809 64.358H113.527L111.405 58.6175H110.96V64.358H108.713Z" fill="white"/>
<path d="M118.126 64.358V53.6792H116.058V52.0212H122.369V53.6792H120.373V64.358H118.126Z" fill="white"/>
<path d="M123.225 66.5152V64.9285C124.188 64.9998 124.812 64.8928 125.097 64.6254C125.382 64.3402 125.436 63.8232 125.275 63.0744L122.726 52.0212H124.829L125.846 57.1556L126.381 60.7925L126.826 57.1734L127.7 52.0391H129.839L127.504 63.2705C127.343 64.0549 127.201 64.6076 127.076 64.9463C126.951 65.285 126.755 65.6059 126.452 65.9268C126.149 66.2477 125.757 66.426 125.275 66.4973C124.776 66.5508 124.099 66.5686 123.225 66.5152Z" fill="white"/>
<path d="M130.909 64.358V52.0212H134.456C136.56 52.0212 137.612 53.1979 137.612 55.5333C137.612 56.6743 137.327 57.5122 136.756 58.047C136.186 58.5818 135.366 58.8492 134.314 58.8492H133.155V64.358H130.909ZM133.155 57.2626H133.886C134.528 57.2626 134.956 57.1378 135.17 56.8882C135.383 56.6386 135.508 56.1751 135.508 55.5155C135.508 55.1411 135.49 54.838 135.455 54.6241C135.419 54.4102 135.348 54.2319 135.241 54.0536C135.134 53.8753 134.973 53.7684 134.759 53.697C134.546 53.6257 134.26 53.6079 133.886 53.6079H133.155V57.2626Z" fill="white"/>
<path d="M137.951 64.358L140.464 52.0212H142.818L145.314 64.358H143.228L142.729 61.4878H140.589L140.09 64.358H137.951ZM140.803 60.0259H142.461L141.641 54.9628L140.803 60.0259Z" fill="white"/>
<path d="M19.8958 48.4557C16.9542 48.4557 14.8149 47.7426 13.4956 46.3164C12.1764 44.8902 11.4989 42.7687 11.4811 39.9341V39.4705H17.5069C17.5069 40.9324 17.6673 41.9842 17.9882 42.626C18.3091 43.2678 18.9687 43.5709 19.9492 43.5709C20.9298 43.5709 21.5894 43.0896 21.9281 42.1269C22.2669 41.1642 22.4273 39.3992 22.4273 36.8142V33.427C22.0707 34.0331 21.5181 34.5144 20.7872 34.871C20.0562 35.2097 19.2005 35.4058 18.22 35.4237C18.1843 35.4237 18.1487 35.4237 18.0952 35.4237C17.1146 35.4415 16.2054 35.281 15.421 34.9601C14.6009 34.6392 13.9057 34.1757 13.3708 33.5874C12.836 32.9813 12.3903 32.2681 12.0338 31.4302C11.6772 30.5923 11.4276 29.6831 11.2672 28.7383C11.1067 27.7756 11.0354 26.7594 11.0354 25.6362C11.0354 18.1308 13.9948 14.3691 19.9136 14.3691C21.4646 14.3691 22.8195 14.6366 23.9783 15.1536C25.1371 15.6706 26.082 16.4193 26.7773 17.382C27.4725 18.3447 28.0074 19.4679 28.3461 20.7515C28.6848 22.0172 28.8631 23.4613 28.8631 25.0479V36.8855C28.8631 38.2583 28.7918 39.4884 28.6313 40.5937C28.4709 41.699 28.1856 42.7508 27.7756 43.7492C27.3656 44.7475 26.8129 45.5854 26.1533 46.2451C25.4937 46.9047 24.6201 47.4395 23.5683 47.8317C22.5164 48.2239 21.2863 48.4557 19.8958 48.4557ZM19.9671 30.6458C21.0189 30.6458 21.839 30.0932 22.4095 29.0057V23.8178C22.4095 23.1582 22.3738 22.5877 22.3025 22.0707C22.2312 21.5537 22.1242 21.0724 21.946 20.6088C21.7855 20.1453 21.5181 19.7888 21.1794 19.5213C20.8406 19.2539 20.4128 19.147 19.8958 19.147C19.4857 19.147 19.1292 19.2361 18.8261 19.4144C18.5409 19.5927 18.2913 19.8422 18.1308 20.1453C17.9525 20.4484 17.8099 20.8584 17.703 21.3398C17.596 21.8389 17.5247 22.3559 17.489 22.8908C17.4534 23.4256 17.4355 24.0674 17.4355 24.7983C17.4355 25.4045 17.4355 25.868 17.4534 26.1532C17.4534 26.4563 17.4712 26.8485 17.5069 27.3477C17.5425 27.8469 17.5782 28.2213 17.6316 28.4708C17.6851 28.7204 17.7743 29.0057 17.8991 29.3266C18.0239 29.6475 18.1665 29.8971 18.3448 30.0397C18.523 30.2001 18.7548 30.3249 19.0222 30.4319C19.2896 30.5389 19.6284 30.6458 19.9671 30.6458Z" fill="white"/>
<path d="M128.984 144.494L110.443 155.19V133.779L128.984 123.065V144.494ZM67.7098 155.19V135.401L84.8422 145.296L67.7098 155.19ZM64.893 155.19L46.3522 144.494V123.082L64.893 133.797V155.19ZM84.86 95.9665L67.7276 105.861V86.0721L84.86 95.9665ZM107.626 105.861L90.4936 95.9665L107.626 86.0721V105.861ZM90.4936 120.64L109.034 109.943L127.575 120.64L109.034 131.354L90.4936 120.64ZM86.2684 118.198L69.136 108.303L86.2684 98.4089V118.198ZM106.218 108.303L89.0852 118.198V98.4089L106.218 108.303ZM86.2684 142.871L69.136 132.977L86.2684 123.082V142.871ZM131.105 119.41L110.443 107.483V83.6476C110.443 83.1484 110.175 82.6849 109.747 82.4353L88.3899 70.0985C87.962 69.8489 87.4272 69.8489 86.9815 70.0985L65.6061 82.4174C65.1782 82.667 64.9108 83.1306 64.9108 83.6297V107.483L44.2485 119.41C43.8206 119.66 43.5532 120.123 43.5532 120.64V145.296C43.5532 145.795 43.8206 146.258 44.2485 146.508L65.6061 158.845C65.82 158.97 66.0696 159.041 66.3192 159.041C66.5688 159.041 66.8005 158.97 67.0145 158.845L87.6768 146.918L108.321 158.845C108.535 158.97 108.785 159.041 109.017 159.041C109.266 159.041 109.498 158.97 109.73 158.845L131.087 146.508C131.515 146.258 131.783 145.795 131.783 145.296V120.64C131.8 120.123 131.533 119.66 131.105 119.41Z" fill="white"/>
</g>
<defs>
<clipPath id="clip0_111_5347">
<rect width="173" height="173" fill="white"/>
</clipPath>
</defs>
</svg>
