<svg width="173" height="173" viewBox="0 0 173 173" fill="none" xmlns="http://www.w3.org/2000/svg">
<g clip-path="url(#clip0_111_4671)">
<path d="M0 0H173V173H0V0Z" fill="#FD9D24"/>
<path d="M52.2708 121.104C51.9143 120.997 51.5577 120.89 51.219 120.836C51.219 120.836 51.6112 120.961 52.2708 121.104Z" fill="white"/>
<path d="M51.4686 27.5082C50.9338 27.5082 50.4703 27.4368 50.0602 27.312C49.6502 27.1873 49.3115 26.9912 49.044 26.7594C48.7766 26.5276 48.5627 26.2246 48.4022 25.868C48.2418 25.5115 48.117 25.1371 48.0457 24.727C47.9744 24.317 47.9387 23.8713 47.9387 23.3543V19.0578C47.9387 18.523 47.9744 18.0416 48.0457 17.6316C48.117 17.2216 48.224 16.8294 48.4022 16.4728C48.5805 16.1163 48.7766 15.831 49.044 15.5993C49.3115 15.3675 49.6502 15.1892 50.0424 15.0644C50.4524 14.9396 50.9159 14.8683 51.4508 14.8683C52.0747 14.8683 52.5918 14.9575 53.0374 15.1179C53.4653 15.2784 53.8219 15.5279 54.0715 15.8488C54.321 16.1697 54.5171 16.5441 54.6241 16.9542C54.7311 17.382 54.8024 17.8812 54.8024 18.4339V19.4857H52.6452V18.4339C52.6452 17.8099 52.6096 17.3999 52.5561 17.1859C52.4313 16.7759 52.1104 16.5441 51.6112 16.5085C51.5756 16.5085 51.5399 16.5085 51.4864 16.5085C51.2903 16.5085 51.1299 16.5263 50.9873 16.5798C50.8446 16.6154 50.7377 16.6867 50.6485 16.7937C50.5594 16.8828 50.4881 16.9898 50.4346 17.0968C50.3811 17.2037 50.3455 17.3464 50.3098 17.5246C50.2741 17.7029 50.2742 17.8634 50.2563 18.006C50.2563 18.1486 50.2385 18.3447 50.2385 18.5765V23.8C50.2385 24.5309 50.3276 25.0479 50.5059 25.351C50.6842 25.6541 51.0051 25.8145 51.4686 25.8145C51.6291 25.8145 51.7717 25.7967 51.8965 25.761C52.0213 25.7254 52.1104 25.6719 52.1995 25.6184C52.2887 25.5649 52.3422 25.4758 52.4135 25.3688C52.467 25.2619 52.5204 25.1549 52.5383 25.0658C52.5739 24.9766 52.5918 24.8518 52.6096 24.6736C52.6274 24.4953 52.6274 24.3705 52.6274 24.2635C52.6274 24.1565 52.6274 23.9961 52.6274 23.8V22.6947H54.7846V23.7109C54.7846 24.1744 54.7489 24.5844 54.6954 24.9588C54.6419 25.3332 54.5171 25.6719 54.3567 25.9928C54.1962 26.3137 54.0001 26.5811 53.7506 26.795C53.501 27.009 53.1801 27.1694 52.8057 27.2942C52.4313 27.4368 51.9856 27.5082 51.4686 27.5082Z" fill="white"/>
<path d="M57.5656 27.3477V16.6689H55.4976V15.0109H61.8086V16.6689H59.8119V27.3477H57.5656Z" fill="white"/>
<path d="M62.1653 27.3477L64.679 15.0109H67.0322L69.5281 27.3477H67.4423L66.9431 24.4774H64.8038L64.3046 27.3477H62.1653ZM65.0177 23.0156H66.6757L65.8556 17.9525L65.0177 23.0156Z" fill="white"/>
<path d="M69.8311 27.3477V25.7254C70.0806 25.7254 70.2768 25.7254 70.4194 25.7075C70.562 25.6897 70.7224 25.6362 70.8651 25.5293C71.0077 25.4223 71.1325 25.2797 71.2038 25.1014C71.2751 24.9231 71.3642 24.6557 71.4534 24.317C71.5425 23.9783 71.596 23.5682 71.6495 23.1047C71.703 22.6412 71.7565 22.035 71.7921 21.3219L72.2021 15.0109H78.2279V27.3477H75.9816V16.6867H74.181L73.9136 21.5537C73.8779 22.0529 73.8601 22.4986 73.8245 22.8551C73.7888 23.2117 73.7532 23.586 73.6997 23.9783C73.6462 24.3705 73.5927 24.6914 73.5214 24.9588C73.4501 25.2262 73.3609 25.4758 73.254 25.761C73.147 26.0284 73.0222 26.2424 72.8796 26.4207C72.737 26.5811 72.5765 26.7416 72.3804 26.8842C72.1843 27.0268 71.9704 27.1338 71.7208 27.2051C71.4712 27.2764 71.186 27.3299 70.8829 27.3477C70.5798 27.3655 70.2054 27.3833 69.8311 27.3477Z" fill="white"/>
<path d="M80.1177 27.3477V15.0109H81.9896V22.7303L85.3412 15.0109H86.8744V27.3477H84.9846V19.4857L81.633 27.3477H80.1177Z" fill="white"/>
<path d="M88.7642 27.3477V15.0109H90.6361V22.7303L93.9877 15.0109H95.5209V27.3477H93.6311V19.4857L90.2795 27.3477H88.7642ZM92.1336 13.9591C91.3848 13.9591 90.8322 13.763 90.4934 13.3708C90.1547 12.9786 89.9586 12.4616 89.9586 11.8019H91.0104C91.0104 12.212 91.0996 12.4972 91.2779 12.6933C91.4561 12.8716 91.7414 12.9607 92.1336 12.9607C92.5258 12.9607 92.811 12.8716 92.9893 12.6933C93.1676 12.515 93.2746 12.212 93.2746 11.8019H94.3264C94.3264 12.4616 94.1481 12.9964 93.7916 13.3708C93.435 13.7452 92.8824 13.9591 92.1336 13.9591Z" fill="white"/>
<path d="M101.101 27.3477V15.0109H104.649C106.752 15.0109 107.804 16.1876 107.804 18.523C107.804 19.664 107.519 20.5019 106.948 21.0367C106.378 21.5715 105.558 21.8389 104.506 21.8389H103.347V27.3477H101.101ZM103.347 20.2523H104.078C104.72 20.2523 105.148 20.1275 105.362 19.8779C105.576 19.6283 105.7 19.1648 105.7 18.5052C105.7 18.1308 105.683 17.8277 105.647 17.6138C105.611 17.3998 105.54 17.2216 105.433 17.0433C105.326 16.865 105.166 16.758 104.952 16.6867C104.738 16.6154 104.435 16.5976 104.078 16.5976H103.347V20.2523Z" fill="white"/>
<path d="M112.35 27.5082C111.084 27.5082 110.175 27.1694 109.623 26.4741C109.07 25.7789 108.802 24.7805 108.802 23.4434V18.8974C108.802 18.2377 108.874 17.6673 108.981 17.1859C109.106 16.7046 109.302 16.2945 109.587 15.938C109.872 15.5814 110.229 15.314 110.692 15.1536C111.156 14.9753 111.708 14.8861 112.35 14.8861C113.616 14.8861 114.525 15.2249 115.078 15.9023C115.631 16.5798 115.916 17.5781 115.916 18.8974V23.4434C115.916 24.0852 115.844 24.6557 115.72 25.1371C115.595 25.6184 115.399 26.0463 115.113 26.4028C114.828 26.7594 114.472 27.0268 114.008 27.2229C113.545 27.4012 112.992 27.5082 112.35 27.5082ZM111.78 25.7432C111.94 25.8145 112.118 25.8323 112.332 25.8323C112.546 25.8323 112.742 25.7967 112.885 25.7432C113.028 25.6897 113.17 25.6006 113.259 25.4936C113.349 25.3867 113.42 25.2619 113.473 25.0836C113.527 24.9053 113.562 24.7449 113.58 24.5844C113.598 24.424 113.598 24.21 113.598 23.9783V18.3625C113.598 18.0595 113.58 17.8099 113.562 17.6138C113.545 17.4177 113.473 17.2216 113.384 17.0611C113.295 16.8828 113.17 16.758 112.992 16.6689C112.814 16.5798 112.6 16.5441 112.332 16.5441C112.065 16.5441 111.851 16.5798 111.673 16.6689C111.494 16.758 111.37 16.8828 111.281 17.0611C111.191 17.2394 111.138 17.4177 111.102 17.6138C111.067 17.8099 111.049 18.0595 111.049 18.3625V23.9604C111.049 24.1922 111.049 24.3883 111.067 24.5666C111.084 24.7449 111.12 24.9053 111.174 25.0658C111.227 25.2262 111.298 25.3688 111.388 25.4758C111.477 25.5828 111.619 25.6719 111.78 25.7432Z" fill="white"/>
<path d="M120.462 27.526C119.356 27.526 118.554 27.2229 118.019 26.6168C117.502 26.0106 117.235 25.1549 117.235 24.0318V23.5861H119.356V24.0496C119.374 24.6379 119.463 25.0658 119.624 25.3332C119.784 25.6006 120.07 25.7432 120.48 25.7432C120.676 25.7432 120.836 25.7076 120.961 25.6541C121.104 25.5828 121.211 25.5115 121.282 25.4045C121.353 25.2975 121.424 25.1549 121.46 24.9945C121.496 24.8162 121.531 24.6379 121.549 24.4774C121.567 24.2992 121.567 24.0852 121.567 23.8178C121.567 23.1582 121.442 22.659 121.175 22.3025C120.925 21.9637 120.462 21.7676 119.802 21.7142C119.749 21.7142 119.57 21.7142 119.267 21.7142V20.181H119.749C120.426 20.1453 120.89 19.9849 121.157 19.664C121.424 19.3431 121.549 18.8617 121.549 18.2199C121.549 17.6851 121.46 17.2751 121.264 16.9898C121.068 16.7046 120.765 16.5619 120.337 16.5619C119.57 16.5619 119.142 17.1146 119.107 18.2199V18.7548H116.985V18.1843C116.985 17.1503 117.288 16.3302 117.877 15.7419C118.465 15.1536 119.285 14.8683 120.319 14.8683C121.371 14.8683 122.191 15.1536 122.779 15.724C123.368 16.2945 123.671 17.0968 123.671 18.1486C123.671 18.8439 123.528 19.4322 123.225 19.9136C122.922 20.3949 122.53 20.698 122.031 20.8406C123.136 21.215 123.689 22.1955 123.689 23.7822C123.689 24.9588 123.439 25.868 122.922 26.5276C122.387 27.1873 121.567 27.526 120.462 27.526Z" fill="white"/>
<path d="M125.222 27.3477V15.0109H128.252C128.823 15.0109 129.322 15.0644 129.75 15.1714C130.178 15.2783 130.552 15.4388 130.891 15.6705C131.23 15.9023 131.461 16.241 131.64 16.6511C131.8 17.0611 131.889 17.5781 131.871 18.1664C131.871 19.6818 131.265 20.5375 130.071 20.7158C131.515 20.9832 132.246 21.9994 132.246 23.7822C132.246 24.9588 131.961 25.8502 131.372 26.4563C130.784 27.0625 129.928 27.3655 128.787 27.3655H125.222V27.3477ZM127.468 20.0383H128.163C128.823 20.0383 129.286 19.8957 129.536 19.6105C129.786 19.3252 129.91 18.8439 129.91 18.1843C129.91 17.8455 129.875 17.5603 129.786 17.3464C129.696 17.1324 129.572 16.972 129.376 16.865C129.179 16.758 128.965 16.6867 128.734 16.6511C128.484 16.5976 128.181 16.5798 127.789 16.5798H127.468V20.0383ZM127.468 25.761H128.288C128.965 25.761 129.429 25.6006 129.679 25.2975C129.928 24.9944 130.053 24.4774 130.053 23.7465C130.053 22.9977 129.91 22.4629 129.625 22.1242C129.34 21.7855 128.841 21.625 128.163 21.625H127.45V25.761H127.468Z" fill="white"/>
<path d="M133.69 27.3477V15.0109H135.562V22.7303L138.913 15.0109H140.447V27.3477H138.557V19.4857L135.205 27.3477H133.69Z" fill="white"/>
<path d="M143.513 27.3477V16.6689H141.445V15.0109H147.756V16.6689H145.759V27.3477H143.513Z" fill="white"/>
<path d="M152.106 27.5082C150.84 27.5082 149.931 27.1694 149.378 26.4741C148.826 25.7789 148.558 24.7805 148.558 23.4434V18.8974C148.558 18.2377 148.63 17.6673 148.737 17.1859C148.861 16.7046 149.058 16.2945 149.343 15.938C149.628 15.5814 149.985 15.314 150.448 15.1536C150.912 14.9753 151.464 14.8861 152.106 14.8861C153.372 14.8861 154.281 15.2249 154.834 15.9023C155.386 16.5798 155.672 17.5781 155.672 18.8974V23.4434C155.672 24.0852 155.6 24.6557 155.475 25.1371C155.351 25.6184 155.155 26.0463 154.869 26.4028C154.584 26.7594 154.228 27.0268 153.764 27.2229C153.301 27.4012 152.748 27.5082 152.106 27.5082ZM151.536 25.7432C151.696 25.8145 151.874 25.8323 152.088 25.8323C152.302 25.8323 152.498 25.7967 152.641 25.7432C152.784 25.6897 152.926 25.6006 153.015 25.4936C153.104 25.3867 153.176 25.2619 153.229 25.0836C153.283 24.9053 153.318 24.7449 153.336 24.5844C153.354 24.424 153.354 24.21 153.354 23.9783V18.3625C153.354 18.0595 153.336 17.8099 153.318 17.6138C153.301 17.4177 153.229 17.2216 153.14 17.0611C153.051 16.8828 152.926 16.758 152.748 16.6689C152.57 16.5798 152.356 16.5441 152.088 16.5441C151.821 16.5441 151.607 16.5798 151.429 16.6689C151.25 16.758 151.126 16.8828 151.036 17.0611C150.947 17.2394 150.894 17.4177 150.858 17.6138C150.822 17.8099 150.805 18.0595 150.805 18.3625V23.9604C150.805 24.1922 150.805 24.3883 150.822 24.5666C150.84 24.7449 150.876 24.9053 150.929 25.0658C150.983 25.2262 151.054 25.3688 151.143 25.4758C151.232 25.5828 151.393 25.6719 151.536 25.7432Z" fill="white"/>
<path d="M157.33 27.3477V15.0109H159.576V20.1988H160.022L162.018 15.0109H164.247L161.929 20.8228L164.425 27.3477H162.143L160.022 21.6072H159.576V27.3477H157.33Z" fill="white"/>
<path d="M48.1348 47.8495L48.3309 35.5128H50.5415L52.4312 43.8205L54.3745 35.5128H56.5316L56.7455 47.8495H55.0697L54.9449 39.8449L53.0552 47.8495H51.8786L49.9532 39.8271L49.8462 47.8495H48.1348Z" fill="white"/>
<path d="M58.564 47.8495V35.5128H60.7746V47.8495H58.564Z" fill="white"/>
<path d="M65.8912 48.01C65.3564 48.01 64.8929 47.9387 64.4828 47.8139C64.0728 47.6891 63.7341 47.493 63.4666 47.2612C63.1992 47.0295 62.9853 46.7264 62.8249 46.3698C62.6644 46.0133 62.5396 45.6389 62.4683 45.2289C62.397 44.8188 62.3613 44.3731 62.3613 43.8561V39.5597C62.3613 39.0248 62.397 38.5435 62.4683 38.1334C62.5396 37.7234 62.6466 37.3312 62.8249 36.9746C63.0031 36.6181 63.1992 36.3328 63.4666 36.1011C63.7341 35.8693 64.0728 35.691 64.465 35.5663C64.875 35.4415 65.3386 35.3701 65.8734 35.3701C66.4974 35.3701 67.0144 35.4593 67.4601 35.6197C67.8879 35.7802 68.2445 36.0298 68.4941 36.3507C68.7436 36.6716 68.9397 37.046 69.0467 37.456C69.1537 37.8839 69.225 38.383 69.225 38.9357V39.9875H67.0678V38.9357C67.0678 38.3117 67.0322 37.9017 66.9787 37.6877C66.8539 37.2777 66.533 37.046 66.0338 37.0103C65.9982 37.0103 65.9625 37.0103 65.909 37.0103C65.7129 37.0103 65.5525 37.0281 65.4099 37.0816C65.2672 37.1173 65.1603 37.1886 65.0711 37.2955C64.982 37.3847 64.9107 37.4916 64.8572 37.5986C64.8037 37.7056 64.7681 37.8482 64.7324 38.0265C64.6968 38.2048 64.6968 38.3652 64.6789 38.5078C64.6789 38.6504 64.6611 38.8465 64.6611 39.0783V44.3018C64.6611 45.0328 64.7502 45.5498 64.9285 45.8528C65.1068 46.1559 65.4277 46.3164 65.8912 46.3164C66.0517 46.3164 66.1943 46.2985 66.3191 46.2629C66.4439 46.2272 66.533 46.1737 66.6221 46.1203C66.7113 46.0668 66.7648 45.9776 66.8361 45.8707C66.8896 45.7637 66.943 45.6567 66.9609 45.5676C66.9965 45.4785 67.0144 45.3537 67.0322 45.1754C67.05 44.9971 67.05 44.8723 67.05 44.7653C67.05 44.6584 67.05 44.4979 67.05 44.3018V43.1965H69.2072V44.2127C69.2072 44.6762 69.1715 45.0862 69.118 45.4606C69.0645 45.835 68.9398 46.1737 68.7793 46.4946C68.6189 46.8155 68.4227 47.0829 68.1732 47.2969C67.9236 47.5108 67.6027 47.6713 67.2283 47.7961C66.8539 47.9387 66.4082 48.01 65.8912 48.01Z" fill="white"/>
<path d="M71.9882 47.8495V37.1707H69.9202V35.5128H76.2312V37.1707H74.2345V47.8495H71.9882Z" fill="white"/>
<path d="M80.9556 47.8495V35.5128H83.1662V47.8495H80.9556Z" fill="white"/>
<path d="M88.7285 47.8495V35.5128H93.8985V37.1707H90.9748V47.8495H88.7285Z" fill="white"/>
<path d="M95.1287 47.8495V35.5128H98.6764C100.78 35.5128 101.832 36.6894 101.832 39.0248C101.832 40.1658 101.547 41.0037 100.976 41.5385C100.406 42.0733 99.5856 42.3408 98.5338 42.3408H97.3749V47.8495H95.1287ZM97.3749 40.7541H98.1059C98.7477 40.7541 99.1755 40.6293 99.3895 40.3797C99.6034 40.1301 99.7282 39.6666 99.7282 39.007C99.7282 38.6326 99.7104 38.3295 99.6747 38.1156C99.6391 37.9017 99.5678 37.7234 99.4608 37.5451C99.3538 37.3668 99.1934 37.2599 98.9794 37.1886C98.7655 37.1173 98.4803 37.0994 98.1059 37.0994H97.3749V40.7541Z" fill="white"/>
<path d="M106.36 48.01C105.094 48.01 104.185 47.6713 103.632 46.976C103.08 46.2807 102.812 45.2823 102.812 43.9453V39.3992C102.812 38.7396 102.884 38.1691 102.991 37.6877C103.115 37.2064 103.311 36.7964 103.597 36.4398C103.882 36.0833 104.238 35.8158 104.702 35.6554C105.166 35.4771 105.718 35.388 106.36 35.388C107.626 35.388 108.535 35.7267 109.088 36.4041C109.64 37.0816 109.926 38.08 109.926 39.3992V43.9453C109.926 44.5871 109.854 45.1575 109.729 45.6389C109.605 46.1202 109.409 46.5481 109.123 46.9047C108.838 47.2612 108.481 47.5286 108.018 47.7247C107.554 47.903 107.002 48.01 106.36 48.01ZM105.789 46.245C105.95 46.3163 106.128 46.3342 106.342 46.3342C106.556 46.3342 106.752 46.2985 106.895 46.245C107.037 46.1916 107.18 46.1024 107.269 45.9954C107.358 45.8885 107.43 45.7637 107.483 45.5854C107.537 45.4071 107.572 45.2467 107.59 45.0862C107.608 44.9258 107.608 44.7119 107.608 44.4801V38.8644C107.608 38.5613 107.59 38.3117 107.572 38.1156C107.554 37.9195 107.483 37.7234 107.394 37.5629C107.305 37.3847 107.18 37.2599 107.002 37.1707C106.823 37.0816 106.61 37.0459 106.342 37.0459C106.075 37.0459 105.861 37.0816 105.683 37.1707C105.504 37.2599 105.379 37.3847 105.29 37.5629C105.201 37.7412 105.148 37.9195 105.112 38.1156C105.076 38.3117 105.059 38.5613 105.059 38.8644V44.4623C105.059 44.694 105.059 44.8901 105.076 45.0684C105.094 45.2467 105.13 45.4071 105.183 45.5676C105.237 45.728 105.308 45.8707 105.397 45.9776C105.486 46.0846 105.647 46.1737 105.789 46.245Z" fill="white"/>
<path d="M111.548 47.8495L111.744 35.5128H113.955L115.844 43.8205L117.788 35.5128H119.945L120.159 47.8495H118.483L118.358 39.8449L116.468 47.8495H115.292L113.366 39.8271L113.259 47.8495H111.548Z" fill="white"/>
<path d="M121.317 47.8495L123.831 35.5128H126.184L128.68 47.8495H126.577L126.077 44.9793H123.938L123.439 47.8495H121.317ZM124.188 43.5174H125.846L125.026 38.4543L124.188 43.5174Z" fill="white"/>
<path d="M129.179 50.3098V46.2629H129.679C129.946 46.1024 130.178 45.8885 130.374 45.6211C130.57 45.3537 130.766 44.9615 130.962 44.4623C131.158 43.9631 131.301 43.2857 131.444 42.4478C131.568 41.6099 131.657 40.5937 131.729 39.3992L131.961 35.5306H137.469V46.2629H138.771V50.3098H137.166L137.024 47.8674H130.98L130.837 50.3098H129.179ZM131.747 46.2451H135.294V37.1351H133.743L133.636 39.7558C133.601 40.4332 133.565 41.0572 133.512 41.6277C133.458 42.1803 133.387 42.6617 133.333 43.0539C133.262 43.4461 133.191 43.8027 133.084 44.1236C132.977 44.4623 132.888 44.7119 132.798 44.8902C132.709 45.0684 132.602 45.2645 132.46 45.4606C132.317 45.6567 132.192 45.7994 132.121 45.8707C132.05 45.942 131.907 46.1024 131.747 46.2451Z" fill="white"/>
<path d="M14.4226 48.01V21.4646L9.48438 23.1582V18.4338C10.6075 17.9881 11.802 17.4177 13.1034 16.758C14.3692 16.0984 15.2962 15.4388 15.8667 14.8148H20.7693V48.01H14.4226Z" fill="white"/>
<path d="M33.8548 48.01V21.4646L28.9165 23.1582V18.4338C30.0396 17.9881 31.2341 17.4177 32.5355 16.758C33.8191 16.0984 34.7462 15.4388 35.3166 14.8148H40.2193V48.01H33.8548Z" fill="white"/>
<path d="M28.2746 129.197H28.542H54.41C54.7666 129.197 55.0518 128.912 55.0518 128.556C55.0518 128.395 54.9805 128.253 54.8914 128.128L54.8557 128.092L41.8593 111.263L41.7345 111.12C41.6097 110.995 41.4493 110.906 41.2532 110.906C41.0927 110.906 40.9501 110.978 40.8253 111.067L40.754 111.156L40.6292 111.298L27.9359 127.949L27.7398 128.181C27.6685 128.288 27.6328 128.413 27.6328 128.538C27.6328 128.912 27.9181 129.197 28.2746 129.197Z" fill="white"/>
<path d="M54.3387 131.568H28.132C27.7755 131.568 27.4902 131.854 27.4902 132.21V152.712C27.4902 153.069 27.7755 153.354 28.132 153.354H36.5645V140.464C36.5645 140.108 36.8498 139.823 37.2063 139.823H45.0327C45.3892 139.823 45.6745 140.108 45.6745 140.464V153.354H54.3209C54.6775 153.354 54.9627 153.069 54.9627 152.712V132.21C54.9805 131.871 54.6775 131.568 54.3387 131.568Z" fill="white"/>
<path d="M142.515 134.599C142.515 134.938 142.229 135.223 141.873 135.223H134.136C133.779 135.223 133.494 134.956 133.494 134.599V129.893C133.494 129.554 133.779 129.269 134.136 129.269H141.873C142.229 129.269 142.515 129.536 142.515 129.893V134.599ZM142.515 143.299C142.515 143.638 142.229 143.923 141.873 143.923H134.136C133.779 143.923 133.494 143.656 133.494 143.299V138.593C133.494 138.254 133.779 137.969 134.136 137.969H141.873C142.229 137.969 142.515 138.236 142.515 138.593V143.299ZM130.677 134.599C130.677 134.938 130.392 135.223 130.053 135.223H122.298C121.942 135.223 121.656 134.956 121.656 134.599V129.893C121.656 129.554 121.942 129.269 122.298 129.269H130.035C130.392 129.269 130.659 129.536 130.659 129.893V134.599H130.677ZM130.677 143.299C130.677 143.638 130.392 143.923 130.053 143.923H122.298C121.942 143.923 121.656 143.656 121.656 143.299V138.593C121.656 138.254 121.942 137.969 122.298 137.969H130.035C130.392 137.969 130.659 138.236 130.659 138.593V143.299H130.677ZM144.868 126.202H118.929C118.572 126.202 118.305 126.47 118.305 126.826V152.997C118.305 153.336 118.59 153.621 118.929 153.621H144.85C145.207 153.621 145.492 153.354 145.492 152.997V126.826C145.492 126.488 145.207 126.202 144.868 126.202Z" fill="white"/>
<path d="M80.9021 84.0577C80.9021 84.236 80.7594 84.3964 80.5633 84.3964H74.7515C74.5732 84.3964 74.4128 84.2538 74.4128 84.0577V77.5862C74.4128 77.4079 74.5554 77.2475 74.7515 77.2475H80.5633C80.7416 77.2475 80.9021 77.3901 80.9021 77.5862V84.0577ZM80.9021 98.9081C80.9021 99.0864 80.7594 99.2469 80.5633 99.2469H74.7515C74.5732 99.2469 74.4128 99.1043 74.4128 98.9081V92.4367C74.4128 92.2584 74.5554 92.1158 74.7515 92.1158H80.5633C80.7416 92.1158 80.9021 92.2584 80.9021 92.4367V98.9081ZM80.9021 113.776C80.9021 113.955 80.7594 114.115 80.5633 114.115H74.7515C74.5732 114.115 74.4128 113.973 74.4128 113.776V107.305C74.4128 107.127 74.5554 106.966 74.7515 106.966H80.5633C80.7416 106.966 80.9021 107.109 80.9021 107.305V113.776ZM80.9021 128.645C80.9021 128.823 80.7594 128.983 80.5633 128.983H74.7515C74.5732 128.983 74.4128 128.841 74.4128 128.645V122.173C74.4128 121.977 74.5554 121.835 74.7515 121.835H80.5633C80.7416 121.835 80.9021 121.977 80.9021 122.173V128.645ZM80.9021 143.513C80.9021 143.691 80.7594 143.852 80.5633 143.852H74.7515C74.5732 143.852 74.4128 143.709 74.4128 143.513V137.042C74.4128 136.863 74.5554 136.703 74.7515 136.703H80.5633C80.7416 136.703 80.9021 136.845 80.9021 137.042V143.513ZM69.5102 84.0577C69.5102 84.236 69.3675 84.3964 69.1714 84.3964H63.3596C63.1813 84.3964 63.0209 84.2538 63.0209 84.0577V77.5862C63.0209 77.4079 63.1635 77.2475 63.3596 77.2475H69.1714C69.3497 77.2475 69.5102 77.3901 69.5102 77.5862V84.0577ZM69.5102 98.9081C69.5102 99.0864 69.3675 99.2469 69.1714 99.2469H63.3596C63.1813 99.2469 63.0209 99.1043 63.0209 98.9081V92.4367C63.0209 92.2584 63.1635 92.1158 63.3596 92.1158H69.1714C69.3497 92.1158 69.5102 92.2584 69.5102 92.4367V98.9081ZM69.5102 113.776C69.5102 113.955 69.3675 114.115 69.1714 114.115H63.3596C63.1813 114.115 63.0209 113.973 63.0209 113.776V107.305C63.0209 107.127 63.1635 106.966 63.3596 106.966H69.1714C69.3497 106.966 69.5102 107.109 69.5102 107.305V113.776ZM69.5102 128.645C69.5102 128.823 69.3675 128.983 69.1714 128.983H63.3596C63.1813 128.983 63.0209 128.841 63.0209 128.645V122.173C63.0209 121.977 63.1635 121.835 63.3596 121.835H69.1714C69.3497 121.835 69.5102 121.977 69.5102 122.173V128.645ZM69.5102 143.513C69.5102 143.691 69.3675 143.852 69.1714 143.852H63.3596C63.1813 143.852 63.0209 143.709 63.0209 143.513V137.042C63.0209 136.863 63.1635 136.703 63.3596 136.703H69.1714C69.3497 136.703 69.5102 136.845 69.5102 137.042V143.513ZM84.5924 65.4456H59.2236C58.8849 65.4456 58.5996 65.7308 58.5996 66.0695V152.766C58.5996 153.104 58.8849 153.39 59.2236 153.39H84.5924C84.9311 153.39 85.2164 153.104 85.2164 152.766V66.0695C85.2164 65.713 84.9311 65.4456 84.5924 65.4456Z" fill="white"/>
<path d="M145.456 123.582C145.456 123.867 145.225 124.099 144.939 124.099H118.857C118.572 124.099 118.34 123.867 118.34 123.582V118.358C118.34 118.073 118.572 117.841 118.857 117.841H144.939C145.225 117.841 145.456 118.073 145.456 118.358V123.582Z" fill="white"/>
<path d="M112.35 108.303C112.35 108.642 112.065 108.927 111.726 108.927H104.167C103.829 108.927 103.543 108.66 103.543 108.303V103.579C103.543 103.222 103.829 102.955 104.167 102.955H111.726C112.065 102.955 112.35 103.222 112.35 103.579V108.303ZM112.35 117.057C112.35 117.395 112.065 117.681 111.726 117.681H104.167C103.829 117.681 103.543 117.395 103.543 117.057V112.315C103.543 111.976 103.829 111.691 104.167 111.691H111.726C112.065 111.691 112.35 111.958 112.35 112.315V117.057ZM112.35 125.81C112.35 126.149 112.065 126.434 111.726 126.434H104.167C103.829 126.434 103.543 126.149 103.543 125.81V121.068C103.543 120.729 103.829 120.444 104.167 120.444H111.726C112.065 120.444 112.35 120.711 112.35 121.068V125.81ZM112.35 134.546C112.35 134.884 112.065 135.17 111.726 135.17H104.167C103.829 135.17 103.543 134.902 103.543 134.546V129.821C103.543 129.483 103.829 129.197 104.167 129.197H111.726C112.065 129.197 112.35 129.465 112.35 129.821V134.546ZM112.35 143.299C112.35 143.638 112.065 143.923 111.726 143.923H104.167C103.829 143.923 103.543 143.656 103.543 143.299V138.575C103.543 138.236 103.829 137.951 104.167 137.951H111.726C112.065 137.951 112.35 138.218 112.35 138.575V143.299ZM100.816 106.645V106.877V117.075C100.816 117.413 100.53 117.699 100.192 117.699H92.6328C92.2941 117.699 92.0088 117.413 92.0088 117.075V115.809V115.755C92.0088 115.666 92.0266 115.595 92.0623 115.524C92.0801 115.506 92.0801 115.488 92.098 115.452C92.1158 115.417 92.1336 115.399 92.1514 115.363C92.1693 115.327 92.2049 115.292 92.2228 115.256C93.1854 113.866 97.5532 108.499 99.3895 106.253L99.5678 106.039C99.7104 105.879 99.9065 105.772 100.12 105.772C100.477 105.772 100.744 106.021 100.816 106.36V106.645ZM100.798 125.81C100.798 126.149 100.53 126.434 100.174 126.434H92.615C92.2762 126.434 91.991 126.149 91.991 125.81V121.068C91.991 120.729 92.2584 120.444 92.615 120.444H100.174C100.513 120.444 100.798 120.711 100.798 121.068V125.81ZM100.798 134.546C100.798 134.884 100.53 135.17 100.174 135.17H92.615C92.2762 135.17 91.991 134.902 91.991 134.546V129.821C91.991 129.483 92.2584 129.197 92.615 129.197H100.174C100.513 129.197 100.798 129.465 100.798 129.821V134.546ZM100.798 143.299C100.798 143.638 100.53 143.923 100.174 143.923H92.615C92.2762 143.923 91.991 143.656 91.991 143.299V138.575C91.991 138.236 92.2584 137.951 92.615 137.951H100.174C100.513 137.951 100.798 138.218 100.798 138.575V143.299ZM104.738 98.9973L104.916 98.7655C106.628 96.5727 109.498 93.0428 110.906 91.3135L111.084 91.0996C111.227 90.9391 111.423 90.8322 111.637 90.8322C111.994 90.8322 112.261 91.0818 112.332 91.4205V91.7057V91.9375V99.4251C112.332 99.8173 112.029 100.12 111.637 100.138C111.619 100.138 111.619 100.138 111.601 100.138C111.584 100.138 111.584 100.138 111.566 100.138H105.647H105.362C105.344 100.138 105.344 100.138 105.326 100.138C105.308 100.138 105.308 100.138 105.29 100.138C104.916 100.12 104.595 99.8173 104.595 99.4251C104.595 99.2647 104.649 99.1221 104.738 98.9973ZM115.238 81.8114C115.149 81.5261 114.9 81.33 114.597 81.33C114.454 81.33 114.347 81.3835 114.24 81.4548C114.222 81.4726 114.204 81.4726 114.186 81.4905L113.973 81.7579L89.0494 113.384L88.9246 113.545C88.7998 113.669 88.7107 113.848 88.7107 114.044V114.08V152.908C88.7107 153.247 88.9959 153.532 89.3347 153.532H114.686C115.024 153.532 115.31 153.265 115.31 152.908V82.0788C115.31 81.9896 115.274 81.9005 115.238 81.8114Z" fill="white"/>
</g>
<defs>
<clipPath id="clip0_111_4671">
<rect width="173" height="173" fill="white"/>
</clipPath>
</defs>
</svg>
