<svg width="173" height="173" viewBox="0 0 173 173" fill="none" xmlns="http://www.w3.org/2000/svg">
<g clip-path="url(#clip0_111_5343)">
<path d="M0 0H173V173H0V0Z" fill="#241F20"/>
<path d="M52.2708 121.104C51.9143 120.997 51.5577 120.89 51.219 120.836C51.219 120.836 51.6112 120.961 52.2708 121.104Z" fill="white"/>
<path d="M53.501 27.3477V15.0109H60.6321V27.3477H58.4036V16.6154H55.7294V27.3477H53.501Z" fill="white"/>
<path d="M65.8378 27.5082C64.572 27.5082 63.6628 27.1694 63.1101 26.4741C62.5575 25.7789 62.29 24.7805 62.29 23.4434V18.8974C62.29 18.2377 62.3614 17.6673 62.4683 17.1859C62.5931 16.7046 62.7892 16.2945 63.0745 15.938C63.3419 15.5814 63.7163 15.314 64.1798 15.1536C64.6433 14.9753 65.196 14.8861 65.8556 14.8861C67.1213 14.8861 68.0306 15.2249 68.5832 15.9023C69.1359 16.5798 69.4211 17.5781 69.4211 18.8974V23.4434C69.4211 24.0852 69.3498 24.6557 69.225 25.1371C69.1002 25.6184 68.9041 26.0463 68.6189 26.4028C68.3515 26.7594 67.9771 27.0268 67.5136 27.2229C67.0322 27.4012 66.4796 27.5082 65.8378 27.5082ZM65.2673 25.7432C65.4277 25.8145 65.606 25.8323 65.8199 25.8323C66.0339 25.8323 66.23 25.7967 66.3726 25.7432C66.533 25.6719 66.64 25.6006 66.747 25.4936C66.8361 25.3867 66.9074 25.2619 66.9609 25.0836C67.0144 24.9053 67.05 24.7449 67.0679 24.5844C67.0857 24.424 67.0857 24.21 67.0857 23.9783V18.3625C67.0857 18.0595 67.0679 17.8099 67.05 17.6138C67.0322 17.4177 66.9609 17.2216 66.8718 17.0611C66.7826 16.8828 66.6578 16.758 66.4796 16.6689C66.3013 16.5798 66.0873 16.5441 65.8199 16.5441C65.5525 16.5441 65.3386 16.5798 65.1603 16.6689C64.982 16.758 64.8572 16.8828 64.7681 17.0611C64.679 17.2394 64.6255 17.4177 64.5898 17.6138C64.5542 17.8099 64.5363 18.0595 64.5363 18.3625V23.9604C64.5363 24.1922 64.5363 24.3883 64.5542 24.5666C64.572 24.7449 64.6076 24.9053 64.6611 25.0658C64.7146 25.2262 64.7859 25.3688 64.8751 25.4758C64.9999 25.5828 65.1246 25.6719 65.2673 25.7432Z" fill="white"/>
<path d="M71.0256 27.3477L71.2217 15.0109H73.4324L75.3221 23.3186L77.2653 15.0109H79.4225L79.6364 27.3477H77.9606L77.8358 19.3431L75.9461 27.3477H74.7694L72.8441 19.3252L72.7371 27.3477H71.0256Z" fill="white"/>
<path d="M81.7579 19.2539L81.5083 18.5408C81.847 18.5408 82.0788 18.416 82.2036 18.1664C82.3284 17.9168 82.3997 17.5068 82.3997 16.972H81.4548V15.0109H83.4872C83.4872 15.8667 83.4872 16.4015 83.4694 16.6154C83.4515 17.5068 83.3267 18.1664 83.0593 18.6121C82.8097 19.04 82.3641 19.2539 81.7579 19.2539Z" fill="white"/>
<path d="M84.0576 27.3477L86.5535 21.8389C86.0365 21.5715 85.6264 21.1437 85.3056 20.591C85.0025 20.0383 84.842 19.3431 84.842 18.5586C84.842 17.3642 85.1629 16.4728 85.8226 15.8845C86.4822 15.314 87.5162 15.0109 88.9067 15.0109H91.6879V27.3477H89.4416V22.3559H88.782H88.5145L86.5357 27.3477H84.0576ZM89.0315 20.7693H89.4416V16.5798H88.9959C88.3006 16.5798 87.8014 16.7402 87.4627 17.0611C87.124 17.382 86.9635 17.8812 86.9635 18.5408C86.9635 19.2896 87.124 19.8422 87.4449 20.1988C87.7479 20.5732 88.2828 20.7693 89.0315 20.7693Z" fill="white"/>
<path d="M93.5955 27.3477V15.0109H95.8417V20.1988H96.2696L98.2663 15.0109H100.495L98.1772 20.8228L100.673 27.3477H98.4089L96.2874 21.6072H95.8417V27.3477H93.5955Z" fill="white"/>
<path d="M101.832 27.3477V15.0109H104.007V25.7432H105.843V15.0109H108.018V25.7432H109.765V15.0109H111.94V27.3477H101.832Z" fill="white"/>
<path d="M113.812 27.3477V15.0109H118.982V16.5976H116.058V20.1453H118.358V21.732H116.058V25.7967H119.018V27.3477H113.812Z" fill="white"/>
<path d="M120.319 27.3477V15.0109H122.565V20.1631H125.079V15.0109H127.325V27.3477H125.079V21.7676H122.565V27.3477H120.319Z" fill="white"/>
<path d="M129.215 27.3477V15.0109H131.462V20.1631H133.975V15.0109H136.222V27.3477H133.975V21.7676H131.462V27.3477H129.215Z" fill="white"/>
<path d="M137.327 27.3477L139.823 21.8389C139.306 21.5715 138.896 21.1437 138.575 20.591C138.254 20.0383 138.111 19.3431 138.111 18.5586C138.111 17.3642 138.432 16.4728 139.092 15.8845C139.751 15.314 140.785 15.0109 142.176 15.0109H144.957V27.3477H142.711V22.3559H142.033H141.766L139.787 27.3477H137.327ZM142.301 20.7693H142.711V16.5798H142.265C141.57 16.5798 141.071 16.7402 140.732 17.0611C140.393 17.382 140.233 17.8812 140.233 18.5408C140.233 19.2896 140.393 19.8422 140.714 20.1988C141.017 20.5732 141.552 20.7693 142.301 20.7693Z" fill="white"/>
<path d="M53.5188 46.0667V33.73H55.7651V38.8822H58.2788V33.73H60.5251V46.0667H58.2788V40.4867H55.7651V46.0667H53.5188Z" fill="white"/>
<path d="M61.7551 46.0667L64.2688 33.73H66.6221L69.118 46.0667H67.0321L66.533 43.1965H64.3936L63.8945 46.0667H61.7551ZM64.6254 41.7346H66.2834L65.4633 36.6716L64.6254 41.7346Z" fill="white"/>
<path d="M73.6463 46.2272C73.1115 46.2272 72.648 46.1559 72.2379 46.0311C71.8279 45.9063 71.4892 45.7102 71.2218 45.4784C70.9544 45.2467 70.7404 44.9436 70.58 44.5871C70.4195 44.2305 70.2947 43.8561 70.2234 43.4461C70.1521 43.0361 70.1165 42.5904 70.1165 42.0734V37.7769C70.1165 37.2421 70.1521 36.7607 70.2234 36.3507C70.2947 35.9406 70.4017 35.5484 70.58 35.1919C70.7582 34.8353 70.9544 34.5501 71.2218 34.3183C71.4892 34.0865 71.8279 33.9083 72.2201 33.7835C72.6302 33.6587 73.0937 33.5874 73.6285 33.5874C74.2525 33.5874 74.7695 33.6765 75.2152 33.837C75.643 33.9974 75.9996 34.247 76.2492 34.5679C76.4988 34.8888 76.6949 35.2632 76.8018 35.6732C76.9088 36.1011 76.9801 36.6003 76.9801 37.1529V38.2047H74.823V37.1529C74.823 36.5289 74.7873 36.1189 74.7338 35.905C74.609 35.4949 74.2881 35.2632 73.789 35.2275C73.7533 35.2275 73.7176 35.2275 73.6642 35.2275C73.4681 35.2275 73.3076 35.2453 73.165 35.2988C73.0224 35.3345 72.9154 35.4058 72.8263 35.5128C72.7371 35.6019 72.6658 35.7089 72.6123 35.8158C72.5588 35.9228 72.5232 36.0654 72.4875 36.2437C72.4519 36.422 72.4519 36.5824 72.4341 36.725C72.4341 36.8677 72.4162 37.0638 72.4162 37.2955V42.519C72.4162 43.25 72.5054 43.767 72.6836 44.0701C72.8619 44.3731 73.1828 44.5336 73.6463 44.5336C73.8068 44.5336 73.9494 44.5158 74.0742 44.4801C74.199 44.4444 74.2881 44.391 74.3773 44.3375C74.4664 44.284 74.5199 44.1949 74.5912 44.0879C74.6447 43.9809 74.6982 43.874 74.716 43.7848C74.7517 43.6957 74.7695 43.5709 74.7873 43.3926C74.8051 43.2143 74.8051 43.0895 74.8051 42.9826C74.8051 42.8756 74.8051 42.7152 74.8051 42.519V41.4137H76.9623V42.4299C76.9623 42.8934 76.9266 43.3035 76.8731 43.6778C76.8197 44.0522 76.6949 44.391 76.5344 44.7119C76.374 45.0328 76.1779 45.3002 75.9283 45.5141C75.6787 45.728 75.3578 45.8885 74.9834 46.0133C74.5912 46.1559 74.1455 46.2272 73.6463 46.2272Z" fill="white"/>
<path d="M77.6396 46.0667V44.4444C77.8892 44.4444 78.0853 44.4444 78.228 44.4266C78.3706 44.4088 78.531 44.3553 78.6737 44.2483C78.8163 44.1414 78.9411 43.9987 79.0124 43.8205C79.0837 43.6422 79.1728 43.3748 79.262 43.036C79.3511 42.6973 79.4046 42.2873 79.4581 41.8238C79.5116 41.3602 79.565 40.7541 79.6007 40.041L80.0107 33.73H86.0365V46.0667H83.7902V35.4058H81.9896L81.7222 40.2727C81.6865 40.7719 81.6687 41.2176 81.6331 41.5742C81.5974 41.9307 81.5617 42.3051 81.5083 42.6973C81.4548 43.0895 81.4013 43.4104 81.33 43.6778C81.2587 43.9453 81.1695 44.1948 81.0626 44.4801C80.9556 44.7475 80.8308 44.9614 80.6882 45.1397C80.5456 45.3002 80.3851 45.4606 80.189 45.6032C79.9929 45.7458 79.779 45.8528 79.5294 45.9241C79.2798 45.9954 78.9946 46.0489 78.6915 46.0667C78.3884 46.0846 78.014 46.1024 77.6396 46.0667Z" fill="white"/>
<path d="M87.9263 46.0667V33.73H90.1369V46.0667H87.9263Z" fill="white"/>
<path d="M91.2244 48.527V44.4801H91.7235C91.991 44.3197 92.2227 44.1057 92.4188 43.8383C92.6149 43.5709 92.811 43.1787 93.0071 42.6795C93.2032 42.1803 93.3459 41.5029 93.4885 40.665C93.6133 39.8271 93.7024 38.8109 93.7737 37.6164L94.0055 33.7478H99.5142V44.4801H100.816V48.527H99.2112L99.0686 46.0846H93.025L92.8823 48.527H91.2244ZM93.8094 44.4623H97.3571V35.3523H95.8061L95.6991 37.973C95.6635 38.6504 95.6278 39.2744 95.5743 39.8449C95.5208 40.3976 95.4495 40.8789 95.396 41.2711C95.3247 41.6633 95.2534 42.0199 95.1465 42.3408C95.0395 42.6795 94.9504 42.9291 94.8612 43.1074C94.7721 43.2857 94.6651 43.4818 94.5225 43.6779C94.3799 43.874 94.2551 44.0166 94.1838 44.0879C94.1125 44.1592 93.9698 44.3197 93.8094 44.4623Z" fill="white"/>
<path d="M102.064 46.0667V33.73H104.31V38.9178H104.756L106.752 33.73H108.981L106.663 39.5418L109.159 46.0667H106.877L104.756 40.3262H104.31V46.0667H102.064Z" fill="white"/>
<path d="M110.282 46.0667V33.73H112.493V46.0667H110.282Z" fill="white"/>
<path d="M114.311 46.0667V33.73H117.324C117.895 33.73 118.394 33.7835 118.822 33.8904C119.25 33.9974 119.624 34.1578 119.963 34.3896C120.284 34.6214 120.533 34.9601 120.711 35.3701C120.872 35.7802 120.961 36.2972 120.961 36.8855C120.961 38.4008 120.355 39.2566 119.16 39.4348C120.604 39.7023 121.335 40.7184 121.335 42.5012C121.335 43.6778 121.05 44.5692 120.462 45.1754C119.874 45.7815 119.018 46.0846 117.877 46.0846H114.311V46.0667ZM116.575 38.7574H117.271C117.93 38.7574 118.394 38.6148 118.643 38.3295C118.893 38.0443 119.018 37.5629 119.018 36.9033C119.018 36.5646 118.982 36.2793 118.893 36.0654C118.804 35.8515 118.679 35.691 118.483 35.5841C118.287 35.4771 118.073 35.4058 117.841 35.3701C117.609 35.3345 117.288 35.3166 116.896 35.3166H116.575V38.7574ZM116.575 44.4801H117.395C118.073 44.4801 118.536 44.3196 118.786 44.0166C119.036 43.7135 119.16 43.1965 119.16 42.4656C119.16 41.7168 119.018 41.182 118.733 40.8432C118.447 40.5045 117.948 40.3441 117.271 40.3441H116.558V44.4801H116.575Z" fill="white"/>
<path d="M129.393 46.245C128.288 46.245 127.486 45.942 126.951 45.3358C126.434 44.7297 126.167 43.874 126.167 42.7508V42.3051H128.288V42.7686C128.306 43.357 128.395 43.7848 128.555 44.0522C128.716 44.3196 129.001 44.4623 129.411 44.4623C129.607 44.4623 129.768 44.4266 129.893 44.3731C130.035 44.3018 130.142 44.2305 130.213 44.1235C130.285 44.0166 130.356 43.874 130.392 43.7135C130.427 43.5531 130.463 43.3569 130.481 43.1965C130.499 43.0182 130.499 42.8043 130.499 42.5369C130.499 41.8773 130.374 41.3781 130.124 41.0215C129.875 40.665 129.411 40.4867 128.752 40.4332C128.698 40.4332 128.52 40.4332 128.217 40.4332V38.9H128.698C129.376 38.8644 129.839 38.7039 130.107 38.383C130.374 38.0621 130.499 37.5808 130.499 36.939C130.499 36.4041 130.41 35.9941 130.213 35.7089C130.017 35.4236 129.714 35.281 129.286 35.281C128.52 35.281 128.092 35.8337 128.056 36.939V37.4738H125.935V36.9033C125.935 35.8693 126.238 35.0492 126.826 34.4609C127.415 33.8726 128.235 33.5874 129.269 33.5874C130.32 33.5874 131.141 33.8726 131.729 34.4431C132.317 35.0136 132.62 35.8158 132.62 36.8677C132.62 37.5629 132.478 38.1513 132.175 38.6326C131.871 39.114 131.479 39.417 130.98 39.5597C132.085 39.934 132.638 40.9146 132.638 42.5012C132.638 43.6778 132.371 44.5871 131.871 45.2467C131.372 45.9063 130.517 46.245 129.393 46.245Z" fill="white"/>
<path d="M134.118 46.0667L134.314 33.73H136.525L138.414 42.0377L140.358 33.73H142.515L142.729 46.0667H141.053L140.928 38.0621L139.038 46.0667H137.862L135.936 38.0443L135.829 46.0667H134.118Z" fill="white"/>
<path d="M144.547 46.0667V33.73H146.758V46.0667H144.547Z" fill="white"/>
<path d="M148.594 46.0667V33.73H150.84V38.8822H153.354V33.73H155.6V46.0667H153.354V40.4867H150.84V46.0667H148.594Z" fill="white"/>
<path d="M157.49 46.0667V33.73H159.362V41.4494L162.714 33.73H164.247V46.0667H162.357V38.2047L159.005 46.0667H157.49Z" fill="white"/>
<path d="M53.5188 64.358V52.0212H55.7651V57.2091H56.2108L58.2075 52.0212H60.4359L58.1183 57.8331L60.6142 64.358H58.3323L56.2108 58.6175H55.7651V64.358H53.5188Z" fill="white"/>
<path d="M60.8459 64.358V62.7357C61.0955 62.7357 61.2916 62.7357 61.4343 62.7179C61.5769 62.7 61.7373 62.6466 61.88 62.5396C62.0226 62.4326 62.1474 62.29 62.2187 62.1117C62.29 61.9334 62.3791 61.666 62.4683 61.3273C62.5574 60.9886 62.6109 60.5785 62.6644 60.115C62.7179 59.6515 62.7713 59.0454 62.807 58.3322L63.217 52.0212H69.2428V64.358H66.9965V53.697H65.1959L64.9285 58.564C64.8928 59.0632 64.875 59.5089 64.8393 59.8654C64.8037 60.222 64.768 60.5964 64.7146 60.9886C64.6611 61.3808 64.6076 61.7017 64.5363 61.9691C64.465 62.2365 64.3758 62.4861 64.2689 62.7713C64.1619 63.0388 64.0371 63.2527 63.8945 63.431C63.7519 63.5914 63.5914 63.7519 63.3953 63.8945C63.1992 64.0371 62.9853 64.1441 62.7357 64.2154C62.4861 64.2867 62.2009 64.3402 61.8978 64.358C61.5947 64.3758 61.2203 64.3937 60.8459 64.358Z" fill="white"/>
<path d="M71.1326 64.358V52.0212H73.3432V64.358H71.1326Z" fill="white"/>
<path d="M75.126 64.358L75.3221 52.0212H77.5327L79.4225 60.3289L81.3657 52.0212H83.5228L83.7368 64.358H82.061L81.9362 56.3534L80.0464 64.358H78.8698L76.9444 56.3355L76.8374 64.358H75.126Z" fill="white"/>
<path d="M84.9133 64.358L87.427 52.0212H89.7803L92.2762 64.358H90.1903L89.6912 61.4878H87.5518L87.0527 64.358H84.9133ZM87.7658 60.0259H89.4237L88.6037 54.9628L87.7658 60.0259Z" fill="white"/>
<path d="M94.683 64.358V53.6792H92.615V52.0212H98.926V53.6792H96.9293V64.358H94.683Z" fill="white"/>
<path d="M99.7817 66.5152V64.9285C100.744 64.9998 101.368 64.8928 101.654 64.6254C101.939 64.3402 101.992 63.8232 101.832 63.0744L99.2825 52.0212H101.386L102.402 57.1556L102.937 60.7925L103.383 57.1734L104.256 52.0391H106.396L104.06 63.2705C103.9 64.0549 103.757 64.6076 103.632 64.9463C103.508 65.285 103.312 65.6059 103.008 65.9268C102.705 66.2477 102.313 66.426 101.832 66.4973C101.35 66.5686 100.655 66.5686 99.7817 66.5152Z" fill="white"/>
<path d="M14.4226 48.01V21.4646L9.48438 23.1582V18.4338C10.6075 17.9881 11.802 17.4177 13.1034 16.758C14.3692 16.0984 15.2962 15.4388 15.8667 14.8148H20.7693V48.01H14.4226Z" fill="white"/>
<path d="M35.9407 48.5448C29.9684 48.5448 26.9734 45.2289 26.9734 38.597V37.4203H33.3201V38.4543C33.3379 40.148 33.534 41.3781 33.9084 42.1268C34.2827 42.8756 34.978 43.25 36.012 43.25C36.5647 43.25 37.0104 43.143 37.3491 42.9469C37.6878 42.733 37.9552 42.4121 38.1157 41.9664C38.2761 41.5207 38.4009 41.0394 38.4723 40.5045C38.5257 39.9697 38.5614 39.2922 38.5614 38.4722C38.5614 36.7072 38.294 35.4058 37.777 34.5501C37.26 33.6943 36.2973 33.2487 34.9067 33.1952H33.8371V28.3817H34.7819C36.2081 28.3639 37.1887 27.9717 37.7413 27.2407C38.2761 26.5098 38.5614 25.2975 38.5614 23.6039C38.5614 22.1955 38.3653 21.1615 37.9731 20.484C37.5809 19.8066 36.8856 19.4678 35.9051 19.4678C34.9245 19.4678 34.2293 19.8066 33.8727 20.5553C33.5162 21.3041 33.3379 22.3916 33.3201 23.8178V25.2618H26.9734V23.4612C26.9734 20.5732 27.7578 18.3269 29.3088 16.7224C30.8598 15.1179 33.0526 14.3335 35.8516 14.3335C38.704 14.3335 40.9146 15.1001 42.4657 16.6332C44.0167 18.1664 44.8011 20.3771 44.8011 23.2651C44.8011 25.1549 44.4089 26.7237 43.6245 28.0251C42.84 29.3266 41.8239 30.1288 40.5581 30.4854C43.3927 31.5194 44.8011 34.1222 44.8011 38.3295C44.8011 39.8984 44.6406 41.2711 44.3197 42.5012C43.9988 43.7135 43.4818 44.7832 42.8044 45.7102C42.1091 46.6373 41.1999 47.3325 40.0411 47.8317C38.8823 48.3131 37.5096 48.5448 35.9407 48.5448Z" fill="white"/>
<path d="M112.796 117.11C112.083 116.914 109.07 112.742 111.459 110.015C111.851 109.569 110.657 108.232 110.995 108.214C112.297 108.107 112.992 108.927 113.331 110.086C113.349 110.603 113.384 111.12 113.366 111.637C113.366 113.509 113.17 115.345 112.796 117.11ZM105.433 130.641C105.166 130.57 104.88 130.481 104.595 130.321C103.133 129.572 103.312 130.766 102.581 130.499C101.85 130.231 103.401 128.556 101.226 129.964C99.0686 131.372 99.6569 129.75 98.712 127.361C97.7672 124.972 99.7995 122.245 101.493 121.638C103.829 120.801 105.273 120.622 106.36 120.355C109.587 119.553 110.264 117.645 110.853 118.804C110.96 119.018 111.067 119.232 111.174 119.428C111.37 119.767 111.584 120.48 111.584 121.175C110.229 124.776 108.107 127.985 105.433 130.641ZM86.5179 138.432C83.8972 138.432 81.3657 138.04 78.9768 137.345C78.638 137.059 78.4419 136.596 78.6559 136.025C79.4938 133.868 81.954 133.013 83.915 132.834C88.265 132.406 93.9699 135.669 94.8791 135.152C95.7883 134.635 97.6245 132.246 100.334 132.353C102.171 132.424 102.153 132.727 102.777 132.977C98.2663 136.4 92.6328 138.432 86.5179 138.432ZM82.881 120.943C82.5067 121.549 81.4905 126.06 80.8309 125.525C80.1534 124.99 81.1161 120.301 81.3122 119.945C82.364 118.002 84.6638 118.091 82.881 120.943ZM93.8451 115.63C93.3102 116.094 91.9553 115.934 91.2779 115.399C90.6004 114.882 91.7057 114.008 92.1158 113.973C93.025 113.883 94.3799 115.149 93.8451 115.63ZM105.683 115.684C105.397 115.577 105.148 115.31 104.916 114.65C104.702 113.99 105.255 113.616 105.79 113.883C106.342 114.169 107.055 114.989 107.055 115.417C107.055 115.844 105.986 115.809 105.683 115.684ZM106.824 116.522C107.733 116.451 109.07 117.699 108.553 118.18C108.018 118.661 106.681 118.483 106.004 117.948C105.308 117.413 106.414 116.558 106.824 116.522ZM78.0319 127.165C77.5149 129.215 76.9088 129.946 76.3739 130.606C75.8569 131.265 73.9315 132.085 72.7193 131.996C71.507 131.907 71.3287 128.645 71.3287 126.969C71.3287 126.381 70.5086 128.11 70.0808 124.616C69.8133 122.387 68.3693 124.847 68.2802 123.35C68.1732 121.87 67.4601 122.155 66.7113 121.228C65.9626 120.301 65.0355 121.318 63.9837 121.781C62.9497 122.245 63.3775 122.494 61.8978 122.013C61.8622 121.995 61.8444 121.995 61.8087 121.977C60.4538 118.768 59.705 115.238 59.7229 111.53C59.7229 110.621 59.7763 109.73 59.8655 108.856C59.919 108.767 59.9724 108.678 60.0259 108.606C61.4521 106.931 61.4165 106.538 61.4165 106.538L62.9853 106.004C62.9853 106.004 65.4812 106.396 67.3709 107.109C68.922 107.697 71.3643 109.016 72.7906 108.446C73.8246 108.018 74.6268 107.465 74.5377 106.61C74.4307 105.54 73.575 105.273 72.5588 106.004C72.1844 106.271 71.3822 104.381 70.7404 104.47C70.1164 104.559 71.5248 106.699 70.99 106.788C70.4551 106.877 69.3676 104.577 69.1894 104.203C69.0111 103.829 68.1732 102.902 67.4244 103.615C65.8378 105.112 63.2706 105.023 62.7536 105.397C61.1847 106.574 60.7747 105.005 60.8103 104.06C60.8817 103.846 60.9351 103.632 61.0065 103.401C61.5235 102.83 63.3597 102.652 63.9837 103.08C64.679 103.543 65.1781 102.955 65.4455 102.688C65.7308 102.42 65.6238 101.974 65.4455 101.6C65.2673 101.226 65.7843 100.958 66.1587 100.851C66.5152 100.762 67.7097 99.9243 68.191 99.639C68.6724 99.3716 71.1504 99.0686 72.2736 99.6212C73.3789 100.174 74.3951 99.7282 74.9477 99.0864C75.643 98.2663 76.5166 97.6602 76.8909 97.4641C77.2831 97.2858 75.9282 96.02 74.8229 97.3927C73.7176 98.7477 73.1471 98.8724 72.6301 98.8724C72.1131 98.8724 69.0111 98.088 68.6367 97.1075C68.2623 96.127 69.5994 95.396 70.7582 94.8434C71.8992 94.2907 75.019 94.3086 75.8213 94.1303C77.4436 93.7737 79.5294 92.9715 80.5634 93.6668C81.5974 94.362 76.1957 95.5921 77.9606 96.5548C78.6024 96.9114 81.4548 94.9147 82.4353 94.3977C84.7351 93.2032 80.2069 92.811 80.7952 90.3865C81.4727 87.6588 75.233 88.7107 72.1131 88.9246C76.2848 86.2504 81.2409 84.7173 86.5714 84.7173C99.229 84.7351 109.819 93.5063 112.618 105.308C112.635 105.897 112.546 106.307 112.493 106.556C112.243 107.519 110.407 108.357 109.355 106.788C109.088 106.396 107.929 105.308 107.965 107.162C108 109.016 109.765 109.213 108.054 110.336C106.342 111.441 106.021 111.174 105.237 111.459C104.453 111.744 103.668 113.652 103.864 114.668C104.06 115.684 106.485 118.501 104.684 118.376C104.256 118.34 101.065 116.147 100.53 114.739C99.9778 113.259 99.3717 111.798 98.9438 110.692C98.5159 109.587 97.375 109.284 96.4123 109.943C95.4496 110.603 96.6797 111.245 95.9844 112.653C95.3069 114.044 94.8078 115.292 93.7916 114.133C91.1709 111.138 87.3736 112.6 86.7853 109.266C86.4644 107.448 84.9134 107.626 83.612 106.592C82.3106 105.576 81.5796 105.023 81.3479 105.754C81.1518 106.396 85.4482 109.819 85.7513 110.674C86.2148 111.976 84.4677 113.117 83.1841 113.42C81.9183 113.723 81.3479 112.707 80.1177 111.405C78.8698 110.104 78.3172 109.177 78.228 110.193C78.1032 111.673 79.4046 113.83 80.6882 114.65C81.7757 115.345 82.988 115.648 82.6315 116.771C82.2749 117.895 82.6315 117.253 81.4013 118.465C80.1891 119.677 79.9395 120.07 80.0286 121.728C80.1177 123.403 79.6721 123.493 79.4046 124.883C79.1729 126.345 78.5667 125.133 78.0319 127.165ZM63.6628 97.5889C63.7163 97.5175 63.7876 97.4641 63.8054 97.4284C64.2868 96.8757 65.2494 96.751 65.9269 96.6618C66.5865 96.5548 67.4779 96.8936 67.5849 97.3393C67.6918 97.785 65.9091 98.5872 65.5882 98.8903C64.6611 99.746 63.2171 101.475 62.3614 101.671C62.0939 101.743 61.8622 101.689 61.6661 101.6C62.2187 100.192 62.8962 98.8546 63.6628 97.5889ZM65.0533 94.8612C65.3921 94.3442 66.5509 92.9002 66.6935 92.7219C66.9966 92.3475 67.5849 92.2584 67.9949 92.1871C68.4049 92.1157 68.9398 92.3475 69.0111 92.6506C69.0824 92.9537 68.8506 94.1481 68.6545 94.362C68.084 94.9504 66.6222 95.7704 65.8021 95.6456C65.1781 95.5387 64.9286 95.0395 65.0533 94.8612ZM150.288 110.835C145.724 104.399 125.044 78.745 86.5357 78.6915C48.0279 78.638 27.2943 104.256 22.6947 110.674C22.4986 110.942 22.3382 111.191 22.1956 111.387C22.3382 111.601 22.4986 111.833 22.6947 112.118C27.2765 118.536 47.9388 144.208 86.4466 144.262C124.937 144.315 145.688 118.697 150.27 112.297C150.466 112.011 150.644 111.78 150.769 111.584C150.662 111.334 150.484 111.102 150.288 110.835Z" fill="white"/>
</g>
<defs>
<clipPath id="clip0_111_5343">
<rect width="173" height="173" fill="white"/>
</clipPath>
</defs>
</svg>
