<svg width="173" height="173" viewBox="0 0 173 173" fill="none" xmlns="http://www.w3.org/2000/svg">
<g clip-path="url(#clip0_111_5342)">
<path d="M0 0H173V173H0V0Z" fill="#241F20"/>
<path d="M52.2708 121.104C51.9143 120.997 51.5577 120.89 51.219 120.836C51.219 120.836 51.6112 120.961 52.2708 121.104Z" fill="white"/>
<path d="M58.1895 26.6346C57.0842 26.6346 56.282 26.3315 55.7471 25.7254C55.2301 25.1192 54.9627 24.2635 54.9627 23.1403V22.6946H57.0842V23.1582C57.102 23.7465 57.1912 24.1743 57.3516 24.4418C57.5121 24.7092 57.7973 24.8518 58.2074 24.8518C58.4035 24.8518 58.5639 24.8161 58.6887 24.7627C58.8313 24.6914 58.9383 24.62 59.0096 24.5131C59.0809 24.4061 59.1522 24.2635 59.1879 24.103C59.2235 23.9248 59.2592 23.7465 59.277 23.586C59.2949 23.4256 59.2948 23.1938 59.2948 22.9264C59.2948 22.2668 59.1701 21.7676 58.9026 21.4111C58.6531 21.0723 58.1895 20.8762 57.5299 20.8227C57.4764 20.8227 57.2981 20.8227 56.9951 20.8227V19.2896H57.4764C58.1539 19.2539 58.6174 19.0935 58.8848 18.7726C59.1522 18.4517 59.277 17.9703 59.277 17.3285C59.277 16.7937 59.1879 16.3836 58.9918 16.0984C58.7957 15.8132 58.4926 15.6705 58.0647 15.6705C57.2981 15.6705 56.8703 16.2232 56.8346 17.3285V17.8633H54.7131V17.275C54.7131 16.241 55.0162 15.4209 55.6045 14.8326C56.1928 14.2443 57.0129 13.9591 58.0469 13.9591C59.0988 13.9591 59.9188 14.2443 60.5071 14.8148C61.0954 15.3853 61.3985 16.1875 61.3985 17.2394C61.3985 17.9347 61.2559 18.523 60.9528 19.0043C60.6498 19.4857 60.2575 19.7887 59.7584 19.9314C60.8637 20.3057 61.4164 21.2863 61.4164 22.8729C61.4164 24.0496 61.1489 24.9588 60.6498 25.6184C60.1149 26.2958 59.3127 26.6346 58.1895 26.6346Z" fill="white"/>
<path d="M62.9673 26.4563V14.1195H68.6722V15.7953H65.2136V19.2896H65.5701C66.2298 19.2896 66.8002 19.3431 67.2638 19.4678C67.7273 19.5926 68.1373 19.7709 68.476 20.0562C68.8148 20.3414 69.0644 20.698 69.2248 21.1615C69.3853 21.625 69.4744 22.1955 69.4744 22.8729C69.4744 23.4256 69.4209 23.9069 69.2961 24.317C69.1713 24.727 69.0109 25.0657 68.7969 25.351C68.583 25.6362 68.3156 25.8502 67.9769 26.0106C67.6381 26.1711 67.2816 26.2959 66.8894 26.3672C66.4972 26.4385 66.0336 26.4741 65.5345 26.4741H62.9673V26.4563ZM65.2136 24.9231H65.5345C65.8732 24.9231 66.1584 24.8875 66.3724 24.834C66.5863 24.7805 66.7824 24.6735 66.9429 24.5131C67.1033 24.3526 67.2103 24.1387 67.2816 23.8713C67.3529 23.6039 67.3886 23.2473 67.3707 22.8195C67.3707 22.1242 67.2281 21.625 66.9607 21.3219C66.6933 21.0189 66.1941 20.8584 65.4988 20.8584H65.2136V24.9231Z" fill="white"/>
<path d="M70.9006 26.4563V14.1195H76.0707V15.7062H73.1469V19.2539H75.4467V20.8406H73.1469V24.9053H76.1063V26.4563H70.9006Z" fill="white"/>
<path d="M77.4077 26.4563V14.1195H80.9554C83.0591 14.1195 84.1109 15.2962 84.1109 17.6316C84.1109 18.7726 83.8257 19.6105 83.2552 20.1453C82.6847 20.6801 81.8646 20.9475 80.8128 20.9475H79.654V26.4563H77.4077ZM79.654 19.3609H80.3849C81.0267 19.3609 81.4546 19.2361 81.6685 18.9865C81.8825 18.7369 82.0073 18.2734 82.0073 17.6138C82.0073 17.2394 81.9894 16.9363 81.9538 16.7224C81.9181 16.5084 81.8468 16.3302 81.7398 16.1519C81.6329 15.9736 81.4724 15.8667 81.2585 15.7953C81.0446 15.724 80.7593 15.7062 80.3849 15.7062H79.654V19.3609Z" fill="white"/>
<path d="M85.2876 26.4563V14.1195H90.4576V15.7062H87.5339V19.2539H89.8337V20.8406H87.5339V24.9053H90.4933V26.4563H85.2876Z" fill="white"/>
<path d="M90.9033 26.4563L93.631 20.1988L91.0994 14.1195H93.2209L95.4137 20.0027H95.5207V14.1195H97.3569V20.0027H97.4639L99.6567 14.1195H101.796L99.2645 20.2166L101.992 26.4741H99.8885L97.4639 20.3771H97.3391V26.4741H95.5029V20.3771H95.3781L92.9713 26.4741H90.9033V26.4563Z" fill="white"/>
<path d="M102.973 26.4563V14.1195H108.143V15.7062H105.219V19.2539H107.519V20.8406H105.219V24.9053H108.178V26.4563H102.973Z" fill="white"/>
<path d="M109.48 26.4563V14.1195H111.726V19.2717H114.24V14.1195H116.486V26.4563H114.24V20.8762H111.726V26.4563H109.48Z" fill="white"/>
<path d="M118.376 26.4563V14.1195H120.622V19.2717H123.136V14.1195H125.382V26.4563H123.136V20.8762H120.622V26.4563H118.376Z" fill="white"/>
<path d="M126.488 26.4563L128.983 20.9475C128.466 20.6801 128.039 20.2523 127.735 19.6996C127.432 19.1469 127.272 18.4517 127.272 17.6672C127.272 16.4728 127.593 15.5814 128.253 14.9931C128.912 14.4048 129.946 14.1195 131.337 14.1195H134.118V26.4563H131.872V21.4645H131.212H130.944L128.966 26.4563H126.488ZM131.461 19.8779H131.872V15.6884H131.426C130.731 15.6884 130.231 15.8488 129.893 16.1697C129.554 16.4906 129.393 16.9898 129.393 17.6494C129.393 18.3982 129.554 18.9508 129.875 19.3074C130.196 19.664 130.713 19.8779 131.461 19.8779Z" fill="white"/>
<path d="M55.2659 44.7475L55.462 32.4107H57.6726L59.5623 40.7184L61.5056 32.4107H63.6627L63.8767 44.7475H62.2008L62.0761 36.7429L60.1863 44.7475H59.0097L57.0843 36.725L56.9773 44.7475H55.2659Z" fill="white"/>
<path d="M69.0467 44.908C67.781 44.908 66.8718 44.5692 66.3191 43.874C65.7664 43.1787 65.499 42.1803 65.499 40.8432V36.2972C65.499 35.6376 65.5703 35.0671 65.6773 34.5857C65.8021 34.1044 65.9982 33.6943 66.2834 33.3378C66.5509 32.9812 66.9252 32.7138 67.3888 32.5534C67.8523 32.3751 68.4049 32.2859 69.0646 32.2859C70.3303 32.2859 71.2395 32.6247 71.7922 33.3021C72.3449 33.9796 72.6301 34.9779 72.6301 36.2972V40.8432C72.6301 41.485 72.5588 42.0555 72.434 42.5369C72.3092 43.0182 72.1131 43.4461 71.8279 43.8026C71.5604 44.1592 71.1861 44.4266 70.7225 44.6227C70.2412 44.801 69.6885 44.908 69.0467 44.908ZM68.4762 43.143C68.6367 43.2143 68.815 43.2322 69.0289 43.2322C69.2428 43.2322 69.4389 43.1965 69.5816 43.143C69.742 43.0717 69.849 43.0004 69.9559 42.8934C70.0451 42.7865 70.1164 42.6617 70.1699 42.4834C70.2234 42.3051 70.259 42.1447 70.2768 41.9842C70.2947 41.8238 70.2947 41.6098 70.2947 41.3781V35.7802C70.2947 35.4771 70.2768 35.2275 70.259 35.0314C70.2412 34.8353 70.1699 34.6392 70.0807 34.4788C69.9916 34.3005 69.8668 34.1757 69.6885 34.0865C69.5103 33.9974 69.2963 33.9618 69.0289 33.9618C68.7615 33.9618 68.5476 33.9974 68.3693 34.0865C68.191 34.1757 68.0662 34.3005 67.9771 34.4788C67.8879 34.657 67.8344 34.8353 67.7988 35.0314C67.7631 35.2275 67.7453 35.4771 67.7453 35.7802V41.3781C67.7453 41.6098 67.7453 41.8059 67.7631 41.9842C67.781 42.1625 67.8166 42.3229 67.8701 42.4834C67.9236 42.6438 67.9949 42.7865 68.084 42.8934C68.2088 42.9826 68.3158 43.0717 68.4762 43.143Z" fill="white"/>
<path d="M74.2524 44.7475V32.4107H77.8001C79.9038 32.4107 80.9557 33.5874 80.9557 35.9228C80.9557 37.0638 80.6704 37.9017 80.0999 38.4365C79.5294 38.9713 78.7094 39.2387 77.6575 39.2387H76.4987V44.7475H74.2524ZM76.4987 37.6521H77.2297C77.8715 37.6521 78.2993 37.5273 78.5133 37.2777C78.7272 37.0281 78.852 36.5646 78.852 35.905C78.852 35.5306 78.8342 35.2275 78.7985 35.0136C78.7628 34.7996 78.6915 34.6214 78.5846 34.4431C78.4776 34.2648 78.3172 34.1579 78.1032 34.0865C77.8893 34.0152 77.604 33.9974 77.2297 33.9974H76.4987V37.6521Z" fill="white"/>
<path d="M85.4303 44.908C84.8954 44.908 84.4319 44.8367 84.0219 44.7119C83.6119 44.5871 83.2731 44.391 83.0057 44.1592C82.7383 43.9274 82.5244 43.6244 82.3639 43.2678C82.2035 42.9113 82.0787 42.5369 82.0074 42.1268C81.936 41.7168 81.9004 41.2711 81.9004 40.7541V36.4576C81.9004 35.9228 81.936 35.4415 82.0074 35.0314C82.0787 34.6214 82.1856 34.2292 82.3639 33.8726C82.5422 33.5161 82.7383 33.2308 83.0057 32.9991C83.2731 32.7673 83.6119 32.589 84.0041 32.4642C84.4141 32.3394 84.8776 32.2681 85.4124 32.2681C86.0364 32.2681 86.5534 32.3573 86.9991 32.5177C87.427 32.6782 87.7835 32.9278 88.0331 33.2486C88.2827 33.5695 88.4788 33.9439 88.5858 34.354C88.6927 34.7818 88.7641 35.281 88.7641 35.8337V36.8855H86.6069V35.8337C86.6069 35.2097 86.5712 34.7997 86.5178 34.5857C86.393 34.1757 86.0721 33.9439 85.5729 33.9083C85.5372 33.9083 85.5016 33.9083 85.4481 33.9083C85.252 33.9083 85.0916 33.9261 84.9489 33.9796C84.8063 34.0152 84.6993 34.0866 84.6102 34.1935C84.5211 34.2827 84.4498 34.3896 84.3963 34.4966C84.3428 34.6036 84.3071 34.7462 84.2715 34.9245C84.2358 35.1027 84.2358 35.2632 84.218 35.4058C84.218 35.5484 84.2002 35.7445 84.2002 35.9763V41.1998C84.2002 41.9307 84.2893 42.4477 84.4676 42.7508C84.6459 43.0539 84.9668 43.2143 85.4303 43.2143C85.5907 43.2143 85.7333 43.1965 85.8581 43.1608C85.9829 43.1252 86.0721 43.0717 86.1612 43.0182C86.2504 42.9647 86.3038 42.8756 86.3751 42.7686C86.4286 42.6617 86.4821 42.5547 86.4999 42.4656C86.5356 42.3764 86.5534 42.2516 86.5713 42.0734C86.5891 41.8951 86.5891 41.7703 86.5891 41.6633C86.5891 41.5564 86.5891 41.3959 86.5891 41.1998V40.0945H88.7462V41.1107C88.7462 41.5742 88.7106 41.9842 88.6571 42.3586C88.6036 42.733 88.4788 43.0717 88.3184 43.3926C88.1579 43.7135 87.9618 43.9809 87.7122 44.1949C87.4626 44.4088 87.1417 44.5692 86.7674 44.694C86.393 44.8367 85.9473 44.908 85.4303 44.908Z" fill="white"/>
<path d="M90.3508 44.7475V32.4107H92.5971V37.5808H93.025C93.6846 37.5808 94.2551 37.6343 94.7186 37.759C95.1821 37.8838 95.5922 38.0621 95.9309 38.3474C96.2696 38.6148 96.5192 38.9892 96.6797 39.4527C96.8401 39.9162 96.9292 40.4867 96.9292 41.1641C96.9292 41.8416 96.8401 42.4299 96.6618 42.8934C96.4836 43.3748 96.2161 43.7313 95.8596 44.0166C95.503 44.284 95.093 44.4801 94.6295 44.6049C94.166 44.7297 93.6133 44.7832 92.9537 44.7832H90.3508V44.7475ZM92.5971 43.2143H92.9893C93.3281 43.2143 93.6133 43.1787 93.8272 43.1252C94.0412 43.0717 94.2373 42.9647 94.3977 42.8043C94.5582 42.6438 94.6651 42.4299 94.7364 42.1625C94.8078 41.8951 94.8434 41.5385 94.8256 41.1107C94.8256 40.4154 94.683 39.9162 94.4155 39.6131C94.1481 39.3101 93.649 39.1496 92.9537 39.1496H92.5971V43.2143Z" fill="white"/>
<path d="M98.3376 44.7475V32.4107H100.584V37.5986H101.03L103.026 32.4107H105.255L102.937 38.2226L105.433 44.7475H103.151L101.03 39.007H100.584V44.7475H98.3376Z" fill="white"/>
<path d="M106.574 44.7475V32.4107H108.446V40.1301L111.797 32.4107H113.331V44.7475H111.441V36.8855L108.089 44.7475H106.574Z" fill="white"/>
<path d="M114.436 44.7475L116.914 38.2047L114.507 32.4107H116.611L118.215 36.2437L119.588 32.4107H121.567L119.178 38.5969L121.745 44.7475H119.624L117.895 40.6115L116.379 44.7475H114.436Z" fill="white"/>
<path d="M55.2837 63.0387V50.702H58.8314C60.9351 50.702 61.9869 51.8786 61.9869 54.214C61.9869 55.355 61.7017 56.1929 61.1312 56.7277C60.5607 57.2626 59.7406 57.53 58.6888 57.53H57.53V63.0387H55.2837ZM57.53 55.9433H58.2609C58.9027 55.9433 59.3306 55.8185 59.5445 55.5689C59.7584 55.3193 59.8832 54.8558 59.8832 54.1962C59.8832 53.8218 59.8654 53.5187 59.8298 53.3048C59.7941 53.0909 59.7228 52.9126 59.6158 52.7343C59.5089 52.556 59.3484 52.4491 59.1345 52.3778C58.9205 52.3065 58.6353 52.2886 58.2609 52.2886H57.53V55.9433Z" fill="white"/>
<path d="M63.1636 63.0387V50.702H68.3336V52.2886H65.4099V55.8363H67.7096V57.423H65.4099V61.4877H68.3693V63.0387H63.1636Z" fill="white"/>
<path d="M72.9867 63.1992C72.4518 63.1992 71.9883 63.1279 71.5783 63.0031C71.1683 62.8783 70.8295 62.6822 70.5621 62.4504C70.2947 62.2186 70.0808 61.9156 69.9203 61.559C69.7599 61.2025 69.6351 60.8281 69.5638 60.418C69.4924 60.008 69.4568 59.5623 69.4568 59.0453V54.7488C69.4568 54.214 69.4924 53.7327 69.5638 53.3226C69.6351 52.9126 69.742 52.5204 69.9203 52.1638C70.0986 51.8073 70.2947 51.522 70.5621 51.2903C70.8295 51.0585 71.1682 50.8802 71.5605 50.7554C71.9705 50.6306 72.434 50.5593 72.9688 50.5593C73.5928 50.5593 74.1098 50.6485 74.5555 50.8089C74.9834 50.9694 75.3399 51.2189 75.5895 51.5398C75.8391 51.8607 76.0352 52.2351 76.1422 52.6452C76.2491 53.073 76.3205 53.5722 76.3205 54.1249V55.1767H74.1633V54.1249C74.1633 53.5009 74.1276 53.0909 74.0742 52.8769C73.9494 52.4669 73.6285 52.2351 73.1293 52.1995C73.0936 52.1995 73.058 52.1995 73.0045 52.1995C72.8084 52.1995 72.6479 52.2173 72.5053 52.2708C72.3627 52.3064 72.2557 52.3778 72.1666 52.4847C72.0775 52.5739 72.0062 52.6808 71.9527 52.7878C71.8992 52.8948 71.8635 53.0374 71.8279 53.2157C71.7922 53.3939 71.7922 53.5544 71.7744 53.697C71.7744 53.8396 71.7566 54.0357 71.7566 54.2675V59.491C71.7566 60.2219 71.8457 60.7389 72.024 61.042C72.2023 61.3451 72.5232 61.5055 72.9867 61.5055C73.1471 61.5055 73.2897 61.4877 73.4145 61.4521C73.5393 61.4164 73.6285 61.3629 73.7176 61.3094C73.8067 61.2559 73.8602 61.1668 73.9315 61.0598C73.985 60.9529 74.0385 60.8459 74.0563 60.7568C74.092 60.6676 74.1098 60.5428 74.1276 60.3646C74.1455 60.1863 74.1455 60.0615 74.1455 59.9545C74.1455 59.8476 74.1455 59.6871 74.1455 59.491V58.3857H76.3026V59.4019C76.3026 59.8654 76.267 60.2754 76.2135 60.6498C76.16 61.0242 76.0352 61.3629 75.8748 61.6838C75.7143 62.0047 75.5182 62.2721 75.2686 62.4861C75.019 62.7 74.6981 62.8604 74.3237 62.9852C73.9315 63.1279 73.4858 63.1992 72.9867 63.1992Z" fill="white"/>
<path d="M77.7465 65.1959V63.6092C78.7092 63.6805 79.3332 63.5736 79.6184 63.3061C79.9036 63.0209 79.9571 62.5039 79.7967 61.7551L77.2473 50.702H79.351L80.3672 55.8363L80.902 59.4732L81.3477 55.8542L82.2212 50.7198H84.3606L82.0073 61.9334C81.8469 62.7178 81.7042 63.2705 81.5794 63.6092C81.4546 63.9479 81.2585 64.2688 80.9555 64.5897C80.6524 64.9106 80.2602 65.0889 79.7788 65.1602C79.2975 65.2315 78.6022 65.2494 77.7465 65.1959Z" fill="white"/>
<path d="M85.4304 63.0387V50.702H88.9781C91.0818 50.702 92.1336 51.8786 92.1336 54.214C92.1336 55.355 91.8484 56.1929 91.2779 56.7277C90.7074 57.2626 89.8874 57.53 88.8355 57.53H87.6767V63.0387H85.4304ZM87.6767 55.9433H88.4076C89.0494 55.9433 89.4773 55.8185 89.6912 55.5689C89.9052 55.3193 90.03 54.8558 90.03 54.1962C90.03 53.8218 90.0121 53.5187 89.9765 53.3048C89.9408 53.0909 89.8695 52.9126 89.7626 52.7343C89.6556 52.556 89.4951 52.4491 89.2812 52.3778C89.0673 52.3065 88.7642 52.2886 88.4076 52.2886H87.6767V55.9433Z" fill="white"/>
<path d="M96.6261 63.1992C96.0912 63.1992 95.6277 63.1279 95.2177 63.0031C94.8076 62.8604 94.4689 62.6822 94.2015 62.4504C93.9341 62.2186 93.7202 61.9156 93.5597 61.559C93.3993 61.2025 93.2745 60.8281 93.2032 60.418C93.1318 60.008 93.0962 59.5623 93.0962 59.0453V54.7488C93.0962 54.214 93.1318 53.7327 93.2032 53.3226C93.2745 52.9126 93.3814 52.5204 93.5597 52.1638C93.738 51.8073 93.9341 51.522 94.2015 51.2903C94.4689 51.0585 94.8077 50.8802 95.1999 50.7554C95.6099 50.6306 96.0734 50.5593 96.6082 50.5593C97.2144 50.5593 97.7492 50.6485 98.1771 50.8089C98.6049 50.9694 98.9615 51.2189 99.2111 51.5398C99.4607 51.8607 99.6568 52.2351 99.7637 52.6452C99.8707 53.073 99.942 53.5722 99.942 54.1249V55.1767H97.7849V54.1249C97.7849 53.5009 97.7492 53.0909 97.6957 52.8769C97.5709 52.4669 97.25 52.2351 96.7509 52.1995C96.7152 52.1995 96.6796 52.1995 96.6261 52.1995C96.43 52.1995 96.2695 52.2173 96.1269 52.2708C95.9843 52.3064 95.8773 52.3778 95.7882 52.4847C95.699 52.5739 95.6277 52.6808 95.5742 52.7878C95.5208 52.8948 95.4851 53.0374 95.4494 53.2157C95.4316 53.3939 95.4138 53.5544 95.396 53.697C95.396 53.8396 95.3781 54.0357 95.3781 54.2675V59.491C95.3781 60.2219 95.4673 60.7389 95.6456 61.042C95.8238 61.3451 96.1447 61.5055 96.6082 61.5055C96.7687 61.5055 96.9113 61.4877 97.0361 61.4521C97.1609 61.4164 97.25 61.3629 97.3392 61.3094C97.4283 61.2559 97.4818 61.1668 97.5531 61.0598C97.6066 60.9529 97.6601 60.8459 97.6779 60.7568C97.7136 60.6676 97.7314 60.5428 97.7492 60.3646C97.767 60.2041 97.767 60.0615 97.767 59.9545C97.767 59.8476 97.767 59.6871 97.767 59.491V58.3857H99.9242V59.4019C99.9242 59.8654 99.8885 60.2754 99.8351 60.6498C99.7816 61.0242 99.6568 61.3629 99.4963 61.6838C99.3359 62.0047 99.1398 62.2721 98.8902 62.4861C98.6406 62.7 98.3197 62.8604 97.9275 62.9852C97.5709 63.1279 97.1253 63.1992 96.6261 63.1992Z" fill="white"/>
<path d="M101.529 63.0387V50.702H103.739V63.0387H101.529Z" fill="white"/>
<path d="M105.558 63.0387V50.702H108.571C109.141 50.702 109.64 50.7554 110.068 50.8624C110.496 50.9694 110.871 51.1298 111.209 51.3616C111.53 51.5933 111.78 51.9321 111.958 52.3421C112.118 52.7522 112.208 53.2692 112.208 53.8575C112.208 55.3728 111.601 56.2285 110.407 56.4068C111.851 56.6742 112.582 57.6904 112.582 59.4732C112.582 60.6498 112.297 61.5412 111.708 62.1473C111.12 62.7535 110.264 63.0566 109.123 63.0566H105.558V63.0387ZM107.804 55.7294H108.499C109.159 55.7294 109.623 55.5868 109.872 55.3015C110.122 55.0163 110.247 54.5349 110.247 53.8753C110.247 53.5366 110.211 53.2513 110.122 53.0374C110.033 52.8235 109.908 52.663 109.712 52.556C109.516 52.4491 109.302 52.3778 109.07 52.3421C108.838 52.3065 108.517 52.2886 108.125 52.2886H107.804V55.7294ZM107.804 61.4521H108.624C109.302 61.4521 109.765 61.2916 110.015 60.9885C110.264 60.6855 110.389 60.1685 110.389 59.4375C110.389 58.6888 110.247 58.1539 109.961 57.8152C109.676 57.4765 109.177 57.316 108.499 57.316H107.786V61.4521H107.804Z" fill="white"/>
<path d="M14.4226 48.01V21.4646L9.48438 23.1582V18.4338C10.6075 17.9881 11.802 17.4177 13.1034 16.758C14.3692 16.0984 15.2962 15.4388 15.8667 14.8148H20.7693V48.01H14.4226Z" fill="white"/>
<path d="M36.5289 48.01V40.1658H26.5811V34.9779L35.1027 14.8148H42.3051V35.2988H45.6032V40.1658H42.3051V48.01H36.5289ZM31.6441 35.2988H36.5289V21.3398L31.6441 35.2988Z" fill="white"/>
<path d="M108.232 132.157C105.041 132.157 102.456 129.572 102.456 126.381C102.456 123.189 105.041 120.604 108.232 120.604C111.423 120.604 114.026 123.189 114.026 126.381C114.026 129.572 111.441 132.157 108.232 132.157ZM133.351 129.465C131.159 126.505 117.039 108.499 97.2324 108.499C80.0287 108.499 61.6305 124.099 61.6305 124.099C61.6305 124.099 54.7133 109.943 40.576 108.589C40.4868 108.589 40.3977 108.571 40.3085 108.571H40.2194C39.9163 108.589 39.6489 108.874 39.6846 109.123C39.7202 109.373 39.8985 109.64 39.8985 109.64C41.7169 112.671 46.37 121.282 46.37 129.875C46.37 138.503 41.6991 147.132 39.8807 150.145L39.7559 150.341C39.7024 150.43 39.6667 150.519 39.6667 150.644C39.6667 150.947 39.8985 151.179 40.1838 151.197L40.3442 151.179C40.3977 151.179 40.4512 151.179 40.4868 151.161C54.6777 149.842 61.6126 135.651 61.6126 135.651C61.6126 135.651 80.0108 151.25 97.2146 151.25C117.021 151.25 131.141 133.244 133.333 130.285C133.387 130.214 133.44 130.142 133.476 130.089C133.494 130.017 133.53 129.946 133.53 129.875C133.53 129.803 133.512 129.714 133.476 129.661C133.458 129.607 133.405 129.536 133.351 129.465Z" fill="white"/>
<path d="M60.3291 92.3475C60.3648 92.2762 60.4183 92.2406 60.4717 92.1871C60.5609 92.1336 60.6678 92.0801 60.7926 92.0801C60.9353 92.0801 61.0779 92.1336 61.1848 92.2406C61.1848 92.2584 61.2027 92.2584 61.2027 92.2584C72.0063 102.545 83.3269 94.2016 85.6801 92.2584L85.9119 92.0445C85.9832 92.0266 86.0545 92.0088 86.1258 92.0088C86.2149 92.0088 86.2862 92.0266 86.3576 92.0445L86.5893 92.2584C88.9426 94.2016 100.263 102.545 111.067 92.2584L111.085 92.2406C111.192 92.1336 111.316 92.0801 111.459 92.0801C111.584 92.0801 111.691 92.1336 111.78 92.1871C111.851 92.2406 111.887 92.2762 111.94 92.3475C114.026 94.4155 123.083 102.188 132.656 93.8807C132.763 93.7737 132.817 93.6489 132.817 93.4885V89.5307C132.817 89.2098 132.567 88.9603 132.246 88.9603C132.21 88.9603 132.175 88.9781 132.121 88.9781C132.032 89.0137 131.943 89.0672 131.836 89.1207C128.894 90.6004 119.767 94.0946 111.495 86.2683C111.423 86.197 111.334 86.1257 111.263 86.0365C111.192 86.0009 111.12 85.983 111.013 85.983C110.96 85.983 110.888 86.0009 110.835 86.0187C110.71 86.0543 110.621 86.1257 110.55 86.2326C108.09 88.1045 96.7511 95.7883 86.6785 86.3752L86.5358 86.2326C86.4289 86.1257 86.2863 86.0722 86.1258 86.0722C85.9832 86.0722 85.8406 86.1257 85.7336 86.2326L85.5731 86.3931C75.5005 95.8061 64.1621 88.1402 61.684 86.2505C61.6127 86.1435 61.5236 86.0722 61.3988 86.0365C61.3453 86.0009 61.274 86.0009 61.2205 86.0009C61.1314 86.0009 61.0601 86.0187 60.9887 86.0543C60.9174 86.1257 60.8283 86.2148 60.7392 86.2861C52.4671 94.1125 43.3393 90.6182 40.3978 89.1385C40.2908 89.0851 40.2016 89.0316 40.1125 88.9959C40.0769 88.9959 40.0412 88.9781 40.0055 88.9781C39.6846 88.9781 39.4351 89.2277 39.4351 89.5486V93.5063C39.4351 93.6668 39.5064 93.8094 39.5955 93.8985C49.169 102.188 58.2255 94.4155 60.3291 92.3475Z" fill="white"/>
<path d="M40.1303 74.6445C40.0947 74.6445 40.059 74.6267 40.0234 74.6267C39.7025 74.6267 39.4529 74.8763 39.4529 75.1972V79.1371C39.4529 79.2976 39.5242 79.4402 39.6133 79.5471C49.169 87.8549 58.2255 80.0641 60.3291 78.014C60.3648 77.9427 60.4183 77.8892 60.4717 77.8535C60.5609 77.8 60.6678 77.7466 60.7926 77.7466C60.9353 77.7466 61.0779 77.8 61.1848 77.8892C61.2027 77.907 61.2027 77.907 61.2205 77.907C72.0241 88.2114 83.3447 79.868 85.6979 77.907L85.9297 77.6931C86.001 77.6574 86.0723 77.6574 86.1436 77.6574C86.2149 77.6574 86.3041 77.6752 86.3754 77.6931L86.6072 77.907C88.9604 79.868 100.281 88.2114 111.085 77.907L111.102 77.8892C111.209 77.8 111.334 77.7466 111.495 77.7466C111.619 77.7466 111.726 77.7822 111.816 77.8535C111.887 77.8892 111.922 77.9427 111.976 78.014C114.062 80.0641 123.118 87.8549 132.674 79.5471C132.781 79.4402 132.834 79.2976 132.834 79.1371V75.1972C132.834 74.8763 132.585 74.6267 132.264 74.6267C132.228 74.6267 132.193 74.6445 132.139 74.6445C132.05 74.698 131.961 74.7515 131.854 74.7872C128.912 76.2669 119.784 79.7611 111.512 71.9347C111.441 71.8634 111.352 71.7921 111.281 71.703C111.209 71.6673 111.138 71.6495 111.031 71.6495C110.978 71.6495 110.906 71.6673 110.853 71.6673C110.728 71.7208 110.639 71.7921 110.568 71.8991C108.107 73.7888 96.7689 81.4369 86.6963 72.0417L86.5537 71.8991C86.4467 71.8099 86.3041 71.7208 86.1436 71.7208C86.001 71.7208 85.8406 71.7921 85.7514 71.8991L85.5731 72.0417C75.5005 81.4547 64.1621 73.7888 61.7019 71.8991C61.6305 71.8099 61.5414 71.7208 61.4166 71.6673C61.3631 71.6495 61.2918 71.6495 61.2383 71.6495C61.167 71.6495 61.0779 71.6673 61.0066 71.703C60.9353 71.7921 60.8461 71.8634 60.757 71.9347C52.4849 79.7611 43.3571 76.2669 40.4156 74.7872C40.3086 74.7337 40.2195 74.6802 40.1303 74.6445Z" fill="white"/>
</g>
<defs>
<clipPath id="clip0_111_5342">
<rect width="173" height="173" fill="white"/>
</clipPath>
</defs>
</svg>
