<svg width="173" height="173" viewBox="0 0 173 173" fill="none" xmlns="http://www.w3.org/2000/svg">
<g clip-path="url(#clip0_111_4669)">
<path d="M0 0H173V173H0V0Z" fill="#56C02B"/>
<path d="M52.2708 121.104C51.9143 120.997 51.5577 120.89 51.219 120.836C51.219 120.836 51.6112 120.961 52.2708 121.104Z" fill="white"/>
<path d="M58.1895 27.526C57.0842 27.526 56.282 27.2229 55.7471 26.6168C55.2301 26.0106 54.9627 25.1549 54.9627 24.0317V23.586H57.0842V24.0496C57.102 24.6379 57.1912 25.0657 57.3516 25.3332C57.5121 25.6006 57.7973 25.7432 58.2074 25.7432C58.4035 25.7432 58.5639 25.7075 58.6887 25.6541C58.8313 25.5827 58.9383 25.5114 59.0096 25.4045C59.0809 25.2975 59.1522 25.1549 59.1879 24.9944C59.2235 24.8162 59.2592 24.6379 59.277 24.4774C59.2949 24.317 59.2948 24.0852 59.2948 23.8178C59.2948 23.1582 59.1701 22.659 58.9026 22.3025C58.6531 21.9637 58.1895 21.7676 57.5299 21.7141C57.4764 21.7141 57.2981 21.7141 56.9951 21.7141V20.181H57.4764C58.1539 20.1453 58.6174 19.9849 58.8848 19.664C59.1522 19.3431 59.277 18.8617 59.277 18.2199C59.277 17.6851 59.1879 17.275 58.9918 16.9898C58.7957 16.7046 58.4926 16.5619 58.0647 16.5619C57.2981 16.5619 56.8703 17.1146 56.8346 18.2199V18.7547H54.7131V18.1843C54.7131 17.1502 55.0162 16.3302 55.6045 15.7419C56.1928 15.1535 57.0129 14.8683 58.0469 14.8683C59.0988 14.8683 59.9188 15.1535 60.5071 15.724C61.0954 16.2945 61.3985 17.0968 61.3985 18.1486C61.3985 18.8439 61.2559 19.4322 60.9528 19.9135C60.6498 20.3949 60.2575 20.698 59.7584 20.8406C60.8637 21.215 61.4164 22.1955 61.4164 23.7822C61.4164 24.9588 61.1489 25.868 60.6498 26.5276C60.1149 27.1872 59.3127 27.526 58.1895 27.526Z" fill="white"/>
<path d="M62.2898 27.3477L64.8035 15.0109H67.1568L69.6526 27.3477H67.5668L67.0676 24.4774H64.9283L64.4291 27.3477H62.2898ZM65.1601 23.0156H66.818L65.998 17.9525L65.1601 23.0156Z" fill="white"/>
<path d="M70.0984 27.3477L72.5764 20.8049L70.1697 15.0109H72.2734L73.8779 18.8439L75.2506 15.0109H77.2295L74.8406 21.1971L77.4077 27.3477H75.3041L73.5748 23.2117L72.0594 27.3477H70.0984Z" fill="white"/>
<path d="M78.4954 27.3477V15.0109H80.3673V22.7303L83.7189 15.0109H85.2521V27.3477H83.3623V19.4857L80.0107 27.3477H78.4954Z" fill="white"/>
<path d="M90.4398 27.5081C89.905 27.5081 89.4414 27.4368 89.0314 27.312C88.6214 27.1694 88.2826 26.9911 88.0152 26.7594C87.7478 26.5276 87.5339 26.2245 87.3734 25.868C87.213 25.5114 87.0882 25.1371 87.0169 24.727C86.9456 24.317 86.9099 23.8713 86.9099 23.3543V19.0578C86.9099 18.523 86.9456 18.0416 87.0169 17.6316C87.0882 17.2216 87.1952 16.8293 87.3734 16.4728C87.5517 16.1162 87.7478 15.831 88.0152 15.5992C88.2826 15.3675 88.6214 15.1892 89.0136 15.0644C89.4236 14.9396 89.8871 14.8683 90.422 14.8683C91.0459 14.8683 91.5629 14.9574 92.0086 15.1179C92.4365 15.2783 92.7931 15.5279 93.0426 15.8488C93.2922 16.1697 93.4883 16.5441 93.5953 16.9541C93.7023 17.382 93.7736 17.8812 93.7736 18.4338V19.4857H91.6164V18.4338C91.6164 17.8099 91.5808 17.3998 91.5273 17.1859C91.4025 16.7759 91.0816 16.5441 90.5824 16.5084C90.5468 16.5084 90.5111 16.5084 90.4576 16.5084C90.2615 16.5084 90.1011 16.5263 89.9584 16.5798C89.8158 16.6154 89.7089 16.6867 89.6197 16.7937C89.5306 16.8828 89.4593 16.9898 89.4058 17.0968C89.3523 17.2037 89.3167 17.3464 89.281 17.5246C89.2453 17.7029 89.2275 17.8634 89.2275 18.006C89.2275 18.1486 89.2097 18.3447 89.2097 18.5765V23.8C89.2097 24.5309 89.2988 25.0479 89.4771 25.351C89.6554 25.6541 89.9763 25.8145 90.4398 25.8145C90.6002 25.8145 90.7429 25.7967 90.8677 25.761C90.9925 25.7254 91.0816 25.6719 91.1707 25.6184C91.2599 25.5649 91.3134 25.4758 91.3847 25.3688C91.4381 25.2618 91.4916 25.1549 91.5095 25.0657C91.5451 24.9766 91.5629 24.8518 91.5808 24.6735C91.5986 24.5131 91.5986 24.3705 91.5986 24.2635C91.5986 24.1565 91.5986 23.9961 91.5986 23.8V22.6947H93.7557V23.7108C93.7557 24.1744 93.7201 24.5844 93.6666 24.9588C93.6131 25.3332 93.4883 25.6719 93.3279 25.9928C93.1674 26.3137 92.9713 26.5811 92.7217 26.795C92.4722 27.009 92.1513 27.1694 91.7769 27.2942C91.4025 27.419 90.939 27.5081 90.4398 27.5081Z" fill="white"/>
<path d="M96.5192 27.3477V16.6689H94.4512V15.0109H100.762V16.6689H98.7655V27.3477H96.5192Z" fill="white"/>
<path d="M55.2837 47.8496V35.5128H60.4537V37.0995H57.53V40.6472H59.8298V42.2338H57.53V46.2985H60.4894V47.8496H55.2837Z" fill="white"/>
<path d="M61.8086 47.8496V35.5128H64.0549V40.7006H64.5006L66.4973 35.5128H68.7257L66.4081 41.3246L68.904 47.8496H66.6221L64.5006 42.109H64.0549V47.8496H61.8086Z" fill="white"/>
<path d="M73.3788 48.01C72.113 48.01 71.2038 47.6713 70.6511 46.976C70.0985 46.2807 69.8311 45.2824 69.8311 43.9453V39.3992C69.8311 38.7396 69.9024 38.1691 70.0093 37.6878C70.1341 37.2064 70.3302 36.7964 70.6155 36.4398C70.8829 36.0833 71.2573 35.8158 71.7208 35.6554C72.1843 35.4771 72.737 35.388 73.3966 35.388C74.6624 35.388 75.5716 35.7267 76.1242 36.4042C76.6769 37.0816 76.9621 38.08 76.9621 39.3992V43.9453C76.9621 44.5871 76.8908 45.1576 76.766 45.6389C76.6412 46.1203 76.4451 46.5481 76.1599 46.9047C75.8925 47.2612 75.5181 47.5286 75.0546 47.7248C74.5732 47.903 74.0206 48.01 73.3788 48.01ZM72.8083 46.2451C72.9687 46.3164 73.147 46.3342 73.3609 46.3342C73.5749 46.3342 73.771 46.2985 73.9136 46.2451C74.074 46.1737 74.181 46.1024 74.288 45.9955C74.3771 45.8885 74.4484 45.7637 74.5019 45.5854C74.5554 45.4072 74.5911 45.2467 74.6089 45.0863C74.6267 44.9258 74.6267 44.7119 74.6267 44.4801V38.8644C74.6267 38.5613 74.6089 38.3117 74.5911 38.1156C74.5732 37.9195 74.5019 37.7234 74.4128 37.563C74.3236 37.3847 74.1988 37.2599 74.0206 37.1708C73.8423 37.0816 73.6284 37.046 73.3609 37.046C73.0935 37.046 72.8796 37.0816 72.7013 37.1708C72.523 37.2599 72.3982 37.3847 72.3091 37.563C72.22 37.7412 72.1665 37.9195 72.1308 38.1156C72.0952 38.3117 72.0773 38.5613 72.0773 38.8644V44.4623C72.0773 44.694 72.0773 44.8901 72.0952 45.0684C72.113 45.2467 72.1487 45.4072 72.2021 45.5676C72.2556 45.728 72.3269 45.8707 72.4161 45.9776C72.5409 46.0846 72.6478 46.1737 72.8083 46.2451Z" fill="white"/>
<path d="M81.8827 48.01C81.3478 48.01 80.8843 47.9387 80.4743 47.8139C80.0642 47.6891 79.7255 47.493 79.4581 47.2612C79.1907 47.0295 78.9767 46.7264 78.8163 46.3699C78.6559 46.0133 78.5311 45.6389 78.4597 45.2289C78.3884 44.8188 78.3528 44.3732 78.3528 43.8561V39.5597C78.3528 39.0248 78.3884 38.5435 78.4597 38.1335C78.5311 37.7234 78.638 37.3312 78.8163 36.9747C78.9946 36.6181 79.1907 36.3329 79.4581 36.1011C79.7255 35.8693 80.0642 35.6911 80.4565 35.5663C80.8665 35.4415 81.33 35.3702 81.8648 35.3702C82.4888 35.3702 83.0058 35.4593 83.4515 35.6197C83.8794 35.7802 84.2359 36.0298 84.4855 36.3507C84.7351 36.6716 84.9312 37.046 85.0382 37.456C85.1451 37.8839 85.2164 38.383 85.2164 38.9357V39.9875H83.0593V38.9357C83.0593 38.3117 83.0236 37.9017 82.9702 37.6878C82.8454 37.2777 82.5245 37.046 82.0253 37.0103C81.9896 37.0103 81.954 37.0103 81.9005 37.0103C81.7044 37.0103 81.5439 37.0281 81.4013 37.0816C81.2587 37.1173 81.1517 37.1886 81.0626 37.2956C80.9735 37.3847 80.9021 37.4917 80.8487 37.5986C80.7952 37.7056 80.7595 37.8482 80.7239 38.0265C80.6882 38.2048 80.6882 38.3652 80.6704 38.5078C80.6704 38.6505 80.6526 38.8466 80.6526 39.0783V44.3018C80.6526 45.0328 80.7417 45.5498 80.92 45.8528C81.0982 46.1559 81.4191 46.3164 81.8827 46.3164C82.0431 46.3164 82.1857 46.2985 82.3105 46.2629C82.4353 46.2272 82.5245 46.1737 82.6136 46.1203C82.7027 46.0668 82.7562 45.9776 82.8275 45.8707C82.881 45.7637 82.9345 45.6567 82.9523 45.5676C82.988 45.4785 83.0058 45.3537 83.0236 45.1754C83.0415 44.9971 83.0415 44.8723 83.0415 44.7654C83.0415 44.6584 83.0415 44.4979 83.0415 44.3018V43.1965H85.1986V44.2127C85.1986 44.6762 85.163 45.0863 85.1095 45.4606C85.056 45.835 84.9312 46.1737 84.7708 46.4946C84.6103 46.8155 84.4142 47.083 84.1646 47.2969C83.915 47.5108 83.5941 47.6713 83.2197 47.7961C82.8454 47.9387 82.3997 48.01 81.8827 48.01Z" fill="white"/>
<path d="M86.803 47.8496V35.5128H88.6749V43.2322L92.0265 35.5128H93.5597V47.8496H91.6699V39.9875L88.3183 47.8496H86.803Z" fill="white"/>
<path d="M98.7298 48.01C98.195 48.01 97.7315 47.9387 97.3214 47.8139C96.9114 47.6713 96.5727 47.493 96.3053 47.2612C96.0379 47.0295 95.8239 46.7264 95.6635 46.3699C95.503 46.0133 95.3782 45.6389 95.3069 45.2289C95.2356 44.8188 95.2 44.3732 95.2 43.8561V39.5597C95.2 39.0248 95.2356 38.5435 95.3069 38.1335C95.3782 37.7234 95.4852 37.3312 95.6635 36.9747C95.8417 36.6181 96.0379 36.3329 96.3053 36.1011C96.5727 35.8693 96.9114 35.6911 97.3036 35.5663C97.6958 35.4415 98.1772 35.3702 98.712 35.3702C99.336 35.3702 99.853 35.4593 100.299 35.6197C100.727 35.7802 101.083 36.0298 101.333 36.3507C101.582 36.6716 101.778 37.046 101.885 37.456C101.992 37.8839 102.064 38.383 102.064 38.9357V39.9875H99.9065V38.9357C99.9065 38.3117 99.8708 37.9017 99.8173 37.6878C99.6925 37.2777 99.3716 37.046 98.8725 37.0103C98.8368 37.0103 98.8011 37.0103 98.7477 37.0103C98.5516 37.0103 98.3911 37.0281 98.2485 37.0816C98.1059 37.1173 97.9989 37.1886 97.9098 37.2956C97.8206 37.3847 97.7493 37.4917 97.6958 37.5986C97.6423 37.7056 97.6067 37.8482 97.571 38.0265C97.5354 38.2048 97.5176 38.3652 97.5176 38.5078C97.5176 38.6505 97.4997 38.8466 97.4997 39.0783V44.3018C97.4997 45.0328 97.5889 45.5498 97.7671 45.8528C97.9454 46.1559 98.2663 46.3164 98.7298 46.3164C98.8903 46.3164 99.0329 46.2985 99.1577 46.2629C99.2825 46.2272 99.3716 46.1737 99.4608 46.1203C99.5499 46.0668 99.6034 45.9776 99.6747 45.8707C99.7282 45.7637 99.7817 45.6567 99.7995 45.5676C99.8351 45.4785 99.853 45.3537 99.8708 45.1754C99.8886 45.0149 99.8886 44.8723 99.8886 44.7654C99.8886 44.6584 99.8886 44.4979 99.8886 44.3018V43.1965H102.046V44.2127C102.046 44.6762 102.01 45.0863 101.957 45.4606C101.903 45.835 101.778 46.1737 101.618 46.4946C101.457 46.8155 101.261 47.083 101.012 47.2969C100.762 47.5108 100.441 47.6713 100.067 47.7961C99.6925 47.9209 99.2468 48.01 98.7298 48.01Z" fill="white"/>
<path d="M104.827 47.8496V37.1708H102.759V35.5128H109.07V37.1708H107.073V47.8496H104.827Z" fill="white"/>
<path d="M110.05 47.8496V35.5128H115.22V37.0995H112.314V40.6472H114.614V42.2338H112.314V46.2985H115.274V47.8496H110.05Z" fill="white"/>
<path d="M116.54 47.8496L116.736 35.5128H118.946L120.836 43.8205L122.761 35.5128H124.919L125.133 47.8496H123.457L123.332 39.8449L121.442 47.8496H120.266L118.34 39.8271L118.233 47.8496H116.54Z" fill="white"/>
<path d="M133.993 48.01C133.458 48.01 132.995 47.9387 132.585 47.8139C132.175 47.6713 131.836 47.493 131.568 47.2612C131.301 47.0295 131.087 46.7264 130.927 46.3699C130.766 46.0133 130.641 45.6389 130.57 45.2289C130.499 44.8188 130.463 44.3732 130.463 43.8561V39.5597C130.463 39.0248 130.499 38.5435 130.57 38.1335C130.641 37.7234 130.748 37.3312 130.927 36.9747C131.105 36.6181 131.301 36.3329 131.568 36.1011C131.836 35.8693 132.175 35.6911 132.567 35.5663C132.977 35.4415 133.44 35.3702 133.975 35.3702C134.581 35.3702 135.116 35.4593 135.544 35.6197C135.972 35.7802 136.328 36.0298 136.578 36.3507C136.828 36.6716 137.024 37.046 137.131 37.456C137.238 37.8839 137.309 38.383 137.309 38.9357V39.9875H135.152V38.9357C135.152 38.3117 135.116 37.9017 135.063 37.6878C134.938 37.2777 134.617 37.046 134.118 37.0103C134.082 37.0103 134.047 37.0103 133.993 37.0103C133.797 37.0103 133.636 37.0281 133.494 37.0816C133.351 37.1173 133.244 37.1886 133.155 37.2956C133.066 37.3847 132.995 37.4917 132.941 37.5986C132.888 37.7056 132.852 37.8482 132.816 38.0265C132.799 38.2048 132.781 38.3652 132.763 38.5078C132.763 38.6505 132.745 38.8466 132.745 39.0783V44.3018C132.745 45.0328 132.834 45.5498 133.012 45.8528C133.191 46.1559 133.512 46.3164 133.975 46.3164C134.136 46.3164 134.278 46.2985 134.403 46.2629C134.528 46.2272 134.617 46.1737 134.706 46.1203C134.795 46.0668 134.849 45.9776 134.92 45.8707C134.974 45.7637 135.027 45.6567 135.045 45.5676C135.081 45.4785 135.098 45.3537 135.116 45.1754C135.134 45.0149 135.134 44.8723 135.134 44.7654C135.134 44.6584 135.134 44.4979 135.134 44.3018V43.1965H137.291V44.2127C137.291 44.6762 137.255 45.0863 137.202 45.4606C137.149 45.835 137.024 46.1737 136.863 46.4946C136.703 46.8155 136.507 47.083 136.257 47.2969C136.008 47.5108 135.687 47.6713 135.294 47.7961C134.956 47.9387 134.492 48.01 133.993 48.01Z" fill="white"/>
<path d="M138.753 50.0067V48.42C139.716 48.4914 140.34 48.3844 140.625 48.117C140.91 47.8317 140.964 47.3147 140.803 46.566L138.254 35.5128H140.358L141.374 40.6472L141.909 44.284L142.354 40.665L143.228 35.5306H145.367L143.032 46.7621C142.871 47.5465 142.729 48.0991 142.604 48.4379C142.479 48.7766 142.283 49.0975 141.98 49.4184C141.677 49.7393 141.285 49.9176 140.803 49.9889C140.322 50.0602 139.627 50.0602 138.753 50.0067Z" fill="white"/>
<path d="M146.455 47.8496V35.5128H148.63V46.2451H150.466V35.5128H152.641V46.2451H154.388V35.5128H156.563V47.8496H146.455Z" fill="white"/>
<path d="M158.453 47.8496V35.5128H160.663V47.8496H158.453Z" fill="white"/>
<path d="M14.4226 48.01V21.4646L9.48438 23.1582V18.4338C10.6075 17.9881 11.802 17.4177 13.1034 16.758C14.3692 16.0984 15.2962 15.4388 15.8667 14.8148H20.7693V48.01H14.4226Z" fill="white"/>
<path d="M37.6879 48.5448C36.3152 48.5448 35.1207 48.3844 34.1045 48.0635C33.0884 47.7426 32.2683 47.2969 31.6265 46.7264C30.9847 46.1559 30.4855 45.4428 30.1111 44.5514C29.7368 43.6779 29.4693 42.733 29.3267 41.7525C29.1841 40.772 29.1128 39.6132 29.1128 38.3117H35.2812C35.2812 39.2744 35.3168 40.0588 35.3881 40.6828C35.4595 41.3068 35.5842 41.8594 35.7625 42.3586C35.9408 42.8578 36.226 43.2322 36.6004 43.4639C36.9392 43.6779 37.4027 43.7848 37.9375 43.7848H38.0445C38.3475 43.767 38.6328 43.7314 38.8824 43.6422C39.132 43.5709 39.3459 43.4283 39.5063 43.2144C39.6846 43.0182 39.8272 42.8221 39.952 42.6082C40.0768 42.4121 40.1838 42.1269 40.2551 41.7525C40.3264 41.3781 40.3799 41.0572 40.4334 40.7541C40.4869 40.4689 40.5047 40.0588 40.5403 39.524C40.5582 38.9892 40.576 38.5435 40.576 38.1691C40.576 37.7947 40.5938 37.2956 40.5938 36.6359C40.5938 36.012 40.576 35.4593 40.5582 34.9958C40.5225 34.5323 40.4869 34.0509 40.4334 33.5696C40.3799 33.0882 40.2729 32.6782 40.1481 32.3573C40.0233 32.0364 39.8451 31.7333 39.649 31.4659C39.4529 31.1985 39.2033 31.0024 38.8824 30.8598C38.5615 30.7171 38.2227 30.6637 37.7949 30.6637C36.2974 30.6637 35.3525 31.6442 34.9603 33.6052H29.4872L29.915 14.797H45.2647V20.3058H35.1207L34.7642 27.5438C35.1207 27.1338 35.6912 26.7772 36.44 26.492C37.1887 26.2067 38.0445 26.0106 38.9715 25.9571C39.2033 25.9393 39.435 25.9393 39.649 25.9393C41.8239 25.9393 43.4997 26.7594 44.6764 28.4174C45.96 30.2536 46.6018 32.8743 46.6018 36.2972C46.6018 37.5451 46.5483 38.6683 46.4591 39.6488C46.37 40.6293 46.2096 41.6099 45.9778 42.5547C45.746 43.5174 45.4073 44.3375 44.9794 45.0328C44.5516 45.7281 44.0167 46.352 43.375 46.8869C42.7332 47.4217 41.9309 47.8317 40.986 48.117C40.0055 48.42 38.918 48.5448 37.6879 48.5448Z" fill="white"/>
<path d="M72.4519 116.629C72.6658 116.629 72.8262 116.807 72.8262 117.021V129.679C72.8262 129.893 72.648 130.071 72.4519 130.071H67.3353C67.1214 130.071 66.9609 129.893 66.9609 129.679V117.021C66.9609 116.807 67.1392 116.629 67.3353 116.629H72.4519Z" fill="white"/>
<path d="M128.698 135.49H44.3019C44.0879 135.49 43.9097 135.669 43.9097 135.883V141.035C43.9097 141.249 44.0879 141.409 44.3019 141.409H128.698C128.912 141.409 129.09 141.231 129.09 141.035V135.883C129.09 135.669 128.912 135.49 128.698 135.49Z" fill="white"/>
<path d="M128.698 145.741H44.3019C44.0879 145.741 43.9097 145.92 43.9097 146.116V151.286C43.9097 151.5 44.0879 151.66 44.3019 151.66H128.698C128.912 151.66 129.09 151.482 129.09 151.286V146.116C129.09 145.92 128.912 145.741 128.698 145.741Z" fill="white"/>
<path d="M112.635 102.634C111.584 101.814 108.767 99.8887 105.326 99.8887C102.866 99.8887 100.584 100.851 98.5516 102.777C98.409 102.919 98.3198 103.098 98.3198 103.312V103.775C98.3198 104.007 98.3911 104.221 98.5694 104.346C98.7477 104.488 98.9438 104.542 99.1577 104.488C99.2112 104.488 99.2647 104.47 99.3182 104.453C99.4786 104.399 99.6212 104.31 99.746 104.185C100.192 103.882 101.404 103.49 103.133 103.49C104.916 103.49 108.428 103.971 111.833 107.127L111.905 107.198C112.101 107.394 112.368 107.501 112.635 107.501C112.903 107.501 113.17 107.394 113.349 107.198L113.42 107.127C116.825 103.953 120.337 103.472 122.12 103.472C123.867 103.472 125.061 103.882 125.507 104.167C125.632 104.292 125.774 104.381 125.971 104.453C126.042 104.47 126.256 104.524 126.47 104.47C126.791 104.381 127.005 104.096 127.005 103.775V103.365C127.005 103.169 126.915 102.973 126.773 102.848C124.705 100.887 122.405 99.8887 119.909 99.8887C116.522 99.8708 113.723 101.761 112.635 102.634Z" fill="white"/>
<path d="M107.394 68.9932C107.216 69.0824 107.091 69.2428 107.02 69.4389L106.931 69.7242C106.859 69.9381 106.913 70.1877 107.038 70.366C107.162 70.5442 107.358 70.6334 107.555 70.6512C107.59 70.6512 107.626 70.669 107.662 70.6512C107.804 70.6512 107.947 70.6156 108.072 70.5442C108.143 70.5264 108.303 70.4908 108.589 70.4908C108.963 70.4908 112.368 70.5977 114.614 74.4307L114.65 74.4842C114.775 74.6981 114.971 74.8585 115.185 74.912C115.256 74.9299 115.381 74.9477 115.452 74.9477C115.613 74.9477 115.773 74.912 115.88 74.8407L115.934 74.8229C117.164 74.1989 118.447 73.8959 119.695 73.8959C121.817 73.8959 123.225 74.7694 123.546 75.126C123.617 75.2508 123.706 75.3577 123.831 75.4469C123.903 75.4825 124.027 75.5538 124.099 75.5717C124.134 75.5717 124.188 75.5895 124.223 75.5895H124.295C124.42 75.5895 124.527 75.5717 124.634 75.5003C124.812 75.4112 124.937 75.2508 124.99 75.0725L125.061 74.8229C125.079 74.7516 125.097 74.6981 125.097 74.6268C125.097 74.502 125.061 74.3594 125.008 74.2702C123.368 71.4178 120.997 70.8295 119.285 70.8295C118.019 70.8295 116.896 71.1504 116.255 71.4C115.488 70.366 113.527 68.2088 110.567 68.2088C109.516 68.191 108.464 68.4584 107.394 68.9932Z" fill="white"/>
<path d="M89.5664 81.9717L89.5842 82.3461C89.6021 82.5779 89.7269 82.7918 89.923 82.9166C90.0834 83.0236 90.2973 83.0592 90.4934 83.0057C90.5291 83.0057 90.5826 82.9879 90.6182 82.9701C90.7609 82.9166 90.8857 82.8096 90.9748 82.7027C91.3313 82.4352 92.4901 81.9717 94.1838 81.9717C95.8239 81.9717 98.3198 82.4174 100.851 84.5033L100.905 84.5567C101.083 84.7172 101.315 84.8063 101.564 84.8063H101.618C101.885 84.7885 102.135 84.6637 102.278 84.4854L102.331 84.4141C105.148 81.4369 108.179 80.9912 109.73 80.9912C110.835 80.9912 111.619 81.223 111.922 81.4012C112.047 81.5082 112.172 81.5795 112.368 81.633C112.422 81.6508 112.546 81.6687 112.671 81.6508C112.725 81.6508 112.796 81.633 112.849 81.6152C113.152 81.5082 113.349 81.223 113.331 80.8842L113.313 80.5633C113.295 80.3672 113.206 80.189 113.063 80.0642C111.388 78.6558 109.569 77.9427 107.662 77.9427C104.684 77.9427 102.331 79.6898 101.351 80.5455C100.459 79.9394 98.2663 78.6736 95.717 78.6736C93.4707 78.6736 91.4561 79.6006 89.7269 81.4369C89.6199 81.5795 89.5664 81.7756 89.5664 81.9717Z" fill="white"/>
<path d="M46.8691 88.7463C46.8691 83.7011 50.9695 79.6007 56.0147 79.6007C56.2109 79.6007 56.407 79.6185 56.6031 79.6363C57.0844 73.2362 62.4149 68.191 68.9398 68.191C75.7678 68.191 81.3123 73.7354 81.3123 80.5634C81.3123 82.5066 80.8487 84.325 80.0643 85.9652C86.2505 87.3379 90.9036 92.8467 90.9036 99.4608C90.9036 107.109 84.7173 113.295 77.0693 113.295C76.5166 113.295 58.5998 113.188 58.5998 113.188C53.1801 113.188 48.8124 108.802 48.8124 103.401C48.8124 100.798 49.8285 98.4446 51.4865 96.6975C48.7232 95.1108 46.8691 92.1514 46.8691 88.7463Z" fill="white"/>
</g>
<defs>
<clipPath id="clip0_111_4669">
<rect width="173" height="173" fill="white"/>
</clipPath>
</defs>
</svg>
