<svg width="173" height="173" viewBox="0 0 173 173" fill="none" xmlns="http://www.w3.org/2000/svg">
<g clip-path="url(#clip0_111_4668)">
<path d="M0 0H173V173H0V0Z" fill="#00689D"/>
<path d="M114.971 76.7483C114.971 76.7483 113.277 78.9946 113.776 81.1696C114.276 83.3624 116.754 84.646 116.754 84.646C116.754 84.646 118.447 82.3997 117.948 80.2247C117.449 78.0319 114.971 76.7483 114.971 76.7483Z" fill="white"/>
<path d="M112.225 89.5307C112.225 89.5307 113.919 87.2844 113.42 85.1095C112.921 82.9167 110.443 81.6331 110.443 81.6331C110.443 81.6331 108.749 83.8793 109.248 86.0543C109.729 88.2471 112.225 89.5307 112.225 89.5307Z" fill="white"/>
<path d="M119.16 87.1415C119.16 87.1415 120.943 88.9421 122.976 88.7638C125.008 88.5856 126.505 86.4997 126.505 86.4997C126.505 86.4997 124.723 84.6991 122.69 84.8774C120.658 85.0557 119.16 87.1415 119.16 87.1415Z" fill="white"/>
<path d="M122.066 77.5327C120.408 79.2085 120.64 82.1679 120.64 82.1679C120.64 82.1679 123.546 82.4174 125.204 80.7416C126.862 79.0658 126.63 76.1064 126.63 76.1064C126.63 76.1064 123.724 75.8747 122.066 77.5327Z" fill="white"/>
<path d="M118.429 93.7916C120.444 94.0233 122.351 92.294 122.351 92.294C122.351 92.294 120.979 90.1725 118.964 89.9408C116.932 89.709 115.042 91.4383 115.042 91.4383C115.042 91.4383 116.415 93.5598 118.429 93.7916Z" fill="white"/>
<path d="M120.23 126.309H105.112C103.936 126.309 102.973 127.272 102.973 128.449C102.973 129.625 103.936 130.588 105.112 130.588H120.23C121.407 130.588 122.369 129.625 122.369 128.449C122.369 127.254 121.407 126.309 120.23 126.309Z" fill="white"/>
<path d="M120.23 149.86H105.112C103.936 149.86 102.973 150.822 102.973 151.999C102.973 153.176 103.936 154.138 105.112 154.138H120.23C121.407 154.138 122.369 153.176 122.369 151.999C122.369 150.822 121.407 149.86 120.23 149.86Z" fill="white"/>
<path d="M52.2708 121.104C51.9143 120.997 51.5577 120.89 51.219 120.836C51.219 120.836 51.6112 120.961 52.2708 121.104Z" fill="white"/>
<path d="M76.766 130.356C77.7643 130.374 78.7627 130.338 79.761 130.267V138.165L76.766 138.093V130.356ZM119.677 132.068H105.665C104.987 132.068 104.452 132.62 104.452 133.28V137.523L95.3068 138.521L81.9538 138.218V130.071C83.7188 129.839 85.5015 129.483 87.2665 129.001C100.12 125.364 102.919 117.36 102.652 110.015C102.367 102.527 104.773 99.6212 108.214 98.3197C109.195 97.9454 110.175 97.7136 111.066 97.571C111.102 99.4072 111.477 101.547 112.297 104.096C112.6 104.078 112.903 104.06 113.206 104.025C112.332 101.422 111.958 99.2646 111.94 97.4462C113.723 97.2322 114.989 97.357 114.989 97.357C114.989 97.357 113.776 96.7152 112.083 95.289C112.653 91.7413 114.775 89.5663 116.95 87.3379C118.144 86.1078 119.374 84.842 120.355 83.3445L119.588 82.8631C118.661 84.2893 117.467 85.5194 116.29 86.7139C114.168 88.8889 112.029 91.0995 111.298 94.6294C110.603 94.0054 109.854 93.2745 109.088 92.4188C105.914 88.871 101.832 91.4739 96.0199 96.8935C90.1902 102.313 82.8809 102.491 75.732 95.1821C66.3011 85.5194 58.0647 85.5729 52.4312 86.1256C56.2998 87.7657 57.6369 91.3848 59.5979 100.548C61.6481 110.175 66.8003 114.525 73.8779 115.131C70.5976 115.666 69.7597 116.112 64.4827 119.749C60.3645 122.583 54.5883 121.692 52.2351 121.157C56.5315 122.494 61.6303 127.022 66.1942 128.591C68.8505 129.5 71.6494 130.071 74.5197 130.303V138.111L49.1865 137.559V143.014L95.2711 141.998L104.417 143.014V147.257C104.417 147.934 104.952 148.469 105.629 148.469H119.642C120.319 148.469 120.854 147.916 120.854 147.257V133.369C120.89 132.62 120.355 132.068 119.677 132.068Z" fill="white"/>
<path d="M47.9208 142.051C47.9208 143.192 47.1186 144.137 46.1381 144.137H45.0684C44.0879 144.137 43.2678 143.21 43.2678 142.051V138.289C43.2678 137.131 44.0701 136.204 45.0684 136.204H46.1381C47.1186 136.204 47.9208 137.131 47.9208 138.289V142.051Z" fill="white"/>
<path d="M55.0698 24.4774L55.2303 14.7079H56.9774L58.4749 21.2684L60.0081 14.7079H61.7196L61.88 24.4774H60.5608L60.4716 18.1486L58.9741 24.4774H58.0471L56.5139 18.1308L56.4247 24.4774H55.0698Z" fill="white"/>
<path d="M63.3418 24.4774V14.7079H64.8215V20.8049L67.4778 14.7079H68.6901V24.4774H67.1926V18.2556L64.5363 24.4774H63.3418Z" fill="white"/>
<path d="M70.1521 24.4774V14.7079H72.9689C74.6269 14.7079 75.4648 15.6349 75.4648 17.489C75.4648 18.3982 75.233 19.0578 74.7873 19.4857C74.3238 19.9135 73.682 20.1096 72.8619 20.1096H71.9349V24.4774H70.1521ZM71.9349 18.8617H72.5054C73.0045 18.8617 73.3433 18.7547 73.5215 18.5586C73.6998 18.3625 73.789 17.9882 73.789 17.4711C73.789 17.1681 73.7711 16.9363 73.7533 16.7759C73.7355 16.6154 73.682 16.455 73.5928 16.3302C73.5037 16.1876 73.3789 16.0984 73.2006 16.0449C73.0224 15.9914 72.7906 15.9736 72.5054 15.9736H71.9349V18.8617Z" fill="white"/>
<path d="M76.3917 26.1176L76.2134 25.4936C76.4452 25.4401 76.6413 25.3153 76.7839 25.1371C76.9265 24.9588 76.9978 24.727 76.9978 24.4596H76.1243V22.8729H77.7466V24.3526C77.7466 25.351 77.3009 25.9393 76.3917 26.1176Z" fill="white"/>
<path d="M57.7084 40.8076C57.2805 40.8076 56.9239 40.7541 56.6031 40.6471C56.2822 40.5402 56.0147 40.3976 55.8008 40.2015C55.5869 40.0054 55.4264 39.7736 55.2838 39.5062C55.1412 39.2388 55.052 38.9357 54.9986 38.6148C54.9451 38.2939 54.9272 37.9373 54.9272 37.5273V34.1222C54.9272 33.6943 54.9629 33.32 55.0164 32.9991C55.0699 32.6782 55.159 32.3751 55.3016 32.0899C55.4264 31.8046 55.6047 31.5729 55.8186 31.3946C56.0326 31.2163 56.3 31.0737 56.6209 30.9667C56.9418 30.8597 57.3162 30.8063 57.744 30.8063C58.2254 30.8063 58.6532 30.8776 58.992 31.0024C59.3307 31.1272 59.6159 31.3233 59.812 31.5728C60.0081 31.8224 60.1508 32.1077 60.2399 32.4464C60.329 32.7851 60.3825 33.1773 60.3825 33.623V34.4609H58.6711V33.623C58.6711 33.1417 58.6532 32.803 58.5998 32.6425C58.4928 32.3216 58.2432 32.1433 57.851 32.1077C57.8153 32.1077 57.7797 32.1077 57.7619 32.1077C57.6192 32.1077 57.4766 32.1255 57.3696 32.1612C57.2627 32.1968 57.1735 32.2503 57.1022 32.3216C57.0309 32.3929 56.9774 32.4821 56.924 32.5712C56.8883 32.6603 56.8526 32.7673 56.8348 32.9099C56.817 33.0525 56.7992 33.1773 56.7992 33.3021V33.7478V37.8839C56.7992 38.4543 56.8705 38.8644 57.0131 39.114C57.1557 39.3636 57.4053 39.4883 57.7797 39.4883C57.9045 39.4883 58.0114 39.4705 58.1184 39.4527C58.2075 39.417 58.2967 39.3814 58.368 39.3457C58.4393 39.2922 58.4928 39.2388 58.5284 39.1496C58.5819 39.0605 58.5998 38.9892 58.6354 38.9179C58.6532 38.8466 58.6711 38.7396 58.6889 38.6148C58.7067 38.49 58.7067 38.383 58.7067 38.2761C58.7067 38.1869 58.7067 38.0621 58.7067 37.9017V37.0281H60.4182V37.8304C60.4182 38.1869 60.4003 38.5257 60.3469 38.8109C60.2934 39.0961 60.2042 39.3814 60.0795 39.631C59.9547 39.8806 59.7942 40.0945 59.5981 40.2728C59.402 40.4332 59.1524 40.5758 58.8493 40.665C58.475 40.7541 58.1184 40.8076 57.7084 40.8076Z" fill="white"/>
<path d="M61.5769 40.6828V30.9132H67.2105V40.6828H65.4455V32.179H63.324V40.6828H61.5769Z" fill="white"/>
<path d="M68.6902 40.6828V30.9132H71.507C73.1649 30.9132 74.0028 31.8403 74.0028 33.6943C74.0028 34.6036 73.7711 35.2632 73.3254 35.691C72.8619 36.1189 72.2201 36.315 71.4 36.315H70.473V40.6828H68.6902ZM70.4551 35.0849H71.0256C71.5248 35.0849 71.8635 34.9779 72.0418 34.7818C72.2201 34.5857 72.3092 34.2113 72.3092 33.6943C72.3092 33.3913 72.2914 33.1595 72.2736 32.9991C72.2557 32.8386 72.2022 32.6782 72.1131 32.5534C72.024 32.4108 71.8992 32.3216 71.7209 32.2681C71.5426 32.2146 71.3109 32.1968 71.0256 32.1968H70.4551V35.0849Z" fill="white"/>
<path d="M74.2524 40.6828L76.2313 30.9132H78.0854L80.0643 40.6828H78.4063L78.0141 38.4187H76.3205L75.9282 40.6828H74.2524ZM76.5166 37.2599H77.818L77.1584 33.2487L76.5166 37.2599Z" fill="white"/>
<path d="M81.0449 40.6828V30.9132H83.4338C83.8795 30.9132 84.2717 30.9489 84.6105 31.038C84.9492 31.1093 85.2523 31.2519 85.5018 31.4302C85.7693 31.6085 85.9654 31.8759 86.0902 32.1968C86.215 32.5355 86.2863 32.9278 86.2863 33.3913C86.2863 34.6036 85.8049 35.2632 84.86 35.4058C86.001 35.6197 86.5715 36.422 86.5715 37.8304C86.5715 38.7574 86.3397 39.4705 85.8762 39.934C85.4127 40.4154 84.7353 40.6471 83.826 40.6471H81.0449V40.6828ZM82.8099 34.9066H83.3625C83.8795 34.9066 84.2539 34.7997 84.45 34.5679C84.6461 34.354 84.7531 33.9618 84.7531 33.4448C84.7531 33.1773 84.7174 32.9456 84.6639 32.7673C84.5926 32.589 84.4857 32.4642 84.3431 32.3751C84.1826 32.286 84.0222 32.2325 83.826 32.1968C83.6299 32.1612 83.3982 32.1612 83.0773 32.1612H82.8277V34.9066H82.8099ZM82.8099 39.4349H83.4695C84.0043 39.4349 84.3787 39.3101 84.5748 39.0605C84.7709 38.8109 84.8779 38.4009 84.8779 37.8304C84.8779 37.2421 84.7709 36.8142 84.5391 36.5468C84.3074 36.2794 83.9152 36.1546 83.3804 36.1546H82.8277V39.4349H82.8099Z" fill="white"/>
<path d="M87.7302 40.6828V30.9132H91.8128V32.1612H89.4952V34.9601H91.3136V36.208H89.4952V39.4349H91.8306V40.665H87.7302V40.6828Z" fill="white"/>
<path d="M92.2942 42.626V39.417H92.6864C92.9003 39.2922 93.0786 39.114 93.2391 38.9179C93.3995 38.7039 93.5421 38.4009 93.7026 38.0086C93.863 37.6164 93.97 37.0816 94.077 36.422C94.1839 35.7445 94.2552 34.9423 94.3087 34.0152L94.487 30.931H98.837V39.4349H99.871V42.6438H98.6052L98.4804 40.7006H93.7026L93.5778 42.6438H92.2942V42.626ZM94.3265 39.417H97.1255V32.1968H95.9132L95.8241 34.2827C95.8062 34.8175 95.7706 35.3167 95.7171 35.7624C95.6636 36.208 95.628 36.5824 95.5745 36.8855C95.521 37.1886 95.4497 37.4738 95.3784 37.7412C95.2892 38.0086 95.2179 38.2047 95.1645 38.3474C95.111 38.49 95.0218 38.6504 94.897 38.7931C94.7722 38.9535 94.6831 39.0605 94.6296 39.114C94.5761 39.1674 94.4692 39.2922 94.3265 39.417Z" fill="white"/>
<path d="M100.138 40.6828V39.3992C100.334 39.3992 100.495 39.3992 100.602 39.3814C100.727 39.3636 100.833 39.3101 100.958 39.2388C101.083 39.1674 101.172 39.0427 101.226 38.9C101.297 38.7574 101.35 38.5435 101.422 38.2761C101.493 38.0086 101.547 37.6877 101.582 37.3134C101.618 36.939 101.654 36.4755 101.689 35.905L102.01 30.9132H106.77V40.6828H104.987V32.2503H103.561L103.347 36.1011C103.329 36.4933 103.294 36.8498 103.276 37.1351C103.258 37.4203 103.222 37.7234 103.169 38.0265C103.133 38.3295 103.08 38.597 103.026 38.7931C102.973 39.007 102.901 39.2031 102.812 39.417C102.723 39.631 102.634 39.7914 102.509 39.934C102.402 40.0588 102.26 40.1836 102.117 40.3084C101.957 40.4332 101.796 40.5045 101.6 40.5758C101.404 40.6471 101.19 40.665 100.94 40.7006C100.709 40.7006 100.441 40.7006 100.138 40.6828Z" fill="white"/>
<path d="M108.286 40.6828V30.9132H109.765V37.0103L112.422 30.9132H113.634V40.6828H112.136V34.4609L109.48 40.6828H108.286Z" fill="white"/>
<path d="M115.114 40.6828V30.9132H117.502C117.948 30.9132 118.34 30.9489 118.679 31.038C119.018 31.1093 119.321 31.2519 119.57 31.4302C119.838 31.6085 120.034 31.8759 120.159 32.1968C120.284 32.5355 120.355 32.9278 120.355 33.3913C120.355 34.6036 119.874 35.2632 118.929 35.4058C120.07 35.6197 120.64 36.422 120.64 37.8304C120.64 38.7574 120.408 39.4705 119.945 39.934C119.481 40.4154 118.804 40.6471 117.895 40.6471H115.114V40.6828ZM116.896 34.9066H117.449C117.966 34.9066 118.34 34.7997 118.536 34.5679C118.733 34.354 118.84 33.9618 118.84 33.4448C118.84 33.1773 118.804 32.9456 118.75 32.7673C118.697 32.589 118.572 32.4642 118.429 32.3751C118.269 32.286 118.109 32.2325 117.912 32.1968C117.716 32.1612 117.485 32.1612 117.164 32.1612H116.914V34.9066H116.896ZM116.896 39.4349H117.556C118.091 39.4349 118.465 39.3101 118.661 39.0605C118.857 38.8109 118.964 38.4009 118.964 37.8304C118.964 37.2421 118.857 36.8142 118.626 36.5468C118.394 36.2794 118.019 36.1546 117.467 36.1546H116.914V39.4349H116.896Z" fill="white"/>
<path d="M121.817 40.6828V30.9132H123.564V40.6828H121.817Z" fill="white"/>
<path d="M127.611 40.8076C127.183 40.8076 126.826 40.7541 126.505 40.6471C126.184 40.5402 125.917 40.3976 125.703 40.2015C125.489 40.0054 125.329 39.7736 125.186 39.5062C125.061 39.2209 124.972 38.9357 124.901 38.6148C124.847 38.2939 124.83 37.9373 124.83 37.5273V34.1222C124.83 33.6943 124.865 33.32 124.919 32.9991C124.972 32.6782 125.061 32.3751 125.204 32.0899C125.347 31.8046 125.507 31.5729 125.721 31.3946C125.935 31.2163 126.202 31.0737 126.523 30.9667C126.844 30.8597 127.219 30.8063 127.646 30.8063C128.128 30.8063 128.556 30.8776 128.894 31.0024C129.233 31.1272 129.518 31.3233 129.714 31.5728C129.91 31.8224 130.053 32.1077 130.142 32.4464C130.231 32.7851 130.285 33.1773 130.285 33.623V34.4609H128.538V33.623C128.538 33.1417 128.52 32.803 128.466 32.6425C128.359 32.3216 128.11 32.1433 127.718 32.1077C127.682 32.1077 127.646 32.1077 127.629 32.1077C127.486 32.1077 127.343 32.1255 127.236 32.1612C127.129 32.1968 127.04 32.2503 126.969 32.3216C126.898 32.3929 126.844 32.4821 126.791 32.5712C126.755 32.6603 126.719 32.7673 126.702 32.9099C126.684 33.0525 126.666 33.1773 126.666 33.3021V33.7478V37.8839C126.666 38.4543 126.737 38.8644 126.88 39.114C127.022 39.3636 127.272 39.4883 127.646 39.4883C127.771 39.4883 127.878 39.4705 127.985 39.4527C128.074 39.417 128.163 39.3814 128.235 39.3457C128.306 39.2922 128.359 39.2388 128.395 39.1496C128.449 39.0605 128.466 38.9892 128.502 38.9179C128.52 38.8466 128.538 38.7396 128.556 38.6148C128.573 38.49 128.573 38.383 128.573 38.2761C128.573 38.1691 128.573 38.0621 128.573 37.9017V37.0281H130.285V37.8304C130.285 38.1869 130.267 38.5257 130.214 38.8109C130.16 39.0961 130.071 39.3814 129.946 39.631C129.821 39.8806 129.661 40.0945 129.465 40.2728C129.269 40.4332 129.019 40.5758 128.716 40.665C128.413 40.7541 128.021 40.8076 127.611 40.8076Z" fill="white"/>
<path d="M132.424 40.6828V32.2325H130.784V30.9132H135.776V32.2325H134.189V40.6828H132.424Z" fill="white"/>
<path d="M136.596 40.6828V30.9132H138.379V34.9958H138.717C139.234 34.9958 139.698 35.0492 140.055 35.1384C140.411 35.2275 140.75 35.388 141.017 35.6019C141.285 35.8158 141.481 36.1011 141.606 36.4755C141.73 36.832 141.802 37.2955 141.802 37.8304C141.802 38.3652 141.73 38.8287 141.588 39.2031C141.445 39.5775 141.249 39.8806 140.964 40.0945C140.678 40.3084 140.358 40.4689 139.983 40.558C139.609 40.6471 139.181 40.7006 138.664 40.7006H136.596V40.6828ZM138.361 39.4705H138.664C138.931 39.4705 139.145 39.4527 139.324 39.3992C139.502 39.3457 139.644 39.2744 139.769 39.1496C139.894 39.0248 139.983 38.8644 140.037 38.6326C140.09 38.4187 140.108 38.1334 140.108 37.7947C140.108 37.2421 140.001 36.8498 139.787 36.6003C139.573 36.3507 139.181 36.2437 138.628 36.2437H138.343V39.4705H138.361Z" fill="white"/>
<path d="M56.0503 56.906V48.4557H54.4102V47.1364H59.4019V48.4557H57.8152V56.906H56.0503Z" fill="white"/>
<path d="M59.6873 56.906L61.6661 47.1364H63.5202L65.4991 56.906H63.8411L63.4489 54.6419H61.7553L61.3631 56.906H59.6873ZM61.9514 53.4831H63.2528L62.5932 49.4719L61.9514 53.4831Z" fill="white"/>
<path d="M72.024 57.0308C71.5962 57.0308 71.2396 56.9773 70.9187 56.8704C70.5978 56.7634 70.3304 56.6208 70.1165 56.4247C69.9025 56.2286 69.7421 55.9968 69.5995 55.7294C69.4569 55.462 69.3677 55.1589 69.3142 54.838C69.2607 54.5171 69.2429 54.1605 69.2429 53.7505V50.3454C69.2429 49.9176 69.2786 49.5432 69.3321 49.2223C69.3855 48.9014 69.4747 48.5983 69.6173 48.3131C69.7421 48.0278 69.9204 47.7961 70.1343 47.6178C70.3482 47.4395 70.6157 47.2969 70.9366 47.1899C71.2575 47.0829 71.6318 47.0295 72.0597 47.0295C72.541 47.0295 72.9689 47.1008 73.3076 47.2256C73.6464 47.3504 73.9316 47.5465 74.1277 47.7961C74.3238 48.0456 74.4664 48.3309 74.5556 48.6696C74.6447 49.0083 74.6982 49.4005 74.6982 49.8462V50.6841H72.9867V49.8462C72.9867 49.3649 72.9689 49.0262 72.9154 48.8657C72.8085 48.5448 72.5589 48.3665 72.1667 48.3309C72.131 48.3309 72.0954 48.3309 72.0775 48.3309C71.9349 48.3309 71.7923 48.3487 71.6853 48.3844C71.5783 48.42 71.4892 48.4735 71.4179 48.5448C71.3466 48.6161 71.2931 48.7053 71.2396 48.7944C71.204 48.8835 71.1683 48.9905 71.1505 49.1331C71.1327 49.2758 71.1148 49.4006 71.1148 49.5253V49.971V54.1071C71.1148 54.6776 71.1861 55.0876 71.3288 55.3372C71.4714 55.5868 71.721 55.7116 72.0953 55.7116C72.2201 55.7116 72.3271 55.6937 72.4341 55.6759C72.5232 55.6402 72.6124 55.6046 72.6837 55.5689C72.755 55.5155 72.8085 55.462 72.8441 55.3728C72.8976 55.2837 72.9154 55.2124 72.9511 55.1411C72.9689 55.0698 72.9867 54.9628 73.0046 54.838C73.0224 54.7132 73.0224 54.6062 73.0224 54.4993C73.0224 54.4101 73.0224 54.2853 73.0224 54.1249V53.2513H74.7338V54.0536C74.7338 54.4101 74.716 54.7489 74.6625 55.0341C74.6091 55.3193 74.5199 55.6046 74.3951 55.8542C74.2703 56.1038 74.1099 56.3177 73.9138 56.496C73.7177 56.6564 73.4681 56.799 73.165 56.8882C72.7728 56.9773 72.4163 57.0308 72.024 57.0308Z" fill="white"/>
<path d="M75.9104 56.906V47.1364H77.3901V53.2335L80.0464 47.1364H81.2587V56.906H79.7612V50.6841L77.1049 56.906H75.9104Z" fill="white"/>
<path d="M82.0251 56.906V55.6224C82.2213 55.6224 82.3817 55.6224 82.4887 55.6046C82.5956 55.5868 82.7204 55.5333 82.8452 55.462C82.97 55.3907 83.0592 55.2659 83.1126 55.1232C83.1839 54.9806 83.2374 54.7667 83.3087 54.4993C83.3801 54.2319 83.4335 53.911 83.4692 53.5366C83.5048 53.1622 83.5405 52.6987 83.5762 52.1282L83.8971 47.1364H88.6571V56.906H86.8743V48.4735H85.4481L85.2341 52.3243C85.2163 52.7165 85.1807 53.0731 85.1628 53.3583C85.145 53.6435 85.1093 53.9466 85.0559 54.2497C85.0202 54.5528 84.9667 54.8202 84.9132 55.0163C84.8598 55.2302 84.7884 55.4263 84.6993 55.6402C84.6102 55.8542 84.521 56.0146 84.3962 56.1572C84.2893 56.282 84.1466 56.4068 84.004 56.5316C83.8436 56.6564 83.6831 56.7277 83.487 56.799C83.2909 56.8525 83.077 56.8882 82.8274 56.9238C82.5956 56.9238 82.3104 56.9238 82.0251 56.906Z" fill="white"/>
<path d="M90.1548 56.906V47.1364H91.9376V51.219H92.2763C92.7933 51.219 93.2568 51.2725 93.6134 51.3616C93.9699 51.4507 94.3086 51.6112 94.5761 51.8251C94.8435 52.039 95.0396 52.3243 95.1644 52.6987C95.2892 53.0552 95.3605 53.5187 95.3605 54.0536C95.3605 54.5884 95.2892 55.0519 95.1465 55.4263C95.0039 55.8007 94.8078 56.1038 94.5226 56.3177C94.2373 56.5316 93.9164 56.6921 93.5421 56.7812C93.1677 56.8704 92.7398 56.9238 92.2228 56.9238H90.1548V56.906ZM91.9376 55.6937H92.2406C92.508 55.6937 92.722 55.6759 92.9003 55.6224C93.0785 55.5689 93.2212 55.4976 93.3459 55.3728C93.4707 55.248 93.5599 55.0876 93.6134 54.8558C93.6668 54.6241 93.6847 54.3566 93.6847 54.0179C93.6847 53.4653 93.5777 53.0731 93.3638 52.8235C93.1498 52.5739 92.7576 52.4669 92.205 52.4669H91.9197V55.6937H91.9376Z" fill="white"/>
<path d="M96.4836 56.906V47.1364H98.2664V51.219H100.245V47.1364H102.028V56.906H100.245V52.4847H98.2664V56.906H96.4836Z" fill="white"/>
<path d="M103.508 56.906V47.1364H105.255V56.906H103.508Z" fill="white"/>
<path d="M109.64 56.906V47.1364H111.387V56.906H109.64Z" fill="white"/>
<path d="M112.849 56.906V47.1364H114.632V51.219H116.611V47.1364H118.394V56.906H116.611V52.4847H114.632V56.906H112.849Z" fill="white"/>
<path d="M122.476 57.0308C122.049 57.0308 121.692 56.9773 121.371 56.8704C121.05 56.7634 120.783 56.6208 120.569 56.4247C120.355 56.2286 120.194 55.9968 120.052 55.7294C119.927 55.4441 119.82 55.1589 119.767 54.838C119.713 54.5171 119.695 54.1605 119.695 53.7505V50.3454C119.695 49.9176 119.731 49.5432 119.784 49.2223C119.838 48.9014 119.927 48.5983 120.07 48.3131C120.194 48.0278 120.373 47.7961 120.587 47.6178C120.801 47.4395 121.068 47.2969 121.389 47.1899C121.71 47.0829 122.084 47.0295 122.494 47.0295C122.976 47.0295 123.403 47.1008 123.742 47.2256C124.081 47.3504 124.366 47.5465 124.562 47.7961C124.758 48.0456 124.901 48.3309 125.008 48.6696C125.097 49.0083 125.151 49.4005 125.151 49.8462V50.6841H123.439V49.8462C123.439 49.3649 123.421 49.0262 123.368 48.8657C123.261 48.5448 123.011 48.3665 122.619 48.3309C122.583 48.3309 122.548 48.3309 122.53 48.3309C122.387 48.3309 122.245 48.3487 122.138 48.3844C122.031 48.42 121.942 48.4735 121.87 48.5448C121.799 48.6161 121.746 48.7053 121.692 48.7944C121.656 48.8835 121.621 48.9905 121.603 49.1331C121.585 49.2758 121.567 49.4006 121.567 49.5253V49.971V54.1071C121.567 54.6776 121.639 55.0876 121.781 55.3372C121.924 55.5868 122.173 55.7116 122.548 55.7116C122.673 55.7116 122.78 55.6937 122.886 55.6759C122.993 55.6581 123.065 55.6046 123.136 55.5689C123.207 55.5155 123.261 55.462 123.297 55.3728C123.35 55.2837 123.368 55.2124 123.403 55.1411C123.421 55.0698 123.439 54.9628 123.457 54.838C123.475 54.7132 123.475 54.6062 123.475 54.4993C123.475 54.4101 123.475 54.2853 123.475 54.1249V53.2513H125.186V54.0536C125.186 54.4101 125.168 54.7489 125.115 55.0341C125.061 55.3193 124.972 55.6046 124.848 55.8542C124.723 56.1038 124.562 56.3177 124.366 56.496C124.17 56.6564 123.92 56.799 123.617 56.8882C123.243 56.9773 122.886 57.0308 122.476 57.0308Z" fill="white"/>
<path d="M127.308 56.906V48.4557H125.667V47.1364H130.659V48.4557H129.073V56.906H127.308Z" fill="white"/>
<path d="M131.461 56.906V47.1364H132.941V53.2335L135.597 47.1364H136.81V56.906H135.312V50.6841L132.656 56.906H131.461Z" fill="white"/>
<path d="M139.234 56.906V48.4557H137.594V47.1364H142.586V48.4557H140.999V56.906H139.234Z" fill="white"/>
<path d="M143.263 58.6175V57.3517C144.012 57.4052 144.511 57.3339 144.743 57.1021C144.975 56.8882 145.01 56.4781 144.886 55.872L142.871 47.1364H144.529L145.331 51.2011L145.759 54.0892L146.116 51.219L146.811 47.1543H148.505L146.651 56.0325C146.526 56.6564 146.419 57.0843 146.312 57.3695C146.223 57.6369 146.062 57.8865 145.813 58.1361C145.581 58.3857 145.26 58.5283 144.886 58.5818C144.493 58.6353 143.959 58.6353 143.263 58.6175Z" fill="white"/>
<path d="M150.305 56.906V48.4557H148.665V47.1364H153.657V48.4557H152.07V56.906H150.305Z" fill="white"/>
<path d="M154.459 56.906V47.1364H155.939V53.2335L158.595 47.1364H159.808V56.906H158.31V50.6841L155.654 56.906H154.459Z" fill="white"/>
<path d="M14.4226 48.01V21.4646L9.48438 23.1582V18.4338C10.6075 17.9881 11.802 17.4177 13.1034 16.758C14.3692 16.0984 15.2962 15.4388 15.8667 14.8148H20.7693V48.01H14.4226Z" fill="white"/>
<path d="M37.9551 48.4557C36.4041 48.4557 35.0492 48.1883 33.8904 47.6356C32.7316 47.083 31.8046 46.3164 31.0915 45.318C30.3962 44.3197 29.8613 43.1609 29.5226 41.8594C29.1839 40.558 29.0056 39.114 29.0056 37.5095V25.9571C29.0056 24.5844 29.0769 23.3365 29.2374 22.249C29.3978 21.1436 29.6831 20.0918 30.0931 19.0935C30.5031 18.0951 31.038 17.2572 31.6976 16.5976C32.3572 15.938 33.213 15.4031 34.2648 15.0109C35.3166 14.6187 36.5467 14.4226 37.9373 14.4226C40.8789 14.4226 43.0182 15.1357 44.3374 16.5441C45.6745 17.9525 46.352 20.074 46.4055 22.8729V23.3899H40.3797C40.3797 21.9102 40.2192 20.8584 39.9162 20.2166C39.6131 19.5748 38.9535 19.2717 37.9729 19.2717C36.9924 19.2717 36.315 19.7531 35.9584 20.7336C35.6019 21.7141 35.4236 23.4791 35.4236 26.0106V29.4157C35.7801 28.8096 36.3328 28.3104 37.0816 27.9717C37.8303 27.6329 38.6861 27.4368 39.6666 27.419H39.7914C40.7719 27.419 41.6455 27.5616 42.4477 27.8647C43.2678 28.1856 43.9631 28.6313 44.5157 29.1839C45.0684 29.7366 45.5141 30.4319 45.8528 31.252C46.1915 32.072 46.4411 32.9456 46.6016 33.8726C46.762 34.7997 46.8333 35.8337 46.8333 36.939C46.8333 38.3295 46.7442 39.5953 46.5659 40.7185C46.3876 41.8594 46.0846 42.9113 45.6567 43.8918C45.2288 44.8723 44.6762 45.6924 44.0165 46.3698C43.3569 47.0473 42.5012 47.5643 41.485 47.9387C40.4332 48.2596 39.2744 48.4557 37.9551 48.4557ZM38.0264 43.6957C38.5256 43.6957 38.9535 43.5709 39.2922 43.3213C39.6309 43.0717 39.8805 42.6795 40.041 42.1447C40.2014 41.6098 40.3262 41.0215 40.3975 40.3976C40.4688 39.7736 40.5045 38.9713 40.5045 38.0443C40.5045 37.4382 40.5045 36.9925 40.4867 36.6894C40.4867 36.3863 40.451 35.9763 40.4332 35.4949C40.3975 35.0136 40.3619 34.6392 40.2905 34.3718C40.2371 34.1044 40.1479 33.8191 40.0231 33.4982C39.8983 33.1773 39.7557 32.9456 39.5774 32.7851C39.3992 32.6247 39.1674 32.4999 38.9 32.3929C38.6326 32.286 38.3295 32.2147 37.9729 32.2147C37.4025 32.2147 36.8855 32.3751 36.4398 32.7138C35.9941 33.0526 35.6375 33.4269 35.4236 33.8726V39.0605C35.4058 42.1269 36.2793 43.6957 38.0264 43.6957Z" fill="white"/>
</g>
<defs>
<clipPath id="clip0_111_4668">
<rect width="173" height="173" fill="white"/>
</clipPath>
</defs>
</svg>
