<svg width="173" height="173" viewBox="0 0 173 173" fill="none" xmlns="http://www.w3.org/2000/svg">
<g clip-path="url(#clip0_111_5339)">
<path d="M0 0H173V173H0V0Z" fill="#241F20"/>
<path d="M52.2708 121.104C51.9143 120.997 51.5577 120.89 51.219 120.836C51.219 120.836 51.6112 120.961 52.2708 121.104Z" fill="white"/>
<path d="M55.2837 27.3477V15.0109H62.4148V27.3477H60.1863V16.6154H57.5122V27.3477H55.2837Z" fill="white"/>
<path d="M63.627 27.3477L66.1407 15.0109H68.4939L70.9898 27.3477H68.904L68.4048 24.4774H66.2655L65.7663 27.3477H63.627ZM66.4972 23.0156H68.1552L67.3351 17.9525L66.4972 23.0156Z" fill="white"/>
<path d="M72.1843 27.3477V15.0109H75.732C77.8357 15.0109 78.8875 16.1876 78.8875 18.523C78.8875 19.664 78.6023 20.5019 78.0318 21.0367C77.4613 21.5715 76.6413 21.8389 75.5894 21.8389H74.4306V27.3477H72.1843ZM74.4306 20.2523H75.1615C75.8033 20.2523 76.2312 20.1275 76.4451 19.8779C76.6591 19.6283 76.7839 19.1648 76.7839 18.5052C76.7839 18.1308 76.766 17.8277 76.7304 17.6138C76.6947 17.3998 76.6234 17.2216 76.5165 17.0433C76.4095 16.865 76.249 16.758 76.0351 16.6867C75.8212 16.6154 75.5359 16.5976 75.1615 16.5976H74.4306V20.2523Z" fill="white"/>
<path d="M81.2765 27.3477V16.6689H79.2085V15.0109H85.5195V16.6689H83.5228V27.3477H81.2765Z" fill="white"/>
<path d="M86.5356 27.3477V15.0109H88.7819V20.1631H91.2956V15.0109H93.5419V27.3477H91.2956V21.7676H88.7819V27.3477H86.5356Z" fill="white"/>
<path d="M95.396 27.3477V15.0109H100.566V16.5976H97.6423V20.1453H99.9421V21.732H97.6423V25.7967H100.602V27.3477H95.396Z" fill="white"/>
<path d="M101.903 27.3477V15.0109H105.451C107.554 15.0109 108.606 16.1876 108.606 18.523C108.606 19.664 108.321 20.5019 107.751 21.0367C107.18 21.5715 106.36 21.8389 105.308 21.8389H104.149V27.3477H101.903ZM104.149 20.2523H104.88C105.522 20.2523 105.95 20.1275 106.164 19.8779C106.378 19.6283 106.503 19.1648 106.503 18.5052C106.503 18.1308 106.485 17.8277 106.449 17.6138C106.413 17.3998 106.342 17.2216 106.235 17.0433C106.128 16.865 105.968 16.758 105.754 16.6867C105.54 16.6154 105.237 16.5976 104.88 16.5976H104.149V20.2523Z" fill="white"/>
<path d="M113.099 27.5082C112.564 27.5082 112.101 27.4368 111.691 27.312C111.281 27.1694 110.942 26.9912 110.674 26.7594C110.407 26.5276 110.193 26.2246 110.033 25.868C109.872 25.5115 109.747 25.1371 109.676 24.727C109.605 24.317 109.569 23.8713 109.569 23.3543V19.0578C109.569 18.523 109.605 18.0416 109.676 17.6316C109.747 17.2216 109.854 16.8294 110.033 16.4728C110.211 16.1163 110.407 15.831 110.674 15.5993C110.942 15.3675 111.281 15.1892 111.673 15.0644C112.083 14.9396 112.546 14.8683 113.081 14.8683C113.687 14.8683 114.222 14.9575 114.65 15.1179C115.078 15.2784 115.434 15.5279 115.684 15.8488C115.934 16.1697 116.13 16.5441 116.237 16.9542C116.344 17.382 116.415 17.8812 116.415 18.4339V19.4857H114.258V18.4339C114.258 17.8099 114.222 17.3999 114.169 17.1859C114.044 16.7759 113.723 16.5441 113.224 16.5085C113.188 16.5085 113.152 16.5085 113.099 16.5085C112.903 16.5085 112.742 16.5263 112.6 16.5798C112.457 16.6154 112.35 16.6867 112.261 16.7937C112.172 16.8828 112.101 16.9898 112.047 17.0968C111.994 17.2037 111.958 17.3464 111.922 17.5246C111.905 17.7029 111.887 17.8634 111.869 18.006C111.869 18.1486 111.851 18.3447 111.851 18.5765V23.8C111.851 24.5309 111.94 25.0479 112.118 25.351C112.297 25.6541 112.618 25.8145 113.081 25.8145C113.242 25.8145 113.384 25.7967 113.509 25.761C113.634 25.7254 113.723 25.6719 113.812 25.6184C113.901 25.5649 113.955 25.4758 114.026 25.3688C114.08 25.2619 114.133 25.1549 114.151 25.0658C114.186 24.9766 114.204 24.8518 114.222 24.6736C114.24 24.5131 114.24 24.3705 114.24 24.2635C114.24 24.1565 114.24 23.9961 114.24 23.8V22.6947H116.397V23.7109C116.397 24.1744 116.361 24.5844 116.308 24.9588C116.254 25.3332 116.13 25.6719 115.969 25.9928C115.809 26.3137 115.613 26.5811 115.363 26.795C115.114 27.009 114.793 27.1694 114.4 27.2942C114.062 27.4368 113.598 27.5082 113.099 27.5082Z" fill="white"/>
<path d="M119.196 27.3477V16.6689H117.128V15.0109H123.439V16.6689H121.442V27.3477H119.196Z" fill="white"/>
<path d="M124.437 27.3477V15.0109H127.468C128.038 15.0109 128.538 15.0644 128.965 15.1714C129.393 15.2783 129.768 15.4388 130.106 15.6705C130.445 15.9023 130.677 16.241 130.855 16.6511C131.016 17.0611 131.105 17.5781 131.087 18.1664C131.087 19.6818 130.481 20.5375 129.286 20.7158C130.73 20.9832 131.461 21.9994 131.461 23.7822C131.461 24.9588 131.176 25.8502 130.588 26.4563C129.999 27.0625 129.144 27.3655 128.003 27.3655H124.437V27.3477ZM126.701 20.0383H127.397C128.056 20.0383 128.52 19.8957 128.769 19.6105C129.019 19.3252 129.144 18.8439 129.144 18.1843C129.144 17.8455 129.108 17.5603 129.019 17.3464C128.93 17.1324 128.805 16.972 128.609 16.865C128.413 16.758 128.199 16.6867 127.967 16.6511C127.735 16.6154 127.414 16.5976 127.022 16.5976H126.701V20.0383ZM126.701 25.761H127.521C128.199 25.761 128.662 25.6006 128.912 25.2975C129.162 24.9944 129.286 24.4774 129.286 23.7465C129.286 22.9977 129.144 22.4629 128.859 22.1242C128.573 21.7855 128.074 21.625 127.397 21.625H126.684V25.761H126.701Z" fill="white"/>
<path d="M136.257 27.5082C134.991 27.5082 134.082 27.1694 133.53 26.4741C132.977 25.7789 132.709 24.7805 132.709 23.4434V18.8974C132.709 18.2377 132.781 17.6673 132.888 17.1859C133.013 16.7046 133.209 16.2945 133.494 15.938C133.779 15.5814 134.136 15.314 134.599 15.1536C135.063 14.9753 135.615 14.8861 136.257 14.8861C137.523 14.8861 138.432 15.2249 138.985 15.9023C139.537 16.5798 139.823 17.5781 139.823 18.8974V23.4434C139.823 24.0852 139.751 24.6557 139.627 25.1371C139.502 25.6184 139.306 26.0463 139.02 26.4028C138.735 26.7594 138.379 27.0268 137.915 27.2229C137.452 27.4012 136.899 27.5082 136.257 27.5082ZM135.687 25.7432C135.847 25.8145 136.025 25.8323 136.239 25.8323C136.453 25.8323 136.649 25.7967 136.792 25.7432C136.935 25.6897 137.077 25.6006 137.166 25.4936C137.256 25.3867 137.327 25.2619 137.38 25.0836C137.434 24.9053 137.469 24.7449 137.487 24.5844C137.505 24.424 137.505 24.21 137.505 23.9783V18.3625C137.505 18.0595 137.487 17.8099 137.469 17.6138C137.452 17.4177 137.38 17.2216 137.291 17.0611C137.202 16.8828 137.077 16.758 136.899 16.6689C136.721 16.5798 136.507 16.5441 136.239 16.5441C135.972 16.5441 135.758 16.5798 135.58 16.6689C135.401 16.758 135.277 16.8828 135.188 17.0611C135.098 17.2394 135.045 17.4177 135.009 17.6138C134.974 17.8099 134.956 18.0595 134.956 18.3625V23.9604C134.956 24.1922 134.956 24.3883 134.974 24.5666C134.991 24.7449 135.027 24.9053 135.081 25.0658C135.134 25.2262 135.205 25.3688 135.294 25.4758C135.384 25.5828 135.526 25.6719 135.687 25.7432Z" fill="white"/>
<path d="M58.1895 48.0278C57.0842 48.0278 56.282 47.7247 55.7471 47.1186C55.2301 46.5125 54.9627 45.6567 54.9627 44.5336V44.0879H57.0842V44.5514C57.102 45.1397 57.1912 45.5676 57.3516 45.835C57.5121 46.1024 57.7973 46.245 58.2074 46.245C58.4035 46.245 58.5639 46.2094 58.6887 46.1559C58.8313 46.0846 58.9383 46.0133 59.0096 45.9063C59.0809 45.7994 59.1522 45.6567 59.1879 45.4963C59.2235 45.318 59.2592 45.1397 59.277 44.9793C59.2949 44.8188 59.2948 44.5871 59.2948 44.3197C59.2948 43.66 59.1701 43.1609 58.9026 42.8043C58.6531 42.4656 58.1895 42.2695 57.5299 42.216C57.4764 42.216 57.2981 42.216 56.9951 42.216V40.6828H57.4764C58.1539 40.6471 58.6174 40.4867 58.8848 40.1658C59.1522 39.8449 59.277 39.3636 59.277 38.7218C59.277 38.1869 59.1879 37.7769 58.9918 37.4916C58.7957 37.2064 58.4926 37.0638 58.0647 37.0638C57.2981 37.0638 56.8703 37.6164 56.8346 38.7218V39.2566H54.7131V38.6861C54.7131 37.6521 55.0162 36.832 55.6045 36.2437C56.1928 35.6554 57.0129 35.3701 58.0469 35.3701C59.0988 35.3701 59.9188 35.6554 60.5071 36.2259C61.0954 36.7964 61.3985 37.5986 61.3985 38.6504C61.3985 39.3457 61.2559 39.934 60.9528 40.4154C60.6498 40.8967 60.2575 41.1998 59.7584 41.3424C60.8637 41.7168 61.4164 42.6973 61.4164 44.284C61.4164 45.4606 61.1489 46.3698 60.6498 47.0295C60.1149 47.6891 59.3127 48.0278 58.1895 48.0278Z" fill="white"/>
<path d="M62.2898 47.8495L64.8035 35.5128H67.1568L69.6526 47.8495H67.5668L67.0676 44.9793H64.9283L64.4291 47.8495H62.2898ZM65.1601 43.5174H66.818L65.998 38.4543L65.1601 43.5174Z" fill="white"/>
<path d="M70.865 47.8495V35.5128H74.4127C76.5164 35.5128 77.5682 36.6894 77.5682 39.0248C77.5682 40.1658 77.283 41.0037 76.7125 41.5385C76.142 42.0733 75.3219 42.3408 74.2701 42.3408H73.1113V47.8495H70.865ZM73.1113 40.7541H73.8422C74.484 40.7541 74.9119 40.6293 75.1258 40.3797C75.3397 40.1301 75.4645 39.6666 75.4645 39.007C75.4645 38.6326 75.4467 38.3295 75.4111 38.1156C75.3754 37.9017 75.3041 37.7234 75.1971 37.5451C75.0902 37.3668 74.9297 37.2599 74.7158 37.1886C74.5018 37.1173 74.2166 37.0994 73.8422 37.0994H73.1113V40.7541Z" fill="white"/>
<path d="M77.907 47.8495L80.4207 35.5128H82.7739L85.2698 47.8495H83.184L82.6848 44.9793H80.5455L80.0463 47.8495H77.907ZM80.7594 43.5174H82.4174L81.5973 38.4543L80.7594 43.5174Z" fill="white"/>
<path d="M85.7512 50.3098V46.2629H86.2504C86.5178 46.1024 86.7496 45.8885 86.9457 45.6211C87.1418 45.3537 87.3379 44.9615 87.534 44.4623C87.7301 43.9631 87.8727 43.2857 88.0153 42.4478C88.1401 41.6099 88.2293 40.5937 88.3006 39.3992L88.5323 35.5306H94.0411V46.2629H95.3425V50.3098H93.738L93.5954 47.8674H87.5518L87.4092 50.3098H85.7512ZM88.3184 46.2451H91.8661V37.1351H90.3151L90.2081 39.7558C90.1725 40.4332 90.1368 41.0572 90.0834 41.6277C90.0299 42.1803 89.9586 42.6617 89.9051 43.0539C89.8338 43.4461 89.7625 43.8027 89.6555 44.1236C89.5485 44.4623 89.4594 44.7119 89.3702 44.8902C89.2811 45.0684 89.1741 45.2645 89.0315 45.4606C88.8889 45.6567 88.7641 45.7994 88.6928 45.8707C88.6037 45.9776 88.4967 46.1024 88.3184 46.2451Z" fill="white"/>
<path d="M96.5725 47.8495V35.5128H98.4444V43.2322L101.796 35.5128H103.329V47.8495H101.439V39.9875L98.0879 47.8495H96.5725Z" fill="white"/>
<path d="M112.225 48.01C111.69 48.01 111.227 47.9387 110.817 47.8139C110.407 47.6713 110.068 47.493 109.801 47.2612C109.533 47.0295 109.319 46.7264 109.159 46.3698C108.998 46.0133 108.874 45.6389 108.802 45.2289C108.731 44.8188 108.695 44.3731 108.695 43.8561V39.5597C108.695 39.0248 108.731 38.5435 108.802 38.1334C108.874 37.7234 108.981 37.3312 109.159 36.9746C109.337 36.6181 109.533 36.3328 109.801 36.1011C110.068 35.8693 110.407 35.691 110.799 35.5663C111.209 35.4415 111.673 35.3701 112.207 35.3701C112.814 35.3701 113.348 35.4593 113.776 35.6197C114.204 35.7802 114.561 36.0298 114.81 36.3507C115.06 36.6716 115.256 37.046 115.363 37.456C115.47 37.8839 115.541 38.383 115.541 38.9357V39.9875H113.384V38.9357C113.384 38.3117 113.348 37.9017 113.295 37.6877C113.17 37.2777 112.849 37.046 112.35 37.0103C112.314 37.0103 112.279 37.0103 112.225 37.0103C112.029 37.0103 111.869 37.0281 111.726 37.0816C111.583 37.1173 111.476 37.1886 111.387 37.2955C111.298 37.3847 111.227 37.4916 111.173 37.5986C111.12 37.7056 111.084 37.8482 111.049 38.0265C111.031 38.2048 111.013 38.3652 110.995 38.5078C110.995 38.6504 110.977 38.8465 110.977 39.0783V44.3018C110.977 45.0328 111.066 45.5498 111.245 45.8528C111.423 46.1559 111.744 46.3164 112.207 46.3164C112.368 46.3164 112.51 46.2985 112.635 46.2629C112.76 46.2272 112.849 46.1737 112.938 46.1203C113.027 46.0668 113.081 45.9776 113.152 45.8707C113.206 45.7637 113.259 45.6567 113.277 45.5676C113.313 45.4785 113.331 45.3537 113.348 45.1754C113.366 45.0149 113.366 44.8723 113.366 44.7653C113.366 44.6584 113.366 44.4979 113.366 44.3018V43.1965H115.523V44.2127C115.523 44.6762 115.488 45.0862 115.434 45.4606C115.381 45.835 115.256 46.1737 115.095 46.4946C114.935 46.8155 114.739 47.0829 114.489 47.2969C114.24 47.5108 113.919 47.6713 113.527 47.7961C113.188 47.9387 112.742 48.01 112.225 48.01Z" fill="white"/>
<path d="M118.322 47.8495V37.1707H116.254V35.5128H122.565V37.1707H120.569V47.8495H118.322Z" fill="white"/>
<path d="M122.922 47.8495L125.436 35.5128H127.789L130.285 47.8495H128.181L127.682 44.9793H125.543L125.043 47.8495H122.922ZM125.792 43.5174H127.45L126.63 38.4543L125.792 43.5174Z" fill="white"/>
<path d="M130.588 47.8495V46.2272C130.837 46.2272 131.034 46.2272 131.176 46.2094C131.319 46.1915 131.479 46.1381 131.622 46.0311C131.765 45.9241 131.889 45.7815 131.961 45.6032C132.032 45.425 132.121 45.1575 132.21 44.8188C132.299 44.4801 132.353 44.0701 132.406 43.6065C132.46 43.143 132.513 42.5369 132.549 41.8238L132.959 35.5128H138.985V47.8495H136.738V37.1886H134.956L134.688 42.0555C134.653 42.5547 134.635 43.0004 134.599 43.3569C134.563 43.7135 134.528 44.0879 134.474 44.4801C134.421 44.8723 134.367 45.1932 134.296 45.4606C134.225 45.728 134.136 45.9776 134.029 46.2629C133.922 46.5303 133.797 46.7442 133.654 46.9225C133.512 47.0829 133.351 47.2434 133.155 47.386C132.959 47.5286 132.745 47.6356 132.495 47.7069C132.246 47.7782 131.961 47.8317 131.658 47.8495C131.319 47.8674 130.98 47.8852 130.588 47.8495Z" fill="white"/>
<path d="M144.226 48.01C142.96 48.01 142.051 47.6713 141.498 46.976C140.946 46.2807 140.678 45.2823 140.678 43.9453V39.3992C140.678 38.7396 140.75 38.1691 140.856 37.6877C140.981 37.2064 141.177 36.7964 141.463 36.4398C141.748 36.0833 142.104 35.8158 142.568 35.6554C143.031 35.4771 143.584 35.388 144.244 35.388C145.51 35.388 146.419 35.7267 146.971 36.4041C147.524 37.0816 147.791 38.08 147.791 39.3992V43.9453C147.791 44.5871 147.72 45.1575 147.595 45.6389C147.471 46.1202 147.274 46.5481 146.989 46.9047C146.722 47.2612 146.347 47.5286 145.884 47.7247C145.42 47.903 144.868 48.01 144.226 48.01ZM143.655 46.245C143.816 46.3163 143.994 46.3342 144.226 46.3342C144.44 46.3342 144.636 46.2985 144.779 46.245C144.939 46.1737 145.046 46.1024 145.153 45.9954C145.26 45.8885 145.313 45.7637 145.367 45.5854C145.42 45.4071 145.456 45.2467 145.474 45.0862C145.492 44.9258 145.492 44.7119 145.492 44.4801V38.8644C145.492 38.5613 145.474 38.3117 145.438 38.1156C145.403 37.9195 145.349 37.7234 145.26 37.5629C145.171 37.3847 145.046 37.2599 144.868 37.1707C144.689 37.0816 144.476 37.0459 144.208 37.0459C143.941 37.0459 143.709 37.0816 143.548 37.1707C143.388 37.2599 143.245 37.3847 143.156 37.5629C143.067 37.7412 143.014 37.9195 142.978 38.1156C142.942 38.3117 142.925 38.5613 142.925 38.8644V44.4623C142.925 44.694 142.925 44.8901 142.942 45.0684C142.96 45.2467 142.996 45.4071 143.049 45.5676C143.103 45.728 143.174 45.8707 143.263 45.9776C143.388 46.0846 143.495 46.1737 143.655 46.245Z" fill="white"/>
<path d="M149.449 47.8495V35.5128H154.619V37.1707H151.696V47.8495H149.449Z" fill="white"/>
<path d="M159.201 48.01C157.936 48.01 157.026 47.6713 156.474 46.976C155.921 46.2807 155.654 45.2823 155.654 43.9453V39.3992C155.654 38.7396 155.725 38.1691 155.832 37.6877C155.957 37.2064 156.153 36.7964 156.438 36.4398C156.723 36.0833 157.08 35.8158 157.543 35.6554C158.007 35.4771 158.559 35.388 159.219 35.388C160.485 35.388 161.394 35.7267 161.947 36.4041C162.499 37.0816 162.767 38.08 162.767 39.3992V43.9453C162.767 44.5871 162.696 45.1575 162.571 45.6389C162.446 46.1202 162.25 46.5481 161.965 46.9047C161.697 47.2612 161.323 47.5286 160.859 47.7247C160.396 47.903 159.843 48.01 159.201 48.01ZM158.631 46.245C158.791 46.3163 158.97 46.3342 159.201 46.3342C159.415 46.3342 159.611 46.2985 159.754 46.245C159.914 46.1737 160.021 46.1024 160.128 45.9954C160.235 45.8885 160.289 45.7637 160.342 45.5854C160.396 45.4071 160.431 45.2467 160.449 45.0862C160.467 44.9258 160.467 44.7119 160.467 44.4801V38.8644C160.467 38.5613 160.449 38.3117 160.414 38.1156C160.378 37.9195 160.324 37.7234 160.235 37.5629C160.146 37.3847 160.021 37.2599 159.843 37.1707C159.665 37.0816 159.451 37.0459 159.183 37.0459C158.916 37.0459 158.684 37.0816 158.524 37.1707C158.363 37.2599 158.221 37.3847 158.132 37.5629C158.042 37.7412 157.989 37.9195 157.953 38.1156C157.918 38.3117 157.9 38.5613 157.9 38.8644V44.4623C157.9 44.694 157.9 44.8901 157.918 45.0684C157.936 45.2467 157.971 45.4071 158.025 45.5676C158.078 45.728 158.149 45.8707 158.239 45.9776C158.363 46.0846 158.47 46.1737 158.631 46.245Z" fill="white"/>
<path d="M55.2837 66.1408V53.804H58.8314C60.9351 53.804 61.9869 54.9806 61.9869 57.3161C61.9869 58.457 61.7017 59.2949 61.1312 59.8298C60.5607 60.3646 59.7406 60.632 58.6888 60.632H57.53V66.1408H55.2837ZM57.53 59.0454H58.2609C58.9027 59.0454 59.3306 58.9206 59.5445 58.671C59.7584 58.4214 59.8832 57.9579 59.8832 57.2982C59.8832 56.9239 59.8654 56.6208 59.8298 56.4069C59.7941 56.1929 59.7228 56.0146 59.6158 55.8364C59.5089 55.6581 59.3484 55.5511 59.1345 55.4798C58.9205 55.4085 58.6353 55.3907 58.2609 55.3907H57.53V59.0454Z" fill="white"/>
<path d="M66.5331 66.3012C65.2673 66.3012 64.3581 65.9625 63.8054 65.2672C63.2528 64.5719 62.9854 63.5736 62.9854 62.2365V57.6904C62.9854 57.0308 63.0567 56.4603 63.1636 55.979C63.2884 55.4976 63.4845 55.0876 63.7698 54.731C64.0372 54.3745 64.4116 54.1071 64.8751 53.9466C65.3386 53.7683 65.8913 53.6792 66.5509 53.6792C67.8167 53.6792 68.7259 54.0179 69.2785 54.6954C69.8312 55.3728 70.1164 56.3712 70.1164 57.6904V62.2365C70.1164 62.8783 70.0451 63.4488 69.9203 63.9301C69.7955 64.4115 69.5994 64.8393 69.3142 65.1959C69.0468 65.5524 68.6724 65.8199 68.2089 66.016C67.7275 66.1942 67.1749 66.3012 66.5331 66.3012ZM65.9626 64.5363C66.123 64.6076 66.3013 64.6254 66.5152 64.6254C66.7292 64.6254 66.9253 64.5898 67.0679 64.5363C67.2283 64.465 67.3353 64.3936 67.4423 64.2867C67.5314 64.1797 67.6027 64.0549 67.6562 63.8766C67.7097 63.6984 67.7453 63.5379 67.7632 63.3775C67.781 63.217 67.781 63.0031 67.781 62.7713V57.1734C67.781 56.8704 67.7632 56.6208 67.7453 56.4247C67.7275 56.2286 67.6562 56.0325 67.5671 55.872C67.4779 55.6937 67.3531 55.5689 67.1749 55.4798C66.9966 55.3907 66.7827 55.355 66.5152 55.355C66.2478 55.355 66.0339 55.3907 65.8556 55.4798C65.6773 55.5689 65.5525 55.6937 65.4634 55.872C65.3743 56.0503 65.3208 56.2286 65.2851 56.4247C65.2495 56.6208 65.2316 56.8704 65.2316 57.1734V62.7713C65.2316 63.0031 65.2316 63.1992 65.2495 63.3775C65.2673 63.5557 65.3029 63.7162 65.3564 63.8766C65.4099 64.0371 65.4812 64.1797 65.5704 64.2867C65.6773 64.3758 65.8021 64.465 65.9626 64.5363Z" fill="white"/>
<path d="M74.6446 66.319C73.5393 66.319 72.7371 66.016 72.2022 65.4098C71.6852 64.8037 71.4178 63.948 71.4178 62.8248V62.3791H73.5393V62.8426C73.5571 63.431 73.6463 63.8588 73.8067 64.1262C73.9672 64.3937 74.2524 64.5363 74.6624 64.5363C74.8586 64.5363 75.019 64.5006 75.1438 64.4471C75.2864 64.3758 75.3934 64.3045 75.4647 64.1975C75.536 64.0906 75.6073 63.948 75.643 63.7875C75.6786 63.6092 75.7143 63.431 75.7321 63.2705C75.7499 63.1101 75.7499 62.8783 75.7499 62.6109C75.7499 61.9513 75.6251 61.4521 75.3577 61.0955C75.1081 60.7568 74.6446 60.5607 73.985 60.5072C73.9315 60.5072 73.7532 60.5072 73.4502 60.5072V58.974H73.9315C74.609 58.9384 75.0725 58.7779 75.3399 58.457C75.6073 58.1361 75.7321 57.6548 75.7321 57.013C75.7321 56.4782 75.643 56.0681 75.4469 55.7829C75.2508 55.4976 74.9477 55.355 74.5198 55.355C73.7532 55.355 73.3254 55.9077 73.2897 57.013V57.5478H71.1682V56.9773C71.1682 55.9433 71.4713 55.1232 72.0596 54.5349C72.6479 53.9466 73.468 53.6614 74.502 53.6614C75.5538 53.6614 76.3739 53.9466 76.9622 54.5171C77.5505 55.0876 77.8536 55.8898 77.8536 56.9417C77.8536 57.637 77.711 58.2253 77.4079 58.7066C77.1048 59.188 76.7126 59.491 76.2135 59.6337C77.3188 60.008 77.8714 60.9886 77.8714 62.5752C77.8714 63.7519 77.604 64.6611 77.1048 65.3207C76.57 65.9803 75.7499 66.319 74.6446 66.319Z" fill="white"/>
<path d="M79.4045 66.1408V53.804H82.4174C82.9879 53.804 83.4871 53.8575 83.9149 53.9645C84.3428 54.0714 84.7172 54.2319 85.0559 54.4636C85.3946 54.6954 85.6264 55.0341 85.8047 55.4442C85.9651 55.8542 86.0543 56.3712 86.0543 56.9595C86.0543 58.4749 85.4481 59.3306 84.2537 59.5089C85.6977 59.7763 86.4287 60.7925 86.4287 62.5752C86.4287 63.7519 86.1434 64.6433 85.5551 65.2494C84.9668 65.8555 84.1111 66.1586 82.9701 66.1586H79.4045V66.1408ZM81.6508 58.8314H82.3461C83.0057 58.8314 83.4693 58.6888 83.7188 58.4036C83.9684 58.1183 84.0932 57.637 84.0932 56.9773C84.0932 56.6386 84.0576 56.3534 83.9684 56.1394C83.8793 55.9255 83.7545 55.7651 83.5584 55.6581C83.3623 55.5511 83.1484 55.4798 82.9166 55.4442C82.6848 55.4085 82.3639 55.3907 81.9717 55.3907H81.6508V58.8314ZM81.6508 64.5541H82.4709C83.1484 64.5541 83.6119 64.3937 83.8615 64.0906C84.1111 63.7875 84.2358 63.2705 84.2358 62.5396C84.2358 61.7908 84.0932 61.256 83.808 60.9173C83.5227 60.5785 83.0236 60.4181 82.3461 60.4181H81.633V64.5541H81.6508Z" fill="white"/>
<path d="M87.8728 66.1408V53.804H89.7447V61.5234L93.0963 53.804H94.6295V66.1408H92.7398V58.2788L89.3882 66.1408H87.8728Z" fill="white"/>
<path d="M97.6957 66.1408V55.462H95.6277V53.804H101.939V55.462H99.942V66.1408H97.6957Z" fill="white"/>
<path d="M102.955 66.1408V53.804H105.201V58.9919H105.647L107.644 53.804H109.872L107.555 59.6158L110.051 66.1408H107.769L105.647 60.4003H105.201V66.1408H102.955Z" fill="white"/>
<path d="M111.031 68.2979V66.7113C111.994 66.7826 112.618 66.6756 112.903 66.4082C113.188 66.123 113.242 65.606 113.081 64.8572L110.532 53.804H112.635L113.652 58.9384L114.186 62.5752L114.632 58.9562L115.506 53.8218H117.645L115.31 65.0533C115.149 65.8377 115.006 66.3904 114.882 66.7291C114.757 67.0678 114.561 67.3887 114.258 67.7096C113.955 68.0305 113.562 68.2088 113.081 68.2801C112.6 68.3514 111.904 68.3514 111.031 68.2979Z" fill="white"/>
<path d="M14.4226 48.01V21.4646L9.48438 23.1582V18.4338C10.6075 17.9881 11.802 17.4177 13.1034 16.758C14.3692 16.0984 15.2962 15.4388 15.8667 14.8148H20.7693V48.01H14.4226Z" fill="white"/>
<path d="M29.3978 48.01L36.2437 19.6461H27.3477V14.8148H42.4299V18.8795L35.5484 48.01H29.3978Z" fill="white"/>
<path d="M102.17 113.562C106.627 109.426 109.426 103.525 109.426 96.9649C109.426 95.9844 109.355 95.0217 109.23 94.0768C118.287 95.0395 125.364 102.741 125.364 112.047C125.364 117.342 123.064 122.102 119.428 125.4C116.04 119.036 109.658 114.472 102.17 113.562ZM117.538 136.043C117.538 146.009 109.426 154.121 99.4606 154.121C96.216 154.121 93.1853 153.247 90.5468 151.749C94.3975 147.685 96.7686 142.212 96.7686 136.204C96.7686 134.724 96.626 133.28 96.3408 131.872C99.5854 133.672 103.329 134.706 107.305 134.706C110.835 134.706 114.186 133.886 117.181 132.442C117.413 133.601 117.538 134.795 117.538 136.043ZM56.0502 136.186C56.0502 134.902 56.1928 133.654 56.4424 132.442C59.4196 133.886 62.7534 134.688 66.2833 134.688C70.241 134.688 73.967 133.654 77.2116 131.872C76.9621 133.226 76.8194 134.617 76.8194 136.043C76.8194 142.158 79.2618 147.703 83.2196 151.785C80.5454 153.354 77.4434 154.263 74.1275 154.263C64.1618 154.263 56.0502 146.152 56.0502 136.186ZM48.206 112.065C48.206 102.759 55.2836 95.0573 64.34 94.0946C64.2153 95.0395 64.1439 96.0022 64.1439 96.9827C64.1439 103.597 66.9964 109.569 71.5424 113.705C64.037 114.561 57.6368 119.089 54.1961 125.471C50.5414 122.155 48.206 117.378 48.206 112.065ZM86.8029 78.9054C94.2193 78.9054 100.584 83.3802 103.383 89.7803C96.0377 91.0818 89.8871 95.9309 86.8029 102.509C83.7366 95.9487 77.586 91.0818 70.241 89.7803C73.0221 83.3802 79.3866 78.9054 86.8029 78.9054ZM91.0994 120.034C93.5953 118.715 96.4477 117.966 99.4606 117.966C106.574 117.966 112.707 122.102 115.666 128.074C113.152 129.393 110.318 130.142 107.305 130.142C100.192 130.142 94.0588 126.006 91.0994 120.034ZM82.4352 120.141C79.4579 126.06 73.343 130.142 66.2833 130.142C63.2882 130.142 60.4714 129.393 57.9756 128.11C60.9528 122.191 67.0677 118.126 74.1275 118.126C77.1225 118.109 79.9393 118.857 82.4352 120.141ZM68.9574 94.2016C77.6573 95.503 84.3606 102.991 84.3606 112.065C84.3606 113.01 84.2714 113.937 84.1288 114.846C75.4289 113.545 68.7257 106.039 68.7257 96.9827C68.7257 96.0379 68.8148 95.1108 68.9574 94.2016ZM86.8743 148.986C83.487 145.706 81.3833 141.106 81.3833 136.043C81.3833 131.051 83.4335 126.523 86.7138 123.243C90.1011 126.523 92.2047 131.123 92.2047 136.204C92.2047 141.178 90.1724 145.706 86.8743 148.986ZM104.88 96.9827C104.88 106.039 98.177 113.545 89.4771 114.846C89.3345 113.937 89.2453 113.01 89.2453 112.065C89.2453 103.008 95.9486 95.503 104.648 94.2016C104.773 95.1108 104.88 96.0379 104.88 96.9827ZM129.946 112.065C129.946 99.853 120.23 89.8873 108.143 89.4416C105.041 80.6526 96.6438 74.3416 86.8029 74.3416C76.9621 74.3416 68.583 80.6526 65.4632 89.4416C53.376 89.8873 43.6599 99.853 43.6599 112.065C43.6599 119.303 47.0828 125.757 52.3955 129.91C51.825 131.907 51.5041 134.011 51.5041 136.186C51.5041 148.665 61.6659 158.809 74.1453 158.809C78.8874 158.809 83.2731 157.347 86.9277 154.851C90.5289 157.258 94.8432 158.667 99.4784 158.667C111.958 158.667 122.12 148.505 122.12 136.043C122.12 133.904 121.817 131.836 121.264 129.893C126.523 125.739 129.946 119.285 129.946 112.065Z" fill="white"/>
</g>
<defs>
<clipPath id="clip0_111_5339">
<rect width="173" height="173" fill="white"/>
</clipPath>
</defs>
</svg>
