<svg width="173" height="173" viewBox="0 0 173 173" fill="none" xmlns="http://www.w3.org/2000/svg">
<g clip-path="url(#clip0_111_5355)">
<path d="M0 0H173V173H0V0Z" fill="#241F20"/>
<path d="M52.2708 121.104C51.9143 120.997 51.5577 120.89 51.219 120.836C51.219 120.836 51.6112 120.961 52.2708 121.104Z" fill="white"/>
<path d="M44.5869 27.3477V15.0109H51.718V27.3477H49.4895V16.6154H46.8154V27.3477H44.5869Z" fill="white"/>
<path d="M56.9237 27.5081C55.6579 27.5081 54.7487 27.1694 54.196 26.4741C53.6434 25.7789 53.376 24.7805 53.376 23.4434V18.8974C53.376 18.2377 53.4473 17.6673 53.5543 17.1859C53.679 16.7046 53.8751 16.2945 54.1604 15.938C54.4278 15.5814 54.8022 15.314 55.2657 15.1535C55.7292 14.9753 56.2819 14.8861 56.9415 14.8861C58.2073 14.8861 59.1165 15.2249 59.6692 15.9023C60.2218 16.5798 60.5071 17.5781 60.5071 18.8974V23.4434C60.5071 24.0852 60.4357 24.6557 60.311 25.1371C60.1862 25.6184 59.9901 26.0463 59.7048 26.4028C59.4374 26.7594 59.063 27.0268 58.5995 27.2229C58.1181 27.4012 57.5655 27.5081 56.9237 27.5081ZM56.3532 25.7432C56.5137 25.8145 56.6919 25.8323 56.9059 25.8323C57.1198 25.8323 57.3159 25.7967 57.4585 25.7432C57.619 25.6719 57.7259 25.6006 57.8329 25.4936C57.922 25.3866 57.9934 25.2619 58.0468 25.0836C58.1003 24.9053 58.136 24.7448 58.1538 24.5844C58.1716 24.4239 58.1716 24.21 58.1716 23.9783V18.3625C58.1716 18.0595 58.1538 17.8099 58.136 17.6138C58.1181 17.4177 58.0468 17.2216 57.9577 17.0611C57.8686 16.8828 57.7438 16.758 57.5655 16.6689C57.3872 16.5798 57.1733 16.5441 56.9059 16.5441C56.6384 16.5441 56.4245 16.5798 56.2462 16.6689C56.068 16.758 55.9432 16.8828 55.854 17.0611C55.7649 17.2394 55.7114 17.4177 55.6757 17.6138C55.6401 17.8099 55.6223 18.0595 55.6223 18.3625V23.9604C55.6223 24.1922 55.6223 24.3883 55.6401 24.5666C55.6579 24.7448 55.6936 24.9053 55.7471 25.0657C55.8005 25.2262 55.8719 25.3688 55.961 25.4758C56.0858 25.5828 56.2106 25.6719 56.3532 25.7432Z" fill="white"/>
<path d="M61.4163 29.8079V25.761H61.9154C62.1828 25.6006 62.4146 25.3866 62.6107 25.1192C62.8068 24.8518 63.0029 24.4596 63.199 23.9604C63.3951 23.4613 63.5378 22.7838 63.6804 21.9459C63.8052 21.108 63.8943 20.0918 63.9656 18.8974L64.1796 15.0109H69.6883V25.7432H70.9897V29.7901H69.3852L69.2426 27.3477H63.199L63.0564 29.7901H61.4163V29.8079ZM63.9834 25.7432H67.5312V16.6332H65.9801L65.8732 19.2539C65.8375 19.9314 65.8019 20.5553 65.7484 21.1258C65.6949 21.6785 65.6236 22.1598 65.5701 22.552C65.5166 22.9443 65.4275 23.3008 65.3205 23.6217C65.2136 23.9604 65.1244 24.21 65.0353 24.3883C64.964 24.5666 64.8392 24.7627 64.6966 24.9588C64.5539 25.1549 64.4291 25.2975 64.3578 25.3688C64.2687 25.4758 64.1439 25.6006 63.9834 25.7432Z" fill="white"/>
<path d="M75.5714 27.5081C74.3056 27.5081 73.3964 27.1694 72.8438 26.4741C72.2911 25.7789 72.0237 24.7805 72.0237 23.4434V18.8974C72.0237 18.2377 72.095 17.6673 72.202 17.1859C72.3267 16.7046 72.5229 16.2945 72.8081 15.938C73.0755 15.5814 73.4499 15.314 73.9134 15.1535C74.3769 14.9753 74.9296 14.8861 75.5892 14.8861C76.855 14.8861 77.7642 15.2249 78.3169 15.9023C78.8695 16.5798 79.1548 17.5781 79.1548 18.8974V23.4434C79.1548 24.0852 79.0834 24.6557 78.9587 25.1371C78.8339 25.6184 78.6378 26.0463 78.3525 26.4028C78.0851 26.7594 77.7107 27.0268 77.2472 27.2229C76.7659 27.4012 76.2132 27.5081 75.5714 27.5081ZM75.0187 25.7432C75.1792 25.8145 75.3575 25.8323 75.5714 25.8323C75.7853 25.8323 75.9814 25.7967 76.1241 25.7432C76.2845 25.6719 76.3915 25.6006 76.4984 25.4936C76.5876 25.3866 76.6589 25.2619 76.7124 25.0836C76.7658 24.9053 76.8015 24.7448 76.8193 24.5844C76.8372 24.4239 76.8372 24.21 76.8372 23.9783V18.3625C76.8372 18.0595 76.8193 17.8099 76.8015 17.6138C76.7837 17.4177 76.7124 17.2216 76.6232 17.0611C76.5341 16.8828 76.4093 16.758 76.231 16.6689C76.0527 16.5798 75.8388 16.5441 75.5714 16.5441C75.304 16.5441 75.09 16.5798 74.9118 16.6689C74.7335 16.758 74.6087 16.8828 74.5196 17.0611C74.4304 17.2394 74.3769 17.4177 74.3413 17.6138C74.3056 17.8099 74.2878 18.0595 74.2878 18.3625V23.9604C74.2878 24.1922 74.2878 24.3883 74.3056 24.5666C74.3235 24.7448 74.3591 24.9053 74.4126 25.0657C74.4661 25.2262 74.5374 25.3688 74.6265 25.4758C74.7335 25.5828 74.8583 25.6719 75.0187 25.7432Z" fill="white"/>
<path d="M79.8857 27.3477V25.7254C80.1353 25.7254 80.3314 25.7254 80.4741 25.7075C80.6167 25.6897 80.7771 25.6362 80.9197 25.5293C81.0624 25.4223 81.1872 25.2797 81.2585 25.1014C81.3298 24.9231 81.4189 24.6557 81.5081 24.317C81.5972 23.9783 81.6507 23.5682 81.7042 23.1047C81.7577 22.6412 81.8111 22.035 81.8468 21.3219L82.2568 15.0109H88.2826V27.3477H86.0363V16.6867H84.2357L83.9683 21.5537C83.9326 22.0529 83.9148 22.4986 83.8791 22.8551C83.8435 23.2117 83.8078 23.586 83.7543 23.9783C83.7009 24.3705 83.6474 24.6914 83.5761 24.9588C83.5048 25.2262 83.4156 25.4758 83.3087 25.761C83.2017 26.0284 83.0769 26.2424 82.9343 26.4207C82.7917 26.5811 82.6312 26.7416 82.4351 26.8842C82.239 27.0268 82.0251 27.1338 81.7755 27.2051C81.5259 27.2764 81.2406 27.3299 80.9376 27.3477C80.6345 27.3655 80.2601 27.3833 79.8857 27.3477Z" fill="white"/>
<path d="M89.5127 27.3477L92.0264 15.0109H94.3797L96.8755 27.3477H94.7897L94.2905 24.4774H92.1512L91.652 27.3477H89.5127ZM92.383 23.0156H94.0409L93.2209 17.9525L92.383 23.0156Z" fill="white"/>
<path d="M98.1057 27.3477V15.0109H100.352V20.1631H102.866V15.0109H105.112V27.3477H102.866V21.7676H100.352V27.3477H98.1057Z" fill="white"/>
<path d="M107.002 27.3477V15.0109H109.248V20.1631H111.762V15.0109H114.008V27.3477H111.762V21.7676H109.248V27.3477H107.002Z" fill="white"/>
<path d="M115.095 27.3477L117.591 21.8389C117.074 21.5715 116.664 21.1437 116.343 20.591C116.023 20.0383 115.88 19.3431 115.88 18.5586C115.88 17.3642 116.201 16.4728 116.86 15.8845C117.52 15.314 118.554 15.0109 119.945 15.0109H122.726V27.3477H120.479V22.3559H119.802H119.535L117.556 27.3477H115.095ZM120.069 20.7693H120.479V16.5798H120.034C119.338 16.5798 118.839 16.7402 118.501 17.0611C118.162 17.382 118.001 17.8812 118.001 18.5408C118.001 19.2896 118.162 19.8422 118.483 20.1988C118.786 20.5732 119.321 20.7693 120.069 20.7693Z" fill="white"/>
<path d="M44.605 47.8496V35.5128H50.3098V37.1886H46.8513V40.6828H47.2078C47.8674 40.6828 48.4379 40.7363 48.9015 40.8611C49.365 40.9859 49.775 41.1642 50.1137 41.4494C50.4525 41.7347 50.7021 42.0912 50.8625 42.5547C51.023 43.0182 51.1121 43.5887 51.1121 44.2662C51.1121 44.8188 51.0586 45.3002 50.9338 45.7102C50.809 46.1203 50.6486 46.459 50.4346 46.7442C50.2207 47.0295 49.9533 47.2434 49.6146 47.4039C49.2758 47.5643 48.9193 47.6891 48.5271 47.7604C48.1349 47.8317 47.6713 47.8674 47.1722 47.8674H44.605V47.8496ZM46.8691 46.3164H47.19C47.5287 46.3164 47.814 46.2807 48.0279 46.2272C48.2418 46.1738 48.4379 46.0668 48.5984 45.9063C48.7588 45.7459 48.8658 45.532 48.9371 45.2645C49.0084 44.9971 49.0441 44.6406 49.0262 44.2127C49.0262 43.5174 48.8836 43.0182 48.6162 42.7152C48.3488 42.4121 47.8496 42.2517 47.1543 42.2517H46.8691V46.3164Z" fill="white"/>
<path d="M52.574 47.8496V35.5128H54.7846V47.8496H52.574Z" fill="white"/>
<path d="M55.8721 50.3098V46.2629H56.3712C56.6387 46.1024 56.8704 45.8885 57.0665 45.6211C57.2626 45.3537 57.4587 44.9615 57.6548 44.4623C57.8509 43.9631 57.9936 43.2857 58.1362 42.4478C58.261 41.6099 58.3501 40.5937 58.4214 39.3992L58.6532 35.5306H64.162V46.2629H65.4634V50.3098H63.8589L63.7163 47.8674H57.6727L57.53 50.3098H55.8721ZM58.4571 46.2451H62.0048V37.1351H60.436L60.329 39.7558C60.2933 40.4332 60.2577 41.0572 60.2042 41.6277C60.1507 42.1803 60.0794 42.6617 60.0259 43.0539C59.9724 43.4461 59.8833 43.8027 59.7763 44.1236C59.6694 44.4623 59.5802 44.7119 59.4911 44.8902C59.4198 45.0684 59.295 45.2645 59.1524 45.4606C59.0097 45.6567 58.885 45.7994 58.8136 45.8707C58.7423 45.9776 58.6175 46.1024 58.4571 46.2451Z" fill="white"/>
<path d="M66.7114 47.8496V35.5128H68.9577V40.665H71.4714V35.5128H73.7177V47.8496H71.4714V42.2695H68.9577V47.8496H66.7114Z" fill="white"/>
<path d="M78.9232 48.01C77.6574 48.01 76.7482 47.6713 76.1956 46.976C75.6429 46.2807 75.3755 45.2824 75.3755 43.9453V39.3992C75.3755 38.7396 75.4468 38.1691 75.5538 37.6878C75.6786 37.2064 75.8747 36.7964 76.1599 36.4398C76.4273 36.0833 76.8017 35.8159 77.2652 35.6554C77.7287 35.4771 78.2814 35.388 78.941 35.388C80.2068 35.388 81.116 35.7267 81.6687 36.4042C82.2213 37.0816 82.5066 38.08 82.5066 39.3992V43.9453C82.5066 44.5871 82.4353 45.1576 82.3105 45.6389C82.1857 46.1203 81.9896 46.5481 81.7043 46.9047C81.4369 47.2612 81.0625 47.5287 80.599 47.7248C80.1355 47.903 79.5828 48.01 78.9232 48.01ZM78.3705 46.2451C78.531 46.3164 78.7093 46.3342 78.9232 46.3342C79.1371 46.3342 79.3332 46.2985 79.4759 46.2451C79.6363 46.1738 79.7433 46.1024 79.8502 45.9955C79.9394 45.8885 80.0107 45.7637 80.0642 45.5854C80.1177 45.4072 80.1533 45.2467 80.1711 45.0863C80.189 44.9258 80.189 44.7119 80.189 44.4801V38.8644C80.189 38.5613 80.1711 38.3117 80.1533 38.1156C80.1355 37.9195 80.0642 37.7234 79.975 37.563C79.8859 37.3847 79.7611 37.2599 79.5828 37.1708C79.4045 37.0816 79.1906 37.046 78.9232 37.046C78.6558 37.046 78.4419 37.0816 78.2636 37.1529C78.0853 37.2242 77.9605 37.3669 77.8714 37.5451C77.7822 37.7234 77.7288 37.9017 77.6931 38.0978C77.6574 38.2939 77.6396 38.5435 77.6396 38.8466V44.4445C77.6396 44.6762 77.6396 44.8723 77.6574 45.0506C77.6753 45.2289 77.7109 45.3893 77.7644 45.5498C77.8179 45.7102 77.8892 45.8529 77.9783 45.9598C78.0853 46.0846 78.2101 46.1738 78.3705 46.2451Z" fill="white"/>
<path d="M87.4449 48.01C86.9101 48.01 86.4466 47.9387 86.0365 47.8139C85.6265 47.6891 85.2878 47.493 85.0204 47.2612C84.7529 47.0295 84.539 46.7264 84.3786 46.3699C84.2181 46.0133 84.0933 45.6389 84.022 45.2289C83.9507 44.8188 83.915 44.3732 83.915 43.8561V39.5597C83.915 39.0248 83.9507 38.5435 84.022 38.1335C84.0933 37.7234 84.2003 37.3312 84.3786 36.9747C84.5568 36.6181 84.7529 36.3329 85.0204 36.1011C85.2878 35.8693 85.6265 35.6911 86.0187 35.5663C86.4287 35.4415 86.8923 35.3702 87.4271 35.3702C88.0511 35.3702 88.5681 35.4593 89.0138 35.6197C89.4416 35.7802 89.7982 36.0298 90.0478 36.3507C90.2974 36.6716 90.4935 37.046 90.6004 37.456C90.7074 37.8839 90.7787 38.383 90.7787 38.9357V39.9875H88.6216V38.9357C88.6216 38.3117 88.5859 37.9017 88.5324 37.6878C88.4076 37.2777 88.0867 37.046 87.5875 37.0103C87.5519 37.0103 87.5162 37.0103 87.4628 37.0103C87.2666 37.0103 87.1062 37.0281 86.9636 37.0816C86.821 37.1173 86.714 37.1886 86.6249 37.2956C86.5357 37.3847 86.4644 37.4917 86.4109 37.5986C86.3574 37.7056 86.3218 37.8482 86.2861 38.0265C86.2505 38.2048 86.2505 38.3652 86.2326 38.5078C86.2326 38.6505 86.2148 38.8466 86.2148 39.0783V44.3018C86.2148 45.0328 86.3039 45.5498 86.4822 45.8528C86.6605 46.1559 86.9814 46.3164 87.4449 46.3164C87.6054 46.3164 87.748 46.2985 87.8728 46.2629C87.9976 46.2272 88.0867 46.1738 88.1759 46.1203C88.265 46.0668 88.3185 45.9776 88.3898 45.8707C88.4433 45.7637 88.4968 45.6567 88.5146 45.5676C88.5502 45.4785 88.5681 45.3537 88.5859 45.1754C88.6037 44.9971 88.6037 44.8723 88.6037 44.7654C88.6037 44.6584 88.6037 44.4979 88.6037 44.3018V43.1965H90.7609V44.2127C90.7609 44.6762 90.7252 45.0863 90.6717 45.4606C90.6183 45.835 90.4935 46.1737 90.333 46.4946C90.1726 46.8155 89.9765 47.083 89.7269 47.2969C89.4773 47.5108 89.1564 47.6713 88.782 47.7961C88.4076 47.9387 87.9619 48.01 87.4449 48.01Z" fill="white"/>
<path d="M93.5421 47.8496V37.1708H91.4741V35.5128H97.7851V37.1708H95.7884V47.8496H93.5421Z" fill="white"/>
<path d="M98.7834 47.8496V35.5128H100.994V47.8496H98.7834Z" fill="white"/>
<path d="M135.419 85.3947C135.419 82.7384 137.576 80.5813 140.233 80.5813C142.889 80.5813 145.028 82.7384 145.028 85.3947C145.028 88.0511 142.871 90.2082 140.233 90.2082C137.576 90.2082 135.419 88.0511 135.419 85.3947Z" fill="white"/>
<path d="M145.848 92.0622C149.111 92.3652 151.678 95.1107 151.678 98.4445V100.049V100.744V111.78C151.678 112.814 150.84 113.652 149.824 113.652C148.79 113.652 147.952 112.814 147.952 111.78V100.334C147.952 99.9064 147.827 99.318 147.043 99.318C146.508 99.318 146.383 99.8885 146.365 100.263V134.599C146.365 136.079 145.171 137.273 143.691 137.273C142.212 137.273 140.999 136.079 140.999 134.599V114.81C140.999 114.596 140.928 114.026 140.233 114.026C139.555 114.026 139.466 114.596 139.466 114.81V134.599C139.466 136.079 138.272 137.273 136.792 137.273C135.312 137.273 134.118 136.079 134.118 134.599V100.263C134.1 99.9064 133.975 99.318 133.44 99.318C132.656 99.318 132.531 99.9064 132.531 100.334V111.78C132.531 112.814 131.693 113.652 130.659 113.652C129.625 113.652 128.787 112.814 128.787 111.78V100.744V100.049V98.4445C128.787 95.0929 131.355 92.3474 134.617 92.0622C134.724 92.0443 134.849 92.0265 134.974 92.0265H140.233H145.492C145.617 92.0265 145.741 92.0443 145.848 92.0622Z" fill="white"/>
<path d="M106.806 87.9261C106.806 85.4124 104.773 83.3622 102.26 83.3622C99.746 83.3622 97.6958 85.4124 97.6958 87.9261C97.6958 90.4398 99.7282 92.49 102.26 92.49C104.773 92.4722 106.806 90.4398 106.806 87.9261Z" fill="white"/>
<path d="M93.0784 98.2484L89.2989 110.585C89.2989 110.585 88.6215 112.849 90.5469 113.402C92.4544 113.972 93.0249 111.762 93.0249 111.762L96.0735 101.475C96.0735 101.475 96.2339 100.691 96.84 100.851C97.4284 101.03 97.2144 101.867 97.2144 101.867L91.9018 121.157H96.84V134.973C96.84 136.275 97.9097 137.345 99.2111 137.345C100.53 137.345 101.582 136.275 101.582 134.973V121.157H102.26H102.937V134.973C102.937 136.275 103.989 137.345 105.308 137.345C106.627 137.345 107.679 136.275 107.679 134.973V121.157H112.618L107.305 101.867C107.305 101.867 107.091 101.012 107.679 100.851C108.268 100.673 108.446 101.475 108.446 101.475L111.494 111.762C111.494 111.762 112.083 113.972 113.972 113.402C115.898 112.831 115.22 110.585 115.22 110.585L111.441 98.2484C111.441 98.2484 110.086 94.6828 107.091 94.6828H102.26H97.4284C94.4333 94.6828 93.0784 98.2484 93.0784 98.2484Z" fill="white"/>
<path d="M79.5294 87.9261C79.5294 85.4124 77.497 83.3622 74.9833 83.3622C72.4696 83.3622 70.4194 85.4124 70.4194 87.9261C70.4194 90.4398 72.4518 92.49 74.9833 92.49C77.4792 92.4722 79.5294 90.4398 79.5294 87.9261Z" fill="white"/>
<path d="M65.7842 98.2484L62.0047 110.585C62.0047 110.585 61.3273 112.849 63.2527 113.402C65.1602 113.972 65.7307 111.762 65.7307 111.762L68.7793 101.475C68.7793 101.475 68.9397 100.691 69.5459 100.851C70.1342 101.03 69.9202 101.867 69.9202 101.867L64.6076 121.157H69.5459V134.973C69.5459 136.275 70.6155 137.345 71.9169 137.345C73.2362 137.345 74.288 136.275 74.288 134.973V121.157H74.9655H75.6429V134.973C75.6429 136.275 76.6948 137.345 78.014 137.345C79.3333 137.345 80.3851 136.275 80.3851 134.973V121.157H85.3234L80.0107 101.867C80.0107 101.867 79.779 101.012 80.3851 100.851C80.9912 100.691 81.1517 101.475 81.1517 101.475L84.2002 111.762C84.2002 111.762 84.7885 113.972 86.6961 113.402C88.6215 112.831 87.944 110.585 87.944 110.585L84.1646 98.2484C84.1646 98.2484 82.8097 94.6828 79.8146 94.6828H74.9833H70.152C67.1569 94.6828 65.7842 98.2484 65.7842 98.2484Z" fill="white"/>
<path d="M122.12 113.42C124.223 113.42 125.917 111.726 125.917 109.622C125.917 107.519 124.223 105.825 122.12 105.825C120.016 105.825 118.323 107.519 118.323 109.622C118.323 111.726 120.016 113.42 122.12 113.42Z" fill="white"/>
<path d="M113.028 125.204C112.849 125.65 112.689 126.594 113.58 127.004C114.632 127.486 115.203 126.47 115.203 126.47L117.271 119.891C117.271 119.891 117.627 119.446 117.627 119.909V135.383H117.645C117.645 136.453 118.519 137.327 119.588 137.327C120.658 137.327 121.531 136.453 121.531 135.383V129.269C121.531 129.269 121.424 128.413 122.12 128.413C122.815 128.413 122.708 129.269 122.708 129.269V135.383C122.708 136.453 123.582 137.327 124.651 137.327C125.721 137.327 126.595 136.453 126.595 135.383V119.909C126.595 119.446 126.826 119.784 126.826 119.784L128.449 124.295C128.449 124.295 129.144 126.309 129.358 126.398C130.089 126.701 130.927 126.363 131.23 125.614C131.426 125.133 131.354 124.616 131.069 124.223L131.087 124.206C131.034 124.063 128.663 118.251 128.395 117.431C127.539 114.935 125.988 114.953 124.491 114.917C122.993 114.882 122.102 114.917 122.102 114.917C122.102 114.917 121.139 114.882 119.16 114.935C117.181 114.989 116.558 116.005 114.383 121.621C114.079 122.423 113.028 125.043 113.028 125.204Z" fill="white"/>
<path d="M38.8286 85.3947C38.8286 82.7384 36.6715 80.5813 34.0151 80.5813C31.3588 80.5813 29.2195 82.7384 29.2195 85.3947C29.2195 88.0511 31.3766 90.2082 34.0151 90.2082C36.6715 90.2082 38.8286 88.0511 38.8286 85.3947Z" fill="white"/>
<path d="M28.3995 92.0622C25.137 92.3652 22.5698 95.1107 22.5698 98.4445V100.049V100.744V111.78C22.5698 112.814 23.4077 113.652 24.4417 113.652C25.4757 113.652 26.3136 112.814 26.3136 111.78V100.334C26.3136 99.9064 26.4384 99.318 27.2229 99.318C27.7577 99.318 27.8825 99.8885 27.9003 100.263V134.599C27.9003 136.079 29.0948 137.273 30.5745 137.273C32.0542 137.273 33.2486 136.079 33.2486 134.599V114.81C33.2664 114.596 33.3378 114.026 34.0152 114.026C34.6927 114.026 34.7818 114.596 34.7818 114.81V134.599C34.7818 136.079 35.9763 137.273 37.456 137.273C38.9357 137.273 40.1301 136.079 40.1301 134.599V100.263C40.1479 99.9064 40.2727 99.318 40.8076 99.318C41.592 99.318 41.7168 99.9064 41.7168 100.334V111.78C41.7168 112.814 42.5547 113.652 43.5887 113.652C44.6227 113.652 45.4606 112.814 45.4606 111.78V100.744V100.049V98.4445C45.4606 95.0929 42.8934 92.3474 39.6309 92.0622C39.524 92.0443 39.3992 92.0265 39.2744 92.0265H34.0152H28.7739C28.6312 92.0265 28.5243 92.0443 28.3995 92.0622Z" fill="white"/>
<path d="M24.21 113.723L19.9314 136.364" stroke="white" stroke-width="1.148" stroke-miterlimit="10" stroke-linecap="round"/>
<path d="M47.7603 111.441C47.5107 111.049 47.0828 110.799 46.5837 110.799C45.8171 110.799 45.1931 111.423 45.1931 112.172C45.1931 112.386 45.3357 112.778 45.3357 112.778L49.1509 119.695C49.1509 119.695 49.3826 120.177 49.3826 120.604V135.455C49.3826 136.489 50.2205 137.327 51.2545 137.327C52.2885 137.327 53.1086 136.489 53.1086 135.455V129.59C53.1086 129.59 53.0016 128.769 53.6791 128.769C54.3387 128.769 54.2496 129.59 54.2496 129.59V135.455C54.2496 136.489 55.0875 137.327 56.1215 137.327C57.1555 137.327 57.9934 136.489 57.9934 135.455V120.604C57.9934 120.177 58.2252 119.695 58.2252 119.695L61.755 113.313C61.755 113.313 62.1829 112.404 62.1829 112.172C62.1829 111.405 61.5589 110.799 60.7923 110.799C60.2932 110.799 59.8653 111.067 59.6157 111.441H59.5979C59.4909 111.53 57.7082 114.686 57.1377 115.274C56.5137 115.898 55.961 115.827 55.961 115.827H53.6613H51.3615C51.3615 115.827 50.8088 115.898 50.1849 115.274C49.6322 114.668 47.8851 111.512 47.7603 111.441Z" fill="white"/>
<path d="M53.697 113.42C55.8006 113.42 57.4943 111.726 57.4943 109.622C57.4943 107.519 55.8006 105.825 53.697 105.825C51.5933 105.825 49.8997 107.519 49.8997 109.622C49.8997 111.726 51.5933 113.42 53.697 113.42Z" fill="white"/>
<path d="M53.697 118.75L57.9935 121.87L60.0258 129.376H53.697H47.3682L49.4183 121.87L53.697 118.75Z" fill="white"/>
<path d="M19.771 48.01V21.4646L14.8328 23.1582V18.4338C15.9559 17.9881 17.1504 17.4177 18.4518 16.758C19.7354 16.0984 20.6624 15.4388 21.2329 14.8148H26.1355V48.01H19.771Z" fill="white"/>
</g>
<defs>
<clipPath id="clip0_111_5355">
<rect width="173" height="173" fill="white"/>
</clipPath>
</defs>
</svg>
