<svg width="173" height="173" viewBox="0 0 173 173" fill="none" xmlns="http://www.w3.org/2000/svg">
<g clip-path="url(#clip0_111_5352)">
<path d="M0 0H173V173H0V0Z" fill="#241F20"/>
<path d="M52.2708 121.104C51.9143 120.997 51.5577 120.89 51.219 120.836C51.219 120.836 51.6112 120.961 52.2708 121.104Z" fill="white"/>
<path d="M44.5869 27.3477V15.0109H51.718V27.3477H49.4895V16.6154H46.8154V27.3477H44.5869Z" fill="white"/>
<path d="M56.9237 27.5082C55.6579 27.5082 54.7487 27.1694 54.196 26.4741C53.6434 25.7789 53.376 24.7805 53.376 23.4434V18.8974C53.376 18.2377 53.4473 17.6673 53.5543 17.1859C53.679 16.7046 53.8751 16.2945 54.1604 15.938C54.4278 15.5814 54.8022 15.314 55.2657 15.1536C55.7292 14.9753 56.2819 14.8861 56.9415 14.8861C58.2073 14.8861 59.1165 15.2249 59.6692 15.9023C60.2218 16.5798 60.5071 17.5781 60.5071 18.8974V23.4434C60.5071 24.0852 60.4357 24.6557 60.311 25.1371C60.1862 25.6184 59.9901 26.0463 59.7048 26.4028C59.4374 26.7594 59.063 27.0268 58.5995 27.2229C58.1181 27.4012 57.5655 27.5082 56.9237 27.5082ZM56.3532 25.7432C56.5137 25.8145 56.6919 25.8323 56.9059 25.8323C57.1198 25.8323 57.3159 25.7967 57.4585 25.7432C57.619 25.6719 57.7259 25.6006 57.8329 25.4936C57.922 25.3867 57.9934 25.2619 58.0468 25.0836C58.1003 24.9053 58.136 24.7449 58.1538 24.5844C58.1716 24.424 58.1716 24.21 58.1716 23.9783V18.3625C58.1716 18.0595 58.1538 17.8099 58.136 17.6138C58.1181 17.4177 58.0468 17.2216 57.9577 17.0611C57.8686 16.8828 57.7438 16.758 57.5655 16.6689C57.3872 16.5798 57.1733 16.5441 56.9059 16.5441C56.6384 16.5441 56.4245 16.5798 56.2462 16.6689C56.068 16.758 55.9432 16.8828 55.854 17.0611C55.7649 17.2394 55.7114 17.4177 55.6757 17.6138C55.6401 17.8099 55.6223 18.0595 55.6223 18.3625V23.9604C55.6223 24.1922 55.6223 24.3883 55.6401 24.5666C55.6579 24.7449 55.6936 24.9053 55.7471 25.0658C55.8005 25.2262 55.8719 25.3688 55.961 25.4758C56.0858 25.5828 56.2106 25.6719 56.3532 25.7432Z" fill="white"/>
<path d="M61.4163 29.8079V25.761H61.9154C62.1828 25.6006 62.4146 25.3867 62.6107 25.1192C62.8068 24.8518 63.0029 24.4596 63.199 23.9604C63.3951 23.4613 63.5378 22.7838 63.6804 21.9459C63.8052 21.108 63.8943 20.0918 63.9656 18.8974L64.1796 15.0109H69.6883V25.7432H70.9897V29.7901H69.3852L69.2426 27.3477H63.199L63.0564 29.7901H61.4163V29.8079ZM63.9834 25.7432H67.5312V16.6333H65.9801L65.8732 19.2539C65.8375 19.9314 65.8019 20.5553 65.7484 21.1258C65.6949 21.6785 65.6236 22.1598 65.5701 22.552C65.5166 22.9443 65.4275 23.3008 65.3205 23.6217C65.2136 23.9604 65.1244 24.21 65.0353 24.3883C64.964 24.5666 64.8392 24.7627 64.6966 24.9588C64.5539 25.1549 64.4291 25.2975 64.3578 25.3688C64.2687 25.4758 64.1439 25.6006 63.9834 25.7432Z" fill="white"/>
<path d="M75.5714 27.5082C74.3056 27.5082 73.3964 27.1694 72.8438 26.4741C72.2911 25.7789 72.0237 24.7805 72.0237 23.4434V18.8974C72.0237 18.2377 72.095 17.6673 72.202 17.1859C72.3267 16.7046 72.5229 16.2945 72.8081 15.938C73.0755 15.5814 73.4499 15.314 73.9134 15.1536C74.3769 14.9753 74.9296 14.8861 75.5892 14.8861C76.855 14.8861 77.7642 15.2249 78.3169 15.9023C78.8695 16.5798 79.1548 17.5781 79.1548 18.8974V23.4434C79.1548 24.0852 79.0834 24.6557 78.9587 25.1371C78.8339 25.6184 78.6378 26.0463 78.3525 26.4028C78.0851 26.7594 77.7107 27.0268 77.2472 27.2229C76.7659 27.4012 76.2132 27.5082 75.5714 27.5082ZM75.0187 25.7432C75.1792 25.8145 75.3575 25.8323 75.5714 25.8323C75.7853 25.8323 75.9814 25.7967 76.1241 25.7432C76.2845 25.6719 76.3915 25.6006 76.4984 25.4936C76.5876 25.3867 76.6589 25.2619 76.7124 25.0836C76.7658 24.9053 76.8015 24.7449 76.8193 24.5844C76.8372 24.424 76.8372 24.21 76.8372 23.9783V18.3625C76.8372 18.0595 76.8193 17.8099 76.8015 17.6138C76.7837 17.4177 76.7124 17.2216 76.6232 17.0611C76.5341 16.8828 76.4093 16.758 76.231 16.6689C76.0527 16.5798 75.8388 16.5441 75.5714 16.5441C75.304 16.5441 75.09 16.5798 74.9118 16.6689C74.7335 16.758 74.6087 16.8828 74.5196 17.0611C74.4304 17.2394 74.3769 17.4177 74.3413 17.6138C74.3056 17.8099 74.2878 18.0595 74.2878 18.3625V23.9604C74.2878 24.1922 74.2878 24.3883 74.3056 24.5666C74.3235 24.7449 74.3591 24.9053 74.4126 25.0658C74.4661 25.2262 74.5374 25.3688 74.6265 25.4758C74.7335 25.5828 74.8583 25.6719 75.0187 25.7432Z" fill="white"/>
<path d="M79.8857 27.3477V25.7254C80.1353 25.7254 80.3314 25.7254 80.4741 25.7076C80.6167 25.6897 80.7771 25.6362 80.9197 25.5293C81.0624 25.4223 81.1872 25.2797 81.2585 25.1014C81.3298 24.9231 81.4189 24.6557 81.5081 24.317C81.5972 23.9783 81.6507 23.5682 81.7042 23.1047C81.7577 22.6412 81.8111 22.035 81.8468 21.3219L82.2568 15.0109H88.2826V27.3477H86.0363V16.6867H84.2357L83.9683 21.5537C83.9326 22.0529 83.9148 22.4986 83.8791 22.8551C83.8435 23.2117 83.8078 23.5861 83.7543 23.9783C83.7009 24.3705 83.6474 24.6914 83.5761 24.9588C83.5048 25.2262 83.4156 25.4758 83.3087 25.761C83.2017 26.0285 83.0769 26.2424 82.9343 26.4207C82.7917 26.5811 82.6312 26.7416 82.4351 26.8842C82.239 27.0268 82.0251 27.1338 81.7755 27.2051C81.5259 27.2764 81.2406 27.3299 80.9376 27.3477C80.6345 27.3655 80.2601 27.3834 79.8857 27.3477Z" fill="white"/>
<path d="M89.5127 27.3477L92.0264 15.0109H94.3797L96.8755 27.3477H94.7897L94.2905 24.4774H92.1512L91.652 27.3477H89.5127ZM92.383 23.0156H94.0409L93.2209 17.9525L92.383 23.0156Z" fill="white"/>
<path d="M98.1057 27.3477V15.0109H100.352V20.1631H102.866V15.0109H105.112V27.3477H102.866V21.7676H100.352V27.3477H98.1057Z" fill="white"/>
<path d="M107.002 27.3477V15.0109H109.248V20.1631H111.762V15.0109H114.008V27.3477H111.762V21.7676H109.248V27.3477H107.002Z" fill="white"/>
<path d="M115.095 27.3477L117.591 21.8389C117.074 21.5715 116.664 21.1437 116.343 20.591C116.023 20.0383 115.88 19.3431 115.88 18.5586C115.88 17.3642 116.201 16.4728 116.86 15.8845C117.52 15.314 118.554 15.0109 119.945 15.0109H122.726V27.3477H120.479V22.3559H119.802H119.535L117.556 27.3477H115.095ZM120.069 20.7693H120.479V16.5798H120.034C119.338 16.5798 118.839 16.7402 118.501 17.0611C118.162 17.382 118.001 17.8812 118.001 18.5408C118.001 19.2896 118.162 19.8422 118.483 20.1988C118.786 20.5732 119.321 20.7693 120.069 20.7693Z" fill="white"/>
<path d="M44.6047 47.8495V35.5128H49.7748V37.1707H46.851V47.8495H44.6047Z" fill="white"/>
<path d="M54.3565 48.01C53.0908 48.01 52.1816 47.6713 51.6289 46.976C51.0763 46.2807 50.8088 45.2823 50.8088 43.9453V39.3992C50.8088 38.7396 50.8801 38.1691 50.9871 37.6877C51.1119 37.2064 51.308 36.7964 51.5933 36.4398C51.8607 36.0833 52.2351 35.8158 52.6986 35.6554C53.1621 35.4771 53.7148 35.388 54.3744 35.388C55.6401 35.388 56.5494 35.7267 57.102 36.4042C57.6547 37.0816 57.9399 38.08 57.9399 39.3992V43.9453C57.9399 44.5871 57.8686 45.1576 57.7438 45.6389C57.619 46.1203 57.4229 46.5481 57.1377 46.9047C56.8703 47.2612 56.4959 47.5286 56.0324 47.7247C55.5688 47.903 55.0162 48.01 54.3565 48.01ZM53.8039 46.245C53.9643 46.3164 54.1426 46.3342 54.3565 46.3342C54.5705 46.3342 54.7666 46.2985 54.9092 46.245C55.0697 46.1737 55.1766 46.1024 55.2836 45.9955C55.3727 45.8885 55.444 45.7637 55.4975 45.5854C55.551 45.4071 55.5867 45.2467 55.6045 45.0862C55.6223 44.9258 55.6223 44.7119 55.6223 44.4801V38.8644C55.6223 38.5613 55.6045 38.3117 55.5867 38.1156C55.5688 37.9195 55.4975 37.7234 55.4084 37.563C55.3192 37.3847 55.1945 37.2599 55.0162 37.1707C54.8379 37.0816 54.624 37.046 54.3565 37.046C54.0891 37.046 53.8752 37.0816 53.6969 37.1707C53.5186 37.2599 53.3939 37.3847 53.3047 37.563C53.2156 37.7412 53.1621 37.9195 53.1264 38.1156C53.0908 38.3117 53.073 38.5613 53.073 38.8644V44.4623C53.073 44.694 53.073 44.8901 53.0908 45.0684C53.1086 45.2467 53.1443 45.4071 53.1978 45.5676C53.2512 45.728 53.3225 45.8707 53.4117 45.9776C53.5186 46.0846 53.6434 46.1737 53.8039 46.245Z" fill="white"/>
<path d="M58.6709 47.8495V46.2272C58.9205 46.2272 59.1166 46.2272 59.2592 46.2094C59.4018 46.1916 59.5623 46.1381 59.7049 46.0311C59.8475 45.9241 59.9723 45.7815 60.0436 45.6032C60.1149 45.425 60.2041 45.1576 60.2932 44.8188C60.3824 44.4801 60.4358 44.0701 60.4893 43.6065C60.5428 43.143 60.5963 42.5369 60.6319 41.8238L61.042 35.5128H67.0677V47.8495H64.8215V37.1886H63.0209L62.7534 42.0555C62.7178 42.5547 62.7 43.0004 62.6643 43.357C62.6287 43.7135 62.593 44.0879 62.5395 44.4801C62.486 44.8723 62.4325 45.1932 62.3612 45.4606C62.2899 45.728 62.2008 45.9776 62.0938 46.2629C61.9869 46.5303 61.8621 46.7442 61.7194 46.9225C61.5768 47.0829 61.4164 47.2434 61.2203 47.386C61.0242 47.5286 60.8102 47.6356 60.5606 47.7069C60.311 47.7782 60.0258 47.8317 59.7227 47.8495C59.4197 47.8674 59.0631 47.8852 58.6709 47.8495Z" fill="white"/>
<path d="M72.3089 48.01C71.0432 48.01 70.134 47.6713 69.5813 46.976C69.0286 46.2807 68.7612 45.2823 68.7612 43.9453V39.3992C68.7612 38.7396 68.8325 38.1691 68.9395 37.6877C69.0643 37.2064 69.2604 36.7964 69.5456 36.4398C69.8131 36.0833 70.1874 35.8158 70.651 35.6554C71.1145 35.4771 71.6671 35.388 72.3268 35.388C73.5925 35.388 74.5017 35.7267 75.0544 36.4042C75.6071 37.0816 75.8923 38.08 75.8923 39.3992V43.9453C75.8923 44.5871 75.821 45.1576 75.6962 45.6389C75.5714 46.1203 75.3753 46.5481 75.0901 46.9047C74.8226 47.2612 74.4483 47.5286 73.9847 47.7247C73.5034 47.903 72.9507 48.01 72.3089 48.01ZM71.7385 46.245C71.8989 46.3164 72.0772 46.3342 72.2911 46.3342C72.505 46.3342 72.7012 46.2985 72.8438 46.245C73.0042 46.1737 73.1112 46.1024 73.2182 45.9955C73.3073 45.8885 73.3786 45.7637 73.4321 45.5854C73.4856 45.4071 73.5212 45.2467 73.5391 45.0862C73.5569 44.9258 73.5569 44.7119 73.5569 44.4801V38.8644C73.5569 38.5613 73.5391 38.3117 73.5212 38.1156C73.5034 37.9195 73.4321 37.7234 73.3429 37.563C73.2538 37.3847 73.129 37.2599 72.9507 37.1707C72.7725 37.0816 72.5585 37.046 72.2911 37.046C72.0237 37.046 71.8098 37.0816 71.6315 37.1707C71.4532 37.2599 71.3284 37.3847 71.2393 37.563C71.1501 37.7412 71.0967 37.9195 71.061 38.1156C71.0254 38.3117 71.0075 38.5613 71.0075 38.8644V44.4623C71.0075 44.694 71.0075 44.8901 71.0253 45.0684C71.0432 45.2467 71.0788 45.4071 71.1323 45.5676C71.1858 45.728 71.2571 45.8707 71.3462 45.9776C71.4532 46.0846 71.578 46.1737 71.7385 46.245Z" fill="white"/>
<path d="M76.7837 50.3098V46.2629H77.2829C77.5503 46.1024 77.782 45.8885 77.9782 45.6211C78.1743 45.3537 78.3704 44.9615 78.5665 44.4623C78.7626 43.9631 78.9052 43.2856 79.0478 42.4477C79.1726 41.6098 79.2617 40.5937 79.3331 39.3992L79.5648 35.5306H85.0736V46.2629H86.375V50.3098H84.7705L84.6279 47.8674H78.5843L78.4417 50.3098H76.7837ZM79.3687 46.245H82.9164V37.1351H81.3654L81.2584 39.7558C81.2228 40.4332 81.1871 41.0572 81.1336 41.6277C81.0802 42.1803 81.0089 42.6617 80.9554 43.0539C80.9019 43.4461 80.8128 43.8027 80.7058 44.1236C80.5988 44.4623 80.5097 44.7119 80.4205 44.8901C80.3492 45.0684 80.2244 45.2645 80.0818 45.4606C79.9392 45.6567 79.8144 45.7994 79.7431 45.8707C79.654 45.9776 79.5292 46.1024 79.3687 46.245Z" fill="white"/>
<path d="M87.4626 50.0067V48.42C88.4253 48.4913 89.0492 48.3844 89.3345 48.117C89.6197 47.8317 89.6732 47.3147 89.5127 46.5659L86.9634 35.5128H89.067L90.0832 40.6471L90.6181 44.284L91.0638 40.665L91.9373 35.5306H94.0766L91.7412 46.7621C91.5808 47.5465 91.4381 48.0991 91.3133 48.4379C91.1885 48.7766 90.9924 49.0975 90.6894 49.4184C90.3863 49.7393 89.9941 49.9176 89.5127 49.9889C89.0136 50.0423 88.3361 50.0602 87.4626 50.0067Z" fill="white"/>
<path d="M13.1389 48.01V43.5531L21.1257 31.1272C21.2149 30.9846 21.5358 30.5032 22.0706 29.701C22.6054 28.8987 22.962 28.3461 23.1224 28.043C23.2829 27.7399 23.5325 27.2586 23.8712 26.6168C24.1921 25.9571 24.4239 25.351 24.5486 24.7983C24.6734 24.2457 24.7269 23.6752 24.7269 23.0691C24.7269 21.9281 24.4952 21.0545 24.0316 20.4662C23.6394 19.967 23.0868 19.6996 22.3915 19.6996C22.2845 19.6996 22.1776 19.6996 22.0528 19.7174C20.3057 19.8779 19.4321 21.518 19.4321 24.6379V26.1354H13.2459V24.5309C13.2459 23.0156 13.4063 21.6428 13.7451 20.4306C14.0838 19.2183 14.6008 18.1486 15.2782 17.2216C15.9557 16.2945 16.9006 15.5814 18.0772 15.0822C19.2538 14.5831 20.6266 14.3335 22.1954 14.3335C25.0835 14.3335 27.2585 15.1001 28.7382 16.6333C30.2179 18.1664 30.9666 20.3236 30.9666 23.1047C30.9666 24.0496 30.8775 24.9588 30.6814 25.8145C30.4853 26.6702 30.1822 27.526 29.7722 28.3461C29.3621 29.1661 28.9699 29.8792 28.6134 30.4497C28.2568 31.038 27.7755 31.769 27.1693 32.6604C26.9732 32.9456 26.8306 33.1595 26.7236 33.3022L20.3235 42.9648H30.0931V47.9922H13.1389V48.01Z" fill="white"/>
<path d="M70.7045 145.224V147.667C70.7045 147.685 70.6867 147.702 70.6867 147.72C70.6867 147.738 70.6867 147.756 70.7045 147.774C70.7223 148.38 71.2215 148.861 71.8276 148.879H71.8455H71.8811H100.548H100.566H100.584C101.208 148.861 101.707 148.362 101.707 147.738V147.72V144.939C117.877 139.644 129.964 126.577 132.62 110.639C132.62 110.603 132.638 110.567 132.638 110.55C132.656 110.496 132.656 110.443 132.656 110.389C132.656 109.747 132.139 109.23 131.497 109.23H40.6648H40.1122C39.4704 109.23 38.9534 109.747 38.9534 110.389L39.0069 110.906C41.8058 126.987 54.2317 140.144 70.7045 145.224Z" fill="white"/>
<path d="M101.707 70.2233C101.332 70.7582 92.5077 83.4693 101.903 93.7381C106.217 98.4624 105.843 102.616 104.613 105.433H110.639C111.869 101.279 111.352 96.0735 106.467 90.7252C99.5497 83.1484 106.556 72.9153 106.663 72.7549C107.483 71.5961 107.055 70.0807 105.682 69.3854C104.31 68.6901 102.527 69.0645 101.707 70.2233Z" fill="white"/>
<path d="M86.4285 105.433H92.4543C93.6666 101.279 93.1674 96.0735 88.2648 90.7252C81.3298 83.1484 88.3361 72.9153 88.4609 72.7549C89.281 71.5961 88.8531 70.0807 87.4804 69.3854C86.1255 68.6901 84.3427 69.0645 83.5226 70.2233C83.1482 70.7582 74.3057 83.4693 83.7187 93.7381C88.033 98.4624 87.6586 102.616 86.4285 105.433Z" fill="white"/>
<path d="M65.3563 70.2233C64.982 70.7582 56.1394 83.4693 65.5525 93.7381C69.8668 98.4624 69.4924 102.616 68.2623 105.433H74.288C75.5003 101.279 75.0011 96.0735 70.0985 90.7252C63.1635 83.1484 70.1877 72.9153 70.2946 72.7549C71.1147 71.5961 70.6868 70.0807 69.3141 69.3854C67.9414 68.6901 66.1764 69.0645 65.3563 70.2233Z" fill="white"/>
</g>
<defs>
<clipPath id="clip0_111_5352">
<rect width="173" height="173" fill="white"/>
</clipPath>
</defs>
</svg>
