<svg width="173" height="173" viewBox="0 0 173 173" fill="none" xmlns="http://www.w3.org/2000/svg">
<g clip-path="url(#clip0_111_5349)">
<path d="M0 0H173V173H0V0Z" fill="#241F20"/>
<path d="M44.605 27.3477V15.0109H48.4379V13.1568H49.7928V16.6689H46.8691V27.3477H44.605Z" fill="white"/>
<path d="M50.8804 27.3477V15.0109H56.0504V16.5976H53.1267V20.1453H55.4264V21.732H53.1267V25.7967H56.0861V27.3477H50.8804Z" fill="white"/>
<path d="M57.4053 27.3477V15.0109H59.6516V20.1631H62.1653V15.0109H64.4116V27.3477H62.1653V21.7676H59.6516V27.3477H57.4053Z" fill="white"/>
<path d="M65.5703 29.8079V25.761H66.0695C66.3369 25.6006 66.5687 25.3866 66.7648 25.1192C66.9609 24.8518 67.157 24.4596 67.3531 23.9604C67.5492 23.4613 67.6918 22.7838 67.8344 21.9459C67.9592 21.108 68.0484 20.0918 68.1197 18.8974L68.3514 15.0288H73.8602V25.761H75.1616V29.8079H73.5571L73.4145 27.3655H67.3709L67.2283 29.8079H65.5703ZM68.1375 25.7432H71.6852V16.6332H70.1342L70.0272 19.2539C69.9916 19.9314 69.9559 20.5553 69.9024 21.1258C69.849 21.6785 69.7777 22.1598 69.7242 22.552C69.6707 22.9443 69.5815 23.3008 69.4746 23.6217C69.3676 23.9604 69.2785 24.21 69.1893 24.3883C69.118 24.5666 68.9932 24.7627 68.8506 24.9588C68.708 25.1549 68.5832 25.2975 68.5119 25.3688C68.4227 25.4758 68.298 25.6006 68.1375 25.7432Z" fill="white"/>
<path d="M76.374 27.3477V15.0109H81.5441V16.5976H78.6203V20.1453H80.9201V21.732H78.6203V25.7967H81.5797V27.3477H76.374Z" fill="white"/>
<path d="M82.8633 27.3477V15.0109H86.411C88.5147 15.0109 89.5665 16.1876 89.5665 18.523C89.5665 19.664 89.2813 20.5019 88.7108 21.0367C88.1403 21.5715 87.3202 21.8389 86.2684 21.8389H85.1096V27.3477H82.8633ZM85.1096 20.2523H85.8405C86.4823 20.2523 86.9102 20.1275 87.1241 19.8779C87.338 19.6283 87.4628 19.1648 87.4628 18.5052C87.4628 18.1308 87.445 17.8277 87.4093 17.6138C87.3737 17.3998 87.3024 17.2216 87.1954 17.0433C87.0884 16.865 86.928 16.758 86.7141 16.6867C86.5001 16.6154 86.2149 16.5976 85.8405 16.5976H85.1096V20.2523Z" fill="white"/>
<path d="M90.7788 27.3477V15.0109H93.0251V20.1631H95.5388V15.0109H97.7851V27.3477H95.5388V21.7676H93.0251V27.3477H90.7788Z" fill="white"/>
<path d="M98.9973 27.3477L101.511 15.0109H103.864L106.36 27.3477H104.274L103.775 24.4774H101.636L101.137 27.3477H98.9973ZM101.868 23.0156H103.526L102.705 17.9525L101.868 23.0156Z" fill="white"/>
<path d="M44.5872 47.8496V35.5128H48.1349C50.2385 35.5128 51.2904 36.6894 51.2904 39.0248C51.2904 40.1658 51.0051 41.0037 50.4346 41.5385C49.8642 42.0734 49.0441 42.3408 47.9922 42.3408H46.8334V47.8496H44.5872ZM46.8334 40.7541H47.5644C48.2062 40.7541 48.634 40.6293 48.848 40.3797C49.0619 40.1302 49.1867 39.6666 49.1867 39.007C49.1867 38.6326 49.1689 38.3296 49.1332 38.1156C49.0976 37.9017 49.0263 37.7234 48.9193 37.5451C48.8123 37.3669 48.6519 37.2599 48.4379 37.1886C48.224 37.1173 47.9388 37.0995 47.5644 37.0995H46.8334V40.7541Z" fill="white"/>
<path d="M52.4849 47.8496V35.5128H54.6955V47.8496H52.4849Z" fill="white"/>
<path d="M56.5317 47.8496V35.5128H59.5446C60.1151 35.5128 60.6143 35.5663 61.0422 35.6732C61.47 35.7802 61.8444 35.9407 62.1831 36.1724C62.5218 36.4042 62.7536 36.7429 62.9319 37.1529C63.0923 37.563 63.1815 38.08 63.1815 38.6683C63.1815 40.1836 62.5753 41.0394 61.3809 41.2177C62.8249 41.4851 63.5559 42.5012 63.5559 44.284C63.5559 45.4606 63.2706 46.352 62.6823 46.9582C62.094 47.5643 61.2383 47.8674 60.0973 47.8674H56.5317V47.8496ZM58.778 40.5402H59.4733C60.1329 40.5402 60.5965 40.3976 60.846 40.1123C61.0956 39.8271 61.2204 39.3457 61.2204 38.6861C61.2204 38.3474 61.1848 38.0621 61.0956 37.8482C61.0065 37.6343 60.8817 37.4738 60.6856 37.3669C60.4895 37.2599 60.2756 37.1886 60.0438 37.1529C59.812 37.1173 59.4911 37.0995 59.0989 37.0995H58.778V40.5402ZM58.778 46.2629H59.5981C60.2756 46.2629 60.7391 46.1024 60.9887 45.7994C61.2383 45.4963 61.363 44.9793 61.363 44.2484C61.363 43.4996 61.2204 42.9648 60.9352 42.626C60.6499 42.2873 60.1508 42.1269 59.4733 42.1269H58.7602V46.2629H58.778Z" fill="white"/>
<path d="M64.9998 47.8496V35.5128H67.246V40.665H69.7598V35.5128H72.006V47.8496H69.7598V42.2695H67.246V47.8496H64.9998Z" fill="white"/>
<path d="M73.8782 47.8496V35.5128H76.0888V47.8496H73.8782Z" fill="white"/>
<path d="M81.223 48.01C80.6882 48.01 80.2246 47.9387 79.8146 47.8139C79.4046 47.6891 79.0658 47.493 78.7984 47.2612C78.531 47.0295 78.3171 46.7264 78.1566 46.3699C77.9962 46.0133 77.8714 45.6389 77.8001 45.2289C77.7288 44.8188 77.6931 44.3732 77.6931 43.8561V39.5597C77.6931 39.0248 77.7288 38.5435 77.8001 38.1335C77.8714 37.7234 77.9784 37.3312 78.1566 36.9747C78.3349 36.6181 78.531 36.3329 78.7984 36.1011C79.0658 35.8693 79.4046 35.6911 79.7968 35.5663C80.2068 35.4415 80.6703 35.3702 81.2052 35.3702C81.8291 35.3702 82.3461 35.4593 82.7918 35.6197C83.2197 35.7802 83.5763 36.0298 83.8258 36.3507C84.0754 36.6716 84.2715 37.046 84.3785 37.456C84.4855 37.8839 84.5568 38.383 84.5568 38.9357V39.9875H82.3996V38.9357C82.3996 38.3117 82.364 37.9017 82.3105 37.6878C82.1857 37.2777 81.8648 37.046 81.3656 37.0103C81.33 37.0103 81.2943 37.0103 81.2408 37.0103C81.0447 37.0103 80.8843 37.0281 80.7417 37.0816C80.599 37.1173 80.4921 37.1886 80.4029 37.2956C80.3138 37.3847 80.2425 37.4917 80.189 37.5986C80.1355 37.7056 80.0999 37.8482 80.0642 38.0265C80.0285 38.2048 80.0285 38.3652 80.0107 38.5078C80.0107 38.6505 79.9929 38.8466 79.9929 39.0783V44.3018C79.9929 45.0328 80.082 45.5498 80.2603 45.8528C80.4386 46.1559 80.7595 46.3164 81.223 46.3164C81.3834 46.3164 81.5261 46.2985 81.6509 46.2629C81.7757 46.2272 81.8648 46.1737 81.9539 46.1203C82.0431 46.0668 82.0966 45.9776 82.1679 45.8707C82.2213 45.7637 82.2748 45.6567 82.2927 45.5676C82.3283 45.4785 82.3461 45.3537 82.364 45.1754C82.3818 44.9971 82.3818 44.8723 82.3818 44.7654C82.3818 44.6584 82.3818 44.4979 82.3818 44.3018V43.1965H84.5389V44.2127C84.5389 44.6762 84.5033 45.0863 84.4498 45.4606C84.3963 45.835 84.2715 46.1737 84.1111 46.4946C83.9506 46.8155 83.7545 47.083 83.5049 47.2969C83.2554 47.5108 82.9345 47.6713 82.5601 47.7961C82.1857 47.9387 81.7222 48.01 81.223 48.01Z" fill="white"/>
<path d="M87.3202 47.8496V37.1708H85.2522V35.5128H91.5632V37.1708H89.5665V47.8496H87.3202Z" fill="white"/>
<path d="M92.5615 47.8496V35.5128H94.8078V40.6828H95.2357C95.8953 40.6828 96.4658 40.7363 96.9293 40.8611C97.3928 40.9859 97.8029 41.1642 98.1416 41.4494C98.4803 41.7347 98.7299 42.0912 98.8904 42.5547C99.0508 43.0182 99.1399 43.5887 99.1399 44.2662C99.1399 44.9436 99.0508 45.532 98.8725 45.9955C98.6943 46.459 98.4268 46.8334 98.0881 47.1186C97.7494 47.4039 97.3215 47.5821 96.858 47.7069C96.3945 47.8317 95.8418 47.8852 95.2 47.8852H92.5615V47.8496ZM94.8078 46.3164H95.2C95.5388 46.3164 95.824 46.2807 96.0379 46.2272C96.2519 46.1738 96.448 46.0668 96.6084 45.9063C96.7689 45.7459 96.8758 45.532 96.9471 45.2645C97.0185 44.9971 97.0541 44.6406 97.0363 44.2127C97.0363 43.5174 96.8937 43.0182 96.6262 42.7152C96.3588 42.4121 95.8597 42.2517 95.1644 42.2517H94.8078V46.3164Z" fill="white"/>
<path d="M21.839 48.5448C20.4663 48.5448 19.2719 48.3844 18.2557 48.0635C17.2395 47.7426 16.4194 47.2969 15.7776 46.7264C15.1358 46.1737 14.6366 45.4428 14.2623 44.5692C13.8879 43.6957 13.6205 42.7508 13.4778 41.7703C13.3352 40.7898 13.2639 39.631 13.2639 38.3296H19.4323C19.4323 39.2922 19.468 40.0767 19.5393 40.7006C19.6106 41.3246 19.7354 41.8773 19.9136 42.3764C20.0919 42.8756 20.3772 43.25 20.7516 43.4818C21.0903 43.6957 21.5538 43.8027 22.0886 43.8027H22.1956C22.4987 43.7848 22.7839 43.7492 23.0335 43.66C23.2831 43.5887 23.497 43.4461 23.6575 43.2322C23.8357 43.0361 23.9784 42.84 24.1032 42.626C24.228 42.4299 24.3349 42.1447 24.4062 41.7703C24.4775 41.3959 24.531 41.075 24.5845 40.7719C24.638 40.4867 24.6558 40.0767 24.6915 39.5418C24.7093 39.007 24.7271 38.5613 24.7271 38.1869C24.7271 37.8126 24.745 37.3134 24.745 36.6537C24.745 36.0298 24.7271 35.4771 24.7093 35.0136C24.6736 34.5501 24.638 34.0687 24.5845 33.5874C24.531 33.106 24.4241 32.696 24.2993 32.3751C24.1745 32.0542 23.9962 31.7511 23.8001 31.4837C23.604 31.2163 23.3544 31.0202 23.0335 30.8776C22.7126 30.735 22.3739 30.6815 21.946 30.6815C20.4485 30.6815 19.5036 31.662 19.1114 33.623H13.6026L14.0305 14.8148H29.3802V20.3236H19.2719L18.9153 27.5616C19.2719 27.1516 19.8423 26.795 20.5911 26.5098C21.3399 26.2245 22.1956 26.0284 23.1226 25.975C23.3544 25.9571 23.5862 25.9571 23.8001 25.9571C25.9751 25.9571 27.6509 26.7772 28.8275 28.4352C30.1111 30.2714 30.7529 32.8921 30.7529 36.315C30.7529 37.563 30.6994 38.6861 30.6103 39.6666C30.5211 40.6472 30.3607 41.6277 30.1289 42.5725C29.8972 43.5352 29.5584 44.3553 29.1306 45.0506C28.7027 45.7459 28.1679 46.3698 27.5261 46.9047C26.8843 47.4395 26.082 47.8495 25.1372 48.1348C24.1566 48.42 23.0692 48.5448 21.839 48.5448Z" fill="white"/>
<path d="M79.8148 123.065C68.3337 123.065 58.992 113.723 58.992 102.242C58.992 90.7609 68.3337 81.4191 79.8148 81.4191C91.2958 81.4191 100.638 90.7609 100.638 102.242C100.638 113.723 91.2958 123.065 79.8148 123.065ZM119.802 62.7001H98.213C98.0703 62.7001 97.9455 62.8249 97.9455 62.9853V70.1699C97.9455 70.3303 98.0703 70.4373 98.213 70.4373H106.806L97.2503 79.9929C92.4368 76.2135 86.3932 73.9493 79.8148 73.9493C64.2155 73.9493 51.5222 86.6427 51.5222 102.242C51.5222 116.611 62.2901 128.484 76.1601 130.285V138.557H67.6385C67.478 138.557 67.3532 138.682 67.3532 138.824V146.526C67.3532 146.686 67.478 146.793 67.6385 146.793H76.1601V154.941C76.1601 155.083 76.2849 155.208 76.4275 155.208H84.1113C84.2717 155.208 84.3965 155.083 84.3965 154.941V146.793H92.9181C93.0608 146.793 93.1856 146.669 93.1856 146.526V138.824C93.1856 138.664 93.0608 138.557 92.9181 138.557H84.3965V130.142C97.8208 127.949 108.09 116.272 108.09 102.224C108.09 96.1627 106.182 90.5648 102.919 85.9474L112.333 76.5344V84.5746C112.333 84.7173 112.457 84.8421 112.618 84.8421H119.802C119.963 84.8421 120.088 84.7173 120.088 84.5746V62.9853C120.088 62.8249 119.963 62.7001 119.802 62.7001Z" fill="white"/>
<path d="M92.5437 93.6845H67.2818C67.1392 93.6845 67.0144 93.7915 67.0144 93.9341V100.049C67.0144 100.192 67.1392 100.299 67.2818 100.299H92.5437C92.7041 100.299 92.8289 100.192 92.8289 100.049V93.9341C92.8111 93.7915 92.6863 93.6845 92.5437 93.6845Z" fill="white"/>
<path d="M92.5437 104.595H67.2818C67.1392 104.595 67.0144 104.72 67.0144 104.845V110.96C67.0144 111.102 67.1392 111.209 67.2818 111.209H92.5437C92.7041 111.209 92.8289 111.102 92.8289 110.96V104.845C92.8111 104.72 92.6863 104.595 92.5437 104.595Z" fill="white"/>
</g>
<defs>
<clipPath id="clip0_111_5349">
<rect width="173" height="173" fill="white"/>
</clipPath>
</defs>
</svg>
