<svg width="173" height="173" viewBox="0 0 173 173" fill="none" xmlns="http://www.w3.org/2000/svg">
<g clip-path="url(#clip0_111_5350)">
<path d="M0 0H173V173H0V0Z" fill="#241F20"/>
<path d="M49.1688 27.3477V21.9281C48.5627 22.035 48.01 22.1063 47.5109 22.1063C46.5303 22.1063 45.7637 21.8568 45.1933 21.3398C44.6228 20.8406 44.3553 20.1096 44.3553 19.1648V15.0109H46.4768V19.1648C46.4768 19.4144 46.4947 19.6461 46.5482 19.8066C46.6016 19.967 46.6729 20.1453 46.7799 20.2701C46.8869 20.4127 47.0473 20.5197 47.2613 20.5732C47.4752 20.6445 47.7248 20.6801 48.0457 20.6801C48.3844 20.6801 48.7588 20.6445 49.1867 20.5553V15.0109H51.4329V27.3477H49.1688Z" fill="white"/>
<path d="M53.3226 27.3477V15.0109H55.1945V22.7303L58.5461 15.0109H60.0793V27.3477H58.1896V19.4857L54.838 27.3477H53.3226Z" fill="white"/>
<path d="M65.2494 27.5081C64.7145 27.5081 64.251 27.4368 63.841 27.312C63.4309 27.1872 63.0922 26.9911 62.8248 26.7594C62.5574 26.5276 62.3435 26.2245 62.183 25.868C62.0226 25.5114 61.8978 25.1371 61.8265 24.727C61.7551 24.317 61.7195 23.8713 61.7195 23.3543V19.0578C61.7195 18.523 61.7551 18.0416 61.8265 17.6316C61.8978 17.2216 62.0047 16.8293 62.183 16.4728C62.3613 16.1162 62.5574 15.831 62.8248 15.5992C63.0922 15.3675 63.4309 15.1892 63.8232 15.0644C64.2332 14.9396 64.6967 14.8683 65.2315 14.8683C65.8555 14.8683 66.3725 14.9574 66.8182 15.1179C67.2461 15.2783 67.6026 15.5279 67.8522 15.8488C68.1018 16.1697 68.2979 16.5441 68.4049 16.9541C68.5118 17.382 68.5832 17.8812 68.5832 18.4338V19.4857H66.426V18.4338C66.426 17.8099 66.3903 17.3998 66.3369 17.1859C66.2121 16.7759 65.8912 16.5441 65.392 16.5084C65.3563 16.5084 65.3207 16.5084 65.2672 16.5084C65.0711 16.5084 64.9106 16.5263 64.768 16.5798C64.6254 16.6154 64.5184 16.6867 64.4293 16.7937C64.3402 16.8828 64.2688 16.9898 64.2154 17.0968C64.1619 17.2037 64.1262 17.3464 64.0906 17.5246C64.0549 17.7029 64.0549 17.8634 64.0371 18.006C64.0371 18.1486 64.0193 18.3447 64.0193 18.5765V23.8C64.0193 24.5309 64.1084 25.0479 64.2867 25.351C64.465 25.6541 64.7858 25.8145 65.2494 25.8145C65.4098 25.8145 65.5524 25.7967 65.6772 25.761C65.802 25.7254 65.8912 25.6719 65.9803 25.6184C66.0694 25.5649 66.1229 25.4758 66.1942 25.3688C66.2477 25.2618 66.3012 25.1549 66.319 25.0657C66.3547 24.9766 66.3725 24.8518 66.3903 24.6735C66.4082 24.4953 66.4082 24.3705 66.4082 24.2635C66.4082 24.1565 66.4082 23.9961 66.4082 23.8V22.6947H68.5653V23.7108C68.5653 24.1744 68.5297 24.5844 68.4762 24.9588C68.4227 25.3332 68.2979 25.6719 68.1375 25.9928C67.977 26.3137 67.7809 26.5811 67.5313 26.795C67.2817 27.009 66.9608 27.1694 66.5864 27.2942C66.2121 27.4368 65.7485 27.5081 65.2494 27.5081Z" fill="white"/>
<path d="M71.3465 27.3477V16.6689H69.2784V15.0109H75.5894V16.6689H73.5927V27.3477H71.3465Z" fill="white"/>
<path d="M75.9282 27.3477L78.4419 15.0109H80.7952L83.2911 27.3477H81.2052L80.706 24.4774H78.5667L78.0675 27.3477H75.9282ZM78.7985 23.0156H80.4565L79.6364 17.9525L78.7985 23.0156Z" fill="white"/>
<path d="M88.2472 27.3477V15.0109H91.2601C91.8306 15.0109 92.3297 15.0644 92.7576 15.1714C93.1855 15.2783 93.5598 15.4388 93.8986 15.6705C94.2195 15.9023 94.4691 16.241 94.6473 16.6511C94.8078 17.0611 94.8969 17.5781 94.8969 18.1664C94.8969 19.6818 94.2908 20.5375 93.0963 20.7158C94.5404 20.9832 95.2713 21.9994 95.2713 23.7822C95.2713 24.9588 94.9861 25.8502 94.3978 26.4563C93.8094 27.0625 92.9537 27.3655 91.8127 27.3655H88.2472V27.3477ZM90.4935 20.0383H91.1888C91.8484 20.0383 92.3119 19.8957 92.5615 19.6105C92.8111 19.3252 92.9359 18.8439 92.9359 18.1843C92.9359 17.8455 92.9002 17.5603 92.8111 17.3464C92.7219 17.1324 92.5972 16.972 92.401 16.865C92.2049 16.758 91.991 16.6867 91.7593 16.6511C91.5275 16.6154 91.2066 16.5976 90.8144 16.5976H90.4935V20.0383ZM90.4935 25.761H91.3136C91.991 25.761 92.4545 25.6006 92.7041 25.2975C92.9537 24.9944 93.0785 24.4774 93.0785 23.7465C93.0785 22.9977 92.9359 22.4629 92.6506 22.1242C92.3654 21.7855 91.8662 21.625 91.1888 21.625H90.4757V25.761H90.4935Z" fill="white"/>
<path d="M100.049 27.5081C98.7833 27.5081 97.8741 27.1694 97.3214 26.4741C96.7688 25.7789 96.5013 24.7805 96.5013 23.4434V18.8974C96.5013 18.2377 96.5727 17.6673 96.6796 17.1859C96.8044 16.7046 97.0005 16.2945 97.2858 15.938C97.571 15.5814 97.9276 15.314 98.3911 15.1535C98.8546 14.9753 99.4073 14.8861 100.067 14.8861C101.333 14.8861 102.242 15.2249 102.795 15.9023C103.347 16.5798 103.615 17.5781 103.615 18.8974V23.4434C103.615 24.0852 103.543 24.6557 103.418 25.1371C103.294 25.6184 103.098 26.0463 102.812 26.4028C102.545 26.7594 102.171 27.0268 101.707 27.2229C101.244 27.4012 100.691 27.5081 100.049 27.5081ZM99.4786 25.7432C99.639 25.8145 99.8173 25.8323 100.049 25.8323C100.263 25.8323 100.459 25.7967 100.602 25.7432C100.762 25.6719 100.869 25.6006 100.976 25.4936C101.083 25.3866 101.137 25.2619 101.19 25.0836C101.244 24.9053 101.279 24.7448 101.297 24.5844C101.315 24.4239 101.315 24.21 101.315 23.9783V18.3625C101.315 18.0595 101.297 17.8099 101.261 17.6138C101.226 17.4177 101.172 17.2216 101.083 17.0611C100.994 16.8828 100.869 16.758 100.691 16.6689C100.513 16.5798 100.299 16.5441 100.031 16.5441C99.7638 16.5441 99.5321 16.5798 99.3716 16.6689C99.2112 16.758 99.0685 16.8828 98.9794 17.0611C98.8903 17.2394 98.8368 17.4177 98.8011 17.6138C98.7655 17.8099 98.7476 18.0595 98.7476 18.3625V23.9604C98.7476 24.1922 98.7476 24.3883 98.7655 24.5666C98.7833 24.7448 98.8189 24.9053 98.8724 25.0657C98.9259 25.2262 98.9972 25.3688 99.0864 25.4758C99.2112 25.5828 99.3359 25.6719 99.4786 25.7432Z" fill="white"/>
<path d="M104.542 29.8079V25.761H105.041C105.308 25.6006 105.54 25.3866 105.736 25.1192C105.932 24.8518 106.128 24.4596 106.324 23.9604C106.521 23.4612 106.663 22.7838 106.806 21.9459C106.931 21.108 107.02 20.0918 107.091 18.8974L107.323 15.0287H112.832V25.761H114.133V29.8079H112.528L112.386 27.3655H106.342L106.2 29.8079H104.542ZM107.109 25.7432H110.657V16.6332H109.106L108.999 19.2539C108.963 19.9314 108.927 20.5553 108.874 21.1258C108.82 21.6785 108.749 22.1598 108.695 22.552C108.624 22.9442 108.553 23.3008 108.446 23.6217C108.339 23.9604 108.25 24.21 108.161 24.3883C108.072 24.5666 107.965 24.7627 107.822 24.9588C107.679 25.1549 107.555 25.2975 107.483 25.3688C107.412 25.4401 107.269 25.6006 107.109 25.7432Z" fill="white"/>
<path d="M114.703 27.3477L117.217 15.0109H119.57L122.066 27.3477H119.981L119.481 24.4774H117.342L116.843 27.3477H114.703ZM117.574 23.0156H119.232L118.412 17.9525L117.574 23.0156Z" fill="white"/>
<path d="M45.7993 46.0668V35.388H43.7313V33.73H50.0423V35.388H48.0456V46.0668H45.7993Z" fill="white"/>
<path d="M50.3811 46.0668L52.8948 33.73H55.2481L57.7439 46.0668H55.6581L55.1589 43.1965H53.0196L52.5204 46.0668H50.3811ZM53.2514 41.7346H54.9093L54.0893 36.6716L53.2514 41.7346Z" fill="white"/>
<path d="M62.7 46.0668V33.73H64.9462V38.8822H67.46V33.73H69.7062V46.0668H67.46V40.4867H64.9462V46.0668H62.7Z" fill="white"/>
<path d="M70.9364 46.0668L73.4501 33.73H75.8034L78.2992 46.0668H76.2134L75.7142 43.1965H73.5749L73.0757 46.0668H70.9364ZM73.7888 41.7346H75.4468L74.6267 36.6716L73.7888 41.7346Z" fill="white"/>
<path d="M78.6023 46.0668V44.4445C78.8519 44.4445 79.048 44.4445 79.1906 44.4266C79.3332 44.4088 79.4937 44.3553 79.6363 44.2484C79.7789 44.1414 79.9037 43.9988 79.975 43.8205C80.0463 43.6422 80.1355 43.3748 80.2246 43.0361C80.3138 42.6973 80.3672 42.2873 80.4207 41.8238C80.4742 41.3603 80.5277 40.7541 80.5633 40.041L80.9734 33.73H86.9991V46.0668H84.7529V35.4058H82.9523L82.6848 40.2728C82.6492 40.772 82.6314 41.2176 82.5957 41.5742C82.56 41.9308 82.5244 42.3051 82.4709 42.6973C82.4174 43.0896 82.3639 43.4105 82.2926 43.6779C82.2213 43.9453 82.1322 44.1949 82.0252 44.4801C81.9182 44.7475 81.7935 44.9615 81.6508 45.1397C81.5082 45.3002 81.3478 45.4606 81.1517 45.6033C80.9556 45.7459 80.7416 45.8528 80.492 45.9242C80.2424 45.9955 79.9572 46.049 79.6541 46.0668C79.3511 46.0846 78.9945 46.1024 78.6023 46.0668Z" fill="white"/>
<path d="M88.8711 46.0668V33.73H94.0411V35.3167H91.1174V38.8644H93.4172V40.4511H91.1174V44.5158H94.0768V46.0668H88.8711Z" fill="white"/>
<path d="M94.4868 46.0668L97.2145 39.8093L94.6829 33.7122H96.8044L98.9972 39.5953H99.1042V33.7122H100.94V39.5953H101.047L103.24 33.7122H105.38L102.848 39.8093L105.576 46.0668H103.472L101.047 39.9697H100.923V46.0668H99.122V39.9697H98.9972L96.5905 46.0668H94.4868Z" fill="white"/>
<path d="M106.574 46.0668V33.73H108.82V38.8822H111.334V33.73H113.58V46.0668H111.334V40.4867H108.82V46.0668H106.574Z" fill="white"/>
<path d="M115.47 46.0668V33.73H117.681V46.0668H115.47Z" fill="white"/>
<path d="M47.9031 64.5184C47.3682 64.5184 46.9047 64.4471 46.4947 64.3223C46.0846 64.1975 45.7459 64.0014 45.4785 63.7697C45.2111 63.5379 44.9971 63.2348 44.8367 62.8783C44.6762 62.5217 44.5514 62.1474 44.4801 61.7373C44.4088 61.3273 44.3732 60.8816 44.3732 60.3646V56.0681C44.3732 55.5333 44.4088 55.0519 44.4801 54.6419C44.5514 54.2319 44.6584 53.8396 44.8367 53.4831C45.015 53.1265 45.2111 52.8413 45.4785 52.6095C45.7459 52.3778 46.0846 52.1995 46.4768 52.0747C46.8869 51.9499 47.3504 51.8786 47.8852 51.8786C48.5092 51.8786 49.0262 51.9677 49.4719 52.1282C49.8998 52.2886 50.2563 52.5382 50.5059 52.8591C50.7555 53.18 50.9516 53.5544 51.0586 53.9644C51.1655 54.3923 51.2368 54.8915 51.2368 55.4441V56.496H49.0797V55.4441C49.0797 54.8202 49.044 54.4101 48.9905 54.1962C48.8657 53.7862 48.5449 53.5544 48.0457 53.5187C48.01 53.5187 47.9744 53.5187 47.9209 53.5187C47.7248 53.5187 47.5643 53.5366 47.4217 53.5901C47.2791 53.6257 47.1721 53.697 47.083 53.804C46.9938 53.8931 46.9225 54.0001 46.869 54.1071C46.8156 54.214 46.7799 54.3567 46.7443 54.5349C46.7086 54.7132 46.7086 54.8737 46.6908 55.0163C46.6908 55.1589 46.6729 55.355 46.6729 55.5868V60.8103C46.6729 61.5412 46.7621 62.0582 46.9404 62.3613C47.1186 62.6644 47.4395 62.8248 47.9031 62.8248C48.0635 62.8248 48.2061 62.807 48.3309 62.7713C48.4557 62.7357 48.5449 62.6822 48.634 62.6287C48.7231 62.5752 48.7766 62.4861 48.8479 62.3791C48.9014 62.2722 48.9549 62.1652 48.9727 62.076C49.0084 61.9869 49.0262 61.8621 49.044 61.6838C49.0619 61.5056 49.0619 61.3808 49.0619 61.2738C49.0619 61.1668 49.0619 61.0064 49.0619 60.8103V59.705H51.219V60.7211C51.219 61.1847 51.1834 61.5947 51.1299 61.9691C51.0764 62.3435 50.9516 62.6822 50.7911 63.0031C50.6307 63.324 50.4346 63.5914 50.185 63.8053C49.9354 64.0193 49.6145 64.1797 49.2401 64.3045C48.8658 64.4471 48.4201 64.5184 47.9031 64.5184Z" fill="white"/>
<path d="M52.146 64.358L54.6597 52.0212H57.013L59.5088 64.358H57.423L56.9238 61.4877H54.7845L54.2853 64.358H52.146ZM55.0163 60.0259H56.6742L55.8542 54.9628L55.0163 60.0259Z" fill="white"/>
<path d="M60.739 64.358V52.0212H62.9853V57.1734H65.499V52.0212H67.7453V64.358H65.499V58.7779H62.9853V64.358H60.739Z" fill="white"/>
<path d="M69.635 64.358V52.0212H71.8456V64.358H69.635Z" fill="white"/>
<path d="M74.8585 64.358V53.6792H72.7905V52.0212H79.1015V53.6792H77.1048V64.358H74.8585Z" fill="white"/>
<path d="M79.4403 64.358L81.954 52.0212H84.3073L86.8031 64.358H84.7173L84.2181 61.4877H82.0788L81.5796 64.358H79.4403ZM82.3106 60.0259H83.9685L83.1485 54.9628L82.3106 60.0259Z" fill="white"/>
<path d="M88.0154 64.358V52.0212H91.5631C93.6668 52.0212 94.7186 53.1979 94.7186 55.5333C94.7186 56.6743 94.4334 57.5122 93.8629 58.047C93.2924 58.5818 92.4723 58.8492 91.4205 58.8492H90.2617V64.358H88.0154ZM90.2617 57.2626H90.9926C91.6344 57.2626 92.0623 57.1378 92.2762 56.8882C92.4901 56.6386 92.6149 56.1751 92.6149 55.5155C92.6149 55.1411 92.5971 54.838 92.5614 54.6241C92.5258 54.4101 92.4545 54.2319 92.3475 54.0536C92.2405 53.8753 92.0801 53.7683 91.8662 53.697C91.6522 53.6257 91.3492 53.6079 90.9926 53.6079H90.2617V57.2626Z" fill="white"/>
<path d="M95.9131 64.358V52.0212H98.1594V57.1734H100.673V52.0212H102.919V64.358H100.673V58.7779H98.1594V64.358H95.9131Z" fill="white"/>
<path d="M104.809 64.358V52.0212H107.02V64.358H104.809Z" fill="white"/>
<path d="M112.422 66.5151V64.9285C113.384 64.9998 114.008 64.8928 114.293 64.6254C114.579 64.3402 114.632 63.8232 114.472 63.0744L111.922 52.0212H114.026L115.042 57.1556L115.577 60.7924L116.023 57.1734L116.896 52.0391H119.036L116.7 63.2705C116.54 64.0549 116.397 64.6076 116.272 64.9463C116.148 65.285 115.951 65.6059 115.648 65.9268C115.345 66.2477 114.953 66.426 114.472 66.4973C113.99 66.5686 113.277 66.5686 112.422 66.5151Z" fill="white"/>
<path d="M120.07 64.358L120.266 52.0212H122.476L124.366 60.3289L126.291 52.0212H128.449L128.663 64.358H126.987L126.862 56.3534L124.972 64.358H123.796L121.87 56.3355L121.763 64.358H120.07Z" fill="white"/>
<path d="M133.85 64.5184C132.585 64.5184 131.675 64.1797 131.123 63.4844C130.57 62.7891 130.303 61.7908 130.303 60.4537V55.9077C130.303 55.248 130.374 54.6775 130.481 54.1962C130.606 53.7148 130.802 53.3048 131.087 52.9483C131.372 52.5917 131.729 52.3243 132.192 52.1638C132.656 51.9856 133.209 51.8964 133.868 51.8964C135.134 51.8964 136.043 52.2351 136.596 52.9126C137.149 53.5901 137.416 54.5884 137.416 55.9077V60.4537C137.416 61.0955 137.345 61.666 137.22 62.1474C137.095 62.6287 136.899 63.0566 136.614 63.4131C136.346 63.7697 135.972 64.0371 135.508 64.2332C135.045 64.4115 134.492 64.5184 133.85 64.5184ZM133.298 62.7535C133.458 62.8248 133.637 62.8426 133.868 62.8426C134.082 62.8426 134.278 62.807 134.421 62.7535C134.581 62.6822 134.688 62.6109 134.795 62.5039C134.902 62.3969 134.956 62.2721 135.009 62.0939C135.063 61.9156 135.098 61.7551 135.116 61.5947C135.134 61.4342 135.134 61.2203 135.134 60.9885V55.3907C135.134 55.0876 135.116 54.838 135.081 54.6419C135.045 54.4458 134.991 54.2497 134.902 54.0892C134.813 53.911 134.688 53.7862 134.51 53.697C134.332 53.6079 134.118 53.5722 133.85 53.5722C133.583 53.5722 133.351 53.6079 133.191 53.697C133.03 53.7862 132.888 53.911 132.799 54.0892C132.709 54.2675 132.656 54.4458 132.62 54.6419C132.585 54.838 132.567 55.0876 132.567 55.3907V60.9885C132.567 61.2203 132.567 61.4164 132.585 61.5947C132.603 61.773 132.638 61.9334 132.692 62.0939C132.745 62.2543 132.816 62.3969 132.906 62.5039C133.013 62.593 133.137 62.6822 133.298 62.7535Z" fill="white"/>
<path d="M139.074 64.358V52.0212H142.105C142.675 52.0212 143.174 52.0747 143.602 52.1817C144.03 52.2886 144.404 52.4491 144.743 52.6808C145.082 52.9126 145.314 53.2513 145.492 53.6614C145.652 54.0714 145.742 54.5884 145.724 55.1767C145.724 56.6921 145.118 57.5478 143.923 57.7261C145.367 57.9935 146.098 59.0097 146.098 60.7924C146.098 61.9691 145.813 62.8605 145.225 63.4666C144.636 64.0727 143.78 64.3758 142.64 64.3758L139.074 64.358ZM141.32 57.0486H142.016C142.675 57.0486 143.139 56.906 143.388 56.6208C143.638 56.3355 143.763 55.8542 143.763 55.1946C143.763 54.8558 143.727 54.5706 143.638 54.3567C143.549 54.1427 143.424 53.9823 143.228 53.8753C143.032 53.7683 142.818 53.697 142.586 53.6614C142.354 53.6257 142.033 53.6079 141.641 53.6079H141.32V57.0486ZM141.32 62.7713H142.14C142.818 62.7713 143.281 62.6109 143.531 62.3078C143.78 62.0047 143.905 61.4877 143.905 60.7568C143.905 60.008 143.763 59.4732 143.477 59.1345C143.192 58.7957 142.693 58.6353 142.016 58.6353H141.302V62.7713H141.32Z" fill="white"/>
<path d="M147.542 64.358V52.0212H149.414V59.7406L152.766 52.0212H154.299V64.358H152.409V56.496L149.057 64.358H147.542Z" fill="white"/>
<path d="M22.0885 48.4557C20.5375 48.4557 19.1826 48.1883 18.0238 47.6356C16.865 47.083 15.938 46.3164 15.2249 45.318C14.5296 44.3197 13.9948 43.1609 13.656 41.8594C13.3173 40.558 13.139 39.114 13.139 37.5095V25.9571C13.139 24.5844 13.2103 23.3365 13.3708 22.249C13.5312 21.1436 13.8165 20.0918 14.2265 19.0935C14.6366 18.0951 15.1714 17.2572 15.831 16.5976C16.4906 15.938 17.3464 15.4031 18.3982 15.0109C19.45 14.6187 20.6802 14.4226 22.0707 14.4226C25.0123 14.4226 27.1516 15.1357 28.4709 16.5441C29.8079 17.9525 30.4854 20.074 30.5389 22.8729V23.3899H24.5131C24.5131 21.9102 24.3527 20.8584 24.0496 20.2166C23.7465 19.5748 23.0869 19.2717 22.1064 19.2717C21.1258 19.2717 20.4484 19.7531 20.0918 20.7336C19.7353 21.7141 19.557 23.4791 19.557 26.0106V29.4157C19.9136 28.8096 20.4662 28.3104 21.215 27.9717C21.9637 27.6329 22.8195 27.4368 23.8 27.419H23.9248C24.9053 27.419 25.7789 27.5616 26.5811 27.8647C27.4012 28.1856 28.0965 28.6313 28.6491 29.1839C29.2018 29.7366 29.6475 30.4319 29.9862 31.252C30.3249 32.072 30.5745 32.9456 30.735 33.8726C30.8954 34.7997 30.9667 35.8337 30.9667 36.939C30.9667 38.3295 30.8776 39.5953 30.6993 40.7185C30.521 41.8594 30.218 42.9113 29.7901 43.8918C29.3622 44.8723 28.8096 45.6924 28.15 46.3698C27.4903 47.0473 26.6346 47.5643 25.6184 47.9387C24.5844 48.2596 23.4078 48.4557 22.0885 48.4557ZM22.1777 43.6957C22.6769 43.6957 23.1047 43.5709 23.4434 43.3213C23.7822 43.0717 24.0318 42.6795 24.1922 42.1447C24.3527 41.6098 24.4775 41.0215 24.5488 40.3976C24.6201 39.7736 24.6557 38.9713 24.6557 38.0443C24.6557 37.4382 24.6557 36.9925 24.6379 36.6894C24.6379 36.3863 24.6022 35.9763 24.5844 35.4949C24.5488 35.0136 24.5131 34.6392 24.4418 34.3718C24.3883 34.1044 24.2992 33.8191 24.1744 33.4982C24.0496 33.1773 23.907 32.9456 23.7287 32.7851C23.5504 32.6247 23.3187 32.4999 23.0512 32.3929C22.7838 32.286 22.4808 32.2147 22.1242 32.2147C21.5537 32.2147 21.0367 32.3751 20.591 32.7138C20.1453 33.0526 19.7888 33.4269 19.5748 33.8726V39.0605C19.557 42.1269 20.4306 43.6957 22.1777 43.6957Z" fill="white"/>
<path d="M113.527 85.466C111.815 84.7173 109.658 84.9847 107.572 85.8226C99.7461 88.9959 94.4334 90.1369 86.197 87.5519C81.0092 85.9296 76.16 82.5245 70.4374 84.6103C66.6401 85.9831 63.0923 87.2845 58.7959 87.2488L56.3178 74.5198H115.328L113.527 85.466ZM93.5242 123.279C93.5242 123.279 90.654 126.22 86.0009 125.899C81.3301 126.22 78.4598 123.279 78.4598 123.279C73.7355 118.554 75.4291 112.689 77.0693 109.658C78.0854 107.751 85.3413 96.858 85.9653 95.9309V95.8596C85.9653 95.8596 85.9831 95.8774 86.0009 95.8953L86.0188 95.8596V95.9309C86.6249 96.858 93.8986 107.751 94.9148 109.658C96.5728 112.689 98.2486 118.554 93.5242 123.279ZM117.895 71.9883C117.752 71.8279 117.556 71.7387 117.324 71.7387H54.2676C54.0537 71.7387 53.8576 71.8279 53.6971 71.9883C53.5545 72.1666 53.501 72.3805 53.5367 72.5945L64.1264 136.649C64.1798 137.006 64.5007 137.273 64.8573 137.273H77.8537L78.7451 147.703H73.272L86.0009 160.432L98.7656 147.667H93.2925L94.1839 137.256H107.412C107.769 137.256 108.089 136.988 108.143 136.632L118.055 72.5766C118.091 72.3627 118.037 72.1488 117.895 71.9883Z" fill="white"/>
</g>
<defs>
<clipPath id="clip0_111_5350">
<rect width="173" height="173" fill="white"/>
</clipPath>
</defs>
</svg>
