<svg width="173" height="173" viewBox="0 0 173 173" fill="none" xmlns="http://www.w3.org/2000/svg">
<g clip-path="url(#clip0_111_4676)">
<path d="M0 0H173V173H0V0Z" fill="#FCC30B"/>
<path d="M43.874 29.8079V25.7611H44.3732C44.6406 25.6006 44.8724 25.3867 45.0685 25.1193C45.2646 24.8518 45.4607 24.4596 45.6568 23.9605C45.8529 23.4613 45.9955 22.7838 46.1381 21.9459C46.2629 21.108 46.3521 20.0918 46.4234 18.8974L46.6551 15.0288H52.1639V25.7611H53.4653V29.8079H51.8608L51.7182 27.3655H45.6746L45.532 29.8079H43.874ZM46.459 25.7432H50.0067V16.6333H48.4557L48.3488 19.2539C48.3131 19.9314 48.2775 20.5554 48.224 21.1259C48.1705 21.6785 48.0992 22.1599 48.0457 22.5521C47.9922 22.9443 47.9031 23.3008 47.7961 23.6217C47.6891 23.9605 47.6 24.21 47.5109 24.3883C47.4396 24.5666 47.3148 24.7627 47.1721 24.9588C47.0295 25.1549 46.9047 25.2975 46.8334 25.3688C46.7443 25.4758 46.6195 25.6006 46.459 25.7432Z" fill="white"/>
<path d="M58.047 27.5082C56.7812 27.5082 55.872 27.1694 55.3193 26.4741C54.7667 25.7789 54.4993 24.7805 54.4993 23.4434V18.8974C54.4993 18.2377 54.5706 17.6673 54.6775 17.1859C54.8023 16.7046 54.9984 16.2945 55.2837 15.938C55.5511 15.5814 55.9255 15.314 56.389 15.1536C56.8525 14.9753 57.4052 14.8861 58.0648 14.8861C59.3306 14.8861 60.2398 15.2249 60.7924 15.9023C61.3451 16.5798 61.6303 17.5781 61.6303 18.8974V23.4434C61.6303 24.0852 61.559 24.6557 61.4342 25.1371C61.3094 25.6184 61.1133 26.0463 60.8281 26.4028C60.5607 26.7594 60.1863 27.0268 59.7228 27.2229C59.2414 27.4012 58.6888 27.5082 58.047 27.5082ZM57.4765 25.7432C57.6369 25.8145 57.8152 25.8323 58.0292 25.8323C58.2431 25.8323 58.4392 25.7967 58.5818 25.7432C58.7423 25.6719 58.8492 25.6006 58.9562 25.4936C59.0453 25.3867 59.1166 25.2619 59.1701 25.0836C59.2236 24.9053 59.2593 24.7449 59.2771 24.5844C59.2949 24.424 59.2949 24.21 59.2949 23.9783V18.3625C59.2949 18.0595 59.2771 17.8099 59.2593 17.6138C59.2414 17.4177 59.1701 17.2216 59.081 17.0611C58.9918 16.8828 58.8671 16.758 58.6888 16.6689C58.5105 16.5798 58.2966 16.5441 58.0292 16.5441C57.7617 16.5441 57.5478 16.5798 57.3695 16.6689C57.1913 16.758 57.0665 16.8828 56.9773 17.0611C56.8882 17.2394 56.8347 17.4177 56.799 17.6138C56.7634 17.8099 56.7456 18.0595 56.7456 18.3625V23.9604C56.7456 24.1922 56.7456 24.3883 56.7634 24.5666C56.7812 24.7449 56.8169 24.9053 56.8704 25.0658C56.9238 25.2262 56.9951 25.3688 57.0843 25.4758C57.1913 25.5828 57.316 25.6719 57.4765 25.7432Z" fill="white"/>
<path d="M66.5509 27.5082C66.0161 27.5082 65.5525 27.4368 65.1425 27.312C64.7325 27.1873 64.3937 26.9912 64.1263 26.7594C63.8589 26.5276 63.645 26.2246 63.4845 25.868C63.3241 25.5115 63.1993 25.1371 63.128 24.727C63.0567 24.317 63.021 23.8713 63.021 23.3543V19.0578C63.021 18.523 63.0567 18.0416 63.128 17.6316C63.1993 17.2216 63.3062 16.8294 63.4845 16.4728C63.6628 16.1163 63.8589 15.831 64.1263 15.5993C64.3937 15.3675 64.7325 15.1892 65.1247 15.0644C65.5347 14.9396 65.9982 14.8683 66.5331 14.8683C67.157 14.8683 67.674 14.9575 68.1197 15.1179C68.5476 15.2784 68.9041 15.5279 69.1537 15.8488C69.4033 16.1697 69.5994 16.5441 69.7064 16.9542C69.8133 17.382 69.8847 17.8812 69.8847 18.4339V19.4857H67.7275V18.4339C67.7275 17.8099 67.6919 17.3999 67.6384 17.1859C67.5136 16.7759 67.1927 16.5441 66.6935 16.5085C66.6578 16.5085 66.6222 16.5085 66.5687 16.5085C66.3726 16.5085 66.2122 16.5263 66.0695 16.5798C65.9269 16.6154 65.8199 16.6867 65.7308 16.7937C65.6417 16.8828 65.5704 16.9898 65.5169 17.0968C65.4634 17.2037 65.4277 17.3464 65.3921 17.5246C65.3564 17.7029 65.3564 17.8634 65.3386 18.006C65.3386 18.1486 65.3208 18.3447 65.3208 18.5765V23.8C65.3208 24.5309 65.4099 25.0479 65.5882 25.351C65.7665 25.6541 66.0874 25.8145 66.5509 25.8145C66.7113 25.8145 66.854 25.7967 66.9787 25.761C67.1035 25.7254 67.1927 25.6719 67.2818 25.6184C67.371 25.5649 67.4244 25.4758 67.4958 25.3688C67.5492 25.2619 67.6027 25.1549 67.6205 25.0658C67.6562 24.9766 67.674 24.8518 67.6919 24.6736C67.7097 24.4953 67.7097 24.3705 67.7097 24.2635C67.7097 24.1565 67.7097 23.9961 67.7097 23.8V22.6947H69.8668V23.7109C69.8668 24.1744 69.8312 24.5844 69.7777 24.9588C69.7242 25.3332 69.5994 25.6719 69.439 25.9928C69.2785 26.3137 69.0824 26.5811 68.8328 26.795C68.5832 27.009 68.2623 27.1694 67.888 27.2942C67.5136 27.4368 67.0679 27.5082 66.5509 27.5082Z" fill="white"/>
<path d="M72.6478 27.3477V16.6689H70.5798V15.0109H76.8908V16.6689H74.8941V27.3477H72.6478Z" fill="white"/>
<path d="M77.7646 29.5048V27.9182C78.7273 27.9895 79.3512 27.8825 79.6365 27.6151C79.9217 27.3299 79.9752 26.8129 79.8147 26.0641L77.2654 15.0109H79.3691L80.3852 20.1453L80.9201 23.7822L81.3658 20.1631L82.2393 15.0288H84.3786L82.0432 26.2602C81.8828 27.0446 81.7401 27.5973 81.6153 27.936C81.4905 28.2747 81.2944 28.5956 80.9914 28.9165C80.6883 29.2374 80.2961 29.4157 79.8147 29.487C79.2977 29.5405 78.6203 29.5583 77.7646 29.5048Z" fill="white"/>
<path d="M85.4304 27.3477V15.0109H92.5615V27.3477H90.333V16.6154H87.6589V27.3477H85.4304Z" fill="white"/>
<path d="M94.4333 27.3477V15.0109H96.6796V20.1631H99.1933V15.0109H101.44V27.3477H99.1933V21.7676H96.6796V27.3477H94.4333Z" fill="white"/>
<path d="M102.67 27.3477L105.183 15.0109H107.537L110.033 27.3477H107.947L107.448 24.4774H105.308L104.809 27.3477H102.67ZM105.54 23.0156H107.198L106.378 17.9525L105.54 23.0156Z" fill="white"/>
<path d="M116.165 27.3477V16.6689H114.097V15.0109H120.408V16.6689H118.412V27.3477H116.165Z" fill="white"/>
<path d="M120.747 27.3477L123.261 15.0109H125.614L128.11 27.3477H126.024L125.525 24.4774H123.386L122.886 27.3477H120.747ZM123.617 23.0156H125.275L124.455 17.9525L123.617 23.0156Z" fill="white"/>
<path d="M49.1689 47.8495V42.4299C48.5628 42.5369 48.0101 42.6082 47.511 42.6082C46.5304 42.6082 45.7639 42.3586 45.1934 41.8416C44.6229 41.3424 44.3555 40.6115 44.3555 39.6666V35.5128H46.477V39.6666C46.477 39.9162 46.4948 40.148 46.5483 40.3084C46.6018 40.4689 46.6731 40.6471 46.78 40.7719C46.887 40.9146 47.0475 41.0215 47.2614 41.075C47.4753 41.1463 47.7249 41.182 48.0458 41.182C48.3845 41.182 48.7589 41.1463 49.1868 41.0572V35.5128H51.4331V47.8495H49.1689Z" fill="white"/>
<path d="M53.3228 47.8495V35.5128H55.1947V43.2322L58.5463 35.5128H60.0795V47.8495H58.1897V39.9875L54.8381 47.8495H53.3228Z" fill="white"/>
<path d="M65.2496 48.01C64.7148 48.01 64.2513 47.9387 63.8412 47.8139C63.4312 47.6891 63.0925 47.493 62.825 47.2612C62.5576 47.0295 62.3437 46.7264 62.1833 46.3698C62.0228 46.0133 61.898 45.6389 61.8267 45.2289C61.7554 44.8188 61.7197 44.3731 61.7197 43.8561V39.5597C61.7197 39.0248 61.7554 38.5435 61.8267 38.1334C61.898 37.7234 62.005 37.3312 62.1833 36.9746C62.3615 36.6181 62.5576 36.3328 62.825 36.1011C63.0925 35.8693 63.4312 35.691 63.8234 35.5663C64.2334 35.4415 64.697 35.3701 65.2318 35.3701C65.8558 35.3701 66.3728 35.4593 66.8184 35.6197C67.2463 35.7802 67.6029 36.0298 67.8525 36.3507C68.102 36.6716 68.2981 37.046 68.4051 37.456C68.5121 37.8839 68.5834 38.383 68.5834 38.9357V39.9875H66.4262V38.9357C66.4262 38.3117 66.3906 37.9017 66.3371 37.6877C66.2123 37.2777 65.8914 37.046 65.3922 37.0103C65.3566 37.0103 65.3209 37.0103 65.2674 37.0103C65.0713 37.0103 64.9109 37.0281 64.7683 37.0816C64.6256 37.1173 64.5187 37.1886 64.4295 37.2955C64.3404 37.3847 64.2691 37.4916 64.2156 37.5986C64.1621 37.7056 64.1265 37.8482 64.0908 38.0265C64.0552 38.2048 64.0552 38.3652 64.0373 38.5078C64.0373 38.6504 64.0195 38.8465 64.0195 39.0783V44.3018C64.0195 45.0328 64.1086 45.5498 64.2869 45.8528C64.4652 46.1559 64.7861 46.3164 65.2496 46.3164C65.4101 46.3164 65.5527 46.2985 65.6775 46.2629C65.8023 46.2272 65.8914 46.1737 65.9805 46.1203C66.0697 46.0668 66.1232 45.9776 66.1945 45.8707C66.248 45.7637 66.3014 45.6567 66.3193 45.5676C66.3549 45.4785 66.3728 45.3537 66.3906 45.1754C66.4084 44.9971 66.4084 44.8723 66.4084 44.7653C66.4084 44.6584 66.4084 44.4979 66.4084 44.3018V43.1965H68.5656V44.2127C68.5656 44.6762 68.5299 45.0862 68.4764 45.4606C68.4229 45.835 68.2982 46.1737 68.1377 46.4946C67.9773 46.8155 67.7811 47.0829 67.5316 47.2969C67.282 47.5108 66.9611 47.6713 66.5867 47.7961C66.2123 47.9387 65.7488 48.01 65.2496 48.01Z" fill="white"/>
<path d="M71.3466 47.8495V37.1707H69.2786V35.5128H75.5896V37.1707H73.5929V47.8495H71.3466Z" fill="white"/>
<path d="M75.9282 47.8495L78.4419 35.5128H80.7952L83.2911 47.8495H81.2052L80.706 44.9793H78.5667L78.0675 47.8495H75.9282ZM78.7985 43.5174H80.4565L79.6364 38.4543L78.7985 43.5174Z" fill="white"/>
<path d="M88.2117 47.8495V35.5128H93.3817V37.0994H90.458V40.6471H92.7577V42.2338H90.458V46.2985H93.4174V47.8495H88.2117Z" fill="white"/>
<path d="M94.7366 47.8495V35.5128H96.9829V40.665H99.4966V35.5128H101.743V47.8495H99.4966V42.2695H96.9829V47.8495H94.7366Z" fill="white"/>
<path d="M103.615 47.8495V35.5128H108.785V37.0994H105.861V40.6471H108.161V42.2338H105.861V46.2985H108.82V47.8495H103.615Z" fill="white"/>
<path d="M110.104 47.8495V35.5128H113.652C115.755 35.5128 116.807 36.6894 116.807 39.0248C116.807 40.1658 116.522 41.0037 115.951 41.5385C115.381 42.0733 114.561 42.3408 113.509 42.3408H112.35V47.8495H110.104ZM112.35 40.7541H113.081C113.723 40.7541 114.151 40.6293 114.365 40.3797C114.579 40.1301 114.704 39.6666 114.704 39.007C114.704 38.6326 114.686 38.3295 114.65 38.1156C114.614 37.9017 114.543 37.7234 114.436 37.5451C114.329 37.3668 114.169 37.2599 113.955 37.1886C113.741 37.1173 113.456 37.0994 113.081 37.0994H112.35V40.7541Z" fill="white"/>
<path d="M118.02 47.8495V35.5128H123.19V37.1707H120.266V47.8495H118.02Z" fill="white"/>
<path d="M124.42 47.8495V35.5128H126.63V47.8495H124.42Z" fill="white"/>
<path d="M127.682 47.8495L130.178 42.3408C129.661 42.0733 129.233 41.6455 128.93 41.0928C128.627 40.5402 128.467 39.8449 128.467 39.0605C128.467 37.866 128.787 36.9746 129.447 36.3863C130.107 35.798 131.141 35.5128 132.531 35.5128H135.312V47.8495H133.066V42.8578H132.389H132.121L130.142 47.8495H127.682ZM132.638 41.2711H133.048V37.0816H132.603C131.907 37.0816 131.408 37.242 131.069 37.5629C130.731 37.8838 130.57 38.383 130.57 39.0426C130.57 39.7914 130.731 40.3441 131.052 40.7006C131.372 41.0572 131.889 41.2711 132.638 41.2711Z" fill="white"/>
<path d="M15.2963 48.01L22.1421 19.6461H13.2639V14.8148H28.3461V18.8795L21.4647 48.01H15.2963Z" fill="white"/>
<path d="M85.8049 122.227C78.4955 122.227 72.5589 116.29 72.5589 108.981C72.5589 103.044 76.481 97.9988 81.865 96.323V101.261C79.066 102.688 77.1228 105.611 77.1228 108.981C77.1228 113.776 81.0092 117.663 85.7871 117.663C90.5827 117.663 94.4513 113.776 94.4513 108.981C94.4513 105.593 92.5081 102.688 89.6913 101.243V96.323C95.0931 97.9988 99.033 103.026 99.033 108.981C99.0509 116.29 93.1142 122.227 85.8049 122.227ZM83.9151 93.7558C83.9151 92.9001 84.7709 91.9731 85.8049 91.9731C86.8389 91.9731 87.6946 92.9001 87.6946 93.7558V102.491C87.6946 103.329 86.8567 104.256 85.8049 104.256C84.7531 104.256 83.9151 103.329 83.9151 102.491V93.7558ZM85.8049 83.701C71.7388 83.701 60.3291 95.1107 60.3291 109.177C60.3291 123.243 71.7388 134.653 85.8049 134.653C99.8709 134.653 111.281 123.243 111.281 109.177C111.263 95.1107 99.8709 83.701 85.8049 83.701Z" fill="white"/>
<path d="M56.5673 108.945C56.5673 107.786 55.5512 106.859 54.6063 106.859H43.4462C42.5013 106.859 41.4673 107.786 41.4673 108.945C41.4673 110.104 42.5013 111.049 43.4462 111.049H54.6063C55.5333 111.049 56.5673 110.104 56.5673 108.945Z" fill="white"/>
<path d="M130.124 108.945C130.124 107.786 129.108 106.859 128.163 106.859H117.003C116.058 106.859 115.024 107.786 115.024 108.945C115.024 110.104 116.058 111.049 117.003 111.049H128.163C129.108 111.049 130.124 110.104 130.124 108.945Z" fill="white"/>
<path d="M85.8048 153.283C86.9636 153.283 87.8907 152.266 87.8907 151.322V140.161C87.8907 139.217 86.9458 138.183 85.8048 138.183C84.646 138.183 83.7012 139.217 83.7012 140.161V151.322C83.7012 152.266 84.646 153.283 85.8048 153.283Z" fill="white"/>
<path d="M124.277 130.962C124.847 129.964 124.419 128.645 123.617 128.181L113.937 122.637C113.117 122.173 111.762 122.476 111.191 123.475C110.621 124.473 111.049 125.81 111.869 126.274L121.549 131.818C122.351 132.281 123.706 131.978 124.277 130.962Z" fill="white"/>
<path d="M63.7876 147.435C64.7859 148.006 66.1052 147.578 66.5687 146.775L72.1131 137.095C72.5766 136.275 72.2736 134.92 71.2752 134.349C70.2769 133.779 68.9398 134.207 68.4763 135.027L62.9318 144.707C62.4862 145.492 62.7892 146.847 63.7876 147.435Z" fill="white"/>
<path d="M107.911 147.382C108.91 146.811 109.213 145.456 108.749 144.636L103.187 134.974C102.723 134.154 101.386 133.726 100.388 134.314C99.3897 134.884 99.0866 136.257 99.5501 137.077L105.112 146.74C105.576 147.542 106.895 147.952 107.911 147.382Z" fill="white"/>
<path d="M47.3861 131.051C47.9566 132.05 49.3115 132.353 50.1316 131.889L59.7942 126.327C60.6143 125.864 61.0421 124.527 60.4716 123.528C59.9011 122.53 58.5284 122.227 57.7083 122.69L48.0457 128.253C47.2256 128.734 46.7978 130.053 47.3861 131.051Z" fill="white"/>
<path d="M85.8048 79.7076C86.9636 79.7076 87.8907 78.6914 87.8907 77.7465V66.5864C87.8907 65.6415 86.9458 64.6075 85.8048 64.6075C84.646 64.6075 83.7012 65.6415 83.7012 66.5864V77.7465C83.7012 78.6914 84.646 79.7076 85.8048 79.7076Z" fill="white"/>
<path d="M60.4182 94.4334C60.9887 93.435 60.5608 92.1158 59.7586 91.6522L50.0781 86.1078C49.258 85.6443 47.9031 85.9296 47.3327 86.9457C46.7622 87.9441 47.19 89.2812 48.0101 89.7447L57.6905 95.2891C58.4928 95.7348 59.8477 95.4317 60.4182 94.4334Z" fill="white"/>
<path d="M100.334 83.5762C101.333 84.1467 102.652 83.7189 103.115 82.9166L108.66 73.2362C109.123 72.4161 108.82 71.0612 107.822 70.4907C106.824 69.9202 105.486 70.3481 105.023 71.1682L99.4785 80.8486C99.015 81.6508 99.3359 83.0057 100.334 83.5762Z" fill="white"/>
<path d="M71.2397 83.5941C72.238 83.0236 72.5411 81.6687 72.0776 80.8486L66.5153 71.186C66.0518 70.3659 64.7147 69.938 63.7164 70.5264C62.718 71.0968 62.415 72.4696 62.8785 73.2896L68.4407 82.9523C68.9042 83.7545 70.2235 84.1824 71.2397 83.5941Z" fill="white"/>
<path d="M111.156 94.3798C111.726 95.3781 113.081 95.6812 113.901 95.2177L123.564 89.6554C124.384 89.1919 124.812 87.8548 124.241 86.8565C123.671 85.8581 122.298 85.5551 121.478 86.0186L111.815 91.5808C110.995 92.0443 110.585 93.3814 111.156 94.3798Z" fill="white"/>
</g>
<defs>
<clipPath id="clip0_111_4676">
<rect width="173" height="173" fill="white"/>
</clipPath>
</defs>
</svg>
