<svg width="173" height="173" viewBox="0 0 173 173" fill="none" xmlns="http://www.w3.org/2000/svg">
<g clip-path="url(#clip0_143_5281)">
<path d="M0 0H173V173H0V0Z" fill="#DD1367"/>
<path d="M52.2708 121.104C51.9143 120.997 51.5577 120.89 51.219 120.836C51.219 120.836 51.6112 120.961 52.2708 121.104Z" fill="white"/>
<path d="M14.4226 48.01V21.4646L9.48438 23.1582V18.4338C10.6075 17.9881 11.802 17.4177 13.1034 16.758C14.3692 16.0984 15.2962 15.4388 15.8667 14.8148H20.7693V48.01H14.4226Z" fill="white"/>
<path d="M35.905 48.5448C33.0526 48.5448 30.8598 47.6713 29.3444 45.942C27.8291 44.1949 27.0625 41.8773 27.0625 38.9714V24.1209C27.0625 21.108 27.7934 18.7369 29.2731 16.9898C30.7528 15.2605 32.9635 14.387 35.905 14.387C38.8466 14.387 41.0572 15.2605 42.5369 17.0076C44.0166 18.7547 44.7654 21.1258 44.7654 24.1209V38.9714C44.7654 41.8594 43.9988 44.1949 42.4656 45.942C40.9324 47.6713 38.7396 48.5448 35.905 48.5448ZM35.905 43.0004C37.5274 43.0004 38.3296 41.6099 38.3296 38.8109V24.2457C38.3296 23.6752 38.3118 23.1938 38.2761 22.7838C38.2405 22.3738 38.1513 21.9281 37.9909 21.4467C37.8304 20.9654 37.5987 20.5732 37.2421 20.3058C36.9034 20.0383 36.4399 19.9136 35.905 19.9136C35.5307 19.9136 35.2098 19.9849 34.9245 20.1097C34.6393 20.2344 34.4253 20.4127 34.2471 20.6623C34.0866 20.8941 33.944 21.1615 33.837 21.4111C33.7301 21.6785 33.6587 21.9816 33.6053 22.3559C33.5518 22.7303 33.534 23.0512 33.5161 23.3008C33.4983 23.5682 33.4983 23.8713 33.4983 24.2457V38.8109C33.4983 41.6099 34.3005 43.0004 35.905 43.0004Z" fill="white"/>
<path d="M102.42 112.903H70.5621C70.366 112.903 70.2234 113.081 70.2234 113.295V122.869C70.2234 123.082 70.3838 123.261 70.5621 123.261H102.42C102.616 123.261 102.777 123.082 102.777 122.869V113.295C102.777 113.081 102.616 112.903 102.42 112.903Z" fill="white"/>
<path d="M102.42 92.5258H70.5621C70.366 92.5258 70.2234 92.704 70.2234 92.918V102.491C70.2234 102.705 70.3838 102.884 70.5621 102.884H102.42C102.616 102.884 102.777 102.705 102.777 102.491V92.918C102.777 92.704 102.616 92.5258 102.42 92.5258Z" fill="white"/>
<path d="M101.974 78.0497L86.6783 62.7536C86.5713 62.6466 86.4109 62.6466 86.3039 62.7536L71.0078 78.0497C70.8473 78.2102 70.9543 78.4954 71.186 78.4954H101.796C102.028 78.5132 102.135 78.228 101.974 78.0497Z" fill="white"/>
<path d="M116.326 123.368L131.622 108.071C131.729 107.965 131.729 107.804 131.622 107.697L116.326 92.4009C116.165 92.2405 115.88 92.3475 115.88 92.5792V123.189C115.88 123.421 116.165 123.528 116.326 123.368Z" fill="white"/>
<path d="M71.0257 137.719L86.3219 153.015C86.4288 153.122 86.5893 153.122 86.6962 153.015L101.992 137.719C102.153 137.558 102.046 137.273 101.814 137.273H71.204C70.9722 137.273 70.8474 137.558 71.0257 137.719Z" fill="white"/>
<path d="M56.6564 92.4188L41.3603 107.715C41.2533 107.822 41.2533 107.982 41.3603 108.089L56.6564 123.385C56.8169 123.546 57.1021 123.439 57.1021 123.207V92.597C57.1199 92.3653 56.8347 92.2405 56.6564 92.4188Z" fill="white"/>
<path d="M124.426 49.165C123.676 49.165 123.051 49.03 122.551 48.76C122.051 48.48 121.671 48.065 121.411 47.515C121.161 46.955 121.016 46.245 120.976 45.385L123.106 45.025C123.126 45.525 123.176 45.945 123.256 46.285C123.346 46.615 123.476 46.865 123.646 47.035C123.826 47.195 124.046 47.275 124.306 47.275C124.626 47.275 124.841 47.175 124.951 46.975C125.071 46.775 125.131 46.545 125.131 46.285C125.131 45.775 125.006 45.35 124.756 45.01C124.516 44.66 124.196 44.31 123.796 43.96L122.536 42.865C122.086 42.485 121.716 42.055 121.426 41.575C121.146 41.095 121.006 40.505 121.006 39.805C121.006 38.805 121.296 38.04 121.876 37.51C122.466 36.97 123.271 36.7 124.291 36.7C124.901 36.7 125.401 36.8 125.791 37C126.181 37.2 126.481 37.47 126.691 37.81C126.911 38.14 127.061 38.505 127.141 38.905C127.231 39.295 127.286 39.685 127.306 40.075L125.191 40.39C125.171 40.02 125.136 39.695 125.086 39.415C125.046 39.135 124.956 38.915 124.816 38.755C124.686 38.595 124.486 38.515 124.216 38.515C123.926 38.515 123.711 38.625 123.571 38.845C123.431 39.055 123.361 39.29 123.361 39.55C123.361 39.98 123.456 40.335 123.646 40.615C123.846 40.885 124.116 41.17 124.456 41.47L125.686 42.55C126.196 42.99 126.631 43.495 126.991 44.065C127.361 44.625 127.546 45.32 127.546 46.15C127.546 46.72 127.416 47.235 127.156 47.695C126.896 48.155 126.531 48.515 126.061 48.775C125.601 49.035 125.056 49.165 124.426 49.165Z" fill="white"/>
<path d="M115.199 49V36.85H120.494V38.56H117.674V41.785H119.849V43.51H117.674V47.32H120.524V49H115.199Z" fill="white"/>
<path d="M111.379 49V36.85H113.839V49H111.379Z" fill="white"/>
<path d="M106.412 49V38.695H104.537V36.85H110.747V38.695H108.902V49H106.412Z" fill="white"/>
<path d="M101.451 49V36.85H103.911V49H101.451Z" fill="white"/>
<path d="M95.4316 49V36.85H97.9066V47.32H100.757V49H95.4316Z" fill="white"/>
<path d="M87.2603 49L89.6153 36.85H92.3603L94.7003 49H92.4053L91.9703 46.33H90.0503L89.5853 49H87.2603ZM90.2753 44.815H91.7303L90.9953 39.91L90.2753 44.815Z" fill="white"/>
<path d="M83.211 49.165C82.291 49.165 81.576 49.01 81.066 48.7C80.556 48.38 80.196 47.925 79.986 47.335C79.786 46.735 79.686 46.01 79.686 45.16V36.85H82.131V45.505C82.131 45.805 82.151 46.1 82.191 46.39C82.241 46.68 82.341 46.915 82.491 47.095C82.651 47.275 82.891 47.365 83.211 47.365C83.541 47.365 83.781 47.275 83.931 47.095C84.091 46.915 84.191 46.68 84.231 46.39C84.271 46.1 84.291 45.805 84.291 45.505V36.85H86.736V45.16C86.736 46.01 86.631 46.735 86.421 47.335C86.221 47.925 85.866 48.38 85.356 48.7C84.846 49.01 84.131 49.165 83.211 49.165Z" fill="white"/>
<path d="M77.7235 51.4C77.4935 51.29 77.2285 51.12 76.9285 50.89C76.6285 50.66 76.3335 50.39 76.0435 50.08C75.7535 49.78 75.5085 49.47 75.3085 49.15C75.2685 49.16 75.2235 49.165 75.1735 49.165C75.1335 49.165 75.0885 49.165 75.0385 49.165C74.1485 49.165 73.4435 49.005 72.9235 48.685C72.4035 48.365 72.0285 47.91 71.7985 47.32C71.5785 46.72 71.4685 46.005 71.4685 45.175V40.645C71.4685 39.815 71.5785 39.105 71.7985 38.515C72.0285 37.925 72.4035 37.475 72.9235 37.165C73.4435 36.855 74.1485 36.7 75.0385 36.7C75.9385 36.7 76.6485 36.86 77.1685 37.18C77.6985 37.49 78.0735 37.94 78.2935 38.53C78.5235 39.11 78.6385 39.815 78.6385 40.645V45.175C78.6385 45.755 78.5835 46.28 78.4735 46.75C78.3735 47.21 78.2035 47.61 77.9635 47.95C77.7235 48.29 77.4035 48.56 77.0035 48.76C77.1335 48.9 77.2685 49.04 77.4085 49.18C77.5485 49.32 77.6885 49.45 77.8285 49.57C77.9685 49.69 78.1035 49.79 78.2335 49.87L77.7235 51.4ZM75.0385 47.38C75.3585 47.38 75.5935 47.31 75.7435 47.17C75.8935 47.02 75.9935 46.825 76.0435 46.585C76.0935 46.335 76.1185 46.07 76.1185 45.79V40.045C76.1185 39.765 76.0935 39.505 76.0435 39.265C75.9935 39.025 75.8935 38.835 75.7435 38.695C75.5935 38.545 75.3585 38.47 75.0385 38.47C74.7285 38.47 74.4985 38.545 74.3485 38.695C74.1985 38.835 74.0985 39.025 74.0485 39.265C74.0085 39.505 73.9885 39.765 73.9885 40.045V45.79C73.9885 46.07 74.0085 46.335 74.0485 46.585C74.0985 46.825 74.1985 47.02 74.3485 47.17C74.4985 47.31 74.7285 47.38 75.0385 47.38Z" fill="white"/>
<path d="M65.5713 49V36.85H70.8663V38.56H68.0463V41.785H70.2213V43.51H68.0463V47.32H70.8963V49H65.5713Z" fill="white"/>
<path d="M57.7656 49V36.85H59.4906L62.1906 43.18V36.85H64.2306V49H62.5806L59.8806 42.28V49H57.7656Z" fill="white"/>
<path d="M53.9451 49V36.85H56.4051V49H53.9451Z" fill="white"/>
<path d="M98.376 28V15.85H101.346C102.376 15.85 103.176 15.985 103.746 16.255C104.326 16.515 104.736 16.93 104.976 17.5C105.216 18.06 105.336 18.78 105.336 19.66V24.085C105.336 24.985 105.216 25.725 104.976 26.305C104.736 26.885 104.331 27.315 103.761 27.595C103.201 27.865 102.416 28 101.406 28H98.376ZM100.851 26.275H101.376C101.836 26.275 102.161 26.205 102.351 26.065C102.551 25.915 102.676 25.7 102.726 25.42C102.776 25.13 102.801 24.775 102.801 24.355V19.345C102.801 18.925 102.766 18.59 102.696 18.34C102.636 18.08 102.506 17.89 102.306 17.77C102.116 17.65 101.801 17.59 101.361 17.59H100.851V26.275Z" fill="white"/>
<path d="M92.2988 28V15.85H97.5938V17.56H94.7738V20.785H96.9488V22.51H94.7738V26.32H97.6238V28H92.2988Z" fill="white"/>
<path d="M87.8829 28.165C86.9829 28.165 86.2679 27.995 85.7379 27.655C85.2179 27.315 84.8529 26.845 84.6429 26.245C84.4329 25.635 84.3279 24.93 84.3279 24.13V19.765C84.3279 18.925 84.4329 18.205 84.6429 17.605C84.8529 16.995 85.2179 16.525 85.7379 16.195C86.2679 15.865 86.9829 15.7 87.8829 15.7C88.7529 15.7 89.4329 15.845 89.9229 16.135C90.4229 16.425 90.7729 16.835 90.9729 17.365C91.1829 17.895 91.2879 18.51 91.2879 19.21V20.23H88.8879V19.09C88.8879 18.81 88.8729 18.55 88.8429 18.31C88.8129 18.06 88.7279 17.86 88.5879 17.71C88.4579 17.55 88.2279 17.47 87.8979 17.47C87.5679 17.47 87.3279 17.55 87.1779 17.71C87.0279 17.87 86.9329 18.08 86.8929 18.34C86.8529 18.59 86.8329 18.87 86.8329 19.18V24.7C86.8329 25.04 86.8579 25.34 86.9079 25.6C86.9679 25.85 87.0729 26.045 87.2229 26.185C87.3829 26.315 87.6079 26.38 87.8979 26.38C88.2179 26.38 88.4429 26.305 88.5729 26.155C88.7129 25.995 88.7979 25.785 88.8279 25.525C88.8679 25.265 88.8879 24.99 88.8879 24.7V23.515H91.2879V24.52C91.2879 25.23 91.1879 25.86 90.9879 26.41C90.7879 26.95 90.4429 27.38 89.9529 27.7C89.4629 28.01 88.7729 28.165 87.8829 28.165Z" fill="white"/>
<path d="M79.756 28.165C78.836 28.165 78.121 28.01 77.611 27.7C77.101 27.38 76.741 26.925 76.531 26.335C76.331 25.735 76.231 25.01 76.231 24.16V15.85H78.676V24.505C78.676 24.805 78.696 25.1 78.736 25.39C78.786 25.68 78.886 25.915 79.036 26.095C79.196 26.275 79.436 26.365 79.756 26.365C80.086 26.365 80.326 26.275 80.476 26.095C80.636 25.915 80.736 25.68 80.776 25.39C80.816 25.1 80.836 24.805 80.836 24.505V15.85H83.281V24.16C83.281 25.01 83.176 25.735 82.966 26.335C82.766 26.925 82.411 27.38 81.901 27.7C81.391 28.01 80.676 28.165 79.756 28.165Z" fill="white"/>
<path d="M68.2373 28V15.85H71.2073C72.2373 15.85 73.0373 15.985 73.6073 16.255C74.1873 16.515 74.5973 16.93 74.8373 17.5C75.0773 18.06 75.1973 18.78 75.1973 19.66V24.085C75.1973 24.985 75.0773 25.725 74.8373 26.305C74.5973 26.885 74.1923 27.315 73.6223 27.595C73.0623 27.865 72.2773 28 71.2673 28H68.2373ZM70.7123 26.275H71.2373C71.6973 26.275 72.0223 26.205 72.2123 26.065C72.4123 25.915 72.5373 25.7 72.5873 25.42C72.6373 25.13 72.6623 24.775 72.6623 24.355V19.345C72.6623 18.925 72.6273 18.59 72.5573 18.34C72.4973 18.08 72.3673 17.89 72.1673 17.77C71.9773 17.65 71.6623 17.59 71.2223 17.59H70.7123V26.275Z" fill="white"/>
<path d="M62.1602 28V15.85H67.4552V17.56H64.6352V20.785H66.8102V22.51H64.6352V26.32H67.4852V28H62.1602Z" fill="white"/>
<path d="M53.915 28V15.85H57.065C57.885 15.85 58.585 15.945 59.165 16.135C59.755 16.315 60.205 16.64 60.515 17.11C60.835 17.58 60.995 18.23 60.995 19.06C60.995 19.56 60.95 20.005 60.86 20.395C60.78 20.775 60.63 21.11 60.41 21.4C60.2 21.68 59.9 21.905 59.51 22.075L61.19 28H58.655L57.26 22.495H56.39V28H53.915ZM56.39 21.025H57.11C57.51 21.025 57.825 20.96 58.055 20.83C58.285 20.7 58.445 20.505 58.535 20.245C58.635 19.975 58.685 19.645 58.685 19.255C58.685 18.695 58.58 18.27 58.37 17.98C58.17 17.68 57.79 17.53 57.23 17.53H56.39V21.025Z" fill="white"/>
</g>
<defs>
<clipPath id="clip0_143_5281">
<rect width="173" height="173" fill="white"/>
</clipPath>
</defs>
</svg>
