<svg width="173" height="173" viewBox="0 0 173 173" fill="none" xmlns="http://www.w3.org/2000/svg">
<g clip-path="url(#clip0_143_6147)">
<path d="M0 0H173V173H0V0Z" fill="#241F20"/>
<path d="M52.2708 121.103C51.9143 120.997 51.5577 120.89 51.219 120.836C51.219 120.836 51.6112 120.961 52.2708 121.103Z" fill="white"/>
<path d="M14.4226 48.01V21.4646L9.48438 23.1582V18.4338C10.6075 17.9881 11.802 17.4177 13.1034 16.758C14.3692 16.0984 15.2962 15.4388 15.8667 14.8148H20.7693V48.01H14.4226Z" fill="white"/>
<path d="M27.7076 48.01V21.4646L22.7693 23.1582V18.4338C23.8924 17.9881 25.0869 17.4177 26.3883 16.758C27.6719 16.0984 28.5989 15.4388 29.1694 14.8148H34.072V48.01H27.7076Z" fill="white"/>
<path d="M28.2746 129.197H28.542H54.41C54.7666 129.197 55.0518 128.912 55.0518 128.556C55.0518 128.395 54.9805 128.252 54.8914 128.128L54.8557 128.092L41.8593 111.263L41.7345 111.12C41.6097 110.995 41.4493 110.906 41.2532 110.906C41.0927 110.906 40.9501 110.977 40.8253 111.067L40.754 111.156L40.6292 111.298L27.9359 127.949L27.7398 128.181C27.6685 128.288 27.6328 128.413 27.6328 128.538C27.6328 128.912 27.9181 129.197 28.2746 129.197Z" fill="white"/>
<path d="M54.3387 131.568H28.132C27.7755 131.568 27.4902 131.854 27.4902 132.21V152.712C27.4902 153.069 27.7755 153.354 28.132 153.354H36.5645V140.464C36.5645 140.108 36.8498 139.823 37.2063 139.823H45.0327C45.3892 139.823 45.6745 140.108 45.6745 140.464V153.354H54.3209C54.6775 153.354 54.9627 153.069 54.9627 152.712V132.21C54.9805 131.871 54.6775 131.568 54.3387 131.568Z" fill="white"/>
<path d="M142.515 134.599C142.515 134.938 142.229 135.223 141.873 135.223H134.136C133.779 135.223 133.494 134.956 133.494 134.599V129.893C133.494 129.554 133.779 129.269 134.136 129.269H141.873C142.229 129.269 142.515 129.536 142.515 129.893V134.599ZM142.515 143.299C142.515 143.638 142.229 143.923 141.873 143.923H134.136C133.779 143.923 133.494 143.656 133.494 143.299V138.593C133.494 138.254 133.779 137.969 134.136 137.969H141.873C142.229 137.969 142.515 138.236 142.515 138.593V143.299ZM130.677 134.599C130.677 134.938 130.392 135.223 130.053 135.223H122.298C121.942 135.223 121.656 134.956 121.656 134.599V129.893C121.656 129.554 121.942 129.269 122.298 129.269H130.035C130.392 129.269 130.659 129.536 130.659 129.893V134.599H130.677ZM130.677 143.299C130.677 143.638 130.392 143.923 130.053 143.923H122.298C121.942 143.923 121.656 143.656 121.656 143.299V138.593C121.656 138.254 121.942 137.969 122.298 137.969H130.035C130.392 137.969 130.659 138.236 130.659 138.593V143.299H130.677ZM144.868 126.202H118.929C118.572 126.202 118.305 126.47 118.305 126.826V152.997C118.305 153.336 118.59 153.621 118.929 153.621H144.85C145.207 153.621 145.492 153.354 145.492 152.997V126.826C145.492 126.488 145.207 126.202 144.868 126.202Z" fill="white"/>
<path d="M80.9021 84.0576C80.9021 84.2358 80.7594 84.3963 80.5633 84.3963H74.7515C74.5732 84.3963 74.4128 84.2537 74.4128 84.0576V77.5861C74.4128 77.4078 74.5554 77.2474 74.7515 77.2474H80.5633C80.7416 77.2474 80.9021 77.39 80.9021 77.5861V84.0576ZM80.9021 98.908C80.9021 99.0863 80.7594 99.2467 80.5633 99.2467H74.7515C74.5732 99.2467 74.4128 99.1041 74.4128 98.908V92.4366C74.4128 92.2583 74.5554 92.1157 74.7515 92.1157H80.5633C80.7416 92.1157 80.9021 92.2583 80.9021 92.4366V98.908ZM80.9021 113.776C80.9021 113.955 80.7594 114.115 80.5633 114.115H74.7515C74.5732 114.115 74.4128 113.972 74.4128 113.776V107.305C74.4128 107.127 74.5554 106.966 74.7515 106.966H80.5633C80.7416 106.966 80.9021 107.109 80.9021 107.305V113.776ZM80.9021 128.645C80.9021 128.823 80.7594 128.983 80.5633 128.983H74.7515C74.5732 128.983 74.4128 128.841 74.4128 128.645V122.173C74.4128 121.977 74.5554 121.834 74.7515 121.834H80.5633C80.7416 121.834 80.9021 121.977 80.9021 122.173V128.645ZM80.9021 143.513C80.9021 143.691 80.7594 143.852 80.5633 143.852H74.7515C74.5732 143.852 74.4128 143.709 74.4128 143.513V137.041C74.4128 136.863 74.5554 136.703 74.7515 136.703H80.5633C80.7416 136.703 80.9021 136.845 80.9021 137.041V143.513ZM69.5102 84.0576C69.5102 84.2358 69.3675 84.3963 69.1714 84.3963H63.3596C63.1813 84.3963 63.0209 84.2537 63.0209 84.0576V77.5861C63.0209 77.4078 63.1635 77.2474 63.3596 77.2474H69.1714C69.3497 77.2474 69.5102 77.39 69.5102 77.5861V84.0576ZM69.5102 98.908C69.5102 99.0863 69.3675 99.2467 69.1714 99.2467H63.3596C63.1813 99.2467 63.0209 99.1041 63.0209 98.908V92.4366C63.0209 92.2583 63.1635 92.1157 63.3596 92.1157H69.1714C69.3497 92.1157 69.5102 92.2583 69.5102 92.4366V98.908ZM69.5102 113.776C69.5102 113.955 69.3675 114.115 69.1714 114.115H63.3596C63.1813 114.115 63.0209 113.972 63.0209 113.776V107.305C63.0209 107.127 63.1635 106.966 63.3596 106.966H69.1714C69.3497 106.966 69.5102 107.109 69.5102 107.305V113.776ZM69.5102 128.645C69.5102 128.823 69.3675 128.983 69.1714 128.983H63.3596C63.1813 128.983 63.0209 128.841 63.0209 128.645V122.173C63.0209 121.977 63.1635 121.834 63.3596 121.834H69.1714C69.3497 121.834 69.5102 121.977 69.5102 122.173V128.645ZM69.5102 143.513C69.5102 143.691 69.3675 143.852 69.1714 143.852H63.3596C63.1813 143.852 63.0209 143.709 63.0209 143.513V137.041C63.0209 136.863 63.1635 136.703 63.3596 136.703H69.1714C69.3497 136.703 69.5102 136.845 69.5102 137.041V143.513ZM84.5924 65.4454H59.2236C58.8849 65.4454 58.5996 65.7307 58.5996 66.0694V152.766C58.5996 153.104 58.8849 153.389 59.2236 153.389H84.5924C84.9311 153.389 85.2164 153.104 85.2164 152.766V66.0694C85.2164 65.7129 84.9311 65.4454 84.5924 65.4454Z" fill="white"/>
<path d="M145.456 123.582C145.456 123.867 145.225 124.099 144.939 124.099H118.857C118.572 124.099 118.34 123.867 118.34 123.582V118.358C118.34 118.073 118.572 117.841 118.857 117.841H144.939C145.225 117.841 145.456 118.073 145.456 118.358V123.582Z" fill="white"/>
<path d="M112.35 108.303C112.35 108.642 112.065 108.927 111.726 108.927H104.167C103.829 108.927 103.543 108.66 103.543 108.303V103.579C103.543 103.222 103.829 102.955 104.167 102.955H111.726C112.065 102.955 112.35 103.222 112.35 103.579V108.303ZM112.35 117.057C112.35 117.395 112.065 117.681 111.726 117.681H104.167C103.829 117.681 103.543 117.395 103.543 117.057V112.314C103.543 111.976 103.829 111.691 104.167 111.691H111.726C112.065 111.691 112.35 111.958 112.35 112.314V117.057ZM112.35 125.81C112.35 126.149 112.065 126.434 111.726 126.434H104.167C103.829 126.434 103.543 126.149 103.543 125.81V121.068C103.543 120.729 103.829 120.444 104.167 120.444H111.726C112.065 120.444 112.35 120.711 112.35 121.068V125.81ZM112.35 134.546C112.35 134.884 112.065 135.17 111.726 135.17H104.167C103.829 135.17 103.543 134.902 103.543 134.546V129.821C103.543 129.483 103.829 129.197 104.167 129.197H111.726C112.065 129.197 112.35 129.465 112.35 129.821V134.546ZM112.35 143.299C112.35 143.638 112.065 143.923 111.726 143.923H104.167C103.829 143.923 103.543 143.656 103.543 143.299V138.575C103.543 138.236 103.829 137.951 104.167 137.951H111.726C112.065 137.951 112.35 138.218 112.35 138.575V143.299ZM100.816 106.645V106.877V117.074C100.816 117.413 100.53 117.698 100.192 117.698H92.6328C92.2941 117.698 92.0088 117.413 92.0088 117.074V115.809V115.755C92.0088 115.666 92.0266 115.595 92.0623 115.523C92.0801 115.506 92.0801 115.488 92.098 115.452C92.1158 115.417 92.1336 115.399 92.1514 115.363C92.1693 115.327 92.2049 115.292 92.2228 115.256C93.1854 113.866 97.5532 108.499 99.3895 106.253L99.5678 106.039C99.7104 105.879 99.9065 105.772 100.12 105.772C100.477 105.772 100.744 106.021 100.816 106.36V106.645ZM100.798 125.81C100.798 126.149 100.53 126.434 100.174 126.434H92.615C92.2762 126.434 91.991 126.149 91.991 125.81V121.068C91.991 120.729 92.2584 120.444 92.615 120.444H100.174C100.513 120.444 100.798 120.711 100.798 121.068V125.81ZM100.798 134.546C100.798 134.884 100.53 135.17 100.174 135.17H92.615C92.2762 135.17 91.991 134.902 91.991 134.546V129.821C91.991 129.483 92.2584 129.197 92.615 129.197H100.174C100.513 129.197 100.798 129.465 100.798 129.821V134.546ZM100.798 143.299C100.798 143.638 100.53 143.923 100.174 143.923H92.615C92.2762 143.923 91.991 143.656 91.991 143.299V138.575C91.991 138.236 92.2584 137.951 92.615 137.951H100.174C100.513 137.951 100.798 138.218 100.798 138.575V143.299ZM104.738 98.9972L104.916 98.7655C106.628 96.5726 109.498 93.0428 110.906 91.3135L111.084 91.0995C111.227 90.9391 111.423 90.8321 111.637 90.8321C111.994 90.8321 112.261 91.0817 112.332 91.4204V91.7057V91.9374V99.4251C112.332 99.8173 112.029 100.12 111.637 100.138C111.619 100.138 111.619 100.138 111.601 100.138C111.584 100.138 111.584 100.138 111.566 100.138H105.647H105.362C105.344 100.138 105.344 100.138 105.326 100.138C105.308 100.138 105.308 100.138 105.29 100.138C104.916 100.12 104.595 99.8173 104.595 99.4251C104.595 99.2646 104.649 99.122 104.738 98.9972ZM115.238 81.8113C115.149 81.5261 114.9 81.33 114.597 81.33C114.454 81.33 114.347 81.3834 114.24 81.4547C114.222 81.4726 114.204 81.4726 114.186 81.4904L113.973 81.7578L89.0494 113.384L88.9246 113.545C88.7998 113.669 88.7107 113.848 88.7107 114.044V114.079V152.908C88.7107 153.247 88.9959 153.532 89.3347 153.532H114.686C115.024 153.532 115.31 153.265 115.31 152.908V82.0787C115.31 81.9896 115.274 81.9004 115.238 81.8113Z" fill="white"/>
<path d="M145.417 48.165C144.667 48.165 144.042 48.03 143.542 47.76C143.042 47.48 142.662 47.065 142.402 46.515C142.152 45.955 142.007 45.245 141.967 44.385L144.097 44.025C144.117 44.525 144.167 44.945 144.247 45.285C144.337 45.615 144.467 45.865 144.637 46.035C144.817 46.195 145.037 46.275 145.297 46.275C145.617 46.275 145.832 46.175 145.942 45.975C146.062 45.775 146.122 45.545 146.122 45.285C146.122 44.775 145.997 44.35 145.747 44.01C145.507 43.66 145.187 43.31 144.787 42.96L143.527 41.865C143.077 41.485 142.707 41.055 142.417 40.575C142.137 40.095 141.997 39.505 141.997 38.805C141.997 37.805 142.287 37.04 142.867 36.51C143.457 35.97 144.262 35.7 145.282 35.7C145.892 35.7 146.392 35.8 146.782 36C147.172 36.2 147.472 36.47 147.682 36.81C147.902 37.14 148.052 37.505 148.132 37.905C148.222 38.295 148.277 38.685 148.297 39.075L146.182 39.39C146.162 39.02 146.127 38.695 146.077 38.415C146.037 38.135 145.947 37.915 145.807 37.755C145.677 37.595 145.477 37.515 145.207 37.515C144.917 37.515 144.702 37.625 144.562 37.845C144.422 38.055 144.352 38.29 144.352 38.55C144.352 38.98 144.447 39.335 144.637 39.615C144.837 39.885 145.107 40.17 145.447 40.47L146.677 41.55C147.187 41.99 147.622 42.495 147.982 43.065C148.352 43.625 148.537 44.32 148.537 45.15C148.537 45.72 148.407 46.235 148.147 46.695C147.887 47.155 147.522 47.515 147.052 47.775C146.592 48.035 146.047 48.165 145.417 48.165Z" fill="white"/>
<path d="M136.189 48V35.85H141.484V37.56H138.664V40.785H140.839V42.51H138.664V46.32H141.514V48H136.189Z" fill="white"/>
<path d="M132.369 48V35.85H134.829V48H132.369Z" fill="white"/>
<path d="M127.402 48V37.695H125.527V35.85H131.737V37.695H129.892V48H127.402Z" fill="white"/>
<path d="M122.441 48V35.85H124.901V48H122.441Z" fill="white"/>
<path d="M114.605 48V35.85H116.33L119.03 42.18V35.85H121.07V48H119.42L116.72 41.28V48H114.605Z" fill="white"/>
<path d="M109.854 48.165C108.934 48.165 108.219 48.01 107.709 47.7C107.199 47.38 106.839 46.925 106.629 46.335C106.429 45.735 106.329 45.01 106.329 44.16V35.85H108.774V44.505C108.774 44.805 108.794 45.1 108.834 45.39C108.884 45.68 108.984 45.915 109.134 46.095C109.294 46.275 109.534 46.365 109.854 46.365C110.184 46.365 110.424 46.275 110.574 46.095C110.734 45.915 110.834 45.68 110.874 45.39C110.914 45.1 110.934 44.805 110.934 44.505V35.85H113.379V44.16C113.379 45.01 113.274 45.735 113.064 46.335C112.864 46.925 112.509 47.38 111.999 47.7C111.489 48.01 110.774 48.165 109.854 48.165Z" fill="white"/>
<path d="M96.4587 48L96.6687 35.85H99.2937L100.794 43.515L102.399 35.85H104.934L105.144 48H103.344L103.149 39.765L101.604 48H100.059L98.4387 39.705L98.2737 48H96.4587Z" fill="white"/>
<path d="M86.5291 48L86.7391 35.85H89.3641L90.8641 43.515L92.4691 35.85H95.0041L95.2141 48H93.4141L93.2191 39.765L91.6741 48H90.1291L88.5091 39.705L88.3441 48H86.5291Z" fill="white"/>
<path d="M81.8215 48.165C80.9315 48.165 80.2265 48.005 79.7065 47.685C79.1865 47.365 78.8115 46.91 78.5815 46.32C78.3615 45.72 78.2515 45.005 78.2515 44.175V39.645C78.2515 38.815 78.3615 38.105 78.5815 37.515C78.8115 36.925 79.1865 36.475 79.7065 36.165C80.2265 35.855 80.9315 35.7 81.8215 35.7C82.7215 35.7 83.4315 35.86 83.9515 36.18C84.4815 36.49 84.8565 36.94 85.0765 37.53C85.3065 38.11 85.4215 38.815 85.4215 39.645V44.175C85.4215 45.005 85.3065 45.72 85.0765 46.32C84.8565 46.91 84.4815 47.365 83.9515 47.685C83.4315 48.005 82.7215 48.165 81.8215 48.165ZM81.8215 46.38C82.1415 46.38 82.3765 46.31 82.5265 46.17C82.6765 46.02 82.7765 45.825 82.8265 45.585C82.8765 45.335 82.9015 45.07 82.9015 44.79V39.045C82.9015 38.765 82.8765 38.505 82.8265 38.265C82.7765 38.025 82.6765 37.835 82.5265 37.695C82.3765 37.545 82.1415 37.47 81.8215 37.47C81.5215 37.47 81.2965 37.545 81.1465 37.695C80.9965 37.835 80.8965 38.025 80.8465 38.265C80.7965 38.505 80.7715 38.765 80.7715 39.045V44.79C80.7715 45.07 80.7915 45.335 80.8315 45.585C80.8815 45.825 80.9815 46.02 81.1315 46.17C81.2815 46.31 81.5115 46.38 81.8215 46.38Z" fill="white"/>
<path d="M74.0154 48.165C73.1154 48.165 72.4004 47.995 71.8704 47.655C71.3504 47.315 70.9854 46.845 70.7754 46.245C70.5654 45.635 70.4604 44.93 70.4604 44.13V39.765C70.4604 38.925 70.5654 38.205 70.7754 37.605C70.9854 36.995 71.3504 36.525 71.8704 36.195C72.4004 35.865 73.1154 35.7 74.0154 35.7C74.8854 35.7 75.5655 35.845 76.0555 36.135C76.5555 36.425 76.9054 36.835 77.1054 37.365C77.3154 37.895 77.4204 38.51 77.4204 39.21V40.23H75.0205V39.09C75.0205 38.81 75.0054 38.55 74.9754 38.31C74.9454 38.06 74.8604 37.86 74.7204 37.71C74.5904 37.55 74.3604 37.47 74.0304 37.47C73.7004 37.47 73.4604 37.55 73.3104 37.71C73.1604 37.87 73.0654 38.08 73.0254 38.34C72.9854 38.59 72.9654 38.87 72.9654 39.18V44.7C72.9654 45.04 72.9904 45.34 73.0404 45.6C73.1004 45.85 73.2054 46.045 73.3554 46.185C73.5154 46.315 73.7404 46.38 74.0304 46.38C74.3504 46.38 74.5754 46.305 74.7054 46.155C74.8454 45.995 74.9304 45.785 74.9604 45.525C75.0004 45.265 75.0205 44.99 75.0205 44.7V43.515H77.4204V44.52C77.4204 45.23 77.3204 45.86 77.1204 46.41C76.9204 46.95 76.5754 47.38 76.0854 47.7C75.5954 48.01 74.9054 48.165 74.0154 48.165Z" fill="white"/>
<path d="M59.292 48V35.85H62.262C63.292 35.85 64.092 35.985 64.662 36.255C65.242 36.515 65.652 36.93 65.892 37.5C66.132 38.06 66.252 38.78 66.252 39.66V44.085C66.252 44.985 66.132 45.725 65.892 46.305C65.652 46.885 65.247 47.315 64.677 47.595C64.117 47.865 63.332 48 62.322 48H59.292ZM61.767 46.275H62.292C62.752 46.275 63.077 46.205 63.267 46.065C63.467 45.915 63.592 45.7 63.642 45.42C63.692 45.13 63.717 44.775 63.717 44.355V39.345C63.717 38.925 63.682 38.59 63.612 38.34C63.552 38.08 63.422 37.89 63.222 37.77C63.032 37.65 62.717 37.59 62.277 37.59H61.767V46.275Z" fill="white"/>
<path d="M51.4863 48V35.85H53.2113L55.9113 42.18V35.85H57.9513V48H56.3013L53.6013 41.28V48H51.4863Z" fill="white"/>
<path d="M43.3149 48L45.6699 35.85H48.4149L50.7549 48H48.4599L48.0249 45.33H46.1049L45.6399 48H43.3149ZM46.3299 43.815H47.7849L47.0499 38.91L46.3299 43.815Z" fill="white"/>
<path d="M152.676 27.165C151.926 27.165 151.301 27.03 150.801 26.76C150.301 26.48 149.921 26.065 149.661 25.515C149.411 24.955 149.266 24.245 149.226 23.385L151.356 23.025C151.376 23.525 151.426 23.945 151.506 24.285C151.596 24.615 151.726 24.865 151.896 25.035C152.076 25.195 152.296 25.275 152.556 25.275C152.876 25.275 153.091 25.175 153.201 24.975C153.321 24.775 153.381 24.545 153.381 24.285C153.381 23.775 153.256 23.35 153.006 23.01C152.766 22.66 152.446 22.31 152.046 21.96L150.786 20.865C150.336 20.485 149.966 20.055 149.676 19.575C149.396 19.095 149.256 18.505 149.256 17.805C149.256 16.805 149.546 16.04 150.126 15.51C150.716 14.97 151.521 14.7 152.541 14.7C153.151 14.7 153.651 14.8 154.041 15C154.431 15.2 154.731 15.47 154.941 15.81C155.161 16.14 155.311 16.505 155.391 16.905C155.481 17.295 155.536 17.685 155.556 18.075L153.441 18.39C153.421 18.02 153.386 17.695 153.336 17.415C153.296 17.135 153.206 16.915 153.066 16.755C152.936 16.595 152.736 16.515 152.466 16.515C152.176 16.515 151.961 16.625 151.821 16.845C151.681 17.055 151.611 17.29 151.611 17.55C151.611 17.98 151.706 18.335 151.896 18.615C152.096 18.885 152.366 19.17 152.706 19.47L153.936 20.55C154.446 20.99 154.881 21.495 155.241 22.065C155.611 22.625 155.796 23.32 155.796 24.15C155.796 24.72 155.666 25.235 155.406 25.695C155.146 26.155 154.781 26.515 154.311 26.775C153.851 27.035 153.306 27.165 152.676 27.165Z" fill="white"/>
<path d="M143.449 27V14.85H148.744V16.56H145.924V19.785H148.099V21.51H145.924V25.32H148.774V27H143.449Z" fill="white"/>
<path d="M139.628 27V14.85H142.088V27H139.628Z" fill="white"/>
<path d="M134.661 27V16.695H132.786V14.85H138.996V16.695H137.151V27H134.661Z" fill="white"/>
<path d="M129.701 27V14.85H132.161V27H129.701Z" fill="white"/>
<path d="M125.255 27.165C124.355 27.165 123.64 26.995 123.11 26.655C122.59 26.315 122.225 25.845 122.015 25.245C121.805 24.635 121.7 23.93 121.7 23.13V18.765C121.7 17.925 121.805 17.205 122.015 16.605C122.225 15.995 122.59 15.525 123.11 15.195C123.64 14.865 124.355 14.7 125.255 14.7C126.125 14.7 126.805 14.845 127.295 15.135C127.795 15.425 128.145 15.835 128.345 16.365C128.555 16.895 128.66 17.51 128.66 18.21V19.23H126.26V18.09C126.26 17.81 126.245 17.55 126.215 17.31C126.185 17.06 126.1 16.86 125.96 16.71C125.83 16.55 125.6 16.47 125.27 16.47C124.94 16.47 124.7 16.55 124.55 16.71C124.4 16.87 124.305 17.08 124.265 17.34C124.225 17.59 124.205 17.87 124.205 18.18V23.7C124.205 24.04 124.23 24.34 124.28 24.6C124.34 24.85 124.445 25.045 124.595 25.185C124.755 25.315 124.98 25.38 125.27 25.38C125.59 25.38 125.815 25.305 125.945 25.155C126.085 24.995 126.17 24.785 126.2 24.525C126.24 24.265 126.26 23.99 126.26 23.7V22.515H128.66V23.52C128.66 24.23 128.56 24.86 128.36 25.41C128.16 25.95 127.815 26.38 127.325 26.7C126.835 27.01 126.145 27.165 125.255 27.165Z" fill="white"/>
<path d="M112.553 27V14.85H117.848V16.56H115.028V19.785H117.203V21.51H115.028V25.32H117.878V27H112.553Z" fill="white"/>
<path d="M106.563 27V14.85H109.038V25.32H111.888V27H106.563Z" fill="white"/>
<path d="M98.4502 27V14.85H101.525C102.055 14.85 102.545 14.895 102.995 14.985C103.445 15.075 103.84 15.235 104.18 15.465C104.53 15.695 104.795 16.015 104.975 16.425C105.165 16.825 105.26 17.35 105.26 18C105.26 18.49 105.19 18.91 105.05 19.26C104.91 19.6 104.71 19.87 104.45 20.07C104.19 20.27 103.87 20.405 103.49 20.475C103.96 20.545 104.355 20.705 104.675 20.955C104.995 21.205 105.235 21.535 105.395 21.945C105.555 22.355 105.635 22.85 105.635 23.43C105.635 24.04 105.555 24.57 105.395 25.02C105.245 25.47 105.02 25.84 104.72 26.13C104.42 26.42 104.05 26.64 103.61 26.79C103.17 26.93 102.66 27 102.08 27H98.4502ZM100.925 25.26H101.615C102.235 25.26 102.66 25.105 102.89 24.795C103.13 24.485 103.25 24.02 103.25 23.4C103.25 22.92 103.195 22.54 103.085 22.26C102.975 21.97 102.795 21.76 102.545 21.63C102.305 21.49 101.98 21.42 101.57 21.42H100.925V25.26ZM100.925 19.755H101.54C101.97 19.755 102.295 19.695 102.515 19.575C102.735 19.445 102.885 19.255 102.965 19.005C103.055 18.745 103.1 18.43 103.1 18.06C103.1 17.69 103.035 17.395 102.905 17.175C102.785 16.945 102.595 16.78 102.335 16.68C102.085 16.58 101.765 16.53 101.375 16.53H100.925V19.755Z" fill="white"/>
<path d="M90.2788 27L92.6338 14.85H95.3788L97.7188 27H95.4238L94.9888 24.33H93.0688L92.6038 27H90.2788ZM93.2938 22.815H94.7488L94.0138 17.91L93.2938 22.815Z" fill="white"/>
<path d="M83.0732 27V14.85H84.7982L87.4982 21.18V14.85H89.5382V27H87.8882L85.1882 20.28V27H83.0732Z" fill="white"/>
<path d="M79.2524 27V14.85H81.7124V27H79.2524Z" fill="white"/>
<path d="M71.0513 27L73.4063 14.85H76.1513L78.4913 27H76.1963L75.7613 24.33H73.8413L73.3763 27H71.0513ZM74.0663 22.815H75.5213L74.7863 17.91L74.0663 22.815Z" fill="white"/>
<path d="M67.3733 27V16.695H65.4983V14.85H71.7083V16.695H69.8633V27H67.3733Z" fill="white"/>
<path d="M62.3101 27.165C61.5601 27.165 60.9351 27.03 60.4351 26.76C59.9351 26.48 59.5551 26.065 59.2951 25.515C59.0451 24.955 58.9001 24.245 58.8601 23.385L60.9901 23.025C61.0101 23.525 61.0601 23.945 61.1401 24.285C61.2301 24.615 61.3601 24.865 61.5301 25.035C61.7101 25.195 61.9301 25.275 62.1901 25.275C62.5101 25.275 62.7251 25.175 62.8351 24.975C62.9551 24.775 63.0151 24.545 63.0151 24.285C63.0151 23.775 62.8901 23.35 62.6401 23.01C62.4001 22.66 62.0801 22.31 61.6801 21.96L60.4201 20.865C59.9701 20.485 59.6001 20.055 59.3101 19.575C59.0301 19.095 58.8901 18.505 58.8901 17.805C58.8901 16.805 59.1801 16.04 59.7601 15.51C60.3501 14.97 61.1551 14.7 62.1751 14.7C62.7851 14.7 63.2851 14.8 63.6751 15C64.0651 15.2 64.3651 15.47 64.5751 15.81C64.7951 16.14 64.9451 16.505 65.0251 16.905C65.1151 17.295 65.1701 17.685 65.1901 18.075L63.0751 18.39C63.0551 18.02 63.0201 17.695 62.9701 17.415C62.9301 17.135 62.8401 16.915 62.7001 16.755C62.5701 16.595 62.3701 16.515 62.1001 16.515C61.8101 16.515 61.5951 16.625 61.4551 16.845C61.3151 17.055 61.2451 17.29 61.2451 17.55C61.2451 17.98 61.3401 18.335 61.5301 18.615C61.7301 18.885 62.0001 19.17 62.3401 19.47L63.5701 20.55C64.0801 20.99 64.5151 21.495 64.8751 22.065C65.2451 22.625 65.4301 23.32 65.4301 24.15C65.4301 24.72 65.3001 25.235 65.0401 25.695C64.7801 26.155 64.4151 26.515 63.9451 26.775C63.4851 27.035 62.9401 27.165 62.3101 27.165Z" fill="white"/>
<path d="M54.4083 27.165C53.4883 27.165 52.7733 27.01 52.2633 26.7C51.7533 26.38 51.3933 25.925 51.1833 25.335C50.9833 24.735 50.8833 24.01 50.8833 23.16V14.85H53.3283V23.505C53.3283 23.805 53.3483 24.1 53.3883 24.39C53.4383 24.68 53.5383 24.915 53.6883 25.095C53.8483 25.275 54.0883 25.365 54.4083 25.365C54.7383 25.365 54.9783 25.275 55.1283 25.095C55.2883 24.915 55.3883 24.68 55.4283 24.39C55.4683 24.1 55.4883 23.805 55.4883 23.505V14.85H57.9333V23.16C57.9333 24.01 57.8283 24.735 57.6183 25.335C57.4183 25.925 57.0633 26.38 56.5533 26.7C56.0433 27.01 55.3283 27.165 54.4083 27.165Z" fill="white"/>
<path d="M47.065 27.165C46.315 27.165 45.69 27.03 45.19 26.76C44.69 26.48 44.31 26.065 44.05 25.515C43.8 24.955 43.655 24.245 43.615 23.385L45.745 23.025C45.765 23.525 45.815 23.945 45.895 24.285C45.985 24.615 46.115 24.865 46.285 25.035C46.465 25.195 46.685 25.275 46.945 25.275C47.265 25.275 47.48 25.175 47.59 24.975C47.71 24.775 47.77 24.545 47.77 24.285C47.77 23.775 47.645 23.35 47.395 23.01C47.155 22.66 46.835 22.31 46.435 21.96L45.175 20.865C44.725 20.485 44.355 20.055 44.065 19.575C43.785 19.095 43.645 18.505 43.645 17.805C43.645 16.805 43.935 16.04 44.515 15.51C45.105 14.97 45.91 14.7 46.93 14.7C47.54 14.7 48.04 14.8 48.43 15C48.82 15.2 49.12 15.47 49.33 15.81C49.55 16.14 49.7 16.505 49.78 16.905C49.87 17.295 49.925 17.685 49.945 18.075L47.83 18.39C47.81 18.02 47.775 17.695 47.725 17.415C47.685 17.135 47.595 16.915 47.455 16.755C47.325 16.595 47.125 16.515 46.855 16.515C46.565 16.515 46.35 16.625 46.21 16.845C46.07 17.055 46 17.29 46 17.55C46 17.98 46.095 18.335 46.285 18.615C46.485 18.885 46.755 19.17 47.095 19.47L48.325 20.55C48.835 20.99 49.27 21.495 49.63 22.065C50 22.625 50.185 23.32 50.185 24.15C50.185 24.72 50.055 25.235 49.795 25.695C49.535 26.155 49.17 26.515 48.7 26.775C48.24 27.035 47.695 27.165 47.065 27.165Z" fill="white"/>
</g>
<defs>
<clipPath id="clip0_143_6147">
<rect width="173" height="173" fill="white"/>
</clipPath>
</defs>
</svg>
