<svg width="173" height="173" viewBox="0 0 173 173" fill="none" xmlns="http://www.w3.org/2000/svg">
<g clip-path="url(#clip0_143_5838)">
<path d="M0 0H173V173H0V0Z" fill="#241F20"/>
<path d="M52.2708 121.104C51.9143 120.997 51.5577 120.89 51.219 120.836C51.219 120.836 51.6112 120.961 52.2708 121.104Z" fill="white"/>
<path d="M14.4226 48.01V21.4646L9.48438 23.1582V18.4338C10.6075 17.9881 11.802 17.4177 13.1034 16.758C14.3692 16.0984 15.2962 15.4388 15.8667 14.8148H20.7693V48.01H14.4226Z" fill="white"/>
<path d="M33.9673 48.5448C27.9951 48.5448 25 45.2289 25 38.597V37.4204H31.3467V38.4544C31.3645 40.148 31.5606 41.3781 31.935 42.1269C32.3094 42.8756 33.0046 43.25 34.0386 43.25C34.5913 43.25 35.037 43.1431 35.3757 42.947C35.7144 42.733 35.9819 42.4121 36.1423 41.9664C36.3028 41.5207 36.4276 41.0394 36.4989 40.5046C36.5523 39.9697 36.588 39.2923 36.588 38.4722C36.588 36.7073 36.3206 35.4058 35.8036 34.5501C35.2866 33.6944 34.3239 33.2487 32.9333 33.1952H31.8637V28.3817H32.8085C34.2347 28.3639 35.2153 27.9717 35.7679 27.2408C36.3028 26.5098 36.588 25.2975 36.588 23.6039C36.588 22.1955 36.3919 21.1615 35.9997 20.4841C35.6075 19.8066 34.9122 19.4679 33.9317 19.4679C32.9512 19.4679 32.2559 19.8066 31.8993 20.5554C31.5428 21.3041 31.3645 22.3916 31.3467 23.8178V25.2619H25V23.4613C25 20.5732 25.7844 18.3269 27.3354 16.7224C28.8864 15.1179 31.0792 14.3335 33.8782 14.3335C36.7306 14.3335 38.9413 15.1001 40.4923 16.6333C42.0433 18.1665 42.8277 20.3771 42.8277 23.2652C42.8277 25.1549 42.4355 26.7237 41.6511 28.0252C40.8667 29.3266 39.8505 30.1288 38.5847 30.4854C41.4193 31.5194 42.8277 34.1222 42.8277 38.3296C42.8277 39.8984 42.6673 41.2712 42.3464 42.5013C42.0255 43.7135 41.5084 44.7832 40.831 45.7102C40.1357 46.6373 39.2265 47.3326 38.0677 47.8317C36.9089 48.3131 35.5362 48.5448 33.9673 48.5448Z" fill="white"/>
<path d="M112.796 117.11C112.083 116.914 109.07 112.742 111.459 110.015C111.851 109.569 110.657 108.232 110.995 108.214C112.297 108.107 112.992 108.927 113.331 110.086C113.349 110.603 113.384 111.12 113.366 111.637C113.366 113.509 113.17 115.345 112.796 117.11ZM105.433 130.641C105.166 130.57 104.88 130.481 104.595 130.321C103.133 129.572 103.312 130.766 102.581 130.499C101.85 130.231 103.401 128.556 101.226 129.964C99.0686 131.372 99.6569 129.75 98.712 127.361C97.7672 124.972 99.7995 122.245 101.493 121.638C103.829 120.801 105.273 120.622 106.36 120.355C109.587 119.553 110.264 117.645 110.853 118.804C110.96 119.018 111.067 119.232 111.174 119.428C111.37 119.767 111.584 120.48 111.584 121.175C110.229 124.776 108.107 127.985 105.433 130.641ZM86.5179 138.432C83.8972 138.432 81.3657 138.04 78.9768 137.345C78.638 137.059 78.4419 136.596 78.6559 136.025C79.4938 133.868 81.954 133.013 83.915 132.834C88.265 132.406 93.9699 135.669 94.8791 135.152C95.7883 134.635 97.6245 132.246 100.334 132.353C102.171 132.424 102.153 132.727 102.777 132.977C98.2663 136.4 92.6328 138.432 86.5179 138.432ZM82.881 120.943C82.5067 121.549 81.4905 126.06 80.8309 125.525C80.1534 124.99 81.1161 120.301 81.3122 119.945C82.364 118.002 84.6638 118.091 82.881 120.943ZM93.8451 115.63C93.3102 116.094 91.9553 115.934 91.2779 115.399C90.6004 114.882 91.7057 114.008 92.1158 113.973C93.025 113.883 94.3799 115.149 93.8451 115.63ZM105.683 115.684C105.397 115.577 105.148 115.31 104.916 114.65C104.702 113.99 105.255 113.616 105.79 113.883C106.342 114.169 107.055 114.989 107.055 115.417C107.055 115.844 105.986 115.809 105.683 115.684ZM106.824 116.522C107.733 116.451 109.07 117.699 108.553 118.18C108.018 118.661 106.681 118.483 106.004 117.948C105.308 117.413 106.414 116.558 106.824 116.522ZM78.0319 127.165C77.5149 129.215 76.9088 129.946 76.3739 130.606C75.8569 131.265 73.9315 132.085 72.7193 131.996C71.507 131.907 71.3287 128.645 71.3287 126.969C71.3287 126.381 70.5086 128.11 70.0808 124.616C69.8133 122.387 68.3693 124.847 68.2802 123.35C68.1732 121.87 67.4601 122.155 66.7113 121.228C65.9626 120.301 65.0355 121.318 63.9837 121.781C62.9497 122.245 63.3775 122.494 61.8978 122.013C61.8622 121.995 61.8444 121.995 61.8087 121.977C60.4538 118.768 59.705 115.238 59.7229 111.53C59.7229 110.621 59.7763 109.73 59.8655 108.856C59.919 108.767 59.9724 108.678 60.0259 108.606C61.4521 106.931 61.4165 106.538 61.4165 106.538L62.9853 106.004C62.9853 106.004 65.4812 106.396 67.3709 107.109C68.922 107.697 71.3643 109.016 72.7906 108.446C73.8246 108.018 74.6268 107.465 74.5377 106.61C74.4307 105.54 73.575 105.273 72.5588 106.004C72.1844 106.271 71.3822 104.381 70.7404 104.47C70.1164 104.559 71.5248 106.699 70.99 106.788C70.4551 106.877 69.3676 104.577 69.1894 104.203C69.0111 103.829 68.1732 102.902 67.4244 103.615C65.8378 105.112 63.2706 105.023 62.7536 105.397C61.1847 106.574 60.7747 105.005 60.8103 104.06C60.8817 103.846 60.9351 103.632 61.0065 103.401C61.5235 102.83 63.3597 102.652 63.9837 103.08C64.679 103.543 65.1781 102.955 65.4455 102.688C65.7308 102.42 65.6238 101.974 65.4455 101.6C65.2673 101.226 65.7843 100.958 66.1587 100.851C66.5152 100.762 67.7097 99.9243 68.191 99.639C68.6724 99.3716 71.1504 99.0686 72.2736 99.6212C73.3789 100.174 74.3951 99.7282 74.9477 99.0864C75.643 98.2663 76.5166 97.6602 76.8909 97.4641C77.2831 97.2858 75.9282 96.02 74.8229 97.3927C73.7176 98.7477 73.1471 98.8724 72.6301 98.8724C72.1131 98.8724 69.0111 98.088 68.6367 97.1075C68.2623 96.127 69.5994 95.396 70.7582 94.8434C71.8992 94.2907 75.019 94.3086 75.8213 94.1303C77.4436 93.7737 79.5294 92.9715 80.5634 93.6668C81.5974 94.362 76.1957 95.5921 77.9606 96.5548C78.6024 96.9114 81.4548 94.9147 82.4353 94.3977C84.7351 93.2032 80.2069 92.811 80.7952 90.3865C81.4727 87.6588 75.233 88.7107 72.1131 88.9246C76.2848 86.2504 81.2409 84.7173 86.5714 84.7173C99.229 84.7351 109.819 93.5063 112.618 105.308C112.635 105.897 112.546 106.307 112.493 106.556C112.243 107.519 110.407 108.357 109.355 106.788C109.088 106.396 107.929 105.308 107.965 107.162C108 109.016 109.765 109.213 108.054 110.336C106.342 111.441 106.021 111.174 105.237 111.459C104.453 111.744 103.668 113.652 103.864 114.668C104.06 115.684 106.485 118.501 104.684 118.376C104.256 118.34 101.065 116.147 100.53 114.739C99.9778 113.259 99.3717 111.798 98.9438 110.692C98.5159 109.587 97.375 109.284 96.4123 109.943C95.4496 110.603 96.6797 111.245 95.9844 112.653C95.3069 114.044 94.8078 115.292 93.7916 114.133C91.1709 111.138 87.3736 112.6 86.7853 109.266C86.4644 107.448 84.9134 107.626 83.612 106.592C82.3106 105.576 81.5796 105.023 81.3479 105.754C81.1518 106.396 85.4482 109.819 85.7513 110.674C86.2148 111.976 84.4677 113.117 83.1841 113.42C81.9183 113.723 81.3479 112.707 80.1177 111.405C78.8698 110.104 78.3172 109.177 78.228 110.193C78.1032 111.673 79.4046 113.83 80.6882 114.65C81.7757 115.345 82.988 115.648 82.6315 116.771C82.2749 117.895 82.6315 117.253 81.4013 118.465C80.1891 119.677 79.9395 120.07 80.0286 121.728C80.1177 123.403 79.6721 123.493 79.4046 124.883C79.1729 126.345 78.5667 125.133 78.0319 127.165ZM63.6628 97.5889C63.7163 97.5175 63.7876 97.4641 63.8054 97.4284C64.2868 96.8757 65.2494 96.751 65.9269 96.6618C66.5865 96.5548 67.4779 96.8936 67.5849 97.3393C67.6918 97.785 65.9091 98.5872 65.5882 98.8903C64.6611 99.746 63.2171 101.475 62.3614 101.671C62.0939 101.743 61.8622 101.689 61.6661 101.6C62.2187 100.192 62.8962 98.8546 63.6628 97.5889ZM65.0533 94.8612C65.3921 94.3442 66.5509 92.9002 66.6935 92.7219C66.9966 92.3475 67.5849 92.2584 67.9949 92.1871C68.4049 92.1157 68.9398 92.3475 69.0111 92.6506C69.0824 92.9537 68.8506 94.1481 68.6545 94.362C68.084 94.9504 66.6222 95.7704 65.8021 95.6456C65.1781 95.5387 64.9286 95.0395 65.0533 94.8612ZM150.288 110.835C145.724 104.399 125.044 78.745 86.5357 78.6915C48.0279 78.638 27.2943 104.256 22.6947 110.674C22.4986 110.942 22.3382 111.191 22.1956 111.387C22.3382 111.601 22.4986 111.833 22.6947 112.118C27.2765 118.536 47.9388 144.208 86.4466 144.262C124.937 144.315 145.688 118.697 150.27 112.297C150.466 112.011 150.644 111.78 150.769 111.584C150.662 111.334 150.484 111.102 150.288 110.835Z" fill="white"/>
<path d="M88.1865 48V35.85H89.9115L92.6115 42.18V35.85H94.6515V48H93.0015L90.3015 41.28V48H88.1865Z" fill="white"/>
<path d="M83.434 48.165C82.544 48.165 81.839 48.005 81.319 47.685C80.799 47.365 80.424 46.91 80.194 46.32C79.974 45.72 79.864 45.005 79.864 44.175V39.645C79.864 38.815 79.974 38.105 80.194 37.515C80.424 36.925 80.799 36.475 81.319 36.165C81.839 35.855 82.544 35.7 83.434 35.7C84.334 35.7 85.044 35.86 85.564 36.18C86.094 36.49 86.469 36.94 86.689 37.53C86.919 38.11 87.034 38.815 87.034 39.645V44.175C87.034 45.005 86.919 45.72 86.689 46.32C86.469 46.91 86.094 47.365 85.564 47.685C85.044 48.005 84.334 48.165 83.434 48.165ZM83.434 46.38C83.754 46.38 83.989 46.31 84.139 46.17C84.289 46.02 84.389 45.825 84.439 45.585C84.489 45.335 84.514 45.07 84.514 44.79V39.045C84.514 38.765 84.489 38.505 84.439 38.265C84.389 38.025 84.289 37.835 84.139 37.695C83.989 37.545 83.754 37.47 83.434 37.47C83.134 37.47 82.909 37.545 82.759 37.695C82.609 37.835 82.509 38.025 82.459 38.265C82.409 38.505 82.384 38.765 82.384 39.045V44.79C82.384 45.07 82.404 45.335 82.444 45.585C82.494 45.825 82.594 46.02 82.744 46.17C82.894 46.31 83.124 46.38 83.434 46.38Z" fill="white"/>
<path d="M76.2234 48V35.85H78.6834V48H76.2234Z" fill="white"/>
<path d="M71.2561 48V37.695H69.3811V35.85H75.5911V37.695H73.7461V48H71.2561Z" fill="white"/>
<path d="M65.7003 48.165C64.8003 48.165 64.0853 47.995 63.5553 47.655C63.0353 47.315 62.6703 46.845 62.4603 46.245C62.2503 45.635 62.1453 44.93 62.1453 44.13V39.765C62.1453 38.925 62.2503 38.205 62.4603 37.605C62.6703 36.995 63.0353 36.525 63.5553 36.195C64.0853 35.865 64.8003 35.7 65.7003 35.7C66.5703 35.7 67.2503 35.845 67.7403 36.135C68.2403 36.425 68.5903 36.835 68.7903 37.365C69.0003 37.895 69.1053 38.51 69.1053 39.21V40.23H66.7053V39.09C66.7053 38.81 66.6903 38.55 66.6603 38.31C66.6303 38.06 66.5453 37.86 66.4053 37.71C66.2753 37.55 66.0453 37.47 65.7153 37.47C65.3853 37.47 65.1453 37.55 64.9953 37.71C64.8453 37.87 64.7503 38.08 64.7103 38.34C64.6703 38.59 64.6503 38.87 64.6503 39.18V44.7C64.6503 45.04 64.6753 45.34 64.7253 45.6C64.7853 45.85 64.8903 46.045 65.0403 46.185C65.2003 46.315 65.4253 46.38 65.7153 46.38C66.0353 46.38 66.2603 46.305 66.3903 46.155C66.5303 45.995 66.6153 45.785 66.6453 45.525C66.6853 45.265 66.7053 44.99 66.7053 44.7V43.515H69.1053V44.52C69.1053 45.23 69.0053 45.86 68.8053 46.41C68.6053 46.95 68.2603 47.38 67.7703 47.7C67.2803 48.01 66.5903 48.165 65.7003 48.165Z" fill="white"/>
<path d="M54.3149 48L56.6699 35.85H59.4149L61.7549 48H59.4599L59.0249 45.33H57.1049L56.6399 48H54.3149ZM57.3299 43.815H58.7849L58.0499 38.91L57.3299 43.815Z" fill="white"/>
<path d="M95.4648 27V14.85H100.76V16.56H97.9398V19.785H100.115V21.51H97.9398V25.32H100.79V27H95.4648Z" fill="white"/>
<path d="M90.5276 27V16.695H88.6526V14.85H94.8626V16.695H93.0176V27H90.5276Z" fill="white"/>
<path d="M81.8755 27L84.2305 14.85H86.9755L89.3155 27H87.0205L86.5855 24.33H84.6655L84.2005 27H81.8755ZM84.8905 22.815H86.3455L85.6105 17.91L84.8905 22.815Z" fill="white"/>
<path d="M72.501 27L72.711 14.85H75.336L76.836 22.515L78.441 14.85H80.976L81.186 27H79.386L79.191 18.765L77.646 27H76.101L74.481 18.705L74.316 27H72.501Z" fill="white"/>
<path d="M68.7253 27V14.85H71.1853V27H68.7253Z" fill="white"/>
<path d="M62.7061 27V14.85H65.1811V25.32H68.0311V27H62.7061Z" fill="white"/>
<path d="M58.2901 27.165C57.3901 27.165 56.6751 26.995 56.1451 26.655C55.6251 26.315 55.2601 25.845 55.0501 25.245C54.8401 24.635 54.7351 23.93 54.7351 23.13V18.765C54.7351 17.925 54.8401 17.205 55.0501 16.605C55.2601 15.995 55.6251 15.525 56.1451 15.195C56.6751 14.865 57.3901 14.7 58.2901 14.7C59.1601 14.7 59.8401 14.845 60.3301 15.135C60.8301 15.425 61.1801 15.835 61.3801 16.365C61.5901 16.895 61.6951 17.51 61.6951 18.21V19.23H59.2951V18.09C59.2951 17.81 59.2801 17.55 59.2501 17.31C59.2201 17.06 59.1351 16.86 58.9951 16.71C58.8651 16.55 58.6351 16.47 58.3051 16.47C57.9751 16.47 57.7351 16.55 57.5851 16.71C57.4351 16.87 57.3401 17.08 57.3001 17.34C57.2601 17.59 57.2401 17.87 57.2401 18.18V23.7C57.2401 24.04 57.2651 24.34 57.3151 24.6C57.3751 24.85 57.4801 25.045 57.6301 25.185C57.7901 25.315 58.0151 25.38 58.3051 25.38C58.6251 25.38 58.8501 25.305 58.9801 25.155C59.1201 24.995 59.2051 24.785 59.2351 24.525C59.2751 24.265 59.2951 23.99 59.2951 23.7V22.515H61.6951V23.52C61.6951 24.23 61.5951 24.86 61.3951 25.41C61.1951 25.95 60.8501 26.38 60.3601 26.7C59.8701 27.01 59.1801 27.165 58.2901 27.165Z" fill="white"/>
</g>
<defs>
<clipPath id="clip0_143_5838">
<rect width="173" height="173" fill="white"/>
</clipPath>
</defs>
</svg>
