<svg width="173" height="173" viewBox="0 0 173 173" fill="none" xmlns="http://www.w3.org/2000/svg">
<g clip-path="url(#clip0_143_5860)">
<path d="M0 0H173V173H0V0Z" fill="#241F20"/>
<path d="M52.2708 121.104C51.9143 120.997 51.5577 120.89 51.219 120.836C51.219 120.836 51.6112 120.961 52.2708 121.104Z" fill="white"/>
<path d="M14.4226 48.01V21.4646L9.48438 23.1582V18.4338C10.6075 17.9881 11.802 17.4177 13.1034 16.758C14.3692 16.0984 15.2962 15.4388 15.8667 14.8148H20.7693V48.01H14.4226Z" fill="white"/>
<path d="M33.9479 48.01V40.1658H24V34.9779L32.5216 14.8148H39.724V35.2988H43.0222V40.1658H39.724V48.01H33.9479ZM29.0631 35.2988H33.9479V21.3398L29.0631 35.2988Z" fill="white"/>
<path d="M108.232 132.157C105.041 132.157 102.456 129.572 102.456 126.381C102.456 123.19 105.041 120.605 108.232 120.605C111.423 120.605 114.026 123.19 114.026 126.381C114.026 129.572 111.441 132.157 108.232 132.157ZM133.351 129.465C131.159 126.505 117.039 108.5 97.2324 108.5C80.0287 108.5 61.6305 124.099 61.6305 124.099C61.6305 124.099 54.7133 109.944 40.576 108.589C40.4868 108.589 40.3977 108.571 40.3085 108.571H40.2194C39.9163 108.589 39.6489 108.874 39.6846 109.123C39.7202 109.373 39.8985 109.64 39.8985 109.64C41.7169 112.671 46.37 121.282 46.37 129.875C46.37 138.504 41.6991 147.132 39.8807 150.145L39.7559 150.341C39.7024 150.43 39.6667 150.519 39.6667 150.644C39.6667 150.947 39.8985 151.179 40.1838 151.197L40.3442 151.179C40.3977 151.179 40.4512 151.179 40.4868 151.161C54.6777 149.842 61.6126 135.651 61.6126 135.651C61.6126 135.651 80.0108 151.25 97.2146 151.25C117.021 151.25 131.141 133.244 133.333 130.285C133.387 130.214 133.44 130.142 133.476 130.089C133.494 130.018 133.53 129.946 133.53 129.875C133.53 129.804 133.512 129.714 133.476 129.661C133.458 129.608 133.405 129.536 133.351 129.465Z" fill="white"/>
<path d="M60.3291 92.3475C60.3648 92.2762 60.4183 92.2406 60.4717 92.1871C60.5609 92.1336 60.6678 92.0801 60.7926 92.0801C60.9353 92.0801 61.0779 92.1336 61.1848 92.2406C61.1848 92.2584 61.2027 92.2584 61.2027 92.2584C72.0063 102.545 83.3269 94.2016 85.6801 92.2584L85.9119 92.0445C85.9832 92.0266 86.0545 92.0088 86.1258 92.0088C86.2149 92.0088 86.2862 92.0266 86.3576 92.0445L86.5893 92.2584C88.9426 94.2016 100.263 102.545 111.067 92.2584L111.085 92.2406C111.192 92.1336 111.316 92.0801 111.459 92.0801C111.584 92.0801 111.691 92.1336 111.78 92.1871C111.851 92.2406 111.887 92.2762 111.94 92.3475C114.026 94.4155 123.083 102.188 132.656 93.8807C132.763 93.7737 132.817 93.6489 132.817 93.4885V89.5307C132.817 89.2098 132.567 88.9603 132.246 88.9603C132.21 88.9603 132.175 88.9781 132.121 88.9781C132.032 89.0137 131.943 89.0672 131.836 89.1207C128.894 90.6004 119.767 94.0946 111.495 86.2683C111.423 86.197 111.334 86.1257 111.263 86.0365C111.192 86.0009 111.12 85.983 111.013 85.983C110.96 85.983 110.888 86.0009 110.835 86.0187C110.71 86.0543 110.621 86.1257 110.55 86.2326C108.09 88.1045 96.7511 95.7883 86.6785 86.3752L86.5358 86.2326C86.4289 86.1257 86.2863 86.0722 86.1258 86.0722C85.9832 86.0722 85.8406 86.1257 85.7336 86.2326L85.5731 86.3931C75.5005 95.8061 64.1621 88.1402 61.684 86.2505C61.6127 86.1435 61.5236 86.0722 61.3988 86.0365C61.3453 86.0009 61.274 86.0009 61.2205 86.0009C61.1314 86.0009 61.0601 86.0187 60.9887 86.0543C60.9174 86.1257 60.8283 86.2148 60.7392 86.2861C52.4671 94.1125 43.3393 90.6182 40.3978 89.1385C40.2908 89.0851 40.2016 89.0316 40.1125 88.9959C40.0769 88.9959 40.0412 88.9781 40.0055 88.9781C39.6846 88.9781 39.4351 89.2277 39.4351 89.5486V93.5063C39.4351 93.6668 39.5064 93.8094 39.5955 93.8985C49.169 102.188 58.2255 94.4155 60.3291 92.3475Z" fill="white"/>
<path d="M40.1303 74.6446C40.0947 74.6446 40.059 74.6268 40.0234 74.6268C39.7025 74.6268 39.4529 74.8764 39.4529 75.1973V79.1372C39.4529 79.2976 39.5242 79.4402 39.6133 79.5472C49.169 87.8549 58.2255 80.0642 60.3291 78.014C60.3648 77.9427 60.4183 77.8892 60.4717 77.8536C60.5609 77.8001 60.6678 77.7466 60.7926 77.7466C60.9353 77.7466 61.0779 77.8001 61.1848 77.8892C61.2027 77.9071 61.2027 77.9071 61.2205 77.9071C72.0241 88.2115 83.3447 79.8681 85.6979 77.9071L85.9297 77.6931C86.001 77.6575 86.0723 77.6575 86.1436 77.6575C86.2149 77.6575 86.3041 77.6753 86.3754 77.6931L86.6072 77.9071C88.9604 79.8681 100.281 88.2115 111.085 77.9071L111.102 77.8892C111.209 77.8001 111.334 77.7466 111.495 77.7466C111.619 77.7466 111.726 77.7823 111.816 77.8536C111.887 77.8892 111.922 77.9427 111.976 78.014C114.062 80.0642 123.118 87.8549 132.674 79.5472C132.781 79.4402 132.834 79.2976 132.834 79.1372V75.1973C132.834 74.8764 132.585 74.6268 132.264 74.6268C132.228 74.6268 132.193 74.6446 132.139 74.6446C132.05 74.6981 131.961 74.7516 131.854 74.7872C128.912 76.2669 119.784 79.7611 111.512 71.9348C111.441 71.8635 111.352 71.7922 111.281 71.703C111.209 71.6674 111.138 71.6495 111.031 71.6495C110.978 71.6495 110.906 71.6674 110.853 71.6674C110.728 71.7209 110.639 71.7922 110.568 71.8991C108.107 73.7889 96.7689 81.4369 86.6963 72.0417L86.5537 71.8991C86.4467 71.81 86.3041 71.7208 86.1436 71.7208C86.001 71.7208 85.8406 71.7922 85.7514 71.8991L85.5731 72.0417C75.5005 81.4548 64.1621 73.7889 61.7019 71.8991C61.6305 71.81 61.5414 71.7209 61.4166 71.6674C61.3631 71.6495 61.2918 71.6495 61.2383 71.6495C61.167 71.6495 61.0779 71.6674 61.0066 71.703C60.9353 71.7922 60.8461 71.8635 60.757 71.9348C52.4849 79.7611 43.3571 76.2669 40.4156 74.7872C40.3086 74.7337 40.2195 74.6802 40.1303 74.6446Z" fill="white"/>
<path d="M125.179 48V35.85H128.329C129.149 35.85 129.849 35.945 130.429 36.135C131.019 36.315 131.469 36.64 131.779 37.11C132.099 37.58 132.259 38.23 132.259 39.06C132.259 39.56 132.214 40.005 132.124 40.395C132.044 40.775 131.894 41.11 131.674 41.4C131.464 41.68 131.164 41.905 130.774 42.075L132.454 48H129.919L128.524 42.495H127.654V48H125.179ZM127.654 41.025H128.374C128.774 41.025 129.089 40.96 129.319 40.83C129.549 40.7 129.709 40.505 129.799 40.245C129.899 39.975 129.949 39.645 129.949 39.255C129.949 38.695 129.844 38.27 129.634 37.98C129.434 37.68 129.054 37.53 128.494 37.53H127.654V41.025Z" fill="white"/>
<path d="M119.102 48V35.85H124.397V37.56H121.577V40.785H123.752V42.51H121.577V46.32H124.427V48H119.102Z" fill="white"/>
<path d="M114.164 48V37.695H112.289V35.85H118.499V37.695H116.654V48H114.164Z" fill="white"/>
<path d="M105.512 48L107.867 35.85H110.612L112.952 48H110.657L110.222 45.33H108.302L107.837 48H105.512ZM108.527 43.815H109.982L109.247 38.91L108.527 43.815Z" fill="white"/>
<path d="M97.4681 48L95.8931 35.85H97.9931L98.8331 43.275L99.8981 35.865H101.563L102.673 43.26L103.513 35.85H105.583L104.023 48H101.923L100.738 40.305L99.6131 48H97.4681Z" fill="white"/>
<path d="M84.1565 48L82.5815 35.85H84.6815L85.5215 43.275L86.5865 35.865H88.2515L89.3615 43.26L90.2015 35.85H92.2715L90.7115 48H88.6115L87.4265 40.305L86.3015 48H84.1565Z" fill="white"/>
<path d="M78.309 48.165C77.419 48.165 76.714 48.005 76.194 47.685C75.674 47.365 75.299 46.91 75.069 46.32C74.849 45.72 74.739 45.005 74.739 44.175V39.645C74.739 38.815 74.849 38.105 75.069 37.515C75.299 36.925 75.674 36.475 76.194 36.165C76.714 35.855 77.419 35.7 78.309 35.7C79.209 35.7 79.919 35.86 80.439 36.18C80.969 36.49 81.344 36.94 81.564 37.53C81.794 38.11 81.909 38.815 81.909 39.645V44.175C81.909 45.005 81.794 45.72 81.564 46.32C81.344 46.91 80.969 47.365 80.439 47.685C79.919 48.005 79.209 48.165 78.309 48.165ZM78.309 46.38C78.629 46.38 78.864 46.31 79.014 46.17C79.164 46.02 79.264 45.825 79.314 45.585C79.364 45.335 79.389 45.07 79.389 44.79V39.045C79.389 38.765 79.364 38.505 79.314 38.265C79.264 38.025 79.164 37.835 79.014 37.695C78.864 37.545 78.629 37.47 78.309 37.47C78.009 37.47 77.784 37.545 77.634 37.695C77.484 37.835 77.384 38.025 77.334 38.265C77.284 38.505 77.259 38.765 77.259 39.045V44.79C77.259 45.07 77.279 45.335 77.319 45.585C77.369 45.825 77.469 46.02 77.619 46.17C77.769 46.31 77.999 46.38 78.309 46.38Z" fill="white"/>
<path d="M69.1055 48V35.85H71.5805V46.32H74.4305V48H69.1055Z" fill="white"/>
<path d="M63.0283 48V35.85H68.3233V37.56H65.5033V40.785H67.6783V42.51H65.5033V46.32H68.3533V48H63.0283Z" fill="white"/>
<path d="M54.915 48V35.85H57.99C58.52 35.85 59.01 35.895 59.46 35.985C59.91 36.075 60.305 36.235 60.645 36.465C60.995 36.695 61.26 37.015 61.44 37.425C61.63 37.825 61.725 38.35 61.725 39C61.725 39.49 61.655 39.91 61.515 40.26C61.375 40.6 61.175 40.87 60.915 41.07C60.655 41.27 60.335 41.405 59.955 41.475C60.425 41.545 60.82 41.705 61.14 41.955C61.46 42.205 61.7 42.535 61.86 42.945C62.02 43.355 62.1 43.85 62.1 44.43C62.1 45.04 62.02 45.57 61.86 46.02C61.71 46.47 61.485 46.84 61.185 47.13C60.885 47.42 60.515 47.64 60.075 47.79C59.635 47.93 59.125 48 58.545 48H54.915ZM57.39 46.26H58.08C58.7 46.26 59.125 46.105 59.355 45.795C59.595 45.485 59.715 45.02 59.715 44.4C59.715 43.92 59.66 43.54 59.55 43.26C59.44 42.97 59.26 42.76 59.01 42.63C58.77 42.49 58.445 42.42 58.035 42.42H57.39V46.26ZM57.39 40.755H58.005C58.435 40.755 58.76 40.695 58.98 40.575C59.2 40.445 59.35 40.255 59.43 40.005C59.52 39.745 59.565 39.43 59.565 39.06C59.565 38.69 59.5 38.395 59.37 38.175C59.25 37.945 59.06 37.78 58.8 37.68C58.55 37.58 58.23 37.53 57.84 37.53H57.39V40.755Z" fill="white"/>
<path d="M70.627 27V14.85H75.922V16.56H73.102V19.785H75.277V21.51H73.102V25.32H75.952V27H70.627Z" fill="white"/>
<path d="M64.7549 27V14.85H69.8849V16.53H67.2299V19.815H69.4799V21.54H67.2299V27H64.7549Z" fill="white"/>
<path d="M60.9343 27V14.85H63.3943V27H60.9343Z" fill="white"/>
<path d="M54.915 27V14.85H57.39V25.32H60.24V27H54.915Z" fill="white"/>
</g>
<defs>
<clipPath id="clip0_143_5860">
<rect width="173" height="173" fill="white"/>
</clipPath>
</defs>
</svg>
