<svg width="173" height="173" viewBox="0 0 173 173" fill="none" xmlns="http://www.w3.org/2000/svg">
<g clip-path="url(#clip0_143_5885)">
<path d="M0 0H173V173H0V0Z" fill="#241F20"/>
<path d="M52.2708 121.104C51.9143 120.997 51.5577 120.89 51.219 120.836C51.219 120.836 51.6112 120.961 52.2708 121.104Z" fill="white"/>
<path d="M14.4226 48.01V21.4646L9.48438 23.1582V18.4338C10.6075 17.9881 11.802 17.4177 13.1034 16.758C14.3692 16.0984 15.2962 15.4388 15.8667 14.8148H20.7693V48.01H14.4226Z" fill="white"/>
<path d="M32.5751 48.5448C31.2024 48.5448 30.0079 48.3844 28.9918 48.0635C27.9756 47.7426 27.1555 47.2969 26.5137 46.7264C25.8719 46.1559 25.3727 45.4428 24.9984 44.5514C24.624 43.6779 24.3566 42.733 24.2139 41.7525C24.0713 40.772 24 39.6132 24 38.3117H30.1684C30.1684 39.2744 30.204 40.0588 30.2754 40.6828C30.3467 41.3068 30.4715 41.8594 30.6497 42.3586C30.828 42.8578 31.1133 43.2322 31.4876 43.4639C31.8264 43.6779 32.2899 43.7848 32.8247 43.7848H32.9317C33.2347 43.767 33.52 43.7314 33.7696 43.6422C34.0192 43.5709 34.2331 43.4283 34.3935 43.2144C34.5718 43.0182 34.7144 42.8221 34.8392 42.6082C34.964 42.4121 35.071 42.1269 35.1423 41.7525C35.2136 41.3781 35.2671 41.0572 35.3206 40.7541C35.3741 40.4689 35.3919 40.0588 35.4276 39.524C35.4454 38.9892 35.4632 38.5435 35.4632 38.1691C35.4632 37.7947 35.481 37.2956 35.481 36.6359C35.481 36.012 35.4632 35.4593 35.4454 34.9958C35.4097 34.5323 35.3741 34.0509 35.3206 33.5696C35.2671 33.0882 35.1601 32.6782 35.0353 32.3573C34.9106 32.0364 34.7323 31.7333 34.5362 31.4659C34.3401 31.1985 34.0905 31.0024 33.7696 30.8598C33.4487 30.7171 33.11 30.6637 32.6821 30.6637C31.1846 30.6637 30.2397 31.6442 29.8475 33.6052H24.3744L24.8022 14.797H40.1519V20.3058H30.0079L29.6514 27.5438C30.0079 27.1338 30.5784 26.7772 31.3272 26.492C32.0759 26.2067 32.9317 26.0106 33.8587 25.9571C34.0905 25.9393 34.3222 25.9393 34.5362 25.9393C36.7111 25.9393 38.387 26.7594 39.5636 28.4174C40.8472 30.2536 41.489 32.8743 41.489 36.2972C41.489 37.5451 41.4355 38.6683 41.3463 39.6488C41.2572 40.6293 41.0968 41.6099 40.865 42.5547C40.6332 43.5174 40.2945 44.3375 39.8667 45.0328C39.4388 45.7281 38.904 46.352 38.2622 46.8869C37.6204 47.4217 36.8181 47.8317 35.8732 48.117C34.8927 48.42 33.8052 48.5448 32.5751 48.5448Z" fill="white"/>
<path d="M72.4519 116.629C72.6658 116.629 72.8262 116.807 72.8262 117.021V129.679C72.8262 129.893 72.648 130.071 72.4519 130.071H67.3353C67.1214 130.071 66.9609 129.893 66.9609 129.679V117.021C66.9609 116.807 67.1392 116.629 67.3353 116.629H72.4519Z" fill="white"/>
<path d="M128.698 135.49H44.3019C44.0879 135.49 43.9097 135.669 43.9097 135.883V141.035C43.9097 141.249 44.0879 141.409 44.3019 141.409H128.698C128.912 141.409 129.09 141.231 129.09 141.035V135.883C129.09 135.669 128.912 135.49 128.698 135.49Z" fill="white"/>
<path d="M128.698 145.741H44.3019C44.0879 145.741 43.9097 145.92 43.9097 146.116V151.286C43.9097 151.5 44.0879 151.66 44.3019 151.66H128.698C128.912 151.66 129.09 151.482 129.09 151.286V146.116C129.09 145.92 128.912 145.741 128.698 145.741Z" fill="white"/>
<path d="M112.635 102.634C111.584 101.814 108.767 99.8887 105.326 99.8887C102.866 99.8887 100.584 100.851 98.5516 102.777C98.409 102.919 98.3198 103.098 98.3198 103.312V103.775C98.3198 104.007 98.3911 104.221 98.5694 104.346C98.7477 104.488 98.9438 104.542 99.1577 104.488C99.2112 104.488 99.2647 104.47 99.3182 104.453C99.4786 104.399 99.6212 104.31 99.746 104.185C100.192 103.882 101.404 103.49 103.133 103.49C104.916 103.49 108.428 103.971 111.833 107.127L111.905 107.198C112.101 107.394 112.368 107.501 112.635 107.501C112.903 107.501 113.17 107.394 113.349 107.198L113.42 107.127C116.825 103.953 120.337 103.472 122.12 103.472C123.867 103.472 125.061 103.882 125.507 104.167C125.632 104.292 125.774 104.381 125.971 104.453C126.042 104.47 126.256 104.524 126.47 104.47C126.791 104.381 127.005 104.096 127.005 103.775V103.365C127.005 103.169 126.915 102.973 126.773 102.848C124.705 100.887 122.405 99.8887 119.909 99.8887C116.522 99.8708 113.723 101.761 112.635 102.634Z" fill="white"/>
<path d="M107.394 68.9933C107.216 69.0824 107.091 69.2429 107.02 69.439L106.931 69.7242C106.859 69.9381 106.913 70.1877 107.038 70.366C107.162 70.5443 107.358 70.6334 107.555 70.6512C107.59 70.6512 107.626 70.6691 107.662 70.6512C107.804 70.6512 107.947 70.6156 108.072 70.5443C108.143 70.5264 108.303 70.4908 108.589 70.4908C108.963 70.4908 112.368 70.5978 114.614 74.4307L114.65 74.4842C114.775 74.6981 114.971 74.8586 115.185 74.9121C115.256 74.9299 115.381 74.9477 115.452 74.9477C115.613 74.9477 115.773 74.9121 115.88 74.8408L115.934 74.8229C117.164 74.199 118.447 73.8959 119.695 73.8959C121.817 73.8959 123.225 74.7694 123.546 75.126C123.617 75.2508 123.706 75.3578 123.831 75.4469C123.903 75.4825 124.027 75.5539 124.099 75.5717C124.134 75.5717 124.188 75.5895 124.223 75.5895H124.295C124.42 75.5895 124.527 75.5717 124.634 75.5004C124.812 75.4112 124.937 75.2508 124.99 75.0725L125.061 74.8229C125.079 74.7516 125.097 74.6981 125.097 74.6268C125.097 74.502 125.061 74.3594 125.008 74.2703C123.368 71.4178 120.997 70.8295 119.285 70.8295C118.019 70.8295 116.896 71.1504 116.255 71.4C115.488 70.366 113.527 68.2088 110.567 68.2088C109.516 68.191 108.464 68.4584 107.394 68.9933Z" fill="white"/>
<path d="M89.5664 81.9717L89.5842 82.3461C89.6021 82.5778 89.7269 82.7918 89.923 82.9166C90.0834 83.0235 90.2973 83.0592 90.4934 83.0057C90.5291 83.0057 90.5826 82.9879 90.6182 82.97C90.7609 82.9166 90.8857 82.8096 90.9748 82.7026C91.3313 82.4352 92.4901 81.9717 94.1838 81.9717C95.8239 81.9717 98.3198 82.4174 100.851 84.5032L100.905 84.5567C101.083 84.7172 101.315 84.8063 101.564 84.8063H101.618C101.885 84.7885 102.135 84.6637 102.278 84.4854L102.331 84.4141C105.148 81.4369 108.179 80.9912 109.73 80.9912C110.835 80.9912 111.619 81.2229 111.922 81.4012C112.047 81.5082 112.172 81.5795 112.368 81.633C112.422 81.6508 112.546 81.6686 112.671 81.6508C112.725 81.6508 112.796 81.633 112.849 81.6151C113.152 81.5082 113.349 81.2229 113.331 80.8842L113.313 80.5633C113.295 80.3672 113.206 80.1889 113.063 80.0641C111.388 78.6557 109.569 77.9426 107.662 77.9426C104.684 77.9426 102.331 79.6897 101.351 80.5455C100.459 79.9393 98.2663 78.6736 95.717 78.6736C93.4707 78.6736 91.4561 79.6006 89.7269 81.4369C89.6199 81.5795 89.5664 81.7756 89.5664 81.9717Z" fill="white"/>
<path d="M46.8691 88.7463C46.8691 83.701 50.9695 79.6006 56.0147 79.6006C56.2109 79.6006 56.407 79.6185 56.6031 79.6363C57.0844 73.2362 62.4149 68.1909 68.9398 68.1909C75.7678 68.1909 81.3123 73.7353 81.3123 80.5633C81.3123 82.5066 80.8487 84.325 80.0643 85.9651C86.2505 87.3379 90.9036 92.8466 90.9036 99.4607C90.9036 107.109 84.7173 113.295 77.0693 113.295C76.5166 113.295 58.5998 113.188 58.5998 113.188C53.1801 113.188 48.8124 108.802 48.8124 103.401C48.8124 100.798 49.8285 98.4445 51.4865 96.6974C48.7232 95.1107 46.8691 92.1513 46.8691 88.7463Z" fill="white"/>
<path d="M94.4792 49V36.85H97.4492C98.4792 36.85 99.2792 36.985 99.8492 37.255C100.429 37.515 100.839 37.93 101.079 38.5C101.319 39.06 101.439 39.78 101.439 40.66V45.085C101.439 45.985 101.319 46.725 101.079 47.305C100.839 47.885 100.434 48.315 99.8642 48.595C99.3042 48.865 98.5192 49 97.5092 49H94.4792ZM96.9542 47.275H97.4792C97.9392 47.275 98.2642 47.205 98.4542 47.065C98.6542 46.915 98.7792 46.7 98.8292 46.42C98.8792 46.13 98.9042 45.775 98.9042 45.355V40.345C98.9042 39.925 98.8692 39.59 98.7992 39.34C98.7392 39.08 98.6092 38.89 98.4092 38.77C98.2192 38.65 97.9042 38.59 97.4642 38.59H96.9542V47.275Z" fill="white"/>
<path d="M86.6736 49V36.85H88.3986L91.0986 43.18V36.85H93.1386V49H91.4886L88.7886 42.28V49H86.6736Z" fill="white"/>
<path d="M78.5024 49L80.8574 36.85H83.6024L85.9424 49H83.6474L83.2124 46.33H81.2924L80.8274 49H78.5024ZM81.5174 44.815H82.9724L82.2374 39.91L81.5174 44.815Z" fill="white"/>
<path d="M73.113 49V36.85H75.588V47.32H78.438V49H73.113Z" fill="white"/>
<path d="M62.0574 49V36.85H63.7824L66.4824 43.18V36.85H68.5224V49H66.8724L64.1724 42.28V49H62.0574Z" fill="white"/>
<path d="M57.3049 49.165C56.4149 49.165 55.7099 49.005 55.1899 48.685C54.6699 48.365 54.2949 47.91 54.0649 47.32C53.8449 46.72 53.7349 46.005 53.7349 45.175V40.645C53.7349 39.815 53.8449 39.105 54.0649 38.515C54.2949 37.925 54.6699 37.475 55.1899 37.165C55.7099 36.855 56.4149 36.7 57.3049 36.7C58.2049 36.7 58.9149 36.86 59.4349 37.18C59.9649 37.49 60.3399 37.94 60.5599 38.53C60.7899 39.11 60.9049 39.815 60.9049 40.645V45.175C60.9049 46.005 60.7899 46.72 60.5599 47.32C60.3399 47.91 59.9649 48.365 59.4349 48.685C58.9149 49.005 58.2049 49.165 57.3049 49.165ZM57.3049 47.38C57.6249 47.38 57.8599 47.31 58.0099 47.17C58.1599 47.02 58.2599 46.825 58.3099 46.585C58.3599 46.335 58.3849 46.07 58.3849 45.79V40.045C58.3849 39.765 58.3599 39.505 58.3099 39.265C58.2599 39.025 58.1599 38.835 58.0099 38.695C57.8599 38.545 57.6249 38.47 57.3049 38.47C57.0049 38.47 56.7799 38.545 56.6299 38.695C56.4799 38.835 56.3799 39.025 56.3299 39.265C56.2799 39.505 56.2549 39.765 56.2549 40.045V45.79C56.2549 46.07 56.2749 46.335 56.3149 46.585C56.3649 46.825 56.4649 47.02 56.6149 47.17C56.7649 47.31 56.9949 47.38 57.3049 47.38Z" fill="white"/>
<path d="M69.6267 28V15.85H74.9217V17.56H72.1017V20.785H74.2767V22.51H72.1017V26.32H74.9517V28H69.6267Z" fill="white"/>
<path d="M63.7546 28V15.85H68.8846V17.53H66.2296V20.815H68.4796V22.54H66.2296V28H63.7546Z" fill="white"/>
<path d="M59.9341 28V15.85H62.3941V28H59.9341Z" fill="white"/>
<path d="M53.9148 28V15.85H56.3898V26.32H59.2398V28H53.9148Z" fill="white"/>
</g>
<defs>
<clipPath id="clip0_143_5885">
<rect width="173" height="173" fill="white"/>
</clipPath>
</defs>
</svg>
