<svg width="173" height="173" viewBox="0 0 173 173" fill="none" xmlns="http://www.w3.org/2000/svg">
<g clip-path="url(#clip0_143_5280)">
<path d="M0 0H173V173H0V0Z" fill="#19486A"/>
<path d="M52.2708 121.104C51.9143 120.997 51.5577 120.89 51.219 120.836C51.219 120.836 51.6112 120.961 52.2708 121.104Z" fill="white"/>
<path d="M14.4226 48.01V21.4646L9.48438 23.1582V18.4338C10.6075 17.9881 11.802 17.4177 13.1034 16.758C14.3692 16.0984 15.2962 15.4388 15.8667 14.8148H20.7693V48.01H14.4226Z" fill="white"/>
<path d="M25.0502 48.01L31.896 19.6461H23V14.8148H38.0822V18.8795L31.2007 48.01H25.0502Z" fill="white"/>
<path d="M102.17 113.562C106.627 109.426 109.426 103.525 109.426 96.9649C109.426 95.9844 109.355 95.0217 109.23 94.0768C118.287 95.0395 125.364 102.741 125.364 112.047C125.364 117.342 123.064 122.102 119.428 125.4C116.04 119.036 109.658 114.472 102.17 113.562ZM117.538 136.043C117.538 146.009 109.426 154.121 99.4606 154.121C96.216 154.121 93.1853 153.247 90.5468 151.749C94.3975 147.685 96.7686 142.212 96.7686 136.204C96.7686 134.724 96.626 133.28 96.3408 131.872C99.5854 133.672 103.329 134.706 107.305 134.706C110.835 134.706 114.186 133.886 117.181 132.442C117.413 133.601 117.538 134.795 117.538 136.043ZM56.0502 136.186C56.0502 134.902 56.1928 133.654 56.4424 132.442C59.4196 133.886 62.7534 134.688 66.2833 134.688C70.241 134.688 73.967 133.654 77.2116 131.872C76.9621 133.226 76.8194 134.617 76.8194 136.043C76.8194 142.158 79.2618 147.703 83.2196 151.785C80.5454 153.354 77.4434 154.263 74.1275 154.263C64.1618 154.263 56.0502 146.152 56.0502 136.186ZM48.206 112.065C48.206 102.759 55.2836 95.0573 64.34 94.0946C64.2153 95.0395 64.1439 96.0022 64.1439 96.9827C64.1439 103.597 66.9964 109.569 71.5424 113.705C64.037 114.561 57.6368 119.089 54.1961 125.471C50.5414 122.155 48.206 117.378 48.206 112.065ZM86.8029 78.9054C94.2193 78.9054 100.584 83.3802 103.383 89.7803C96.0377 91.0818 89.8871 95.9309 86.8029 102.509C83.7366 95.9487 77.586 91.0818 70.241 89.7803C73.0221 83.3802 79.3866 78.9054 86.8029 78.9054ZM91.0994 120.034C93.5953 118.715 96.4477 117.966 99.4606 117.966C106.574 117.966 112.707 122.102 115.666 128.074C113.152 129.393 110.318 130.142 107.305 130.142C100.192 130.142 94.0588 126.006 91.0994 120.034ZM82.4352 120.141C79.4579 126.06 73.343 130.142 66.2833 130.142C63.2882 130.142 60.4714 129.393 57.9756 128.11C60.9528 122.191 67.0677 118.126 74.1275 118.126C77.1225 118.109 79.9393 118.857 82.4352 120.141ZM68.9574 94.2016C77.6573 95.503 84.3606 102.991 84.3606 112.065C84.3606 113.01 84.2714 113.937 84.1288 114.846C75.4289 113.545 68.7257 106.039 68.7257 96.9827C68.7257 96.0379 68.8148 95.1108 68.9574 94.2016ZM86.8743 148.986C83.487 145.706 81.3833 141.106 81.3833 136.043C81.3833 131.051 83.4335 126.523 86.7138 123.243C90.1011 126.523 92.2047 131.123 92.2047 136.204C92.2047 141.178 90.1724 145.706 86.8743 148.986ZM104.88 96.9827C104.88 106.039 98.177 113.545 89.4771 114.846C89.3345 113.937 89.2453 113.01 89.2453 112.065C89.2453 103.008 95.9486 95.503 104.648 94.2016C104.773 95.1108 104.88 96.0379 104.88 96.9827ZM129.946 112.065C129.946 99.853 120.23 89.8873 108.143 89.4416C105.041 80.6526 96.6438 74.3416 86.8029 74.3416C76.9621 74.3416 68.583 80.6526 65.4632 89.4416C53.376 89.8873 43.6599 99.853 43.6599 112.065C43.6599 119.303 47.0828 125.757 52.3955 129.91C51.825 131.907 51.5041 134.011 51.5041 136.186C51.5041 148.665 61.6659 158.809 74.1453 158.809C78.8874 158.809 83.2731 157.347 86.9277 154.851C90.5289 157.258 94.8432 158.667 99.4784 158.667C111.958 158.667 122.12 148.505 122.12 136.043C122.12 133.904 121.817 131.836 121.264 129.893C126.523 125.739 129.946 119.285 129.946 112.065Z" fill="white"/>
<path d="M135.997 48.165C135.247 48.165 134.622 48.03 134.122 47.76C133.622 47.48 133.242 47.065 132.982 46.515C132.732 45.955 132.587 45.245 132.547 44.385L134.677 44.025C134.697 44.525 134.747 44.945 134.827 45.285C134.917 45.615 135.047 45.865 135.217 46.035C135.397 46.195 135.617 46.275 135.877 46.275C136.197 46.275 136.412 46.175 136.522 45.975C136.642 45.775 136.702 45.545 136.702 45.285C136.702 44.775 136.577 44.35 136.327 44.01C136.087 43.66 135.767 43.31 135.367 42.96L134.107 41.865C133.657 41.485 133.287 41.055 132.997 40.575C132.717 40.095 132.577 39.505 132.577 38.805C132.577 37.805 132.867 37.04 133.447 36.51C134.037 35.97 134.842 35.7 135.862 35.7C136.472 35.7 136.972 35.8 137.362 36C137.752 36.2 138.052 36.47 138.262 36.81C138.482 37.14 138.632 37.505 138.712 37.905C138.802 38.295 138.857 38.685 138.877 39.075L136.762 39.39C136.742 39.02 136.707 38.695 136.657 38.415C136.617 38.135 136.527 37.915 136.387 37.755C136.257 37.595 136.057 37.515 135.787 37.515C135.497 37.515 135.282 37.625 135.142 37.845C135.002 38.055 134.932 38.29 134.932 38.55C134.932 38.98 135.027 39.335 135.217 39.615C135.417 39.885 135.687 40.17 136.027 40.47L137.257 41.55C137.767 41.99 138.202 42.495 138.562 43.065C138.932 43.625 139.117 44.32 139.117 45.15C139.117 45.72 138.987 46.235 138.727 46.695C138.467 47.155 138.102 47.515 137.632 47.775C137.172 48.035 136.627 48.165 135.997 48.165Z" fill="white"/>
<path d="M126.96 48V35.85H129.435V46.32H132.285V48H126.96Z" fill="white"/>
<path d="M118.789 48L121.144 35.85H123.889L126.229 48H123.934L123.499 45.33H121.579L121.114 48H118.789ZM121.804 43.815H123.259L122.524 38.91L121.804 43.815Z" fill="white"/>
<path d="M114.797 48.165C113.907 48.165 113.202 48.005 112.682 47.685C112.162 47.365 111.787 46.91 111.557 46.32C111.337 45.72 111.227 45.005 111.227 44.175V39.645C111.227 38.815 111.337 38.105 111.557 37.515C111.787 36.925 112.162 36.475 112.682 36.165C113.202 35.855 113.907 35.7 114.797 35.7C115.697 35.7 116.407 35.86 116.927 36.18C117.457 36.49 117.832 36.94 118.052 37.53C118.282 38.11 118.397 38.815 118.397 39.645V44.175C118.397 45.005 118.282 45.72 118.052 46.32C117.832 46.91 117.457 47.365 116.927 47.685C116.407 48.005 115.697 48.165 114.797 48.165ZM114.797 46.38C115.117 46.38 115.352 46.31 115.502 46.17C115.652 46.02 115.752 45.825 115.802 45.585C115.852 45.335 115.877 45.07 115.877 44.79V39.045C115.877 38.765 115.852 38.505 115.802 38.265C115.752 38.025 115.652 37.835 115.502 37.695C115.352 37.545 115.117 37.47 114.797 37.47C114.497 37.47 114.272 37.545 114.122 37.695C113.972 37.835 113.872 38.025 113.822 38.265C113.772 38.505 113.747 38.765 113.747 39.045V44.79C113.747 45.07 113.767 45.335 113.807 45.585C113.857 45.825 113.957 46.02 114.107 46.17C114.257 46.31 114.487 46.38 114.797 46.38Z" fill="white"/>
<path d="M106.428 48.18C105.608 48.18 104.958 48.01 104.478 47.67C103.998 47.32 103.653 46.83 103.443 46.2C103.243 45.56 103.143 44.82 103.143 43.98V39.915C103.143 39.045 103.248 38.295 103.458 37.665C103.668 37.035 104.033 36.55 104.553 36.21C105.083 35.87 105.798 35.7 106.698 35.7C107.568 35.7 108.253 35.845 108.753 36.135C109.263 36.425 109.628 36.835 109.848 37.365C110.068 37.895 110.178 38.525 110.178 39.255V39.96H107.763V39.105C107.763 38.785 107.743 38.505 107.703 38.265C107.663 38.015 107.568 37.82 107.418 37.68C107.278 37.54 107.048 37.47 106.728 37.47C106.398 37.47 106.158 37.555 106.008 37.725C105.858 37.895 105.763 38.115 105.723 38.385C105.683 38.645 105.663 38.925 105.663 39.225V44.61C105.663 44.95 105.693 45.255 105.753 45.525C105.813 45.795 105.923 46.005 106.083 46.155C106.253 46.305 106.493 46.38 106.803 46.38C107.113 46.38 107.353 46.3 107.523 46.14C107.693 45.98 107.808 45.765 107.868 45.495C107.938 45.215 107.973 44.9 107.973 44.55V43.26H106.788V41.76H110.208V48H108.588L108.438 46.905C108.278 47.275 108.038 47.58 107.718 47.82C107.398 48.06 106.968 48.18 106.428 48.18Z" fill="white"/>
<path d="M93.9961 48V35.85H99.2911V37.56H96.4711V40.785H98.6461V42.51H96.4711V46.32H99.3211V48H93.9961Z" fill="white"/>
<path d="M85.532 48V35.85H88.007V40.845H90.152V35.85H92.627V48H90.152V42.615H88.007V48H85.532Z" fill="white"/>
<path d="M80.5649 48V37.695H78.6899V35.85H84.8999V37.695H83.0549V48H80.5649Z" fill="white"/>
<path d="M67.9297 48V35.85H71.0797C71.8997 35.85 72.5997 35.945 73.1797 36.135C73.7697 36.315 74.2197 36.64 74.5297 37.11C74.8497 37.58 75.0097 38.23 75.0097 39.06C75.0097 39.56 74.9647 40.005 74.8747 40.395C74.7947 40.775 74.6447 41.11 74.4247 41.4C74.2147 41.68 73.9147 41.905 73.5247 42.075L75.2047 48H72.6697L71.2747 42.495H70.4047V48H67.9297ZM70.4047 41.025H71.1247C71.5247 41.025 71.8397 40.96 72.0697 40.83C72.2997 40.7 72.4597 40.505 72.5497 40.245C72.6497 39.975 72.6997 39.645 72.6997 39.255C72.6997 38.695 72.5947 38.27 72.3847 37.98C72.1847 37.68 71.8047 37.53 71.2447 37.53H70.4047V41.025Z" fill="white"/>
<path d="M63.1772 48.165C62.2872 48.165 61.5822 48.005 61.0622 47.685C60.5422 47.365 60.1672 46.91 59.9372 46.32C59.7172 45.72 59.6072 45.005 59.6072 44.175V39.645C59.6072 38.815 59.7172 38.105 59.9372 37.515C60.1672 36.925 60.5422 36.475 61.0622 36.165C61.5822 35.855 62.2872 35.7 63.1772 35.7C64.0772 35.7 64.7872 35.86 65.3072 36.18C65.8372 36.49 66.2122 36.94 66.4322 37.53C66.6622 38.11 66.7772 38.815 66.7772 39.645V44.175C66.7772 45.005 66.6622 45.72 66.4322 46.32C66.2122 46.91 65.8372 47.365 65.3072 47.685C64.7872 48.005 64.0772 48.165 63.1772 48.165ZM63.1772 46.38C63.4972 46.38 63.7322 46.31 63.8822 46.17C64.0322 46.02 64.1322 45.825 64.1822 45.585C64.2322 45.335 64.2572 45.07 64.2572 44.79V39.045C64.2572 38.765 64.2322 38.505 64.1822 38.265C64.1322 38.025 64.0322 37.835 63.8822 37.695C63.7322 37.545 63.4972 37.47 63.1772 37.47C62.8772 37.47 62.6522 37.545 62.5022 37.695C62.3522 37.835 62.2522 38.025 62.2022 38.265C62.1522 38.505 62.1272 38.765 62.1272 39.045V44.79C62.1272 45.07 62.1472 45.335 62.1872 45.585C62.2372 45.825 62.3372 46.02 62.4872 46.17C62.6372 46.31 62.8672 46.38 63.1772 46.38Z" fill="white"/>
<path d="M53.915 48V35.85H59.045V37.53H56.39V40.815H58.64V42.54H56.39V48H53.915Z" fill="white"/>
<path d="M135.017 27.165C134.267 27.165 133.642 27.03 133.142 26.76C132.642 26.48 132.262 26.065 132.002 25.515C131.752 24.955 131.607 24.245 131.567 23.385L133.697 23.025C133.717 23.525 133.767 23.945 133.847 24.285C133.937 24.615 134.067 24.865 134.237 25.035C134.417 25.195 134.637 25.275 134.897 25.275C135.217 25.275 135.432 25.175 135.542 24.975C135.662 24.775 135.722 24.545 135.722 24.285C135.722 23.775 135.597 23.35 135.347 23.01C135.107 22.66 134.787 22.31 134.387 21.96L133.127 20.865C132.677 20.485 132.307 20.055 132.017 19.575C131.737 19.095 131.597 18.505 131.597 17.805C131.597 16.805 131.887 16.04 132.467 15.51C133.057 14.97 133.862 14.7 134.882 14.7C135.492 14.7 135.992 14.8 136.382 15C136.772 15.2 137.072 15.47 137.282 15.81C137.502 16.14 137.652 16.505 137.732 16.905C137.822 17.295 137.877 17.685 137.897 18.075L135.782 18.39C135.762 18.02 135.727 17.695 135.677 17.415C135.637 17.135 135.547 16.915 135.407 16.755C135.277 16.595 135.077 16.515 134.807 16.515C134.517 16.515 134.302 16.625 134.162 16.845C134.022 17.055 133.952 17.29 133.952 17.55C133.952 17.98 134.047 18.335 134.237 18.615C134.437 18.885 134.707 19.17 135.047 19.47L136.277 20.55C136.787 20.99 137.222 21.495 137.582 22.065C137.952 22.625 138.137 23.32 138.137 24.15C138.137 24.72 138.007 25.235 137.747 25.695C137.487 26.155 137.122 26.515 136.652 26.775C136.192 27.035 135.647 27.165 135.017 27.165Z" fill="white"/>
<path d="M124.193 27V14.85H128.048C128.778 14.85 129.373 14.99 129.833 15.27C130.293 15.54 130.633 15.935 130.853 16.455C131.083 16.975 131.198 17.605 131.198 18.345C131.198 19.215 131.048 19.895 130.748 20.385C130.458 20.875 130.058 21.225 129.548 21.435C129.038 21.635 128.453 21.735 127.793 21.735H126.668V27H124.193ZM126.668 19.995H127.538C127.898 19.995 128.173 19.94 128.363 19.83C128.563 19.71 128.698 19.525 128.768 19.275C128.838 19.025 128.873 18.705 128.873 18.315C128.873 17.945 128.843 17.635 128.783 17.385C128.733 17.135 128.613 16.94 128.423 16.8C128.233 16.66 127.933 16.59 127.523 16.59H126.668V19.995Z" fill="white"/>
<path d="M120.373 27V14.85H122.833V27H120.373Z" fill="white"/>
<path d="M111.879 27V14.85H114.354V19.845H116.499V14.85H118.974V27H116.499V21.615H114.354V27H111.879Z" fill="white"/>
<path d="M107.925 27.165C107.175 27.165 106.55 27.03 106.05 26.76C105.55 26.48 105.17 26.065 104.91 25.515C104.66 24.955 104.515 24.245 104.475 23.385L106.605 23.025C106.625 23.525 106.675 23.945 106.755 24.285C106.845 24.615 106.975 24.865 107.145 25.035C107.325 25.195 107.545 25.275 107.805 25.275C108.125 25.275 108.34 25.175 108.45 24.975C108.57 24.775 108.63 24.545 108.63 24.285C108.63 23.775 108.505 23.35 108.255 23.01C108.015 22.66 107.695 22.31 107.295 21.96L106.035 20.865C105.585 20.485 105.215 20.055 104.925 19.575C104.645 19.095 104.505 18.505 104.505 17.805C104.505 16.805 104.795 16.04 105.375 15.51C105.965 14.97 106.77 14.7 107.79 14.7C108.4 14.7 108.9 14.8 109.29 15C109.68 15.2 109.98 15.47 110.19 15.81C110.41 16.14 110.56 16.505 110.64 16.905C110.73 17.295 110.785 17.685 110.805 18.075L108.69 18.39C108.67 18.02 108.635 17.695 108.585 17.415C108.545 17.135 108.455 16.915 108.315 16.755C108.185 16.595 107.985 16.515 107.715 16.515C107.425 16.515 107.21 16.625 107.07 16.845C106.93 17.055 106.86 17.29 106.86 17.55C106.86 17.98 106.955 18.335 107.145 18.615C107.345 18.885 107.615 19.17 107.955 19.47L109.185 20.55C109.695 20.99 110.13 21.495 110.49 22.065C110.86 22.625 111.045 23.32 111.045 24.15C111.045 24.72 110.915 25.235 110.655 25.695C110.395 26.155 110.03 26.515 109.56 26.775C109.1 27.035 108.555 27.165 107.925 27.165Z" fill="white"/>
<path d="M96.5889 27V14.85H99.7389C100.559 14.85 101.259 14.945 101.839 15.135C102.429 15.315 102.879 15.64 103.189 16.11C103.509 16.58 103.669 17.23 103.669 18.06C103.669 18.56 103.624 19.005 103.534 19.395C103.454 19.775 103.304 20.11 103.084 20.4C102.874 20.68 102.574 20.905 102.184 21.075L103.864 27H101.329L99.9339 21.495H99.0639V27H96.5889ZM99.0639 20.025H99.7839C100.184 20.025 100.499 19.96 100.729 19.83C100.959 19.7 101.119 19.505 101.209 19.245C101.309 18.975 101.359 18.645 101.359 18.255C101.359 17.695 101.254 17.27 101.044 16.98C100.844 16.68 100.464 16.53 99.9039 16.53H99.0639V20.025Z" fill="white"/>
<path d="M90.5117 27V14.85H95.8067V16.56H92.9867V19.785H95.1617V21.51H92.9867V25.32H95.8367V27H90.5117Z" fill="white"/>
<path d="M82.7061 27V14.85H84.4311L87.1311 21.18V14.85H89.1711V27H87.5211L84.8211 20.28V27H82.7061Z" fill="white"/>
<path d="M77.769 27V16.695H75.894V14.85H82.104V16.695H80.259V27H77.769Z" fill="white"/>
<path d="M68.5596 27V14.85H71.7096C72.5296 14.85 73.2296 14.945 73.8096 15.135C74.3996 15.315 74.8496 15.64 75.1596 16.11C75.4796 16.58 75.6396 17.23 75.6396 18.06C75.6396 18.56 75.5946 19.005 75.5046 19.395C75.4246 19.775 75.2746 20.11 75.0546 20.4C74.8446 20.68 74.5446 20.905 74.1546 21.075L75.8346 27H73.2996L71.9046 21.495H71.0346V27H68.5596ZM71.0346 20.025H71.7546C72.1546 20.025 72.4696 19.96 72.6996 19.83C72.9296 19.7 73.0896 19.505 73.1796 19.245C73.2796 18.975 73.3296 18.645 73.3296 18.255C73.3296 17.695 73.2246 17.27 73.0146 16.98C72.8146 16.68 72.4346 16.53 71.8746 16.53H71.0346V20.025Z" fill="white"/>
<path d="M60.3882 27L62.7432 14.85H65.4882L67.8282 27H65.5332L65.0982 24.33H63.1782L62.7132 27H60.3882ZM63.4032 22.815H64.8582L64.1232 17.91L63.4032 22.815Z" fill="white"/>
<path d="M53.915 27V14.85H57.77C58.5 14.85 59.095 14.99 59.555 15.27C60.015 15.54 60.355 15.935 60.575 16.455C60.805 16.975 60.92 17.605 60.92 18.345C60.92 19.215 60.77 19.895 60.47 20.385C60.18 20.875 59.78 21.225 59.27 21.435C58.76 21.635 58.175 21.735 57.515 21.735H56.39V27H53.915ZM56.39 19.995H57.26C57.62 19.995 57.895 19.94 58.085 19.83C58.285 19.71 58.42 19.525 58.49 19.275C58.56 19.025 58.595 18.705 58.595 18.315C58.595 17.945 58.565 17.635 58.505 17.385C58.455 17.135 58.335 16.94 58.145 16.8C57.955 16.66 57.655 16.59 57.245 16.59H56.39V19.995Z" fill="white"/>
</g>
<defs>
<clipPath id="clip0_143_5280">
<rect width="173" height="173" fill="white"/>
</clipPath>
</defs>
</svg>
