<svg width="173" height="173" viewBox="0 0 173 173" fill="none" xmlns="http://www.w3.org/2000/svg">
<g clip-path="url(#clip0_143_6344)">
<path d="M0 0H173V173H0V0Z" fill="#241F20"/>
<path d="M52.2708 121.104C51.9143 120.997 51.5577 120.89 51.219 120.836C51.219 120.836 51.6112 120.961 52.2708 121.104Z" fill="white"/>
<path d="M135.419 85.3948C135.419 82.7385 137.576 80.5813 140.233 80.5813C142.889 80.5813 145.028 82.7385 145.028 85.3948C145.028 88.0511 142.871 90.2083 140.233 90.2083C137.576 90.2083 135.419 88.0511 135.419 85.3948Z" fill="white"/>
<path d="M145.848 92.0623C149.111 92.3653 151.678 95.1108 151.678 98.4446V100.049V100.744V111.78C151.678 112.814 150.84 113.652 149.824 113.652C148.79 113.652 147.952 112.814 147.952 111.78V100.334C147.952 99.9065 147.827 99.3181 147.043 99.3181C146.508 99.3181 146.383 99.8886 146.365 100.263V134.599C146.365 136.079 145.171 137.273 143.691 137.273C142.212 137.273 140.999 136.079 140.999 134.599V114.81C140.999 114.596 140.928 114.026 140.233 114.026C139.555 114.026 139.466 114.596 139.466 114.81V134.599C139.466 136.079 138.272 137.273 136.792 137.273C135.312 137.273 134.118 136.079 134.118 134.599V100.263C134.1 99.9065 133.975 99.3181 133.44 99.3181C132.656 99.3181 132.531 99.9065 132.531 100.334V111.78C132.531 112.814 131.693 113.652 130.659 113.652C129.625 113.652 128.787 112.814 128.787 111.78V100.744V100.049V98.4446C128.787 95.093 131.355 92.3475 134.617 92.0623C134.724 92.0444 134.849 92.0266 134.974 92.0266H140.233H145.492C145.617 92.0266 145.741 92.0444 145.848 92.0623Z" fill="white"/>
<path d="M106.806 87.9262C106.806 85.4125 104.773 83.3623 102.26 83.3623C99.746 83.3623 97.6958 85.4125 97.6958 87.9262C97.6958 90.4399 99.7282 92.4901 102.26 92.4901C104.773 92.4723 106.806 90.4399 106.806 87.9262Z" fill="white"/>
<path d="M93.0784 98.2484L89.2989 110.585C89.2989 110.585 88.6215 112.849 90.5469 113.402C92.4544 113.972 93.0249 111.762 93.0249 111.762L96.0735 101.475C96.0735 101.475 96.2339 100.691 96.84 100.851C97.4284 101.03 97.2144 101.867 97.2144 101.867L91.9018 121.157H96.84V134.973C96.84 136.275 97.9097 137.345 99.2111 137.345C100.53 137.345 101.582 136.275 101.582 134.973V121.157H102.26H102.937V134.973C102.937 136.275 103.989 137.345 105.308 137.345C106.627 137.345 107.679 136.275 107.679 134.973V121.157H112.618L107.305 101.867C107.305 101.867 107.091 101.012 107.679 100.851C108.268 100.673 108.446 101.475 108.446 101.475L111.494 111.762C111.494 111.762 112.083 113.972 113.972 113.402C115.898 112.831 115.22 110.585 115.22 110.585L111.441 98.2484C111.441 98.2484 110.086 94.6829 107.091 94.6829H102.26H97.4284C94.4333 94.6829 93.0784 98.2484 93.0784 98.2484Z" fill="white"/>
<path d="M79.5294 87.9262C79.5294 85.4125 77.497 83.3623 74.9833 83.3623C72.4696 83.3623 70.4194 85.4125 70.4194 87.9262C70.4194 90.4399 72.4518 92.4901 74.9833 92.4901C77.4792 92.4723 79.5294 90.4399 79.5294 87.9262Z" fill="white"/>
<path d="M65.7842 98.2484L62.0047 110.585C62.0047 110.585 61.3273 112.849 63.2527 113.402C65.1602 113.972 65.7307 111.762 65.7307 111.762L68.7793 101.475C68.7793 101.475 68.9397 100.691 69.5459 100.851C70.1342 101.03 69.9202 101.867 69.9202 101.867L64.6076 121.157H69.5459V134.973C69.5459 136.275 70.6155 137.345 71.9169 137.345C73.2362 137.345 74.288 136.275 74.288 134.973V121.157H74.9655H75.6429V134.973C75.6429 136.275 76.6948 137.345 78.014 137.345C79.3333 137.345 80.3851 136.275 80.3851 134.973V121.157H85.3234L80.0107 101.867C80.0107 101.867 79.779 101.012 80.3851 100.851C80.9912 100.691 81.1517 101.475 81.1517 101.475L84.2002 111.762C84.2002 111.762 84.7885 113.972 86.6961 113.402C88.6215 112.831 87.944 110.585 87.944 110.585L84.1646 98.2484C84.1646 98.2484 82.8097 94.6829 79.8146 94.6829H74.9833H70.152C67.1569 94.6829 65.7842 98.2484 65.7842 98.2484Z" fill="white"/>
<path d="M122.12 113.42C124.223 113.42 125.917 111.726 125.917 109.622C125.917 107.519 124.223 105.825 122.12 105.825C120.016 105.825 118.323 107.519 118.323 109.622C118.323 111.726 120.016 113.42 122.12 113.42Z" fill="white"/>
<path d="M113.028 125.204C112.849 125.65 112.689 126.594 113.58 127.005C114.632 127.486 115.203 126.47 115.203 126.47L117.271 119.891C117.271 119.891 117.627 119.446 117.627 119.909V135.384H117.645C117.645 136.453 118.519 137.327 119.588 137.327C120.658 137.327 121.531 136.453 121.531 135.384V129.269C121.531 129.269 121.424 128.413 122.12 128.413C122.815 128.413 122.708 129.269 122.708 129.269V135.384C122.708 136.453 123.582 137.327 124.651 137.327C125.721 137.327 126.595 136.453 126.595 135.384V119.909C126.595 119.446 126.826 119.784 126.826 119.784L128.449 124.295C128.449 124.295 129.144 126.309 129.358 126.398C130.089 126.701 130.927 126.363 131.23 125.614C131.426 125.133 131.354 124.616 131.069 124.223L131.087 124.206C131.034 124.063 128.663 118.251 128.395 117.431C127.539 114.935 125.988 114.953 124.491 114.917C122.993 114.882 122.102 114.917 122.102 114.917C122.102 114.917 121.139 114.882 119.16 114.935C117.181 114.989 116.558 116.005 114.383 121.621C114.079 122.423 113.028 125.043 113.028 125.204Z" fill="white"/>
<path d="M38.8286 85.3948C38.8286 82.7385 36.6715 80.5813 34.0151 80.5813C31.3588 80.5813 29.2195 82.7385 29.2195 85.3948C29.2195 88.0511 31.3766 90.2083 34.0151 90.2083C36.6715 90.2083 38.8286 88.0511 38.8286 85.3948Z" fill="white"/>
<path d="M28.3995 92.0623C25.137 92.3653 22.5698 95.1108 22.5698 98.4446V100.049V100.744V111.78C22.5698 112.814 23.4077 113.652 24.4417 113.652C25.4757 113.652 26.3136 112.814 26.3136 111.78V100.334C26.3136 99.9065 26.4384 99.3181 27.2229 99.3181C27.7577 99.3181 27.8825 99.8886 27.9003 100.263V134.599C27.9003 136.079 29.0948 137.273 30.5745 137.273C32.0542 137.273 33.2486 136.079 33.2486 134.599V114.81C33.2664 114.596 33.3378 114.026 34.0152 114.026C34.6927 114.026 34.7818 114.596 34.7818 114.81V134.599C34.7818 136.079 35.9763 137.273 37.456 137.273C38.9357 137.273 40.1301 136.079 40.1301 134.599V100.263C40.1479 99.9065 40.2727 99.3181 40.8076 99.3181C41.592 99.3181 41.7168 99.9065 41.7168 100.334V111.78C41.7168 112.814 42.5547 113.652 43.5887 113.652C44.6227 113.652 45.4606 112.814 45.4606 111.78V100.744V100.049V98.4446C45.4606 95.093 42.8934 92.3475 39.6309 92.0623C39.524 92.0444 39.3992 92.0266 39.2744 92.0266H34.0152H28.7739C28.6312 92.0266 28.5243 92.0444 28.3995 92.0623Z" fill="white"/>
<path d="M82.882 48.0001V43.1851L80.512 35.8501H82.837L84.142 40.1251L85.357 35.8501H87.607L85.267 43.1851V48.0001H82.882Z" fill="white"/>
<path d="M75.8547 48.0001V37.6951H73.9797V35.8501H80.1897V37.6951H78.3447V48.0001H75.8547Z" fill="white"/>
<path d="M66.1455 48.0001V35.8501H69.2955C70.1155 35.8501 70.8155 35.9451 71.3955 36.1351C71.9855 36.3151 72.4355 36.6401 72.7455 37.1101C73.0655 37.5801 73.2255 38.2301 73.2255 39.0601C73.2255 39.5601 73.1805 40.0051 73.0905 40.3951C73.0105 40.7751 72.8605 41.1101 72.6405 41.4001C72.4305 41.6801 72.1305 41.9051 71.7405 42.0751L73.4205 48.0001H70.8855L69.4905 42.4951H68.6205V48.0001H66.1455ZM68.6205 41.0251H69.3405C69.7405 41.0251 70.0555 40.9601 70.2855 40.8301C70.5155 40.7001 70.6755 40.5051 70.7655 40.2451C70.8655 39.9751 70.9155 39.6451 70.9155 39.2551C70.9155 38.6951 70.8105 38.2701 70.6005 37.9801C70.4005 37.6801 70.0205 37.5301 69.4605 37.5301H68.6205V41.0251Z" fill="white"/>
<path d="M59.5684 48.0001V35.8501H64.8634V37.5601H62.0434V40.7851H64.2184V42.5101H62.0434V46.3201H64.8934V48.0001H59.5684Z" fill="white"/>
<path d="M53.4565 48.0001L51.1465 35.8501H53.2915L54.7315 44.2501L56.0815 35.8501H58.3165L56.0065 48.0001H53.4565Z" fill="white"/>
<path d="M46.5815 48.1651C45.6915 48.1651 44.9865 48.0051 44.4665 47.6851C43.9465 47.3651 43.5715 46.9101 43.3415 46.3201C43.1215 45.7201 43.0115 45.0051 43.0115 44.1751V39.6451C43.0115 38.8151 43.1215 38.1051 43.3415 37.5151C43.5715 36.9251 43.9465 36.4751 44.4665 36.1651C44.9865 35.8551 45.6915 35.7001 46.5815 35.7001C47.4815 35.7001 48.1915 35.8601 48.7115 36.1801C49.2415 36.4901 49.6165 36.9401 49.8365 37.5301C50.0665 38.1101 50.1815 38.8151 50.1815 39.6451V44.1751C50.1815 45.0051 50.0665 45.7201 49.8365 46.3201C49.6165 46.9101 49.2415 47.3651 48.7115 47.6851C48.1915 48.0051 47.4815 48.1651 46.5815 48.1651ZM46.5815 46.3801C46.9015 46.3801 47.1365 46.3101 47.2865 46.1701C47.4365 46.0201 47.5365 45.8251 47.5865 45.5851C47.6365 45.3351 47.6615 45.0701 47.6615 44.7901V39.0451C47.6615 38.7651 47.6365 38.5051 47.5865 38.2651C47.5365 38.0251 47.4365 37.8351 47.2865 37.6951C47.1365 37.5451 46.9015 37.4701 46.5815 37.4701C46.2815 37.4701 46.0565 37.5451 45.9065 37.6951C45.7565 37.8351 45.6565 38.0251 45.6065 38.2651C45.5565 38.5051 45.5315 38.7651 45.5315 39.0451V44.7901C45.5315 45.0701 45.5515 45.3351 45.5915 45.5851C45.6415 45.8251 45.7415 46.0201 45.8915 46.1701C46.0415 46.3101 46.2715 46.3801 46.5815 46.3801Z" fill="white"/>
<path d="M34.915 48.0001V35.8501H38.77C39.5 35.8501 40.095 35.9901 40.555 36.2701C41.015 36.5401 41.355 36.9351 41.575 37.4551C41.805 37.9751 41.92 38.6051 41.92 39.3451C41.92 40.2151 41.77 40.8951 41.47 41.3851C41.18 41.8751 40.78 42.2251 40.27 42.4351C39.76 42.6351 39.175 42.7351 38.515 42.7351H37.39V48.0001H34.915ZM37.39 40.9951H38.26C38.62 40.9951 38.895 40.9401 39.085 40.8301C39.285 40.7101 39.42 40.5251 39.49 40.2751C39.56 40.0251 39.595 39.7051 39.595 39.3151C39.595 38.9451 39.565 38.6351 39.505 38.3851C39.455 38.1351 39.335 37.9401 39.145 37.8001C38.955 37.6601 38.655 37.5901 38.245 37.5901H37.39V40.9951Z" fill="white"/>
<path d="M46.6108 27.1651C45.7208 27.1651 45.0158 27.0051 44.4958 26.6851C43.9758 26.3651 43.6008 25.9101 43.3708 25.3201C43.1508 24.7201 43.0408 24.0051 43.0408 23.1751V18.6451C43.0408 17.8151 43.1508 17.1051 43.3708 16.5151C43.6008 15.9251 43.9758 15.4751 44.4958 15.1651C45.0158 14.8551 45.7208 14.7001 46.6108 14.7001C47.5108 14.7001 48.2208 14.8601 48.7408 15.1801C49.2708 15.4901 49.6458 15.9401 49.8658 16.5301C50.0958 17.1101 50.2108 17.8151 50.2108 18.6451V23.1751C50.2108 24.0051 50.0958 24.7201 49.8658 25.3201C49.6458 25.9101 49.2708 26.3651 48.7408 26.6851C48.2208 27.0051 47.5108 27.1651 46.6108 27.1651ZM46.6108 25.3801C46.9308 25.3801 47.1658 25.3101 47.3158 25.1701C47.4658 25.0201 47.5658 24.8251 47.6158 24.5851C47.6658 24.3351 47.6908 24.0701 47.6908 23.7901V18.0451C47.6908 17.7651 47.6658 17.5051 47.6158 17.2651C47.5658 17.0251 47.4658 16.8351 47.3158 16.6951C47.1658 16.5451 46.9308 16.4701 46.6108 16.4701C46.3108 16.4701 46.0858 16.5451 45.9358 16.6951C45.7858 16.8351 45.6858 17.0251 45.6358 17.2651C45.5858 17.5051 45.5608 17.7651 45.5608 18.0451V23.7901C45.5608 24.0701 45.5808 24.3351 45.6208 24.5851C45.6708 24.8251 45.7708 25.0201 45.9208 25.1701C46.0708 25.3101 46.3008 25.3801 46.6108 25.3801Z" fill="white"/>
<path d="M34.915 27.0001V14.8501H36.64L39.34 21.1801V14.8501H41.38V27.0001H39.73L37.03 20.2801V27.0001H34.915Z" fill="white"/>
<path d="M24.21 113.723L19.9314 136.364" stroke="white" stroke-width="1.148" stroke-miterlimit="10" stroke-linecap="round"/>
<path d="M47.7603 111.441C47.5107 111.049 47.0828 110.799 46.5837 110.799C45.8171 110.799 45.1931 111.423 45.1931 112.172C45.1931 112.386 45.3357 112.778 45.3357 112.778L49.1509 119.695C49.1509 119.695 49.3826 120.176 49.3826 120.604V135.455C49.3826 136.489 50.2205 137.327 51.2545 137.327C52.2885 137.327 53.1086 136.489 53.1086 135.455V129.589C53.1086 129.589 53.0016 128.769 53.6791 128.769C54.3387 128.769 54.2496 129.589 54.2496 129.589V135.455C54.2496 136.489 55.0875 137.327 56.1215 137.327C57.1555 137.327 57.9934 136.489 57.9934 135.455V120.604C57.9934 120.176 58.2252 119.695 58.2252 119.695L61.755 113.313C61.755 113.313 62.1829 112.404 62.1829 112.172C62.1829 111.405 61.5589 110.799 60.7923 110.799C60.2932 110.799 59.8653 111.066 59.6157 111.441H59.5979C59.4909 111.53 57.7082 114.686 57.1377 115.274C56.5137 115.898 55.961 115.826 55.961 115.826H53.6613H51.3615C51.3615 115.826 50.8088 115.898 50.1849 115.274C49.6322 114.668 47.8851 111.512 47.7603 111.441Z" fill="white"/>
<path d="M53.697 113.42C55.8006 113.42 57.4943 111.726 57.4943 109.622C57.4943 107.519 55.8006 105.825 53.697 105.825C51.5933 105.825 49.8997 107.519 49.8997 109.622C49.8997 111.726 51.5933 113.42 53.697 113.42Z" fill="white"/>
<path d="M53.697 118.75L57.9935 121.87L60.0258 129.376H53.697H47.3682L49.4183 121.87L53.697 118.75Z" fill="white"/>
<path d="M19.771 48.01V21.4646L14.8328 23.1582V18.4338C15.9559 17.9881 17.1504 17.4177 18.4518 16.758C19.7354 16.0984 20.6624 15.4388 21.2329 14.8148H26.1355V48.01H19.771Z" fill="white"/>
</g>
<defs>
<clipPath id="clip0_143_6344">
<rect width="173" height="173" fill="white"/>
</clipPath>
</defs>
</svg>
