<svg width="173" height="173" viewBox="0 0 173 173" fill="none" xmlns="http://www.w3.org/2000/svg">
<g clip-path="url(#clip0_143_5277)">
<path d="M0 0H173V173H0V0Z" fill="#4C9F38"/>
<path d="M52.2708 121.104C51.9143 120.997 51.5577 120.89 51.219 120.836C51.219 120.836 51.6112 120.961 52.2708 121.104Z" fill="white"/>
<path d="M21.8567 48.5448C15.8845 48.5448 12.8894 45.2289 12.8894 38.597V37.4204H19.2361V38.4544C19.2539 40.148 19.45 41.3781 19.8244 42.1269C20.1988 42.8756 20.894 43.25 21.928 43.25C22.4807 43.25 22.9264 43.143 23.2651 42.9469C23.6039 42.733 23.8713 42.4121 24.0317 41.9664C24.1922 41.5207 24.317 41.0394 24.3883 40.5045C24.4418 39.9697 24.4774 39.2923 24.4774 38.4722C24.4774 36.7072 24.21 35.4058 23.693 34.5501C23.176 33.6944 22.2133 33.2487 20.8227 33.1952H19.7531V28.3817H20.6979C22.1242 28.3639 23.1047 27.9717 23.6573 27.2407C24.1922 26.5098 24.4774 25.2975 24.4774 23.6039C24.4774 22.1955 24.2813 21.1615 23.8891 20.484C23.4969 19.8066 22.8016 19.4679 21.8211 19.4679C20.8406 19.4679 20.1631 19.8422 19.8066 20.591C19.45 21.3398 19.2717 22.4273 19.2539 23.8535V25.2975H12.8894V23.4969C12.8894 20.6088 13.6738 18.3625 15.2248 16.7581C16.7758 15.1536 18.9686 14.3691 21.7676 14.3691C24.62 14.3691 26.8307 15.1357 28.3817 16.6689C29.9327 18.2021 30.7171 20.4127 30.7171 23.3008C30.7171 25.1906 30.3249 26.7594 29.5405 28.0608C28.7561 29.3622 27.7399 30.1645 26.4741 30.521C29.3087 31.555 30.7171 34.1579 30.7171 38.3652C30.7171 39.9341 30.5567 41.3068 30.2358 42.5369C29.9149 43.7492 29.3979 44.8188 28.7204 45.7459C28.0251 46.6729 27.1159 47.3682 25.9571 47.8674C24.7983 48.3131 23.4256 48.5448 21.8567 48.5448Z" fill="white"/>
<path d="M144.066 111.316C144.066 106.431 140.928 102.456 136.168 102.456C133.797 102.456 130.927 105.059 129.376 106.663C127.825 105.059 125.15 102.456 122.761 102.456C118.001 102.456 114.686 106.414 114.686 111.316C114.686 113.759 115.648 115.969 117.199 117.574L129.376 129.786L141.534 117.592L141.516 117.574C143.103 115.987 144.066 113.759 144.066 111.316Z" fill="white"/>
<path d="M92.205 149.717C92.1694 149.717 92.1159 149.717 92.0802 149.717C91.1532 149.664 90.3866 148.968 90.2261 148.059L84.0399 112.029L74.6626 129.411C74.2525 130.178 73.3968 130.588 72.5589 130.427C71.7032 130.285 71.0435 129.59 70.9366 128.752L66.961 100.94L59.6873 117.288C59.3664 118.002 58.6533 118.483 57.8689 118.483H29.5406C28.4353 118.483 27.5439 117.592 27.5439 116.486C27.5439 115.381 28.4353 114.49 29.5406 114.49H56.5318L66.1053 92.9893C66.4618 92.1692 67.3175 91.7057 68.2089 91.8305C69.0825 91.9553 69.7956 92.6506 69.9204 93.5241L74.0208 122.209L83.2555 105.076C83.6655 104.328 84.5034 103.918 85.3413 104.042C86.1792 104.185 86.8389 104.845 86.9815 105.683L92.7042 139.056L113.58 69.6885C113.812 68.9041 114.507 68.3336 115.345 68.2623C116.165 68.2088 116.95 68.6367 117.306 69.3854L128.288 92.1692C128.77 93.1676 128.342 94.362 127.361 94.8434C126.363 95.3247 125.168 94.9147 124.687 93.9164L115.934 75.7678L94.1126 148.291C93.863 149.129 93.0786 149.717 92.205 149.717Z" fill="white"/>
<path d="M138.957 49.18C138.137 49.18 137.487 49.01 137.007 48.67C136.527 48.32 136.182 47.83 135.972 47.2C135.772 46.56 135.672 45.82 135.672 44.98V40.915C135.672 40.045 135.777 39.295 135.987 38.665C136.197 38.035 136.562 37.55 137.082 37.21C137.612 36.87 138.327 36.7 139.227 36.7C140.097 36.7 140.782 36.845 141.282 37.135C141.792 37.425 142.157 37.835 142.377 38.365C142.597 38.895 142.707 39.525 142.707 40.255V40.96H140.292V40.105C140.292 39.785 140.272 39.505 140.232 39.265C140.192 39.015 140.097 38.82 139.947 38.68C139.807 38.54 139.577 38.47 139.257 38.47C138.927 38.47 138.687 38.555 138.537 38.725C138.387 38.895 138.292 39.115 138.252 39.385C138.212 39.645 138.192 39.925 138.192 40.225V45.61C138.192 45.95 138.222 46.255 138.282 46.525C138.342 46.795 138.452 47.005 138.612 47.155C138.782 47.305 139.022 47.38 139.332 47.38C139.642 47.38 139.882 47.3 140.052 47.14C140.222 46.98 140.337 46.765 140.397 46.495C140.467 46.215 140.502 45.9 140.502 45.55V44.26H139.317V42.76H142.737V49H141.117L140.967 47.905C140.807 48.275 140.567 48.58 140.247 48.82C139.927 49.06 139.497 49.18 138.957 49.18Z" fill="white"/>
<path d="M127.547 49V36.85H129.272L131.972 43.18V36.85H134.012V49H132.362L129.662 42.28V49H127.547Z" fill="white"/>
<path d="M123.226 49V36.85H125.686V49H123.226Z" fill="white"/>
<path d="M116.619 49V36.85H121.914V38.56H119.094V41.785H121.269V43.51H119.094V47.32H121.944V49H116.619Z" fill="white"/>
<path d="M108.006 49V36.85H111.081C111.611 36.85 112.101 36.895 112.551 36.985C113.001 37.075 113.396 37.235 113.736 37.465C114.086 37.695 114.351 38.015 114.531 38.425C114.721 38.825 114.816 39.35 114.816 40C114.816 40.49 114.746 40.91 114.606 41.26C114.466 41.6 114.266 41.87 114.006 42.07C113.746 42.27 113.426 42.405 113.046 42.475C113.516 42.545 113.911 42.705 114.231 42.955C114.551 43.205 114.791 43.535 114.951 43.945C115.111 44.355 115.191 44.85 115.191 45.43C115.191 46.04 115.111 46.57 114.951 47.02C114.801 47.47 114.576 47.84 114.276 48.13C113.976 48.42 113.606 48.64 113.166 48.79C112.726 48.93 112.216 49 111.636 49H108.006ZM110.481 47.26H111.171C111.791 47.26 112.216 47.105 112.446 46.795C112.686 46.485 112.806 46.02 112.806 45.4C112.806 44.92 112.751 44.54 112.641 44.26C112.531 43.97 112.351 43.76 112.101 43.63C111.861 43.49 111.536 43.42 111.126 43.42H110.481V47.26ZM110.481 41.755H111.096C111.526 41.755 111.851 41.695 112.071 41.575C112.291 41.445 112.441 41.255 112.521 41.005C112.611 40.745 112.656 40.43 112.656 40.06C112.656 39.69 112.591 39.395 112.461 39.175C112.341 38.945 112.151 38.78 111.891 38.68C111.641 38.58 111.321 38.53 110.931 38.53H110.481V41.755Z" fill="white"/>
<path d="M102.796 45.34V43.84H106.576V45.34H102.796Z" fill="white"/>
<path d="M97.2686 49V36.85H99.7436V47.32H102.594V49H97.2686Z" fill="white"/>
<path d="M90.7793 49V36.85H93.2543V47.32H96.1043V49H90.7793Z" fill="white"/>
<path d="M84.2021 49V36.85H89.4971V38.56H86.6771V41.785H88.8521V43.51H86.6771V47.32H89.5271V49H84.2021Z" fill="white"/>
<path d="M74.7356 49L73.1606 36.85H75.2606L76.1006 44.275L77.1656 36.865H78.8306L79.9406 44.26L80.7806 36.85H82.8506L81.2906 49H79.1906L78.0056 41.305L76.8806 49H74.7356Z" fill="white"/>
<path d="M61.292 49V36.85H64.262C65.292 36.85 66.092 36.985 66.662 37.255C67.242 37.515 67.652 37.93 67.892 38.5C68.132 39.06 68.252 39.78 68.252 40.66V45.085C68.252 45.985 68.132 46.725 67.892 47.305C67.652 47.885 67.247 48.315 66.677 48.595C66.117 48.865 65.332 49 64.322 49H61.292ZM63.767 47.275H64.292C64.752 47.275 65.077 47.205 65.267 47.065C65.467 46.915 65.592 46.7 65.642 46.42C65.692 46.13 65.717 45.775 65.717 45.355V40.345C65.717 39.925 65.682 39.59 65.612 39.34C65.552 39.08 65.422 38.89 65.222 38.77C65.032 38.65 64.717 38.59 64.277 38.59H63.767V47.275Z" fill="white"/>
<path d="M52.9863 49V36.85H54.7113L57.4113 43.18V36.85H59.4513V49H57.8013L55.1013 42.28V49H52.9863Z" fill="white"/>
<path d="M44.3149 49L46.6699 36.85H49.4149L51.7549 49H49.4599L49.0249 46.33H47.1049L46.6399 49H44.3149ZM47.3299 44.815H48.7849L48.0499 39.91L47.3299 44.815Z" fill="white"/>
<path d="M118.802 28V15.85H121.277V20.845H123.422V15.85H125.897V28H123.422V22.615H121.277V28H118.802Z" fill="white"/>
<path d="M113.335 28V17.695H111.46V15.85H117.67V17.695H115.825V28H113.335Z" fill="white"/>
<path d="M106.775 28V15.85H109.25V26.32H112.1V28H106.775Z" fill="white"/>
<path d="M98.104 28L100.459 15.85H103.204L105.544 28H103.249L102.814 25.33H100.894L100.429 28H98.104ZM101.119 23.815H102.574L101.839 18.91L101.119 23.815Z" fill="white"/>
<path d="M92.127 28V15.85H97.422V17.56H94.602V20.785H96.777V22.51H94.602V26.32H97.452V28H92.127Z" fill="white"/>
<path d="M83.1626 28V15.85H85.6376V20.845H87.7826V15.85H90.2576V28H87.7826V22.615H85.6376V28H83.1626Z" fill="white"/>
<path d="M70.7842 28V15.85H73.7542C74.7842 15.85 75.5842 15.985 76.1542 16.255C76.7342 16.515 77.1442 16.93 77.3842 17.5C77.6242 18.06 77.7442 18.78 77.7442 19.66V24.085C77.7442 24.985 77.6242 25.725 77.3842 26.305C77.1442 26.885 76.7392 27.315 76.1692 27.595C75.6092 27.865 74.8242 28 73.8142 28H70.7842ZM73.2592 26.275H73.7842C74.2442 26.275 74.5692 26.205 74.7592 26.065C74.9592 25.915 75.0842 25.7 75.1342 25.42C75.1842 25.13 75.2092 24.775 75.2092 24.355V19.345C75.2092 18.925 75.1742 18.59 75.1042 18.34C75.0442 18.08 74.9142 17.89 74.7142 17.77C74.5242 17.65 74.2092 17.59 73.7692 17.59H73.2592V26.275Z" fill="white"/>
<path d="M65.5314 28.165C64.6414 28.165 63.9364 28.005 63.4164 27.685C62.8964 27.365 62.5214 26.91 62.2914 26.32C62.0714 25.72 61.9614 25.005 61.9614 24.175V19.645C61.9614 18.815 62.0714 18.105 62.2914 17.515C62.5214 16.925 62.8964 16.475 63.4164 16.165C63.9364 15.855 64.6414 15.7 65.5314 15.7C66.4314 15.7 67.1414 15.86 67.6614 16.18C68.1914 16.49 68.5664 16.94 68.7864 17.53C69.0164 18.11 69.1314 18.815 69.1314 19.645V24.175C69.1314 25.005 69.0164 25.72 68.7864 26.32C68.5664 26.91 68.1914 27.365 67.6614 27.685C67.1414 28.005 66.4314 28.165 65.5314 28.165ZM65.5314 26.38C65.8514 26.38 66.0864 26.31 66.2364 26.17C66.3864 26.02 66.4864 25.825 66.5364 25.585C66.5864 25.335 66.6114 25.07 66.6114 24.79V19.045C66.6114 18.765 66.5864 18.505 66.5364 18.265C66.4864 18.025 66.3864 17.835 66.2364 17.695C66.0864 17.545 65.8514 17.47 65.5314 17.47C65.2314 17.47 65.0064 17.545 64.8564 17.695C64.7064 17.835 64.6064 18.025 64.5564 18.265C64.5064 18.505 64.4814 18.765 64.4814 19.045V24.79C64.4814 25.07 64.5014 25.335 64.5414 25.585C64.5914 25.825 64.6914 26.02 64.8414 26.17C64.9914 26.31 65.2214 26.38 65.5314 26.38Z" fill="white"/>
<path d="M56.8888 28.165C55.9988 28.165 55.2938 28.005 54.7738 27.685C54.2538 27.365 53.8788 26.91 53.6488 26.32C53.4288 25.72 53.3188 25.005 53.3188 24.175V19.645C53.3188 18.815 53.4288 18.105 53.6488 17.515C53.8788 16.925 54.2538 16.475 54.7738 16.165C55.2938 15.855 55.9988 15.7 56.8888 15.7C57.7888 15.7 58.4988 15.86 59.0188 16.18C59.5488 16.49 59.9238 16.94 60.1438 17.53C60.3738 18.11 60.4888 18.815 60.4888 19.645V24.175C60.4888 25.005 60.3738 25.72 60.1438 26.32C59.9238 26.91 59.5488 27.365 59.0188 27.685C58.4988 28.005 57.7888 28.165 56.8888 28.165ZM56.8888 26.38C57.2088 26.38 57.4438 26.31 57.5938 26.17C57.7438 26.02 57.8438 25.825 57.8938 25.585C57.9438 25.335 57.9688 25.07 57.9688 24.79V19.045C57.9688 18.765 57.9438 18.505 57.8938 18.265C57.8438 18.025 57.7438 17.835 57.5938 17.695C57.4438 17.545 57.2088 17.47 56.8888 17.47C56.5888 17.47 56.3638 17.545 56.2138 17.695C56.0638 17.835 55.9638 18.025 55.9138 18.265C55.8638 18.505 55.8388 18.765 55.8388 19.045V24.79C55.8388 25.07 55.8588 25.335 55.8988 25.585C55.9488 25.825 56.0488 26.02 56.1988 26.17C56.3488 26.31 56.5788 26.38 56.8888 26.38Z" fill="white"/>
<path d="M48.0199 28.18C47.1999 28.18 46.5499 28.01 46.0699 27.67C45.5899 27.32 45.2449 26.83 45.0349 26.2C44.8349 25.56 44.7349 24.82 44.7349 23.98V19.915C44.7349 19.045 44.8399 18.295 45.0499 17.665C45.2599 17.035 45.6249 16.55 46.1449 16.21C46.6749 15.87 47.3899 15.7 48.2899 15.7C49.1599 15.7 49.8449 15.845 50.3449 16.135C50.8549 16.425 51.2199 16.835 51.4399 17.365C51.6599 17.895 51.7699 18.525 51.7699 19.255V19.96H49.3549V19.105C49.3549 18.785 49.3349 18.505 49.2949 18.265C49.2549 18.015 49.1599 17.82 49.0099 17.68C48.8699 17.54 48.6399 17.47 48.3199 17.47C47.9899 17.47 47.7499 17.555 47.5999 17.725C47.4499 17.895 47.3549 18.115 47.3149 18.385C47.2749 18.645 47.2549 18.925 47.2549 19.225V24.61C47.2549 24.95 47.2849 25.255 47.3449 25.525C47.4049 25.795 47.5149 26.005 47.6749 26.155C47.8449 26.305 48.0849 26.38 48.3949 26.38C48.7049 26.38 48.9449 26.3 49.1149 26.14C49.2849 25.98 49.3999 25.765 49.4599 25.495C49.5299 25.215 49.5649 24.9 49.5649 24.55V23.26H48.3799V21.76H51.7999V28H50.1799L50.0299 26.905C49.8699 27.275 49.6299 27.58 49.3099 27.82C48.9899 28.06 48.5599 28.18 48.0199 28.18Z" fill="white"/>
</g>
<defs>
<clipPath id="clip0_143_5277">
<rect width="173" height="173" fill="white"/>
</clipPath>
</defs>
</svg>
