<svg width="173" height="173" viewBox="0 0 173 173" fill="none" xmlns="http://www.w3.org/2000/svg">
<g clip-path="url(#clip0_143_5275)">
<path d="M0 0H173V173H0V0Z" fill="#C5192D"/>
<path d="M22.4273 48.01V40.1658H12.4795V34.9779L21.0011 14.8148H28.2035V35.2988H31.5016V40.1658H28.2035V48.01H22.4273ZM17.5426 35.2988H22.4273V21.3398L17.5426 35.2988Z" fill="white"/>
<path d="M75.0903 92.4722L43.9097 74.4662V132.692L75.0903 142.105V92.4722Z" fill="white"/>
<path d="M78.5134 92.5792V142.122L109.89 132.692V74.4662L78.5134 92.5792Z" fill="white"/>
<path d="M126.969 131.658L130.659 144.547L134.35 131.658V79.8503H133.44H132.513H131.551H129.714H128.805H127.896H126.969V131.658Z" fill="white"/>
<path d="M116.575 76.9621L113.242 74.3236V134.26L78.6024 145.456H76.9979H76.6771H75.0904L40.6116 135.829V74.3236L37.26 76.9621V138.165L74.9299 148.594H76.6771H76.9979H78.7629L113.509 137.558L116.575 136.667V76.9621Z" fill="white"/>
<path d="M134.35 73.0044C134.35 70.972 132.692 69.314 130.659 69.314C128.627 69.314 126.969 70.9542 126.969 73.0044V76.9799H134.35V73.0044Z" fill="white"/>
<path d="M104.036 48V35.85H105.761L108.461 42.18V35.85H110.501V48H108.851L106.151 41.28V48H104.036Z" fill="white"/>
<path d="M98.7836 48.165C97.8936 48.165 97.1886 48.005 96.6686 47.685C96.1486 47.365 95.7736 46.91 95.5436 46.32C95.3236 45.72 95.2136 45.005 95.2136 44.175V39.645C95.2136 38.815 95.3236 38.105 95.5436 37.515C95.7736 36.925 96.1486 36.475 96.6686 36.165C97.1886 35.855 97.8936 35.7 98.7836 35.7C99.6836 35.7 100.394 35.86 100.914 36.18C101.444 36.49 101.819 36.94 102.039 37.53C102.269 38.11 102.384 38.815 102.384 39.645V44.175C102.384 45.005 102.269 45.72 102.039 46.32C101.819 46.91 101.444 47.365 100.914 47.685C100.394 48.005 99.6836 48.165 98.7836 48.165ZM98.7836 46.38C99.1036 46.38 99.3386 46.31 99.4886 46.17C99.6386 46.02 99.7386 45.825 99.7886 45.585C99.8386 45.335 99.8636 45.07 99.8636 44.79V39.045C99.8636 38.765 99.8386 38.505 99.7886 38.265C99.7386 38.025 99.6386 37.835 99.4886 37.695C99.3386 37.545 99.1036 37.47 98.7836 37.47C98.4836 37.47 98.2586 37.545 98.1086 37.695C97.9586 37.835 97.8586 38.025 97.8086 38.265C97.7586 38.505 97.7336 38.765 97.7336 39.045V44.79C97.7336 45.07 97.7536 45.335 97.7936 45.585C97.8436 45.825 97.9436 46.02 98.0936 46.17C98.2436 46.31 98.4736 46.38 98.7836 46.38Z" fill="white"/>
<path d="M91.073 48V35.85H93.533V48H91.073Z" fill="white"/>
<path d="M85.606 48V37.695H83.731V35.85H89.941V37.695H88.096V48H85.606Z" fill="white"/>
<path d="M76.4539 48L78.8089 35.85H81.5539L83.8939 48H81.5989L81.1639 45.33H79.2439L78.7789 48H76.4539ZM79.4689 43.815H80.9239L80.1889 38.91L79.4689 43.815Z" fill="white"/>
<path d="M72.1378 48.165C71.2378 48.165 70.5228 47.995 69.9928 47.655C69.4728 47.315 69.1078 46.845 68.8978 46.245C68.6878 45.635 68.5828 44.93 68.5828 44.13V39.765C68.5828 38.925 68.6878 38.205 68.8978 37.605C69.1078 36.995 69.4728 36.525 69.9928 36.195C70.5228 35.865 71.2378 35.7 72.1378 35.7C73.0078 35.7 73.6878 35.845 74.1778 36.135C74.6778 36.425 75.0278 36.835 75.2278 37.365C75.4378 37.895 75.5428 38.51 75.5428 39.21V40.23H73.1428V39.09C73.1428 38.81 73.1278 38.55 73.0978 38.31C73.0678 38.06 72.9828 37.86 72.8428 37.71C72.7128 37.55 72.4828 37.47 72.1528 37.47C71.8228 37.47 71.5828 37.55 71.4328 37.71C71.2828 37.87 71.1878 38.08 71.1478 38.34C71.1078 38.59 71.0878 38.87 71.0878 39.18V44.7C71.0878 45.04 71.1128 45.34 71.1628 45.6C71.2228 45.85 71.3278 46.045 71.4778 46.185C71.6378 46.315 71.8628 46.38 72.1528 46.38C72.4728 46.38 72.6978 46.305 72.8278 46.155C72.9678 45.995 73.0528 45.785 73.0828 45.525C73.1228 45.265 73.1428 44.99 73.1428 44.7V43.515H75.5428V44.52C75.5428 45.23 75.4428 45.86 75.2428 46.41C75.0428 46.95 74.6978 47.38 74.2078 47.7C73.7178 48.01 73.0278 48.165 72.1378 48.165Z" fill="white"/>
<path d="M63.5108 48.165C62.5908 48.165 61.8758 48.01 61.3658 47.7C60.8558 47.38 60.4958 46.925 60.2858 46.335C60.0858 45.735 59.9858 45.01 59.9858 44.16V35.85H62.4308V44.505C62.4308 44.805 62.4508 45.1 62.4908 45.39C62.5408 45.68 62.6408 45.915 62.7908 46.095C62.9508 46.275 63.1908 46.365 63.5108 46.365C63.8408 46.365 64.0808 46.275 64.2308 46.095C64.3908 45.915 64.4908 45.68 64.5308 45.39C64.5708 45.1 64.5908 44.805 64.5908 44.505V35.85H67.0358V44.16C67.0358 45.01 66.9308 45.735 66.7208 46.335C66.5208 46.925 66.1658 47.38 65.6558 47.7C65.1458 48.01 64.4308 48.165 63.5108 48.165Z" fill="white"/>
<path d="M51.4922 48V35.85H54.4622C55.4922 35.85 56.2922 35.985 56.8622 36.255C57.4422 36.515 57.8522 36.93 58.0922 37.5C58.3322 38.06 58.4522 38.78 58.4522 39.66V44.085C58.4522 44.985 58.3322 45.725 58.0922 46.305C57.8522 46.885 57.4472 47.315 56.8772 47.595C56.3172 47.865 55.5322 48 54.5222 48H51.4922ZM53.9672 46.275H54.4922C54.9522 46.275 55.2772 46.205 55.4672 46.065C55.6672 45.915 55.7922 45.7 55.8422 45.42C55.8922 45.13 55.9172 44.775 55.9172 44.355V39.345C55.9172 38.925 55.8822 38.59 55.8122 38.34C55.7522 38.08 55.6222 37.89 55.4222 37.77C55.2322 37.65 54.9172 37.59 54.4772 37.59H53.9672V46.275Z" fill="white"/>
<path d="M44.915 48V35.85H50.21V37.56H47.39V40.785H49.565V42.51H47.39V46.32H50.24V48H44.915Z" fill="white"/>
<path d="M89.2052 27V22.185L86.8352 14.85H89.1602L90.4652 19.125L91.6802 14.85H93.9302L91.5902 22.185V27H89.2052Z" fill="white"/>
<path d="M82.1782 27V16.695H80.3032V14.85H86.5132V16.695H84.6682V27H82.1782Z" fill="white"/>
<path d="M76.7175 27V14.85H79.1775V27H76.7175Z" fill="white"/>
<path d="M70.1982 27V14.85H72.6732V25.32H75.5232V27H70.1982Z" fill="white"/>
<path d="M61.5271 27L63.8821 14.85H66.6271L68.9671 27H66.6721L66.2371 24.33H64.3171L63.8521 27H61.5271ZM64.5421 22.815H65.9971L65.2621 17.91L64.5421 22.815Z" fill="white"/>
<path d="M56.9776 27.165C56.0576 27.165 55.3426 27.01 54.8326 26.7C54.3226 26.38 53.9626 25.925 53.7526 25.335C53.5526 24.735 53.4526 24.01 53.4526 23.16V14.85H55.8976V23.505C55.8976 23.805 55.9176 24.1 55.9576 24.39C56.0076 24.68 56.1076 24.915 56.2576 25.095C56.4176 25.275 56.6576 25.365 56.9776 25.365C57.3076 25.365 57.5476 25.275 57.6976 25.095C57.8576 24.915 57.9576 24.68 57.9976 24.39C58.0376 24.1 58.0576 23.805 58.0576 23.505V14.85H60.5026V23.16C60.5026 24.01 60.3976 24.735 60.1876 25.335C59.9876 25.925 59.6326 26.38 59.1226 26.7C58.6126 27.01 57.8976 27.165 56.9776 27.165Z" fill="white"/>
<path d="M50.9901 29.4C50.7601 29.29 50.4951 29.12 50.1951 28.89C49.8951 28.66 49.6001 28.39 49.3101 28.08C49.0201 27.78 48.7751 27.47 48.5751 27.15C48.5351 27.16 48.4901 27.165 48.4401 27.165C48.4001 27.165 48.3551 27.165 48.3051 27.165C47.4151 27.165 46.7101 27.005 46.1901 26.685C45.6701 26.365 45.2951 25.91 45.0651 25.32C44.8451 24.72 44.7351 24.005 44.7351 23.175V18.645C44.7351 17.815 44.8451 17.105 45.0651 16.515C45.2951 15.925 45.6701 15.475 46.1901 15.165C46.7101 14.855 47.4151 14.7 48.3051 14.7C49.2051 14.7 49.9151 14.86 50.4351 15.18C50.9651 15.49 51.3401 15.94 51.5601 16.53C51.7901 17.11 51.9051 17.815 51.9051 18.645V23.175C51.9051 23.755 51.8501 24.28 51.7401 24.75C51.6401 25.21 51.4701 25.61 51.2301 25.95C50.9901 26.29 50.6701 26.56 50.2701 26.76C50.4001 26.9 50.5351 27.04 50.6751 27.18C50.8151 27.32 50.9551 27.45 51.0951 27.57C51.2351 27.69 51.3701 27.79 51.5001 27.87L50.9901 29.4ZM48.3051 25.38C48.6251 25.38 48.8601 25.31 49.0101 25.17C49.1601 25.02 49.2601 24.825 49.3101 24.585C49.3601 24.335 49.3851 24.07 49.3851 23.79V18.045C49.3851 17.765 49.3601 17.505 49.3101 17.265C49.2601 17.025 49.1601 16.835 49.0101 16.695C48.8601 16.545 48.6251 16.47 48.3051 16.47C47.9951 16.47 47.7651 16.545 47.6151 16.695C47.4651 16.835 47.3651 17.025 47.3151 17.265C47.2751 17.505 47.2551 17.765 47.2551 18.045V23.79C47.2551 24.07 47.2751 24.335 47.3151 24.585C47.3651 24.825 47.4651 25.02 47.6151 25.17C47.7651 25.31 47.9951 25.38 48.3051 25.38Z" fill="white"/>
</g>
<defs>
<clipPath id="clip0_143_5275">
<rect width="173" height="173" fill="white"/>
</clipPath>
</defs>
</svg>
