<svg width="173" height="173" viewBox="0 0 173 173" fill="none" xmlns="http://www.w3.org/2000/svg">
<g clip-path="url(#clip0_143_6265)">
<path d="M0 0H173V173H0V0Z" fill="#241F20"/>
<path d="M21.839 48.5448C20.4663 48.5448 19.2719 48.3844 18.2557 48.0635C17.2395 47.7426 16.4194 47.2969 15.7776 46.7264C15.1358 46.1737 14.6366 45.4428 14.2623 44.5692C13.8879 43.6957 13.6205 42.7508 13.4778 41.7703C13.3352 40.7898 13.2639 39.631 13.2639 38.3296H19.4323C19.4323 39.2922 19.468 40.0767 19.5393 40.7006C19.6106 41.3246 19.7354 41.8773 19.9136 42.3764C20.0919 42.8756 20.3772 43.25 20.7516 43.4818C21.0903 43.6957 21.5538 43.8027 22.0886 43.8027H22.1956C22.4987 43.7848 22.7839 43.7492 23.0335 43.66C23.2831 43.5887 23.497 43.4461 23.6575 43.2322C23.8357 43.0361 23.9784 42.84 24.1032 42.626C24.228 42.4299 24.3349 42.1447 24.4062 41.7703C24.4775 41.3959 24.531 41.075 24.5845 40.7719C24.638 40.4867 24.6558 40.0767 24.6915 39.5418C24.7093 39.007 24.7271 38.5613 24.7271 38.1869C24.7271 37.8126 24.745 37.3134 24.745 36.6537C24.745 36.0298 24.7271 35.4771 24.7093 35.0136C24.6736 34.5501 24.638 34.0687 24.5845 33.5874C24.531 33.106 24.4241 32.696 24.2993 32.3751C24.1745 32.0542 23.9962 31.7511 23.8001 31.4837C23.604 31.2163 23.3544 31.0202 23.0335 30.8776C22.7126 30.735 22.3739 30.6815 21.946 30.6815C20.4485 30.6815 19.5036 31.662 19.1114 33.623H13.6026L14.0305 14.8148H29.3802V20.3236H19.2719L18.9153 27.5616C19.2719 27.1516 19.8423 26.795 20.5911 26.5098C21.3399 26.2245 22.1956 26.0284 23.1226 25.975C23.3544 25.9571 23.5862 25.9571 23.8001 25.9571C25.9751 25.9571 27.6509 26.7772 28.8275 28.4352C30.1111 30.2714 30.7529 32.8921 30.7529 36.315C30.7529 37.563 30.6994 38.6861 30.6103 39.6666C30.5211 40.6472 30.3607 41.6277 30.1289 42.5725C29.8972 43.5352 29.5584 44.3553 29.1306 45.0506C28.7027 45.7459 28.1679 46.3698 27.5261 46.9047C26.8843 47.4395 26.082 47.8495 25.1372 48.1348C24.1566 48.42 23.0692 48.5448 21.839 48.5448Z" fill="white"/>
<path d="M79.8148 123.065C68.3337 123.065 58.992 113.723 58.992 102.242C58.992 90.7611 68.3337 81.4194 79.8148 81.4194C91.2958 81.4194 100.638 90.7611 100.638 102.242C100.638 113.723 91.2958 123.065 79.8148 123.065ZM119.802 62.7003H98.213C98.0703 62.7003 97.9455 62.8251 97.9455 62.9856V70.1701C97.9455 70.3306 98.0703 70.4375 98.213 70.4375H106.806L97.2503 79.9932C92.4368 76.2137 86.3932 73.9496 79.8148 73.9496C64.2155 73.9496 51.5222 86.6429 51.5222 102.242C51.5222 116.611 62.2901 128.485 76.1601 130.285V138.557H67.6385C67.478 138.557 67.3532 138.682 67.3532 138.825V146.526C67.3532 146.687 67.478 146.794 67.6385 146.794H76.1601V154.941C76.1601 155.083 76.2849 155.208 76.4275 155.208H84.1113C84.2717 155.208 84.3965 155.083 84.3965 154.941V146.794H92.9181C93.0608 146.794 93.1856 146.669 93.1856 146.526V138.825C93.1856 138.664 93.0608 138.557 92.9181 138.557H84.3965V130.143C97.8208 127.95 108.09 116.273 108.09 102.224C108.09 96.1629 106.182 90.565 102.919 85.9476L112.333 76.5346V84.5749C112.333 84.7175 112.457 84.8423 112.618 84.8423H119.802C119.963 84.8423 120.088 84.7175 120.088 84.5749V62.9856C120.088 62.8251 119.963 62.7003 119.802 62.7003Z" fill="white"/>
<path d="M92.5437 93.6846H67.2818C67.1392 93.6846 67.0144 93.7915 67.0144 93.9342V100.049C67.0144 100.192 67.1392 100.299 67.2818 100.299H92.5437C92.7041 100.299 92.8289 100.192 92.8289 100.049V93.9342C92.8111 93.7915 92.6863 93.6846 92.5437 93.6846Z" fill="white"/>
<path d="M92.5437 104.595H67.2818C67.1392 104.595 67.0144 104.72 67.0144 104.845V110.96C67.0144 111.102 67.1392 111.209 67.2818 111.209H92.5437C92.7041 111.209 92.8289 111.102 92.8289 110.96V104.845C92.8111 104.72 92.6863 104.595 92.5437 104.595Z" fill="white"/>
<path d="M94.7824 49V44.185L92.4124 36.85H94.7374L96.0424 41.125L97.2574 36.85H99.5074L97.1674 44.185V49H94.7824Z" fill="white"/>
<path d="M87.7554 49V38.695H85.8804V36.85H92.0904V38.695H90.2454V49H87.7554Z" fill="white"/>
<path d="M82.2947 49V36.85H84.7547V49H82.2947Z" fill="white"/>
<path d="M75.7754 49V36.85H78.2504V47.32H81.1004V49H75.7754Z" fill="white"/>
<path d="M67.1042 49L69.4592 36.85H72.2042L74.5442 49H72.2492L71.8142 46.33H69.8942L69.4292 49H67.1042ZM70.1192 44.815H71.5742L70.8392 39.91L70.1192 44.815Z" fill="white"/>
<path d="M62.5548 49.165C61.6348 49.165 60.9198 49.01 60.4098 48.7C59.8998 48.38 59.5398 47.925 59.3298 47.335C59.1298 46.735 59.0298 46.01 59.0298 45.16V36.85H61.4748V45.505C61.4748 45.805 61.4948 46.1 61.5348 46.39C61.5848 46.68 61.6848 46.915 61.8348 47.095C61.9948 47.275 62.2348 47.365 62.5548 47.365C62.8848 47.365 63.1248 47.275 63.2748 47.095C63.4348 46.915 63.5348 46.68 63.5748 46.39C63.6148 46.1 63.6348 45.805 63.6348 45.505V36.85H66.0798V45.16C66.0798 46.01 65.9748 46.735 65.7648 47.335C65.5648 47.925 65.2098 48.38 64.6998 48.7C64.1898 49.01 63.4748 49.165 62.5548 49.165Z" fill="white"/>
<path d="M56.5673 51.4C56.3373 51.29 56.0723 51.12 55.7723 50.89C55.4723 50.66 55.1773 50.39 54.8873 50.08C54.5973 49.78 54.3523 49.47 54.1523 49.15C54.1123 49.16 54.0673 49.165 54.0173 49.165C53.9773 49.165 53.9323 49.165 53.8823 49.165C52.9923 49.165 52.2873 49.005 51.7673 48.685C51.2473 48.365 50.8723 47.91 50.6423 47.32C50.4223 46.72 50.3123 46.005 50.3123 45.175V40.645C50.3123 39.815 50.4223 39.105 50.6423 38.515C50.8723 37.925 51.2473 37.475 51.7673 37.165C52.2873 36.855 52.9923 36.7 53.8823 36.7C54.7823 36.7 55.4923 36.86 56.0123 37.18C56.5423 37.49 56.9173 37.94 57.1373 38.53C57.3673 39.11 57.4823 39.815 57.4823 40.645V45.175C57.4823 45.755 57.4273 46.28 57.3173 46.75C57.2173 47.21 57.0473 47.61 56.8073 47.95C56.5673 48.29 56.2473 48.56 55.8473 48.76C55.9773 48.9 56.1123 49.04 56.2523 49.18C56.3923 49.32 56.5323 49.45 56.6723 49.57C56.8123 49.69 56.9473 49.79 57.0773 49.87L56.5673 51.4ZM53.8823 47.38C54.2023 47.38 54.4373 47.31 54.5873 47.17C54.7373 47.02 54.8373 46.825 54.8873 46.585C54.9373 46.335 54.9623 46.07 54.9623 45.79V40.045C54.9623 39.765 54.9373 39.505 54.8873 39.265C54.8373 39.025 54.7373 38.835 54.5873 38.695C54.4373 38.545 54.2023 38.47 53.8823 38.47C53.5723 38.47 53.3423 38.545 53.1923 38.695C53.0423 38.835 52.9423 39.025 52.8923 39.265C52.8523 39.505 52.8323 39.765 52.8323 40.045V45.79C52.8323 46.07 52.8523 46.335 52.8923 46.585C52.9423 46.825 53.0423 47.02 53.1923 47.17C53.3423 47.31 53.5723 47.38 53.8823 47.38Z" fill="white"/>
<path d="M43.915 49V36.85H49.21V38.56H46.39V41.785H48.565V43.51H46.39V47.32H49.24V49H43.915Z" fill="white"/>
<path d="M82.5576 28V15.85H85.7076C86.5276 15.85 87.2276 15.945 87.8076 16.135C88.3976 16.315 88.8476 16.64 89.1576 17.11C89.4776 17.58 89.6376 18.23 89.6376 19.06C89.6376 19.56 89.5926 20.005 89.5026 20.395C89.4226 20.775 89.2726 21.11 89.0526 21.4C88.8426 21.68 88.5426 21.905 88.1526 22.075L89.8326 28H87.2976L85.9026 22.495H85.0326V28H82.5576ZM85.0326 21.025H85.7526C86.1526 21.025 86.4676 20.96 86.6976 20.83C86.9276 20.7 87.0876 20.505 87.1776 20.245C87.2776 19.975 87.3276 19.645 87.3276 19.255C87.3276 18.695 87.2226 18.27 87.0126 17.98C86.8126 17.68 86.4326 17.53 85.8726 17.53H85.0326V21.025Z" fill="white"/>
<path d="M75.9805 28V15.85H81.2755V17.56H78.4555V20.785H80.6305V22.51H78.4555V26.32H81.3055V28H75.9805Z" fill="white"/>
<path d="M67.3818 28V15.85H70.3518C71.3818 15.85 72.1818 15.985 72.7518 16.255C73.3318 16.515 73.7418 16.93 73.9818 17.5C74.2218 18.06 74.3418 18.78 74.3418 19.66V24.085C74.3418 24.985 74.2218 25.725 73.9818 26.305C73.7418 26.885 73.3368 27.315 72.7668 27.595C72.2068 27.865 71.4218 28 70.4118 28H67.3818ZM69.8568 26.275H70.3818C70.8418 26.275 71.1668 26.205 71.3568 26.065C71.5568 25.915 71.6818 25.7 71.7318 25.42C71.7818 25.13 71.8068 24.775 71.8068 24.355V19.345C71.8068 18.925 71.7718 18.59 71.7018 18.34C71.6418 18.08 71.5118 17.89 71.3118 17.77C71.1218 17.65 70.8068 17.59 70.3668 17.59H69.8568V26.275Z" fill="white"/>
<path d="M59.0762 28V15.85H60.8012L63.5012 22.18V15.85H65.5412V28H63.8912L61.1912 21.28V28H59.0762Z" fill="white"/>
<path d="M52.499 28V15.85H57.794V17.56H54.974V20.785H57.149V22.51H54.974V26.32H57.824V28H52.499Z" fill="white"/>
<path d="M47.0201 28.18C46.2001 28.18 45.5501 28.01 45.0701 27.67C44.5901 27.32 44.2451 26.83 44.0351 26.2C43.8351 25.56 43.7351 24.82 43.7351 23.98V19.915C43.7351 19.045 43.8401 18.295 44.0501 17.665C44.2601 17.035 44.6251 16.55 45.1451 16.21C45.6751 15.87 46.3901 15.7 47.2901 15.7C48.1601 15.7 48.8451 15.845 49.3451 16.135C49.8551 16.425 50.2201 16.835 50.4401 17.365C50.6601 17.895 50.7701 18.525 50.7701 19.255V19.96H48.3551V19.105C48.3551 18.785 48.3351 18.505 48.2951 18.265C48.2551 18.015 48.1601 17.82 48.0101 17.68C47.8701 17.54 47.6401 17.47 47.3201 17.47C46.9901 17.47 46.7501 17.555 46.6001 17.725C46.4501 17.895 46.3551 18.115 46.3151 18.385C46.2751 18.645 46.2551 18.925 46.2551 19.225V24.61C46.2551 24.95 46.2851 25.255 46.3451 25.525C46.4051 25.795 46.5151 26.005 46.6751 26.155C46.8451 26.305 47.0851 26.38 47.3951 26.38C47.7051 26.38 47.9451 26.3 48.1151 26.14C48.2851 25.98 48.4001 25.765 48.4601 25.495C48.5301 25.215 48.5651 24.9 48.5651 24.55V23.26H47.3801V21.76H50.8001V28H49.1801L49.0301 26.905C48.8701 27.275 48.6301 27.58 48.3101 27.82C47.9901 28.06 47.5601 28.18 47.0201 28.18Z" fill="white"/>
</g>
<defs>
<clipPath id="clip0_143_6265">
<rect width="173" height="173" fill="white"/>
</clipPath>
</defs>
</svg>
