<svg width="173" height="173" viewBox="0 0 173 173" fill="none" xmlns="http://www.w3.org/2000/svg">
<g clip-path="url(#clip0_143_6035)">
<path d="M0 0H173V173H0V0Z" fill="#241F20"/>
<path d="M119.553 87.1062L101.885 103.918C101.226 104.577 100.869 105.076 100.869 106.431V153.532C100.869 154.085 101.315 154.531 101.885 154.531H120.123C120.676 154.531 121.121 154.085 121.121 153.532V87.534C121.139 86.9814 120.694 85.9652 119.553 87.1062Z" fill="white"/>
<path d="M68.6544 108.999L50.9871 125.792C50.3275 126.452 49.9709 126.951 49.9709 128.324V153.532C49.9709 154.085 50.4166 154.531 50.9871 154.531H69.2427C69.7953 154.531 70.241 154.085 70.241 153.532V109.426C70.241 108.874 69.8132 107.858 68.6544 108.999Z" fill="white"/>
<path d="M127.575 66.729C127.575 66.6042 127.539 66.4438 127.432 66.3547C127.343 66.2655 127.218 66.2299 127.111 66.212H127.022L126.88 66.2299L113.348 69.2784L113.099 69.3141C113.01 69.3319 112.921 69.3854 112.831 69.4567C112.635 69.6528 112.635 69.9737 112.831 70.1876L112.992 70.3481L116.076 73.4323L85.4124 104.06L71.2573 89.9051C71.0968 89.7446 70.8472 89.7446 70.6868 89.9051L66.8538 93.738L44.1592 116.433C43.9987 116.593 43.9987 116.843 44.1592 117.003L48.0099 120.854C48.1704 121.014 48.42 121.014 48.5804 120.854L70.9898 98.4445L81.2586 108.713C81.2764 108.731 81.2764 108.749 81.2942 108.767L85.1272 112.6C85.2877 112.76 85.5372 112.76 85.6977 112.6L120.48 77.8179L123.724 81.0625C123.92 81.2586 124.241 81.2586 124.437 81.0625C124.526 80.9734 124.58 80.8486 124.58 80.7238V80.6703L127.557 66.8717L127.575 66.729Z" fill="white"/>
<path d="M94.2017 111.958L85.6622 120.569C85.5018 120.711 85.27 120.694 85.1096 120.551L77.3724 112.653C75.964 111.245 75.6431 112.386 75.6431 112.939V153.532C75.6431 154.085 76.0888 154.531 76.6414 154.531H94.897C95.4496 154.531 95.8953 154.085 95.8953 153.532V112.279C95.8953 111.726 95.4496 110.692 94.2017 111.958Z" fill="white"/>
<path d="M21.6785 48.4913C15.7597 48.4913 12.7825 45.1397 12.7825 38.4365C12.7825 38.3652 12.7825 38.2761 12.7825 38.2226C12.8003 36.4398 13.1212 34.871 13.763 33.5339C14.4048 32.1968 15.3497 31.1985 16.5976 30.5032C14.4404 28.8809 13.3351 26.4741 13.2995 23.283C13.2995 23.176 13.2995 23.069 13.2995 22.9799C13.2816 20.3057 13.9769 18.2199 15.3675 16.7402C16.8115 15.1892 18.9152 14.4226 21.6785 14.4226C24.4418 14.4226 26.5276 15.1892 27.9538 16.7402C29.3266 18.2556 30.004 20.3592 30.004 23.0512V23.283C29.9505 26.5454 28.8631 28.97 26.7237 30.5032C27.9717 31.1985 28.9344 32.2147 29.5762 33.5517C30.218 34.8888 30.5567 36.4398 30.5923 38.2226V38.5791C30.5567 45.1932 27.5973 48.4913 21.6785 48.4913ZM21.6785 43.767C22.1598 43.767 22.5699 43.66 22.9086 43.4283C23.2473 43.1965 23.5147 42.9291 23.693 42.5904C23.8713 42.2516 24.0317 41.8416 24.1209 41.3424C24.2279 40.8433 24.2813 40.3976 24.317 39.9875C24.3526 39.5775 24.3526 39.1318 24.3526 38.597C24.3526 37.866 24.317 37.2242 24.2635 36.6716C24.21 36.1189 24.0852 35.5663 23.907 35.0314C23.7287 34.4966 23.4613 34.0687 23.0691 33.7835C22.6947 33.4804 22.2133 33.3378 21.6607 33.3378C21.108 33.3378 20.6267 33.4804 20.2523 33.7835C19.8779 34.0866 19.5927 34.4966 19.4144 35.0314C19.2361 35.5663 19.1113 36.1189 19.04 36.6716C18.9687 37.2242 18.933 37.866 18.933 38.597C18.933 39.114 18.9509 39.5775 18.9687 40.0054C19.0043 40.4154 19.0578 40.8789 19.1826 41.3603C19.2896 41.8594 19.45 42.2695 19.6283 42.5904C19.8066 42.9113 20.074 43.1965 20.4306 43.4104C20.8049 43.66 21.1971 43.767 21.6785 43.767ZM21.6785 28.1321C23.2117 28.1321 23.9783 26.4385 23.9783 23.0512C23.9783 21.8568 23.7822 20.9119 23.4078 20.2166C23.0334 19.5213 22.4451 19.1648 21.6785 19.1648C20.8762 19.1648 20.2879 19.5213 19.8957 20.1988C19.5035 20.8941 19.3074 21.8389 19.3074 23.0156C19.3074 26.4206 20.0918 28.1321 21.6785 28.1321Z" fill="white"/>
<path d="M153.233 48V35.85H155.708V40.845H157.853V35.85H160.328V48H157.853V42.615H155.708V48H153.233Z" fill="white"/>
<path d="M147.766 48V37.695H145.891V35.85H152.101V37.695H150.256V48H147.766Z" fill="white"/>
<path d="M137.159 48L135.584 35.85H137.684L138.524 43.275L139.589 35.865H141.254L142.364 43.26L143.204 35.85H145.274L143.714 48H141.614L140.429 40.305L139.304 48H137.159Z" fill="white"/>
<path d="M130.812 48.165C129.922 48.165 129.217 48.005 128.697 47.685C128.177 47.365 127.802 46.91 127.572 46.32C127.352 45.72 127.242 45.005 127.242 44.175V39.645C127.242 38.815 127.352 38.105 127.572 37.515C127.802 36.925 128.177 36.475 128.697 36.165C129.217 35.855 129.922 35.7 130.812 35.7C131.712 35.7 132.422 35.86 132.942 36.18C133.472 36.49 133.847 36.94 134.067 37.53C134.297 38.11 134.412 38.815 134.412 39.645V44.175C134.412 45.005 134.297 45.72 134.067 46.32C133.847 46.91 133.472 47.365 132.942 47.685C132.422 48.005 131.712 48.165 130.812 48.165ZM130.812 46.38C131.132 46.38 131.367 46.31 131.517 46.17C131.667 46.02 131.767 45.825 131.817 45.585C131.867 45.335 131.892 45.07 131.892 44.79V39.045C131.892 38.765 131.867 38.505 131.817 38.265C131.767 38.025 131.667 37.835 131.517 37.695C131.367 37.545 131.132 37.47 130.812 37.47C130.512 37.47 130.287 37.545 130.137 37.695C129.987 37.835 129.887 38.025 129.837 38.265C129.787 38.505 129.762 38.765 129.762 39.045V44.79C129.762 45.07 129.782 45.335 129.822 45.585C129.872 45.825 129.972 46.02 130.122 46.17C130.272 46.31 130.502 46.38 130.812 46.38Z" fill="white"/>
<path d="M118.779 48V35.85H121.929C122.749 35.85 123.449 35.945 124.029 36.135C124.619 36.315 125.069 36.64 125.379 37.11C125.699 37.58 125.859 38.23 125.859 39.06C125.859 39.56 125.814 40.005 125.724 40.395C125.644 40.775 125.494 41.11 125.274 41.4C125.064 41.68 124.764 41.905 124.374 42.075L126.054 48H123.519L122.124 42.495H121.254V48H118.779ZM121.254 41.025H121.974C122.374 41.025 122.689 40.96 122.919 40.83C123.149 40.7 123.309 40.505 123.399 40.245C123.499 39.975 123.549 39.645 123.549 39.255C123.549 38.695 123.444 38.27 123.234 37.98C123.034 37.68 122.654 37.53 122.094 37.53H121.254V41.025Z" fill="white"/>
<path d="M113.3 48.18C112.48 48.18 111.83 48.01 111.35 47.67C110.87 47.32 110.525 46.83 110.315 46.2C110.115 45.56 110.015 44.82 110.015 43.98V39.915C110.015 39.045 110.12 38.295 110.33 37.665C110.54 37.035 110.905 36.55 111.425 36.21C111.955 35.87 112.67 35.7 113.57 35.7C114.44 35.7 115.125 35.845 115.625 36.135C116.135 36.425 116.5 36.835 116.72 37.365C116.94 37.895 117.05 38.525 117.05 39.255V39.96H114.635V39.105C114.635 38.785 114.615 38.505 114.575 38.265C114.535 38.015 114.44 37.82 114.29 37.68C114.15 37.54 113.92 37.47 113.6 37.47C113.27 37.47 113.03 37.555 112.88 37.725C112.73 37.895 112.635 38.115 112.595 38.385C112.555 38.645 112.535 38.925 112.535 39.225V44.61C112.535 44.95 112.565 45.255 112.625 45.525C112.685 45.795 112.795 46.005 112.955 46.155C113.125 46.305 113.365 46.38 113.675 46.38C113.985 46.38 114.225 46.3 114.395 46.14C114.565 45.98 114.68 45.765 114.74 45.495C114.81 45.215 114.845 44.9 114.845 44.55V43.26H113.66V41.76H117.08V48H115.46L115.31 46.905C115.15 47.275 114.91 47.58 114.59 47.82C114.27 48.06 113.84 48.18 113.3 48.18Z" fill="white"/>
<path d="M101.529 48.165C100.629 48.165 99.9144 47.995 99.3844 47.655C98.8644 47.315 98.4994 46.845 98.2894 46.245C98.0794 45.635 97.9744 44.93 97.9744 44.13V39.765C97.9744 38.925 98.0794 38.205 98.2894 37.605C98.4994 36.995 98.8644 36.525 99.3844 36.195C99.9144 35.865 100.629 35.7 101.529 35.7C102.399 35.7 103.079 35.845 103.569 36.135C104.069 36.425 104.419 36.835 104.619 37.365C104.829 37.895 104.934 38.51 104.934 39.21V40.23H102.534V39.09C102.534 38.81 102.519 38.55 102.489 38.31C102.459 38.06 102.374 37.86 102.234 37.71C102.104 37.55 101.874 37.47 101.544 37.47C101.214 37.47 100.974 37.55 100.824 37.71C100.674 37.87 100.579 38.08 100.539 38.34C100.499 38.59 100.479 38.87 100.479 39.18V44.7C100.479 45.04 100.504 45.34 100.554 45.6C100.614 45.85 100.719 46.045 100.869 46.185C101.029 46.315 101.254 46.38 101.544 46.38C101.864 46.38 102.089 46.305 102.219 46.155C102.359 45.995 102.444 45.785 102.474 45.525C102.514 45.265 102.534 44.99 102.534 44.7V43.515H104.934V44.52C104.934 45.23 104.834 45.86 104.634 46.41C104.434 46.95 104.089 47.38 103.599 47.7C103.109 48.01 102.419 48.165 101.529 48.165Z" fill="white"/>
<path d="M93.8337 48V35.85H96.2937V48H93.8337Z" fill="white"/>
<path d="M83.3291 48L83.5391 35.85H86.1641L87.6641 43.515L89.2691 35.85H91.8041L92.0141 48H90.2141L90.0191 39.765L88.4741 48H86.9291L85.3091 39.705L85.1441 48H83.3291Z" fill="white"/>
<path d="M78.1215 48.165C77.2315 48.165 76.5265 48.005 76.0065 47.685C75.4865 47.365 75.1115 46.91 74.8815 46.32C74.6615 45.72 74.5515 45.005 74.5515 44.175V39.645C74.5515 38.815 74.6615 38.105 74.8815 37.515C75.1115 36.925 75.4865 36.475 76.0065 36.165C76.5265 35.855 77.2315 35.7 78.1215 35.7C79.0215 35.7 79.7315 35.86 80.2515 36.18C80.7815 36.49 81.1565 36.94 81.3765 37.53C81.6065 38.11 81.7215 38.815 81.7215 39.645V44.175C81.7215 45.005 81.6065 45.72 81.3765 46.32C81.1565 46.91 80.7815 47.365 80.2515 47.685C79.7315 48.005 79.0215 48.165 78.1215 48.165ZM78.1215 46.38C78.4415 46.38 78.6765 46.31 78.8265 46.17C78.9765 46.02 79.0765 45.825 79.1265 45.585C79.1765 45.335 79.2015 45.07 79.2015 44.79V39.045C79.2015 38.765 79.1765 38.505 79.1265 38.265C79.0765 38.025 78.9765 37.835 78.8265 37.695C78.6765 37.545 78.4415 37.47 78.1215 37.47C77.8215 37.47 77.5965 37.545 77.4465 37.695C77.2965 37.835 77.1965 38.025 77.1465 38.265C77.0965 38.505 77.0715 38.765 77.0715 39.045V44.79C77.0715 45.07 77.0915 45.335 77.1315 45.585C77.1815 45.825 77.2815 46.02 77.4315 46.17C77.5815 46.31 77.8115 46.38 78.1215 46.38Z" fill="white"/>
<path d="M66.4258 48V35.85H68.1508L70.8508 42.18V35.85H72.8908V48H71.2408L68.5408 41.28V48H66.4258Z" fill="white"/>
<path d="M61.1733 48.165C60.2833 48.165 59.5783 48.005 59.0583 47.685C58.5383 47.365 58.1633 46.91 57.9333 46.32C57.7133 45.72 57.6033 45.005 57.6033 44.175V39.645C57.6033 38.815 57.7133 38.105 57.9333 37.515C58.1633 36.925 58.5383 36.475 59.0583 36.165C59.5783 35.855 60.2833 35.7 61.1733 35.7C62.0733 35.7 62.7833 35.86 63.3033 36.18C63.8333 36.49 64.2083 36.94 64.4283 37.53C64.6583 38.11 64.7733 38.815 64.7733 39.645V44.175C64.7733 45.005 64.6583 45.72 64.4283 46.32C64.2083 46.91 63.8333 47.365 63.3033 47.685C62.7833 48.005 62.0733 48.165 61.1733 48.165ZM61.1733 46.38C61.4933 46.38 61.7283 46.31 61.8783 46.17C62.0283 46.02 62.1283 45.825 62.1783 45.585C62.2283 45.335 62.2533 45.07 62.2533 44.79V39.045C62.2533 38.765 62.2283 38.505 62.1783 38.265C62.1283 38.025 62.0283 37.835 61.8783 37.695C61.7283 37.545 61.4933 37.47 61.1733 37.47C60.8733 37.47 60.6483 37.545 60.4983 37.695C60.3483 37.835 60.2483 38.025 60.1983 38.265C60.1483 38.505 60.1233 38.765 60.1233 39.045V44.79C60.1233 45.07 60.1433 45.335 60.1833 45.585C60.2333 45.825 60.3333 46.02 60.4833 46.17C60.6333 46.31 60.8633 46.38 61.1733 46.38Z" fill="white"/>
<path d="M52.8673 48.165C51.9673 48.165 51.2523 47.995 50.7223 47.655C50.2023 47.315 49.8373 46.845 49.6273 46.245C49.4173 45.635 49.3123 44.93 49.3123 44.13V39.765C49.3123 38.925 49.4173 38.205 49.6273 37.605C49.8373 36.995 50.2023 36.525 50.7223 36.195C51.2523 35.865 51.9673 35.7 52.8673 35.7C53.7373 35.7 54.4173 35.845 54.9073 36.135C55.4073 36.425 55.7573 36.835 55.9573 37.365C56.1673 37.895 56.2723 38.51 56.2723 39.21V40.23H53.8723V39.09C53.8723 38.81 53.8573 38.55 53.8273 38.31C53.7973 38.06 53.7123 37.86 53.5723 37.71C53.4423 37.55 53.2123 37.47 52.8823 37.47C52.5523 37.47 52.3123 37.55 52.1623 37.71C52.0123 37.87 51.9173 38.08 51.8773 38.34C51.8373 38.59 51.8173 38.87 51.8173 39.18V44.7C51.8173 45.04 51.8423 45.34 51.8923 45.6C51.9523 45.85 52.0573 46.045 52.2073 46.185C52.3673 46.315 52.5923 46.38 52.8823 46.38C53.2023 46.38 53.4273 46.305 53.5573 46.155C53.6973 45.995 53.7823 45.785 53.8123 45.525C53.8523 45.265 53.8723 44.99 53.8723 44.7V43.515H56.2723V44.52C56.2723 45.23 56.1723 45.86 55.9723 46.41C55.7723 46.95 55.4273 47.38 54.9373 47.7C54.4473 48.01 53.7573 48.165 52.8673 48.165Z" fill="white"/>
<path d="M42.915 48V35.85H48.21V37.56H45.39V40.785H47.565V42.51H45.39V46.32H48.24V48H42.915Z" fill="white"/>
<path d="M147.944 27V14.85H150.914C151.944 14.85 152.744 14.985 153.314 15.255C153.894 15.515 154.304 15.93 154.544 16.5C154.784 17.06 154.904 17.78 154.904 18.66V23.085C154.904 23.985 154.784 24.725 154.544 25.305C154.304 25.885 153.899 26.315 153.329 26.595C152.769 26.865 151.984 27 150.974 27H147.944ZM150.419 25.275H150.944C151.404 25.275 151.729 25.205 151.919 25.065C152.119 24.915 152.244 24.7 152.294 24.42C152.344 24.13 152.369 23.775 152.369 23.355V18.345C152.369 17.925 152.334 17.59 152.264 17.34C152.204 17.08 152.074 16.89 151.874 16.77C151.684 16.65 151.369 16.59 150.929 16.59H150.419V25.275Z" fill="white"/>
<path d="M139.639 27V14.85H141.364L144.064 21.18V14.85H146.104V27H144.454L141.754 20.28V27H139.639Z" fill="white"/>
<path d="M130.967 27L133.322 14.85H136.067L138.407 27H136.112L135.677 24.33H133.757L133.292 27H130.967ZM133.982 22.815H135.437L134.702 17.91L133.982 22.815Z" fill="white"/>
<path d="M119.541 27V14.85H122.016V19.98L124.206 14.85H126.606L124.326 20.31L126.771 27H124.281L122.406 21.555L122.016 22.245V27H119.541Z" fill="white"/>
<path d="M110.796 27V14.85H113.946C114.766 14.85 115.466 14.945 116.046 15.135C116.636 15.315 117.086 15.64 117.396 16.11C117.716 16.58 117.876 17.23 117.876 18.06C117.876 18.56 117.831 19.005 117.741 19.395C117.661 19.775 117.511 20.11 117.291 20.4C117.081 20.68 116.781 20.905 116.391 21.075L118.071 27H115.536L114.141 21.495H113.271V27H110.796ZM113.271 20.025H113.991C114.391 20.025 114.706 19.96 114.936 19.83C115.166 19.7 115.326 19.505 115.416 19.245C115.516 18.975 115.566 18.645 115.566 18.255C115.566 17.695 115.461 17.27 115.251 16.98C115.051 16.68 114.671 16.53 114.111 16.53H113.271V20.025Z" fill="white"/>
<path d="M105.543 27.165C104.653 27.165 103.948 27.005 103.428 26.685C102.908 26.365 102.533 25.91 102.303 25.32C102.083 24.72 101.973 24.005 101.973 23.175V18.645C101.973 17.815 102.083 17.105 102.303 16.515C102.533 15.925 102.908 15.475 103.428 15.165C103.948 14.855 104.653 14.7 105.543 14.7C106.443 14.7 107.153 14.86 107.673 15.18C108.203 15.49 108.578 15.94 108.798 16.53C109.028 17.11 109.143 17.815 109.143 18.645V23.175C109.143 24.005 109.028 24.72 108.798 25.32C108.578 25.91 108.203 26.365 107.673 26.685C107.153 27.005 106.443 27.165 105.543 27.165ZM105.543 25.38C105.863 25.38 106.098 25.31 106.248 25.17C106.398 25.02 106.498 24.825 106.548 24.585C106.598 24.335 106.623 24.07 106.623 23.79V18.045C106.623 17.765 106.598 17.505 106.548 17.265C106.498 17.025 106.398 16.835 106.248 16.695C106.098 16.545 105.863 16.47 105.543 16.47C105.243 16.47 105.018 16.545 104.868 16.695C104.718 16.835 104.618 17.025 104.568 17.265C104.518 17.505 104.493 17.765 104.493 18.045V23.79C104.493 24.07 104.513 24.335 104.553 24.585C104.603 24.825 104.703 25.02 104.853 25.17C105.003 25.31 105.233 25.38 105.543 25.38Z" fill="white"/>
<path d="M92.6868 27L91.1118 14.85H93.2118L94.0518 22.275L95.1168 14.865H96.7818L97.8918 22.26L98.7318 14.85H100.802L99.2418 27H97.1418L95.9568 19.305L94.8318 27H92.6868Z" fill="white"/>
<path d="M82.4045 27V16.695H80.5295V14.85H86.7395V16.695H84.8945V27H82.4045Z" fill="white"/>
<path d="M72.959 27V14.85H74.684L77.384 21.18V14.85H79.424V27H77.774L75.074 20.28V27H72.959Z" fill="white"/>
<path d="M66.3818 27V14.85H71.6768V16.56H68.8568V19.785H71.0318V21.51H68.8568V25.32H71.7068V27H66.3818Z" fill="white"/>
<path d="M61.4659 27.165C60.5659 27.165 59.8509 26.995 59.3209 26.655C58.8009 26.315 58.4359 25.845 58.2259 25.245C58.0159 24.635 57.9109 23.93 57.9109 23.13V18.765C57.9109 17.925 58.0159 17.205 58.2259 16.605C58.4359 15.995 58.8009 15.525 59.3209 15.195C59.8509 14.865 60.5659 14.7 61.4659 14.7C62.3359 14.7 63.0159 14.845 63.5059 15.135C64.0059 15.425 64.3559 15.835 64.5559 16.365C64.7659 16.895 64.8709 17.51 64.8709 18.21V19.23H62.4709V18.09C62.4709 17.81 62.4559 17.55 62.4259 17.31C62.3959 17.06 62.3109 16.86 62.1709 16.71C62.0409 16.55 61.8109 16.47 61.4809 16.47C61.1509 16.47 60.9109 16.55 60.7609 16.71C60.6109 16.87 60.5159 17.08 60.4759 17.34C60.4359 17.59 60.4159 17.87 60.4159 18.18V23.7C60.4159 24.04 60.4409 24.34 60.4909 24.6C60.5509 24.85 60.6559 25.045 60.8059 25.185C60.9659 25.315 61.1909 25.38 61.4809 25.38C61.8009 25.38 62.0259 25.305 62.1559 25.155C62.2959 24.995 62.3809 24.785 62.4109 24.525C62.4509 24.265 62.4709 23.99 62.4709 23.7V22.515H64.8709V23.52C64.8709 24.23 64.7709 24.86 64.5709 25.41C64.3709 25.95 64.0259 26.38 63.5359 26.7C63.0459 27.01 62.3559 27.165 61.4659 27.165Z" fill="white"/>
<path d="M51.5137 27V14.85H56.8087V16.56H53.9887V19.785H56.1637V21.51H53.9887V25.32H56.8387V27H51.5137Z" fill="white"/>
<path d="M42.915 27V14.85H45.885C46.915 14.85 47.715 14.985 48.285 15.255C48.865 15.515 49.275 15.93 49.515 16.5C49.755 17.06 49.875 17.78 49.875 18.66V23.085C49.875 23.985 49.755 24.725 49.515 25.305C49.275 25.885 48.87 26.315 48.3 26.595C47.74 26.865 46.955 27 45.945 27H42.915ZM45.39 25.275H45.915C46.375 25.275 46.7 25.205 46.89 25.065C47.09 24.915 47.215 24.7 47.265 24.42C47.315 24.13 47.34 23.775 47.34 23.355V18.345C47.34 17.925 47.305 17.59 47.235 17.34C47.175 17.08 47.045 16.89 46.845 16.77C46.655 16.65 46.34 16.59 45.9 16.59H45.39V25.275Z" fill="white"/>
</g>
<defs>
<clipPath id="clip0_143_6035">
<rect width="173" height="173" fill="white"/>
</clipPath>
</defs>
</svg>
