<svg width="173" height="173" viewBox="0 0 173 173" fill="none" xmlns="http://www.w3.org/2000/svg">
<g clip-path="url(#clip0_143_5274)">
<path d="M0 0H173V173H0V0Z" fill="#FD6925"/>
<path d="M52.2708 121.104C51.9143 120.997 51.5577 120.89 51.219 120.836C51.219 120.836 51.6112 120.961 52.2708 121.104Z" fill="white"/>
<path d="M19.8958 48.4557C16.9542 48.4557 14.8149 47.7426 13.4956 46.3164C12.1764 44.8902 11.4989 42.7687 11.4811 39.9341V39.4705H17.5069C17.5069 40.9324 17.6673 41.9842 17.9882 42.626C18.3091 43.2678 18.9687 43.5709 19.9492 43.5709C20.9298 43.5709 21.5894 43.0896 21.9281 42.1269C22.2669 41.1642 22.4273 39.3992 22.4273 36.8142V33.427C22.0707 34.0331 21.5181 34.5144 20.7872 34.871C20.0562 35.2097 19.2005 35.4058 18.22 35.4237C18.1843 35.4237 18.1487 35.4237 18.0952 35.4237C17.1146 35.4415 16.2054 35.281 15.421 34.9601C14.6009 34.6392 13.9057 34.1757 13.3708 33.5874C12.836 32.9813 12.3903 32.2681 12.0338 31.4302C11.6772 30.5923 11.4276 29.6831 11.2672 28.7383C11.1067 27.7756 11.0354 26.7594 11.0354 25.6362C11.0354 18.1308 13.9948 14.3691 19.9136 14.3691C21.4646 14.3691 22.8195 14.6366 23.9783 15.1536C25.1371 15.6706 26.082 16.4193 26.7773 17.382C27.4725 18.3447 28.0074 19.4679 28.3461 20.7515C28.6848 22.0172 28.8631 23.4613 28.8631 25.0479V36.8855C28.8631 38.2583 28.7918 39.4884 28.6313 40.5937C28.4709 41.699 28.1856 42.7508 27.7756 43.7492C27.3656 44.7475 26.8129 45.5854 26.1533 46.2451C25.4937 46.9047 24.6201 47.4395 23.5683 47.8317C22.5164 48.2239 21.2863 48.4557 19.8958 48.4557ZM19.9671 30.6458C21.0189 30.6458 21.839 30.0932 22.4095 29.0057V23.8178C22.4095 23.1582 22.3738 22.5877 22.3025 22.0707C22.2312 21.5537 22.1242 21.0724 21.946 20.6088C21.7855 20.1453 21.5181 19.7888 21.1794 19.5213C20.8406 19.2539 20.4128 19.147 19.8958 19.147C19.4857 19.147 19.1292 19.2361 18.8261 19.4144C18.5409 19.5927 18.2913 19.8422 18.1308 20.1453C17.9525 20.4484 17.8099 20.8584 17.703 21.3398C17.596 21.8389 17.5247 22.3559 17.489 22.8908C17.4534 23.4256 17.4355 24.0674 17.4355 24.7983C17.4355 25.4045 17.4355 25.868 17.4534 26.1532C17.4534 26.4563 17.4712 26.8485 17.5069 27.3477C17.5425 27.8469 17.5782 28.2213 17.6316 28.4708C17.6851 28.7204 17.7743 29.0057 17.8991 29.3266C18.0239 29.6475 18.1665 29.8971 18.3448 30.0397C18.523 30.2001 18.7548 30.3249 19.0222 30.4319C19.2896 30.5389 19.6284 30.6458 19.9671 30.6458Z" fill="white"/>
<path d="M128.984 144.494L110.443 155.19V133.779L128.984 123.065V144.494ZM67.7098 155.19V135.401L84.8422 145.296L67.7098 155.19ZM64.893 155.19L46.3522 144.494V123.082L64.893 133.797V155.19ZM84.86 95.9666L67.7276 105.861V86.0722L84.86 95.9666ZM107.626 105.861L90.4936 95.9666L107.626 86.0722V105.861ZM90.4936 120.64L109.034 109.943L127.575 120.64L109.034 131.355L90.4936 120.64ZM86.2684 118.198L69.136 108.303L86.2684 98.409V118.198ZM106.218 108.303L89.0852 118.198V98.409L106.218 108.303ZM86.2684 142.871L69.136 132.977L86.2684 123.082V142.871ZM131.105 119.41L110.443 107.483V83.6476C110.443 83.1484 110.175 82.6849 109.747 82.4353L88.3899 70.0986C87.962 69.849 87.4272 69.849 86.9815 70.0986L65.6061 82.4175C65.1782 82.6671 64.9108 83.1306 64.9108 83.6298V107.483L44.2485 119.41C43.8206 119.66 43.5532 120.123 43.5532 120.64V145.296C43.5532 145.795 43.8206 146.259 44.2485 146.508L65.6061 158.845C65.82 158.97 66.0696 159.041 66.3192 159.041C66.5688 159.041 66.8005 158.97 67.0145 158.845L87.6768 146.918L108.321 158.845C108.535 158.97 108.785 159.041 109.017 159.041C109.266 159.041 109.498 158.97 109.73 158.845L131.087 146.508C131.515 146.259 131.783 145.795 131.783 145.296V120.64C131.8 120.123 131.533 119.66 131.105 119.41Z" fill="white"/>
<path d="M154.262 48V35.85H159.557V37.56H156.737V40.785H158.912V42.51H156.737V46.32H159.587V48H154.262Z" fill="white"/>
<path d="M146.217 48V35.85H149.367C150.187 35.85 150.887 35.945 151.467 36.135C152.057 36.315 152.507 36.64 152.817 37.11C153.137 37.58 153.297 38.23 153.297 39.06C153.297 39.56 153.252 40.005 153.162 40.395C153.082 40.775 152.932 41.11 152.712 41.4C152.502 41.68 152.202 41.905 151.812 42.075L153.492 48H150.957L149.562 42.495H148.692V48H146.217ZM148.692 41.025H149.412C149.812 41.025 150.127 40.96 150.357 40.83C150.587 40.7 150.747 40.505 150.837 40.245C150.937 39.975 150.987 39.645 150.987 39.255C150.987 38.695 150.882 38.27 150.672 37.98C150.472 37.68 150.092 37.53 149.532 37.53H148.692V41.025Z" fill="white"/>
<path d="M141.665 48.165C140.745 48.165 140.03 48.01 139.52 47.7C139.01 47.38 138.65 46.925 138.44 46.335C138.24 45.735 138.14 45.01 138.14 44.16V35.85H140.585V44.505C140.585 44.805 140.605 45.1 140.645 45.39C140.695 45.68 140.795 45.915 140.945 46.095C141.105 46.275 141.345 46.365 141.665 46.365C141.995 46.365 142.235 46.275 142.385 46.095C142.545 45.915 142.645 45.68 142.685 45.39C142.725 45.1 142.745 44.805 142.745 44.505V35.85H145.19V44.16C145.19 45.01 145.085 45.735 144.875 46.335C144.675 46.925 144.32 47.38 143.81 47.7C143.3 48.01 142.585 48.165 141.665 48.165Z" fill="white"/>
<path d="M133.508 48V37.695H131.633V35.85H137.843V37.695H135.998V48H133.508Z" fill="white"/>
<path d="M128.152 48.165C127.252 48.165 126.537 47.995 126.007 47.655C125.487 47.315 125.122 46.845 124.912 46.245C124.702 45.635 124.597 44.93 124.597 44.13V39.765C124.597 38.925 124.702 38.205 124.912 37.605C125.122 36.995 125.487 36.525 126.007 36.195C126.537 35.865 127.252 35.7 128.152 35.7C129.022 35.7 129.702 35.845 130.192 36.135C130.692 36.425 131.042 36.835 131.242 37.365C131.452 37.895 131.557 38.51 131.557 39.21V40.23H129.157V39.09C129.157 38.81 129.142 38.55 129.112 38.31C129.082 38.06 128.997 37.86 128.857 37.71C128.727 37.55 128.497 37.47 128.167 37.47C127.837 37.47 127.597 37.55 127.447 37.71C127.297 37.87 127.202 38.08 127.162 38.34C127.122 38.59 127.102 38.87 127.102 39.18V44.7C127.102 45.04 127.127 45.34 127.177 45.6C127.237 45.85 127.342 46.045 127.492 46.185C127.652 46.315 127.877 46.38 128.167 46.38C128.487 46.38 128.712 46.305 128.842 46.155C128.982 45.995 129.067 45.785 129.097 45.525C129.137 45.265 129.157 44.99 129.157 44.7V43.515H131.557V44.52C131.557 45.23 131.457 45.86 131.257 46.41C131.057 46.95 130.712 47.38 130.222 47.7C129.732 48.01 129.042 48.165 128.152 48.165Z" fill="white"/>
<path d="M120.225 48.165C119.305 48.165 118.59 48.01 118.08 47.7C117.57 47.38 117.21 46.925 117 46.335C116.8 45.735 116.7 45.01 116.7 44.16V35.85H119.145V44.505C119.145 44.805 119.165 45.1 119.205 45.39C119.255 45.68 119.355 45.915 119.505 46.095C119.665 46.275 119.905 46.365 120.225 46.365C120.555 46.365 120.795 46.275 120.945 46.095C121.105 45.915 121.205 45.68 121.245 45.39C121.285 45.1 121.305 44.805 121.305 44.505V35.85H123.75V44.16C123.75 45.01 123.645 45.735 123.435 46.335C123.235 46.925 122.88 47.38 122.37 47.7C121.86 48.01 121.145 48.165 120.225 48.165Z" fill="white"/>
<path d="M108.833 48V35.85H111.983C112.803 35.85 113.503 35.945 114.083 36.135C114.673 36.315 115.123 36.64 115.433 37.11C115.753 37.58 115.913 38.23 115.913 39.06C115.913 39.56 115.868 40.005 115.778 40.395C115.698 40.775 115.548 41.11 115.328 41.4C115.118 41.68 114.818 41.905 114.428 42.075L116.108 48H113.573L112.178 42.495H111.308V48H108.833ZM111.308 41.025H112.028C112.428 41.025 112.743 40.96 112.973 40.83C113.203 40.7 113.363 40.505 113.453 40.245C113.553 39.975 113.603 39.645 113.603 39.255C113.603 38.695 113.498 38.27 113.288 37.98C113.088 37.68 112.708 37.53 112.148 37.53H111.308V41.025Z" fill="white"/>
<path d="M104.096 48V37.695H102.221V35.85H108.431V37.695H106.586V48H104.096Z" fill="white"/>
<path d="M99.2327 48.165C98.4827 48.165 97.8577 48.03 97.3577 47.76C96.8577 47.48 96.4777 47.065 96.2177 46.515C95.9677 45.955 95.8227 45.245 95.7827 44.385L97.9127 44.025C97.9327 44.525 97.9827 44.945 98.0627 45.285C98.1527 45.615 98.2827 45.865 98.4527 46.035C98.6327 46.195 98.8527 46.275 99.1127 46.275C99.4327 46.275 99.6477 46.175 99.7577 45.975C99.8777 45.775 99.9377 45.545 99.9377 45.285C99.9377 44.775 99.8127 44.35 99.5627 44.01C99.3227 43.66 99.0027 43.31 98.6027 42.96L97.3427 41.865C96.8927 41.485 96.5227 41.055 96.2327 40.575C95.9527 40.095 95.8127 39.505 95.8127 38.805C95.8127 37.805 96.1027 37.04 96.6827 36.51C97.2727 35.97 98.0777 35.7 99.0977 35.7C99.7077 35.7 100.208 35.8 100.598 36C100.988 36.2 101.288 36.47 101.498 36.81C101.718 37.14 101.868 37.505 101.948 37.905C102.038 38.295 102.093 38.685 102.113 39.075L99.9977 39.39C99.9777 39.02 99.9427 38.695 99.8927 38.415C99.8527 38.135 99.7627 37.915 99.6227 37.755C99.4927 37.595 99.2927 37.515 99.0227 37.515C98.7327 37.515 98.5177 37.625 98.3777 37.845C98.2377 38.055 98.1677 38.29 98.1677 38.55C98.1677 38.98 98.2627 39.335 98.4527 39.615C98.6527 39.885 98.9227 40.17 99.2627 40.47L100.493 41.55C101.003 41.99 101.438 42.495 101.798 43.065C102.168 43.625 102.353 44.32 102.353 45.15C102.353 45.72 102.223 46.235 101.963 46.695C101.703 47.155 101.338 47.515 100.868 47.775C100.408 48.035 99.8627 48.165 99.2327 48.165Z" fill="white"/>
<path d="M88.2139 48L90.5689 35.85H93.3139L95.6539 48H93.3589L92.9239 45.33H91.0039L90.5389 48H88.2139ZM91.2289 43.815H92.6839L91.9489 38.91L91.2289 43.815Z" fill="white"/>
<path d="M80.7688 48V35.85H83.9188C84.7388 35.85 85.4388 35.945 86.0188 36.135C86.6088 36.315 87.0588 36.64 87.3688 37.11C87.6888 37.58 87.8488 38.23 87.8488 39.06C87.8488 39.56 87.8038 40.005 87.7138 40.395C87.6338 40.775 87.4838 41.11 87.2638 41.4C87.0538 41.68 86.7538 41.905 86.3638 42.075L88.0438 48H85.5088L84.1138 42.495H83.2438V48H80.7688ZM83.2438 41.025H83.9638C84.3638 41.025 84.6788 40.96 84.9088 40.83C85.1388 40.7 85.2988 40.505 85.3888 40.245C85.4888 39.975 85.5388 39.645 85.5388 39.255C85.5388 38.695 85.4338 38.27 85.2238 37.98C85.0238 37.68 84.6438 37.53 84.0838 37.53H83.2438V41.025Z" fill="white"/>
<path d="M75.0967 48V35.85H80.2267V37.53H77.5717V40.815H79.8217V42.54H77.5717V48H75.0967Z" fill="white"/>
<path d="M67.4912 48V35.85H69.2162L71.9162 42.18V35.85H73.9562V48H72.3062L69.6062 41.28V48H67.4912Z" fill="white"/>
<path d="M63.8706 48V35.85H66.3306V48H63.8706Z" fill="white"/>
<path d="M52.8918 48V35.85H55.8618C56.8918 35.85 57.6918 35.985 58.2618 36.255C58.8418 36.515 59.2518 36.93 59.4918 37.5C59.7318 38.06 59.8518 38.78 59.8518 39.66V44.085C59.8518 44.985 59.7318 45.725 59.4918 46.305C59.2518 46.885 58.8468 47.315 58.2768 47.595C57.7168 47.865 56.9318 48 55.9218 48H52.8918ZM55.3668 46.275H55.8918C56.3518 46.275 56.6768 46.205 56.8668 46.065C57.0668 45.915 57.1918 45.7 57.2418 45.42C57.2918 45.13 57.3168 44.775 57.3168 44.355V39.345C57.3168 38.925 57.2818 38.59 57.2118 38.34C57.1518 38.08 57.0218 37.89 56.8218 37.77C56.6318 37.65 56.3168 37.59 55.8768 37.59H55.3668V46.275Z" fill="white"/>
<path d="M45.2861 48V35.85H47.0111L49.7111 42.18V35.85H51.7511V48H50.1011L47.4011 41.28V48H45.2861Z" fill="white"/>
<path d="M37.3149 48L39.6699 35.85H42.4149L44.7549 48H42.4599L42.0249 45.33H40.1049L39.6399 48H37.3149ZM40.3299 43.815H41.7849L41.0499 38.91L40.3299 43.815Z" fill="white"/>
<path d="M154.298 27V14.85H156.023L158.723 21.18V14.85H160.763V27H159.113L156.413 20.28V27H154.298Z" fill="white"/>
<path d="M149.745 27.165C148.855 27.165 148.15 27.005 147.63 26.685C147.11 26.365 146.735 25.91 146.505 25.32C146.285 24.72 146.175 24.005 146.175 23.175V18.645C146.175 17.815 146.285 17.105 146.505 16.515C146.735 15.925 147.11 15.475 147.63 15.165C148.15 14.855 148.855 14.7 149.745 14.7C150.645 14.7 151.355 14.86 151.875 15.18C152.405 15.49 152.78 15.94 153 16.53C153.23 17.11 153.345 17.815 153.345 18.645V23.175C153.345 24.005 153.23 24.72 153 25.32C152.78 25.91 152.405 26.365 151.875 26.685C151.355 27.005 150.645 27.165 149.745 27.165ZM149.745 25.38C150.065 25.38 150.3 25.31 150.45 25.17C150.6 25.02 150.7 24.825 150.75 24.585C150.8 24.335 150.825 24.07 150.825 23.79V18.045C150.825 17.765 150.8 17.505 150.75 17.265C150.7 17.025 150.6 16.835 150.45 16.695C150.3 16.545 150.065 16.47 149.745 16.47C149.445 16.47 149.22 16.545 149.07 16.695C148.92 16.835 148.82 17.025 148.77 17.265C148.72 17.505 148.695 17.765 148.695 18.045V23.79C148.695 24.07 148.715 24.335 148.755 24.585C148.805 24.825 148.905 25.02 149.055 25.17C149.205 25.31 149.435 25.38 149.745 25.38Z" fill="white"/>
<path d="M142.734 27V14.85H145.194V27H142.734Z" fill="white"/>
<path d="M137.967 27V16.695H136.092V14.85H142.302V16.695H140.457V27H137.967Z" fill="white"/>
<path d="M129.515 27L131.87 14.85H134.615L136.955 27H134.66L134.225 24.33H132.305L131.84 27H129.515ZM132.53 22.815H133.985L133.25 17.91L132.53 22.815Z" fill="white"/>
<path d="M125.231 27L122.921 14.85H125.066L126.506 23.25L127.856 14.85H130.091L127.781 27H125.231Z" fill="white"/>
<path d="M119.056 27.165C118.166 27.165 117.461 27.005 116.941 26.685C116.421 26.365 116.046 25.91 115.816 25.32C115.596 24.72 115.486 24.005 115.486 23.175V18.645C115.486 17.815 115.596 17.105 115.816 16.515C116.046 15.925 116.421 15.475 116.941 15.165C117.461 14.855 118.166 14.7 119.056 14.7C119.956 14.7 120.666 14.86 121.186 15.18C121.716 15.49 122.091 15.94 122.311 16.53C122.541 17.11 122.656 17.815 122.656 18.645V23.175C122.656 24.005 122.541 24.72 122.311 25.32C122.091 25.91 121.716 26.365 121.186 26.685C120.666 27.005 119.956 27.165 119.056 27.165ZM119.056 25.38C119.376 25.38 119.611 25.31 119.761 25.17C119.911 25.02 120.011 24.825 120.061 24.585C120.111 24.335 120.136 24.07 120.136 23.79V18.045C120.136 17.765 120.111 17.505 120.061 17.265C120.011 17.025 119.911 16.835 119.761 16.695C119.611 16.545 119.376 16.47 119.056 16.47C118.756 16.47 118.531 16.545 118.381 16.695C118.231 16.835 118.131 17.025 118.081 17.265C118.031 17.505 118.006 17.765 118.006 18.045V23.79C118.006 24.07 118.026 24.335 118.066 24.585C118.116 24.825 118.216 25.02 118.366 25.17C118.516 25.31 118.746 25.38 119.056 25.38Z" fill="white"/>
<path d="M108.06 27V14.85H109.785L112.485 21.18V14.85H114.525V27H112.875L110.175 20.28V27H108.06Z" fill="white"/>
<path d="M100.454 27V14.85H102.179L104.879 21.18V14.85H106.919V27H105.269L102.569 20.28V27H100.454Z" fill="white"/>
<path d="M96.8335 27V14.85H99.2935V27H96.8335Z" fill="white"/>
<path d="M91.1302 29.07L90.9502 28.305C91.2102 28.225 91.4452 28.085 91.6552 27.885C91.8652 27.695 91.9702 27.4 91.9702 27H90.7852V24.81H92.9602V26.745C92.9502 27.445 92.7952 27.99 92.4952 28.38C92.1952 28.77 91.7402 29 91.1302 29.07Z" fill="white"/>
<path d="M87.1195 27V22.185L84.7495 14.85H87.0745L88.3795 19.125L89.5945 14.85H91.8445L89.5045 22.185V27H87.1195Z" fill="white"/>
<path d="M77.792 27V14.85H80.942C81.762 14.85 82.462 14.945 83.042 15.135C83.632 15.315 84.082 15.64 84.392 16.11C84.712 16.58 84.872 17.23 84.872 18.06C84.872 18.56 84.827 19.005 84.737 19.395C84.657 19.775 84.507 20.11 84.287 20.4C84.077 20.68 83.777 20.905 83.387 21.075L85.067 27H82.532L81.137 21.495H80.267V27H77.792ZM80.267 20.025H80.987C81.387 20.025 81.702 19.96 81.932 19.83C82.162 19.7 82.322 19.505 82.412 19.245C82.512 18.975 82.562 18.645 82.562 18.255C82.562 17.695 82.457 17.27 82.247 16.98C82.047 16.68 81.667 16.53 81.107 16.53H80.267V20.025Z" fill="white"/>
<path d="M73.0549 27V16.695H71.1799V14.85H77.3899V16.695H75.5449V27H73.0549Z" fill="white"/>
<path d="M68.1917 27.165C67.4417 27.165 66.8167 27.03 66.3167 26.76C65.8167 26.48 65.4367 26.065 65.1767 25.515C64.9267 24.955 64.7817 24.245 64.7417 23.385L66.8717 23.025C66.8917 23.525 66.9417 23.945 67.0217 24.285C67.1117 24.615 67.2417 24.865 67.4117 25.035C67.5917 25.195 67.8117 25.275 68.0717 25.275C68.3917 25.275 68.6067 25.175 68.7167 24.975C68.8367 24.775 68.8967 24.545 68.8967 24.285C68.8967 23.775 68.7717 23.35 68.5217 23.01C68.2817 22.66 67.9617 22.31 67.5617 21.96L66.3017 20.865C65.8517 20.485 65.4817 20.055 65.1917 19.575C64.9117 19.095 64.7717 18.505 64.7717 17.805C64.7717 16.805 65.0617 16.04 65.6417 15.51C66.2317 14.97 67.0367 14.7 68.0567 14.7C68.6667 14.7 69.1667 14.8 69.5567 15C69.9467 15.2 70.2467 15.47 70.4567 15.81C70.6767 16.14 70.8267 16.505 70.9067 16.905C70.9967 17.295 71.0517 17.685 71.0717 18.075L68.9567 18.39C68.9367 18.02 68.9017 17.695 68.8517 17.415C68.8117 17.135 68.7217 16.915 68.5817 16.755C68.4517 16.595 68.2517 16.515 67.9817 16.515C67.6917 16.515 67.4767 16.625 67.3367 16.845C67.1967 17.055 67.1267 17.29 67.1267 17.55C67.1267 17.98 67.2217 18.335 67.4117 18.615C67.6117 18.885 67.8817 19.17 68.2217 19.47L69.4517 20.55C69.9617 20.99 70.3967 21.495 70.7567 22.065C71.1267 22.625 71.3117 23.32 71.3117 24.15C71.3117 24.72 71.1817 25.235 70.9217 25.695C70.6617 26.155 70.2967 26.515 69.8267 26.775C69.3667 27.035 68.8217 27.165 68.1917 27.165Z" fill="white"/>
<path d="M60.4898 27.165C59.5698 27.165 58.8548 27.01 58.3448 26.7C57.8348 26.38 57.4748 25.925 57.2648 25.335C57.0648 24.735 56.9648 24.01 56.9648 23.16V14.85H59.4098V23.505C59.4098 23.805 59.4298 24.1 59.4698 24.39C59.5198 24.68 59.6198 24.915 59.7698 25.095C59.9298 25.275 60.1698 25.365 60.4898 25.365C60.8198 25.365 61.0598 25.275 61.2098 25.095C61.3698 24.915 61.4698 24.68 61.5098 24.39C61.5498 24.1 61.5698 23.805 61.5698 23.505V14.85H64.0148V23.16C64.0148 24.01 63.9098 24.735 63.6998 25.335C63.4998 25.925 63.1448 26.38 62.6348 26.7C62.1248 27.01 61.4098 27.165 60.4898 27.165Z" fill="white"/>
<path d="M49.1711 27V14.85H52.1411C53.1711 14.85 53.9711 14.985 54.5411 15.255C55.1211 15.515 55.5311 15.93 55.7711 16.5C56.0111 17.06 56.1311 17.78 56.1311 18.66V23.085C56.1311 23.985 56.0111 24.725 55.7711 25.305C55.5311 25.885 55.1261 26.315 54.5561 26.595C53.9961 26.865 53.2111 27 52.2011 27H49.1711ZM51.6461 25.275H52.1711C52.6311 25.275 52.9561 25.205 53.1461 25.065C53.3461 24.915 53.4711 24.7 53.5211 24.42C53.5711 24.13 53.5961 23.775 53.5961 23.355V18.345C53.5961 17.925 53.5611 17.59 53.4911 17.34C53.4311 17.08 53.3011 16.89 53.1011 16.77C52.9111 16.65 52.5961 16.59 52.1561 16.59H51.6461V25.275Z" fill="white"/>
<path d="M41.5654 27V14.85H43.2904L45.9904 21.18V14.85H48.0304V27H46.3804L43.6804 20.28V27H41.5654Z" fill="white"/>
<path d="M37.9448 27V14.85H40.4048V27H37.9448Z" fill="white"/>
</g>
<defs>
<clipPath id="clip0_143_5274">
<rect width="173" height="173" fill="white"/>
</clipPath>
</defs>
</svg>
