<svg width="173" height="173" viewBox="0 0 173 173" fill="none" xmlns="http://www.w3.org/2000/svg">
<g clip-path="url(#clip0_143_5264)">
<path d="M0 0H173V173H0V0Z" fill="#E5243B"/>
<path d="M52.2708 121.104C51.9143 120.997 51.5577 120.89 51.219 120.836C51.219 120.836 51.6112 120.961 52.2708 121.104Z" fill="white"/>
<path d="M135.419 85.3947C135.419 82.7384 137.576 80.5812 140.233 80.5812C142.889 80.5812 145.028 82.7384 145.028 85.3947C145.028 88.051 142.871 90.2082 140.233 90.2082C137.576 90.2082 135.419 88.051 135.419 85.3947Z" fill="white"/>
<path d="M145.848 92.0621C149.111 92.3652 151.678 95.1107 151.678 98.4445V100.049V100.744V111.78C151.678 112.814 150.84 113.651 149.824 113.651C148.79 113.651 147.952 112.814 147.952 111.78V100.334C147.952 99.9063 147.827 99.318 147.043 99.318C146.508 99.318 146.383 99.8885 146.365 100.263V134.599C146.365 136.079 145.171 137.273 143.691 137.273C142.212 137.273 140.999 136.079 140.999 134.599V114.81C140.999 114.596 140.928 114.026 140.233 114.026C139.555 114.026 139.466 114.596 139.466 114.81V134.599C139.466 136.079 138.272 137.273 136.792 137.273C135.312 137.273 134.118 136.079 134.118 134.599V100.263C134.1 99.9063 133.975 99.318 133.44 99.318C132.656 99.318 132.531 99.9063 132.531 100.334V111.78C132.531 112.814 131.693 113.651 130.659 113.651C129.625 113.651 128.787 112.814 128.787 111.78V100.744V100.049V98.4445C128.787 95.0929 131.355 92.3474 134.617 92.0621C134.724 92.0443 134.849 92.0265 134.974 92.0265H140.233H145.492C145.617 92.0265 145.741 92.0443 145.848 92.0621Z" fill="white"/>
<path d="M106.806 87.9261C106.806 85.4124 104.773 83.3622 102.26 83.3622C99.746 83.3622 97.6958 85.4124 97.6958 87.9261C97.6958 90.4398 99.7282 92.49 102.26 92.49C104.773 92.4722 106.806 90.4398 106.806 87.9261Z" fill="white"/>
<path d="M93.0784 98.2483L89.2989 110.585C89.2989 110.585 88.6215 112.849 90.5469 113.402C92.4544 113.972 93.0249 111.762 93.0249 111.762L96.0735 101.475C96.0735 101.475 96.2339 100.691 96.84 100.851C97.4284 101.029 97.2144 101.867 97.2144 101.867L91.9018 121.157H96.84V134.973C96.84 136.275 97.9097 137.344 99.2111 137.344C100.53 137.344 101.582 136.275 101.582 134.973V121.157H102.26H102.937V134.973C102.937 136.275 103.989 137.344 105.308 137.344C106.627 137.344 107.679 136.275 107.679 134.973V121.157H112.618L107.305 101.867C107.305 101.867 107.091 101.012 107.679 100.851C108.268 100.673 108.446 101.475 108.446 101.475L111.494 111.762C111.494 111.762 112.083 113.972 113.972 113.402C115.898 112.831 115.22 110.585 115.22 110.585L111.441 98.2483C111.441 98.2483 110.086 94.6828 107.091 94.6828H102.26H97.4284C94.4333 94.6828 93.0784 98.2483 93.0784 98.2483Z" fill="white"/>
<path d="M79.5294 87.9261C79.5294 85.4124 77.497 83.3622 74.9833 83.3622C72.4696 83.3622 70.4194 85.4124 70.4194 87.9261C70.4194 90.4398 72.4518 92.49 74.9833 92.49C77.4792 92.4722 79.5294 90.4398 79.5294 87.9261Z" fill="white"/>
<path d="M65.7842 98.2483L62.0047 110.585C62.0047 110.585 61.3273 112.849 63.2527 113.402C65.1602 113.972 65.7307 111.762 65.7307 111.762L68.7793 101.475C68.7793 101.475 68.9397 100.691 69.5459 100.851C70.1342 101.029 69.9202 101.867 69.9202 101.867L64.6076 121.157H69.5459V134.973C69.5459 136.275 70.6155 137.344 71.9169 137.344C73.2362 137.344 74.288 136.275 74.288 134.973V121.157H74.9655H75.6429V134.973C75.6429 136.275 76.6948 137.344 78.014 137.344C79.3333 137.344 80.3851 136.275 80.3851 134.973V121.157H85.3234L80.0107 101.867C80.0107 101.867 79.779 101.012 80.3851 100.851C80.9912 100.691 81.1517 101.475 81.1517 101.475L84.2002 111.762C84.2002 111.762 84.7885 113.972 86.6961 113.402C88.6215 112.831 87.944 110.585 87.944 110.585L84.1646 98.2483C84.1646 98.2483 82.8097 94.6828 79.8146 94.6828H74.9833H70.152C67.1569 94.6828 65.7842 98.2483 65.7842 98.2483Z" fill="white"/>
<path d="M122.12 113.42C124.223 113.42 125.917 111.726 125.917 109.622C125.917 107.519 124.223 105.825 122.12 105.825C120.016 105.825 118.323 107.519 118.323 109.622C118.323 111.726 120.016 113.42 122.12 113.42Z" fill="white"/>
<path d="M113.028 125.204C112.849 125.65 112.689 126.594 113.58 127.004C114.632 127.486 115.203 126.47 115.203 126.47L117.271 119.891C117.271 119.891 117.627 119.446 117.627 119.909V135.383H117.645C117.645 136.453 118.519 137.327 119.588 137.327C120.658 137.327 121.531 136.453 121.531 135.383V129.269C121.531 129.269 121.424 128.413 122.12 128.413C122.815 128.413 122.708 129.269 122.708 129.269V135.383C122.708 136.453 123.582 137.327 124.651 137.327C125.721 137.327 126.595 136.453 126.595 135.383V119.909C126.595 119.446 126.826 119.784 126.826 119.784L128.449 124.295C128.449 124.295 129.144 126.309 129.358 126.398C130.089 126.701 130.927 126.363 131.23 125.614C131.426 125.133 131.354 124.616 131.069 124.223L131.087 124.206C131.034 124.063 128.663 118.251 128.395 117.431C127.539 114.935 125.988 114.953 124.491 114.917C122.993 114.882 122.102 114.917 122.102 114.917C122.102 114.917 121.139 114.882 119.16 114.935C117.181 114.989 116.558 116.005 114.383 121.62C114.079 122.423 113.028 125.043 113.028 125.204Z" fill="white"/>
<path d="M38.8286 85.3947C38.8286 82.7384 36.6715 80.5812 34.0151 80.5812C31.3588 80.5812 29.2195 82.7384 29.2195 85.3947C29.2195 88.051 31.3766 90.2082 34.0151 90.2082C36.6715 90.2082 38.8286 88.051 38.8286 85.3947Z" fill="white"/>
<path d="M28.3995 92.0621C25.137 92.3652 22.5698 95.1107 22.5698 98.4445V100.049V100.744V111.78C22.5698 112.814 23.4077 113.651 24.4417 113.651C25.4757 113.651 26.3136 112.814 26.3136 111.78V100.334C26.3136 99.9063 26.4384 99.318 27.2229 99.318C27.7577 99.318 27.8825 99.8885 27.9003 100.263V134.599C27.9003 136.079 29.0948 137.273 30.5745 137.273C32.0542 137.273 33.2486 136.079 33.2486 134.599V114.81C33.2664 114.596 33.3378 114.026 34.0152 114.026C34.6927 114.026 34.7818 114.596 34.7818 114.81V134.599C34.7818 136.079 35.9763 137.273 37.456 137.273C38.9357 137.273 40.1301 136.079 40.1301 134.599V100.263C40.1479 99.9063 40.2727 99.318 40.8076 99.318C41.592 99.318 41.7168 99.9063 41.7168 100.334V111.78C41.7168 112.814 42.5547 113.651 43.5887 113.651C44.6227 113.651 45.4606 112.814 45.4606 111.78V100.744V100.049V98.4445C45.4606 95.0929 42.8934 92.3474 39.6309 92.0621C39.524 92.0443 39.3992 92.0265 39.2744 92.0265H34.0152H28.7739C28.6312 92.0265 28.5243 92.0443 28.3995 92.0621Z" fill="white"/>
<path d="M82.882 48V43.185L80.512 35.85H82.837L84.142 40.125L85.357 35.85H87.607L85.267 43.185V48H82.882Z" fill="white"/>
<path d="M75.8547 48V37.695H73.9797V35.85H80.1897V37.695H78.3447V48H75.8547Z" fill="white"/>
<path d="M66.1455 48V35.85H69.2955C70.1155 35.85 70.8155 35.945 71.3955 36.135C71.9855 36.315 72.4355 36.64 72.7455 37.11C73.0655 37.58 73.2255 38.23 73.2255 39.06C73.2255 39.56 73.1805 40.005 73.0905 40.395C73.0105 40.775 72.8605 41.11 72.6405 41.4C72.4305 41.68 72.1305 41.905 71.7405 42.075L73.4205 48H70.8855L69.4905 42.495H68.6205V48H66.1455ZM68.6205 41.025H69.3405C69.7405 41.025 70.0555 40.96 70.2855 40.83C70.5155 40.7 70.6755 40.505 70.7655 40.245C70.8655 39.975 70.9155 39.645 70.9155 39.255C70.9155 38.695 70.8105 38.27 70.6005 37.98C70.4005 37.68 70.0205 37.53 69.4605 37.53H68.6205V41.025Z" fill="white"/>
<path d="M59.5684 48V35.85H64.8634V37.56H62.0434V40.785H64.2184V42.51H62.0434V46.32H64.8934V48H59.5684Z" fill="white"/>
<path d="M53.4565 48L51.1465 35.85H53.2915L54.7315 44.25L56.0815 35.85H58.3165L56.0065 48H53.4565Z" fill="white"/>
<path d="M46.5815 48.165C45.6915 48.165 44.9865 48.005 44.4665 47.685C43.9465 47.365 43.5715 46.91 43.3415 46.32C43.1215 45.72 43.0115 45.005 43.0115 44.175V39.645C43.0115 38.815 43.1215 38.105 43.3415 37.515C43.5715 36.925 43.9465 36.475 44.4665 36.165C44.9865 35.855 45.6915 35.7 46.5815 35.7C47.4815 35.7 48.1915 35.86 48.7115 36.18C49.2415 36.49 49.6165 36.94 49.8365 37.53C50.0665 38.11 50.1815 38.815 50.1815 39.645V44.175C50.1815 45.005 50.0665 45.72 49.8365 46.32C49.6165 46.91 49.2415 47.365 48.7115 47.685C48.1915 48.005 47.4815 48.165 46.5815 48.165ZM46.5815 46.38C46.9015 46.38 47.1365 46.31 47.2865 46.17C47.4365 46.02 47.5365 45.825 47.5865 45.585C47.6365 45.335 47.6615 45.07 47.6615 44.79V39.045C47.6615 38.765 47.6365 38.505 47.5865 38.265C47.5365 38.025 47.4365 37.835 47.2865 37.695C47.1365 37.545 46.9015 37.47 46.5815 37.47C46.2815 37.47 46.0565 37.545 45.9065 37.695C45.7565 37.835 45.6565 38.025 45.6065 38.265C45.5565 38.505 45.5315 38.765 45.5315 39.045V44.79C45.5315 45.07 45.5515 45.335 45.5915 45.585C45.6415 45.825 45.7415 46.02 45.8915 46.17C46.0415 46.31 46.2715 46.38 46.5815 46.38Z" fill="white"/>
<path d="M34.915 48V35.85H38.77C39.5 35.85 40.095 35.99 40.555 36.27C41.015 36.54 41.355 36.935 41.575 37.455C41.805 37.975 41.92 38.605 41.92 39.345C41.92 40.215 41.77 40.895 41.47 41.385C41.18 41.875 40.78 42.225 40.27 42.435C39.76 42.635 39.175 42.735 38.515 42.735H37.39V48H34.915ZM37.39 40.995H38.26C38.62 40.995 38.895 40.94 39.085 40.83C39.285 40.71 39.42 40.525 39.49 40.275C39.56 40.025 39.595 39.705 39.595 39.315C39.595 38.945 39.565 38.635 39.505 38.385C39.455 38.135 39.335 37.94 39.145 37.8C38.955 37.66 38.655 37.59 38.245 37.59H37.39V40.995Z" fill="white"/>
<path d="M46.6108 27.165C45.7208 27.165 45.0158 27.005 44.4958 26.685C43.9758 26.365 43.6008 25.91 43.3708 25.32C43.1508 24.72 43.0408 24.005 43.0408 23.175V18.645C43.0408 17.815 43.1508 17.105 43.3708 16.515C43.6008 15.925 43.9758 15.475 44.4958 15.165C45.0158 14.855 45.7208 14.7 46.6108 14.7C47.5108 14.7 48.2208 14.86 48.7408 15.18C49.2708 15.49 49.6458 15.94 49.8658 16.53C50.0958 17.11 50.2108 17.815 50.2108 18.645V23.175C50.2108 24.005 50.0958 24.72 49.8658 25.32C49.6458 25.91 49.2708 26.365 48.7408 26.685C48.2208 27.005 47.5108 27.165 46.6108 27.165ZM46.6108 25.38C46.9308 25.38 47.1658 25.31 47.3158 25.17C47.4658 25.02 47.5658 24.825 47.6158 24.585C47.6658 24.335 47.6908 24.07 47.6908 23.79V18.045C47.6908 17.765 47.6658 17.505 47.6158 17.265C47.5658 17.025 47.4658 16.835 47.3158 16.695C47.1658 16.545 46.9308 16.47 46.6108 16.47C46.3108 16.47 46.0858 16.545 45.9358 16.695C45.7858 16.835 45.6858 17.025 45.6358 17.265C45.5858 17.505 45.5608 17.765 45.5608 18.045V23.79C45.5608 24.07 45.5808 24.335 45.6208 24.585C45.6708 24.825 45.7708 25.02 45.9208 25.17C46.0708 25.31 46.3008 25.38 46.6108 25.38Z" fill="white"/>
<path d="M34.915 27V14.85H36.64L39.34 21.18V14.85H41.38V27H39.73L37.03 20.28V27H34.915Z" fill="white"/>
<path d="M24.21 113.723L19.9314 136.364" stroke="white" stroke-width="1.148" stroke-miterlimit="10" stroke-linecap="round"/>
<path d="M47.7603 111.441C47.5107 111.049 47.0828 110.799 46.5837 110.799C45.8171 110.799 45.1931 111.423 45.1931 112.172C45.1931 112.386 45.3357 112.778 45.3357 112.778L49.1509 119.695C49.1509 119.695 49.3826 120.177 49.3826 120.604V135.455C49.3826 136.489 50.2205 137.327 51.2545 137.327C52.2885 137.327 53.1086 136.489 53.1086 135.455V129.59C53.1086 129.59 53.0016 128.769 53.6791 128.769C54.3387 128.769 54.2496 129.59 54.2496 129.59V135.455C54.2496 136.489 55.0875 137.327 56.1215 137.327C57.1555 137.327 57.9934 136.489 57.9934 135.455V120.604C57.9934 120.177 58.2252 119.695 58.2252 119.695L61.755 113.313C61.755 113.313 62.1829 112.404 62.1829 112.172C62.1829 111.405 61.5589 110.799 60.7923 110.799C60.2932 110.799 59.8653 111.067 59.6157 111.441H59.5979C59.4909 111.53 57.7082 114.686 57.1377 115.274C56.5137 115.898 55.961 115.827 55.961 115.827H53.6613H51.3615C51.3615 115.827 50.8088 115.898 50.1849 115.274C49.6322 114.668 47.8851 111.512 47.7603 111.441Z" fill="white"/>
<path d="M53.697 113.42C55.8006 113.42 57.4943 111.726 57.4943 109.622C57.4943 107.519 55.8006 105.825 53.697 105.825C51.5933 105.825 49.8997 107.519 49.8997 109.622C49.8997 111.726 51.5933 113.42 53.697 113.42Z" fill="white"/>
<path d="M53.697 118.75L57.9935 121.87L60.0258 129.376H53.697H47.3682L49.4183 121.87L53.697 118.75Z" fill="white"/>
<path d="M19.771 48.01V21.4646L14.8328 23.1582V18.4338C15.9559 17.9881 17.1504 17.4177 18.4518 16.758C19.7354 16.0984 20.6624 15.4388 21.2329 14.8148H26.1355V48.01H19.771Z" fill="white"/>
</g>
<defs>
<clipPath id="clip0_143_5264">
<rect width="173" height="173" fill="white"/>
</clipPath>
</defs>
</svg>
