<svg width="173" height="173" viewBox="0 0 173 173" fill="none" xmlns="http://www.w3.org/2000/svg">
<g clip-path="url(#clip0_143_5271)">
<path d="M0 0H173V173H0V0Z" fill="#FD9D24"/>
<path d="M52.2708 121.104C51.9143 120.997 51.5577 120.89 51.219 120.836C51.219 120.836 51.6112 120.961 52.2708 121.104Z" fill="white"/>
<path d="M14.4226 48.01V21.4646L9.48438 23.1582V18.4338C10.6075 17.9881 11.802 17.4177 13.1034 16.758C14.3692 16.0984 15.2962 15.4388 15.8667 14.8148H20.7693V48.01H14.4226Z" fill="white"/>
<path d="M27.7076 48.01V21.4646L22.7693 23.1582V18.4338C23.8924 17.9881 25.0869 17.4177 26.3883 16.758C27.6719 16.0984 28.5989 15.4388 29.1694 14.8148H34.072V48.01H27.7076Z" fill="white"/>
<path d="M28.2746 129.197H28.542H54.41C54.7666 129.197 55.0518 128.912 55.0518 128.556C55.0518 128.395 54.9805 128.252 54.8914 128.128L54.8557 128.092L41.8593 111.263L41.7345 111.12C41.6097 110.995 41.4493 110.906 41.2532 110.906C41.0927 110.906 40.9501 110.977 40.8253 111.067L40.754 111.156L40.6292 111.298L27.9359 127.949L27.7398 128.181C27.6685 128.288 27.6328 128.413 27.6328 128.538C27.6328 128.912 27.9181 129.197 28.2746 129.197Z" fill="white"/>
<path d="M54.3387 131.568H28.132C27.7755 131.568 27.4902 131.854 27.4902 132.21V152.712C27.4902 153.069 27.7755 153.354 28.132 153.354H36.5645V140.464C36.5645 140.108 36.8498 139.823 37.2063 139.823H45.0327C45.3892 139.823 45.6745 140.108 45.6745 140.464V153.354H54.3209C54.6775 153.354 54.9627 153.069 54.9627 152.712V132.21C54.9805 131.871 54.6775 131.568 54.3387 131.568Z" fill="white"/>
<path d="M142.515 134.599C142.515 134.938 142.229 135.223 141.873 135.223H134.136C133.779 135.223 133.494 134.956 133.494 134.599V129.893C133.494 129.554 133.779 129.269 134.136 129.269H141.873C142.229 129.269 142.515 129.536 142.515 129.893V134.599ZM142.515 143.299C142.515 143.638 142.229 143.923 141.873 143.923H134.136C133.779 143.923 133.494 143.656 133.494 143.299V138.593C133.494 138.254 133.779 137.969 134.136 137.969H141.873C142.229 137.969 142.515 138.236 142.515 138.593V143.299ZM130.677 134.599C130.677 134.938 130.392 135.223 130.053 135.223H122.298C121.942 135.223 121.656 134.956 121.656 134.599V129.893C121.656 129.554 121.942 129.269 122.298 129.269H130.035C130.392 129.269 130.659 129.536 130.659 129.893V134.599H130.677ZM130.677 143.299C130.677 143.638 130.392 143.923 130.053 143.923H122.298C121.942 143.923 121.656 143.656 121.656 143.299V138.593C121.656 138.254 121.942 137.969 122.298 137.969H130.035C130.392 137.969 130.659 138.236 130.659 138.593V143.299H130.677ZM144.868 126.202H118.929C118.572 126.202 118.305 126.47 118.305 126.826V152.997C118.305 153.336 118.59 153.621 118.929 153.621H144.85C145.207 153.621 145.492 153.354 145.492 152.997V126.826C145.492 126.488 145.207 126.202 144.868 126.202Z" fill="white"/>
<path d="M80.9021 84.0577C80.9021 84.236 80.7594 84.3964 80.5633 84.3964H74.7515C74.5732 84.3964 74.4128 84.2538 74.4128 84.0577V77.5862C74.4128 77.4079 74.5554 77.2475 74.7515 77.2475H80.5633C80.7416 77.2475 80.9021 77.3901 80.9021 77.5862V84.0577ZM80.9021 98.9081C80.9021 99.0864 80.7594 99.2469 80.5633 99.2469H74.7515C74.5732 99.2469 74.4128 99.1043 74.4128 98.9081V92.4367C74.4128 92.2584 74.5554 92.1158 74.7515 92.1158H80.5633C80.7416 92.1158 80.9021 92.2584 80.9021 92.4367V98.9081ZM80.9021 113.776C80.9021 113.955 80.7594 114.115 80.5633 114.115H74.7515C74.5732 114.115 74.4128 113.973 74.4128 113.776V107.305C74.4128 107.127 74.5554 106.966 74.7515 106.966H80.5633C80.7416 106.966 80.9021 107.109 80.9021 107.305V113.776ZM80.9021 128.645C80.9021 128.823 80.7594 128.983 80.5633 128.983H74.7515C74.5732 128.983 74.4128 128.841 74.4128 128.645V122.173C74.4128 121.977 74.5554 121.835 74.7515 121.835H80.5633C80.7416 121.835 80.9021 121.977 80.9021 122.173V128.645ZM80.9021 143.513C80.9021 143.691 80.7594 143.852 80.5633 143.852H74.7515C74.5732 143.852 74.4128 143.709 74.4128 143.513V137.042C74.4128 136.863 74.5554 136.703 74.7515 136.703H80.5633C80.7416 136.703 80.9021 136.845 80.9021 137.042V143.513ZM69.5102 84.0577C69.5102 84.236 69.3675 84.3964 69.1714 84.3964H63.3596C63.1813 84.3964 63.0209 84.2538 63.0209 84.0577V77.5862C63.0209 77.4079 63.1635 77.2475 63.3596 77.2475H69.1714C69.3497 77.2475 69.5102 77.3901 69.5102 77.5862V84.0577ZM69.5102 98.9081C69.5102 99.0864 69.3675 99.2469 69.1714 99.2469H63.3596C63.1813 99.2469 63.0209 99.1043 63.0209 98.9081V92.4367C63.0209 92.2584 63.1635 92.1158 63.3596 92.1158H69.1714C69.3497 92.1158 69.5102 92.2584 69.5102 92.4367V98.9081ZM69.5102 113.776C69.5102 113.955 69.3675 114.115 69.1714 114.115H63.3596C63.1813 114.115 63.0209 113.973 63.0209 113.776V107.305C63.0209 107.127 63.1635 106.966 63.3596 106.966H69.1714C69.3497 106.966 69.5102 107.109 69.5102 107.305V113.776ZM69.5102 128.645C69.5102 128.823 69.3675 128.983 69.1714 128.983H63.3596C63.1813 128.983 63.0209 128.841 63.0209 128.645V122.173C63.0209 121.977 63.1635 121.835 63.3596 121.835H69.1714C69.3497 121.835 69.5102 121.977 69.5102 122.173V128.645ZM69.5102 143.513C69.5102 143.691 69.3675 143.852 69.1714 143.852H63.3596C63.1813 143.852 63.0209 143.709 63.0209 143.513V137.042C63.0209 136.863 63.1635 136.703 63.3596 136.703H69.1714C69.3497 136.703 69.5102 136.845 69.5102 137.042V143.513ZM84.5924 65.4456H59.2236C58.8849 65.4456 58.5996 65.7308 58.5996 66.0695V152.766C58.5996 153.104 58.8849 153.39 59.2236 153.39H84.5924C84.9311 153.39 85.2164 153.104 85.2164 152.766V66.0695C85.2164 65.713 84.9311 65.4456 84.5924 65.4456Z" fill="white"/>
<path d="M145.456 123.582C145.456 123.867 145.225 124.099 144.939 124.099H118.857C118.572 124.099 118.34 123.867 118.34 123.582V118.358C118.34 118.073 118.572 117.841 118.857 117.841H144.939C145.225 117.841 145.456 118.073 145.456 118.358V123.582Z" fill="white"/>
<path d="M112.35 108.303C112.35 108.642 112.065 108.927 111.726 108.927H104.167C103.829 108.927 103.543 108.66 103.543 108.303V103.579C103.543 103.222 103.829 102.955 104.167 102.955H111.726C112.065 102.955 112.35 103.222 112.35 103.579V108.303ZM112.35 117.057C112.35 117.396 112.065 117.681 111.726 117.681H104.167C103.829 117.681 103.543 117.396 103.543 117.057V112.315C103.543 111.976 103.829 111.691 104.167 111.691H111.726C112.065 111.691 112.35 111.958 112.35 112.315V117.057ZM112.35 125.81C112.35 126.149 112.065 126.434 111.726 126.434H104.167C103.829 126.434 103.543 126.149 103.543 125.81V121.068C103.543 120.729 103.829 120.444 104.167 120.444H111.726C112.065 120.444 112.35 120.711 112.35 121.068V125.81ZM112.35 134.546C112.35 134.884 112.065 135.17 111.726 135.17H104.167C103.829 135.17 103.543 134.902 103.543 134.546V129.821C103.543 129.483 103.829 129.197 104.167 129.197H111.726C112.065 129.197 112.35 129.465 112.35 129.821V134.546ZM112.35 143.299C112.35 143.638 112.065 143.923 111.726 143.923H104.167C103.829 143.923 103.543 143.656 103.543 143.299V138.575C103.543 138.236 103.829 137.951 104.167 137.951H111.726C112.065 137.951 112.35 138.218 112.35 138.575V143.299ZM100.816 106.645V106.877V117.075C100.816 117.413 100.53 117.699 100.192 117.699H92.6328C92.2941 117.699 92.0088 117.413 92.0088 117.075V115.809V115.755C92.0088 115.666 92.0266 115.595 92.0623 115.524C92.0801 115.506 92.0801 115.488 92.098 115.452C92.1158 115.417 92.1336 115.399 92.1514 115.363C92.1693 115.327 92.2049 115.292 92.2228 115.256C93.1854 113.866 97.5532 108.499 99.3895 106.253L99.5678 106.039C99.7104 105.879 99.9065 105.772 100.12 105.772C100.477 105.772 100.744 106.021 100.816 106.36V106.645ZM100.798 125.81C100.798 126.149 100.53 126.434 100.174 126.434H92.615C92.2762 126.434 91.991 126.149 91.991 125.81V121.068C91.991 120.729 92.2584 120.444 92.615 120.444H100.174C100.513 120.444 100.798 120.711 100.798 121.068V125.81ZM100.798 134.546C100.798 134.884 100.53 135.17 100.174 135.17H92.615C92.2762 135.17 91.991 134.902 91.991 134.546V129.821C91.991 129.483 92.2584 129.197 92.615 129.197H100.174C100.513 129.197 100.798 129.465 100.798 129.821V134.546ZM100.798 143.299C100.798 143.638 100.53 143.923 100.174 143.923H92.615C92.2762 143.923 91.991 143.656 91.991 143.299V138.575C91.991 138.236 92.2584 137.951 92.615 137.951H100.174C100.513 137.951 100.798 138.218 100.798 138.575V143.299ZM104.738 98.9973L104.916 98.7656C106.628 96.5728 109.498 93.0429 110.906 91.3136L111.084 91.0997C111.227 90.9392 111.423 90.8322 111.637 90.8322C111.994 90.8322 112.261 91.0818 112.332 91.4206V91.7058V91.9376V99.4252C112.332 99.8174 112.029 100.12 111.637 100.138C111.619 100.138 111.619 100.138 111.601 100.138C111.584 100.138 111.584 100.138 111.566 100.138H105.647H105.362C105.344 100.138 105.344 100.138 105.326 100.138C105.308 100.138 105.308 100.138 105.29 100.138C104.916 100.12 104.595 99.8174 104.595 99.4252C104.595 99.2647 104.649 99.1221 104.738 98.9973ZM115.238 81.8114C115.149 81.5262 114.9 81.3301 114.597 81.3301C114.454 81.3301 114.347 81.3836 114.24 81.4549C114.222 81.4727 114.204 81.4727 114.186 81.4905L113.973 81.7579L89.0494 113.384L88.9246 113.545C88.7998 113.67 88.7107 113.848 88.7107 114.044V114.08V152.908C88.7107 153.247 88.9959 153.532 89.3347 153.532H114.686C115.024 153.532 115.31 153.265 115.31 152.908V82.0788C115.31 81.9897 115.274 81.9006 115.238 81.8114Z" fill="white"/>
<path d="M145.417 48.1651C144.667 48.1651 144.042 48.0301 143.542 47.7601C143.042 47.4801 142.662 47.0651 142.402 46.5151C142.152 45.9551 142.007 45.2451 141.967 44.3851L144.097 44.0251C144.117 44.5251 144.167 44.9451 144.247 45.2851C144.337 45.6151 144.467 45.8651 144.637 46.0351C144.817 46.1951 145.037 46.2751 145.297 46.2751C145.617 46.2751 145.832 46.1751 145.942 45.9751C146.062 45.7751 146.122 45.5451 146.122 45.2851C146.122 44.7751 145.997 44.3501 145.747 44.0101C145.507 43.6601 145.187 43.3101 144.787 42.9601L143.527 41.8651C143.077 41.4851 142.707 41.0551 142.417 40.5751C142.137 40.0951 141.997 39.5051 141.997 38.8051C141.997 37.8051 142.287 37.0401 142.867 36.5101C143.457 35.9701 144.262 35.7001 145.282 35.7001C145.892 35.7001 146.392 35.8001 146.782 36.0001C147.172 36.2001 147.472 36.4701 147.682 36.8101C147.902 37.1401 148.052 37.5051 148.132 37.9051C148.222 38.2951 148.277 38.6851 148.297 39.0751L146.182 39.3901C146.162 39.0201 146.127 38.6951 146.077 38.4151C146.037 38.1351 145.947 37.9151 145.807 37.7551C145.677 37.5951 145.477 37.5151 145.207 37.5151C144.917 37.5151 144.702 37.6251 144.562 37.8451C144.422 38.0551 144.352 38.2901 144.352 38.5501C144.352 38.9801 144.447 39.3351 144.637 39.6151C144.837 39.8851 145.107 40.1701 145.447 40.4701L146.677 41.5501C147.187 41.9901 147.622 42.4951 147.982 43.0651C148.352 43.6251 148.537 44.3201 148.537 45.1501C148.537 45.7201 148.407 46.2351 148.147 46.6951C147.887 47.1551 147.522 47.5151 147.052 47.7751C146.592 48.0351 146.047 48.1651 145.417 48.1651Z" fill="white"/>
<path d="M136.189 48V35.85H141.484V37.56H138.664V40.785H140.839V42.51H138.664V46.32H141.514V48H136.189Z" fill="white"/>
<path d="M132.369 48V35.85H134.829V48H132.369Z" fill="white"/>
<path d="M127.402 48V37.695H125.527V35.85H131.737V37.695H129.892V48H127.402Z" fill="white"/>
<path d="M122.441 48V35.85H124.901V48H122.441Z" fill="white"/>
<path d="M114.605 48V35.85H116.33L119.03 42.18V35.85H121.07V48H119.42L116.72 41.28V48H114.605Z" fill="white"/>
<path d="M109.854 48.165C108.934 48.165 108.219 48.01 107.709 47.7C107.199 47.38 106.839 46.925 106.629 46.335C106.429 45.735 106.329 45.01 106.329 44.16V35.85H108.774V44.505C108.774 44.805 108.794 45.1 108.834 45.39C108.884 45.68 108.984 45.915 109.134 46.095C109.294 46.275 109.534 46.365 109.854 46.365C110.184 46.365 110.424 46.275 110.574 46.095C110.734 45.915 110.834 45.68 110.874 45.39C110.914 45.1 110.934 44.805 110.934 44.505V35.85H113.379V44.16C113.379 45.01 113.274 45.735 113.064 46.335C112.864 46.925 112.509 47.38 111.999 47.7C111.489 48.01 110.774 48.165 109.854 48.165Z" fill="white"/>
<path d="M96.4587 48L96.6687 35.85H99.2937L100.794 43.515L102.399 35.85H104.934L105.144 48H103.344L103.149 39.765L101.604 48H100.059L98.4387 39.705L98.2737 48H96.4587Z" fill="white"/>
<path d="M86.5291 48L86.7391 35.85H89.3641L90.8641 43.515L92.4691 35.85H95.0041L95.2141 48H93.4141L93.2191 39.765L91.6741 48H90.1291L88.5091 39.705L88.3441 48H86.5291Z" fill="white"/>
<path d="M81.8215 48.1651C80.9315 48.1651 80.2265 48.0051 79.7065 47.6851C79.1865 47.3651 78.8115 46.9101 78.5815 46.3201C78.3615 45.7201 78.2515 45.0051 78.2515 44.1751V39.6451C78.2515 38.8151 78.3615 38.1051 78.5815 37.5151C78.8115 36.9251 79.1865 36.4751 79.7065 36.1651C80.2265 35.8551 80.9315 35.7001 81.8215 35.7001C82.7215 35.7001 83.4315 35.8601 83.9515 36.1801C84.4815 36.4901 84.8565 36.9401 85.0765 37.5301C85.3065 38.1101 85.4215 38.8151 85.4215 39.6451V44.1751C85.4215 45.0051 85.3065 45.7201 85.0765 46.3201C84.8565 46.9101 84.4815 47.3651 83.9515 47.6851C83.4315 48.0051 82.7215 48.1651 81.8215 48.1651ZM81.8215 46.3801C82.1415 46.3801 82.3765 46.3101 82.5265 46.1701C82.6765 46.0201 82.7765 45.8251 82.8265 45.5851C82.8765 45.3351 82.9015 45.0701 82.9015 44.7901V39.0451C82.9015 38.7651 82.8765 38.5051 82.8265 38.2651C82.7765 38.0251 82.6765 37.8351 82.5265 37.6951C82.3765 37.5451 82.1415 37.4701 81.8215 37.4701C81.5215 37.4701 81.2965 37.5451 81.1465 37.6951C80.9965 37.8351 80.8965 38.0251 80.8465 38.2651C80.7965 38.5051 80.7715 38.7651 80.7715 39.0451V44.7901C80.7715 45.0701 80.7915 45.3351 80.8315 45.5851C80.8815 45.8251 80.9815 46.0201 81.1315 46.1701C81.2815 46.3101 81.5115 46.3801 81.8215 46.3801Z" fill="white"/>
<path d="M74.0154 48.1651C73.1154 48.1651 72.4004 47.9951 71.8704 47.6551C71.3504 47.3151 70.9854 46.8451 70.7754 46.2451C70.5654 45.6351 70.4604 44.9301 70.4604 44.1301V39.7651C70.4604 38.9251 70.5654 38.2051 70.7754 37.6051C70.9854 36.9951 71.3504 36.5251 71.8704 36.1951C72.4004 35.8651 73.1154 35.7001 74.0154 35.7001C74.8854 35.7001 75.5655 35.8451 76.0555 36.1351C76.5555 36.4251 76.9054 36.8351 77.1054 37.3651C77.3154 37.8951 77.4204 38.5101 77.4204 39.2101V40.2301H75.0205V39.0901C75.0205 38.8101 75.0054 38.5501 74.9754 38.3101C74.9454 38.0601 74.8604 37.8601 74.7204 37.7101C74.5904 37.5501 74.3604 37.4701 74.0304 37.4701C73.7004 37.4701 73.4604 37.5501 73.3104 37.7101C73.1604 37.8701 73.0654 38.0801 73.0254 38.3401C72.9854 38.5901 72.9654 38.8701 72.9654 39.1801V44.7001C72.9654 45.0401 72.9904 45.3401 73.0404 45.6001C73.1004 45.8501 73.2054 46.0451 73.3554 46.1851C73.5154 46.3151 73.7404 46.3801 74.0304 46.3801C74.3504 46.3801 74.5754 46.3051 74.7054 46.1551C74.8454 45.9951 74.9304 45.7851 74.9604 45.5251C75.0004 45.2651 75.0205 44.9901 75.0205 44.7001V43.5151H77.4204V44.5201C77.4204 45.2301 77.3204 45.8601 77.1204 46.4101C76.9204 46.9501 76.5754 47.3801 76.0854 47.7001C75.5954 48.0101 74.9054 48.1651 74.0154 48.1651Z" fill="white"/>
<path d="M59.292 48V35.85H62.262C63.292 35.85 64.092 35.985 64.662 36.255C65.242 36.515 65.652 36.93 65.892 37.5C66.132 38.06 66.252 38.78 66.252 39.66V44.085C66.252 44.985 66.132 45.725 65.892 46.305C65.652 46.885 65.247 47.315 64.677 47.595C64.117 47.865 63.332 48 62.322 48H59.292ZM61.767 46.275H62.292C62.752 46.275 63.077 46.205 63.267 46.065C63.467 45.915 63.592 45.7 63.642 45.42C63.692 45.13 63.717 44.775 63.717 44.355V39.345C63.717 38.925 63.682 38.59 63.612 38.34C63.552 38.08 63.422 37.89 63.222 37.77C63.032 37.65 62.717 37.59 62.277 37.59H61.767V46.275Z" fill="white"/>
<path d="M51.4863 48V35.85H53.2113L55.9113 42.18V35.85H57.9513V48H56.3013L53.6013 41.28V48H51.4863Z" fill="white"/>
<path d="M43.3149 48L45.6699 35.85H48.4149L50.7549 48H48.4599L48.0249 45.33H46.1049L45.6399 48H43.3149ZM46.3299 43.815H47.7849L47.0499 38.91L46.3299 43.815Z" fill="white"/>
<path d="M152.676 27.1651C151.926 27.1651 151.301 27.0301 150.801 26.7601C150.301 26.4801 149.921 26.0651 149.661 25.5151C149.411 24.9551 149.266 24.2451 149.226 23.3851L151.356 23.0251C151.376 23.5251 151.426 23.9451 151.506 24.2851C151.596 24.6151 151.726 24.8651 151.896 25.0351C152.076 25.1951 152.296 25.2751 152.556 25.2751C152.876 25.2751 153.091 25.1751 153.201 24.9751C153.321 24.7751 153.381 24.5451 153.381 24.2851C153.381 23.7751 153.256 23.3501 153.006 23.0101C152.766 22.6601 152.446 22.3101 152.046 21.9601L150.786 20.8651C150.336 20.4851 149.966 20.0551 149.676 19.5751C149.396 19.0951 149.256 18.5051 149.256 17.8051C149.256 16.8051 149.546 16.0401 150.126 15.5101C150.716 14.9701 151.521 14.7001 152.541 14.7001C153.151 14.7001 153.651 14.8001 154.041 15.0001C154.431 15.2001 154.731 15.4701 154.941 15.8101C155.161 16.1401 155.311 16.5051 155.391 16.9051C155.481 17.2951 155.536 17.6851 155.556 18.0751L153.441 18.3901C153.421 18.0201 153.386 17.6951 153.336 17.4151C153.296 17.1351 153.206 16.9151 153.066 16.7551C152.936 16.5951 152.736 16.5151 152.466 16.5151C152.176 16.5151 151.961 16.6251 151.821 16.8451C151.681 17.0551 151.611 17.2901 151.611 17.5501C151.611 17.9801 151.706 18.3351 151.896 18.6151C152.096 18.8851 152.366 19.1701 152.706 19.4701L153.936 20.5501C154.446 20.9901 154.881 21.4951 155.241 22.0651C155.611 22.6251 155.796 23.3201 155.796 24.1501C155.796 24.7201 155.666 25.2351 155.406 25.6951C155.146 26.1551 154.781 26.5151 154.311 26.7751C153.851 27.0351 153.306 27.1651 152.676 27.1651Z" fill="white"/>
<path d="M143.449 27V14.85H148.744V16.56H145.924V19.785H148.099V21.51H145.924V25.32H148.774V27H143.449Z" fill="white"/>
<path d="M139.628 27V14.85H142.088V27H139.628Z" fill="white"/>
<path d="M134.661 27V16.695H132.786V14.85H138.996V16.695H137.151V27H134.661Z" fill="white"/>
<path d="M129.701 27V14.85H132.161V27H129.701Z" fill="white"/>
<path d="M125.255 27.1651C124.355 27.1651 123.64 26.9951 123.11 26.6551C122.59 26.3151 122.225 25.8451 122.015 25.2451C121.805 24.6351 121.7 23.9301 121.7 23.1301V18.7651C121.7 17.9251 121.805 17.2051 122.015 16.6051C122.225 15.9951 122.59 15.5251 123.11 15.1951C123.64 14.8651 124.355 14.7001 125.255 14.7001C126.125 14.7001 126.805 14.8451 127.295 15.1351C127.795 15.4251 128.145 15.8351 128.345 16.3651C128.555 16.8951 128.66 17.5101 128.66 18.2101V19.2301H126.26V18.0901C126.26 17.8101 126.245 17.5501 126.215 17.3101C126.185 17.0601 126.1 16.8601 125.96 16.7101C125.83 16.5501 125.6 16.4701 125.27 16.4701C124.94 16.4701 124.7 16.5501 124.55 16.7101C124.4 16.8701 124.305 17.0801 124.265 17.3401C124.225 17.5901 124.205 17.8701 124.205 18.1801V23.7001C124.205 24.0401 124.23 24.3401 124.28 24.6001C124.34 24.8501 124.445 25.0451 124.595 25.1851C124.755 25.3151 124.98 25.3801 125.27 25.3801C125.59 25.3801 125.815 25.3051 125.945 25.1551C126.085 24.9951 126.17 24.7851 126.2 24.5251C126.24 24.2651 126.26 23.9901 126.26 23.7001V22.5151H128.66V23.5201C128.66 24.2301 128.56 24.8601 128.36 25.4101C128.16 25.9501 127.815 26.3801 127.325 26.7001C126.835 27.0101 126.145 27.1651 125.255 27.1651Z" fill="white"/>
<path d="M112.553 27V14.85H117.848V16.56H115.028V19.785H117.203V21.51H115.028V25.32H117.878V27H112.553Z" fill="white"/>
<path d="M106.563 27V14.85H109.038V25.32H111.888V27H106.563Z" fill="white"/>
<path d="M98.4502 27V14.85H101.525C102.055 14.85 102.545 14.895 102.995 14.985C103.445 15.075 103.84 15.235 104.18 15.465C104.53 15.695 104.795 16.015 104.975 16.425C105.165 16.825 105.26 17.35 105.26 18C105.26 18.49 105.19 18.91 105.05 19.26C104.91 19.6 104.71 19.87 104.45 20.07C104.19 20.27 103.87 20.405 103.49 20.475C103.96 20.545 104.355 20.705 104.675 20.955C104.995 21.205 105.235 21.535 105.395 21.945C105.555 22.355 105.635 22.85 105.635 23.43C105.635 24.04 105.555 24.57 105.395 25.02C105.245 25.47 105.02 25.84 104.72 26.13C104.42 26.42 104.05 26.64 103.61 26.79C103.17 26.93 102.66 27 102.08 27H98.4502ZM100.925 25.26H101.615C102.235 25.26 102.66 25.105 102.89 24.795C103.13 24.485 103.25 24.02 103.25 23.4C103.25 22.92 103.195 22.54 103.085 22.26C102.975 21.97 102.795 21.76 102.545 21.63C102.305 21.49 101.98 21.42 101.57 21.42H100.925V25.26ZM100.925 19.755H101.54C101.97 19.755 102.295 19.695 102.515 19.575C102.735 19.445 102.885 19.255 102.965 19.005C103.055 18.745 103.1 18.43 103.1 18.06C103.1 17.69 103.035 17.395 102.905 17.175C102.785 16.945 102.595 16.78 102.335 16.68C102.085 16.58 101.765 16.53 101.375 16.53H100.925V19.755Z" fill="white"/>
<path d="M90.2788 27L92.6338 14.85H95.3788L97.7188 27H95.4238L94.9888 24.33H93.0688L92.6038 27H90.2788ZM93.2938 22.815H94.7488L94.0138 17.91L93.2938 22.815Z" fill="white"/>
<path d="M83.0732 27V14.85H84.7982L87.4982 21.18V14.85H89.5382V27H87.8882L85.1882 20.28V27H83.0732Z" fill="white"/>
<path d="M79.2524 27V14.85H81.7124V27H79.2524Z" fill="white"/>
<path d="M71.0513 27L73.4063 14.85H76.1513L78.4913 27H76.1963L75.7613 24.33H73.8413L73.3763 27H71.0513ZM74.0663 22.815H75.5213L74.7863 17.91L74.0663 22.815Z" fill="white"/>
<path d="M67.3733 27V16.695H65.4983V14.85H71.7083V16.695H69.8633V27H67.3733Z" fill="white"/>
<path d="M62.3101 27.1651C61.5601 27.1651 60.9351 27.0301 60.4351 26.7601C59.9351 26.4801 59.5551 26.0651 59.2951 25.5151C59.0451 24.9551 58.9001 24.2451 58.8601 23.3851L60.9901 23.0251C61.0101 23.5251 61.0601 23.9451 61.1401 24.2851C61.2301 24.6151 61.3601 24.8651 61.5301 25.0351C61.7101 25.1951 61.9301 25.2751 62.1901 25.2751C62.5101 25.2751 62.7251 25.1751 62.8351 24.9751C62.9551 24.7751 63.0151 24.5451 63.0151 24.2851C63.0151 23.7751 62.8901 23.3501 62.6401 23.0101C62.4001 22.6601 62.0801 22.3101 61.6801 21.9601L60.4201 20.8651C59.9701 20.4851 59.6001 20.0551 59.3101 19.5751C59.0301 19.0951 58.8901 18.5051 58.8901 17.8051C58.8901 16.8051 59.1801 16.0401 59.7601 15.5101C60.3501 14.9701 61.1551 14.7001 62.1751 14.7001C62.7851 14.7001 63.2851 14.8001 63.6751 15.0001C64.0651 15.2001 64.3651 15.4701 64.5751 15.8101C64.7951 16.1401 64.9451 16.5051 65.0251 16.9051C65.1151 17.2951 65.1701 17.6851 65.1901 18.0751L63.0751 18.3901C63.0551 18.0201 63.0201 17.6951 62.9701 17.4151C62.9301 17.1351 62.8401 16.9151 62.7001 16.7551C62.5701 16.5951 62.3701 16.5151 62.1001 16.5151C61.8101 16.5151 61.5951 16.6251 61.4551 16.8451C61.3151 17.0551 61.2451 17.2901 61.2451 17.5501C61.2451 17.9801 61.3401 18.3351 61.5301 18.6151C61.7301 18.8851 62.0001 19.1701 62.3401 19.4701L63.5701 20.5501C64.0801 20.9901 64.5151 21.4951 64.8751 22.0651C65.2451 22.6251 65.4301 23.3201 65.4301 24.1501C65.4301 24.7201 65.3001 25.2351 65.0401 25.6951C64.7801 26.1551 64.4151 26.5151 63.9451 26.7751C63.4851 27.0351 62.9401 27.1651 62.3101 27.1651Z" fill="white"/>
<path d="M54.4083 27.165C53.4883 27.165 52.7733 27.01 52.2633 26.7C51.7533 26.38 51.3933 25.925 51.1833 25.335C50.9833 24.735 50.8833 24.01 50.8833 23.16V14.85H53.3283V23.505C53.3283 23.805 53.3483 24.1 53.3883 24.39C53.4383 24.68 53.5383 24.915 53.6883 25.095C53.8483 25.275 54.0883 25.365 54.4083 25.365C54.7383 25.365 54.9783 25.275 55.1283 25.095C55.2883 24.915 55.3883 24.68 55.4283 24.39C55.4683 24.1 55.4883 23.805 55.4883 23.505V14.85H57.9333V23.16C57.9333 24.01 57.8283 24.735 57.6183 25.335C57.4183 25.925 57.0633 26.38 56.5533 26.7C56.0433 27.01 55.3283 27.165 54.4083 27.165Z" fill="white"/>
<path d="M47.065 27.1651C46.315 27.1651 45.69 27.0301 45.19 26.7601C44.69 26.4801 44.31 26.0651 44.05 25.5151C43.8 24.9551 43.655 24.2451 43.615 23.3851L45.745 23.0251C45.765 23.5251 45.815 23.9451 45.895 24.2851C45.985 24.6151 46.115 24.8651 46.285 25.0351C46.465 25.1951 46.685 25.2751 46.945 25.2751C47.265 25.2751 47.48 25.1751 47.59 24.9751C47.71 24.7751 47.77 24.5451 47.77 24.2851C47.77 23.7751 47.645 23.3501 47.395 23.0101C47.155 22.6601 46.835 22.3101 46.435 21.9601L45.175 20.8651C44.725 20.4851 44.355 20.0551 44.065 19.5751C43.785 19.0951 43.645 18.5051 43.645 17.8051C43.645 16.8051 43.935 16.0401 44.515 15.5101C45.105 14.9701 45.91 14.7001 46.93 14.7001C47.54 14.7001 48.04 14.8001 48.43 15.0001C48.82 15.2001 49.12 15.4701 49.33 15.8101C49.55 16.1401 49.7 16.5051 49.78 16.9051C49.87 17.2951 49.925 17.6851 49.945 18.0751L47.83 18.3901C47.81 18.0201 47.775 17.6951 47.725 17.4151C47.685 17.1351 47.595 16.9151 47.455 16.7551C47.325 16.5951 47.125 16.5151 46.855 16.5151C46.565 16.5151 46.35 16.6251 46.21 16.8451C46.07 17.0551 46 17.2901 46 17.5501C46 17.9801 46.095 18.3351 46.285 18.6151C46.485 18.8851 46.755 19.1701 47.095 19.4701L48.325 20.5501C48.835 20.9901 49.27 21.4951 49.63 22.0651C50 22.6251 50.185 23.3201 50.185 24.1501C50.185 24.7201 50.055 25.2351 49.795 25.6951C49.535 26.1551 49.17 26.5151 48.7 26.7751C48.24 27.0351 47.695 27.1651 47.065 27.1651Z" fill="white"/>
</g>
<defs>
<clipPath id="clip0_143_5271">
<rect width="173" height="173" fill="white"/>
</clipPath>
</defs>
</svg>
