<svg width="173" height="173" viewBox="0 0 173 173" fill="none" xmlns="http://www.w3.org/2000/svg">
<g clip-path="url(#clip0_143_6192)">
<path d="M0 0H173V173H0V0Z" fill="#241F20"/>
<path d="M52.2567 121.1C51.9 120.922 51.5433 120.922 51.1866 120.743C51.1866 120.922 51.7217 120.922 52.2567 121.1Z" fill="white"/>
<path d="M14.4465 47.9763V21.4021L9.45264 23.1856V18.3701C10.5227 17.8351 11.7712 17.3 13.0196 16.765C14.4465 16.0516 15.3382 15.5165 15.8733 14.8031H20.8671V47.9763H14.4465Z" fill="white"/>
<path d="M24 47.9763V43.5176L32.0258 31.033C32.2041 30.8547 32.3825 30.498 32.9175 29.6062C33.4526 28.7145 33.8093 28.1794 33.9876 28.0011C34.166 27.6444 34.3443 27.2877 34.701 26.5743C35.0577 25.8608 35.2361 25.3258 35.4144 24.7907C35.5928 24.2557 35.5928 23.7206 35.5928 23.0072C35.5928 21.9371 35.4144 21.0454 34.8794 20.332C34.5227 19.7969 33.9876 19.6186 33.2742 19.6186C33.0959 19.6186 33.0959 19.6186 32.9175 19.6186C31.134 19.7969 30.2423 21.4021 30.2423 24.6124V26.0392H24V24.434C24 22.8289 24.1784 21.5804 24.5351 20.332C24.8918 19.0835 25.4268 18.0134 26.1402 17.1217C26.8536 16.2299 27.7454 15.5165 28.9938 14.9815C30.0639 14.6248 31.4907 14.2681 33.0959 14.2681C35.9495 14.2681 38.0897 15.1598 39.5165 16.5866C40.9433 18.1918 41.6567 20.332 41.6567 23.0072C41.6567 23.899 41.4784 24.7907 41.3 25.6825C41.1217 26.5743 40.7649 27.466 40.4082 28.1794C40.0515 28.8928 39.6948 29.7846 39.3381 30.3196C38.9814 30.8547 38.4464 31.5681 37.9113 32.4598C37.733 32.8165 37.5546 32.9949 37.5546 33.1732L31.134 42.8041H40.9433V47.798H24V47.9763Z" fill="white"/>
<path d="M131.444 89.7104C123.775 83.6465 113.609 83.4681 109.864 84.3599L109.507 84.5382C105.227 85.6083 98.4495 87.2135 90.4238 97.2011C90.4238 97.2011 90.4238 97.3795 90.2454 97.3795L90.0671 97.5578C90.0671 97.7362 89.8887 97.7362 89.8887 97.9145V98.2712L90.0671 98.6279C91.1372 100.233 92.3856 102.552 93.4557 104.513C93.6341 104.692 93.8124 104.87 93.9908 104.87C94.1691 104.87 94.3475 104.87 94.5258 104.692L94.7042 104.513C101.838 94.7042 107.367 93.2774 111.112 92.3857L111.469 92.2073C113.431 91.6723 120.922 91.8506 126.272 95.9527C130.374 99.3413 132.693 104.513 132.693 111.648C132.693 123.597 126.986 128.234 121.992 130.018C114.501 132.871 107.189 129.126 107.189 128.948H107.01C102.908 127.164 96.666 123.419 90.9588 111.826C79.1877 88.2836 69.5568 86.1434 62.9578 84.7166H62.6011C59.5691 84.0032 49.4032 83.6465 41.3774 90.0671C37.097 93.4558 32.1031 99.8764 32.1031 112.004C32.1031 119.317 33.53 124.132 37.4537 129.304C38.3454 130.553 46.9062 141.61 63.6712 138.4C66.3465 137.865 69.9135 136.617 74.0155 133.585L77.7609 136.973C77.9392 137.152 78.2959 137.152 78.6526 136.973C78.831 136.795 78.831 136.795 78.831 136.617L81.5062 120.208V119.495C81.5062 119.317 81.5062 119.138 81.3279 119.138C81.1495 118.96 81.1495 118.96 80.9712 118.96H80.7928H80.6145L64.9196 123.419H64.5629C64.3846 123.419 64.3846 123.597 64.2062 123.597C64.0279 123.775 64.0279 124.132 64.2062 124.489L64.3846 124.667L67.9516 127.877C65.633 129.304 63.6712 130.018 62.2444 130.374C50.1166 132.693 44.0526 124.667 43.8743 124.489V124.31C41.0207 120.565 40.1289 117.533 40.1289 111.826C40.1289 104.692 42.2691 99.3413 46.3712 96.131C51.5434 92.029 58.8557 91.8506 60.8176 92.3857H61.1743C66.5248 93.6341 73.8372 95.2393 83.8248 115.393C88.997 125.916 95.5959 132.693 103.8 136.26C104.87 136.795 109.864 139.113 116.285 139.113C118.96 139.113 121.992 138.757 125.024 137.508C129.839 135.725 140.897 129.661 140.897 111.648C140.897 99.698 135.725 93.0991 131.444 89.7104Z" fill="white"/>
<path d="M145.834 69V56.85H147.559L150.259 63.18V56.85H152.299V69H150.649L147.949 62.28V69H145.834Z" fill="white"/>
<path d="M141.081 69.165C140.191 69.165 139.486 69.005 138.966 68.685C138.446 68.365 138.071 67.91 137.841 67.32C137.621 66.7199 137.511 66.0049 137.511 65.1749V60.645C137.511 59.815 137.621 59.1049 137.841 58.5149C138.071 57.925 138.446 57.475 138.966 57.165C139.486 56.855 140.191 56.7 141.081 56.7C141.981 56.7 142.691 56.86 143.211 57.18C143.741 57.49 144.116 57.9399 144.336 58.5299C144.566 59.1099 144.681 59.815 144.681 60.645V65.1749C144.681 66.0049 144.566 66.7199 144.336 67.32C144.116 67.91 143.741 68.365 143.211 68.685C142.691 69.005 141.981 69.165 141.081 69.165ZM141.081 67.38C141.401 67.38 141.636 67.3099 141.786 67.1699C141.936 67.0199 142.036 66.8249 142.086 66.5849C142.136 66.3349 142.161 66.07 142.161 65.79V60.0449C142.161 59.7649 142.136 59.505 142.086 59.2649C142.036 59.025 141.936 58.8349 141.786 58.695C141.636 58.545 141.401 58.47 141.081 58.47C140.781 58.47 140.556 58.545 140.406 58.695C140.256 58.8349 140.156 59.025 140.106 59.2649C140.056 59.505 140.031 59.7649 140.031 60.0449V65.79C140.031 66.07 140.051 66.3349 140.091 66.5849C140.141 66.8249 140.241 67.0199 140.391 67.1699C140.541 67.3099 140.771 67.38 141.081 67.38Z" fill="white"/>
<path d="M133.871 69V56.85H136.331V69H133.871Z" fill="white"/>
<path d="M128.904 69V58.695H127.029V56.85H133.239V58.695H131.394V69H128.904Z" fill="white"/>
<path d="M123.348 69.165C122.448 69.165 121.733 68.9949 121.203 68.6549C120.683 68.3149 120.318 67.8449 120.108 67.2449C119.898 66.6349 119.793 65.93 119.793 65.13V60.7649C119.793 59.9249 119.898 59.2049 120.108 58.6049C120.318 57.995 120.683 57.525 121.203 57.195C121.733 56.865 122.448 56.7 123.348 56.7C124.218 56.7 124.898 56.8449 125.388 57.1349C125.888 57.4249 126.238 57.8349 126.438 58.3649C126.648 58.8949 126.753 59.5099 126.753 60.2099V61.2299H124.353V60.09C124.353 59.81 124.338 59.55 124.308 59.31C124.278 59.06 124.193 58.86 124.053 58.7099C123.923 58.5499 123.693 58.47 123.363 58.47C123.033 58.47 122.793 58.5499 122.643 58.7099C122.493 58.8699 122.398 59.08 122.358 59.34C122.318 59.59 122.298 59.87 122.298 60.18V65.7C122.298 66.04 122.323 66.3399 122.373 66.5999C122.433 66.8499 122.538 67.045 122.688 67.185C122.848 67.315 123.073 67.38 123.363 67.38C123.683 67.38 123.908 67.3049 124.038 67.1549C124.178 66.9949 124.263 66.785 124.293 66.525C124.333 66.265 124.353 65.99 124.353 65.7V64.5149H126.753V65.52C126.753 66.23 126.653 66.86 126.453 67.41C126.253 67.95 125.908 68.38 125.418 68.7C124.928 69.01 124.238 69.165 123.348 69.165Z" fill="white"/>
<path d="M115.221 69.165C114.301 69.165 113.586 69.01 113.076 68.7C112.566 68.38 112.206 67.925 111.996 67.335C111.796 66.735 111.696 66.01 111.696 65.16V56.85H114.141V65.505C114.141 65.805 114.161 66.1 114.201 66.39C114.251 66.68 114.351 66.915 114.501 67.095C114.661 67.275 114.901 67.365 115.221 67.365C115.551 67.365 115.791 67.275 115.941 67.095C116.101 66.915 116.201 66.68 116.241 66.39C116.281 66.1 116.301 65.805 116.301 65.505V56.85H118.746V65.16C118.746 66.01 118.641 66.735 118.431 67.335C118.231 67.925 117.876 68.38 117.366 68.7C116.856 69.01 116.141 69.165 115.221 69.165Z" fill="white"/>
<path d="M103.702 69V56.85H106.672C107.702 56.85 108.502 56.985 109.072 57.255C109.652 57.515 110.062 57.93 110.302 58.5C110.542 59.06 110.662 59.78 110.662 60.66V65.085C110.662 65.985 110.542 66.725 110.302 67.305C110.062 67.885 109.657 68.315 109.087 68.595C108.527 68.865 107.742 69 106.732 69H103.702ZM106.177 67.275H106.702C107.162 67.275 107.487 67.205 107.677 67.065C107.877 66.915 108.002 66.7 108.052 66.42C108.102 66.13 108.127 65.775 108.127 65.355V60.345C108.127 59.925 108.092 59.59 108.022 59.34C107.962 59.08 107.832 58.89 107.632 58.77C107.442 58.65 107.127 58.59 106.687 58.59H106.177V67.275Z" fill="white"/>
<path d="M98.9496 69.165C98.0596 69.165 97.3546 69.005 96.8346 68.685C96.3146 68.365 95.9396 67.91 95.7096 67.32C95.4896 66.7199 95.3796 66.0049 95.3796 65.1749V60.645C95.3796 59.815 95.4896 59.1049 95.7096 58.5149C95.9396 57.925 96.3146 57.475 96.8346 57.165C97.3546 56.855 98.0596 56.7 98.9496 56.7C99.8496 56.7 100.56 56.86 101.08 57.18C101.61 57.49 101.985 57.9399 102.205 58.5299C102.435 59.1099 102.55 59.815 102.55 60.645V65.1749C102.55 66.0049 102.435 66.7199 102.205 67.32C101.985 67.91 101.61 68.365 101.08 68.685C100.56 69.005 99.8496 69.165 98.9496 69.165ZM98.9496 67.38C99.2696 67.38 99.5046 67.3099 99.6546 67.1699C99.8046 67.0199 99.9046 66.8249 99.9546 66.5849C100.005 66.3349 100.03 66.07 100.03 65.79V60.0449C100.03 59.7649 100.005 59.505 99.9546 59.2649C99.9046 59.025 99.8046 58.8349 99.6546 58.695C99.5046 58.545 99.2696 58.47 98.9496 58.47C98.6496 58.47 98.4246 58.545 98.2746 58.695C98.1246 58.8349 98.0246 59.025 97.9746 59.2649C97.9246 59.505 97.8996 59.7649 97.8996 60.0449V65.79C97.8996 66.07 97.9196 66.3349 97.9596 66.5849C98.0096 66.8249 98.1096 67.0199 98.2596 67.1699C98.4096 67.3099 98.6396 67.38 98.9496 67.38Z" fill="white"/>
<path d="M87.417 69V56.85H90.567C91.387 56.85 92.087 56.945 92.667 57.135C93.257 57.315 93.707 57.64 94.017 58.11C94.337 58.58 94.497 59.23 94.497 60.06C94.497 60.56 94.452 61.005 94.362 61.395C94.282 61.775 94.132 62.11 93.912 62.4C93.702 62.68 93.402 62.905 93.012 63.075L94.692 69H92.157L90.762 63.495H89.892V69H87.417ZM89.892 62.025H90.612C91.012 62.025 91.327 61.96 91.557 61.83C91.787 61.7 91.947 61.505 92.037 61.245C92.137 60.975 92.187 60.645 92.187 60.255C92.187 59.695 92.082 59.27 91.872 58.98C91.672 58.68 91.292 58.53 90.732 58.53H89.892V62.025Z" fill="white"/>
<path d="M79.6406 69V56.85H83.4956C84.2256 56.85 84.8206 56.99 85.2806 57.27C85.7406 57.54 86.0806 57.935 86.3006 58.455C86.5306 58.975 86.6456 59.605 86.6456 60.345C86.6456 61.215 86.4956 61.895 86.1956 62.385C85.9056 62.875 85.5056 63.225 84.9956 63.435C84.4856 63.635 83.9006 63.735 83.2406 63.735H82.1156V69H79.6406ZM82.1156 61.995H82.9856C83.3456 61.995 83.6206 61.94 83.8106 61.83C84.0106 61.71 84.1456 61.525 84.2156 61.275C84.2856 61.025 84.3206 60.705 84.3206 60.315C84.3206 59.945 84.2906 59.635 84.2306 59.385C84.1806 59.135 84.0606 58.94 83.8706 58.8C83.6806 58.66 83.3806 58.59 82.9706 58.59H82.1156V61.995Z" fill="white"/>
<path d="M68.292 69V56.85H71.262C72.292 56.85 73.092 56.985 73.662 57.255C74.242 57.515 74.652 57.93 74.892 58.5C75.132 59.06 75.252 59.78 75.252 60.66V65.085C75.252 65.985 75.132 66.725 74.892 67.305C74.652 67.885 74.247 68.315 73.677 68.595C73.117 68.865 72.332 69 71.322 69H68.292ZM70.767 67.275H71.292C71.752 67.275 72.077 67.205 72.267 67.065C72.467 66.915 72.592 66.7 72.642 66.42C72.692 66.13 72.717 65.775 72.717 65.355V60.345C72.717 59.925 72.682 59.59 72.612 59.34C72.552 59.08 72.422 58.89 72.222 58.77C72.032 58.65 71.717 58.59 71.277 58.59H70.767V67.275Z" fill="white"/>
<path d="M60.4863 69V56.85H62.2113L64.9113 63.18V56.85H66.9513V69H65.3013L62.6013 62.28V69H60.4863Z" fill="white"/>
<path d="M52.3151 69L54.6701 56.85H57.4151L59.7551 69H57.4601L57.0251 66.33H55.1051L54.6401 69H52.3151ZM55.3301 64.815H56.7851L56.0501 59.91L55.3301 64.815Z" fill="white"/>
<path d="M127.676 48V35.85H129.401L132.101 42.18V35.85H134.141V48H132.491L129.791 41.28V48H127.676Z" fill="white"/>
<path d="M122.923 48.165C122.033 48.165 121.328 48.005 120.808 47.685C120.288 47.365 119.913 46.91 119.683 46.32C119.463 45.72 119.353 45.005 119.353 44.175V39.645C119.353 38.815 119.463 38.105 119.683 37.515C119.913 36.925 120.288 36.475 120.808 36.165C121.328 35.855 122.033 35.7 122.923 35.7C123.823 35.7 124.533 35.86 125.053 36.18C125.583 36.49 125.958 36.94 126.178 37.53C126.408 38.11 126.523 38.815 126.523 39.645V44.175C126.523 45.005 126.408 45.72 126.178 46.32C125.958 46.91 125.583 47.365 125.053 47.685C124.533 48.005 123.823 48.165 122.923 48.165ZM122.923 46.38C123.243 46.38 123.478 46.31 123.628 46.17C123.778 46.02 123.878 45.825 123.928 45.585C123.978 45.335 124.003 45.07 124.003 44.79V39.045C124.003 38.765 123.978 38.505 123.928 38.265C123.878 38.025 123.778 37.835 123.628 37.695C123.478 37.545 123.243 37.47 122.923 37.47C122.623 37.47 122.398 37.545 122.248 37.695C122.098 37.835 121.998 38.025 121.948 38.265C121.898 38.505 121.873 38.765 121.873 39.045V44.79C121.873 45.07 121.893 45.335 121.933 45.585C121.983 45.825 122.083 46.02 122.233 46.17C122.383 46.31 122.613 46.38 122.923 46.38Z" fill="white"/>
<path d="M115.713 48V35.85H118.173V48H115.713Z" fill="white"/>
<path d="M110.745 48V37.695H108.87V35.85H115.08V37.695H113.235V48H110.745Z" fill="white"/>
<path d="M101.829 48V35.85H105.684C106.414 35.85 107.009 35.99 107.469 36.27C107.929 36.54 108.269 36.935 108.489 37.455C108.719 37.975 108.834 38.605 108.834 39.345C108.834 40.215 108.684 40.895 108.384 41.385C108.094 41.875 107.694 42.225 107.184 42.435C106.674 42.635 106.089 42.735 105.429 42.735H104.304V48H101.829ZM104.304 40.995H105.174C105.534 40.995 105.809 40.94 105.999 40.83C106.199 40.71 106.334 40.525 106.404 40.275C106.474 40.025 106.509 39.705 106.509 39.315C106.509 38.945 106.479 38.635 106.419 38.385C106.369 38.135 106.249 37.94 106.059 37.8C105.869 37.66 105.569 37.59 105.159 37.59H104.304V40.995Z" fill="white"/>
<path d="M91.8545 48L92.0645 35.85H94.6895L96.1895 43.515L97.7945 35.85H100.329L100.539 48H98.7395L98.5445 39.765L96.9995 48H95.4545L93.8345 39.705L93.6695 48H91.8545Z" fill="white"/>
<path d="M87.1476 48.165C86.2276 48.165 85.5126 48.01 85.0026 47.7C84.4926 47.38 84.1326 46.925 83.9226 46.335C83.7226 45.735 83.6226 45.01 83.6226 44.16V35.85H86.0676V44.505C86.0676 44.805 86.0876 45.1 86.1276 45.39C86.1776 45.68 86.2776 45.915 86.4276 46.095C86.5876 46.275 86.8276 46.365 87.1476 46.365C87.4776 46.365 87.7176 46.275 87.8676 46.095C88.0276 45.915 88.1276 45.68 88.1676 45.39C88.2076 45.1 88.2276 44.805 88.2276 44.505V35.85H90.6726V44.16C90.6726 45.01 90.5676 45.735 90.3576 46.335C90.1576 46.925 89.8026 47.38 89.2926 47.7C88.7826 48.01 88.0676 48.165 87.1476 48.165Z" fill="white"/>
<path d="M79.8044 48.165C79.0544 48.165 78.4294 48.03 77.9294 47.76C77.4294 47.48 77.0494 47.065 76.7894 46.515C76.5394 45.955 76.3944 45.245 76.3544 44.385L78.4844 44.025C78.5044 44.525 78.5544 44.945 78.6344 45.285C78.7244 45.615 78.8544 45.865 79.0244 46.035C79.2044 46.195 79.4244 46.275 79.6844 46.275C80.0044 46.275 80.2194 46.175 80.3294 45.975C80.4494 45.775 80.5094 45.545 80.5094 45.285C80.5094 44.775 80.3844 44.35 80.1344 44.01C79.8944 43.66 79.5744 43.31 79.1744 42.96L77.9144 41.865C77.4644 41.485 77.0944 41.055 76.8044 40.575C76.5244 40.095 76.3844 39.505 76.3844 38.805C76.3844 37.805 76.6744 37.04 77.2544 36.51C77.8444 35.97 78.6494 35.7 79.6694 35.7C80.2794 35.7 80.7794 35.8 81.1694 36C81.5594 36.2 81.8594 36.47 82.0694 36.81C82.2894 37.14 82.4394 37.505 82.5194 37.905C82.6094 38.295 82.6644 38.685 82.6844 39.075L80.5694 39.39C80.5494 39.02 80.5144 38.695 80.4644 38.415C80.4244 38.135 80.3344 37.915 80.1944 37.755C80.0644 37.595 79.8644 37.515 79.5944 37.515C79.3044 37.515 79.0894 37.625 78.9494 37.845C78.8094 38.055 78.7394 38.29 78.7394 38.55C78.7394 38.98 78.8344 39.335 79.0244 39.615C79.2244 39.885 79.4944 40.17 79.8344 40.47L81.0644 41.55C81.5744 41.99 82.0094 42.495 82.3694 43.065C82.7394 43.625 82.9244 44.32 82.9244 45.15C82.9244 45.72 82.7944 46.235 82.5344 46.695C82.2744 47.155 81.9094 47.515 81.4394 47.775C80.9794 48.035 80.4344 48.165 79.8044 48.165Z" fill="white"/>
<path d="M68.8486 48V35.85H70.5736L73.2736 42.18V35.85H75.3136V48H73.6636L70.9636 41.28V48H68.8486Z" fill="white"/>
<path d="M64.0961 48.165C63.2061 48.165 62.5011 48.005 61.9811 47.685C61.4611 47.365 61.0861 46.91 60.8561 46.32C60.6361 45.72 60.5261 45.005 60.5261 44.175V39.645C60.5261 38.815 60.6361 38.105 60.8561 37.515C61.0861 36.925 61.4611 36.475 61.9811 36.165C62.5011 35.855 63.2061 35.7 64.0961 35.7C64.9961 35.7 65.7061 35.86 66.2261 36.18C66.7561 36.49 67.1311 36.94 67.3511 37.53C67.5811 38.11 67.6961 38.815 67.6961 39.645V44.175C67.6961 45.005 67.5811 45.72 67.3511 46.32C67.1311 46.91 66.7561 47.365 66.2261 47.685C65.7061 48.005 64.9961 48.165 64.0961 48.165ZM64.0961 46.38C64.4161 46.38 64.6511 46.31 64.8011 46.17C64.9511 46.02 65.0511 45.825 65.1011 45.585C65.1511 45.335 65.1761 45.07 65.1761 44.79V39.045C65.1761 38.765 65.1511 38.505 65.1011 38.265C65.0511 38.025 64.9511 37.835 64.8011 37.695C64.6511 37.545 64.4161 37.47 64.0961 37.47C63.7961 37.47 63.5711 37.545 63.4211 37.695C63.2711 37.835 63.1711 38.025 63.1211 38.265C63.0711 38.505 63.0461 38.765 63.0461 39.045V44.79C63.0461 45.07 63.0661 45.335 63.1061 45.585C63.1561 45.825 63.2561 46.02 63.4061 46.17C63.5561 46.31 63.7861 46.38 64.0961 46.38Z" fill="white"/>
<path d="M56.2901 48.165C55.3901 48.165 54.6751 47.995 54.1451 47.655C53.6251 47.315 53.2601 46.845 53.0501 46.245C52.8401 45.635 52.7351 44.93 52.7351 44.13V39.765C52.7351 38.925 52.8401 38.205 53.0501 37.605C53.2601 36.995 53.6251 36.525 54.1451 36.195C54.6751 35.865 55.3901 35.7 56.2901 35.7C57.1601 35.7 57.8401 35.845 58.3301 36.135C58.8301 36.425 59.1801 36.835 59.3801 37.365C59.5901 37.895 59.6951 38.51 59.6951 39.21V40.23H57.2951V39.09C57.2951 38.81 57.2801 38.55 57.2501 38.31C57.2201 38.06 57.1351 37.86 56.9951 37.71C56.8651 37.55 56.6351 37.47 56.3051 37.47C55.9751 37.47 55.7351 37.55 55.5851 37.71C55.4351 37.87 55.3401 38.08 55.3001 38.34C55.2601 38.59 55.2401 38.87 55.2401 39.18V44.7C55.2401 45.04 55.2651 45.34 55.3151 45.6C55.3751 45.85 55.4801 46.045 55.6301 46.185C55.7901 46.315 56.0151 46.38 56.3051 46.38C56.6251 46.38 56.8501 46.305 56.9801 46.155C57.1201 45.995 57.2051 45.785 57.2351 45.525C57.2751 45.265 57.2951 44.99 57.2951 44.7V43.515H59.6951V44.52C59.6951 45.23 59.5951 45.86 59.3951 46.41C59.1951 46.95 58.8501 47.38 58.3601 47.7C57.8701 48.01 57.1801 48.165 56.2901 48.165Z" fill="white"/>
<path d="M123.062 27V14.85H128.357V16.56H125.537V19.785H127.712V21.51H125.537V25.32H128.387V27H123.062Z" fill="white"/>
<path d="M117.072 27V14.85H119.547V25.32H122.397V27H117.072Z" fill="white"/>
<path d="M108.959 27V14.85H112.034C112.564 14.85 113.054 14.895 113.504 14.985C113.954 15.075 114.349 15.235 114.689 15.465C115.039 15.695 115.304 16.015 115.484 16.425C115.674 16.825 115.769 17.35 115.769 18C115.769 18.49 115.699 18.91 115.559 19.26C115.419 19.6 115.219 19.87 114.959 20.07C114.699 20.27 114.379 20.405 113.999 20.475C114.469 20.545 114.864 20.705 115.184 20.955C115.504 21.205 115.744 21.535 115.904 21.945C116.064 22.355 116.144 22.85 116.144 23.43C116.144 24.04 116.064 24.57 115.904 25.02C115.754 25.47 115.529 25.84 115.229 26.13C114.929 26.42 114.559 26.64 114.119 26.79C113.679 26.93 113.169 27 112.589 27H108.959ZM111.434 25.26H112.124C112.744 25.26 113.169 25.105 113.399 24.795C113.639 24.485 113.759 24.02 113.759 23.4C113.759 22.92 113.704 22.54 113.594 22.26C113.484 21.97 113.304 21.76 113.054 21.63C112.814 21.49 112.489 21.42 112.079 21.42H111.434V25.26ZM111.434 19.755H112.049C112.479 19.755 112.804 19.695 113.024 19.575C113.244 19.445 113.394 19.255 113.474 19.005C113.564 18.745 113.609 18.43 113.609 18.06C113.609 17.69 113.544 17.395 113.414 17.175C113.294 16.945 113.104 16.78 112.844 16.68C112.594 16.58 112.274 16.53 111.884 16.53H111.434V19.755Z" fill="white"/>
<path d="M105.138 27V14.85H107.598V27H105.138Z" fill="white"/>
<path d="M101.185 27.165C100.435 27.165 99.8102 27.03 99.3102 26.76C98.8102 26.48 98.4302 26.065 98.1702 25.515C97.9202 24.955 97.7752 24.245 97.7352 23.385L99.8652 23.025C99.8852 23.525 99.9352 23.945 100.015 24.285C100.105 24.615 100.235 24.865 100.405 25.035C100.585 25.195 100.805 25.275 101.065 25.275C101.385 25.275 101.6 25.175 101.71 24.975C101.83 24.775 101.89 24.545 101.89 24.285C101.89 23.775 101.765 23.35 101.515 23.01C101.275 22.66 100.955 22.31 100.555 21.96L99.2952 20.865C98.8452 20.485 98.4752 20.055 98.1852 19.575C97.9052 19.095 97.7652 18.505 97.7652 17.805C97.7652 16.805 98.0552 16.04 98.6352 15.51C99.2252 14.97 100.03 14.7 101.05 14.7C101.66 14.7 102.16 14.8 102.55 15C102.94 15.2 103.24 15.47 103.45 15.81C103.67 16.14 103.82 16.505 103.9 16.905C103.99 17.295 104.045 17.685 104.065 18.075L101.95 18.39C101.93 18.02 101.895 17.695 101.845 17.415C101.805 17.135 101.715 16.915 101.575 16.755C101.445 16.595 101.245 16.515 100.975 16.515C100.685 16.515 100.47 16.625 100.33 16.845C100.19 17.055 100.12 17.29 100.12 17.55C100.12 17.98 100.215 18.335 100.405 18.615C100.605 18.885 100.875 19.17 101.215 19.47L102.445 20.55C102.955 20.99 103.39 21.495 103.75 22.065C104.12 22.625 104.305 23.32 104.305 24.15C104.305 24.72 104.175 25.235 103.915 25.695C103.655 26.155 103.29 26.515 102.82 26.775C102.36 27.035 101.815 27.165 101.185 27.165Z" fill="white"/>
<path d="M90.2295 27V14.85H91.9545L94.6545 21.18V14.85H96.6945V27H95.0445L92.3445 20.28V27H90.2295Z" fill="white"/>
<path d="M85.477 27.165C84.587 27.165 83.882 27.005 83.362 26.685C82.842 26.365 82.467 25.91 82.237 25.32C82.017 24.72 81.907 24.005 81.907 23.175V18.645C81.907 17.815 82.017 17.105 82.237 16.515C82.467 15.925 82.842 15.475 83.362 15.165C83.882 14.855 84.587 14.7 85.477 14.7C86.377 14.7 87.087 14.86 87.607 15.18C88.137 15.49 88.512 15.94 88.732 16.53C88.962 17.11 89.077 17.815 89.077 18.645V23.175C89.077 24.005 88.962 24.72 88.732 25.32C88.512 25.91 88.137 26.365 87.607 26.685C87.087 27.005 86.377 27.165 85.477 27.165ZM85.477 25.38C85.797 25.38 86.032 25.31 86.182 25.17C86.332 25.02 86.432 24.825 86.482 24.585C86.532 24.335 86.557 24.07 86.557 23.79V18.045C86.557 17.765 86.532 17.505 86.482 17.265C86.432 17.025 86.332 16.835 86.182 16.695C86.032 16.545 85.797 16.47 85.477 16.47C85.177 16.47 84.952 16.545 84.802 16.695C84.652 16.835 84.552 17.025 84.502 17.265C84.452 17.505 84.427 17.765 84.427 18.045V23.79C84.427 24.07 84.447 24.335 84.487 24.585C84.537 24.825 84.637 25.02 84.787 25.17C84.937 25.31 85.167 25.38 85.477 25.38Z" fill="white"/>
<path d="M74.3105 27V14.85H78.1655C78.8955 14.85 79.4905 14.99 79.9505 15.27C80.4105 15.54 80.7505 15.935 80.9705 16.455C81.2005 16.975 81.3155 17.605 81.3155 18.345C81.3155 19.215 81.1655 19.895 80.8655 20.385C80.5755 20.875 80.1755 21.225 79.6655 21.435C79.1555 21.635 78.5705 21.735 77.9105 21.735H76.7855V27H74.3105ZM76.7855 19.995H77.6555C78.0155 19.995 78.2905 19.94 78.4805 19.83C78.6805 19.71 78.8155 19.525 78.8855 19.275C78.9555 19.025 78.9905 18.705 78.9905 18.315C78.9905 17.945 78.9605 17.635 78.9005 17.385C78.8505 17.135 78.7305 16.94 78.5405 16.8C78.3505 16.66 78.0505 16.59 77.6405 16.59H76.7855V19.995Z" fill="white"/>
<path d="M70.3874 27.165C69.6374 27.165 69.0124 27.03 68.5124 26.76C68.0124 26.48 67.6324 26.065 67.3724 25.515C67.1224 24.955 66.9774 24.245 66.9374 23.385L69.0674 23.025C69.0874 23.525 69.1374 23.945 69.2174 24.285C69.3074 24.615 69.4374 24.865 69.6074 25.035C69.7874 25.195 70.0074 25.275 70.2674 25.275C70.5874 25.275 70.8024 25.175 70.9124 24.975C71.0324 24.775 71.0924 24.545 71.0924 24.285C71.0924 23.775 70.9674 23.35 70.7174 23.01C70.4774 22.66 70.1574 22.31 69.7574 21.96L68.4974 20.865C68.0474 20.485 67.6774 20.055 67.3874 19.575C67.1074 19.095 66.9674 18.505 66.9674 17.805C66.9674 16.805 67.2574 16.04 67.8374 15.51C68.4274 14.97 69.2324 14.7 70.2524 14.7C70.8624 14.7 71.3624 14.8 71.7524 15C72.1424 15.2 72.4424 15.47 72.6524 15.81C72.8724 16.14 73.0224 16.505 73.1024 16.905C73.1924 17.295 73.2474 17.685 73.2674 18.075L71.1524 18.39C71.1324 18.02 71.0974 17.695 71.0474 17.415C71.0074 17.135 70.9174 16.915 70.7774 16.755C70.6474 16.595 70.4474 16.515 70.1774 16.515C69.8874 16.515 69.6724 16.625 69.5324 16.845C69.3924 17.055 69.3224 17.29 69.3224 17.55C69.3224 17.98 69.4174 18.335 69.6074 18.615C69.8074 18.885 70.0774 19.17 70.4174 19.47L71.6474 20.55C72.1574 20.99 72.5924 21.495 72.9524 22.065C73.3224 22.625 73.5074 23.32 73.5074 24.15C73.5074 24.72 73.3774 25.235 73.1174 25.695C72.8574 26.155 72.4924 26.515 72.0224 26.775C71.5624 27.035 71.0174 27.165 70.3874 27.165Z" fill="white"/>
<path d="M61.1602 27V14.85H66.4552V16.56H63.6352V19.785H65.8102V21.51H63.6352V25.32H66.4852V27H61.1602Z" fill="white"/>
<path d="M52.915 27V14.85H56.065C56.885 14.85 57.585 14.945 58.165 15.135C58.755 15.315 59.205 15.64 59.515 16.11C59.835 16.58 59.995 17.23 59.995 18.06C59.995 18.56 59.95 19.005 59.86 19.395C59.78 19.775 59.63 20.11 59.41 20.4C59.2 20.68 58.9 20.905 58.51 21.075L60.19 27H57.655L56.26 21.495H55.39V27H52.915ZM55.39 20.025H56.11C56.51 20.025 56.825 19.96 57.055 19.83C57.285 19.7 57.445 19.505 57.535 19.245C57.635 18.975 57.685 18.645 57.685 18.255C57.685 17.695 57.58 17.27 57.37 16.98C57.17 16.68 56.79 16.53 56.23 16.53H55.39V20.025Z" fill="white"/>
</g>
<defs>
<clipPath id="clip0_143_6192">
<rect width="173" height="173" fill="white"/>
</clipPath>
</defs>
</svg>
