<svg width="173" height="173" viewBox="0 0 173 173" fill="none" xmlns="http://www.w3.org/2000/svg">
<g clip-path="url(#clip0_143_5910)">
<path d="M0 0H173V173H0V0Z" fill="#241F20"/>
<path d="M114.971 76.7483C114.971 76.7483 113.277 78.9946 113.776 81.1696C114.276 83.3624 116.754 84.646 116.754 84.646C116.754 84.646 118.447 82.3997 117.948 80.2247C117.449 78.0319 114.971 76.7483 114.971 76.7483Z" fill="white"/>
<path d="M112.225 89.5307C112.225 89.5307 113.919 87.2844 113.42 85.1095C112.921 82.9167 110.443 81.6331 110.443 81.6331C110.443 81.6331 108.749 83.8793 109.248 86.0543C109.729 88.2471 112.225 89.5307 112.225 89.5307Z" fill="white"/>
<path d="M119.16 87.1415C119.16 87.1415 120.943 88.9421 122.976 88.7638C125.008 88.5856 126.505 86.4997 126.505 86.4997C126.505 86.4997 124.723 84.6991 122.69 84.8774C120.658 85.0557 119.16 87.1415 119.16 87.1415Z" fill="white"/>
<path d="M122.066 77.5326C120.408 79.2084 120.64 82.1678 120.64 82.1678C120.64 82.1678 123.546 82.4174 125.204 80.7416C126.862 79.0658 126.63 76.1064 126.63 76.1064C126.63 76.1064 123.724 75.8746 122.066 77.5326Z" fill="white"/>
<path d="M118.429 93.7916C120.444 94.0234 122.351 92.2941 122.351 92.2941C122.351 92.2941 120.979 90.1726 118.964 89.9408C116.932 89.709 115.042 91.4383 115.042 91.4383C115.042 91.4383 116.415 93.5598 118.429 93.7916Z" fill="white"/>
<path d="M120.23 126.309H105.112C103.936 126.309 102.973 127.272 102.973 128.449C102.973 129.625 103.936 130.588 105.112 130.588H120.23C121.407 130.588 122.369 129.625 122.369 128.449C122.369 127.254 121.407 126.309 120.23 126.309Z" fill="white"/>
<path d="M120.23 149.86H105.112C103.936 149.86 102.973 150.822 102.973 151.999C102.973 153.176 103.936 154.138 105.112 154.138H120.23C121.407 154.138 122.369 153.176 122.369 151.999C122.369 150.822 121.407 149.86 120.23 149.86Z" fill="white"/>
<path d="M52.2708 121.104C51.9143 120.997 51.5577 120.89 51.219 120.836C51.219 120.836 51.6112 120.961 52.2708 121.104Z" fill="white"/>
<path d="M76.766 130.356C77.7643 130.374 78.7627 130.338 79.761 130.267V138.165L76.766 138.093V130.356ZM119.677 132.068H105.665C104.987 132.068 104.452 132.62 104.452 133.28V137.523L95.3068 138.521L81.9538 138.218V130.071C83.7188 129.839 85.5015 129.483 87.2665 129.001C100.12 125.364 102.919 117.36 102.652 110.015C102.367 102.527 104.773 99.6212 108.214 98.3198C109.195 97.9454 110.175 97.7136 111.066 97.571C111.102 99.4073 111.477 101.547 112.297 104.096C112.6 104.078 112.903 104.06 113.206 104.025C112.332 101.422 111.958 99.2646 111.94 97.4462C113.723 97.2323 114.989 97.3571 114.989 97.3571C114.989 97.3571 113.776 96.7153 112.083 95.2891C112.653 91.7414 114.775 89.5664 116.95 87.3379C118.144 86.1078 119.374 84.842 120.355 83.3445L119.588 82.8632C118.661 84.2894 117.467 85.5195 116.29 86.7139C114.168 88.8889 112.029 91.0996 111.298 94.6294C110.603 94.0055 109.854 93.2745 109.088 92.4188C105.914 88.8711 101.832 91.4739 96.0199 96.8936C90.1902 102.313 82.8809 102.491 75.732 95.1821C66.3011 85.5195 58.0647 85.573 52.4312 86.1256C56.2998 87.7658 57.6369 91.3848 59.5979 100.548C61.6481 110.175 66.8003 114.525 73.8779 115.131C70.5976 115.666 69.7597 116.112 64.4827 119.749C60.3645 122.583 54.5883 121.692 52.2351 121.157C56.5315 122.494 61.6303 127.022 66.1942 128.591C68.8505 129.5 71.6494 130.071 74.5197 130.303V138.111L49.1865 137.559V143.014L95.2711 141.998L104.417 143.014V147.257C104.417 147.934 104.952 148.469 105.629 148.469H119.642C120.319 148.469 120.854 147.916 120.854 147.257V133.369C120.89 132.62 120.355 132.068 119.677 132.068Z" fill="white"/>
<path d="M47.9208 142.051C47.9208 143.192 47.1186 144.137 46.1381 144.137H45.0684C44.0879 144.137 43.2678 143.21 43.2678 142.051V138.289C43.2678 137.131 44.0701 136.204 45.0684 136.204H46.1381C47.1186 136.204 47.9208 137.131 47.9208 138.289V142.051Z" fill="white"/>
<path d="M14.4226 48.01V21.4646L9.48438 23.1582V18.4338C10.6075 17.9881 11.802 17.4177 13.1034 16.758C14.3692 16.0984 15.2962 15.4388 15.8667 14.8148H20.7693V48.01H14.4226Z" fill="white"/>
<path d="M33.9495 48.4557C32.3985 48.4557 31.0436 48.1883 29.8848 47.6356C28.726 47.083 27.7989 46.3164 27.0858 45.318C26.3906 44.3197 25.8557 43.1609 25.517 41.8594C25.1783 40.558 25 39.114 25 37.5095V25.9571C25 24.5844 25.0713 23.3365 25.2318 22.249C25.3922 21.1436 25.6775 20.0918 26.0875 19.0935C26.4975 18.0951 27.0324 17.2572 27.692 16.5976C28.3516 15.938 29.2073 15.4031 30.2592 15.0109C31.311 14.6187 32.5411 14.4226 33.9317 14.4226C36.8732 14.4226 39.0126 15.1357 40.3318 16.5441C41.6689 17.9525 42.3464 20.074 42.3998 22.8729V23.3899H36.3741C36.3741 21.9102 36.2136 20.8584 35.9106 20.2166C35.6075 19.5748 34.9479 19.2717 33.9673 19.2717C32.9868 19.2717 32.3094 19.7531 31.9528 20.7336C31.5962 21.7141 31.418 23.4791 31.418 26.0106V29.4157C31.7745 28.8096 32.3272 28.3104 33.0759 27.9717C33.8247 27.6329 34.6804 27.4368 35.661 27.419H35.7858C36.7663 27.419 37.6398 27.5616 38.4421 27.8647C39.2622 28.1856 39.9574 28.6313 40.5101 29.1839C41.0628 29.7366 41.5084 30.4319 41.8472 31.252C42.1859 32.072 42.4355 32.9456 42.5959 33.8726C42.7564 34.7997 42.8277 35.8337 42.8277 36.939C42.8277 38.3295 42.7386 39.5953 42.5603 40.7185C42.382 41.8594 42.0789 42.9113 41.6511 43.8918C41.2232 44.8723 40.6705 45.6924 40.0109 46.3698C39.3513 47.0473 38.4956 47.5643 37.4794 47.9387C36.4276 48.2596 35.2688 48.4557 33.9495 48.4557ZM34.0208 43.6957C34.52 43.6957 34.9479 43.5709 35.2866 43.3213C35.6253 43.0717 35.8749 42.6795 36.0353 42.1447C36.1958 41.6098 36.3206 41.0215 36.3919 40.3976C36.4632 39.7736 36.4989 38.9713 36.4989 38.0443C36.4989 37.4382 36.4989 36.9925 36.481 36.6894C36.481 36.3863 36.4454 35.9763 36.4276 35.4949C36.3919 35.0136 36.3562 34.6392 36.2849 34.3718C36.2315 34.1044 36.1423 33.8191 36.0175 33.4982C35.8927 33.1773 35.7501 32.9456 35.5718 32.7851C35.3935 32.6247 35.1618 32.4999 34.8944 32.3929C34.627 32.286 34.3239 32.2147 33.9673 32.2147C33.3968 32.2147 32.8798 32.3751 32.4342 32.7138C31.9885 33.0526 31.6319 33.4269 31.418 33.8726V39.0605C31.4001 42.1269 32.2737 43.6957 34.0208 43.6957Z" fill="white"/>
<path d="M125.532 69.165C124.782 69.165 124.157 69.0299 123.657 68.7599C123.157 68.4799 122.777 68.0649 122.517 67.5149C122.267 66.955 122.122 66.2449 122.082 65.3849L124.212 65.025C124.232 65.525 124.282 65.945 124.362 66.285C124.452 66.615 124.582 66.865 124.752 67.035C124.932 67.195 125.152 67.275 125.412 67.275C125.732 67.275 125.947 67.1749 126.057 66.9749C126.177 66.7749 126.237 66.545 126.237 66.285C126.237 65.775 126.112 65.3499 125.862 65.0099C125.622 64.6599 125.302 64.3099 124.902 63.9599L123.642 62.865C123.192 62.485 122.822 62.055 122.532 61.575C122.252 61.095 122.112 60.505 122.112 59.805C122.112 58.805 122.402 58.0399 122.982 57.5099C123.572 56.9699 124.377 56.7 125.397 56.7C126.007 56.7 126.507 56.8 126.897 57C127.287 57.2 127.587 57.4699 127.797 57.8099C128.017 58.1399 128.167 58.5049 128.247 58.9049C128.337 59.2949 128.392 59.685 128.412 60.075L126.297 60.3899C126.277 60.0199 126.242 59.695 126.192 59.415C126.152 59.135 126.062 58.915 125.922 58.755C125.792 58.595 125.592 58.5149 125.322 58.5149C125.032 58.5149 124.817 58.625 124.677 58.845C124.537 59.055 124.467 59.2899 124.467 59.5499C124.467 59.9799 124.562 60.3349 124.752 60.6149C124.952 60.8849 125.222 61.17 125.562 61.47L126.792 62.5499C127.302 62.9899 127.737 63.4949 128.097 64.0649C128.467 64.6249 128.652 65.32 128.652 66.15C128.652 66.72 128.522 67.235 128.262 67.695C128.002 68.155 127.637 68.515 127.167 68.775C126.707 69.035 126.162 69.165 125.532 69.165Z" fill="white"/>
<path d="M114.577 69V56.85H116.302L119.002 63.18V56.85H121.042V69H119.392L116.692 62.28V69H114.577Z" fill="white"/>
<path d="M109.824 69.165C108.934 69.165 108.229 69.005 107.709 68.685C107.189 68.365 106.814 67.91 106.584 67.32C106.364 66.7199 106.254 66.0049 106.254 65.1749V60.645C106.254 59.815 106.364 59.1049 106.584 58.5149C106.814 57.925 107.189 57.475 107.709 57.165C108.229 56.855 108.934 56.7 109.824 56.7C110.724 56.7 111.434 56.86 111.954 57.18C112.484 57.49 112.859 57.9399 113.079 58.5299C113.309 59.1099 113.424 59.815 113.424 60.645V65.1749C113.424 66.0049 113.309 66.7199 113.079 67.32C112.859 67.91 112.484 68.365 111.954 68.685C111.434 69.005 110.724 69.165 109.824 69.165ZM109.824 67.38C110.144 67.38 110.379 67.3099 110.529 67.1699C110.679 67.0199 110.779 66.8249 110.829 66.5849C110.879 66.3349 110.904 66.07 110.904 65.79V60.0449C110.904 59.7649 110.879 59.505 110.829 59.2649C110.779 59.025 110.679 58.8349 110.529 58.695C110.379 58.545 110.144 58.47 109.824 58.47C109.524 58.47 109.299 58.545 109.149 58.695C108.999 58.8349 108.899 59.025 108.849 59.2649C108.799 59.505 108.774 59.7649 108.774 60.0449V65.79C108.774 66.07 108.794 66.3349 108.834 66.5849C108.884 66.8249 108.984 67.0199 109.134 67.1699C109.284 67.3099 109.514 67.38 109.824 67.38Z" fill="white"/>
<path d="M102.613 69V56.85H105.073V69H102.613Z" fill="white"/>
<path d="M97.6462 69V58.695H95.7712V56.85H101.981V58.695H100.136V69H97.6462Z" fill="white"/>
<path d="M91.7545 69.165C90.8345 69.165 90.1195 69.01 89.6095 68.7C89.0995 68.38 88.7395 67.925 88.5295 67.335C88.3295 66.735 88.2295 66.01 88.2295 65.16V56.85H90.6745V65.505C90.6745 65.805 90.6945 66.1 90.7345 66.39C90.7845 66.68 90.8845 66.915 91.0345 67.095C91.1945 67.275 91.4345 67.365 91.7545 67.365C92.0845 67.365 92.3245 67.275 92.4745 67.095C92.6345 66.915 92.7345 66.68 92.7745 66.39C92.8145 66.1 92.8345 65.805 92.8345 65.505V56.85H95.2795V65.16C95.2795 66.01 95.1745 66.735 94.9645 67.335C94.7645 67.925 94.4095 68.38 93.8995 68.7C93.3895 69.01 92.6745 69.165 91.7545 69.165Z" fill="white"/>
<path d="M83.3972 69V58.695H81.5222V56.85H87.7322V58.695H85.8872V69H83.3972Z" fill="white"/>
<path d="M78.4365 69V56.85H80.8965V69H78.4365Z" fill="white"/>
<path d="M73.4695 69V58.695H71.5945V56.85H77.8045V58.695H75.9595V69H73.4695Z" fill="white"/>
<path d="M68.4063 69.165C67.6563 69.165 67.0313 69.0299 66.5313 68.7599C66.0313 68.4799 65.6513 68.0649 65.3913 67.5149C65.1413 66.955 64.9963 66.2449 64.9563 65.3849L67.0863 65.025C67.1063 65.525 67.1563 65.945 67.2363 66.285C67.3263 66.615 67.4563 66.865 67.6263 67.035C67.8063 67.195 68.0263 67.275 68.2863 67.275C68.6063 67.275 68.8213 67.1749 68.9313 66.9749C69.0513 66.7749 69.1113 66.545 69.1113 66.285C69.1113 65.775 68.9863 65.3499 68.7363 65.0099C68.4963 64.6599 68.1763 64.3099 67.7763 63.9599L66.5163 62.865C66.0663 62.485 65.6963 62.055 65.4063 61.575C65.1263 61.095 64.9863 60.505 64.9863 59.805C64.9863 58.805 65.2763 58.0399 65.8563 57.5099C66.4463 56.9699 67.2513 56.7 68.2713 56.7C68.8813 56.7 69.3813 56.8 69.7713 57C70.1613 57.2 70.4613 57.4699 70.6713 57.8099C70.8913 58.1399 71.0413 58.5049 71.1213 58.9049C71.2113 59.2949 71.2663 59.685 71.2863 60.075L69.1713 60.3899C69.1513 60.0199 69.1163 59.695 69.0663 59.415C69.0263 59.135 68.9363 58.915 68.7963 58.755C68.6663 58.595 68.4663 58.5149 68.1963 58.5149C67.9063 58.5149 67.6913 58.625 67.5513 58.845C67.4113 59.055 67.3413 59.2899 67.3413 59.5499C67.3413 59.9799 67.4363 60.3349 67.6263 60.6149C67.8263 60.8849 68.0963 61.17 68.4363 61.47L69.6663 62.5499C70.1763 62.9899 70.6113 63.4949 70.9713 64.0649C71.3413 64.6249 71.5263 65.32 71.5263 66.15C71.5263 66.72 71.3963 67.235 71.1363 67.695C70.8763 68.155 70.5113 68.515 70.0413 68.775C69.5813 69.035 69.0363 69.165 68.4063 69.165Z" fill="white"/>
<path d="M57.4507 69V56.85H59.1757L61.8757 63.18V56.85H63.9157V69H62.2657L59.5657 62.28V69H57.4507Z" fill="white"/>
<path d="M53.6299 69V56.85H56.0899V69H53.6299Z" fill="white"/>
<path d="M120.672 48.18C119.852 48.18 119.202 48.01 118.722 47.67C118.242 47.32 117.897 46.83 117.687 46.2C117.487 45.56 117.387 44.82 117.387 43.98V39.915C117.387 39.045 117.492 38.295 117.702 37.665C117.912 37.035 118.277 36.55 118.797 36.21C119.327 35.87 120.042 35.7 120.942 35.7C121.812 35.7 122.497 35.845 122.997 36.135C123.507 36.425 123.872 36.835 124.092 37.365C124.312 37.895 124.422 38.525 124.422 39.255V39.96H122.007V39.105C122.007 38.785 121.987 38.505 121.947 38.265C121.907 38.015 121.812 37.82 121.662 37.68C121.522 37.54 121.292 37.47 120.972 37.47C120.642 37.47 120.402 37.555 120.252 37.725C120.102 37.895 120.007 38.115 119.967 38.385C119.927 38.645 119.907 38.925 119.907 39.225V44.61C119.907 44.95 119.937 45.255 119.997 45.525C120.057 45.795 120.167 46.005 120.327 46.155C120.497 46.305 120.737 46.38 121.047 46.38C121.357 46.38 121.597 46.3 121.767 46.14C121.937 45.98 122.052 45.765 122.112 45.495C122.182 45.215 122.217 44.9 122.217 44.55V43.26H121.032V41.76H124.452V48H122.832L122.682 46.905C122.522 47.275 122.282 47.58 121.962 47.82C121.642 48.06 121.212 48.18 120.672 48.18Z" fill="white"/>
<path d="M109.761 48V35.85H111.486L114.186 42.18V35.85H116.226V48H114.576L111.876 41.28V48H109.761Z" fill="white"/>
<path d="M105.008 48.165C104.118 48.165 103.413 48.005 102.893 47.685C102.373 47.365 101.998 46.91 101.768 46.32C101.548 45.72 101.438 45.005 101.438 44.175V39.645C101.438 38.815 101.548 38.105 101.768 37.515C101.998 36.925 102.373 36.475 102.893 36.165C103.413 35.855 104.118 35.7 105.008 35.7C105.908 35.7 106.618 35.86 107.138 36.18C107.668 36.49 108.043 36.94 108.263 37.53C108.493 38.11 108.608 38.815 108.608 39.645V44.175C108.608 45.005 108.493 45.72 108.263 46.32C108.043 46.91 107.668 47.365 107.138 47.685C106.618 48.005 105.908 48.165 105.008 48.165ZM105.008 46.38C105.328 46.38 105.563 46.31 105.713 46.17C105.863 46.02 105.963 45.825 106.013 45.585C106.063 45.335 106.088 45.07 106.088 44.79V39.045C106.088 38.765 106.063 38.505 106.013 38.265C105.963 38.025 105.863 37.835 105.713 37.695C105.563 37.545 105.328 37.47 105.008 37.47C104.708 37.47 104.483 37.545 104.333 37.695C104.183 37.835 104.083 38.025 104.033 38.265C103.983 38.505 103.958 38.765 103.958 39.045V44.79C103.958 45.07 103.978 45.335 104.018 45.585C104.068 45.825 104.168 46.02 104.318 46.17C104.468 46.31 104.698 46.38 105.008 46.38Z" fill="white"/>
<path d="M93.4761 48V35.85H96.6261C97.4461 35.85 98.1461 35.945 98.7261 36.135C99.3161 36.315 99.7661 36.64 100.076 37.11C100.396 37.58 100.556 38.23 100.556 39.06C100.556 39.56 100.511 40.005 100.421 40.395C100.341 40.775 100.191 41.11 99.9711 41.4C99.7611 41.68 99.4611 41.905 99.0711 42.075L100.751 48H98.2161L96.8211 42.495H95.9511V48H93.4761ZM95.9511 41.025H96.6711C97.0711 41.025 97.3861 40.96 97.6161 40.83C97.8461 40.7 98.0061 40.505 98.0961 40.245C98.1961 39.975 98.2461 39.645 98.2461 39.255C98.2461 38.695 98.1411 38.27 97.9311 37.98C97.7311 37.68 97.3511 37.53 96.7911 37.53H95.9511V41.025Z" fill="white"/>
<path d="M88.5388 48V37.695H86.6638V35.85H92.8738V37.695H91.0288V48H88.5388Z" fill="white"/>
<path d="M83.4756 48.165C82.7256 48.165 82.1006 48.03 81.6006 47.76C81.1006 47.48 80.7206 47.065 80.4606 46.515C80.2106 45.955 80.0656 45.245 80.0256 44.385L82.1556 44.025C82.1756 44.525 82.2256 44.945 82.3056 45.285C82.3956 45.615 82.5256 45.865 82.6956 46.035C82.8756 46.195 83.0956 46.275 83.3556 46.275C83.6756 46.275 83.8906 46.175 84.0006 45.975C84.1206 45.775 84.1806 45.545 84.1806 45.285C84.1806 44.775 84.0556 44.35 83.8056 44.01C83.5656 43.66 83.2456 43.31 82.8456 42.96L81.5856 41.865C81.1356 41.485 80.7656 41.055 80.4756 40.575C80.1956 40.095 80.0556 39.505 80.0556 38.805C80.0556 37.805 80.3456 37.04 80.9256 36.51C81.5156 35.97 82.3206 35.7 83.3406 35.7C83.9506 35.7 84.4506 35.8 84.8406 36C85.2306 36.2 85.5306 36.47 85.7406 36.81C85.9606 37.14 86.1106 37.505 86.1906 37.905C86.2806 38.295 86.3356 38.685 86.3556 39.075L84.2406 39.39C84.2206 39.02 84.1856 38.695 84.1356 38.415C84.0956 38.135 84.0056 37.915 83.8656 37.755C83.7356 37.595 83.5356 37.515 83.2656 37.515C82.9756 37.515 82.7606 37.625 82.6206 37.845C82.4806 38.055 82.4106 38.29 82.4106 38.55C82.4106 38.98 82.5056 39.335 82.6956 39.615C82.8956 39.885 83.1656 40.17 83.5056 40.47L84.7356 41.55C85.2456 41.99 85.6806 42.495 86.0406 43.065C86.4106 43.625 86.5956 44.32 86.5956 45.15C86.5956 45.72 86.4656 46.235 86.2056 46.695C85.9456 47.155 85.5806 47.515 85.1106 47.775C84.6506 48.035 84.1056 48.165 83.4756 48.165Z" fill="white"/>
<path d="M68.9771 48V35.85H71.9471C72.9771 35.85 73.777 35.985 74.347 36.255C74.927 36.515 75.3371 36.93 75.5771 37.5C75.8171 38.06 75.937 38.78 75.937 39.66V44.085C75.937 44.985 75.8171 45.725 75.5771 46.305C75.3371 46.885 74.9321 47.315 74.3621 47.595C73.8021 47.865 73.017 48 72.007 48H68.9771ZM71.452 46.275H71.9771C72.4371 46.275 72.762 46.205 72.952 46.065C73.152 45.915 73.277 45.7 73.327 45.42C73.377 45.13 73.4021 44.775 73.4021 44.355V39.345C73.4021 38.925 73.3671 38.59 73.2971 38.34C73.2371 38.08 73.107 37.89 72.907 37.77C72.717 37.65 72.402 37.59 71.962 37.59H71.452V46.275Z" fill="white"/>
<path d="M61.1714 48V35.85H62.8964L65.5964 42.18V35.85H67.6364V48H65.9864L63.2864 41.28V48H61.1714Z" fill="white"/>
<path d="M53 48L55.355 35.85H58.1L60.44 48H58.145L57.71 45.33H55.79L55.325 48H53ZM56.015 43.815H57.47L56.735 38.91L56.015 43.815Z" fill="white"/>
<path d="M132.427 27V14.85H137.722V16.56H134.902V19.785H137.077V21.51H134.902V25.32H137.752V27H132.427Z" fill="white"/>
<path d="M128.011 27.165C127.111 27.165 126.396 26.995 125.866 26.655C125.346 26.315 124.981 25.845 124.771 25.245C124.561 24.635 124.456 23.93 124.456 23.13V18.765C124.456 17.925 124.561 17.205 124.771 16.605C124.981 15.995 125.346 15.525 125.866 15.195C126.396 14.865 127.111 14.7 128.011 14.7C128.881 14.7 129.561 14.845 130.051 15.135C130.551 15.425 130.901 15.835 131.101 16.365C131.311 16.895 131.416 17.51 131.416 18.21V19.23H129.016V18.09C129.016 17.81 129.001 17.55 128.971 17.31C128.941 17.06 128.856 16.86 128.716 16.71C128.586 16.55 128.356 16.47 128.026 16.47C127.696 16.47 127.456 16.55 127.306 16.71C127.156 16.87 127.061 17.08 127.021 17.34C126.981 17.59 126.961 17.87 126.961 18.18V23.7C126.961 24.04 126.986 24.34 127.036 24.6C127.096 24.85 127.201 25.045 127.351 25.185C127.511 25.315 127.736 25.38 128.026 25.38C128.346 25.38 128.571 25.305 128.701 25.155C128.841 24.995 128.926 24.785 128.956 24.525C128.996 24.265 129.016 23.99 129.016 23.7V22.515H131.416V23.52C131.416 24.23 131.316 24.86 131.116 25.41C130.916 25.95 130.571 26.38 130.081 26.7C129.591 27.01 128.901 27.165 128.011 27.165Z" fill="white"/>
<path d="M120.815 27V14.85H123.275V27H120.815Z" fill="white"/>
<path d="M115.848 27V16.695H113.973V14.85H120.183V16.695H118.338V27H115.848Z" fill="white"/>
<path d="M110.785 27.165C110.035 27.165 109.41 27.03 108.91 26.76C108.41 26.48 108.03 26.065 107.77 25.515C107.52 24.955 107.375 24.245 107.335 23.385L109.465 23.025C109.485 23.525 109.535 23.945 109.615 24.285C109.705 24.615 109.835 24.865 110.005 25.035C110.185 25.195 110.405 25.275 110.665 25.275C110.985 25.275 111.2 25.175 111.31 24.975C111.43 24.775 111.49 24.545 111.49 24.285C111.49 23.775 111.365 23.35 111.115 23.01C110.875 22.66 110.555 22.31 110.155 21.96L108.895 20.865C108.445 20.485 108.075 20.055 107.785 19.575C107.505 19.095 107.365 18.505 107.365 17.805C107.365 16.805 107.655 16.04 108.235 15.51C108.825 14.97 109.63 14.7 110.65 14.7C111.26 14.7 111.76 14.8 112.15 15C112.54 15.2 112.84 15.47 113.05 15.81C113.27 16.14 113.42 16.505 113.5 16.905C113.59 17.295 113.645 17.685 113.665 18.075L111.55 18.39C111.53 18.02 111.495 17.695 111.445 17.415C111.405 17.135 111.315 16.915 111.175 16.755C111.045 16.595 110.845 16.515 110.575 16.515C110.285 16.515 110.07 16.625 109.93 16.845C109.79 17.055 109.72 17.29 109.72 17.55C109.72 17.98 109.815 18.335 110.005 18.615C110.205 18.885 110.475 19.17 110.815 19.47L112.045 20.55C112.555 20.99 112.99 21.495 113.35 22.065C113.72 22.625 113.905 23.32 113.905 24.15C113.905 24.72 113.775 25.235 113.515 25.695C113.255 26.155 112.89 26.515 112.42 26.775C111.96 27.035 111.415 27.165 110.785 27.165Z" fill="white"/>
<path d="M102.883 27.165C101.963 27.165 101.248 27.01 100.738 26.7C100.228 26.38 99.8684 25.925 99.6584 25.335C99.4584 24.735 99.3584 24.01 99.3584 23.16V14.85H101.803V23.505C101.803 23.805 101.823 24.1 101.863 24.39C101.913 24.68 102.013 24.915 102.163 25.095C102.323 25.275 102.563 25.365 102.883 25.365C103.213 25.365 103.453 25.275 103.603 25.095C103.763 24.915 103.863 24.68 103.903 24.39C103.943 24.1 103.963 23.805 103.963 23.505V14.85H106.408V23.16C106.408 24.01 106.303 24.735 106.093 25.335C105.893 25.925 105.538 26.38 105.028 26.7C104.518 27.01 103.803 27.165 102.883 27.165Z" fill="white"/>
<path d="M94.1453 27.315V25.575C94.4353 25.575 94.6803 25.56 94.8803 25.53C95.0803 25.49 95.2353 25.425 95.3453 25.335C95.4553 25.235 95.5353 25.095 95.5853 24.915C95.6353 24.735 95.6603 24.5 95.6603 24.21V14.85H98.1353V24.315C98.1353 24.985 98.0553 25.545 97.8953 25.995C97.7353 26.435 97.4503 26.765 97.0403 26.985C96.6403 27.205 96.0753 27.315 95.3453 27.315H94.1453Z" fill="white"/>
<path d="M88.8069 29.0701L88.6269 28.3051C88.8869 28.2251 89.1219 28.0851 89.3319 27.8851C89.5419 27.6951 89.6469 27.4001 89.6469 27.0001H88.4619V24.8101H90.6369V26.7451C90.6269 27.4451 90.4719 27.9901 90.1719 28.3801C89.8719 28.7701 89.4169 29.0001 88.8069 29.0701Z" fill="white"/>
<path d="M82.6548 27V14.85H87.9498V16.56H85.1298V19.785H87.3048V21.51H85.1298V25.32H87.9798V27H82.6548Z" fill="white"/>
<path d="M78.2386 27.165C77.3386 27.165 76.6236 26.995 76.0936 26.655C75.5736 26.315 75.2086 25.845 74.9986 25.245C74.7886 24.635 74.6836 23.93 74.6836 23.13V18.765C74.6836 17.925 74.7886 17.205 74.9986 16.605C75.2086 15.995 75.5736 15.525 76.0936 15.195C76.6236 14.865 77.3386 14.7 78.2386 14.7C79.1086 14.7 79.7886 14.845 80.2786 15.135C80.7786 15.425 81.1286 15.835 81.3286 16.365C81.5386 16.895 81.6436 17.51 81.6436 18.21V19.23H79.2436V18.09C79.2436 17.81 79.2286 17.55 79.1986 17.31C79.1686 17.06 79.0836 16.86 78.9436 16.71C78.8136 16.55 78.5836 16.47 78.2536 16.47C77.9236 16.47 77.6836 16.55 77.5336 16.71C77.3836 16.87 77.2886 17.08 77.2486 17.34C77.2086 17.59 77.1886 17.87 77.1886 18.18V23.7C77.1886 24.04 77.2136 24.34 77.2636 24.6C77.3236 24.85 77.4286 25.045 77.5786 25.185C77.7386 25.315 77.9636 25.38 78.2536 25.38C78.5736 25.38 78.7986 25.305 78.9286 25.155C79.0686 24.995 79.1536 24.785 79.1836 24.525C79.2236 24.265 79.2436 23.99 79.2436 23.7V22.515H81.6436V23.52C81.6436 24.23 81.5436 24.86 81.3436 25.41C81.1436 25.95 80.7986 26.38 80.3086 26.7C79.8186 27.01 79.1286 27.165 78.2386 27.165Z" fill="white"/>
<path d="M66.8535 27L69.2085 14.85H71.9535L74.2935 27H71.9985L71.5635 24.33H69.6435L69.1785 27H66.8535ZM69.8685 22.815H71.3235L70.5885 17.91L69.8685 22.815Z" fill="white"/>
<path d="M61.3765 27V14.85H66.6715V16.56H63.8515V19.785H66.0265V21.51H63.8515V25.32H66.7015V27H61.3765Z" fill="white"/>
<path d="M53.6001 27V14.85H57.4551C58.1851 14.85 58.7801 14.99 59.2401 15.27C59.7001 15.54 60.0401 15.935 60.2601 16.455C60.4901 16.975 60.6051 17.605 60.6051 18.345C60.6051 19.215 60.4551 19.895 60.1551 20.385C59.8651 20.875 59.4651 21.225 58.9551 21.435C58.4451 21.635 57.8601 21.735 57.2001 21.735H56.0751V27H53.6001ZM56.0751 19.995H56.9451C57.3051 19.995 57.5801 19.94 57.7701 19.83C57.9701 19.71 58.1051 19.525 58.1751 19.275C58.2451 19.025 58.2801 18.705 58.2801 18.315C58.2801 17.945 58.2501 17.635 58.1901 17.385C58.1401 17.135 58.0201 16.94 57.8301 16.8C57.6401 16.66 57.3401 16.59 56.9301 16.59H56.0751V19.995Z" fill="white"/>
</g>
<defs>
<clipPath id="clip0_143_5910">
<rect width="173" height="173" fill="white"/>
</clipPath>
</defs>
</svg>
