<svg width="173" height="173" viewBox="0 0 173 173" fill="none" xmlns="http://www.w3.org/2000/svg">
<g clip-path="url(#clip0_159_4158)">
<path d="M173 0H0V173H173V0Z" fill="#F2F1F1"/>
<path d="M40.3684 120.145C39.1223 121.65 37.3569 122.819 35.0724 123.675C32.7879 124.506 30.2438 124.947 27.466 124.973C24.5325 124.973 21.9884 124.376 19.7559 123.104C17.5492 121.832 15.8357 120.015 14.6156 117.575C13.3955 115.16 12.7725 112.305 12.7205 109.034V106.749C12.6686 103.374 13.2398 100.441 14.3561 97.9745C15.4723 95.5082 17.1079 93.6131 19.2366 92.2891C21.3654 90.9651 23.8836 90.2902 26.7392 90.2902C30.7371 90.2642 33.8783 91.1988 36.1628 93.0939C38.4473 94.989 39.7971 97.7668 40.2385 101.401L33.4629 101.453C33.1513 99.5321 32.4504 98.1042 31.3861 97.2216C30.3217 96.3389 28.8679 95.8977 26.9987 95.8977C24.6363 95.8977 22.845 96.8062 21.5989 98.5975C20.3788 100.389 19.7559 103.037 19.7818 106.541V108.696C19.8338 112.227 20.5087 114.901 21.8586 116.718C23.2086 118.509 25.2075 119.418 27.8035 119.392C30.4255 119.392 32.2688 118.795 33.3851 117.678L33.3331 111.863L26.9987 111.915V106.801L40.2645 106.697L40.3424 120.171L40.3684 120.145Z" fill="#009ED9"/>
<path d="M87.4605 111.5L95.8976 111.448L91.5623 98.8313L87.4605 111.5ZM97.8188 117.055L85.6174 117.133L83.3329 124.117L75.9341 124.169L88.2912 90.3163L94.7295 90.2643L107.606 123.961L100.207 124.013L97.8188 117.055Z" fill="#009ED9"/>
<path d="M116.666 118.301L131.437 118.198L131.463 123.779L109.735 123.935L109.501 90.1603L116.458 90.1084L116.666 118.301Z" fill="#009ED9"/>
<path d="M151.868 114.797C151.868 113.473 151.401 112.487 150.466 111.786C149.532 111.085 147.844 110.358 145.43 109.605C143.016 108.852 141.095 108.073 139.693 107.346C135.851 105.296 133.904 102.518 133.878 99.0131C133.878 97.1959 134.371 95.5604 135.383 94.1067C136.396 92.6788 137.876 91.5365 139.797 90.7318C141.718 89.901 143.872 89.4857 146.261 89.4857C148.675 89.4857 150.83 89.9011 152.725 90.7578C154.62 91.6144 156.1 92.8346 157.138 94.4182C158.203 96.0018 158.722 97.819 158.748 99.8439L151.79 99.8958C151.79 98.3382 151.297 97.144 150.311 96.2873C149.324 95.4306 147.948 95.0153 146.209 95.0153C144.495 95.0153 143.198 95.4047 142.237 96.1316C141.302 96.8585 140.835 97.819 140.835 98.9872C140.835 100.078 141.406 101.012 142.523 101.739C143.639 102.466 145.274 103.167 147.429 103.79C151.401 104.958 154.283 106.412 156.126 108.151C157.943 109.891 158.878 112.097 158.878 114.719C158.878 117.653 157.813 119.937 155.606 121.625C153.4 123.312 150.44 124.143 146.702 124.169C144.106 124.169 141.744 123.727 139.589 122.793C137.434 121.858 135.799 120.56 134.682 118.925C133.54 117.289 132.969 115.368 132.969 113.188L139.952 113.136C139.978 116.874 142.211 118.717 146.676 118.691C148.338 118.691 149.61 118.328 150.544 117.653C151.479 116.978 151.92 116.043 151.92 114.823" fill="#009ED9"/>
<path d="M52.7256 102.725C53.1409 101.999 53.6602 101.35 54.2573 100.778L49.273 95.3008C48.0269 96.495 46.9364 97.8968 46.1057 99.4285L52.7516 102.725H52.7256Z" fill="#5EBA45"/>
<path d="M64.9529 98.8573C65.7057 99.1947 66.4067 99.6361 67.0557 100.181L72.066 94.7296C70.742 93.5873 69.2624 92.6527 67.6269 91.9518L64.9529 98.8573Z" fill="#D19E29"/>
<path d="M76.4015 100.519L69.7815 103.816C70.093 104.569 70.3267 105.347 70.4565 106.152L77.8293 105.451C77.6216 103.712 77.1283 102.051 76.4273 100.493" fill="#C21F33"/>
<path d="M69.2882 102.855L75.9082 99.5585C75.0775 98.0268 74.0391 96.6509 72.8189 95.4308L67.8086 100.882C68.3797 101.454 68.8728 102.129 69.2882 102.829" fill="#2E9947"/>
<path d="M51.4017 107.58C51.4017 107.424 51.4017 107.269 51.4017 107.139L44.0289 106.464C44.0289 106.827 44.0029 107.191 44.0029 107.58C44.0029 108.982 44.1847 110.358 44.4962 111.682L51.6093 109.631C51.4535 108.956 51.3757 108.281 51.3757 107.58" fill="#47783D"/>
<path d="M68.3797 113.629C67.8604 114.278 67.2633 114.823 66.5884 115.316L70.4824 121.625C71.9362 120.638 73.2084 119.444 74.2987 118.068L68.3797 113.603V113.629Z" fill="#FCB814"/>
<path d="M70.5345 107.58C70.5345 108.281 70.4565 108.956 70.3008 109.605L77.4139 111.656C77.7254 110.358 77.9072 108.982 77.9072 107.58C77.9072 107.242 77.9071 106.879 77.8812 106.542L70.5085 107.242C70.5085 107.242 70.5085 107.476 70.5085 107.58" fill="#F0402B"/>
<path d="M53.6862 113.785L47.7932 118.276C48.8835 119.626 50.1815 120.794 51.6353 121.754L55.5293 115.446C54.8544 114.979 54.2314 114.408 53.6862 113.785Z" fill="#FA9E24"/>
<path d="M51.5056 106.048C51.6354 105.218 51.8691 104.413 52.2066 103.66L45.5866 100.363C44.8597 101.921 44.3405 103.608 44.1328 105.373L51.5056 106.048Z" fill="#007DBA"/>
<path d="M69.5481 122.196L65.654 115.887C64.9531 116.277 64.1743 116.614 63.3955 116.822L64.7713 124.117C66.4847 123.727 68.0943 123.078 69.5481 122.196Z" fill="#8F1738"/>
<path d="M70.0412 110.643C69.7816 111.396 69.444 112.123 69.0027 112.772L74.9217 117.237C75.8823 115.861 76.6351 114.33 77.1543 112.694L70.0412 110.643Z" fill="#00ADD9"/>
<path d="M62.3568 117.03C61.9155 117.082 61.4483 117.134 60.981 117.134C60.5916 117.134 60.228 117.134 59.8646 117.056L58.4888 124.351C59.2935 124.48 60.1243 124.532 60.981 124.532C61.9156 124.532 62.8242 124.454 63.7328 124.299L62.3568 117.03Z" fill="#F26E24"/>
<path d="M61.5781 98.0265C62.4089 98.0785 63.1876 98.2342 63.9404 98.4938L66.6144 91.5883C65.0309 91.0172 63.3434 90.7057 61.5781 90.6278V98.0265Z" fill="#EB1C2E"/>
<path d="M58.8003 116.9C57.9696 116.718 57.1909 116.406 56.438 116.017L52.5439 122.325C54.0496 123.182 55.6852 123.805 57.4245 124.195L58.8003 116.926V116.9Z" fill="#E01A85"/>
<path d="M58.0994 98.4418C58.8782 98.2082 59.6829 98.0525 60.5137 98.0005V90.6018C58.7224 90.6537 57.0091 90.9653 55.4255 91.5364L58.0994 98.4418Z" fill="#1A3669"/>
<path d="M53.0372 112.928C52.5699 112.227 52.1803 111.474 51.9207 110.669L44.8076 112.72C45.3528 114.433 46.1317 115.991 47.1701 117.419L53.063 112.928H53.0372Z" fill="#CF8C29"/>
<path d="M55.0359 100.052C55.6589 99.5583 56.36 99.1429 57.0869 98.8054L54.4129 91.8999C52.8293 92.5749 51.3496 93.4835 50.0515 94.5738L55.0359 100.052Z" fill="#00548A"/>
<path d="M21.5729 60.0206C21.5729 59.4754 21.3913 59.0601 21.0019 58.7485C20.6125 58.437 19.9374 58.1254 18.9769 57.8139C18.0164 57.5024 17.2117 57.1649 16.6146 56.8794C14.6156 55.8929 13.6032 54.5429 13.6032 52.8296C13.6032 51.9729 13.8628 51.2199 14.356 50.5709C14.8493 49.9219 15.5502 49.4027 16.4588 49.0393C17.3674 48.6758 18.4058 48.4941 19.5221 48.4941C20.6384 48.4941 21.625 48.7019 22.5076 49.0913C23.3903 49.4807 24.0652 50.0518 24.5584 50.7787C25.0517 51.5056 25.2854 52.3363 25.2854 53.2708H21.5729C21.5729 52.6478 21.3913 52.1546 21.0019 51.8171C20.6125 51.4796 20.0933 51.2979 19.4443 51.2979C18.7953 51.2979 18.25 51.4536 17.8606 51.7392C17.4712 52.0248 17.2896 52.4141 17.2896 52.8555C17.2896 53.2449 17.4972 53.6083 17.9126 53.9199C18.328 54.2314 19.0808 54.5689 20.1452 54.9064C21.2095 55.2438 22.0922 55.6073 22.7672 56.0226C24.4286 56.9832 25.2594 58.3071 25.2594 59.9946C25.2594 61.3445 24.7402 62.4089 23.7277 63.1617C22.7152 63.9406 21.3134 64.304 19.5481 64.304C18.302 64.304 17.1598 64.0704 16.1473 63.6291C15.1349 63.1878 14.382 62.5647 13.8628 61.7858C13.3436 61.007 13.084 60.0985 13.084 59.086H16.8223C16.8223 59.9168 17.03 60.5138 17.4713 60.9032C17.8867 61.2926 18.5876 61.5003 19.5481 61.5003C20.1712 61.5003 20.6384 61.3705 21.0019 61.1109C21.3653 60.8513 21.5471 60.4878 21.5471 59.9946" fill="#009ED9"/>
<path d="M39.5117 48.676V58.7746C39.5117 59.9168 39.278 60.9034 38.7848 61.7341C38.2915 62.5648 37.5906 63.2138 36.682 63.6551C35.7734 64.0965 34.6831 64.3042 33.4629 64.3042C31.5938 64.3042 30.1141 63.8109 29.0238 62.8504C27.9335 61.8639 27.3883 60.5399 27.3623 58.8525V48.676H31.1006V58.9303C31.1525 60.6178 31.9313 61.4485 33.4629 61.4485C34.2417 61.4485 34.8128 61.2408 35.2022 60.8255C35.5916 60.4101 35.7994 59.7092 35.7994 58.7746V48.702H39.5117V48.676Z" fill="#009ED9"/>
<path d="M49.9997 60.0206C49.9997 59.4754 49.818 59.0601 49.4286 58.7485C49.0392 58.437 48.3642 58.1254 47.4036 57.8139C46.4431 57.5024 45.6384 57.1649 45.0413 56.8794C43.0424 55.8929 42.0298 54.5429 42.0298 52.8296C42.0298 51.9729 42.2895 51.2199 42.7828 50.5709C43.276 49.9219 43.9769 49.4027 44.8856 49.0393C45.7942 48.6758 46.8326 48.4941 47.9489 48.4941C49.0652 48.4941 50.0517 48.7019 50.9344 49.0913C51.817 49.4807 52.4919 50.0518 52.9852 50.7787C53.4784 51.5056 53.712 52.3363 53.712 53.2708H49.9997C49.9997 52.6478 49.818 52.1546 49.4286 51.8171C49.0392 51.4796 48.5199 51.2979 47.8709 51.2979C47.2219 51.2979 46.6768 51.4536 46.2874 51.7392C45.898 52.0248 45.7163 52.4141 45.7163 52.8555C45.7163 53.2449 45.924 53.6083 46.3393 53.9199C46.7547 54.2314 47.5075 54.5689 48.5719 54.9064C49.6363 55.2438 50.5189 55.6073 51.1939 56.0226C52.8554 56.9832 53.6862 58.3071 53.6862 59.9946C53.6862 61.3445 53.1669 62.4089 52.1544 63.1617C51.142 63.9406 49.7402 64.304 47.9749 64.304C46.7288 64.304 45.5865 64.0704 44.574 63.6291C43.5616 63.1878 42.8087 62.5647 42.2895 61.7858C41.7703 61.007 41.5107 60.0985 41.5107 59.086H45.249C45.249 59.9168 45.4567 60.5138 45.8981 60.9032C46.3134 61.2926 47.0143 61.5003 47.9749 61.5003C48.5979 61.5003 49.0652 61.3705 49.4286 61.1109C49.7921 60.8513 49.9737 60.4878 49.9737 59.9946" fill="#009ED9"/>
<path d="M67.9384 51.5573H63.3174V64.0963H59.6051V51.5573H55.062V48.6758H67.9384V51.5573Z" fill="#009ED9"/>
<path d="M73.0265 58.359H76.3495L74.688 53.0111L73.0265 58.359ZM77.232 61.2146H72.1439L71.2612 64.0963H67.2893L72.9487 48.6758H76.4533L82.1646 64.0963H78.1667L77.258 61.2146H77.232Z" fill="#009ED9"/>
<path d="M87.4346 48.6758H83.7222V64.0963H87.4346V48.6758Z" fill="#009ED9"/>
<path d="M103.089 64.0963H99.4025L93.9249 54.5169V64.0963H90.2124V48.6758H93.9249L99.3765 58.2811V48.6758H103.089V64.0963Z" fill="#009ED9"/>
<path d="M110.41 58.359H113.732L112.071 53.0111L110.41 58.359ZM114.615 61.2146H109.527L108.644 64.0963H104.672L110.332 48.6758H113.836L119.548 64.0963H115.55L114.641 61.2146H114.615Z" fill="#009ED9"/>
<path d="M124.558 57.5542V61.2406H126.998C127.673 61.2406 128.192 61.0849 128.556 60.7733C128.919 60.4618 129.101 60.0464 129.101 59.4753C129.101 58.2033 128.452 57.5542 127.18 57.5283H124.584L124.558 57.5542ZM124.558 55.1139H126.505C127.31 55.1139 127.907 54.9582 128.244 54.6726C128.582 54.3871 128.764 53.9457 128.764 53.3746C128.764 52.7256 128.582 52.2583 128.192 51.9727C127.829 51.6872 127.206 51.5314 126.375 51.5314H124.558V55.1139ZM120.846 64.0963V48.6758H126.375C128.348 48.6758 129.88 49.0392 130.892 49.7661C131.931 50.493 132.45 51.5573 132.45 52.9332C132.45 53.738 132.268 54.413 131.905 54.9841C131.541 55.5553 130.996 55.9707 130.295 56.2303C131.1 56.4379 131.723 56.8273 132.138 57.4244C132.58 57.9955 132.787 58.7225 132.787 59.5532C132.787 61.0589 132.32 62.2011 131.36 62.954C130.399 63.7068 128.997 64.0962 127.102 64.1222H120.846V64.0963Z" fill="#009ED9"/>
<path d="M138.758 61.2406H145.248V64.0963H135.046V48.6758H138.758V61.2406Z" fill="#009ED9"/>
<path d="M156.593 57.5542H150.752V61.2406H157.658V64.0963H147.014V48.6758H157.684V51.5573H150.752V54.8024H156.593V57.5542Z" fill="#009ED9"/>
<path d="M17.2638 72.6632V82.1647H18.5359C19.5743 82.1647 20.379 81.8013 20.9502 81.0484C21.5213 80.2956 21.7809 79.2052 21.7809 77.7255V77.0765C21.7809 75.6227 21.4953 74.5064 20.9502 73.7795C20.379 73.0526 19.5743 72.6632 18.5099 72.6632H17.2898H17.2638ZM13.6035 84.9684V69.8595H18.4841C19.808 69.8595 21.0281 70.171 22.0924 70.7681C23.1568 71.3652 23.9876 72.2219 24.5847 73.3382C25.1818 74.4545 25.4932 75.6746 25.4932 77.0505V77.7514C25.4932 79.1273 25.2078 80.3735 24.6107 81.4638C24.0395 82.5541 23.2088 83.4108 22.1444 84.0338C21.08 84.6569 19.8859 84.9684 18.5878 84.9684H13.6293H13.6035Z" fill="#009ED9"/>
<path d="M35.9291 78.5562H30.5813V82.1647H36.9676V84.9684H26.9209V69.8595H36.9676V72.6632H30.5813V75.8563H35.9291V78.5562Z" fill="#009ED9"/>
<path d="M44.9373 80.8407L47.9488 69.8595H52.0246L46.9363 84.9684H42.9644L37.9021 69.8595H41.9519L44.9373 80.8407Z" fill="#009ED9"/>
<path d="M62.0714 78.5562H56.7755V82.1647H63.1097V84.9684H53.115V69.8595H63.1097V72.6632H56.7755V75.8563H62.0714V78.5562Z" fill="#009ED9"/>
<path d="M67.9901 82.1647H73.7534V84.9684H64.3557V69.8595H67.9901V82.1647Z" fill="#009ED9"/>
<path d="M83.5925 77.0762C83.5925 75.5705 83.3329 74.4283 82.8397 73.6494C82.3464 72.8706 81.6195 72.4812 80.6849 72.4812C78.8677 72.4812 77.8812 73.8571 77.7774 76.583V77.6993C77.7774 79.179 78.0111 80.3213 78.5043 81.126C78.9976 81.9308 79.7244 82.3202 80.6849 82.3202C81.6454 82.3202 82.3204 81.9308 82.8137 81.152C83.3069 80.3732 83.5665 79.2569 83.5665 77.7771V77.0762H83.5925ZM87.3048 77.7252C87.3048 79.205 87.0452 80.5029 86.474 81.6452C85.9289 82.7875 85.1501 83.6442 84.1377 84.2672C83.1252 84.8903 81.9829 85.1759 80.6849 85.1759C79.3869 85.1759 78.2446 84.8903 77.2581 84.2932C76.2716 83.6961 75.4929 82.8654 74.9218 81.7491C74.3766 80.6587 74.065 79.3867 74.0391 77.9589V77.1021C74.0391 75.6224 74.3246 74.3244 74.8438 73.1822C75.389 72.0399 76.1679 71.1832 77.1803 70.5601C78.1928 69.9371 79.3349 69.6256 80.6329 69.6256C81.931 69.6256 83.0473 69.9371 84.0597 70.5342C85.0722 71.1312 85.8511 72.0139 86.3962 73.1302C86.9414 74.2465 87.227 75.5446 87.253 76.9984V77.6993L87.3048 77.7252Z" fill="#009ED9"/>
<path d="M92.3931 77.0241H94.7814C95.4823 77.0241 96.0275 76.8425 96.3909 76.505C96.7543 76.1415 96.9361 75.6482 96.9361 74.9992C96.9361 74.2983 96.7545 73.7272 96.3651 73.3118C95.9757 72.8965 95.4564 72.6628 94.8074 72.6628H92.3931V77.0241ZM92.3931 79.8279V84.968H88.7585V69.8591H94.7814C95.9496 69.8591 96.962 70.0668 97.8447 70.5081C98.7273 70.9235 99.4284 71.5465 99.8956 72.3253C100.389 73.1041 100.622 74.0127 100.622 74.9992C100.622 76.479 100.103 77.6472 99.0389 78.5299C97.9745 79.4125 96.5468 79.8539 94.7036 79.8539H92.3671L92.3931 79.8279Z" fill="#009ED9"/>
<path d="M106.775 69.8595L110.15 80.3734L113.499 69.8595H118.301V84.9684H114.641V81.4378L115.005 74.2208L111.344 84.9684H108.93L105.269 74.1948L105.633 81.4378V84.9684H101.972V69.8595H106.775Z" fill="#009ED9"/>
<path d="M128.919 78.5562H123.572V82.1647H129.958V84.9684H119.911V69.8595H129.984V72.6632H123.572V75.8563H128.919V78.5562Z" fill="#009ED9"/>
<path d="M143.795 84.9684H140.186L134.838 75.5707V84.9684H131.178V69.8595H134.838L140.186 79.2571V69.8595H143.795V84.9684Z" fill="#009ED9"/>
<path d="M157.683 72.6632H153.14V84.9684H149.48V72.6632H145.041V69.8595H157.683V72.6632Z" fill="#009ED9"/>
</g>
<defs>
<clipPath id="clip0_159_4158">
<rect width="173" height="173" fill="white"/>
</clipPath>
</defs>
</svg>
