<svg width="173" height="173" viewBox="0 0 173 173" fill="none" xmlns="http://www.w3.org/2000/svg">
<g clip-path="url(#clip0_143_5263)">
<path d="M0 0H173V173H0V0Z" fill="#DDA63A"/>
<path d="M52.2706 121.103C51.914 120.996 51.5575 120.889 51.2188 120.836C51.2188 120.836 51.611 120.961 52.2706 121.103Z" fill="white"/>
<path d="M13.1389 48.01V43.5531L21.1257 31.1272C21.2149 30.9846 21.5358 30.5032 22.0706 29.701C22.6054 28.8987 22.962 28.3461 23.1224 28.043C23.2829 27.7399 23.5325 27.2586 23.8712 26.6168C24.1921 25.9572 24.4239 25.351 24.5486 24.7984C24.6734 24.2457 24.7269 23.6752 24.7269 23.0691C24.7269 21.9281 24.4952 21.0545 24.0316 20.4662C23.6394 19.967 23.0868 19.6996 22.3915 19.6996C22.2845 19.6996 22.1776 19.6996 22.0528 19.7175C20.3057 19.8779 19.4321 21.5181 19.4321 24.6379V26.1354H13.2459V24.5309C13.2459 23.0156 13.4063 21.6429 13.7451 20.4306C14.0838 19.2183 14.6008 18.1486 15.2782 17.2216C15.9557 16.2945 16.9006 15.5814 18.0772 15.0823C19.2538 14.5831 20.6266 14.3335 22.1954 14.3335C25.0835 14.3335 27.2585 15.1001 28.7382 16.6333C30.2179 18.1665 30.9666 20.3236 30.9666 23.1047C30.9666 24.0496 30.8775 24.9588 30.6814 25.8145C30.4853 26.6703 30.1822 27.526 29.7722 28.3461C29.3621 29.1661 28.9699 29.8793 28.6134 30.4497C28.2568 31.0381 27.7755 31.769 27.1693 32.6604C26.9732 32.9456 26.8306 33.1595 26.7236 33.3022L20.3235 42.9648H30.0931V47.9922H13.1389V48.01Z" fill="white"/>
<path d="M70.7045 145.224V147.667C70.7045 147.685 70.6867 147.703 70.6867 147.72C70.6867 147.738 70.6867 147.756 70.7045 147.774C70.7223 148.38 71.2215 148.861 71.8276 148.879H71.8455H71.8811H100.548H100.566H100.584C101.208 148.861 101.707 148.362 101.707 147.738V147.72V144.939C117.877 139.644 129.964 126.577 132.62 110.639C132.62 110.603 132.638 110.567 132.638 110.55C132.656 110.496 132.656 110.443 132.656 110.389C132.656 109.747 132.139 109.23 131.497 109.23H40.6648H40.1122C39.4704 109.23 38.9534 109.747 38.9534 110.389L39.0069 110.906C41.8058 126.987 54.2317 140.144 70.7045 145.224Z" fill="white"/>
<path d="M101.707 70.2234C101.332 70.7582 92.5077 83.4693 101.903 93.7381C106.217 98.4624 105.843 102.616 104.613 105.433H110.639C111.869 101.279 111.352 96.0735 106.467 90.7252C99.5497 83.1484 106.556 72.9153 106.663 72.7549C107.483 71.5961 107.055 70.0807 105.682 69.3854C104.31 68.6902 102.527 69.0646 101.707 70.2234Z" fill="white"/>
<path d="M86.4285 105.433H92.4543C93.6666 101.279 93.1674 96.0735 88.2648 90.7252C81.3298 83.1484 88.3361 72.9153 88.4609 72.7549C89.281 71.5961 88.8531 70.0807 87.4804 69.3854C86.1255 68.6902 84.3427 69.0646 83.5226 70.2234C83.1482 70.7582 74.3057 83.4693 83.7187 93.7381C88.033 98.4624 87.6586 102.616 86.4285 105.433Z" fill="white"/>
<path d="M65.3563 70.2234C64.982 70.7582 56.1394 83.4693 65.5525 93.7381C69.8668 98.4624 69.4924 102.616 68.2623 105.433H74.288C75.5003 101.279 75.0011 96.0735 70.0985 90.7252C63.1635 83.1484 70.1877 72.9153 70.2946 72.7549C71.1147 71.5961 70.6868 70.0807 69.3141 69.3854C67.9414 68.6902 66.1764 69.0646 65.3563 70.2234Z" fill="white"/>
<path d="M87.0479 48V35.85H90.1978C91.0178 35.85 91.7179 35.945 92.2979 36.135C92.8879 36.315 93.3378 36.64 93.6479 37.11C93.9679 37.58 94.1278 38.23 94.1278 39.06C94.1278 39.56 94.0829 40.005 93.9929 40.395C93.9129 40.775 93.7629 41.11 93.5429 41.4C93.3329 41.68 93.0329 41.905 92.6429 42.075L94.3228 48H91.7878L90.3928 42.495H89.5229V48H87.0479ZM89.5229 41.025H90.2429C90.6429 41.025 90.9579 40.96 91.1879 40.83C91.4179 40.7 91.5779 40.505 91.6679 40.245C91.7679 39.975 91.8179 39.645 91.8179 39.255C91.8179 38.695 91.7128 38.27 91.5028 37.98C91.3028 37.68 90.9229 37.53 90.3629 37.53H89.5229V41.025Z" fill="white"/>
<path d="M80.4707 48V35.85H85.7657V37.56H82.9457V40.785H85.1207V42.51H82.9457V46.32H85.7957V48H80.4707Z" fill="white"/>
<path d="M74.9915 48.18C74.1715 48.18 73.5215 48.01 73.0415 47.67C72.5615 47.32 72.2165 46.83 72.0065 46.2C71.8065 45.56 71.7065 44.82 71.7065 43.98V39.915C71.7065 39.045 71.8115 38.295 72.0215 37.665C72.2315 37.035 72.5965 36.55 73.1165 36.21C73.6465 35.87 74.3615 35.7 75.2615 35.7C76.1315 35.7 76.8165 35.845 77.3165 36.135C77.8265 36.425 78.1915 36.835 78.4115 37.365C78.6315 37.895 78.7415 38.525 78.7415 39.255V39.96H76.3265V39.105C76.3265 38.785 76.3065 38.505 76.2665 38.265C76.2265 38.015 76.1315 37.82 75.9815 37.68C75.8415 37.54 75.6115 37.47 75.2915 37.47C74.9615 37.47 74.7215 37.555 74.5715 37.725C74.4215 37.895 74.3265 38.115 74.2865 38.385C74.2465 38.645 74.2265 38.925 74.2265 39.225V44.61C74.2265 44.95 74.2565 45.255 74.3165 45.525C74.3765 45.795 74.4865 46.005 74.6465 46.155C74.8165 46.305 75.0565 46.38 75.3665 46.38C75.6765 46.38 75.9165 46.3 76.0865 46.14C76.2565 45.98 76.3715 45.765 76.4315 45.495C76.5015 45.215 76.5365 44.9 76.5365 44.55V43.26H75.3515V41.76H78.7715V48H77.1515L77.0015 46.905C76.8415 47.275 76.6015 47.58 76.2815 47.82C75.9615 48.06 75.5315 48.18 74.9915 48.18Z" fill="white"/>
<path d="M63.5811 48V35.85H65.3061L68.0061 42.18V35.85H70.0461V48H68.3961L65.6961 41.28V48H63.5811Z" fill="white"/>
<path d="M58.3292 48.165C57.4092 48.165 56.6942 48.01 56.1842 47.7C55.6742 47.38 55.3142 46.925 55.1042 46.335C54.9042 45.735 54.8042 45.01 54.8042 44.16V35.85H57.2492V44.505C57.2492 44.805 57.2692 45.1 57.3092 45.39C57.3592 45.68 57.4592 45.915 57.6092 46.095C57.7692 46.275 58.0092 46.365 58.3292 46.365C58.6592 46.365 58.8992 46.275 59.0492 46.095C59.2092 45.915 59.3092 45.68 59.3492 45.39C59.3892 45.1 59.4092 44.805 59.4092 44.505V35.85H61.8542V44.16C61.8542 45.01 61.7492 45.735 61.5392 46.335C61.3392 46.925 60.9842 47.38 60.4742 47.7C59.9642 48.01 59.2492 48.165 58.3292 48.165Z" fill="white"/>
<path d="M45.9448 48V35.85H48.4198V40.845H50.5648V35.85H53.0398V48H50.5648V42.615H48.4198V48H45.9448Z" fill="white"/>
<path d="M70.9699 27.165C70.0799 27.165 69.3749 27.005 68.8549 26.685C68.3349 26.365 67.9599 25.91 67.7299 25.32C67.5099 24.72 67.3999 24.005 67.3999 23.175V18.645C67.3999 17.815 67.5099 17.105 67.7299 16.515C67.9599 15.925 68.3349 15.475 68.8549 15.165C69.3749 14.855 70.0799 14.7 70.9699 14.7C71.8699 14.7 72.5799 14.86 73.0999 15.18C73.6299 15.49 74.0049 15.94 74.2249 16.53C74.4549 17.11 74.5699 17.815 74.5699 18.645V23.175C74.5699 24.005 74.4549 24.72 74.2249 25.32C74.0049 25.91 73.6299 26.365 73.0999 26.685C72.5799 27.005 71.8699 27.165 70.9699 27.165ZM70.9699 25.38C71.2899 25.38 71.5249 25.31 71.6749 25.17C71.8249 25.02 71.9249 24.825 71.9749 24.585C72.0249 24.335 72.0499 24.07 72.0499 23.79V18.045C72.0499 17.765 72.0249 17.505 71.9749 17.265C71.9249 17.025 71.8249 16.835 71.6749 16.695C71.5249 16.545 71.2899 16.47 70.9699 16.47C70.6699 16.47 70.4449 16.545 70.2949 16.695C70.1449 16.835 70.0449 17.025 69.9949 17.265C69.9449 17.505 69.9199 17.765 69.9199 18.045V23.79C69.9199 24.07 69.9399 24.335 69.9799 24.585C70.0299 24.825 70.1299 25.02 70.2799 25.17C70.4299 25.31 70.6599 25.38 70.9699 25.38Z" fill="white"/>
<path d="M58.9375 27V14.85H62.0875C62.9075 14.85 63.6075 14.945 64.1875 15.135C64.7775 15.315 65.2275 15.64 65.5375 16.11C65.8575 16.58 66.0175 17.23 66.0175 18.06C66.0175 18.56 65.9725 19.005 65.8825 19.395C65.8025 19.775 65.6525 20.11 65.4325 20.4C65.2225 20.68 64.9225 20.905 64.5325 21.075L66.2125 27H63.6775L62.2825 21.495H61.4125V27H58.9375ZM61.4125 20.025H62.1325C62.5325 20.025 62.8475 19.96 63.0775 19.83C63.3075 19.7 63.4675 19.505 63.5575 19.245C63.6575 18.975 63.7075 18.645 63.7075 18.255C63.7075 17.695 63.6025 17.27 63.3925 16.98C63.1925 16.68 62.8125 16.53 62.2525 16.53H61.4125V20.025Z" fill="white"/>
<path d="M52.3604 27V14.85H57.6554V16.56H54.8354V19.785H57.0104V21.51H54.8354V25.32H57.6854V27H52.3604Z" fill="white"/>
<path d="M45.4648 27V25.47L48.5548 16.53H45.6148V14.85H51.0298V16.2L47.8498 25.32H51.0448V27H45.4648Z" fill="white"/>
</g>
<defs>
<clipPath id="clip0_143_5263">
<rect width="173" height="173" fill="white"/>
</clipPath>
</defs>
</svg>
