<svg width="173" height="173" viewBox="0 0 173 173" fill="none" xmlns="http://www.w3.org/2000/svg">
<g clip-path="url(#clip0_143_5270)">
<path d="M0 0H173V173H0V0Z" fill="#26BDE2"/>
<path d="M22.0885 48.4557C20.5375 48.4557 19.1826 48.1883 18.0238 47.6356C16.865 47.083 15.938 46.3164 15.2249 45.318C14.5296 44.3197 13.9948 43.1609 13.656 41.8594C13.3173 40.558 13.139 39.114 13.139 37.5095V25.9571C13.139 24.5844 13.2103 23.3365 13.3708 22.249C13.5312 21.1436 13.8165 20.0918 14.2265 19.0935C14.6366 18.0951 15.1714 17.2572 15.831 16.5976C16.4906 15.938 17.3464 15.4031 18.3982 15.0109C19.45 14.6187 20.6802 14.4226 22.0707 14.4226C25.0123 14.4226 27.1516 15.1357 28.4709 16.5441C29.8079 17.9525 30.4854 20.074 30.5389 22.8729V23.3899H24.5131C24.5131 21.9102 24.3527 20.8584 24.0496 20.2166C23.7465 19.5748 23.0869 19.2717 22.1064 19.2717C21.1258 19.2717 20.4484 19.7531 20.0918 20.7336C19.7353 21.7141 19.557 23.4791 19.557 26.0106V29.4157C19.9136 28.8096 20.4662 28.3104 21.215 27.9717C21.9637 27.6329 22.8195 27.4368 23.8 27.419H23.9248C24.9053 27.419 25.7789 27.5616 26.5811 27.8647C27.4012 28.1856 28.0965 28.6313 28.6491 29.1839C29.2018 29.7366 29.6475 30.4319 29.9862 31.252C30.3249 32.072 30.5745 32.9456 30.735 33.8726C30.8954 34.7997 30.9667 35.8337 30.9667 36.939C30.9667 38.3295 30.8776 39.5953 30.6993 40.7185C30.521 41.8594 30.218 42.9113 29.7901 43.8918C29.3622 44.8723 28.8096 45.6924 28.15 46.3698C27.4903 47.0473 26.6346 47.5643 25.6184 47.9387C24.5844 48.2596 23.4078 48.4557 22.0885 48.4557ZM22.1777 43.6957C22.6769 43.6957 23.1047 43.5709 23.4434 43.3213C23.7822 43.0717 24.0318 42.6795 24.1922 42.1447C24.3527 41.6098 24.4775 41.0215 24.5488 40.3976C24.6201 39.7736 24.6557 38.9713 24.6557 38.0443C24.6557 37.4382 24.6557 36.9925 24.6379 36.6894C24.6379 36.3863 24.6022 35.9763 24.5844 35.4949C24.5488 35.0136 24.5131 34.6392 24.4418 34.3718C24.3883 34.1044 24.2992 33.8191 24.1744 33.4982C24.0496 33.1773 23.907 32.9456 23.7287 32.7851C23.5504 32.6247 23.3187 32.4999 23.0512 32.3929C22.7838 32.286 22.4808 32.2147 22.1242 32.2147C21.5537 32.2147 21.0367 32.3751 20.591 32.7138C20.1453 33.0526 19.7888 33.4269 19.5748 33.8726V39.0605C19.557 42.1269 20.4306 43.6957 22.1777 43.6957Z" fill="white"/>
<path d="M113.527 85.466C111.815 84.7173 109.658 84.9847 107.572 85.8226C99.7461 88.9959 94.4334 90.1369 86.197 87.5519C81.0092 85.9296 76.16 82.5245 70.4374 84.6103C66.6401 85.983 63.0923 87.2845 58.7959 87.2488L56.3178 74.5198H115.328L113.527 85.466ZM93.5242 123.279C93.5242 123.279 90.654 126.22 86.0009 125.899C81.3301 126.22 78.4598 123.279 78.4598 123.279C73.7355 118.554 75.4291 112.689 77.0693 109.658C78.0854 107.751 85.3413 96.8579 85.9653 95.9309V95.8596C85.9653 95.8596 85.9831 95.8774 86.0009 95.8952L86.0188 95.8596V95.9309C86.6249 96.8579 93.8986 107.751 94.9148 109.658C96.5728 112.689 98.2486 118.554 93.5242 123.279ZM117.895 71.9883C117.752 71.8278 117.556 71.7387 117.324 71.7387H54.2676C54.0537 71.7387 53.8576 71.8278 53.6971 71.9883C53.5545 72.1666 53.501 72.3805 53.5367 72.5944L64.1264 136.649C64.1798 137.006 64.5007 137.273 64.8573 137.273H77.8537L78.7451 147.703H73.272L86.0009 160.432L98.7656 147.667H93.2925L94.1839 137.256H107.412C107.769 137.256 108.089 136.988 108.143 136.632L118.055 72.5766C118.091 72.3627 118.037 72.1487 117.895 71.9883Z" fill="white"/>
<path d="M132.739 48V35.85H134.464L137.164 42.18V35.85H139.204V48H137.554L134.854 41.28V48H132.739Z" fill="white"/>
<path d="M127.487 48.165C126.597 48.165 125.892 48.005 125.372 47.685C124.852 47.365 124.477 46.91 124.247 46.32C124.027 45.72 123.917 45.005 123.917 44.175V39.645C123.917 38.815 124.027 38.105 124.247 37.515C124.477 36.925 124.852 36.475 125.372 36.165C125.892 35.855 126.597 35.7 127.487 35.7C128.387 35.7 129.097 35.86 129.617 36.18C130.147 36.49 130.522 36.94 130.742 37.53C130.972 38.11 131.087 38.815 131.087 39.645V44.175C131.087 45.005 130.972 45.72 130.742 46.32C130.522 46.91 130.147 47.365 129.617 47.685C129.097 48.005 128.387 48.165 127.487 48.165ZM127.487 46.38C127.807 46.38 128.042 46.31 128.192 46.17C128.342 46.02 128.442 45.825 128.492 45.585C128.542 45.335 128.567 45.07 128.567 44.79V39.045C128.567 38.765 128.542 38.505 128.492 38.265C128.442 38.025 128.342 37.835 128.192 37.695C128.042 37.545 127.807 37.47 127.487 37.47C127.187 37.47 126.962 37.545 126.812 37.695C126.662 37.835 126.562 38.025 126.512 38.265C126.462 38.505 126.437 38.765 126.437 39.045V44.79C126.437 45.07 126.457 45.335 126.497 45.585C126.547 45.825 126.647 46.02 126.797 46.17C126.947 46.31 127.177 46.38 127.487 46.38Z" fill="white"/>
<path d="M119.776 48V35.85H122.236V48H119.776Z" fill="white"/>
<path d="M114.309 48V37.695H112.434V35.85H118.644V37.695H116.799V48H114.309Z" fill="white"/>
<path d="M105.157 48L107.512 35.85H110.257L112.597 48H110.302L109.867 45.33H107.947L107.482 48H105.157ZM108.172 43.815H109.627L108.892 38.91L108.172 43.815Z" fill="white"/>
<path d="M100.979 48V37.695H99.1039V35.85H105.314V37.695H103.469V48H100.979Z" fill="white"/>
<path d="M95.5183 48V35.85H97.9783V48H95.5183Z" fill="white"/>
<path d="M87.1826 48V35.85H88.9076L91.6076 42.18V35.85H93.6476V48H91.9976L89.2976 41.28V48H87.1826Z" fill="white"/>
<path d="M78.5114 48L80.8664 35.85H83.6114L85.9514 48H83.6564L83.2214 45.33H81.3014L80.8364 48H78.5114ZM81.5264 43.815H82.9814L82.2464 38.91L81.5264 43.815Z" fill="white"/>
<path d="M74.7907 48.165C74.0407 48.165 73.4157 48.03 72.9157 47.76C72.4157 47.48 72.0357 47.065 71.7757 46.515C71.5257 45.955 71.3807 45.245 71.3407 44.385L73.4707 44.025C73.4907 44.525 73.5407 44.945 73.6207 45.285C73.7107 45.615 73.8407 45.865 74.0107 46.035C74.1907 46.195 74.4107 46.275 74.6707 46.275C74.9907 46.275 75.2057 46.175 75.3157 45.975C75.4357 45.775 75.4957 45.545 75.4957 45.285C75.4957 44.775 75.3707 44.35 75.1207 44.01C74.8807 43.66 74.5607 43.31 74.1607 42.96L72.9007 41.865C72.4507 41.485 72.0807 41.055 71.7907 40.575C71.5107 40.095 71.3707 39.505 71.3707 38.805C71.3707 37.805 71.6607 37.04 72.2407 36.51C72.8307 35.97 73.6357 35.7 74.6557 35.7C75.2657 35.7 75.7657 35.8 76.1557 36C76.5457 36.2 76.8457 36.47 77.0557 36.81C77.2757 37.14 77.4257 37.505 77.5057 37.905C77.5957 38.295 77.6507 38.685 77.6707 39.075L75.5557 39.39C75.5357 39.02 75.5007 38.695 75.4507 38.415C75.4107 38.135 75.3207 37.915 75.1807 37.755C75.0507 37.595 74.8507 37.515 74.5807 37.515C74.2907 37.515 74.0757 37.625 73.9357 37.845C73.7957 38.055 73.7257 38.29 73.7257 38.55C73.7257 38.98 73.8207 39.335 74.0107 39.615C74.2107 39.885 74.4807 40.17 74.8207 40.47L76.0507 41.55C76.5607 41.99 76.9957 42.495 77.3557 43.065C77.7257 43.625 77.9107 44.32 77.9107 45.15C77.9107 45.72 77.7807 46.235 77.5207 46.695C77.2607 47.155 76.8957 47.515 76.4257 47.775C75.9657 48.035 75.4207 48.165 74.7907 48.165Z" fill="white"/>
<path d="M59.292 48V35.85H62.262C63.292 35.85 64.092 35.985 64.662 36.255C65.242 36.515 65.652 36.93 65.892 37.5C66.132 38.06 66.252 38.78 66.252 39.66V44.085C66.252 44.985 66.132 45.725 65.892 46.305C65.652 46.885 65.247 47.315 64.677 47.595C64.117 47.865 63.332 48 62.322 48H59.292ZM61.767 46.275H62.292C62.752 46.275 63.077 46.205 63.267 46.065C63.467 45.915 63.592 45.7 63.642 45.42C63.692 45.13 63.717 44.775 63.717 44.355V39.345C63.717 38.925 63.682 38.59 63.612 38.34C63.552 38.08 63.422 37.89 63.222 37.77C63.032 37.65 62.717 37.59 62.277 37.59H61.767V46.275Z" fill="white"/>
<path d="M50.9863 48V35.85H52.7113L55.4113 42.18V35.85H57.4513V48H55.8013L53.1013 41.28V48H50.9863Z" fill="white"/>
<path d="M42.3151 48L44.6701 35.85H47.4151L49.7551 48H47.4601L47.0251 45.33H45.1051L44.6401 48H42.3151ZM45.3301 43.815H46.7851L46.0501 38.91L45.3301 43.815Z" fill="white"/>
<path d="M115.205 27V14.85H118.355C119.175 14.85 119.875 14.945 120.455 15.135C121.045 15.315 121.495 15.64 121.805 16.11C122.125 16.58 122.285 17.23 122.285 18.06C122.285 18.56 122.24 19.005 122.15 19.395C122.07 19.775 121.92 20.11 121.7 20.4C121.49 20.68 121.19 20.905 120.8 21.075L122.48 27H119.945L118.55 21.495H117.68V27H115.205ZM117.68 20.025H118.4C118.8 20.025 119.115 19.96 119.345 19.83C119.575 19.7 119.735 19.505 119.825 19.245C119.925 18.975 119.975 18.645 119.975 18.255C119.975 17.695 119.87 17.27 119.66 16.98C119.46 16.68 119.08 16.53 118.52 16.53H117.68V20.025Z" fill="white"/>
<path d="M108.628 27V14.85H113.923V16.56H111.103V19.785H113.278V21.51H111.103V25.32H113.953V27H108.628Z" fill="white"/>
<path d="M103.191 27V16.695H101.316V14.85H107.526V16.695H105.681V27H103.191Z" fill="white"/>
<path d="M94.0387 27L96.3937 14.85H99.1387L101.479 27H99.1837L98.7487 24.33H96.8287L96.3637 27H94.0387ZM97.0537 22.815H98.5087L97.7737 17.91L97.0537 22.815Z" fill="white"/>
<path d="M85.4944 27L83.9194 14.85H86.0194L86.8594 22.275L87.9244 14.865H89.5894L90.6994 22.26L91.5394 14.85H93.6094L92.0494 27H89.9494L88.7644 19.305L87.6394 27H85.4944Z" fill="white"/>
<path d="M72.3438 27V14.85H74.0687L76.7687 21.18V14.85H78.8088V27H77.1587L74.4587 20.28V27H72.3438Z" fill="white"/>
<path d="M63.6725 27L66.0275 14.85H68.7725L71.1125 27H68.8175L68.3825 24.33H66.4625L65.9975 27H63.6725ZM66.6875 22.815H68.1425L67.4075 17.91L66.6875 22.815Z" fill="white"/>
<path d="M57.6953 27V14.85H62.9903V16.56H60.1703V19.785H62.3453V21.51H60.1703V25.32H63.0203V27H57.6953Z" fill="white"/>
<path d="M51.2061 27V14.85H53.6811V25.32H56.5311V27H51.2061Z" fill="white"/>
<path d="M46.2901 27.165C45.3901 27.165 44.6751 26.995 44.1451 26.655C43.6251 26.315 43.2601 25.845 43.0501 25.245C42.8401 24.635 42.7351 23.93 42.7351 23.13V18.765C42.7351 17.925 42.8401 17.205 43.0501 16.605C43.2601 15.995 43.6251 15.525 44.1451 15.195C44.6751 14.865 45.3901 14.7 46.2901 14.7C47.1601 14.7 47.8401 14.845 48.3301 15.135C48.8301 15.425 49.1801 15.835 49.3801 16.365C49.5901 16.895 49.6951 17.51 49.6951 18.21V19.23H47.2951V18.09C47.2951 17.81 47.2801 17.55 47.2501 17.31C47.2201 17.06 47.1351 16.86 46.9951 16.71C46.8651 16.55 46.6351 16.47 46.3051 16.47C45.9751 16.47 45.7351 16.55 45.5851 16.71C45.4351 16.87 45.3401 17.08 45.3001 17.34C45.2601 17.59 45.2401 17.87 45.2401 18.18V23.7C45.2401 24.04 45.2651 24.34 45.3151 24.6C45.3751 24.85 45.4801 25.045 45.6301 25.185C45.7901 25.315 46.0151 25.38 46.3051 25.38C46.6251 25.38 46.8501 25.305 46.9801 25.155C47.1201 24.995 47.2051 24.785 47.2351 24.525C47.2751 24.265 47.2951 23.99 47.2951 23.7V22.515H49.6951V23.52C49.6951 24.23 49.5951 24.86 49.3951 25.41C49.1951 25.95 48.8501 26.38 48.3601 26.7C47.8701 27.01 47.1801 27.165 46.2901 27.165Z" fill="white"/>
</g>
<defs>
<clipPath id="clip0_143_5270">
<rect width="173" height="173" fill="white"/>
</clipPath>
</defs>
</svg>
