<svg width="173" height="173" viewBox="0 0 173 173" fill="none" xmlns="http://www.w3.org/2000/svg">
<g clip-path="url(#clip0_143_5273)">
<path d="M0 0H173V173H0V0Z" fill="#FCC30B"/>
<path d="M15.2963 48.01L22.1421 19.6461H13.2639V14.8148H28.3461V18.8795L21.4647 48.01H15.2963Z" fill="white"/>
<path d="M85.8049 122.227C78.4955 122.227 72.5589 116.29 72.5589 108.981C72.5589 103.044 76.481 97.9989 81.865 96.3231V101.261C79.066 102.688 77.1228 105.611 77.1228 108.981C77.1228 113.776 81.0092 117.663 85.7871 117.663C90.5827 117.663 94.4513 113.776 94.4513 108.981C94.4513 105.593 92.5081 102.688 89.6913 101.244V96.3231C95.0931 97.9989 99.033 103.026 99.033 108.981C99.0509 116.29 93.1142 122.227 85.8049 122.227ZM83.9151 93.7559C83.9151 92.9001 84.7709 91.9731 85.8049 91.9731C86.8389 91.9731 87.6946 92.9001 87.6946 93.7559V102.491C87.6946 103.329 86.8567 104.256 85.8049 104.256C84.7531 104.256 83.9151 103.329 83.9151 102.491V93.7559ZM85.8049 83.701C71.7388 83.701 60.3291 95.1108 60.3291 109.177C60.3291 123.243 71.7388 134.653 85.8049 134.653C99.8709 134.653 111.281 123.243 111.281 109.177C111.263 95.1108 99.8709 83.701 85.8049 83.701Z" fill="white"/>
<path d="M56.5673 108.945C56.5673 107.786 55.5512 106.859 54.6063 106.859H43.4462C42.5013 106.859 41.4673 107.786 41.4673 108.945C41.4673 110.104 42.5013 111.049 43.4462 111.049H54.6063C55.5333 111.049 56.5673 110.104 56.5673 108.945Z" fill="white"/>
<path d="M130.124 108.945C130.124 107.786 129.108 106.859 128.163 106.859H117.003C116.058 106.859 115.024 107.786 115.024 108.945C115.024 110.104 116.058 111.049 117.003 111.049H128.163C129.108 111.049 130.124 110.104 130.124 108.945Z" fill="white"/>
<path d="M85.8048 153.283C86.9636 153.283 87.8907 152.266 87.8907 151.322V140.161C87.8907 139.217 86.9458 138.183 85.8048 138.183C84.646 138.183 83.7012 139.217 83.7012 140.161V151.322C83.7012 152.266 84.646 153.283 85.8048 153.283Z" fill="white"/>
<path d="M124.277 130.962C124.847 129.964 124.419 128.645 123.617 128.181L113.937 122.637C113.117 122.173 111.762 122.476 111.191 123.475C110.621 124.473 111.049 125.81 111.869 126.274L121.549 131.818C122.351 132.281 123.706 131.978 124.277 130.962Z" fill="white"/>
<path d="M63.7876 147.435C64.7859 148.006 66.1052 147.578 66.5687 146.775L72.1131 137.095C72.5766 136.275 72.2736 134.92 71.2752 134.349C70.2769 133.779 68.9398 134.207 68.4763 135.027L62.9318 144.707C62.4862 145.492 62.7892 146.847 63.7876 147.435Z" fill="white"/>
<path d="M107.911 147.382C108.91 146.811 109.213 145.456 108.749 144.636L103.187 134.974C102.723 134.154 101.386 133.726 100.388 134.314C99.3897 134.884 99.0866 136.257 99.5501 137.077L105.112 146.74C105.576 147.542 106.895 147.952 107.911 147.382Z" fill="white"/>
<path d="M47.3861 131.051C47.9566 132.05 49.3115 132.353 50.1316 131.889L59.7942 126.327C60.6143 125.864 61.0421 124.526 60.4716 123.528C59.9011 122.53 58.5284 122.227 57.7083 122.69L48.0457 128.252C47.2256 128.734 46.7978 130.053 47.3861 131.051Z" fill="white"/>
<path d="M85.8048 79.7076C86.9636 79.7076 87.8907 78.6914 87.8907 77.7466V66.5864C87.8907 65.6415 86.9458 64.6075 85.8048 64.6075C84.646 64.6075 83.7012 65.6415 83.7012 66.5864V77.7466C83.7012 78.6914 84.646 79.7076 85.8048 79.7076Z" fill="white"/>
<path d="M60.4182 94.4334C60.9887 93.435 60.5608 92.1158 59.7586 91.6522L50.0781 86.1078C49.258 85.6443 47.9031 85.9296 47.3327 86.9457C46.7622 87.9441 47.19 89.2812 48.0101 89.7447L57.6905 95.2891C58.4928 95.7348 59.8477 95.4317 60.4182 94.4334Z" fill="white"/>
<path d="M100.334 83.5763C101.333 84.1468 102.652 83.7189 103.115 82.9166L108.66 73.2362C109.123 72.4161 108.82 71.0612 107.822 70.4907C106.824 69.9202 105.486 70.3481 105.023 71.1682L99.4785 80.8486C99.015 81.6509 99.3359 83.0058 100.334 83.5763Z" fill="white"/>
<path d="M71.2397 83.5941C72.238 83.0236 72.5411 81.6687 72.0776 80.8486L66.5153 71.186C66.0518 70.3659 64.7147 69.938 63.7164 70.5264C62.718 71.0968 62.415 72.4696 62.8785 73.2896L68.4407 82.9523C68.9042 83.7545 70.2235 84.1824 71.2397 83.5941Z" fill="white"/>
<path d="M111.156 94.3798C111.726 95.3781 113.081 95.6812 113.901 95.2177L123.564 89.6555C124.384 89.1919 124.812 87.8549 124.241 86.8565C123.671 85.8582 122.298 85.5551 121.478 86.0186L111.815 91.5809C110.995 92.0444 110.585 93.3814 111.156 94.3798Z" fill="white"/>
<path d="M124.456 48V43.185L122.086 35.85H124.411L125.716 40.125L126.931 35.85H129.181L126.841 43.185V48H124.456Z" fill="white"/>
<path d="M117.607 48.18C116.787 48.18 116.137 48.01 115.657 47.67C115.177 47.32 114.832 46.83 114.622 46.2C114.422 45.56 114.322 44.82 114.322 43.98V39.915C114.322 39.045 114.427 38.295 114.637 37.665C114.847 37.035 115.212 36.55 115.732 36.21C116.262 35.87 116.977 35.7 117.877 35.7C118.747 35.7 119.432 35.845 119.932 36.135C120.442 36.425 120.807 36.835 121.027 37.365C121.247 37.895 121.357 38.525 121.357 39.255V39.96H118.942V39.105C118.942 38.785 118.922 38.505 118.882 38.265C118.842 38.015 118.747 37.82 118.597 37.68C118.457 37.54 118.227 37.47 117.907 37.47C117.577 37.47 117.337 37.555 117.187 37.725C117.037 37.895 116.942 38.115 116.902 38.385C116.862 38.645 116.842 38.925 116.842 39.225V44.61C116.842 44.95 116.872 45.255 116.932 45.525C116.992 45.795 117.102 46.005 117.262 46.155C117.432 46.305 117.672 46.38 117.982 46.38C118.292 46.38 118.532 46.3 118.702 46.14C118.872 45.98 118.987 45.765 119.047 45.495C119.117 45.215 119.152 44.9 119.152 44.55V43.26H117.967V41.76H121.387V48H119.767L119.617 46.905C119.457 47.275 119.217 47.58 118.897 47.82C118.577 48.06 118.147 48.18 117.607 48.18Z" fill="white"/>
<path d="M105.859 48V35.85H109.009C109.829 35.85 110.529 35.945 111.109 36.135C111.699 36.315 112.149 36.64 112.459 37.11C112.779 37.58 112.939 38.23 112.939 39.06C112.939 39.56 112.894 40.005 112.804 40.395C112.724 40.775 112.574 41.11 112.354 41.4C112.144 41.68 111.844 41.905 111.454 42.075L113.134 48H110.599L109.204 42.495H108.334V48H105.859ZM108.334 41.025H109.054C109.454 41.025 109.769 40.96 109.999 40.83C110.229 40.7 110.389 40.505 110.479 40.245C110.579 39.975 110.629 39.645 110.629 39.255C110.629 38.695 110.524 38.27 110.314 37.98C110.114 37.68 109.734 37.53 109.174 37.53H108.334V41.025Z" fill="white"/>
<path d="M99.2822 48V35.85H104.577V37.56H101.757V40.785H103.932V42.51H101.757V46.32H104.607V48H99.2822Z" fill="white"/>
<path d="M90.9766 48V35.85H92.7016L95.4016 42.18V35.85H97.4416V48H95.7916L93.0916 41.28V48H90.9766Z" fill="white"/>
<path d="M84.3994 48V35.85H89.6944V37.56H86.8744V40.785H89.0494V42.51H86.8744V46.32H89.7244V48H84.3994Z" fill="white"/>
<path d="M72.3438 48V35.85H74.0687L76.7687 42.18V35.85H78.8088V48H77.1587L74.4587 41.28V48H72.3438Z" fill="white"/>
<path d="M63.6724 48L66.0274 35.85H68.7724L71.1124 48H68.8174L68.3824 45.33H66.4624L65.9974 48H63.6724ZM66.6874 43.815H68.1424L67.4074 38.91L66.6874 43.815Z" fill="white"/>
<path d="M57.6953 48V35.85H62.9903V37.56H60.1703V40.785H62.3453V42.51H60.1703V46.32H63.0203V48H57.6953Z" fill="white"/>
<path d="M51.2061 48V35.85H53.6811V46.32H56.5311V48H51.2061Z" fill="white"/>
<path d="M46.2901 48.165C45.3901 48.165 44.6751 47.995 44.1451 47.655C43.6251 47.315 43.2601 46.845 43.0501 46.245C42.8401 45.635 42.7351 44.93 42.7351 44.13V39.765C42.7351 38.925 42.8401 38.205 43.0501 37.605C43.2601 36.995 43.6251 36.525 44.1451 36.195C44.6751 35.865 45.3901 35.7 46.2901 35.7C47.1601 35.7 47.8401 35.845 48.3301 36.135C48.8301 36.425 49.1801 36.835 49.3801 37.365C49.5901 37.895 49.6951 38.51 49.6951 39.21V40.23H47.2951V39.09C47.2951 38.81 47.2801 38.55 47.2501 38.31C47.2201 38.06 47.1351 37.86 46.9951 37.71C46.8651 37.55 46.6351 37.47 46.3051 37.47C45.9751 37.47 45.7351 37.55 45.5851 37.71C45.4351 37.87 45.3401 38.08 45.3001 38.34C45.2601 38.59 45.2401 38.87 45.2401 39.18V44.7C45.2401 45.04 45.2651 45.34 45.3151 45.6C45.3751 45.85 45.4801 46.045 45.6301 46.185C45.7901 46.315 46.0151 46.38 46.3051 46.38C46.6251 46.38 46.8501 46.305 46.9801 46.155C47.1201 45.995 47.2051 45.785 47.2351 45.525C47.2751 45.265 47.2951 44.99 47.2951 44.7V43.515H49.6951V44.52C49.6951 45.23 49.5951 45.86 49.3951 46.41C49.1951 46.95 48.8501 47.38 48.3601 47.7C47.8701 48.01 47.1801 48.165 46.2901 48.165Z" fill="white"/>
<path d="M139.434 27V14.85H142.404C143.434 14.85 144.234 14.985 144.804 15.255C145.384 15.515 145.794 15.93 146.034 16.5C146.274 17.06 146.394 17.78 146.394 18.66V23.085C146.394 23.985 146.274 24.725 146.034 25.305C145.794 25.885 145.389 26.315 144.819 26.595C144.259 26.865 143.474 27 142.464 27H139.434ZM141.909 25.275H142.434C142.894 25.275 143.219 25.205 143.409 25.065C143.609 24.915 143.734 24.7 143.784 24.42C143.834 24.13 143.859 23.775 143.859 23.355V18.345C143.859 17.925 143.824 17.59 143.754 17.34C143.694 17.08 143.564 16.89 143.364 16.77C143.174 16.65 142.859 16.59 142.419 16.59H141.909V25.275Z" fill="white"/>
<path d="M131.128 27V14.85H132.853L135.553 21.18V14.85H137.593V27H135.943L133.243 20.28V27H131.128Z" fill="white"/>
<path d="M122.457 27L124.812 14.85H127.557L129.897 27H127.602L127.167 24.33H125.247L124.782 27H122.457ZM125.472 22.815H126.927L126.192 17.91L125.472 22.815Z" fill="white"/>
<path d="M112.729 27V14.85H118.024V16.56H115.204V19.785H117.379V21.51H115.204V25.32H118.054V27H112.729Z" fill="white"/>
<path d="M106.24 27V14.85H108.715V25.32H111.565V27H106.24Z" fill="white"/>
<path d="M97.627 27V14.85H100.702C101.232 14.85 101.722 14.895 102.172 14.985C102.622 15.075 103.017 15.235 103.357 15.465C103.707 15.695 103.972 16.015 104.152 16.425C104.342 16.825 104.437 17.35 104.437 18C104.437 18.49 104.367 18.91 104.227 19.26C104.087 19.6 103.887 19.87 103.627 20.07C103.367 20.27 103.047 20.405 102.667 20.475C103.137 20.545 103.532 20.705 103.852 20.955C104.172 21.205 104.412 21.535 104.572 21.945C104.732 22.355 104.812 22.85 104.812 23.43C104.812 24.04 104.732 24.57 104.572 25.02C104.422 25.47 104.197 25.84 103.897 26.13C103.597 26.42 103.227 26.64 102.787 26.79C102.347 26.93 101.837 27 101.257 27H97.627ZM100.102 25.26H100.792C101.412 25.26 101.837 25.105 102.067 24.795C102.307 24.485 102.427 24.02 102.427 23.4C102.427 22.92 102.372 22.54 102.262 22.26C102.152 21.97 101.972 21.76 101.722 21.63C101.482 21.49 101.157 21.42 100.747 21.42H100.102V25.26ZM100.102 19.755H100.717C101.147 19.755 101.472 19.695 101.692 19.575C101.912 19.445 102.062 19.255 102.142 19.005C102.232 18.745 102.277 18.43 102.277 18.06C102.277 17.69 102.212 17.395 102.082 17.175C101.962 16.945 101.772 16.78 101.512 16.68C101.262 16.58 100.942 16.53 100.552 16.53H100.102V19.755Z" fill="white"/>
<path d="M88.9556 27L91.3106 14.85H94.0556L96.3956 27H94.1006L93.6656 24.33H91.7456L91.2806 27H88.9556ZM91.9706 22.815H93.4256L92.6906 17.91L91.9706 22.815Z" fill="white"/>
<path d="M81.1182 27V14.85H84.0882C85.1182 14.85 85.9182 14.985 86.4882 15.255C87.0682 15.515 87.4782 15.93 87.7182 16.5C87.9582 17.06 88.0782 17.78 88.0782 18.66V23.085C88.0782 23.985 87.9582 24.725 87.7182 25.305C87.4782 25.885 87.0732 26.315 86.5032 26.595C85.9432 26.865 85.1582 27 84.1482 27H81.1182ZM83.5932 25.275H84.1182C84.5782 25.275 84.9032 25.205 85.0932 25.065C85.2932 24.915 85.4182 24.7 85.4682 24.42C85.5182 24.13 85.5432 23.775 85.5432 23.355V18.345C85.5432 17.925 85.5082 17.59 85.4382 17.34C85.3782 17.08 85.2482 16.89 85.0482 16.77C84.8582 16.65 84.5432 16.59 84.1032 16.59H83.5932V25.275Z" fill="white"/>
<path d="M72.373 27V14.85H75.523C76.343 14.85 77.043 14.945 77.623 15.135C78.213 15.315 78.663 15.64 78.973 16.11C79.293 16.58 79.453 17.23 79.453 18.06C79.453 18.56 79.408 19.005 79.318 19.395C79.238 19.775 79.088 20.11 78.868 20.4C78.658 20.68 78.358 20.905 77.968 21.075L79.648 27H77.113L75.718 21.495H74.848V27H72.373ZM74.848 20.025H75.568C75.968 20.025 76.283 19.96 76.513 19.83C76.743 19.7 76.903 19.505 76.993 19.245C77.093 18.975 77.143 18.645 77.143 18.255C77.143 17.695 77.038 17.27 76.828 16.98C76.628 16.68 76.248 16.53 75.688 16.53H74.848V20.025Z" fill="white"/>
<path d="M67.1205 27.165C66.2305 27.165 65.5255 27.005 65.0055 26.685C64.4855 26.365 64.1105 25.91 63.8805 25.32C63.6605 24.72 63.5505 24.005 63.5505 23.175V18.645C63.5505 17.815 63.6605 17.105 63.8805 16.515C64.1105 15.925 64.4855 15.475 65.0055 15.165C65.5255 14.855 66.2305 14.7 67.1205 14.7C68.0205 14.7 68.7305 14.86 69.2505 15.18C69.7805 15.49 70.1555 15.94 70.3755 16.53C70.6055 17.11 70.7205 17.815 70.7205 18.645V23.175C70.7205 24.005 70.6055 24.72 70.3755 25.32C70.1555 25.91 69.7805 26.365 69.2505 26.685C68.7305 27.005 68.0205 27.165 67.1205 27.165ZM67.1205 25.38C67.4405 25.38 67.6755 25.31 67.8255 25.17C67.9755 25.02 68.0755 24.825 68.1255 24.585C68.1755 24.335 68.2005 24.07 68.2005 23.79V18.045C68.2005 17.765 68.1755 17.505 68.1255 17.265C68.0755 17.025 67.9755 16.835 67.8255 16.695C67.6755 16.545 67.4405 16.47 67.1205 16.47C66.8205 16.47 66.5955 16.545 66.4455 16.695C66.2955 16.835 66.1955 17.025 66.1455 17.265C66.0955 17.505 66.0705 17.765 66.0705 18.045V23.79C66.0705 24.07 66.0905 24.335 66.1305 24.585C66.1805 24.825 66.2805 25.02 66.4305 25.17C66.5805 25.31 66.8105 25.38 67.1205 25.38Z" fill="white"/>
<path d="M57.3584 27V14.85H62.4884V16.53H59.8334V19.815H62.0834V21.54H59.8334V27H57.3584Z" fill="white"/>
<path d="M50.9863 27V14.85H56.1163V16.53H53.4613V19.815H55.7113V21.54H53.4613V27H50.9863Z" fill="white"/>
<path d="M42.3149 27L44.6699 14.85H47.4149L49.7549 27H47.4599L47.0249 24.33H45.1049L44.6399 27H42.3149ZM45.3299 22.815H46.7849L46.0499 17.91L45.3299 22.815Z" fill="white"/>
</g>
<defs>
<clipPath id="clip0_143_5273">
<rect width="173" height="173" fill="white"/>
</clipPath>
</defs>
</svg>
